<?xml version="1.0" encoding="utf-8"?>
<!-- Generator: Adobe Illustrator 24.2.3, SVG Export Plug-In . SVG Version: 6.00 Build 0)  -->
<svg version="1.1" id="Layer_1" xmlns="http://www.w3.org/2000/svg" xmlns:xlink="http://www.w3.org/1999/xlink" x="0px" y="0px"
	 viewBox="0 0 338 66" style="enable-background:new 0 0 338 66;" xml:space="preserve">
<style type="text/css">
	.st0{enable-background:new    ;}
	.st1{fill:#F8EFD7;}
</style>
<g class="st0">
	<path class="st1" d="M13.8,46V19.4l-6.1,3.2v-2.4l6.6-3.6h2.2V46H13.8z"/>
	<path class="st1" d="M37,46V19.4l-6.1,3.2v-2.4l6.6-3.6h2.2V46H37z"/>
	<path class="st1" d="M50.3,50.9c0.5-0.4,0.9-0.7,1.3-1.1c0.4-0.3,0.7-0.7,0.9-1c0.3-0.4,0.4-0.7,0.6-1.2c0.1-0.4,0.2-0.9,0.2-1.5
		c-0.1,0-0.3,0.1-0.5,0.1c-0.6,0-1.1-0.2-1.5-0.6c-0.4-0.4-0.6-0.9-0.6-1.5c0-0.6,0.2-1.1,0.6-1.6c0.4-0.4,0.9-0.6,1.5-0.6
		c0.4,0,0.8,0.1,1.1,0.2c0.3,0.2,0.6,0.4,0.8,0.6c0.2,0.3,0.3,0.6,0.4,1c0.1,0.4,0.1,0.8,0.1,1.2c0,2.8-1.2,5-3.6,6.8L50.3,50.9z"/>
	<path class="st1" d="M70.6,46.6c-1.6,0-3-0.2-4.2-0.6c-1.2-0.4-2.3-1-3.1-1.7c-0.8-0.7-1.5-1.7-1.9-2.7c-0.4-1.1-0.6-2.3-0.6-3.7
		c0-1.8,0.5-3.3,1.4-4.5c0.9-1.2,2.2-2.1,3.8-2.7c-1.4-0.7-2.5-1.6-3.2-2.6c-0.7-1-1-2.3-1-3.7c0-1.1,0.2-2,0.6-3
		c0.4-0.9,0.9-1.7,1.7-2.4c0.7-0.7,1.7-1.2,2.7-1.6c1.1-0.4,2.3-0.6,3.8-0.6s2.7,0.2,3.8,0.6c1.1,0.4,2,0.9,2.7,1.6
		c0.7,0.7,1.3,1.5,1.7,2.4c0.4,0.9,0.6,1.9,0.6,3c0,1.4-0.3,2.7-1,3.7c-0.7,1-1.7,1.9-3.2,2.6c1.6,0.6,2.9,1.5,3.8,2.7
		c0.9,1.2,1.4,2.7,1.4,4.5c0,1.4-0.2,2.6-0.6,3.7c-0.4,1.1-1.1,2-1.9,2.7C77.1,45,76,45.6,74.8,46C73.6,46.4,72.2,46.6,70.6,46.6z
		 M70.6,31.8c-1,0-2,0.1-2.9,0.4c-0.9,0.2-1.6,0.6-2.3,1.1c-0.6,0.5-1.1,1.1-1.5,1.9c-0.4,0.8-0.5,1.7-0.5,2.7c0,1,0.2,1.9,0.5,2.7
		c0.3,0.8,0.8,1.5,1.4,2c0.6,0.6,1.4,1,2.3,1.3s1.9,0.4,3,0.4c1.1,0,2.1-0.1,3-0.4s1.6-0.7,2.2-1.3c0.6-0.6,1.1-1.2,1.4-2
		c0.3-0.8,0.5-1.7,0.5-2.7c0-1.1-0.2-2-0.5-2.7c-0.4-0.8-0.8-1.4-1.5-1.9c-0.6-0.5-1.4-0.9-2.3-1.1C72.6,31.9,71.7,31.8,70.6,31.8z
		 M70.6,18.9c-1,0-1.9,0.1-2.6,0.4c-0.8,0.3-1.4,0.6-1.9,1.1c-0.5,0.4-0.9,1-1.2,1.6c-0.3,0.6-0.4,1.3-0.4,2c0,1.1,0.2,1.9,0.5,2.7
		c0.3,0.7,0.8,1.3,1.4,1.7c0.6,0.4,1.2,0.8,2,0.9c0.7,0.2,1.5,0.3,2.3,0.3c0.8,0,1.6-0.1,2.3-0.3c0.7-0.2,1.4-0.5,2-0.9
		c0.6-0.4,1-1,1.4-1.7c0.3-0.7,0.5-1.6,0.5-2.7c0-0.7-0.1-1.4-0.4-2c-0.3-0.6-0.7-1.2-1.2-1.6c-0.5-0.4-1.2-0.8-1.9-1.1
		C72.5,19,71.6,18.9,70.6,18.9z"/>
	<path class="st1" d="M100.6,23.8c-0.1-0.7-0.4-1.4-0.7-2c-0.3-0.6-0.7-1.1-1.1-1.5c-0.5-0.4-1-0.8-1.6-1c-0.6-0.2-1.3-0.4-2.1-0.4
		c-1.2,0-2.2,0.2-3.1,0.6c-0.8,0.4-1.6,0.9-2.1,1.6c-0.6,0.7-1,1.5-1.4,2.4c-0.4,0.9-0.6,1.8-0.8,2.8c-0.2,1-0.4,2-0.5,3
		c-0.1,1-0.2,2-0.3,2.9c0.3-0.6,0.7-1.1,1.1-1.7c0.5-0.6,1-1,1.6-1.5c0.6-0.4,1.4-0.8,2.2-1c0.8-0.3,1.7-0.4,2.7-0.4
		c1.5,0,2.8,0.2,4,0.7s2.1,1.1,2.9,1.9c0.8,0.8,1.4,1.8,1.8,3c0.4,1.2,0.6,2.5,0.6,3.9c0,3-0.8,5.3-2.4,7c-1.6,1.7-3.9,2.5-7,2.5
		c-1.4,0-2.8-0.2-4-0.7c-1.2-0.5-2.3-1.3-3.2-2.4c-0.9-1.1-1.6-2.5-2.1-4.3c-0.5-1.8-0.7-4-0.7-6.6c0-1.2,0.1-2.3,0.2-3.6
		c0.1-1.2,0.3-2.4,0.6-3.6s0.7-2.3,1.2-3.3c0.5-1.1,1.1-2,1.9-2.8c0.8-0.8,1.7-1.4,2.8-1.9c1.1-0.5,2.3-0.7,3.8-0.7
		c1.2,0,2.3,0.2,3.3,0.5c1,0.3,1.9,0.8,2.6,1.4c0.7,0.6,1.3,1.4,1.8,2.2c0.5,0.9,0.8,1.9,0.9,3.1H100.6z M94.4,44.4
		c1.3,0,2.3-0.2,3.1-0.7c0.8-0.4,1.5-1,2-1.7c0.5-0.7,0.9-1.5,1.1-2.4c0.2-0.9,0.3-1.8,0.3-2.6c0-2.3-0.5-4.1-1.6-5.3
		c-1-1.2-2.7-1.8-5.1-1.8c-1,0-1.9,0.2-2.7,0.6c-0.8,0.4-1.5,0.9-2,1.6c-0.6,0.7-1,1.4-1.3,2.3s-0.4,1.8-0.4,2.8
		c0,0.8,0.1,1.7,0.3,2.5c0.2,0.9,0.6,1.6,1.1,2.3c0.5,0.7,1.2,1.3,2,1.7C92.1,44.1,93.2,44.4,94.4,44.4z"/>
	<path class="st1" d="M120.5,46v-7.2h-13.4v-2.3l13.7-19.5h2.3v19.5h4.1v2.3h-4.1V46H120.5z M120.5,21.2l-10.6,15.3h10.6V21.2z"/>
	<path class="st1" d="M136.6,44.1c0,0.6-0.2,1.1-0.6,1.5s-0.9,0.6-1.5,0.6c-0.6,0-1.1-0.2-1.5-0.6c-0.4-0.4-0.6-0.9-0.6-1.5
		c0-0.6,0.2-1.1,0.6-1.6c0.4-0.4,0.9-0.6,1.5-0.6c0.6,0,1.1,0.2,1.5,0.6C136.4,43,136.6,43.5,136.6,44.1z"/>
	<path class="st1" d="M155.3,46v-7.2h-13.4v-2.3l13.7-19.5h2.3v19.5h4.1v2.3h-4.1V46H155.3z M155.3,21.2l-10.6,15.3h10.6V21.2z"/>
	<path class="st1" d="M175,46.6c-1.6,0-3-0.2-4.2-0.6c-1.2-0.4-2.3-1-3.1-1.7c-0.8-0.7-1.5-1.7-1.9-2.7c-0.4-1.1-0.6-2.3-0.6-3.7
		c0-1.8,0.5-3.3,1.4-4.5c0.9-1.2,2.2-2.1,3.8-2.7c-1.4-0.7-2.5-1.6-3.2-2.6c-0.7-1-1-2.3-1-3.7c0-1.1,0.2-2,0.6-3
		c0.4-0.9,0.9-1.7,1.7-2.4c0.7-0.7,1.7-1.2,2.7-1.6c1.1-0.4,2.3-0.6,3.8-0.6s2.7,0.2,3.8,0.6c1.1,0.4,2,0.9,2.7,1.6s1.3,1.5,1.7,2.4
		c0.4,0.9,0.6,1.9,0.6,3c0,1.4-0.3,2.7-1,3.7c-0.7,1-1.7,1.9-3.2,2.6c1.6,0.6,2.9,1.5,3.8,2.7c0.9,1.2,1.4,2.7,1.4,4.5
		c0,1.4-0.2,2.6-0.6,3.7c-0.4,1.1-1.1,2-1.9,2.7c-0.8,0.7-1.9,1.3-3.1,1.7C178,46.4,176.6,46.6,175,46.6z M175,31.8
		c-1,0-2,0.1-2.9,0.4c-0.9,0.2-1.6,0.6-2.3,1.1c-0.6,0.5-1.1,1.1-1.5,1.9c-0.4,0.8-0.5,1.7-0.5,2.7c0,1,0.2,1.9,0.5,2.7
		c0.3,0.8,0.8,1.5,1.4,2c0.6,0.6,1.4,1,2.3,1.3s1.9,0.4,3,0.4c1.1,0,2.1-0.1,3-0.4s1.6-0.7,2.2-1.3c0.6-0.6,1.1-1.2,1.4-2
		c0.3-0.8,0.5-1.7,0.5-2.7c0-1.1-0.2-2-0.5-2.7c-0.3-0.8-0.8-1.4-1.5-1.9c-0.6-0.5-1.4-0.9-2.3-1.1C177,31.9,176.1,31.8,175,31.8z
		 M175,18.9c-1,0-1.9,0.1-2.6,0.4c-0.8,0.3-1.4,0.6-1.9,1.1c-0.5,0.4-0.9,1-1.2,1.6c-0.3,0.6-0.4,1.3-0.4,2c0,1.1,0.2,1.9,0.5,2.7
		c0.3,0.7,0.8,1.3,1.4,1.7c0.6,0.4,1.2,0.8,2,0.9c0.7,0.2,1.5,0.3,2.3,0.3c0.8,0,1.6-0.1,2.3-0.3c0.7-0.2,1.4-0.5,2-0.9
		c0.6-0.4,1-1,1.4-1.7c0.3-0.7,0.5-1.6,0.5-2.7c0-0.7-0.1-1.4-0.4-2c-0.3-0.6-0.7-1.2-1.2-1.6c-0.5-0.4-1.2-0.8-1.9-1.1
		C176.9,19,176,18.9,175,18.9z"/>
	<path class="st1" d="M218.8,46V29.9c0-1.1-0.2-2-0.6-2.9c-0.4-0.9-0.9-1.6-1.6-2.2c-0.7-0.6-1.5-1.1-2.4-1.4
		c-0.9-0.3-1.9-0.5-3-0.5c-1.7,0-3.1,0.4-4.4,1.2c-1.2,0.8-2.2,1.9-2.8,3.2l2.3,2.7V46h-2.5V30.5l-2.5-2.9c0.3-1.1,0.7-2,1.3-2.9
		c0.6-0.9,1.3-1.6,2.2-2.2c0.9-0.6,1.8-1.1,2.9-1.4c1.1-0.3,2.3-0.5,3.6-0.5c1.5,0,2.9,0.2,4.2,0.7c1.3,0.5,2.3,1.1,3.2,2
		c0.9,0.8,1.6,1.8,2.1,3s0.7,2.5,0.7,3.9V46H218.8z"/>
	<path class="st1" d="M219.3,15.8c-1.7-0.6-3.3-1.1-4.8-1.5s-2.9-0.7-4.2-0.9c-1.3-0.2-2.5-0.4-3.6-0.5c-1.1-0.1-2.1-0.1-3.1-0.1
		c-0.5,0-0.8,0-1.2,0s-0.6,0-0.8,0c-0.2,0-0.4,0-0.6,0c-0.2,0-0.4,0-0.6,0.1c0.4-1.1,1-2.2,1.6-3.1c0.7-0.9,1.4-1.7,2.3-2.3
		c0.9-0.6,1.8-1.1,2.9-1.4c1.1-0.3,2.2-0.5,3.4-0.5c1.5,0,2.8,0.3,4.1,0.8c1.2,0.5,2.3,1.3,3.2,2.2c0.9,1,1.6,2.1,2.2,3.4
		c0.6,1.3,0.9,2.8,1,4.4L219.3,15.8z M218.7,13.4c-0.9-1.9-1.9-3.3-3.2-4.2c-1.3-0.9-2.8-1.4-4.8-1.4c-0.7,0-1.5,0.1-2.2,0.2
		c-0.7,0.1-1.3,0.3-1.9,0.6c-0.6,0.3-1.1,0.6-1.6,1c-0.5,0.4-0.9,0.8-1.2,1.3c1.3,0,2.6,0,3.8,0.1c1.2,0.1,2.4,0.2,3.6,0.4
		c1.2,0.2,2.4,0.5,3.6,0.8C216.1,12.5,217.4,12.9,218.7,13.4z"/>
	<path class="st1" d="M230.7,16.9c0-0.3-0.1-0.5-0.2-0.6c-0.1-0.1-0.3-0.3-0.7-0.5l-5.8-3c0-1.1,0.2-2.1,0.6-3s0.9-1.7,1.6-2.4
		s1.5-1.2,2.4-1.6c0.9-0.4,2-0.6,3.1-0.6c1.1,0,2.1,0.2,3.1,0.5c0.9,0.4,1.7,0.9,2.4,1.5s1.2,1.4,1.6,2.3c0.4,0.9,0.6,1.8,0.6,2.8
		h-2.3c0-0.8-0.1-1.5-0.4-2.1c-0.3-0.6-0.7-1.1-1.1-1.6c-0.5-0.4-1-0.8-1.7-1c-0.7-0.2-1.4-0.3-2.1-0.3c-0.7,0-1.4,0.1-2,0.3
		c-0.6,0.2-1.1,0.5-1.6,0.9c-0.5,0.4-0.8,0.8-1.1,1.4c-0.3,0.5-0.5,1.1-0.6,1.7l5.6,2.9c0.5,0.2,0.8,0.5,1,0.8
		c0.2,0.3,0.2,0.7,0.2,1v22.1c0.2-0.1,0.5-0.2,0.7-0.2c0.3,0,0.6,0,0.9,0c0.6,0,1.1,0.1,1.6,0.3c0.5,0.2,0.9,0.5,1.3,0.9
		c0.4,0.4,0.7,0.8,0.9,1.3c0.2,0.5,0.3,1,0.3,1.6c0,0.6-0.1,1.1-0.3,1.6c-0.2,0.5-0.5,0.9-0.9,1.3c-0.4,0.4-0.8,0.7-1.3,0.9
		s-1,0.3-1.6,0.3c-0.6,0-1.1-0.1-1.6-0.3c-0.5-0.2-0.9-0.5-1.3-0.9c-0.4-0.4-0.7-0.8-0.9-1.3c-0.2-0.5-0.3-1-0.3-1.6V16.9z
		 M234.9,44.1c0.5,0,1-0.2,1.3-0.6s0.5-0.8,0.5-1.4c0-0.5-0.2-1-0.5-1.3c-0.3-0.4-0.8-0.5-1.3-0.5c-0.6,0-1,0.2-1.4,0.5
		c-0.4,0.4-0.5,0.8-0.5,1.3c0,0.5,0.2,1,0.5,1.4S234.3,44.1,234.9,44.1z"/>
	<path class="st1" d="M258.7,46v-9.9c0-0.7-0.1-1.3-0.4-1.9c-0.3-0.6-0.7-1.1-1.3-1.6c-0.6-0.5-1.3-0.8-2.1-1.1s-1.8-0.4-2.9-0.4
		c-1,0-1.8,0.1-2.6,0.4c-0.7,0.3-1.4,0.6-1.9,1.1c-0.5,0.5-0.9,1-1.1,1.7c-0.3,0.7-0.4,1.4-0.4,2.2v1.9c0.2-0.1,0.5-0.2,0.7-0.2
		c0.2,0,0.5,0,0.8,0c0.6,0,1.1,0.1,1.6,0.3c0.5,0.2,0.9,0.5,1.3,0.9c0.4,0.4,0.7,0.8,0.9,1.3c0.2,0.5,0.3,1,0.3,1.6
		c0,0.6-0.1,1.1-0.3,1.6c-0.2,0.5-0.5,0.9-0.9,1.3c-0.4,0.4-0.8,0.7-1.3,0.9c-0.5,0.2-1,0.3-1.6,0.3c-0.6,0-1.1-0.1-1.6-0.3
		s-0.9-0.5-1.3-0.9c-0.4-0.4-0.6-0.8-0.8-1.3c-0.2-0.5-0.3-1-0.3-1.6v-5.8c0-1.1,0.2-2.1,0.6-3c0.4-0.9,1-1.7,1.8-2.4
		c0.8-0.7,1.7-1.2,2.7-1.6c1-0.4,2.2-0.6,3.5-0.6c1.5,0,2.8,0.2,3.9,0.7c1,0.4,2,1.1,2.8,1.9v-3.5c0-0.7-0.2-1.4-0.5-2
		c-0.3-0.6-0.8-1.2-1.3-1.6c-0.6-0.5-1.3-0.8-2.2-1.1c-0.9-0.3-1.8-0.4-3-0.4c-1.4,0-2.5,0.1-3.4,0.4s-1.7,0.7-2.3,1.2s-1,1-1.3,1.6
		c-0.3,0.6-0.5,1.2-0.6,1.9h-2.4c0-1,0.3-1.9,0.8-2.8c0.5-0.9,1.1-1.7,2-2.3c0.8-0.7,1.9-1.2,3.1-1.6c1.2-0.4,2.6-0.6,4.1-0.6
		c1.4,0,2.7,0.2,3.9,0.5c1.2,0.4,2.2,0.9,3,1.5s1.5,1.4,1.9,2.4c0.5,0.9,0.7,1.9,0.7,3.1v18H258.7z M247.5,44.1c0.5,0,1-0.2,1.4-0.6
		s0.5-0.8,0.5-1.4c0-0.5-0.2-1-0.5-1.3c-0.4-0.4-0.8-0.5-1.4-0.5s-1,0.2-1.3,0.5c-0.3,0.4-0.5,0.8-0.5,1.3c0,0.5,0.2,1,0.5,1.4
		S247,44.1,247.5,44.1z"/>
	<path class="st1" d="M283.9,46V29.9c0-1.1-0.2-2-0.6-2.9c-0.4-0.9-0.9-1.6-1.6-2.2c-0.7-0.6-1.5-1.1-2.4-1.4
		c-0.9-0.3-1.9-0.5-3-0.5c-1.7,0-3.1,0.4-4.4,1.2c-1.2,0.8-2.2,1.9-2.8,3.2l2.3,2.7V46h-2.5V30.5l-2.5-2.9c0.3-1.1,0.7-2,1.3-2.9
		c0.6-0.9,1.3-1.6,2.2-2.2c0.9-0.6,1.8-1.1,2.9-1.4c1.1-0.3,2.3-0.5,3.6-0.5c1.5,0,2.9,0.2,4.2,0.7c1.3,0.5,2.3,1.1,3.2,2
		c0.9,0.8,1.6,1.8,2.1,3s0.7,2.5,0.7,3.9V46H283.9z"/>
	<path class="st1" d="M301.1,30.6h-9.9v-1.5c0-1.2,0.2-2.2,0.6-3.3c0.4-1,0.9-1.9,1.7-2.7c0.7-0.8,1.7-1.4,2.8-1.9
		c1.1-0.5,2.4-0.7,3.8-0.7c1.2,0,2.3,0.2,3.4,0.6c1,0.4,1.9,0.9,2.7,1.6c0.8,0.7,1.3,1.5,1.8,2.5c0.4,1,0.6,2,0.6,3.2H306
		c0-0.8-0.1-1.6-0.4-2.3c-0.3-0.7-0.7-1.3-1.2-1.8c-0.5-0.5-1.2-0.9-1.9-1.2c-0.8-0.3-1.6-0.4-2.6-0.4c-0.9,0-1.8,0.1-2.5,0.4
		c-0.7,0.3-1.4,0.7-1.9,1.2c-0.5,0.5-0.9,1.1-1.2,1.8c-0.3,0.7-0.4,1.5-0.4,2.3h9.8v13.7c0,0.6-0.1,1.1-0.3,1.6
		c-0.2,0.5-0.5,0.9-0.9,1.3c-0.4,0.4-0.8,0.7-1.3,0.9s-1,0.3-1.6,0.3c-0.6,0-1.1-0.1-1.6-0.3s-0.9-0.5-1.3-0.9
		c-0.4-0.4-0.7-0.8-0.9-1.3c-0.2-0.5-0.3-1-0.3-1.6c0-0.6,0.1-1.1,0.3-1.6c0.2-0.5,0.5-0.9,0.9-1.3c0.4-0.4,0.8-0.7,1.3-0.9
		c0.5-0.2,1-0.3,1.6-0.3c0.6,0,1.1,0.1,1.5,0.2V30.6z M299.6,44.1c0.5,0,1-0.2,1.4-0.6s0.5-0.8,0.5-1.4c0-0.5-0.2-1-0.5-1.3
		c-0.4-0.4-0.8-0.5-1.4-0.5s-1,0.2-1.3,0.5c-0.3,0.4-0.5,0.8-0.5,1.3c0,0.5,0.2,1,0.5,1.4S299,44.1,299.6,44.1z"/>
	<path class="st1" d="M312.9,8.6c-0.2,1.3-0.6,2.4-1.2,3.4c-0.5,1-1.3,1.9-2.1,2.6c-0.9,0.7-2,1.3-3.3,1.6c-1.3,0.4-2.8,0.6-4.6,0.6
		c-1.2,0-2.3-0.1-3.3-0.3c-1-0.2-1.9-0.5-2.7-0.9c-0.7-0.4-1.3-0.9-1.8-1.5c-0.4-0.6-0.6-1.4-0.6-2.2c0-0.7,0.1-1.2,0.4-1.7
		c0.2-0.5,0.5-0.9,0.9-1.2c0.4-0.3,0.8-0.6,1.3-0.7c0.5-0.2,1-0.2,1.5-0.2s1,0.1,1.4,0.2s0.9,0.4,1.2,0.7c0.4,0.3,0.6,0.7,0.9,1.1
		c0.2,0.5,0.3,1,0.3,1.6c0,0.7-0.2,1.3-0.5,1.8c-0.3,0.5-0.6,0.8-1,1c0.2,0.1,0.5,0.2,0.8,0.2c0.3,0.1,0.7,0.1,1.1,0.1
		c1.4,0,2.6-0.1,3.6-0.4c1-0.3,1.9-0.7,2.6-1.3c0.7-0.5,1.3-1.2,1.6-2c0.4-0.8,0.6-1.6,0.8-2.6H312.9z M297.4,13.7
		c0.5,0,1-0.2,1.3-0.5c0.4-0.4,0.5-0.8,0.5-1.3s-0.2-1-0.6-1.3c-0.4-0.4-0.8-0.5-1.4-0.5s-1,0.2-1.3,0.5c-0.3,0.3-0.5,0.8-0.5,1.3
		s0.2,1,0.6,1.3C296.4,13.6,296.8,13.7,297.4,13.7z"/>
	<path class="st1" d="M330.8,46l-10.7-4.6v0.8c0,0.6-0.1,1.1-0.3,1.6c-0.2,0.5-0.5,0.9-0.9,1.3c-0.4,0.4-0.8,0.7-1.3,0.9
		c-0.5,0.2-1,0.3-1.6,0.3c-0.6,0-1.1-0.1-1.6-0.3s-0.9-0.5-1.3-0.9c-0.4-0.4-0.7-0.8-0.9-1.3c-0.2-0.5-0.3-1-0.3-1.6
		c0-0.6,0.1-1.1,0.3-1.6c0.2-0.5,0.5-0.9,0.9-1.3c0.4-0.4,0.8-0.7,1.3-0.9c0.5-0.2,1-0.3,1.6-0.3c0.3,0,0.6,0,0.8,0
		c0.3,0,0.5,0.1,0.7,0.2v-9.9c-0.2,0.1-0.5,0.2-0.7,0.2c-0.3,0-0.5,0-0.8,0c-0.6,0-1.1-0.1-1.6-0.3c-0.5-0.2-0.9-0.5-1.3-0.9
		c-0.4-0.4-0.7-0.8-0.9-1.3c-0.2-0.5-0.3-1-0.3-1.6c0-0.6,0.1-1.1,0.3-1.6c0.2-0.5,0.5-0.9,0.9-1.3c0.4-0.4,0.8-0.7,1.3-0.9
		c0.5-0.2,1-0.3,1.6-0.3c0.6,0,1.1,0.1,1.6,0.3c0.5,0.2,0.9,0.5,1.3,0.9c0.4,0.4,0.7,0.8,0.9,1.3c0.2,0.5,0.3,1,0.3,1.6v14.5
		l10.6,4.4V20.8h2.5V46H330.8z M316,26.5c0.5,0,1-0.2,1.3-0.5c0.4-0.4,0.5-0.8,0.5-1.4s-0.2-1-0.5-1.3c-0.4-0.4-0.8-0.5-1.3-0.5
		s-1,0.2-1.4,0.5c-0.4,0.4-0.5,0.8-0.5,1.3s0.2,1,0.5,1.4C315,26.4,315.5,26.5,316,26.5z M316,44.1c0.5,0,1-0.2,1.3-0.6
		c0.4-0.4,0.5-0.8,0.5-1.4c0-0.5-0.2-1-0.5-1.3c-0.4-0.4-0.8-0.5-1.3-0.5s-1,0.2-1.4,0.5c-0.4,0.4-0.5,0.8-0.5,1.3
		c0,0.5,0.2,1,0.5,1.4S315.5,44.1,316,44.1z"/>
</g>
</svg>
