<?xml version="1.0" encoding="utf-8"?>
<!-- Generator: Adobe Illustrator 24.2.3, SVG Export Plug-In . SVG Version: 6.00 Build 0)  -->
<svg version="1.1" id="Layer_1" xmlns="http://www.w3.org/2000/svg" xmlns:xlink="http://www.w3.org/1999/xlink" x="0px" y="0px"
	 viewBox="0 0 130 328" style="enable-background:new 0 0 130 328;" xml:space="preserve">
<style type="text/css">
	.st0{enable-background:new    ;}
	.st1{fill:#EA424E;}
</style>
<g class="st0">
	<path class="st1" d="M88.9,140.3c3.2,3.3,5.3,7,6.5,11c0.5,2.3,0.8,4.6,0.8,6.8c0,5.2,0,10.3,0.1,15.4c0.1,5.1,0.1,10.2,0.1,15.4
		c0,1.5-0.7,2.8-2,3.8l-21,17.8c-3,1.8-6.5,2.7-10.5,2.5c-4-0.2-7.9-1.1-11.6-2.9s-7.1-4.2-10.1-7.2c-3-3.1-5.1-6.7-6.2-10.9
		c-0.3-1.5-0.5-2.9-0.6-4.2c-0.1-1.3-0.2-2.8-0.4-4.2v-12.8c0-0.8,0.2-1.5,0.8-2l14.8-11.8c1.3-0.5,2-0.3,2,0.5
		c0,4.3,0,8.5,0.1,12.6c0.1,4.1,0.1,8.2,0.1,12.4c0,2.2,0.5,4.3,1.4,6.4c0.9,2.1,2.2,4,3.8,5.8c1.6,1.8,3.5,3.2,5.6,4.4
		c2.2,1.2,4.5,1.8,7,2c0.8,0.2,1.7,0,2.6-0.6c0.9-0.6,1.8-1.3,2.6-2.1c0.8-0.8,1.6-1.8,2.4-2.8s1.3-1.9,1.6-2.8
		c0-5.3,0-10.6,0.1-15.9c0.1-5.2,0.1-10.5,0.1-15.9c0-2.7-0.7-5.5-2.1-8.6c-1.4-3.1-3.3-5.8-5.6-8.1c-2.3-2.3-4.9-4-7.8-5.1
		c-2.8-1.1-5.8-1-8.8,0.4c-3.3,1.5-5.1,1.6-5.2,0.2c-0.2-1.3,0.8-2.7,2.8-4l4.8-2.8c2.7-1.7,5.7-2.5,9-2.6c3.3-0.1,6.7,0.5,10,1.6
		c1.8-2.5,2.8-5.1,2.9-7.8c0.1-2.7,0.1-6.3,0.1-11c0-2-0.5-4.1-1.4-6.2c-0.9-2.2-2.2-4.1-3.9-5.9c-1.7-1.8-3.5-3.2-5.6-4.4
		c-2.1-1.2-4.4-1.8-6.9-2c-1.7-0.2-3.5,0.8-5.4,2.9c-1.9,2.1-3.3,3.9-4.1,5.4V124c0,0.7-0.2,1.2-0.8,1.8l-14.8,11.8
		c-1.2,0.7-1.8,0.5-2-0.5v-30.5c0-0.8,0.2-1.5,0.5-2c0.3-0.5,0.8-1,1.2-1.5l21.2-18c3-1.8,6.5-2.7,10.5-2.5c4,0.2,7.9,1.1,11.6,2.9
		s7.1,4.2,10,7.4c2.9,3.2,5,6.8,6.1,11c0.7,2,1,4.2,1,6.5v15c-0.2,3.7-1,6.7-2.5,9C92.4,136.6,90.7,138.6,88.9,140.3z"/>
</g>
</svg>
