<?xml version="1.0" encoding="utf-8"?>
<!-- Generator: Adobe Illustrator 24.2.3, SVG Export Plug-In . SVG Version: 6.00 Build 0)  -->
<svg version="1.1" id="Layer_1" xmlns="http://www.w3.org/2000/svg" xmlns:xlink="http://www.w3.org/1999/xlink" x="0px" y="0px"
	 viewBox="0 0 491 92" style="enable-background:new 0 0 491 92;" xml:space="preserve">
<style type="text/css">
	.st0{enable-background:new    ;}
	.st1{fill:#F8EFD7;}
</style>
<g class="st0">
	<path class="st1" d="M21.4,64v-9.6H2.7v-4.2l19.4-27h5.7v26.4h5.6v4.8h-5.6V64H21.4z M21.4,33.8L10.1,49.6h11.3V33.8z"/>
	<path class="st1" d="M45.6,28.5l-1,10.5c0.9-0.5,2-0.9,3.3-1.2c1.3-0.3,2.7-0.4,4.3-0.4c2.1,0,4,0.3,5.7,0.9
		c1.8,0.6,3.3,1.5,4.5,2.7s2.2,2.6,3,4.3c0.7,1.7,1.1,3.6,1.1,5.8c0,2.1-0.4,4.1-1.2,5.8c-0.8,1.7-1.8,3.1-3.2,4.3
		c-1.3,1.2-2.8,2.1-4.6,2.7c-1.7,0.6-3.5,0.9-5.4,0.9c-2.2,0-4.1-0.2-5.9-0.6c-1.8-0.4-3.4-1.1-4.7-2c-1.4-0.9-2.5-2.2-3.3-3.7
		c-0.8-1.5-1.4-3.4-1.6-5.7h6.6c0.2,1.3,0.5,2.4,1,3.3c0.4,0.9,1,1.6,1.7,2.2c0.7,0.6,1.5,1,2.4,1.2c0.9,0.2,2.1,0.4,3.3,0.4
		c1.3,0,2.5-0.2,3.6-0.6c1-0.4,1.9-1,2.6-1.8c0.7-0.8,1.3-1.7,1.6-2.8S60,52.4,60,51c0-2.9-0.8-5.2-2.4-6.7C56,42.8,53.9,42,51.1,42
		c-1.4,0-2.8,0.3-4.2,0.9c-1.4,0.6-2.6,1.6-3.5,3l-5.5-0.5l2.2-22.1h24.2v5.3H45.6z"/>
	<path class="st1" d="M71.6,70.9c0.6-0.5,1.2-1,1.6-1.5s0.9-1,1.2-1.5c0.3-0.5,0.6-1.1,0.8-1.7c0.2-0.6,0.3-1.2,0.4-2
		c-0.5,0-1-0.2-1.4-0.4c-0.4-0.2-0.7-0.5-1-0.9c-0.3-0.3-0.5-0.7-0.6-1.2c-0.1-0.4-0.2-0.9-0.2-1.3c0-0.6,0.1-1.1,0.3-1.6
		c0.2-0.5,0.5-0.9,0.9-1.3c0.4-0.4,0.8-0.6,1.3-0.9c0.5-0.2,1-0.3,1.6-0.3c0.6,0,1.2,0.1,1.7,0.4c0.5,0.3,0.9,0.6,1.3,1
		c0.4,0.4,0.6,0.9,0.8,1.5c0.2,0.6,0.3,1.2,0.3,1.8c0,2.6-0.5,4.9-1.6,6.9c-1.1,1.9-2.5,3.7-4.4,5.2L71.6,70.9z"/>
	<path class="st1" d="M105.1,64v-9.6H86.4v-4.2l19.4-27h5.7v26.4h5.6v4.8h-5.6V64H105.1z M105.1,33.8L93.9,49.6h11.3V33.8z"/>
	<path class="st1" d="M135.3,22.7c2.7,0,4.9,0.5,6.8,1.6c1.9,1,3.4,2.5,4.7,4.4c1.2,1.9,2.1,4.1,2.7,6.7c0.6,2.6,0.9,5.4,0.9,8.4
		c0,3-0.3,5.8-0.9,8.4c-0.6,2.6-1.5,4.8-2.7,6.7c-1.2,1.9-2.8,3.3-4.7,4.4c-1.9,1-4.2,1.6-6.8,1.6s-4.9-0.5-6.8-1.6
		c-1.9-1-3.4-2.5-4.7-4.4c-1.2-1.9-2.1-4.1-2.7-6.7c-0.6-2.6-0.9-5.4-0.9-8.4c0-3,0.3-5.8,0.9-8.4c0.6-2.6,1.5-4.8,2.7-6.7
		c1.2-1.9,2.8-3.3,4.7-4.4C130.4,23.3,132.7,22.7,135.3,22.7z M135.3,27.6c-2.8,0-4.9,1.4-6.4,4.1s-2.2,6.7-2.2,12
		c0,5.3,0.7,9.3,2.2,12.1s3.6,4.1,6.4,4.1s4.9-1.4,6.4-4.1s2.2-6.8,2.2-12.1c0-5.3-0.7-9.3-2.2-12S138.1,27.6,135.3,27.6z"/>
	<path class="st1" d="M176.8,33.3c-0.4-1.8-1.1-3.3-2.1-4.3c-1-1-2.5-1.5-4.2-1.5c-1.3,0-2.5,0.3-3.6,0.8c-1.1,0.5-2,1.4-2.8,2.5
		c-0.8,1.2-1.4,2.6-1.9,4.5c-0.5,1.8-0.8,4-1,6.5c0.8-1.2,2-2.2,3.5-3c1.6-0.8,3.4-1.2,5.6-1.2c2.2,0,4.1,0.3,5.8,1s3.1,1.6,4.2,2.7
		c1.2,1.2,2,2.6,2.6,4.3c0.6,1.7,0.9,3.5,0.9,5.5c0,2.1-0.3,4-0.9,5.7c-0.6,1.7-1.5,3.1-2.7,4.3c-1.2,1.2-2.7,2.1-4.4,2.7
		c-1.8,0.6-3.8,0.9-6.2,0.9c-2.7,0-5-0.5-6.9-1.5c-1.9-1-3.4-2.3-4.5-4.1c-1.2-1.7-2-3.8-2.5-6.3c-0.5-2.4-0.8-5.1-0.8-8
		c0-3.7,0.4-6.9,1.1-9.7c0.7-2.8,1.7-5.1,3.1-6.9c1.3-1.8,2.9-3.2,4.8-4.2c1.8-0.9,3.9-1.4,6.1-1.4c1.8,0,3.5,0.2,5.1,0.6
		c1.5,0.4,2.9,1,4,1.9c1.1,0.9,2.1,2,2.8,3.3c0.7,1.3,1.2,2.9,1.4,4.8H176.8z M169.9,59.9c1.4,0,2.6-0.3,3.6-0.8
		c1-0.5,1.8-1.2,2.4-2s1.1-1.8,1.3-2.8s0.4-2.1,0.4-3.1c0-2.8-0.7-4.9-2-6.4c-1.3-1.5-3.3-2.2-6-2.2c-1.2,0-2.3,0.2-3.2,0.6
		s-1.8,1-2.4,1.8c-0.7,0.8-1.2,1.7-1.6,2.8c-0.4,1.1-0.5,2.3-0.5,3.6c0,1,0.1,1.9,0.4,2.9c0.3,1,0.8,1.9,1.4,2.8
		c0.6,0.8,1.4,1.5,2.4,2.1C167.2,59.7,168.4,59.9,169.9,59.9z"/>
	<path class="st1" d="M197.9,60.5c0,0.5-0.1,1.1-0.3,1.6c-0.2,0.5-0.5,0.9-0.9,1.3c-0.4,0.4-0.8,0.6-1.3,0.8s-1,0.3-1.5,0.3
		s-1.1-0.1-1.5-0.3s-0.9-0.5-1.3-0.8c-0.4-0.4-0.7-0.8-0.9-1.3c-0.2-0.5-0.3-1-0.3-1.6c0-0.6,0.1-1.1,0.3-1.6
		c0.2-0.5,0.5-0.9,0.9-1.3c0.4-0.4,0.8-0.6,1.3-0.9s1-0.3,1.5-0.3s1.1,0.1,1.5,0.3s0.9,0.5,1.3,0.9c0.4,0.4,0.7,0.8,0.9,1.3
		C197.8,59.4,197.9,59.9,197.9,60.5z"/>
	<path class="st1" d="M222.4,64v-9.6h-18.7v-4.2l19.4-27h5.7v26.4h5.6v4.8h-5.6V64H222.4z M222.4,33.8l-11.3,15.9h11.3V33.8z"/>
	<path class="st1" d="M260.5,33.3c-0.4-1.8-1.1-3.3-2.1-4.3c-1-1-2.5-1.5-4.2-1.5c-1.3,0-2.5,0.3-3.6,0.8c-1.1,0.5-2,1.4-2.8,2.5
		c-0.8,1.2-1.4,2.6-1.9,4.5c-0.5,1.8-0.8,4-1,6.5c0.8-1.2,2-2.2,3.5-3c1.6-0.8,3.4-1.2,5.6-1.2c2.2,0,4.1,0.3,5.8,1s3.1,1.6,4.2,2.7
		c1.2,1.2,2,2.6,2.6,4.3c0.6,1.7,0.9,3.5,0.9,5.5c0,2.1-0.3,4-0.9,5.7s-1.5,3.1-2.7,4.3c-1.2,1.2-2.7,2.1-4.4,2.7
		c-1.8,0.6-3.8,0.9-6.2,0.9c-2.7,0-5-0.5-6.9-1.5c-1.9-1-3.4-2.3-4.5-4.1c-1.2-1.7-2-3.8-2.5-6.3c-0.5-2.4-0.8-5.1-0.8-8
		c0-3.7,0.4-6.9,1.1-9.7c0.7-2.8,1.7-5.1,3.1-6.9c1.3-1.8,2.9-3.2,4.8-4.2c1.8-0.9,3.9-1.4,6.1-1.4c1.8,0,3.5,0.2,5.1,0.6
		s2.9,1,4,1.9c1.1,0.9,2.1,2,2.8,3.3c0.7,1.3,1.2,2.9,1.4,4.8H260.5z M253.6,59.9c1.4,0,2.6-0.3,3.6-0.8c1-0.5,1.8-1.2,2.4-2
		s1.1-1.8,1.3-2.8s0.4-2.1,0.4-3.1c0-2.8-0.7-4.9-2-6.4c-1.3-1.5-3.3-2.2-6-2.2c-1.2,0-2.3,0.2-3.2,0.6s-1.8,1-2.4,1.8
		c-0.7,0.8-1.2,1.7-1.6,2.8c-0.4,1.1-0.5,2.3-0.5,3.6c0,1,0.1,1.9,0.4,2.9c0.3,1,0.8,1.9,1.4,2.8c0.6,0.8,1.4,1.5,2.4,2.1
		C251,59.7,252.2,59.9,253.6,59.9z"/>
	<path class="st1" d="M313.7,64V41.7c0-1.3-0.3-2.4-0.8-3.5c-0.5-1.1-1.2-2-2.1-2.8c-0.9-0.8-1.9-1.4-3.1-1.8
		c-1.2-0.4-2.4-0.6-3.7-0.6c-0.9,0-1.8,0.1-2.6,0.3c-0.9,0.2-1.7,0.5-2.5,0.9c-0.8,0.4-1.5,0.9-2.1,1.6s-1.2,1.3-1.6,2.2l3.1,3.5V64
		h-6V42.7l-3.6-3.9c0.4-1.6,1.1-3,2.1-4.3s2.1-2.4,3.4-3.3s2.8-1.6,4.5-2.1c1.7-0.5,3.5-0.7,5.4-0.7c2.3,0,4.4,0.3,6.4,1
		c1.9,0.7,3.6,1.6,5,2.8c1.4,1.2,2.5,2.6,3.2,4.3c0.8,1.7,1.2,3.5,1.2,5.5v22H313.7z"/>
	<path class="st1" d="M319.6,25.3c-1.8-0.8-3.6-1.6-5.7-2.3c-2-0.7-4.1-1.3-6.3-1.8c-2.2-0.5-4.4-0.9-6.6-1.2s-4.5-0.4-6.7-0.4
		c-1.1,0-2.2,0-3.2,0.1c-1,0-2.1,0.2-3.1,0.3c1.5-3.7,3.5-6.6,6.1-8.5s5.8-2.9,9.5-2.9c2.3,0,4.4,0.4,6.3,1.2c1.9,0.8,3.5,2,4.9,3.4
		c1.4,1.5,2.5,3.2,3.3,5.3S319.4,22.8,319.6,25.3z M297.2,16c1.4,0,2.7,0.1,4,0.2c1.3,0.1,2.6,0.3,4,0.6c1.3,0.3,2.7,0.6,4,0.9
		c1.4,0.4,2.8,0.8,4.2,1.3c-0.4-0.8-1-1.6-1.6-2.3c-0.6-0.8-1.4-1.4-2.3-2c-0.9-0.6-1.8-1-2.8-1.4s-2.2-0.5-3.4-0.5
		c-1.9,0-3.5,0.3-4.8,0.9s-2.4,1.4-3.2,2.3H297.2z"/>
	<path class="st1" d="M338.9,51.9c0.9,0,1.7,0.2,2.5,0.5c0.8,0.3,1.4,0.8,2,1.3c0.6,0.6,1,1.2,1.3,2c0.3,0.8,0.5,1.6,0.5,2.5
		c0,0.9-0.2,1.7-0.5,2.4c-0.3,0.8-0.8,1.4-1.3,2c-0.6,0.6-1.3,1-2.1,1.3c-0.8,0.3-1.7,0.5-2.7,0.5c-1.3,0-2.3-0.2-3.2-0.6
		c-0.9-0.4-1.6-0.9-2.2-1.6c-0.6-0.7-1-1.4-1.2-2.2c-0.3-0.8-0.4-1.7-0.4-2.6V23.8c0-0.3-0.2-0.6-0.5-0.7l-9.6-4.2
		c0-1.7,0.3-3.2,1-4.6s1.5-2.5,2.6-3.5s2.4-1.7,3.8-2.2c1.4-0.5,3-0.8,4.5-0.8c1.7,0,3.2,0.2,4.7,0.6s2.8,1.1,3.9,1.9
		c1.1,0.8,2,1.9,2.6,3.1s1,2.7,1,4.3h-5.8c0-1-0.2-1.8-0.6-2.5c-0.4-0.7-0.9-1.2-1.5-1.6c-0.6-0.4-1.3-0.7-2.1-0.9
		c-0.8-0.2-1.5-0.3-2.3-0.3c-1.6,0-2.9,0.4-4,1.3c-1.1,0.8-1.8,1.9-2.1,3.1l8.5,3.8c0.5,0.3,1,0.6,1.3,1c0.3,0.4,0.5,1,0.5,1.7v28.6
		H338.9z M340.9,58.3c0-0.7-0.2-1.3-0.7-1.7c-0.5-0.5-1-0.7-1.7-0.7c-0.7,0-1.2,0.2-1.7,0.7c-0.5,0.5-0.7,1-0.7,1.7
		c0,0.7,0.2,1.2,0.7,1.7c0.5,0.5,1,0.7,1.7,0.7c0.7,0,1.3-0.2,1.7-0.7C340.7,59.5,340.9,59,340.9,58.3z"/>
	<path class="st1" d="M371.7,64V50.1c0-0.8-0.2-1.5-0.6-2.2c-0.4-0.7-1-1.3-1.7-1.7s-1.6-0.9-2.6-1.1s-2.1-0.4-3.2-0.4
		c-1.3,0-2.4,0.1-3.3,0.4c-0.9,0.3-1.6,0.7-2.2,1.2c-0.6,0.5-1,1.1-1.2,1.8c-0.3,0.7-0.4,1.5-0.4,2.3v1.5h1.4c0.9,0,1.7,0.2,2.5,0.5
		c0.8,0.3,1.4,0.8,2,1.3c0.6,0.6,1,1.2,1.3,2s0.5,1.6,0.5,2.5c0,0.9-0.2,1.7-0.5,2.4s-0.8,1.4-1.3,2s-1.3,1-2.1,1.3
		c-0.8,0.3-1.7,0.5-2.7,0.5c-1.3,0-2.3-0.2-3.2-0.6s-1.6-0.9-2.2-1.6c-0.6-0.6-1-1.4-1.2-2.2s-0.4-1.7-0.4-2.6v-7.1
		c0-1.5,0.3-2.9,1-4.2c0.6-1.3,1.5-2.4,2.6-3.3c1.1-0.9,2.5-1.6,4-2.2c1.6-0.5,3.3-0.8,5.1-0.8c1.9,0,3.6,0.3,5.1,0.8
		c1.4,0.5,2.6,1.3,3.3,2.4v-4.2c0-0.8-0.2-1.5-0.6-2.2c-0.4-0.7-0.9-1.3-1.7-1.8c-0.7-0.5-1.6-0.9-2.6-1.2c-1-0.3-2.2-0.4-3.5-0.4
		c-1.6,0-2.9,0.2-4,0.5c-1.1,0.3-2.1,0.7-2.8,1.3s-1.3,1.2-1.7,1.9c-0.4,0.7-0.6,1.5-0.7,2.4h-5.9c0.1-1.4,0.5-2.8,1.1-4
		s1.6-2.4,2.8-3.4c1.2-1,2.8-1.8,4.6-2.4c1.8-0.6,4-0.9,6.4-0.9c2.2,0,4.2,0.3,5.9,0.8c1.8,0.5,3.3,1.2,4.6,2.1c1.3,0.9,2.3,2,3,3.3
		c0.7,1.3,1,2.7,1,4.3V64H371.7z M359.8,58.2c0-0.7-0.2-1.2-0.7-1.7c-0.5-0.5-1-0.7-1.7-0.7s-1.2,0.2-1.7,0.7
		c-0.5,0.5-0.7,1-0.7,1.7c0,0.7,0.2,1.2,0.7,1.7c0.5,0.5,1,0.7,1.7,0.7s1.2-0.2,1.7-0.7C359.6,59.4,359.8,58.9,359.8,58.2z"/>
	<path class="st1" d="M408.8,64V41.7c0-1.3-0.3-2.4-0.8-3.5c-0.5-1.1-1.2-2-2.1-2.8c-0.9-0.8-1.9-1.4-3.1-1.8
		c-1.2-0.4-2.4-0.6-3.7-0.6c-0.9,0-1.8,0.1-2.6,0.3c-0.9,0.2-1.7,0.5-2.5,0.9c-0.8,0.4-1.5,0.9-2.1,1.6s-1.2,1.3-1.6,2.2l3.1,3.5V64
		h-6V42.7l-3.6-3.9c0.4-1.6,1.1-3,2.1-4.3s2.1-2.4,3.4-3.3s2.8-1.6,4.5-2.1c1.7-0.5,3.5-0.7,5.4-0.7c2.3,0,4.4,0.3,6.4,1
		c1.9,0.7,3.6,1.6,5,2.8c1.4,1.2,2.5,2.6,3.2,4.3c0.8,1.7,1.2,3.5,1.2,5.5v22H408.8z"/>
	<path class="st1" d="M442.9,39.2c-0.3-2-1.1-3.5-2.4-4.5c-1.3-1-3-1.6-5.2-1.6c-1.3,0-2.4,0.2-3.4,0.6c-1,0.4-1.8,0.9-2.5,1.6
		c-0.7,0.7-1.2,1.5-1.6,2.5c-0.4,1-0.6,2.1-0.6,3.3h13.9v16.3c0,0.9-0.1,1.8-0.4,2.6c-0.3,0.8-0.7,1.6-1.2,2.2
		c-0.6,0.6-1.3,1.2-2.2,1.6s-1.9,0.6-3.2,0.6c-1,0-1.9-0.2-2.7-0.5c-0.8-0.3-1.5-0.8-2.1-1.3c-0.6-0.6-1-1.2-1.3-2
		c-0.3-0.8-0.5-1.6-0.5-2.4c0-0.9,0.2-1.7,0.5-2.5c0.3-0.8,0.7-1.4,1.3-2c0.6-0.6,1.2-1,2-1.3c0.8-0.3,1.6-0.5,2.5-0.5h1.3v-6.4h-14
		v-3c0-2.1,0.4-4,1.1-5.7c0.7-1.7,1.7-3.2,3-4.5c1.3-1.3,2.8-2.2,4.6-2.9c1.8-0.7,3.8-1,5.9-1c1.7,0,3.3,0.2,4.8,0.7
		c1.5,0.5,2.9,1.2,4,2.1c1.2,0.9,2.1,2,2.9,3.4c0.7,1.3,1.2,2.9,1.3,4.6H442.9z M436.8,58.3c0-0.7-0.2-1.3-0.7-1.7
		c-0.5-0.5-1-0.7-1.7-0.7s-1.2,0.2-1.7,0.7c-0.5,0.5-0.7,1-0.7,1.7c0,0.7,0.2,1.2,0.7,1.7c0.5,0.5,1,0.7,1.7,0.7s1.2-0.2,1.7-0.7
		C436.5,59.5,436.8,59,436.8,58.3z"/>
	<path class="st1" d="M454.7,10.5c0,2.1-0.5,4-1.5,5.6c-1,1.6-2.4,3-4,4.1s-3.6,1.9-5.7,2.5c-2.1,0.6-4.3,0.9-6.5,0.9
		c-1.5,0-3-0.1-4.3-0.4s-2.4-0.7-3.4-1.3c-0.9-0.6-1.7-1.4-2.2-2.3c-0.5-0.9-0.8-2-0.8-3.3c0-1,0.2-1.9,0.5-2.6s0.8-1.4,1.4-1.9
		c0.6-0.5,1.3-0.9,2.1-1.1c0.8-0.2,1.6-0.4,2.5-0.4c0.8,0,1.6,0.1,2.4,0.4c0.8,0.2,1.4,0.6,2,1.1s1,1.1,1.4,1.8
		c0.3,0.7,0.5,1.5,0.5,2.5c0,0.6-0.1,1.3-0.4,1.9c-0.2,0.6-0.6,1.2-0.9,1.7c1.7,0,3.2-0.2,4.5-0.7c1.3-0.5,2.4-1.1,3.4-1.9
		c0.9-0.8,1.7-1.8,2.2-2.8s0.9-2.3,1-3.5H454.7z M435,16c0-0.7-0.2-1.2-0.7-1.7s-1-0.7-1.7-0.7c-0.7,0-1.2,0.2-1.7,0.7
		s-0.7,1.1-0.7,1.7c0,0.7,0.2,1.2,0.7,1.7s1,0.7,1.7,0.7c0.7,0,1.2-0.2,1.7-0.7S435,16.6,435,16z"/>
	<path class="st1" d="M478.8,64l-12.1-5.6c0,0.8-0.2,1.6-0.5,2.4c-0.3,0.7-0.8,1.4-1.4,1.9s-1.3,1-2.1,1.3c-0.8,0.3-1.7,0.5-2.7,0.5
		c-0.9,0-1.8-0.2-2.6-0.5c-0.8-0.4-1.5-0.8-2.1-1.4c-0.6-0.6-1.1-1.3-1.4-2.1s-0.5-1.7-0.5-2.5c0-0.9,0.2-1.8,0.5-2.6
		c0.4-0.8,0.8-1.5,1.5-2.2s1.3-1.1,2.1-1.5c0.8-0.4,1.7-0.5,2.6-0.5h0.8V40.9h-1.3c-0.9,0-1.7-0.2-2.5-0.5c-0.8-0.3-1.4-0.8-2-1.3
		c-0.6-0.5-1-1.2-1.3-2c-0.3-0.8-0.5-1.6-0.5-2.5c0-0.9,0.2-1.7,0.5-2.4c0.3-0.8,0.8-1.4,1.4-2c0.6-0.6,1.3-1,2.1-1.3
		c0.8-0.3,1.7-0.5,2.7-0.5c1.2,0,2.3,0.2,3.2,0.6c0.9,0.4,1.6,0.9,2.1,1.5c0.6,0.6,1,1.4,1.2,2.2c0.3,0.8,0.4,1.7,0.4,2.6v18.1
		l12,5.5V28.7h6V64H478.8z M462.3,34.5c0-0.7-0.2-1.2-0.7-1.7c-0.5-0.5-1-0.7-1.7-0.7c-0.7,0-1.2,0.2-1.7,0.7
		c-0.5,0.5-0.7,1-0.7,1.7c0,0.7,0.2,1.2,0.7,1.7c0.5,0.5,1,0.7,1.7,0.7c0.7,0,1.2-0.2,1.7-0.7C462.1,35.8,462.3,35.2,462.3,34.5z
		 M462.7,57.7c0-0.7-0.2-1.3-0.7-1.8s-1.1-0.7-1.8-0.7c-0.7,0-1.3,0.2-1.8,0.7c-0.5,0.5-0.7,1.1-0.7,1.8c0,0.7,0.2,1.3,0.7,1.8
		c0.5,0.5,1.1,0.7,1.8,0.7c0.7,0,1.3-0.2,1.8-0.7S462.7,58.4,462.7,57.7z"/>
</g>
</svg>
