<svg xmlns="http://www.w3.org/2000/svg" width="537" height="468.078" viewBox="0 0 537 468.078">
  <defs>
    <style>
      .cls-1 {
        fill: #f8efd7;
      }

      .cls-2 {
        fill: none;
        stroke: #f8efd7;
        stroke-linecap: round;
        stroke-miterlimit: 10;
        stroke-width: 10px;
      }
    </style>
  </defs>
  <g id="Group_2" data-name="Group 2" transform="translate(-156 -512)">
    <g id="Group_1" data-name="Group 1" transform="translate(204.813 801.953)">
      <path id="Path_1" data-name="Path 1" class="cls-1" d="M258.427,746.291a.893.893,0,0,1,.257-.9l7.969-6.041q.771-.513.9.13v29.048a29.9,29.9,0,0,0,8.1-7.777,35.176,35.176,0,0,0,4.5-8.548,18.734,18.734,0,0,0,1.221-7.134q-.193-3.017-1.864-3.535c-.431-.171-.815-.341-1.157-.514s-.172-.342.514-.514l6.813-1.285a2.953,2.953,0,0,1,3.6,1.414,9.686,9.686,0,0,1,1.157,5.527,22.722,22.722,0,0,1-1.928,7.778,26.984,26.984,0,0,1-5.656,8.289,26.357,26.357,0,0,1,6.041,3.535,8.01,8.01,0,0,1,2.956,6.106l.129.128V799.25a1.23,1.23,0,0,1-.386.9l-7.969,6.041q-.644.513-.9-.257v-22.88l.129-12.6a3.92,3.92,0,0,0-1.157-3.085,8.972,8.972,0,0,0-2.956-1.671,43.815,43.815,0,0,1-5.077,2.892,42.436,42.436,0,0,1-6.106,2.379V799.25a1.23,1.23,0,0,1-.386.9l-7.841,6.041q-.771.642-1.028-.257V788.195q0-5.784.064-12.081t.064-12.02v-17.8Z" transform="translate(-177.046 -738.579)"/>
      <path id="Path_2" data-name="Path 2" class="cls-1" d="M290.883,745.161l7.712-6.041q.9-.384,1.028.257v21.981l3.085-2.7a9.805,9.805,0,0,1,5.784-1.156,16.058,16.058,0,0,1,6.363,1.863,17.189,17.189,0,0,1,5.27,4.37,11.886,11.886,0,0,1,2.635,6.363,6.958,6.958,0,0,1,.129,1.35v27.7a1.23,1.23,0,0,1-.386.9l-7.841,6.041q-.771.642-1.028-.257v-34.32a5.524,5.524,0,0,0-.386-1.285A10.778,10.778,0,0,0,310.1,765.6a9.162,9.162,0,0,0-5.334-2.057,3.684,3.684,0,0,0-2.828,1.478,14.33,14.33,0,0,0-2.185,2.765v10.346q0,1.479-.064,2.508t-.064,2.441v16.2a1.385,1.385,0,0,1-.386,1.027l-7.712,6.043c-.6.256-.945.17-1.028-.258V746.061A1.236,1.236,0,0,1,290.883,745.161Z" transform="translate(-167.857 -738.606)"/>
      <path id="Path_3" data-name="Path 3" class="cls-1" d="M342.006,800.866a9.645,9.645,0,0,1-5.848,1.285,15.919,15.919,0,0,1-6.3-1.865,17.039,17.039,0,0,1-5.27-4.37,12.717,12.717,0,0,1-2.764-6.363,8.462,8.462,0,0,1-.129-1.414V766.031a1.811,1.811,0,0,1,.257-1.028,5.018,5.018,0,0,1,.643-.77l10.926-9.256a10.855,10.855,0,0,1,7.455-1.027,16,16,0,0,1,7.584,3.6l4.756-3.728c.6-.257.9-.171.9.257v41.132a1.389,1.389,0,0,1-.386,1.028l-7.712,6.041c-.514.257-.816.171-.9-.257v-3.856Zm2.828-31.492a8.271,8.271,0,0,0-.707-3.214,10.053,10.053,0,0,0-1.992-3.022,11.8,11.8,0,0,0-2.956-2.249,8.768,8.768,0,0,0-3.6-1.028,3.364,3.364,0,0,0-2.7,1.479,16.636,16.636,0,0,0-2.057,2.762v21.723a10.546,10.546,0,0,0,2.507,6.813,9.292,9.292,0,0,0,6.62,3.471,3.508,3.508,0,0,0,2.764-1.478,13.333,13.333,0,0,0,2.121-2.892Z" transform="translate(-158.954 -734.411)"/>
      <path id="Path_4" data-name="Path 4" class="cls-1" d="M353.015,789.648a5.616,5.616,0,0,1-.064-1.478c.042-.469.064-.92.064-1.35V766.127a1.816,1.816,0,0,1,.257-1.03,5.143,5.143,0,0,1,.643-.771l10.926-9.255a9.444,9.444,0,0,1,5.911-1.221,16.769,16.769,0,0,1,6.427,1.994,16.272,16.272,0,0,1,5.271,4.562,13,13,0,0,1,2.571,6.62v22.881a3.314,3.314,0,0,1-1.028,1.928l-10.8,9.125a9.629,9.629,0,0,1-5.849,1.285,15.9,15.9,0,0,1-6.3-1.864,17.07,17.07,0,0,1-5.27-4.369A12.72,12.72,0,0,1,353.015,789.648Zm23.008-20.18a8.276,8.276,0,0,0-.707-3.213,10.04,10.04,0,0,0-1.994-3.019,11.73,11.73,0,0,0-2.955-2.249,8.755,8.755,0,0,0-3.6-1.03q-1.157-.127-2.7,1.478a10.442,10.442,0,0,0-2.057,2.765V785.92a14.866,14.866,0,0,0,.063,1.737,9.672,9.672,0,0,0,.58,1.734,10.235,10.235,0,0,0,3.149,4.693,9.366,9.366,0,0,0,5.334,1.991,3.541,3.541,0,0,0,2.764-1.414,12.2,12.2,0,0,0,2.121-2.827Z" transform="translate(-150.041 -734.377)"/>
      <path id="Path_5" data-name="Path 5" class="cls-1" d="M426.425,779.049v20.18a1.385,1.385,0,0,1-.386,1.028L417.3,806.3q-.9.513-.9-.257V782.134L402.517,748.2a.712.712,0,0,1,.129-.9l6.427-7.585q.642-.642,1.028,0l10.926,26.223,8.226-21.851c0-.342.212-.6.643-.772l10.8-4.5q.9-.386.9.386l-15.039,39.461A.523.523,0,0,1,426.425,779.049Z" transform="translate(-135.919 -738.688)"/>
      <path id="Path_6" data-name="Path 6" class="cls-1" d="M456.4,800.866a9.645,9.645,0,0,1-5.849,1.285,15.925,15.925,0,0,1-6.3-1.865,17.069,17.069,0,0,1-5.27-4.37,12.729,12.729,0,0,1-2.764-6.363,8.606,8.606,0,0,1-.129-1.414V766.031A1.822,1.822,0,0,1,436.35,765a5.019,5.019,0,0,1,.643-.77l10.926-9.256a10.856,10.856,0,0,1,7.455-1.027,15.993,15.993,0,0,1,7.584,3.6l4.756-3.728q.9-.386.9.257v41.132a1.388,1.388,0,0,1-.386,1.028l-7.712,6.041q-.771.386-.9-.257v-3.856Zm2.828-31.492a8.248,8.248,0,0,0-.707-3.214,10.029,10.029,0,0,0-1.992-3.022,11.8,11.8,0,0,0-2.956-2.249,8.769,8.769,0,0,0-3.6-1.028,3.365,3.365,0,0,0-2.7,1.479,16.711,16.711,0,0,0-2.057,2.762v21.723a10.547,10.547,0,0,0,2.506,6.813,9.294,9.294,0,0,0,6.62,3.471,3.506,3.506,0,0,0,2.764-1.478,13.247,13.247,0,0,0,2.121-2.892Z" transform="translate(-126.307 -734.411)"/>
      <path id="Path_7" data-name="Path 7" class="cls-1" d="M473.605,743.2l5.141,5.27c.856-.084,1.2-.021,1.028.193a4.431,4.431,0,0,1-1.157.836l-5.527,3.471a2.08,2.08,0,0,1-1.028,0l-5.142-5.4q-2.186.386.257-.9l5.4-3.472A2.141,2.141,0,0,1,473.605,743.2Zm-5.784,20.438v41.132q.127.771,1.028.257l7.584-6.041c.342-.342.47-.643.386-.9V756.957q0-.9-.9-.258l-7.712,6.043A1.23,1.23,0,0,0,467.821,763.64Z" transform="translate(-117.804 -737.418)"/>
      <path id="Path_8" data-name="Path 8" class="cls-1" d="M195.487,819.487c-.429-.086-.513-.428-.257-1.03l6.041-7.841a1.389,1.389,0,0,1,1.028-.385h13.625q.513-.386.771,0h13.754c.428.087.515.385.257.9l-6.041,7.968a1.236,1.236,0,0,1-.9.387H216.7v50.772a.892.892,0,0,1-.257.9l-7.968,6.041q-.9.513-.9-.257V819.487Z" transform="translate(-195.086 -718.326)"/>
      <path id="Path_9" data-name="Path 9" class="cls-1" d="M226.883,816.161l7.712-6.041q.9-.384,1.028.257v21.981l3.085-2.7a9.806,9.806,0,0,1,5.784-1.156,16.059,16.059,0,0,1,6.363,1.863,17.188,17.188,0,0,1,5.27,4.37,11.886,11.886,0,0,1,2.635,6.363,6.958,6.958,0,0,1,.129,1.35v27.7a1.23,1.23,0,0,1-.386.9l-7.841,6.041q-.771.642-1.028-.257v-34.32a5.525,5.525,0,0,0-.386-1.285A10.778,10.778,0,0,0,246.1,836.6a9.162,9.162,0,0,0-5.334-2.057,3.685,3.685,0,0,0-2.828,1.478,14.331,14.331,0,0,0-2.185,2.765v10.346q0,1.479-.064,2.508t-.064,2.441v16.2a1.385,1.385,0,0,1-.386,1.027l-7.712,6.043c-.6.256-.945.17-1.028-.258V817.061A1.237,1.237,0,0,1,226.883,816.161Z" transform="translate(-186.122 -718.344)"/>
      <path id="Path_10" data-name="Path 10" class="cls-1" d="M258.083,830.694l7.712-6.041c.6-.427.9-.386.9.129v3.6l2.828-2.442a6.82,6.82,0,0,1,3.985-1.157,10.05,10.05,0,0,1,4.435,1.028,10.91,10.91,0,0,1,3.728,3.021,8.77,8.77,0,0,1,1.864,4.82,2.552,2.552,0,0,1-.386,1.542l-5.4,5.271q-.9,0-.9-.772-.129-1.542-.321-3.084a12.518,12.518,0,0,0-.643-2.765,4.731,4.731,0,0,0-1.478-2.055,4.935,4.935,0,0,0-2.828-.964,3.51,3.51,0,0,0-2.764,1.477,15.444,15.444,0,0,0-2.121,2.764v31.107a.9.9,0,0,1-.257.9l-7.712,6.041c-.6.257-.945.173-1.028-.257V831.594A1.236,1.236,0,0,1,258.083,830.694Z" transform="translate(-177.218 -714.239)"/>
      <path id="Path_11" data-name="Path 11" class="cls-1" d="M280.915,860.648a5.728,5.728,0,0,1-.064-1.478c.042-.469.064-.92.064-1.35V837.127a1.816,1.816,0,0,1,.257-1.03,5.139,5.139,0,0,1,.643-.771l10.926-9.255a9.448,9.448,0,0,1,5.913-1.221,16.775,16.775,0,0,1,6.427,1.994,16.265,16.265,0,0,1,5.27,4.562,12.986,12.986,0,0,1,2.571,6.62v22.881a3.314,3.314,0,0,1-1.028,1.928l-10.8,9.125a9.626,9.626,0,0,1-5.849,1.285,15.9,15.9,0,0,1-6.3-1.864,17.084,17.084,0,0,1-5.27-4.369A12.731,12.731,0,0,1,280.915,860.648Zm23.008-20.18a8.253,8.253,0,0,0-.707-3.214,10.033,10.033,0,0,0-1.992-3.019,11.711,11.711,0,0,0-2.956-2.25,8.75,8.75,0,0,0-3.6-1.03q-1.157-.127-2.7,1.478a10.5,10.5,0,0,0-2.057,2.765V856.92a14.778,14.778,0,0,0,.064,1.736,9.523,9.523,0,0,0,.578,1.734,10.243,10.243,0,0,0,3.149,4.693,9.372,9.372,0,0,0,5.334,1.991,3.539,3.539,0,0,0,2.764-1.414,12.168,12.168,0,0,0,2.121-2.827Z" transform="translate(-170.616 -714.115)"/>
      <path id="Path_12" data-name="Path 12" class="cls-1" d="M334.6,862.93q0-6.172.064-9.513t.064-6.106V831.694a1.23,1.23,0,0,1,.386-.9l7.841-6.043q.9-.642,1.028.129v13.432q0,2.507-.064,4.627t-.064,4.627V861a1.824,1.824,0,0,1-.257,1.027,5.1,5.1,0,0,1-.643.771l-11.183,9.255a9.5,9.5,0,0,1-5.784,1.285,15.816,15.816,0,0,1-6.234-1.864,16.708,16.708,0,0,1-5.27-4.435,13.1,13.1,0,0,1-2.764-6.427,6.819,6.819,0,0,1-.129-1.35V831.694a1.23,1.23,0,0,1,.386-.9l7.969-6.043c.514-.341.814-.3.9.129V859.2a3.284,3.284,0,0,1,.386,1.285,11.171,11.171,0,0,0,3.278,4.693,9.372,9.372,0,0,0,5.334,1.991,2.668,2.668,0,0,0,1.221-.384,6.354,6.354,0,0,0,1.414-1.094,18.643,18.643,0,0,0,1.285-1.414A5.255,5.255,0,0,0,334.6,862.93Z" transform="translate(-161.836 -714.21)"/>
      <path id="Path_13" data-name="Path 13" class="cls-1" d="M342.745,884.552a24.092,24.092,0,0,1,5.463-2.764,23.637,23.637,0,0,1,6.17-1.348,18.618,18.618,0,0,1,6.17.513,13.621,13.621,0,0,1,5.463,2.828V869.77l-2.828,2.315a9.646,9.646,0,0,1-5.848,1.285,15.919,15.919,0,0,1-6.3-1.865,17.038,17.038,0,0,1-5.27-4.37A12.717,12.717,0,0,1,343,860.772a5.211,5.211,0,0,1-.064-1.414q.064-.642.064-1.413v-20.7a1.811,1.811,0,0,1,.257-1.028,5.022,5.022,0,0,1,.643-.77l10.926-9.256a9.784,9.784,0,0,1,6.877-1.157,16.828,16.828,0,0,1,7.262,3.085l5.142-3.985q.771-.513.9.129v61.056a1.24,1.24,0,0,1-.386.9l-7.712,6.04c-.431.342-.729.3-.9-.129q-2.314-1.928-4.692-3.6a24.2,24.2,0,0,0-5.206-2.764,17.73,17.73,0,0,0-6.106-1.156,23.425,23.425,0,0,0-7.391,1.22c-.771.171-1.093.065-.964-.321A1.779,1.779,0,0,1,342.745,884.552Zm9.383-27.379q-.129,4.758,1.992,7.005a8.083,8.083,0,0,0,4.756,2.635,8.2,8.2,0,0,0,4.884-.707,3.42,3.42,0,0,0,2.249-3.149v-22.88a8.039,8.039,0,0,0-.578-2.506,12.106,12.106,0,0,0-1.735-3.149,10.1,10.1,0,0,0-3.021-2.635,6.9,6.9,0,0,0-4.306-.834q-2.958.256-3.6,1.67a6.07,6.07,0,0,0-.643,2.442Z" transform="translate(-153.267 -714.367)"/>
      <path id="Path_14" data-name="Path 14" class="cls-1" d="M373.981,816.161l7.712-6.041q.9-.384,1.028.257v21.981l3.085-2.7a9.8,9.8,0,0,1,5.784-1.156,16.059,16.059,0,0,1,6.363,1.863,17.2,17.2,0,0,1,5.27,4.37,11.886,11.886,0,0,1,2.635,6.363,7.06,7.06,0,0,1,.129,1.35v27.7a1.23,1.23,0,0,1-.386.9l-7.841,6.041q-.771.642-1.028-.257v-34.32a5.527,5.527,0,0,0-.386-1.285A10.789,10.789,0,0,0,393.2,836.6a9.166,9.166,0,0,0-5.334-2.057,3.683,3.683,0,0,0-2.828,1.478,14.283,14.283,0,0,0-2.185,2.765v10.346c0,.986-.023,1.821-.064,2.508s-.064,1.5-.064,2.441v16.2a1.385,1.385,0,0,1-.386,1.027l-7.712,6.043c-.6.256-.945.17-1.028-.258V817.061A1.237,1.237,0,0,1,373.981,816.161Z" transform="translate(-144.143 -718.344)"/>
      <path id="Path_15" data-name="Path 15" class="cls-1" d="M424.083,819.487c-.431-.086-.514-.428-.258-1.03l6.043-7.841a1.384,1.384,0,0,1,1.027-.385h13.626q.511-.386.771,0h13.752c.428.087.515.385.258.9L453.26,819.1a1.233,1.233,0,0,1-.9.387h-7.07v50.772a.893.893,0,0,1-.258.9l-7.968,6.041c-.6.342-.9.257-.9-.257V819.487Z" transform="translate(-129.85 -718.326)"/>
      <path id="Path_16" data-name="Path 16" class="cls-1" d="M461.305,814.2l5.142,5.27c.855-.083,1.2-.021,1.028.193a4.456,4.456,0,0,1-1.157.835l-5.527,3.471a2.08,2.08,0,0,1-1.028,0l-5.142-5.4q-2.188.386.257-.9l5.4-3.472A2.139,2.139,0,0,1,461.305,814.2Zm-5.784,20.438v41.132c.084.514.428.6,1.028.257l7.584-6.041c.342-.342.469-.643.386-.9V827.957c0-.6-.3-.686-.9-.258l-7.712,6.043A1.229,1.229,0,0,0,455.521,834.639Z" transform="translate(-121.315 -717.156)"/>
      <path id="Path_17" data-name="Path 17" class="cls-1" d="M495.628,866.139a.9.9,0,0,1-.257.9l-7.712,6.041c-.6.428-.945.385-1.028-.129V836.96a.527.527,0,0,0,.129-.384,11.705,11.705,0,0,0-.836-3.856,3.177,3.177,0,0,0-2.764-1.928,2.506,2.506,0,0,0-1.542.834,14.684,14.684,0,0,0-1.8,2.058q-.9,1.22-1.671,2.441t-1.028,1.737v16.194h-.129v12.084a1.229,1.229,0,0,1-.386.9l-7.712,6.041q-.9.642-.9-.129V831.561a1.236,1.236,0,0,1,.386-.9l7.712-6.041c.514-.256.812-.171.9.257v5.142l4.113-4.113a7.445,7.445,0,0,1,6.941-.836,10.824,10.824,0,0,1,5.4,5.079l5.013-4.243a8.279,8.279,0,0,1,5.334-1.22,10.275,10.275,0,0,1,5.013,1.991,14.158,14.158,0,0,1,3.856,4.563,15.715,15.715,0,0,1,1.864,6.621v28.278a1.229,1.229,0,0,1-.386.9l-7.712,6.041q-.9.642-1.028-.129V840.3q0-1.542-.064-3.213a12.929,12.929,0,0,0-.45-3.021,4.608,4.608,0,0,0-1.414-2.249,4.884,4.884,0,0,0-2.956-1.027,3.352,3.352,0,0,0-2.7,1.477,16.689,16.689,0,0,0-2.057,2.764v16.2h-.129Z" transform="translate(-117.204 -714.206)"/>
      <path id="Path_18" data-name="Path 18" class="cls-1" d="M536.69,828.381a13.621,13.621,0,0,1,5.654,10.8.894.894,0,0,1-.257.9l-22.88,13.368v3.471a14.76,14.76,0,0,0,.064,1.736,12.134,12.134,0,0,0,.578,1.863,10.279,10.279,0,0,0,3.278,4.627,9.744,9.744,0,0,0,5.463,2.057,7.894,7.894,0,0,0,5.207-1.542q2.246-1.668,4.433-3.214.386-.256,1.285-.836a2.951,2.951,0,0,1,1.414-.578.987.987,0,0,1,.708.578c.127.3-.023.707-.45,1.222l-10.8,9.125a9.63,9.63,0,0,1-5.85,1.285,15.909,15.909,0,0,1-6.3-1.864,17.1,17.1,0,0,1-5.27-4.369,12.732,12.732,0,0,1-2.764-6.364,5.26,5.26,0,0,1-.063-1.414c.041-.427.063-.9.063-1.414V837.123a1.816,1.816,0,0,1,.258-1.03,4.992,4.992,0,0,1,.643-.771l10.926-9.255a10.14,10.14,0,0,1,7.2-1.028A17.346,17.346,0,0,1,536.69,828.381Zm-3.472,12.211v-.771a9.633,9.633,0,0,0-2.892-5.849,9.436,9.436,0,0,0-6.361-3.021q-1.157-.127-2.7,1.478a10.485,10.485,0,0,0-2.058,2.765v13.5Z" transform="translate(-105.181 -714.111)"/>
    </g>
    <path id="Path_19" data-name="Path 19" class="cls-2" d="M325,726.679,474.1,593,607.783,726.679" transform="translate(46.802 21.689)"/>
    <path id="Path_20" data-name="Path 20" class="cls-2" d="M189,726.679,330.392,593l136.25,133.679" transform="translate(7.991 21.689)"/>
    <path id="Path_21" data-name="Path 21" class="cls-2" d="M203,726.517C203,610.8,296.8,517,412.517,517s209.517,93.8,209.517,209.517" transform="translate(11.986)"/>
    <line id="Line_1" data-name="Line 1" class="cls-2" x1="76" transform="translate(161 831)"/>
    <line id="Line_2" data-name="Line 2" class="cls-2" x1="76" transform="translate(612 837)"/>
  </g>
</svg>
