<svg id="menu" xmlns="http://www.w3.org/2000/svg" width="89.659" height="89.659" viewBox="0 0 89.659 89.659">
  <defs>
    <style>
      .cls-1 {
        fill: #f8efd7;
      }
    </style>
  </defs>
  <g id="Group_6" data-name="Group 6">
    <path id="Path_24" data-name="Path 24" class="cls-1" d="M44.83,0a44.83,44.83,0,1,0,44.83,44.83A44.879,44.879,0,0,0,44.83,0ZM63.509,63.509H26.151a3.736,3.736,0,1,1,0-7.471H63.509a3.736,3.736,0,0,1,0,7.471Zm0-14.943H26.151a3.736,3.736,0,0,1,0-7.472H63.509a3.736,3.736,0,0,1,0,7.472Zm0-14.943H26.151a3.736,3.736,0,1,1,0-7.471H63.509a3.736,3.736,0,0,1,0,7.471Z"/>
  </g>
</svg>
