<?xml version="1.0" encoding="utf-8"?>
<!-- Generator: Adobe Illustrator 24.2.3, SVG Export Plug-In . SVG Version: 6.00 Build 0)  -->
<svg version="1.1" id="Layer_1" xmlns="http://www.w3.org/2000/svg" xmlns:xlink="http://www.w3.org/1999/xlink" x="0px" y="0px"
	 viewBox="0 0 179 97" style="enable-background:new 0 0 179 97;" xml:space="preserve">
<style type="text/css">
	.st0{enable-background:new    ;}
	.st1{fill:#F8EFD7;}
</style>
<g class="st0">
	<path class="st1" d="M10.2,21.4C10,21,9.7,20.6,9.4,20.2c-0.3-0.3-0.7-0.6-1.1-0.9C7.9,19.1,7.4,19,6.9,19c-0.3,0-0.7,0.2-1,0.6
		c-0.4,0.4-0.6,0.8-0.8,1.1v2.8c0,0.3,0,0.5,0,0.6c0,0.1,0,0.2,0,0.4c0,0.1,0.1,0.2,0.2,0.3c0.1,0.1,0.3,0.2,0.5,0.4
		c0.5,0.4,1,0.8,1.5,1.1c0.5,0.3,0.9,0.7,1.4,1c0.5,0.3,1,0.7,1.5,1.1c0.5,0.4,1.1,0.8,1.8,1.3c0,0,0.2,0.1,0.4,0.3
		c0.2,0.2,0.5,0.5,0.8,0.8c0.3,0.3,0.5,0.6,0.7,1c0.2,0.3,0.2,0.7,0.1,1v5.3c0,0.3-0.1,0.5-0.4,0.8l-4.2,3.6
		c-0.7,0.4-1.4,0.6-2.3,0.5c-0.9-0.1-1.7-0.3-2.5-0.7c-0.8-0.4-1.5-1-2-1.7c-0.6-0.7-0.9-1.5-1-2.5c0-0.2,0-0.4,0-0.5s0-0.4,0-0.5
		v-0.5c0-0.2,0-0.6,0-1.2c0-0.1,0-0.2,0-0.2v-0.1c0,0,0,0,0,0l3.1-2.3C4.9,32.1,5,32.1,5,32.3v2.3v1.7c0,0.3,0,0.6,0,0.7
		c0,0.1,0.1,0.4,0.2,0.7c0.3,0.7,0.7,1.3,1.2,1.8C7,40,7.7,40.2,8.5,40.3c0.3,0,0.7-0.2,1.1-0.6c0.4-0.4,0.7-0.8,0.8-1.1V34
		c0-0.7-0.1-1.1-0.3-1.3c-0.2-0.2-0.4-0.4-0.6-0.5l-6.8-4.9c-0.3-0.2-0.6-0.5-0.8-0.8c-0.2-0.3-0.4-0.6-0.5-1v-4.2
		c0-0.3,0.1-0.5,0.4-0.7L6.1,17c0.7-0.4,1.4-0.6,2.3-0.5c0.9,0.1,1.7,0.3,2.5,0.8c0.8,0.4,1.5,1,2.1,1.8c0.6,0.8,0.9,1.6,1,2.6v0.1
		v0.3v1.2c0,0.1,0,0.3,0,0.5c0,0.2,0,0.4,0,0.7c0,0.1,0,0.2-0.1,0.3l-3.1,2.3c-0.2,0.2-0.3,0.1-0.3-0.1v-3.5c0-0.1,0-0.1,0-0.1
		c0,0,0,0,0-0.1l0-0.7C10.5,22.3,10.4,21.8,10.2,21.4z"/>
	<path class="st1" d="M29,16.8c0.2-0.2,0.4-0.1,0.4,0.1v7.5c0,0.2,0,0.3-0.1,0.4l-3.1,2.4c-0.2,0.1-0.4,0.1-0.4-0.1v-4.3
		c-0.1-0.8-0.4-1.6-1.1-2.3c-0.7-0.7-1.5-1.1-2.5-1.2c-0.3,0-0.6,0.2-1,0.5c-0.4,0.4-0.7,0.8-0.8,1.1v15.6c0,0.4,0,0.6,0,0.7
		c0,0.1,0.1,0.3,0.2,0.7c0.3,0.8,0.7,1.4,1.2,1.8c0.6,0.4,1.2,0.7,2.1,0.8c0.3,0,0.7-0.2,1.1-0.6c0.4-0.4,0.7-0.8,0.8-1.1v-6.6
		c0-0.2,0.1-0.3,0.1-0.3l3.1-2.3c0.2-0.2,0.4-0.2,0.4,0v8.4c0,0.2,0,0.3-0.1,0.4h-0.1c0,0.1-0.1,0.2-0.3,0.3l-4.2,3.6
		C24,42.8,23.3,43,22.4,43s-1.7-0.3-2.4-0.7c-0.8-0.4-1.5-1-2.1-1.7c-0.6-0.7-0.9-1.6-1.1-2.5c0-0.2,0-0.3,0-0.5c0-0.2,0-0.4,0-0.5
		V21.7c0-0.3,0.1-0.5,0.3-0.8l4.2-3.6c0.8-0.5,1.7-0.6,2.8-0.4c1.1,0.2,2,0.6,2.9,1.3L29,16.8z"/>
	<path class="st1" d="M32.4,19.7c0-0.1,0-0.3,0.1-0.4l3.1-2.3c0.1,0,0.1-0.1,0.2-0.1h0.1H36h2.5h0.1c1.9,0,3.4,0.4,4.6,1.3
		c1.2,0.8,2,1.9,2.3,3.1c0.4,1.2,0.3,2.5-0.2,3.8c-0.5,1.3-1.5,2.5-2.9,3.5c0.8,0.4,1.5,0.8,2.2,1.4c0.7,0.5,1.1,1.3,1.2,2.1v0.1
		v0.3v1.5v6.3c0,0.1-0.1,0.2-0.2,0.3l-3,2.4c-0.2,0.1-0.4,0.1-0.4-0.1v-6.3v-0.2v-4.8c0-0.4-0.2-0.8-0.6-1.1
		c-0.4-0.3-0.8-0.6-1.3-0.8c-1.3,0.5-2.8,0.9-4.5,1v9.7c0,0.1,0,0.2-0.1,0.3l-3,2.4c-0.2,0.1-0.4,0.1-0.4-0.1V19.7z M35.9,29
		c1.2-0.1,2.3-0.3,3.1-0.8c0.8-0.4,1.5-1,1.9-1.6c0.4-0.6,0.7-1.3,0.8-2s0-1.4-0.2-2c-0.2-0.6-0.6-1.1-1.2-1.5
		c-0.5-0.4-1.2-0.6-2-0.7H36c0,1.5,0,2.7,0,3.5c0,0.8,0,1.5-0.1,2.1V29z"/>
	<path class="st1" d="M48.6,38c0-0.2,0-0.3,0-0.5s0-0.4,0-0.6V21.7c0-0.3,0.1-0.5,0.4-0.8l4.2-3.5c0.7-0.4,1.4-0.6,2.3-0.5
		c0.9,0.1,1.7,0.3,2.5,0.8c0.8,0.4,1.5,1,2.1,1.8c0.6,0.8,0.9,1.6,1,2.6v0v0.4v15.8c0,0.2,0,0.3-0.1,0.4c-0.1,0.1-0.1,0.2-0.2,0.3
		l-4.2,3.6c-0.7,0.4-1.4,0.6-2.3,0.5s-1.7-0.3-2.4-0.7c-0.8-0.4-1.5-1-2.1-1.7C49.1,39.8,48.7,39,48.6,38z M57.6,23
		c0-0.4-0.1-0.8-0.3-1.2c-0.2-0.4-0.4-0.8-0.8-1.1c-0.3-0.4-0.7-0.6-1.1-0.9c-0.4-0.2-0.9-0.4-1.4-0.5c-0.3,0-0.7,0.2-1.1,0.6
		c-0.4,0.4-0.6,0.8-0.8,1.1l0,15.6c0,0.4,0,0.6,0,0.7c0,0.1,0.1,0.3,0.2,0.7c0.3,0.7,0.7,1.3,1.2,1.8c0.6,0.5,1.2,0.7,2.1,0.8
		c0.3,0,0.7-0.2,1.1-0.6c0.4-0.4,0.7-0.8,0.8-1.1L57.6,23z"/>
	<path class="st1" d="M64,19.3l3.1-2.3c0.2-0.2,0.4-0.2,0.4,0v22.5h9c0.2,0,0.2,0.1,0.1,0.3l-2.4,3.2C74.1,43,74,43,73.9,43h-9.8v0
		c-0.1,0-0.2,0-0.2-0.2V19.6C63.9,19.5,63.9,19.3,64,19.3z"/>
	<path class="st1" d="M78.3,19.3l3.1-2.3c0.2-0.2,0.4-0.2,0.4,0v22.5h9c0.2,0,0.2,0.1,0.1,0.3l-2.4,3.2C88.4,43,88.3,43,88.1,43
		h-9.8v0c-0.1,0-0.2,0-0.2-0.2V19.6C78.1,19.5,78.2,19.3,78.3,19.3z"/>
	<path class="st1" d="M103.3,19.5c0-0.1,0-0.2,0.1-0.3l3.1-2.4c0.1-0.1,0.2-0.1,0.2-0.1h0.1h2.4c0,0,0.1,0,0.1,0c0,0,0,0,0.1,0
		c1.3,0,2.4,0.4,3.3,1.1c0.9,0.8,1.7,1.7,2.3,3c0.6,1.2,1,2.6,1.3,4.2c0.2,1.6,0.3,3.2,0.2,4.8c-0.1,1.6-0.5,3.2-1,4.8
		c-0.5,1.6-1.2,3-2.1,4.2c-0.9,1.2-2.1,2.2-3.4,3c-1.3,0.8-2.9,1.1-4.7,1.1h-1.6l-0.1-0.1c-0.2,0.1-0.2,0.1-0.2-0.1V19.5z
		 M106.7,41.3c1.3-0.1,2.3-0.6,3.2-1.7c0.8-1,1.5-2.3,1.9-3.9s0.7-3.2,0.8-5s0-3.5-0.2-5s-0.6-2.8-1.2-3.8c-0.6-1-1.2-1.5-2-1.6
		h-2.3c0,1.4,0,3.1,0,5.1c0,2,0,4,0,6c0,2,0,3.9,0,5.7C106.7,39,106.7,40.3,106.7,41.3z"/>
	<path class="st1" d="M119.5,38c0-0.2,0-0.3,0-0.5s0-0.4,0-0.6V21.7c0-0.3,0.1-0.5,0.4-0.8l4.2-3.5c0.7-0.4,1.4-0.6,2.3-0.5
		c0.9,0.1,1.7,0.3,2.5,0.8s1.5,1,2.1,1.8c0.6,0.8,0.9,1.6,1,2.6v0v0.4v15.8c0,0.2,0,0.3-0.1,0.4c-0.1,0.1-0.2,0.2-0.2,0.3l-4.2,3.6
		c-0.7,0.4-1.4,0.6-2.3,0.5s-1.7-0.3-2.4-0.7c-0.8-0.4-1.5-1-2.1-1.7C120,39.8,119.6,39,119.5,38z M128.5,23c0-0.4-0.1-0.8-0.3-1.2
		c-0.2-0.4-0.4-0.8-0.8-1.1c-0.3-0.4-0.7-0.6-1.2-0.9s-0.9-0.4-1.4-0.5c-0.3,0-0.7,0.2-1,0.6c-0.4,0.4-0.6,0.8-0.8,1.1l0,15.6
		c0,0.4,0,0.6,0,0.7c0,0.1,0.1,0.3,0.2,0.7c0.3,0.7,0.7,1.3,1.2,1.8c0.5,0.5,1.2,0.7,2.1,0.8c0.3,0,0.7-0.2,1.1-0.6
		c0.4-0.4,0.7-0.8,0.8-1.1L128.5,23z"/>
	<path class="st1" d="M141.3,41c0,0.1-0.1,0.2-0.2,0.3l-3.3,1.6c-0.2,0.1-0.3,0-0.3-0.1l-0.1,0c-0.1-0.6-0.3-1.5-0.5-2.8
		s-0.4-2.5-0.7-4s-0.5-3-0.8-4.5c-0.3-1.6-0.6-3.1-0.8-4.6c-0.2-1.4-0.5-2.8-0.7-3.9c-0.2-1.2-0.4-2.1-0.5-2.8
		c-0.1-0.1,0-0.2,0.1-0.3l2.4-3c0.1-0.2,0.2-0.2,0.3,0c0.5,3,1.1,6.1,1.6,9.1c0.5,3,1.1,6,1.6,9.1l1.6-14.8v-0.1c0-0.1,0-0.2,0-0.3
		l2.4-3c0.2-0.2,0.3-0.2,0.3,0c0.5,3,1,6.1,1.4,9.1c0.4,3,0.9,6,1.5,9.1l2.9-16.4c0.1-0.2,0.1-0.3,0.2-0.3l3.3-1.5
		c0.2,0,0.3,0,0.3,0.2c-0.2,0.6-0.4,1.6-0.6,2.8c-0.3,1.3-0.6,2.7-0.9,4.2c-0.3,1.6-0.6,3.2-1,4.9c-0.3,1.7-0.7,3.4-0.9,4.9
		c-0.3,1.6-0.6,3-0.9,4.2s-0.5,2.2-0.6,2.8c-0.1,0.2-0.2,0.3-0.2,0.3l-3.3,1.6c-0.2,0.1-0.3,0-0.3-0.1c0,0,0,0,0,0
		c-0.1-0.5-0.2-1.2-0.3-2c-0.1-0.9-0.3-1.8-0.5-2.9c-0.2-1-0.3-2.2-0.5-3.3c-0.2-1.2-0.4-2.4-0.6-3.6c-0.2,1-0.3,2.1-0.5,3.2
		s-0.3,2.1-0.4,3s-0.2,1.7-0.3,2.4C141.4,40.3,141.4,40.8,141.3,41z"/>
	<path class="st1" d="M158.4,40.2c0,0.1,0,0.2-0.1,0.3l-3.1,2.3c-0.2,0.2-0.4,0.1-0.4-0.1V19.5c0-0.1,0-0.2,0.1-0.3l3.1-2.4
		c0.2-0.2,0.3-0.1,0.3,0.1c0,0,0.1,0,0.2,0.1c0.3,0.7,0.7,1.6,1.2,2.9s1.1,2.6,1.8,4.2c0.7,1.5,1.3,3.1,2.1,4.8
		c0.7,1.7,1.4,3.2,2,4.6v-14c0-0.1,0-0.2,0.2-0.3l3-2.4c0.2-0.2,0.4-0.1,0.4,0.1v23.2c0,0.1,0,0.2-0.1,0.3l-3.1,2.3
		c-0.1,0.1-0.2,0.1-0.3,0.1l-0.1-0.1c-0.3-0.7-0.7-1.6-1.2-2.9s-1.1-2.7-1.8-4.3c-0.7-1.6-1.4-3.2-2.1-4.8c-0.7-1.7-1.4-3.2-2-4.7
		V40.2z"/>
</g>
</svg>
