<?xml version="1.0" encoding="utf-8"?>
<!-- Generator: Adobe Illustrator 24.2.3, SVG Export Plug-In . SVG Version: 6.00 Build 0)  -->
<svg version="1.1" id="Layer_1" xmlns="http://www.w3.org/2000/svg" xmlns:xlink="http://www.w3.org/1999/xlink" x="0px" y="0px"
	 viewBox="0 0 668 307" style="enable-background:new 0 0 668 307;" xml:space="preserve">
<style type="text/css">
	.st0{enable-background:new    ;}
	.st1{fill:#F8EFD7;}
</style>
<g id="text_อธิบาย_polaroid" transform="translate(-141 -2173)">
	<g class="st0">
		<path class="st1" d="M146.8,2193.9h2.5v17.5c0.2-0.1,0.5-0.2,0.7-0.2c0.3,0,0.5,0,0.8,0c0.6,0,1.1,0.1,1.6,0.3
			c0.5,0.2,0.9,0.5,1.3,0.9c0.4,0.4,0.7,0.8,0.9,1.3c0.2,0.5,0.3,1,0.3,1.6c0,0.6-0.1,1.1-0.3,1.6c-0.2,0.5-0.5,0.9-0.9,1.3
			c-0.4,0.4-0.8,0.7-1.3,0.9c-0.5,0.2-1,0.3-1.6,0.3c-0.6,0-1.1-0.1-1.6-0.3c-0.5-0.2-0.9-0.5-1.3-0.9c-0.4-0.4-0.7-0.8-0.9-1.3
			c-0.2-0.5-0.3-1-0.3-1.6V2193.9z M150.9,2217.1c0.5,0,1-0.2,1.3-0.6s0.5-0.8,0.5-1.4c0-0.5-0.2-1-0.5-1.3
			c-0.4-0.4-0.8-0.5-1.3-0.5s-1,0.2-1.3,0.5c-0.3,0.4-0.5,0.8-0.5,1.3c0,0.5,0.2,1,0.5,1.4C149.9,2216.9,150.3,2217.1,150.9,2217.1z
			"/>
		<path class="st1" d="M178.4,2219l-6.7-20l-6.7,20h-2.7v-17.5c-0.2,0.1-0.5,0.2-0.7,0.2c-0.3,0-0.5,0-0.8,0c-0.6,0-1.1-0.1-1.6-0.3
			c-0.5-0.2-0.9-0.5-1.3-0.9c-0.4-0.4-0.7-0.8-0.9-1.3c-0.2-0.5-0.3-1-0.3-1.6c0-0.6,0.1-1.1,0.3-1.6c0.2-0.5,0.5-0.9,0.9-1.3
			c0.4-0.4,0.8-0.7,1.3-0.9c0.5-0.2,1-0.3,1.6-0.3c0.6,0,1.1,0.1,1.6,0.3c0.5,0.2,0.9,0.5,1.3,0.9c0.4,0.4,0.7,0.8,0.9,1.3
			c0.2,0.5,0.3,1,0.3,1.6v12.4l-0.3,4.1l0.9-4l5.2-14.4h2l5.3,14.4l0.9,4l-0.3-4.1v-16.3h2.5v25.2H178.4z M160.8,2199.5
			c0.5,0,1-0.2,1.3-0.5c0.3-0.4,0.5-0.8,0.5-1.4s-0.2-1-0.5-1.3c-0.3-0.4-0.8-0.5-1.3-0.5c-0.5,0-1,0.2-1.4,0.5
			c-0.4,0.4-0.5,0.8-0.5,1.3s0.2,1,0.5,1.4C159.8,2199.4,160.2,2199.5,160.8,2199.5z"/>
		<path class="st1" d="M195.7,2203.6h-9.9v-1.5c0-1.2,0.2-2.2,0.6-3.3c0.4-1,0.9-1.9,1.7-2.7c0.7-0.8,1.7-1.4,2.8-1.9
			c1.1-0.5,2.4-0.7,3.8-0.7c1.2,0,2.3,0.2,3.4,0.6c1,0.4,1.9,0.9,2.7,1.6c0.8,0.7,1.3,1.5,1.8,2.5c0.4,1,0.6,2,0.6,3.2h-2.5
			c0-0.8-0.1-1.6-0.4-2.3c-0.3-0.7-0.7-1.3-1.2-1.8c-0.5-0.5-1.2-0.9-1.9-1.2c-0.8-0.3-1.6-0.4-2.6-0.4c-0.9,0-1.8,0.1-2.5,0.4
			c-0.7,0.3-1.4,0.7-1.9,1.2c-0.5,0.5-0.9,1.1-1.2,1.8c-0.3,0.7-0.4,1.5-0.4,2.3h9.8v13.7c0,0.6-0.1,1.1-0.3,1.6
			c-0.2,0.5-0.5,0.9-0.9,1.3c-0.4,0.4-0.8,0.7-1.3,0.9s-1,0.3-1.6,0.3c-0.6,0-1.1-0.1-1.6-0.3s-0.9-0.5-1.3-0.9
			c-0.4-0.4-0.7-0.8-0.9-1.3c-0.2-0.5-0.3-1-0.3-1.6c0-0.6,0.1-1.1,0.3-1.6c0.2-0.5,0.5-0.9,0.9-1.3c0.4-0.4,0.8-0.7,1.3-0.9
			c0.5-0.2,1-0.3,1.6-0.3c0.6,0,1.1,0.1,1.5,0.2V2203.6z M194.2,2217.1c0.5,0,1-0.2,1.4-0.6s0.5-0.8,0.5-1.4c0-0.5-0.2-1-0.5-1.3
			c-0.4-0.4-0.8-0.5-1.4-0.5s-1,0.2-1.3,0.5c-0.4,0.4-0.5,0.8-0.5,1.3c0,0.5,0.2,1,0.5,1.4C193.2,2216.9,193.6,2217.1,194.2,2217.1z
			"/>
		<path class="st1" d="M220.1,2219v-17.2c0-0.8-0.1-1.6-0.3-2.3c-0.2-0.7-0.5-1.4-1-1.9c-0.5-0.5-1-1-1.8-1.3
			c-0.7-0.3-1.6-0.5-2.6-0.5c-0.9,0-1.8,0.1-2.4,0.4c-0.7,0.3-1.2,0.6-1.7,1.1c-0.5,0.5-0.8,1-1.1,1.6c-0.3,0.6-0.4,1.3-0.5,2h-2.5
			c0.1-1.1,0.3-2.1,0.7-3c0.4-0.9,0.9-1.7,1.6-2.3c0.7-0.7,1.5-1.2,2.5-1.5c1-0.4,2.1-0.5,3.5-0.5c1.4,0,2.7,0.2,3.7,0.6
			c1,0.4,1.9,1,2.5,1.7c0.7,0.7,1.1,1.6,1.5,2.6c0.3,1,0.5,2.1,0.5,3.3v17.2H220.1z"/>
		<path class="st1" d="M244.2,2194.1c-0.5,2.7-1.6,4.7-3.4,6c-1.7,1.3-3.9,2-6.6,2c-2.1,0-3.7-0.4-4.9-1.2s-1.7-1.9-1.7-3.3
			c0-0.5,0.1-1,0.3-1.5c0.2-0.5,0.5-0.9,0.8-1.2s0.8-0.6,1.2-0.8s1-0.3,1.7-0.3c0.6,0,1.1,0.1,1.6,0.3c0.5,0.2,0.9,0.5,1.2,0.8
			c0.3,0.4,0.6,0.8,0.8,1.3c0.2,0.5,0.3,1,0.3,1.6c0,0.8-0.2,1.5-0.5,1.9c1.9-0.2,3.4-0.8,4.5-1.7s1.8-2.2,2.3-4H244.2z
			 M244.2,2209.9c-0.5,2.7-1.6,4.7-3.4,6c-1.7,1.3-3.9,2-6.6,2c-2.1,0-3.7-0.4-4.9-1.2s-1.7-1.9-1.7-3.3c0-0.5,0.1-1,0.3-1.5
			c0.2-0.5,0.5-0.9,0.8-1.2c0.3-0.3,0.8-0.6,1.2-0.8s1-0.3,1.7-0.3c0.6,0,1.1,0.1,1.6,0.3c0.5,0.2,0.9,0.5,1.2,0.8
			c0.3,0.4,0.6,0.8,0.8,1.3c0.2,0.5,0.3,1,0.3,1.5c0,0.9-0.2,1.5-0.5,2c1-0.1,1.8-0.3,2.5-0.6s1.4-0.6,1.9-1.1c0.5-0.5,1-1,1.4-1.7
			c0.4-0.7,0.7-1.4,0.9-2.3H244.2z M233.4,2197.8c0-0.5-0.2-0.9-0.5-1.2c-0.3-0.3-0.7-0.5-1.2-0.5c-0.5,0-0.9,0.2-1.2,0.5
			c-0.3,0.3-0.5,0.7-0.5,1.2c0,0.5,0.2,0.9,0.5,1.2c0.3,0.3,0.7,0.5,1.2,0.5c0.5,0,0.9-0.2,1.2-0.5
			C233.2,2198.7,233.4,2198.3,233.4,2197.8z M233.4,2213.6c0-0.5-0.2-0.9-0.5-1.2c-0.3-0.3-0.7-0.5-1.2-0.5c-0.5,0-0.9,0.2-1.2,0.5
			c-0.3,0.3-0.5,0.7-0.5,1.2c0,0.5,0.2,0.9,0.5,1.2c0.3,0.3,0.7,0.5,1.2,0.5c0.5,0,0.9-0.2,1.2-0.5
			C233.2,2214.5,233.4,2214.1,233.4,2213.6z"/>
		<path class="st1" d="M262.5,2201.3c0-0.8-0.1-1.6-0.4-2.3c-0.3-0.7-0.6-1.3-1.1-1.8c-0.5-0.5-1.1-0.9-1.9-1.1
			c-0.7-0.3-1.6-0.4-2.6-0.4c-1,0-1.8,0.2-2.6,0.5c-0.7,0.3-1.4,0.8-1.9,1.3c-0.5,0.6-0.9,1.2-1.2,2c-0.3,0.8-0.4,1.6-0.4,2.5H248
			c0-1.2,0.2-2.3,0.6-3.3c0.4-1,0.9-1.9,1.7-2.7c0.7-0.8,1.6-1.4,2.7-1.8s2.2-0.7,3.6-0.7c1.4,0,2.7,0.2,3.7,0.5
			c1.1,0.4,1.9,0.9,2.7,1.5c0.7,0.7,1.3,1.5,1.6,2.4c0.4,1,0.5,2,0.5,3.2v13.9c0,0.6-0.1,1.1-0.3,1.6c-0.2,0.5-0.5,0.9-0.9,1.3
			c-0.4,0.4-0.8,0.7-1.3,0.9c-0.5,0.2-1,0.3-1.6,0.3s-1.1-0.1-1.6-0.3c-0.5-0.2-0.9-0.5-1.3-0.9c-0.4-0.4-0.7-0.8-0.9-1.3
			c-0.2-0.5-0.3-1-0.3-1.6c0-0.6,0.1-1.1,0.3-1.6c0.2-0.5,0.5-0.9,0.9-1.3c0.4-0.4,0.8-0.7,1.3-0.9c0.5-0.2,1-0.3,1.6-0.3
			c0.3,0,0.6,0,0.8,0c0.3,0,0.5,0.1,0.8,0.2V2201.3z M260.9,2217.1c0.5,0,1-0.2,1.4-0.6c0.4-0.4,0.5-0.8,0.5-1.4
			c0-0.5-0.2-1-0.5-1.3c-0.4-0.4-0.8-0.5-1.4-0.5s-1,0.2-1.4,0.5c-0.4,0.4-0.6,0.8-0.6,1.3c0,0.5,0.2,1,0.6,1.4
			S260.4,2217.1,260.9,2217.1z"/>
		<path class="st1" d="M262.4,2188.8v-9h2.6v9H262.4z"/>
		<path class="st1" d="M283.7,2219v-17.2c0-0.8-0.1-1.6-0.3-2.3c-0.2-0.7-0.5-1.4-1-1.9c-0.5-0.5-1-1-1.8-1.3
			c-0.7-0.3-1.6-0.5-2.6-0.5c-0.9,0-1.8,0.1-2.4,0.4c-0.7,0.3-1.2,0.6-1.7,1.1c-0.5,0.5-0.8,1-1.1,1.6c-0.3,0.6-0.4,1.3-0.5,2h-2.5
			c0.1-1.1,0.3-2.1,0.7-3c0.4-0.9,0.9-1.7,1.6-2.3c0.7-0.7,1.5-1.2,2.5-1.5c1-0.4,2.1-0.5,3.5-0.5c1.4,0,2.7,0.2,3.7,0.6
			c1,0.4,1.9,1,2.5,1.7c0.7,0.7,1.1,1.6,1.5,2.6c0.3,1,0.5,2.1,0.5,3.3v17.2H283.7z"/>
		<path class="st1" d="M310.2,2219v-13.7c0-1.9-0.5-2.9-1.4-2.9c-0.6,0-1.3,0.7-2.1,2.1l-8.1,14.4h-2.3v-17.5
			c-0.2,0.1-0.5,0.2-0.7,0.2c-0.3,0-0.5,0-0.8,0c-0.6,0-1.1-0.1-1.6-0.3c-0.5-0.2-0.9-0.5-1.3-0.9c-0.4-0.4-0.7-0.8-0.9-1.3
			c-0.2-0.5-0.3-1-0.3-1.6c0-0.6,0.1-1.1,0.3-1.6c0.2-0.5,0.5-0.9,0.9-1.3c0.4-0.4,0.8-0.7,1.3-0.9c0.5-0.2,1-0.3,1.6-0.3
			c0.6,0,1.1,0.1,1.6,0.3c0.5,0.2,0.9,0.5,1.3,0.9c0.4,0.4,0.7,0.8,0.9,1.3c0.2,0.5,0.3,1,0.3,1.6v13.9c0,0.2,0,0.5,0,0.8
			c0,0.3,0,0.6,0,1c0,0.3,0,0.6-0.1,0.9c0,0.3-0.1,0.5-0.1,0.6l1-2.1l5.1-9.3c0.3-0.5,0.6-1,0.9-1.4c0.3-0.5,0.7-0.8,1.1-1
			c-0.9-0.8-1.4-1.9-1.4-3.2c0-0.6,0.1-1.1,0.3-1.6c0.2-0.5,0.5-0.9,0.9-1.3c0.4-0.4,0.8-0.7,1.3-0.9c0.5-0.2,1.1-0.3,1.6-0.3
			s1.1,0.1,1.7,0.3c0.5,0.2,1,0.5,1.4,0.9c0.4,0.4,0.7,0.8,0.9,1.3c0.2,0.5,0.3,1,0.3,1.6c0,1.6-0.7,2.8-2.1,3.6
			c0.4,0.4,0.6,0.9,0.8,1.7c0.2,0.7,0.2,1.5,0.2,2.4v13.6H310.2z M294.7,2199.5c0.5,0,1-0.2,1.3-0.5c0.3-0.4,0.5-0.8,0.5-1.4
			s-0.2-1-0.5-1.3c-0.3-0.4-0.8-0.5-1.3-0.5c-0.5,0-1,0.2-1.4,0.5c-0.4,0.4-0.5,0.8-0.5,1.3s0.2,1,0.5,1.4
			C293.7,2199.4,294.1,2199.5,294.7,2199.5z M309.4,2199.8c0.6,0,1.1-0.2,1.5-0.6c0.4-0.4,0.6-0.9,0.6-1.5c0-0.6-0.2-1.1-0.6-1.5
			c-0.4-0.4-0.9-0.6-1.5-0.6c-0.6,0-1.1,0.2-1.5,0.6c-0.4,0.4-0.6,0.9-0.6,1.5c0,0.6,0.2,1.1,0.6,1.5S308.8,2199.8,309.4,2199.8z"/>
		<path class="st1" d="M310,2188.8v-9h2.6v9H310z"/>
		<path class="st1" d="M331.3,2219v-17.2c0-0.8-0.1-1.6-0.3-2.3c-0.2-0.7-0.5-1.4-1-1.9c-0.5-0.5-1-1-1.8-1.3
			c-0.7-0.3-1.6-0.5-2.6-0.5c-0.9,0-1.8,0.1-2.4,0.4c-0.7,0.3-1.2,0.6-1.7,1.1c-0.5,0.5-0.8,1-1.1,1.6c-0.3,0.6-0.4,1.3-0.5,2h-2.5
			c0.1-1.1,0.3-2.1,0.7-3c0.4-0.9,0.9-1.7,1.6-2.3c0.7-0.7,1.5-1.2,2.5-1.5c1-0.4,2.1-0.5,3.5-0.5c1.4,0,2.7,0.2,3.7,0.6
			c1,0.4,1.9,1,2.5,1.7c0.7,0.7,1.1,1.6,1.5,2.6c0.3,1,0.5,2.1,0.5,3.3v17.2H331.3z"/>
		<path class="st1" d="M350.2,2219l-11.8-13.1l1.7-1.7l10.5,11.5v-14.3c-0.2,0.1-0.5,0.2-0.7,0.2s-0.5,0-0.8,0
			c-0.6,0-1.1-0.1-1.6-0.3c-0.5-0.2-0.9-0.5-1.3-0.9c-0.4-0.4-0.7-0.8-0.9-1.3c-0.2-0.5-0.3-1-0.3-1.6c0-0.6,0.1-1.1,0.3-1.6
			c0.2-0.5,0.5-0.9,0.9-1.3c0.4-0.4,0.8-0.7,1.3-0.9c0.5-0.2,1-0.3,1.6-0.3s1.1,0.1,1.6,0.3c0.5,0.2,0.9,0.5,1.3,0.9
			c0.4,0.4,0.7,0.8,0.9,1.3c0.2,0.5,0.3,1,0.3,1.6v21.4H350.2z M349,2199.6c0.5,0,1-0.2,1.3-0.6c0.3-0.4,0.5-0.8,0.5-1.4
			c0-0.5-0.2-1-0.5-1.4c-0.4-0.4-0.8-0.5-1.3-0.5s-1,0.2-1.4,0.5s-0.5,0.8-0.5,1.4c0,0.5,0.2,1,0.5,1.4S348.5,2199.6,349,2199.6z"/>
		<path class="st1" d="M371.8,2219l-2.5-10.7c-0.3,0.2-0.6,0.3-0.9,0.4c-0.3,0.1-0.6,0.1-1,0.1c-0.6,0-1.1-0.1-1.6-0.3
			c-0.5-0.2-0.9-0.4-1.2-0.8c-0.3-0.3-0.6-0.7-0.8-1.2c-0.2-0.4-0.3-0.9-0.3-1.5c0-0.6,0.1-1.1,0.3-1.5c0.2-0.5,0.4-0.9,0.8-1.2
			c0.3-0.3,0.7-0.6,1.2-0.8s1-0.3,1.6-0.3c1.1,0,2,0.3,2.6,0.8c0.6,0.6,1,1.3,1.3,2.3l1.4,6.5c0,0.1,0.1,0.4,0.1,0.8
			c0.1,0.4,0.1,0.8,0.2,1.2c0.1,0.4,0.1,0.9,0.2,1.3c0.1,0.4,0.1,0.7,0.1,0.9h0c0-0.3,0-0.8,0-1.3c0-0.6,0.1-1.1,0.2-1.6
			c0.3-1.7,0.5-3.2,0.6-4.4c0.2-1.2,0.3-2.1,0.4-2.9c0.1-0.8,0.2-1.3,0.2-1.7c0-0.4,0.1-0.6,0.1-0.7c0-1-0.1-1.9-0.4-2.7
			c-0.3-0.8-0.7-1.6-1.3-2.2c-0.6-0.6-1.3-1.1-2.3-1.5c-0.9-0.4-2-0.5-3.3-0.5c-0.9,0-1.7,0.1-2.5,0.4c-0.8,0.3-1.4,0.6-2,1.1
			c-0.6,0.5-1.1,1-1.4,1.6c-0.4,0.6-0.6,1.3-0.7,2h-2.7c0.1-1.1,0.5-2.2,1-3.1c0.6-0.9,1.3-1.7,2.1-2.3c0.9-0.6,1.8-1.1,2.9-1.5
			c1.1-0.3,2.2-0.5,3.4-0.5c1.5,0,2.9,0.2,4.1,0.6c1.2,0.4,2.2,1.1,3,1.9c0.8,0.8,1.5,1.8,1.9,2.9c0.4,1.1,0.7,2.4,0.7,3.9
			c0,0.1,0,0.3,0,0.5s-0.1,0.6-0.1,1.1c-0.1,0.5-0.2,1.1-0.3,1.9c-0.1,0.8-0.3,1.7-0.5,2.9c-0.2,1.2-0.4,2.5-0.7,4.2
			c-0.3,1.6-0.6,3.5-1,5.6H371.8z M367.3,2206.9c0.5,0,0.9-0.2,1.3-0.5s0.5-0.8,0.5-1.2s-0.2-0.9-0.5-1.3c-0.3-0.4-0.7-0.6-1.3-0.6
			c-0.6,0-1,0.2-1.3,0.6c-0.3,0.4-0.4,0.8-0.4,1.3s0.1,0.9,0.4,1.2S366.7,2206.9,367.3,2206.9z"/>
		<path class="st1" d="M395.9,2219v-17.2c0-0.8-0.1-1.6-0.3-2.3c-0.2-0.7-0.5-1.4-1-1.9c-0.5-0.5-1-1-1.8-1.3
			c-0.7-0.3-1.6-0.5-2.6-0.5c-0.9,0-1.8,0.1-2.4,0.4c-0.7,0.3-1.2,0.6-1.7,1.1c-0.5,0.5-0.8,1-1.1,1.6c-0.3,0.6-0.4,1.3-0.5,2h-2.5
			c0.1-1.1,0.3-2.1,0.7-3c0.4-0.9,0.9-1.7,1.6-2.3c0.7-0.7,1.5-1.2,2.5-1.5c1-0.4,2.1-0.5,3.5-0.5c1.4,0,2.7,0.2,3.7,0.6
			c1,0.4,1.9,1,2.5,1.7c0.7,0.7,1.1,1.6,1.5,2.6c0.3,1,0.5,2.1,0.5,3.3v17.2H395.9z"/>
		<path class="st1" d="M421.1,2219v-16.1c0-1.1-0.2-2-0.6-2.9c-0.4-0.9-0.9-1.6-1.6-2.2c-0.7-0.6-1.5-1.1-2.4-1.4
			c-0.9-0.3-1.9-0.5-3-0.5c-1.7,0-3.1,0.4-4.4,1.2c-1.2,0.8-2.2,1.9-2.8,3.2l2.3,2.7v16.1H406v-15.5l-2.5-2.9c0.3-1.1,0.7-2,1.3-2.9
			c0.6-0.9,1.3-1.6,2.2-2.2c0.9-0.6,1.8-1.1,2.9-1.4c1.1-0.3,2.3-0.5,3.6-0.5c1.5,0,2.9,0.2,4.2,0.7c1.3,0.5,2.3,1.1,3.2,2
			c0.9,0.8,1.6,1.8,2.1,3s0.7,2.5,0.7,3.9v15.9H421.1z"/>
		<path class="st1" d="M446.2,2219v-16.1c0-1.1-0.2-2-0.6-2.9c-0.4-0.9-0.9-1.6-1.6-2.2c-0.7-0.6-1.5-1.1-2.4-1.4
			c-0.9-0.3-1.9-0.5-3-0.5c-1.7,0-3.1,0.4-4.4,1.2c-1.2,0.8-2.2,1.9-2.8,3.2l2.3,2.7v16.1h-2.5v-15.5l-2.5-2.9
			c0.3-1.1,0.7-2,1.3-2.9c0.6-0.9,1.3-1.6,2.2-2.2c0.9-0.6,1.8-1.1,2.9-1.4c1.1-0.3,2.3-0.5,3.6-0.5c1.5,0,2.9,0.2,4.2,0.7
			c1.3,0.5,2.3,1.1,3.2,2c0.9,0.8,1.6,1.8,2.1,3s0.7,2.5,0.7,3.9v15.9H446.2z"/>
		<path class="st1" d="M463.4,2203.6h-9.9v-1.5c0-1.2,0.2-2.2,0.6-3.3c0.4-1,0.9-1.9,1.7-2.7c0.7-0.8,1.7-1.4,2.8-1.9
			c1.1-0.5,2.4-0.7,3.8-0.7c1.2,0,2.3,0.2,3.4,0.6c1,0.4,1.9,0.9,2.7,1.6c0.8,0.7,1.3,1.5,1.8,2.5c0.4,1,0.6,2,0.6,3.2h-2.5
			c0-0.8-0.1-1.6-0.4-2.3c-0.3-0.7-0.7-1.3-1.2-1.8c-0.5-0.5-1.2-0.9-1.9-1.2c-0.8-0.3-1.6-0.4-2.6-0.4c-0.9,0-1.8,0.1-2.5,0.4
			c-0.7,0.3-1.4,0.7-1.9,1.2c-0.5,0.5-0.9,1.1-1.2,1.8c-0.3,0.7-0.4,1.5-0.4,2.3h9.8v13.7c0,0.6-0.1,1.1-0.3,1.6
			c-0.2,0.5-0.5,0.9-0.9,1.3c-0.4,0.4-0.8,0.7-1.3,0.9s-1,0.3-1.6,0.3c-0.6,0-1.1-0.1-1.6-0.3s-0.9-0.5-1.3-0.9
			c-0.4-0.4-0.7-0.8-0.9-1.3c-0.2-0.5-0.3-1-0.3-1.6c0-0.6,0.1-1.1,0.3-1.6c0.2-0.5,0.5-0.9,0.9-1.3c0.4-0.4,0.8-0.7,1.3-0.9
			c0.5-0.2,1-0.3,1.6-0.3c0.6,0,1.1,0.1,1.5,0.2V2203.6z M461.9,2217.1c0.5,0,1-0.2,1.4-0.6s0.5-0.8,0.5-1.4c0-0.5-0.2-1-0.5-1.3
			c-0.4-0.4-0.8-0.5-1.4-0.5s-1,0.2-1.3,0.5c-0.4,0.4-0.5,0.8-0.5,1.3c0,0.5,0.2,1,0.5,1.4C460.9,2216.9,461.4,2217.1,461.9,2217.1z
			"/>
		<path class="st1" d="M466.9,2233.4v-4.9c-0.2,0.1-0.4,0.2-0.6,0.2c-0.2,0-0.5,0.1-0.8,0.1c-0.6,0-1.1-0.1-1.6-0.3
			c-0.5-0.2-0.9-0.5-1.2-0.8c-0.3-0.3-0.6-0.7-0.8-1.2c-0.2-0.4-0.3-0.9-0.3-1.4c0-1.1,0.3-2,1-2.6c0.7-0.7,1.6-1,2.8-1
			c1.2,0,2.1,0.3,2.7,1c0.6,0.7,1,1.6,1,2.7v8.3H466.9z M465.4,2226.8c0.5,0,0.9-0.2,1.2-0.5c0.3-0.3,0.4-0.7,0.4-1.1
			c0-0.5-0.1-0.8-0.4-1.1c-0.2-0.3-0.7-0.5-1.2-0.5c-0.5,0-0.9,0.2-1.2,0.5c-0.3,0.3-0.4,0.7-0.4,1.1c0,0.5,0.1,0.8,0.4,1.1
			C464.5,2226.6,464.9,2226.8,465.4,2226.8z"/>
		<path class="st1" d="M485.5,2219l-11.8-13.1l1.7-1.7l10.5,11.5v-14.3c-0.2,0.1-0.5,0.2-0.7,0.2c-0.3,0-0.5,0-0.8,0
			c-0.6,0-1.1-0.1-1.6-0.3c-0.5-0.2-0.9-0.5-1.3-0.9c-0.4-0.4-0.7-0.8-0.9-1.3c-0.2-0.5-0.3-1-0.3-1.6c0-0.6,0.1-1.1,0.3-1.6
			c0.2-0.5,0.5-0.9,0.9-1.3c0.4-0.4,0.8-0.7,1.3-0.9c0.5-0.2,1-0.3,1.6-0.3c0.6,0,1.1,0.1,1.6,0.3c0.5,0.2,0.9,0.5,1.3,0.9
			c0.4,0.4,0.7,0.8,0.9,1.3c0.2,0.5,0.3,1,0.3,1.6v21.4H485.5z M484.3,2199.6c0.5,0,1-0.2,1.3-0.6c0.3-0.4,0.5-0.8,0.5-1.4
			c0-0.5-0.2-1-0.5-1.4c-0.4-0.4-0.8-0.5-1.3-0.5s-1,0.2-1.4,0.5c-0.4,0.4-0.5,0.8-0.5,1.4c0,0.5,0.2,1,0.5,1.4
			C483.3,2199.4,483.8,2199.6,484.3,2199.6z"/>
		<path class="st1" d="M495.7,2193.9h2.5v17.5c0.2-0.1,0.5-0.2,0.7-0.2c0.3,0,0.5,0,0.8,0c0.6,0,1.1,0.1,1.6,0.3
			c0.5,0.2,0.9,0.5,1.3,0.9c0.4,0.4,0.7,0.8,0.9,1.3c0.2,0.5,0.3,1,0.3,1.6c0,0.6-0.1,1.1-0.3,1.6c-0.2,0.5-0.5,0.9-0.9,1.3
			c-0.4,0.4-0.8,0.7-1.3,0.9s-1,0.3-1.6,0.3s-1.1-0.1-1.6-0.3c-0.5-0.2-0.9-0.5-1.3-0.9c-0.4-0.4-0.7-0.8-0.9-1.3
			c-0.2-0.5-0.3-1-0.3-1.6V2193.9z M499.8,2217.1c0.5,0,1-0.2,1.3-0.6s0.5-0.8,0.5-1.4c0-0.5-0.2-1-0.5-1.3
			c-0.4-0.4-0.8-0.5-1.3-0.5c-0.5,0-1,0.2-1.3,0.5c-0.3,0.4-0.5,0.8-0.5,1.3c0,0.5,0.2,1,0.5,1.4S499.3,2217.1,499.8,2217.1z"/>
		<path class="st1" d="M525.6,2219v-20.5c0-0.8-0.2-1.4-0.7-1.9c-0.4-0.5-1.1-0.7-1.8-0.7c-0.6,0-1.1,0.2-1.5,0.5
			c-0.4,0.3-0.7,0.7-0.9,1.3l-7.1,21.4h-2.4v-17.5c-0.2,0.1-0.5,0.2-0.7,0.2s-0.5,0-0.8,0c-0.6,0-1.1-0.1-1.6-0.3
			c-0.5-0.2-0.9-0.5-1.3-0.9c-0.4-0.4-0.7-0.8-0.9-1.3c-0.2-0.5-0.3-1-0.3-1.6c0-0.6,0.1-1.1,0.3-1.6c0.2-0.5,0.5-0.9,0.9-1.3
			c0.4-0.4,0.8-0.7,1.3-0.9c0.5-0.2,1-0.3,1.6-0.3c0.6,0,1.1,0.1,1.6,0.3c0.5,0.2,0.9,0.5,1.3,0.9c0.4,0.4,0.7,0.8,0.9,1.3
			c0.2,0.5,0.3,1,0.3,1.6v14.4c0.8-2.4,1.6-4.9,2.4-7.3c0.8-2.4,1.6-4.9,2.4-7.3c0.4-1.4,1-2.3,1.7-2.9c0.7-0.6,1.7-0.9,2.9-0.9
			c0.7,0,1.4,0.1,2.1,0.4c0.6,0.2,1.2,0.6,1.6,1c0.4,0.4,0.8,0.9,1,1.5c0.2,0.6,0.4,1.3,0.4,2v20.5H525.6z M509.7,2199.6
			c0.5,0,1-0.2,1.3-0.6s0.5-0.8,0.5-1.4c0-0.5-0.2-1-0.5-1.4s-0.8-0.5-1.3-0.5c-0.5,0-1,0.2-1.4,0.5c-0.4,0.4-0.5,0.8-0.5,1.4
			c0,0.5,0.2,1,0.5,1.4C508.7,2199.4,509.2,2199.6,509.7,2199.6z"/>
		<path class="st1" d="M554.3,2219l-6.7-20l-6.7,20h-2.7v-17.5c-0.2,0.1-0.5,0.2-0.7,0.2c-0.3,0-0.5,0-0.8,0c-0.6,0-1.1-0.1-1.6-0.3
			c-0.5-0.2-0.9-0.5-1.3-0.9c-0.4-0.4-0.7-0.8-0.9-1.3c-0.2-0.5-0.3-1-0.3-1.6c0-0.6,0.1-1.1,0.3-1.6c0.2-0.5,0.5-0.9,0.9-1.3
			c0.4-0.4,0.8-0.7,1.3-0.9c0.5-0.2,1-0.3,1.6-0.3c0.6,0,1.1,0.1,1.6,0.3c0.5,0.2,0.9,0.5,1.3,0.9c0.4,0.4,0.7,0.8,0.9,1.3
			c0.2,0.5,0.3,1,0.3,1.6v12.4l-0.3,4.1l0.9-4l5.2-14.4h2l5.3,14.4l0.9,4l-0.3-4.1v-16.3h2.5v25.2H554.3z M536.6,2199.5
			c0.5,0,1-0.2,1.3-0.5c0.3-0.4,0.5-0.8,0.5-1.4s-0.2-1-0.5-1.3c-0.3-0.4-0.8-0.5-1.3-0.5c-0.5,0-1,0.2-1.4,0.5
			c-0.4,0.4-0.5,0.8-0.5,1.3s0.2,1,0.5,1.4C535.6,2199.4,536.1,2199.5,536.6,2199.5z"/>
		<path class="st1" d="M578.4,2219v-20.6c0-0.7-0.1-1.2-0.2-1.5c-0.2-0.3-0.6-0.5-1.2-0.6c-0.7,2.1-1.8,3.6-3.1,4.6
			c-1.3,1-2.8,1.5-4.5,1.5c-1,0-1.8-0.1-2.6-0.3c-0.8-0.2-1.4-0.5-1.9-1c-0.5-0.4-0.9-0.9-1.2-1.5c-0.3-0.6-0.4-1.2-0.4-1.9
			c0-0.6,0.1-1.1,0.3-1.6c0.2-0.5,0.5-0.9,0.8-1.3c0.4-0.4,0.8-0.7,1.3-0.9c0.5-0.2,1-0.3,1.6-0.3c0.6,0,1.1,0.1,1.6,0.3
			c0.5,0.2,0.9,0.5,1.3,0.9c0.4,0.4,0.6,0.8,0.8,1.3s0.3,1,0.3,1.6c0,0.9-0.3,1.7-0.9,2.5c1.2-0.4,2.3-1,3.1-2c0.8-1,1.4-2.3,1.6-4
			h1.5c1.3,0,2.3,0.3,3,1c0.8,0.7,1.1,1.6,1.1,3v20.8H578.4z M569.2,2197.8c0-0.5-0.2-1-0.5-1.4c-0.4-0.4-0.8-0.6-1.3-0.6
			s-1,0.2-1.3,0.6c-0.3,0.4-0.5,0.8-0.5,1.4s0.2,1,0.5,1.3c0.3,0.3,0.8,0.5,1.3,0.5s1-0.2,1.3-0.5
			C569,2198.8,569.2,2198.3,569.2,2197.8z"/>
		<path class="st1" d="M588.4,2193.9h2.5v17.5c0.2-0.1,0.5-0.2,0.7-0.2c0.3,0,0.5,0,0.8,0c0.6,0,1.1,0.1,1.6,0.3
			c0.5,0.2,0.9,0.5,1.3,0.9c0.4,0.4,0.7,0.8,0.9,1.3c0.2,0.5,0.3,1,0.3,1.6c0,0.6-0.1,1.1-0.3,1.6c-0.2,0.5-0.5,0.9-0.9,1.3
			c-0.4,0.4-0.8,0.7-1.3,0.9c-0.5,0.2-1,0.3-1.6,0.3c-0.6,0-1.1-0.1-1.6-0.3s-0.9-0.5-1.3-0.9c-0.4-0.4-0.7-0.8-0.9-1.3
			c-0.2-0.5-0.3-1-0.3-1.6V2193.9z M592.5,2217.1c0.5,0,1-0.2,1.3-0.6s0.5-0.8,0.5-1.4c0-0.5-0.2-1-0.5-1.3
			c-0.4-0.4-0.8-0.5-1.3-0.5c-0.5,0-1,0.2-1.3,0.5c-0.3,0.4-0.5,0.8-0.5,1.3c0,0.5,0.2,1,0.5,1.4
			C591.5,2216.9,591.9,2217.1,592.5,2217.1z"/>
		<path class="st1" d="M620,2219l-6.7-20l-6.7,20h-2.7v-17.5c-0.2,0.1-0.5,0.2-0.7,0.2c-0.3,0-0.5,0-0.8,0c-0.6,0-1.1-0.1-1.6-0.3
			c-0.5-0.2-0.9-0.5-1.3-0.9c-0.4-0.4-0.7-0.8-0.9-1.3c-0.2-0.5-0.3-1-0.3-1.6c0-0.6,0.1-1.1,0.3-1.6c0.2-0.5,0.5-0.9,0.9-1.3
			c0.4-0.4,0.8-0.7,1.3-0.9c0.5-0.2,1-0.3,1.6-0.3c0.6,0,1.1,0.1,1.6,0.3c0.5,0.2,0.9,0.5,1.3,0.9c0.4,0.4,0.7,0.8,0.9,1.3
			c0.2,0.5,0.3,1,0.3,1.6v12.4l-0.3,4.1l0.9-4l5.2-14.4h2l5.3,14.4l0.9,4l-0.3-4.1v-16.3h2.5v25.2H620z M602.4,2199.5
			c0.5,0,1-0.2,1.3-0.5c0.3-0.4,0.5-0.8,0.5-1.4s-0.2-1-0.5-1.3c-0.3-0.4-0.8-0.5-1.3-0.5c-0.5,0-1,0.2-1.4,0.5
			c-0.4,0.4-0.5,0.8-0.5,1.3s0.2,1,0.5,1.4C601.4,2199.4,601.8,2199.5,602.4,2199.5z"/>
		<path class="st1" d="M620.6,2188.8c-1.7-0.6-3.3-1.1-4.8-1.5c-1.5-0.4-2.9-0.7-4.2-0.9c-1.3-0.2-2.5-0.4-3.6-0.4
			c-1.1-0.1-2.1-0.1-3.1-0.2c-0.5,0-0.8,0-1.2,0c-0.3,0-0.6,0-0.8,0c-0.2,0-0.4,0-0.6,0c-0.2,0-0.4,0-0.6,0.1c0.4-1.1,1-2.2,1.6-3.1
			c0.7-0.9,1.4-1.7,2.3-2.3c0.9-0.6,1.8-1.1,2.9-1.4c1.1-0.3,2.2-0.5,3.4-0.5c3.3,0,6,1.3,8.1,4v-6h2.4v12.8L620.6,2188.8z
			 M620.1,2186.4c-0.9-1.9-1.9-3.3-3.2-4.2c-1.3-0.9-2.8-1.4-4.8-1.4c-0.7,0-1.5,0.1-2.2,0.2c-0.7,0.1-1.3,0.3-1.9,0.6
			c-0.6,0.3-1.1,0.6-1.6,1c-0.5,0.4-0.9,0.8-1.2,1.3c1.3,0,2.6,0,3.8,0.1c1.2,0.1,2.4,0.2,3.6,0.4s2.4,0.5,3.6,0.8
			C617.4,2185.5,618.7,2185.9,620.1,2186.4z"/>
		<path class="st1" d="M629.5,2219v-7.6c0-2.8,1.1-4.5,3.2-5.3c-1.5-0.4-2.7-1.1-3.5-2.2c-0.8-1.1-1.2-2.4-1.2-4
			c0-0.9,0.2-1.8,0.5-2.5c0.3-0.8,0.8-1.4,1.4-2c0.6-0.6,1.3-1,2.1-1.3c0.8-0.3,1.7-0.5,2.6-0.5c1.3,0,2.4,0.3,3.1,1
			c0.8,0.7,1.2,1.6,1.2,2.7c0,0.6-0.1,1.1-0.3,1.6c-0.2,0.5-0.4,0.9-0.8,1.2c-0.3,0.4-0.7,0.6-1.2,0.8c-0.5,0.2-1,0.3-1.7,0.3
			c-1,0-1.8-0.3-2.5-0.8c-0.7-0.5-1.2-1.3-1.4-2.4c-0.2,0.3-0.3,0.6-0.3,1s-0.1,0.7-0.1,1.1c0,0.7,0.1,1.3,0.3,1.9
			c0.2,0.5,0.5,1,0.9,1.4c0.4,0.4,1,0.7,1.7,0.9c0.7,0.2,1.6,0.3,2.6,0.3h2.4v2.5h-2.7c-1.2,0-2.1,0.3-2.8,1
			c-0.6,0.7-0.9,1.8-0.9,3.3v5.3h12.2v-22.9h2.5v25.2H629.5z M636.8,2197.4c0-0.5-0.2-0.9-0.5-1.3c-0.4-0.4-0.8-0.6-1.3-0.6
			c-0.6,0-1,0.2-1.4,0.5c-0.3,0.3-0.5,0.8-0.5,1.4c0,0.5,0.2,1,0.5,1.3c0.3,0.3,0.8,0.5,1.3,0.5c0.5,0,0.9-0.2,1.3-0.5
			C636.6,2198.4,636.8,2198,636.8,2197.4z"/>
		<path class="st1" d="M663.2,2219l-11.8-13.1l1.7-1.7l10.5,11.5v-14.3c-0.2,0.1-0.5,0.2-0.7,0.2c-0.3,0-0.5,0-0.8,0
			c-0.6,0-1.1-0.1-1.6-0.3c-0.5-0.2-0.9-0.5-1.3-0.9c-0.4-0.4-0.7-0.8-0.9-1.3c-0.2-0.5-0.3-1-0.3-1.6c0-0.6,0.1-1.1,0.3-1.6
			c0.2-0.5,0.5-0.9,0.9-1.3c0.4-0.4,0.8-0.7,1.3-0.9c0.5-0.2,1-0.3,1.6-0.3c0.6,0,1.1,0.1,1.6,0.3c0.5,0.2,0.9,0.5,1.3,0.9
			c0.4,0.4,0.7,0.8,0.9,1.3c0.2,0.5,0.3,1,0.3,1.6v21.4H663.2z M662,2199.6c0.5,0,1-0.2,1.3-0.6c0.3-0.4,0.5-0.8,0.5-1.4
			c0-0.5-0.2-1-0.5-1.4c-0.4-0.4-0.8-0.5-1.3-0.5s-1,0.2-1.4,0.5c-0.4,0.4-0.5,0.8-0.5,1.4c0,0.5,0.2,1,0.5,1.4
			C661,2199.4,661.5,2199.6,662,2199.6z"/>
		<path class="st1" d="M673.4,2193.9h2.5v17.5c0.2-0.1,0.5-0.2,0.7-0.2c0.3,0,0.5,0,0.8,0c0.6,0,1.1,0.1,1.6,0.3
			c0.5,0.2,0.9,0.5,1.3,0.9c0.4,0.4,0.7,0.8,0.9,1.3c0.2,0.5,0.3,1,0.3,1.6c0,0.6-0.1,1.1-0.3,1.6c-0.2,0.5-0.5,0.9-0.9,1.3
			c-0.4,0.4-0.8,0.7-1.3,0.9s-1,0.3-1.6,0.3s-1.1-0.1-1.6-0.3c-0.5-0.2-0.9-0.5-1.3-0.9c-0.4-0.4-0.7-0.8-0.9-1.3
			c-0.2-0.5-0.3-1-0.3-1.6V2193.9z M677.5,2217.1c0.5,0,1-0.2,1.3-0.6s0.5-0.8,0.5-1.4c0-0.5-0.2-1-0.5-1.3
			c-0.4-0.4-0.8-0.5-1.3-0.5c-0.5,0-1,0.2-1.3,0.5c-0.3,0.4-0.5,0.8-0.5,1.3c0,0.5,0.2,1,0.5,1.4S677,2217.1,677.5,2217.1z
			 M683.9,2193.9h2.5v17.5c0.2-0.1,0.5-0.2,0.7-0.2c0.3,0,0.5,0,0.8,0c0.6,0,1.1,0.1,1.6,0.3c0.5,0.2,0.9,0.5,1.3,0.9
			c0.4,0.4,0.7,0.8,0.9,1.3c0.2,0.5,0.3,1,0.3,1.6c0,0.6-0.1,1.1-0.3,1.6c-0.2,0.5-0.5,0.9-0.9,1.3c-0.4,0.4-0.8,0.7-1.3,0.9
			s-1,0.3-1.6,0.3c-0.6,0-1.1-0.1-1.6-0.3c-0.5-0.2-0.9-0.5-1.3-0.9c-0.4-0.4-0.7-0.8-0.9-1.3c-0.2-0.5-0.3-1-0.3-1.6V2193.9z
			 M688,2217.1c0.5,0,1-0.2,1.3-0.6s0.5-0.8,0.5-1.4c0-0.5-0.2-1-0.5-1.3c-0.4-0.4-0.8-0.5-1.3-0.5c-0.6,0-1,0.2-1.4,0.5
			c-0.3,0.4-0.5,0.8-0.5,1.3c0,0.5,0.2,1,0.5,1.4S687.4,2217.1,688,2217.1z"/>
		<path class="st1" d="M713.4,2219v-15.7c0-1.1-0.2-2.1-0.5-3.1c-0.3-0.9-0.8-1.7-1.4-2.4c-0.6-0.7-1.4-1.2-2.3-1.5
			c-0.9-0.4-2-0.5-3.3-0.5c-1.3,0-2.4,0.2-3.3,0.5c-0.9,0.4-1.7,0.9-2.3,1.5c-0.6,0.7-1.1,1.5-1.4,2.4c-0.3,0.9-0.5,2-0.5,3.1v10.4
			l3.8-8.7c0.5-1.2,1.1-2.1,1.8-2.7c0.7-0.6,1.5-0.9,2.5-0.9c0.6,0,1.1,0.1,1.6,0.3c0.5,0.2,0.9,0.5,1.2,0.8
			c0.3,0.4,0.6,0.8,0.8,1.2c0.2,0.5,0.3,1,0.3,1.5c0,0.5-0.1,1-0.3,1.5c-0.2,0.5-0.4,0.9-0.7,1.2c-0.3,0.3-0.7,0.6-1.2,0.8
			c-0.5,0.2-1,0.3-1.6,0.3c-0.6,0-1.2-0.1-1.7-0.4c-0.5-0.3-0.9-0.6-1.2-1l-5.2,11.2H696v-15.6c0-1.5,0.2-2.9,0.7-4.1
			c0.4-1.2,1.1-2.2,2-3.1c0.9-0.9,1.9-1.5,3.1-2c1.2-0.5,2.6-0.7,4.2-0.7c1.6,0,3,0.2,4.2,0.7c1.2,0.5,2.3,1.1,3.1,2
			c0.9,0.9,1.5,1.9,2,3.1c0.5,1.2,0.7,2.6,0.7,4.1v15.6H713.4z M708.4,2205.3c0-0.5-0.2-1-0.5-1.4c-0.3-0.4-0.8-0.6-1.4-0.6
			c-0.6,0-1.1,0.2-1.4,0.6c-0.3,0.4-0.5,0.9-0.5,1.4c0,0.5,0.2,0.9,0.5,1.3c0.3,0.4,0.8,0.5,1.4,0.5c0.6,0,1.1-0.2,1.4-0.5
			C708.3,2206.3,708.4,2205.9,708.4,2205.3z"/>
		<path class="st1" d="M713.3,2188.8v-9h2.6v9H713.3z"/>
	</g>
	<g class="st0">
		<path class="st1" d="M159.4,2299v-34.9l-9.9,4.1v-5.3l11.3-5.2h5.1v41.3H159.4z"/>
		<path class="st1" d="M178.6,2299c0-2.6,0.3-4.8,1-6.7c0.7-1.9,1.7-3.6,2.9-5c1.3-1.5,2.8-2.8,4.6-4c1.8-1.2,3.8-2.4,6-3.7
			c1.1-0.6,2.2-1.3,3.2-1.9s1.8-1.3,2.6-2c0.7-0.7,1.3-1.5,1.7-2.4c0.4-0.9,0.6-2,0.6-3.2c0-1.1-0.2-2.1-0.5-3
			c-0.3-0.9-0.8-1.7-1.5-2.3c-0.6-0.6-1.4-1.1-2.3-1.5s-1.9-0.5-2.9-0.5c-1.2,0-2.2,0.2-3.2,0.5c-1,0.3-1.8,0.8-2.5,1.5
			c-0.7,0.7-1.2,1.6-1.6,2.7c-0.4,1.1-0.6,2.5-0.6,4.2h-6.8c0-2.1,0.3-4,1-5.7c0.7-1.7,1.6-3.1,2.9-4.3c1.3-1.2,2.8-2.1,4.6-2.8
			c1.8-0.6,3.9-1,6.2-1s4.3,0.3,6.1,1c1.7,0.7,3.1,1.5,4.3,2.7c1.1,1.1,2,2.4,2.5,3.8c0.6,1.4,0.8,2.9,0.8,4.5c0,2-0.4,3.8-1.2,5.3
			c-0.8,1.5-1.8,2.9-3,4.2c-1.2,1.2-2.6,2.3-4.2,3.2c-1.5,0.9-3,1.8-4.5,2.6c-0.9,0.5-1.9,1-2.8,1.6c-0.9,0.6-1.8,1.2-2.6,1.9
			c-0.8,0.7-1.5,1.5-2.2,2.4c-0.6,0.9-1.1,1.9-1.4,2.9h21.6v5.2H178.6z"/>
		<path class="st1" d="M226.7,2257.7c2.7,0,4.9,0.5,6.8,1.6c1.9,1,3.4,2.5,4.7,4.4c1.2,1.9,2.1,4.1,2.7,6.7c0.6,2.6,0.9,5.4,0.9,8.4
			c0,3-0.3,5.8-0.9,8.4c-0.6,2.6-1.5,4.8-2.7,6.7c-1.2,1.9-2.8,3.3-4.7,4.4c-1.9,1-4.2,1.6-6.8,1.6s-4.9-0.5-6.8-1.6
			c-1.9-1-3.4-2.5-4.7-4.4c-1.2-1.9-2.1-4.1-2.7-6.7c-0.6-2.6-0.9-5.4-0.9-8.4c0-3,0.3-5.8,0.9-8.4c0.6-2.6,1.5-4.8,2.7-6.7
			c1.2-1.9,2.8-3.3,4.7-4.4C221.8,2258.3,224.1,2257.7,226.7,2257.7z M226.7,2262.6c-2.8,0-4.9,1.4-6.4,4.1s-2.2,6.7-2.2,12
			c0,5.3,0.7,9.3,2.2,12.1s3.6,4.1,6.4,4.1s4.9-1.4,6.4-4.1s2.2-6.8,2.2-12.1c0-5.3-0.7-9.3-2.2-12S229.5,2262.6,226.7,2262.6z"/>
		<path class="st1" d="M287.9,2299v-22.3c0-1.3-0.3-2.4-0.8-3.5c-0.5-1.1-1.2-2-2.1-2.8c-0.9-0.8-1.9-1.4-3.1-1.8
			c-1.2-0.4-2.4-0.6-3.7-0.6c-0.9,0-1.8,0.1-2.6,0.3c-0.9,0.2-1.7,0.5-2.5,0.9c-0.8,0.4-1.5,0.9-2.1,1.6c-0.6,0.6-1.2,1.3-1.6,2.2
			l3.1,3.5v22.5h-6v-21.3l-3.6-3.9c0.4-1.6,1.1-3,2.1-4.3c0.9-1.3,2.1-2.4,3.4-3.3c1.3-0.9,2.8-1.6,4.5-2.1c1.7-0.5,3.5-0.7,5.4-0.7
			c2.3,0,4.4,0.3,6.4,1c1.9,0.7,3.6,1.6,5,2.8c1.4,1.2,2.5,2.6,3.2,4.3c0.8,1.7,1.2,3.5,1.2,5.5v22H287.9z"/>
		<path class="st1" d="M293.8,2260.3c-1.8-0.8-3.6-1.6-5.7-2.3c-2-0.7-4.1-1.3-6.3-1.8c-2.2-0.5-4.4-0.9-6.6-1.2
			c-2.3-0.3-4.5-0.4-6.7-0.4c-1.1,0-2.2,0-3.2,0.1c-1,0-2.1,0.2-3.1,0.3c1.5-3.7,3.5-6.6,6.1-8.5c2.6-1.9,5.8-2.9,9.5-2.9
			c2.3,0,4.4,0.4,6.3,1.2c1.9,0.8,3.5,2,4.9,3.4c1.4,1.5,2.5,3.2,3.3,5.3C293.1,2255.6,293.6,2257.8,293.8,2260.3z M271.4,2251
			c1.4,0,2.7,0.1,4,0.2c1.3,0.1,2.6,0.3,4,0.6c1.3,0.3,2.7,0.6,4,0.9c1.4,0.4,2.8,0.8,4.2,1.3c-0.4-0.8-1-1.6-1.6-2.3
			s-1.4-1.4-2.3-2c-0.9-0.6-1.8-1-2.8-1.4c-1-0.4-2.2-0.5-3.4-0.5c-1.9,0-3.5,0.3-4.8,0.9s-2.4,1.4-3.2,2.3H271.4z"/>
		<path class="st1" d="M313.1,2286.9c0.9,0,1.7,0.2,2.5,0.5c0.8,0.3,1.4,0.8,2,1.3c0.6,0.6,1,1.2,1.3,2c0.3,0.8,0.5,1.6,0.5,2.5
			c0,0.9-0.2,1.7-0.5,2.4c-0.3,0.8-0.8,1.4-1.3,2c-0.6,0.6-1.3,1-2.1,1.3c-0.8,0.3-1.7,0.5-2.7,0.5c-1.3,0-2.3-0.2-3.2-0.6
			c-0.9-0.4-1.6-0.9-2.2-1.6c-0.6-0.7-1-1.4-1.2-2.2c-0.3-0.8-0.4-1.7-0.4-2.6v-33.6c0-0.3-0.2-0.6-0.5-0.7l-9.6-4.2
			c0-1.7,0.3-3.2,1-4.6s1.5-2.5,2.6-3.5s2.4-1.7,3.8-2.2c1.4-0.5,3-0.8,4.5-0.8c1.7,0,3.2,0.2,4.7,0.6c1.5,0.4,2.8,1.1,3.9,1.9
			c1.1,0.8,2,1.9,2.6,3.1s1,2.7,1,4.3H314c0-1-0.2-1.8-0.6-2.5c-0.4-0.7-0.9-1.2-1.5-1.6c-0.6-0.4-1.3-0.7-2.1-0.9
			c-0.8-0.2-1.5-0.3-2.3-0.3c-1.6,0-2.9,0.4-4,1.3c-1.1,0.8-1.8,1.9-2.1,3.1l8.5,3.8c0.5,0.3,1,0.6,1.3,1c0.3,0.4,0.5,1,0.5,1.7
			v28.6H313.1z M315.1,2293.3c0-0.7-0.2-1.3-0.7-1.7c-0.5-0.5-1-0.7-1.7-0.7c-0.7,0-1.2,0.2-1.7,0.7c-0.5,0.5-0.7,1-0.7,1.7
			c0,0.7,0.2,1.2,0.7,1.7c0.5,0.5,1,0.7,1.7,0.7c0.7,0,1.3-0.2,1.7-0.7C314.8,2294.5,315.1,2294,315.1,2293.3z"/>
		<path class="st1" d="M345.9,2299v-13.9c0-0.8-0.2-1.5-0.6-2.2c-0.4-0.7-1-1.3-1.7-1.7c-0.7-0.5-1.6-0.9-2.6-1.1s-2.1-0.4-3.2-0.4
			c-1.3,0-2.4,0.1-3.3,0.4c-0.9,0.3-1.6,0.7-2.2,1.2c-0.6,0.5-1,1.1-1.2,1.8c-0.3,0.7-0.4,1.5-0.4,2.3v1.5h1.4
			c0.9,0,1.7,0.2,2.5,0.5c0.8,0.3,1.4,0.8,2,1.3c0.6,0.6,1,1.2,1.3,2c0.3,0.8,0.5,1.6,0.5,2.5c0,0.9-0.2,1.7-0.5,2.4
			c-0.3,0.8-0.8,1.4-1.4,2s-1.3,1-2.1,1.3c-0.8,0.3-1.7,0.5-2.7,0.5c-1.3,0-2.3-0.2-3.2-0.6s-1.6-0.9-2.2-1.6
			c-0.6-0.6-1-1.4-1.2-2.2c-0.3-0.8-0.4-1.7-0.4-2.6v-7.1c0-1.5,0.3-2.9,1-4.2c0.6-1.3,1.5-2.4,2.6-3.3c1.1-0.9,2.5-1.6,4.1-2.2
			c1.6-0.5,3.3-0.8,5.1-0.8c1.9,0,3.6,0.3,5.1,0.8c1.4,0.5,2.6,1.3,3.3,2.4v-4.2c0-0.8-0.2-1.5-0.6-2.2c-0.4-0.7-0.9-1.3-1.7-1.8
			c-0.7-0.5-1.6-0.9-2.6-1.2c-1-0.3-2.2-0.4-3.5-0.4c-1.6,0-2.9,0.2-4.1,0.5c-1.1,0.3-2.1,0.7-2.8,1.3s-1.3,1.2-1.7,1.9
			c-0.4,0.7-0.6,1.5-0.7,2.4h-5.9c0.1-1.4,0.5-2.8,1.1-4s1.6-2.4,2.8-3.4c1.2-1,2.8-1.8,4.6-2.4c1.8-0.6,4-0.9,6.4-0.9
			c2.2,0,4.2,0.3,5.9,0.8c1.8,0.5,3.3,1.2,4.6,2.1c1.3,0.9,2.3,2,3,3.3c0.7,1.3,1,2.7,1,4.3v25.1H345.9z M334,2293.2
			c0-0.7-0.2-1.2-0.7-1.7c-0.5-0.5-1-0.7-1.7-0.7c-0.7,0-1.2,0.2-1.7,0.7c-0.5,0.5-0.7,1-0.7,1.7c0,0.7,0.2,1.2,0.7,1.7
			c0.5,0.5,1,0.7,1.7,0.7c0.7,0,1.2-0.2,1.7-0.7C333.8,2294.4,334,2293.9,334,2293.2z"/>
		<path class="st1" d="M368.3,2286.9c0.9,0,1.7,0.2,2.5,0.5c0.8,0.3,1.4,0.8,2,1.3c0.6,0.6,1,1.2,1.3,2c0.3,0.8,0.5,1.6,0.5,2.5
			c0,0.9-0.2,1.7-0.5,2.4c-0.3,0.8-0.8,1.4-1.4,2c-0.6,0.6-1.3,1-2.1,1.3c-0.8,0.3-1.7,0.5-2.7,0.5c-1.3,0-2.3-0.2-3.2-0.6
			c-0.9-0.4-1.6-0.9-2.2-1.6c-0.6-0.7-1-1.4-1.2-2.2c-0.3-0.8-0.4-1.7-0.4-2.6v-28.7h5.9v23.2H368.3z M370.3,2293.3
			c0-0.7-0.2-1.3-0.7-1.7c-0.5-0.5-1-0.7-1.7-0.7c-0.7,0-1.2,0.2-1.7,0.7c-0.5,0.5-0.7,1-0.7,1.7c0,0.7,0.2,1.2,0.7,1.7
			c0.5,0.5,1,0.7,1.7,0.7c0.7,0,1.2-0.2,1.7-0.7C370.1,2294.5,370.3,2294,370.3,2293.3z"/>
		<path class="st1" d="M403.7,2299l-12.1-5.6c0,0.8-0.2,1.6-0.5,2.4c-0.3,0.7-0.8,1.4-1.4,1.9s-1.3,1-2.1,1.3
			c-0.8,0.3-1.7,0.5-2.7,0.5c-0.9,0-1.8-0.2-2.6-0.5c-0.8-0.4-1.5-0.8-2.1-1.4c-0.6-0.6-1.1-1.3-1.4-2.1s-0.5-1.7-0.5-2.5
			c0-0.9,0.2-1.8,0.5-2.6c0.4-0.8,0.8-1.5,1.5-2.2s1.3-1.1,2.1-1.5c0.8-0.4,1.7-0.5,2.6-0.5h0.8v-10.3h-1.3c-0.9,0-1.7-0.2-2.5-0.5
			c-0.8-0.3-1.4-0.8-2-1.3c-0.6-0.5-1-1.2-1.3-2c-0.3-0.8-0.5-1.6-0.5-2.5c0-0.9,0.2-1.7,0.5-2.4c0.3-0.8,0.8-1.4,1.4-2
			c0.6-0.6,1.3-1,2.1-1.3c0.8-0.3,1.7-0.5,2.7-0.5c1.2,0,2.3,0.2,3.2,0.6c0.9,0.4,1.6,0.9,2.1,1.5c0.6,0.6,1,1.4,1.2,2.2
			c0.3,0.8,0.4,1.7,0.4,2.6v18.1l12,5.5v-30.2h6v35.3H403.7z M387.2,2269.5c0-0.7-0.2-1.2-0.7-1.7c-0.5-0.5-1-0.7-1.7-0.7
			c-0.7,0-1.2,0.2-1.7,0.7c-0.5,0.5-0.7,1-0.7,1.7c0,0.7,0.2,1.2,0.7,1.7c0.5,0.5,1,0.7,1.7,0.7c0.7,0,1.2-0.2,1.7-0.7
			C387,2270.8,387.2,2270.2,387.2,2269.5z M387.6,2292.7c0-0.7-0.2-1.3-0.7-1.8c-0.5-0.5-1.1-0.7-1.8-0.7c-0.7,0-1.3,0.2-1.8,0.7
			c-0.5,0.5-0.7,1.1-0.7,1.8c0,0.7,0.2,1.3,0.7,1.8c0.5,0.5,1.1,0.7,1.8,0.7c0.7,0,1.3-0.2,1.8-0.7
			C387.4,2294,387.6,2293.4,387.6,2292.7z"/>
		<path class="st1" d="M442.3,2299v-22.2c0-1.1-0.1-2.1-0.2-3c-0.1-0.9-0.4-1.8-0.7-2.5c-0.3-0.7-0.7-1.4-1.2-1.9
			c-0.5-0.5-1.2-0.9-1.9-1.2l-5.2,3.6l-5.1-3.6c-0.8,0.3-1.4,0.7-1.9,1.2c-0.5,0.5-1,1.2-1.3,1.9c-0.3,0.7-0.6,1.6-0.7,2.5
			c-0.1,0.9-0.2,1.9-0.2,3v15.8l6.7-6.1c-1.1-0.4-1.9-1.1-2.5-2.1c-0.6-1-0.9-2-0.9-3.1c0-0.8,0.1-1.6,0.4-2.3
			c0.3-0.7,0.7-1.3,1.2-1.8c0.5-0.5,1.1-0.9,1.9-1.2c0.7-0.3,1.5-0.4,2.3-0.4c0.9,0,1.7,0.1,2.4,0.4c0.7,0.3,1.3,0.7,1.9,1.2
			c0.5,0.5,0.9,1.1,1.2,1.8c0.3,0.7,0.4,1.5,0.4,2.3c0,0.7-0.1,1.3-0.3,1.9c-0.2,0.6-0.4,1.1-0.7,1.6s-0.6,0.9-0.9,1.3
			c-0.3,0.4-0.6,0.7-0.9,1l-12.6,12h-5.7v-22c0-1.7,0.2-3.2,0.6-4.8c0.4-1.5,1-2.9,1.8-4.1c0.8-1.2,1.9-2.2,3.2-3.1
			c1.3-0.9,2.9-1.5,4.7-1.8l5,4l5.2-4c1.8,0.3,3.3,0.9,4.6,1.8s2.3,1.9,3.1,3.1c0.8,1.2,1.4,2.6,1.8,4.1c0.4,1.5,0.6,3.1,0.6,4.8v22
			H442.3z M435.1,2281.2c0-0.6-0.2-1.1-0.6-1.6c-0.4-0.4-1-0.6-1.6-0.6c-0.7,0-1.2,0.2-1.6,0.6c-0.4,0.4-0.6,1-0.6,1.6
			s0.2,1.1,0.6,1.6c0.4,0.4,0.9,0.6,1.6,0.6c0.7,0,1.2-0.2,1.6-0.6C434.9,2282.4,435.1,2281.8,435.1,2281.2z"/>
		<path class="st1" d="M476.5,2274.2c-0.3-2-1.1-3.5-2.4-4.5c-1.3-1-3-1.6-5.2-1.6c-1.3,0-2.4,0.2-3.4,0.6c-1,0.4-1.8,0.9-2.5,1.6
			c-0.7,0.7-1.2,1.5-1.6,2.5c-0.4,1-0.6,2.1-0.6,3.3h13.9v16.3c0,0.9-0.1,1.8-0.4,2.6c-0.3,0.8-0.7,1.6-1.2,2.2
			c-0.6,0.6-1.3,1.2-2.2,1.6s-1.9,0.6-3.2,0.6c-1,0-1.9-0.2-2.7-0.5c-0.8-0.3-1.5-0.8-2.1-1.3c-0.6-0.6-1-1.2-1.3-2
			c-0.3-0.8-0.5-1.6-0.5-2.4c0-0.9,0.2-1.7,0.5-2.5c0.3-0.8,0.7-1.4,1.3-2c0.6-0.6,1.2-1,2-1.3c0.8-0.3,1.6-0.5,2.5-0.5h1.3v-6.4
			h-14v-3c0-2.1,0.4-4,1.1-5.7c0.7-1.7,1.7-3.2,3-4.5c1.3-1.3,2.8-2.2,4.6-2.9c1.8-0.7,3.8-1,5.9-1c1.7,0,3.3,0.2,4.8,0.7
			c1.5,0.5,2.9,1.2,4.1,2.1c1.2,0.9,2.1,2,2.9,3.4c0.7,1.3,1.2,2.9,1.3,4.6H476.5z M470.3,2293.3c0-0.7-0.2-1.3-0.7-1.7
			c-0.5-0.5-1-0.7-1.7-0.7c-0.7,0-1.2,0.2-1.7,0.7c-0.5,0.5-0.7,1-0.7,1.7c0,0.7,0.2,1.2,0.7,1.7c0.5,0.5,1,0.7,1.7,0.7
			c0.7,0,1.2-0.2,1.7-0.7C470.1,2294.5,470.3,2294,470.3,2293.3z"/>
	</g>
	<g class="st0">
		<path class="st1" d="M516.1,2299v-9.9c0-0.7-0.1-1.3-0.4-1.9c-0.3-0.6-0.7-1.1-1.3-1.6c-0.6-0.5-1.3-0.8-2.1-1.1s-1.8-0.4-2.9-0.4
			c-1,0-1.8,0.1-2.6,0.4c-0.7,0.3-1.4,0.6-1.9,1.1c-0.5,0.5-0.9,1-1.1,1.7c-0.3,0.7-0.4,1.4-0.4,2.2v1.9c0.2-0.1,0.5-0.2,0.7-0.2
			c0.2,0,0.5,0,0.8,0c0.6,0,1.1,0.1,1.6,0.3c0.5,0.2,0.9,0.5,1.3,0.9c0.4,0.4,0.7,0.8,0.9,1.3c0.2,0.5,0.3,1,0.3,1.6
			c0,0.6-0.1,1.1-0.3,1.6c-0.2,0.5-0.5,0.9-0.9,1.3c-0.4,0.4-0.8,0.7-1.3,0.9s-1,0.3-1.6,0.3s-1.1-0.1-1.6-0.3
			c-0.5-0.2-0.9-0.5-1.3-0.9c-0.4-0.4-0.6-0.8-0.8-1.3c-0.2-0.5-0.3-1-0.3-1.6v-5.8c0-1.1,0.2-2.1,0.6-3c0.4-0.9,1-1.7,1.8-2.4
			c0.8-0.7,1.7-1.2,2.7-1.6c1.1-0.4,2.2-0.6,3.5-0.6c1.5,0,2.8,0.2,3.9,0.7c1,0.4,2,1.1,2.8,1.9v-3.5c0-0.7-0.2-1.4-0.5-2
			c-0.3-0.6-0.8-1.2-1.3-1.6c-0.6-0.5-1.3-0.8-2.2-1.1c-0.9-0.3-1.8-0.4-3-0.4c-1.4,0-2.5,0.1-3.4,0.4s-1.7,0.7-2.3,1.2
			s-1,1-1.3,1.6c-0.3,0.6-0.5,1.2-0.5,1.9h-2.4c0-1,0.3-1.9,0.8-2.8c0.5-0.9,1.1-1.7,2-2.3c0.8-0.7,1.9-1.2,3.1-1.6s2.6-0.6,4.1-0.6
			c1.1,0,2.1,0.1,3,0.3c0.9,0.2,1.8,0.5,2.5,0.9l3.7-3.7l1.8,1.6l-3.5,3.3c1.4,1.3,2.1,2.9,2.1,5v18H516.1z M504.9,2297.1
			c0.5,0,1-0.2,1.4-0.6c0.4-0.4,0.5-0.8,0.5-1.4c0-0.5-0.2-1-0.5-1.3c-0.4-0.4-0.8-0.5-1.4-0.5s-1,0.2-1.3,0.5
			c-0.3,0.4-0.5,0.8-0.5,1.3c0,0.5,0.2,1,0.5,1.4S504.3,2297.1,504.9,2297.1z"/>
		<path class="st1" d="M537.2,2299v-17.2c0-0.8-0.1-1.6-0.3-2.3c-0.2-0.7-0.5-1.4-1-1.9c-0.5-0.5-1-1-1.8-1.3
			c-0.7-0.3-1.6-0.5-2.6-0.5c-0.9,0-1.8,0.1-2.4,0.4c-0.7,0.3-1.2,0.6-1.7,1.1c-0.5,0.5-0.8,1-1.1,1.6c-0.3,0.6-0.4,1.3-0.5,2h-2.5
			c0.1-1.1,0.3-2.1,0.7-3c0.4-0.9,0.9-1.7,1.6-2.3c0.7-0.7,1.5-1.2,2.5-1.5c1-0.4,2.1-0.5,3.5-0.5c1.4,0,2.7,0.2,3.7,0.6
			c1,0.4,1.9,1,2.5,1.7c0.7,0.7,1.1,1.6,1.5,2.6c0.3,1,0.5,2.1,0.5,3.3v17.2H537.2z"/>
		<path class="st1" d="M563.7,2299l-10.7-4.6v0.8c0,0.6-0.1,1.1-0.3,1.6c-0.2,0.5-0.5,0.9-0.9,1.3c-0.4,0.4-0.8,0.7-1.3,0.9
			s-1,0.3-1.6,0.3c-0.6,0-1.1-0.1-1.6-0.3s-0.9-0.5-1.3-0.9c-0.4-0.4-0.7-0.8-0.9-1.3c-0.2-0.5-0.3-1-0.3-1.6c0-0.6,0.1-1.1,0.3-1.6
			c0.2-0.5,0.5-0.9,0.9-1.3c0.4-0.4,0.8-0.7,1.3-0.9c0.5-0.2,1-0.3,1.6-0.3c0.3,0,0.6,0,0.8,0c0.3,0,0.5,0.1,0.7,0.2v-9.9
			c-0.2,0.1-0.5,0.2-0.7,0.2c-0.3,0-0.5,0-0.8,0c-0.6,0-1.1-0.1-1.6-0.3c-0.5-0.2-0.9-0.5-1.3-0.9c-0.4-0.4-0.7-0.8-0.9-1.3
			c-0.2-0.5-0.3-1-0.3-1.6c0-0.6,0.1-1.1,0.3-1.6c0.2-0.5,0.5-0.9,0.9-1.3c0.4-0.4,0.8-0.7,1.3-0.9c0.5-0.2,1-0.3,1.6-0.3
			c0.6,0,1.1,0.1,1.6,0.3c0.5,0.2,0.9,0.5,1.3,0.9c0.4,0.4,0.7,0.8,0.9,1.3c0.2,0.5,0.3,1,0.3,1.6v14.5l10.6,4.4v-22.7h2.5v25.2
			H563.7z M548.9,2279.5c0.5,0,1-0.2,1.3-0.5c0.4-0.4,0.5-0.8,0.5-1.4s-0.2-1-0.5-1.3c-0.4-0.4-0.8-0.5-1.3-0.5s-1,0.2-1.4,0.5
			c-0.4,0.4-0.5,0.8-0.5,1.3s0.2,1,0.5,1.4C547.9,2279.4,548.4,2279.5,548.9,2279.5z M548.9,2297.1c0.5,0,1-0.2,1.3-0.6
			s0.5-0.8,0.5-1.4c0-0.5-0.2-1-0.5-1.3c-0.4-0.4-0.8-0.5-1.3-0.5s-1,0.2-1.4,0.5c-0.4,0.4-0.5,0.8-0.5,1.3c0,0.5,0.2,1,0.5,1.4
			C547.9,2296.9,548.4,2297.1,548.9,2297.1z"/>
		<path class="st1" d="M584.9,2299v-17.2c0-0.8-0.1-1.6-0.3-2.3c-0.2-0.7-0.5-1.4-1-1.9c-0.5-0.5-1-1-1.8-1.3
			c-0.7-0.3-1.6-0.5-2.6-0.5c-0.9,0-1.8,0.1-2.4,0.4c-0.7,0.3-1.2,0.6-1.7,1.1c-0.5,0.5-0.8,1-1.1,1.6c-0.3,0.6-0.4,1.3-0.5,2h-2.5
			c0.1-1.1,0.3-2.1,0.7-3c0.4-0.9,0.9-1.7,1.6-2.3c0.7-0.7,1.5-1.2,2.5-1.5c1-0.4,2.1-0.5,3.5-0.5c1.4,0,2.7,0.2,3.7,0.6
			c1,0.4,1.9,1,2.5,1.7c0.7,0.7,1.1,1.6,1.5,2.6c0.3,1,0.5,2.1,0.5,3.3v17.2H584.9z"/>
		<path class="st1" d="M602,2283.6h-9.9v-1.5c0-1.2,0.2-2.2,0.6-3.3c0.4-1,0.9-1.9,1.7-2.7c0.7-0.8,1.7-1.4,2.8-1.9
			c1.1-0.5,2.4-0.7,3.8-0.7c1.2,0,2.3,0.2,3.4,0.6c1,0.4,1.9,0.9,2.7,1.6c0.8,0.7,1.3,1.5,1.8,2.5c0.4,1,0.6,2,0.6,3.2H607
			c0-0.8-0.1-1.6-0.4-2.3c-0.3-0.7-0.7-1.3-1.2-1.8c-0.5-0.5-1.2-0.9-1.9-1.2c-0.8-0.3-1.6-0.4-2.6-0.4s-1.8,0.1-2.5,0.4
			c-0.7,0.3-1.4,0.7-1.9,1.2c-0.5,0.5-0.9,1.1-1.2,1.8c-0.3,0.7-0.4,1.5-0.4,2.3h9.8v13.7c0,0.6-0.1,1.1-0.3,1.6
			c-0.2,0.5-0.5,0.9-0.9,1.3c-0.4,0.4-0.8,0.7-1.3,0.9s-1,0.3-1.6,0.3c-0.6,0-1.1-0.1-1.6-0.3s-0.9-0.5-1.3-0.9
			c-0.4-0.4-0.7-0.8-0.9-1.3c-0.2-0.5-0.3-1-0.3-1.6c0-0.6,0.1-1.1,0.3-1.6c0.2-0.5,0.5-0.9,0.9-1.3c0.4-0.4,0.8-0.7,1.3-0.9
			c0.5-0.2,1-0.3,1.6-0.3c0.6,0,1.1,0.1,1.5,0.2V2283.6z M600.5,2297.1c0.5,0,1-0.2,1.4-0.6c0.4-0.4,0.5-0.8,0.5-1.4
			c0-0.5-0.2-1-0.5-1.3c-0.4-0.4-0.8-0.5-1.4-0.5s-1,0.2-1.3,0.5c-0.4,0.4-0.5,0.8-0.5,1.3c0,0.5,0.2,1,0.5,1.4
			C599.5,2296.9,600,2297.1,600.5,2297.1z"/>
		<path class="st1" d="M630.4,2299v-16.1c0-1-0.2-1.9-0.6-2.8c-0.4-0.9-1-1.6-1.7-2.3c-0.7-0.6-1.5-1.1-2.4-1.5
			c-0.9-0.4-1.9-0.5-3-0.5c-1.7,0-3.1,0.4-4.4,1.2c-1.2,0.8-2.2,1.9-2.8,3.2l2.3,2.7v8.5c0.2-0.1,0.5-0.2,0.7-0.2c0.3,0,0.5,0,0.8,0
			c0.6,0,1.1,0.1,1.6,0.3c0.5,0.2,0.9,0.5,1.3,0.9c0.4,0.4,0.7,0.8,0.9,1.3c0.2,0.5,0.3,1,0.3,1.6c0,0.6-0.1,1.1-0.3,1.6
			c-0.2,0.5-0.5,0.9-0.9,1.3c-0.4,0.4-0.8,0.7-1.3,0.9c-0.5,0.2-1,0.3-1.6,0.3c-0.6,0-1.1-0.1-1.6-0.3s-0.9-0.5-1.3-0.9
			c-0.4-0.4-0.7-0.8-0.9-1.3c-0.2-0.5-0.3-1-0.3-1.6v-11.7l-2.5-2.9c0.3-1.1,0.7-2,1.3-2.9c0.6-0.9,1.3-1.6,2.2-2.2
			c0.9-0.6,1.8-1.1,2.9-1.4c1.1-0.3,2.3-0.5,3.6-0.5c1.5,0,2.9,0.2,4.1,0.7c1.2,0.5,2.3,1.1,3.2,2c0.9,0.8,1.6,1.9,2.1,3
			c0.5,1.2,0.7,2.4,0.7,3.8v15.9H630.4z M619.4,2297.1c0.5,0,1-0.2,1.4-0.6c0.4-0.4,0.5-0.8,0.5-1.4c0-0.5-0.2-1-0.5-1.3
			c-0.4-0.4-0.8-0.5-1.4-0.5s-1,0.2-1.3,0.5c-0.4,0.4-0.5,0.8-0.5,1.3c0,0.5,0.2,1,0.5,1.4S618.9,2297.1,619.4,2297.1z"/>
		<path class="st1" d="M640.2,2273.9h2.5v17.5c0.2-0.1,0.5-0.2,0.7-0.2c0.3,0,0.5,0,0.8,0c0.6,0,1.1,0.1,1.6,0.3
			c0.5,0.2,0.9,0.5,1.3,0.9c0.4,0.4,0.7,0.8,0.9,1.3c0.2,0.5,0.3,1,0.3,1.6c0,0.6-0.1,1.1-0.3,1.6c-0.2,0.5-0.5,0.9-0.9,1.3
			c-0.4,0.4-0.8,0.7-1.3,0.9s-1,0.3-1.6,0.3s-1.1-0.1-1.6-0.3c-0.5-0.2-0.9-0.5-1.3-0.9c-0.4-0.4-0.7-0.8-0.9-1.3
			c-0.2-0.5-0.3-1-0.3-1.6V2273.9z M644.3,2297.1c0.5,0,1-0.2,1.3-0.6s0.5-0.8,0.5-1.4c0-0.5-0.2-1-0.5-1.3
			c-0.4-0.4-0.8-0.5-1.3-0.5c-0.5,0-1,0.2-1.3,0.5c-0.3,0.4-0.5,0.8-0.5,1.3c0,0.5,0.2,1,0.5,1.4S643.8,2297.1,644.3,2297.1z"/>
		<path class="st1" d="M669.7,2299v-15.7c0-1.1-0.2-2.1-0.5-3.1s-0.8-1.7-1.4-2.4c-0.6-0.7-1.4-1.2-2.3-1.5c-0.9-0.4-2-0.5-3.3-0.5
			s-2.4,0.2-3.3,0.5c-0.9,0.4-1.7,0.9-2.3,1.5c-0.6,0.7-1.1,1.5-1.4,2.4s-0.5,2-0.5,3.1v12.8l6.8-7c-0.4,0-0.8-0.1-1.1-0.3
			c-0.4-0.2-0.7-0.4-1-0.7c-0.3-0.3-0.5-0.7-0.7-1.1c-0.2-0.4-0.3-0.9-0.3-1.4c0-0.6,0.1-1.1,0.3-1.6s0.5-0.9,0.8-1.3
			c0.3-0.4,0.8-0.6,1.3-0.8c0.5-0.2,1-0.3,1.6-0.3s1.1,0.1,1.6,0.3c0.5,0.2,0.9,0.5,1.3,0.9c0.3,0.4,0.6,0.8,0.8,1.3
			c0.2,0.5,0.3,1,0.3,1.6c0,0.5-0.1,1-0.3,1.6c-0.2,0.5-0.5,1-0.9,1.3l-10,10.5h-2.8v-15.6c0-1.5,0.2-2.9,0.7-4.1
			c0.4-1.2,1.1-2.2,2-3.1c0.9-0.9,1.9-1.5,3.1-2c1.2-0.5,2.6-0.7,4.2-0.7c1.6,0,3,0.2,4.2,0.7c1.2,0.5,2.3,1.1,3.1,2
			c0.9,0.9,1.5,1.9,2,3.1c0.5,1.2,0.7,2.6,0.7,4.1v15.6H669.7z M662.3,2287.3c0.5,0,1-0.2,1.3-0.5c0.4-0.4,0.5-0.8,0.5-1.3
			c0-0.5-0.2-1-0.5-1.3c-0.4-0.4-0.8-0.5-1.3-0.5s-1,0.2-1.4,0.5c-0.4,0.4-0.5,0.8-0.5,1.3c0,0.5,0.2,1,0.5,1.3
			C661.3,2287.1,661.8,2287.3,662.3,2287.3z"/>
		<path class="st1" d="M670.2,2268.8c-1.7-0.6-3.3-1.1-4.8-1.5c-1.5-0.4-2.9-0.7-4.2-0.9c-1.3-0.2-2.5-0.4-3.6-0.5
			c-1.1-0.1-2.1-0.1-3.1-0.1c-0.5,0-0.8,0-1.2,0c-0.3,0-0.6,0-0.8,0c-0.2,0-0.4,0-0.6,0c-0.2,0-0.4,0-0.6,0.1c0.4-1.1,1-2.2,1.6-3.1
			c0.7-0.9,1.4-1.7,2.3-2.3c0.9-0.6,1.8-1.1,2.9-1.4c1.1-0.3,2.2-0.5,3.4-0.5c1.5,0,2.8,0.3,4.1,0.8c1.2,0.5,2.3,1.3,3.2,2.2
			c0.9,1,1.6,2.1,2.2,3.4c0.6,1.3,0.9,2.8,1,4.4L670.2,2268.8z M669.6,2266.4c-0.9-1.9-1.9-3.3-3.2-4.2c-1.3-0.9-2.8-1.4-4.8-1.4
			c-0.7,0-1.5,0.1-2.2,0.2c-0.7,0.1-1.3,0.3-1.9,0.6c-0.6,0.3-1.1,0.6-1.6,1c-0.5,0.4-0.9,0.8-1.2,1.3c1.3,0,2.6,0,3.8,0.1
			c1.2,0.1,2.4,0.2,3.6,0.4c1.2,0.2,2.4,0.5,3.6,0.8C666.9,2265.5,668.2,2265.9,669.6,2266.4z"/>
		<path class="st1" d="M693.6,2295l-8.7,4h-2.7v-17.5c-0.2,0.1-0.5,0.2-0.7,0.2c-0.3,0-0.5,0-0.8,0c-0.6,0-1.1-0.1-1.6-0.3
			c-0.5-0.2-0.9-0.5-1.3-0.9c-0.4-0.4-0.7-0.8-0.9-1.3c-0.2-0.5-0.3-1-0.3-1.6c0-0.6,0.1-1.1,0.3-1.6c0.2-0.5,0.5-0.9,0.9-1.3
			c0.4-0.4,0.8-0.7,1.3-0.9c0.5-0.2,1-0.3,1.6-0.3c0.6,0,1.1,0.1,1.6,0.3c0.5,0.2,0.9,0.5,1.3,0.9c0.4,0.4,0.7,0.8,0.9,1.3
			c0.2,0.5,0.3,1,0.3,1.6v19l11.5-5.1v-17.7h2.5v17.9c0.8,0.3,1.4,0.8,1.9,1.4c0.5,0.7,0.7,1.4,0.7,2.3c0,0.6-0.1,1.1-0.3,1.6
			c-0.2,0.5-0.5,0.9-0.8,1.2c-0.3,0.4-0.8,0.6-1.2,0.8c-0.5,0.2-1,0.3-1.5,0.3c-0.6,0-1.1-0.1-1.5-0.3c-0.5-0.2-0.9-0.4-1.2-0.8
			c-0.3-0.3-0.6-0.7-0.8-1.2c-0.2-0.5-0.3-1-0.3-1.5V2295z M680.7,2279.6c0.5,0,1-0.2,1.3-0.6s0.5-0.8,0.5-1.4c0-0.5-0.2-1-0.5-1.4
			s-0.8-0.5-1.3-0.5c-0.5,0-1,0.2-1.4,0.5c-0.4,0.4-0.5,0.8-0.5,1.4c0,0.5,0.2,1,0.5,1.4C679.7,2279.4,680.1,2279.6,680.7,2279.6z
			 M697.5,2297.2c0.5,0,0.9-0.2,1.2-0.5c0.3-0.3,0.5-0.7,0.5-1.2c0-0.5-0.2-0.9-0.5-1.2c-0.3-0.3-0.7-0.5-1.2-0.5
			c-0.5,0-0.9,0.2-1.2,0.5c-0.3,0.3-0.5,0.7-0.5,1.2c0,0.5,0.2,0.9,0.5,1.2C696.6,2297,697,2297.2,697.5,2297.2z"/>
		<path class="st1" d="M723.3,2299v-20.5c0-0.8-0.2-1.4-0.7-1.9c-0.4-0.5-1.1-0.7-1.8-0.7c-0.6,0-1.1,0.2-1.5,0.5
			c-0.4,0.3-0.7,0.7-0.9,1.3l-7.1,21.4H709v-17.5c-0.2,0.1-0.5,0.2-0.7,0.2c-0.3,0-0.5,0-0.8,0c-0.6,0-1.1-0.1-1.6-0.3
			c-0.5-0.2-0.9-0.5-1.3-0.9c-0.4-0.4-0.7-0.8-0.9-1.3c-0.2-0.5-0.3-1-0.3-1.6c0-0.6,0.1-1.1,0.3-1.6c0.2-0.5,0.5-0.9,0.9-1.3
			c0.4-0.4,0.8-0.7,1.3-0.9c0.5-0.2,1-0.3,1.6-0.3c0.6,0,1.1,0.1,1.6,0.3c0.5,0.2,0.9,0.5,1.3,0.9c0.4,0.4,0.7,0.8,0.9,1.3
			c0.2,0.5,0.3,1,0.3,1.6v14.4c0.8-2.4,1.5-4.9,2.4-7.3c0.8-2.4,1.6-4.9,2.4-7.3c0.4-1.4,1-2.3,1.7-2.9c0.7-0.6,1.7-0.9,2.9-0.9
			c0.7,0,1.4,0.1,2.1,0.4c0.6,0.2,1.2,0.6,1.6,1c0.4,0.4,0.8,0.9,1,1.5c0.2,0.6,0.4,1.3,0.4,2v20.5H723.3z M707.4,2279.6
			c0.5,0,1-0.2,1.3-0.6s0.5-0.8,0.5-1.4c0-0.5-0.2-1-0.5-1.4s-0.8-0.5-1.3-0.5c-0.5,0-1,0.2-1.4,0.5c-0.4,0.4-0.5,0.8-0.5,1.4
			c0,0.5,0.2,1,0.5,1.4C706.4,2279.4,706.9,2279.6,707.4,2279.6z"/>
		<path class="st1" d="M744.5,2299v-17.2c0-0.8-0.1-1.6-0.3-2.3c-0.2-0.7-0.5-1.4-1-1.9c-0.5-0.5-1-1-1.8-1.3
			c-0.7-0.3-1.6-0.5-2.6-0.5c-0.9,0-1.8,0.1-2.4,0.4c-0.7,0.3-1.2,0.6-1.7,1.1c-0.5,0.5-0.8,1-1.1,1.6c-0.3,0.6-0.4,1.3-0.5,2h-2.5
			c0.1-1.1,0.3-2.1,0.7-3c0.4-0.9,0.9-1.7,1.6-2.3c0.7-0.7,1.5-1.2,2.5-1.5c1-0.4,2.1-0.5,3.5-0.5c1.4,0,2.7,0.2,3.7,0.6
			c1,0.4,1.9,1,2.5,1.7c0.7,0.7,1.1,1.6,1.5,2.6c0.3,1,0.5,2.1,0.5,3.3v17.2H744.5z"/>
		<path class="st1" d="M763.4,2299l-11.8-13.1l1.7-1.7l10.5,11.5v-14.3c-0.2,0.1-0.5,0.2-0.7,0.2c-0.3,0-0.5,0-0.8,0
			c-0.6,0-1.1-0.1-1.6-0.3c-0.5-0.2-0.9-0.5-1.3-0.9c-0.4-0.4-0.7-0.8-0.9-1.3c-0.2-0.5-0.3-1-0.3-1.6c0-0.6,0.1-1.1,0.3-1.6
			c0.2-0.5,0.5-0.9,0.9-1.3c0.4-0.4,0.8-0.7,1.3-0.9c0.5-0.2,1-0.3,1.6-0.3c0.6,0,1.1,0.1,1.6,0.3c0.5,0.2,0.9,0.5,1.3,0.9
			c0.4,0.4,0.7,0.8,0.9,1.3c0.2,0.5,0.3,1,0.3,1.6v21.4H763.4z M762.2,2279.6c0.5,0,1-0.2,1.3-0.6c0.3-0.4,0.5-0.8,0.5-1.4
			c0-0.5-0.2-1-0.5-1.4c-0.4-0.4-0.8-0.5-1.3-0.5s-1,0.2-1.4,0.5c-0.4,0.4-0.5,0.8-0.5,1.4c0,0.5,0.2,1,0.5,1.4
			C761.2,2279.4,761.7,2279.6,762.2,2279.6z"/>
	</g>
	<g class="st0">
		<path class="st1" d="M151.3,2342.2l-3.4,4.3h-1.8l-4.6-8.2h2.5l3.2,5.9l4.5-5.9h2.1v33c0.2-0.1,0.5-0.2,0.7-0.2c0.3,0,0.5,0,0.8,0
			c0.6,0,1.1,0.1,1.6,0.3c0.5,0.2,0.9,0.5,1.3,0.9c0.4,0.4,0.7,0.8,0.9,1.3c0.2,0.5,0.3,1,0.3,1.6c0,0.6-0.1,1.1-0.3,1.6
			c-0.2,0.5-0.5,0.9-0.9,1.3c-0.4,0.4-0.8,0.7-1.3,0.9c-0.5,0.2-1,0.3-1.6,0.3s-1.1-0.1-1.6-0.3s-0.9-0.5-1.3-0.9
			c-0.4-0.4-0.7-0.8-0.9-1.3c-0.2-0.5-0.3-1-0.3-1.6V2342.2z M155.4,2377.1c0.5,0,1-0.2,1.4-0.6s0.5-0.8,0.5-1.4
			c0-0.5-0.2-1-0.5-1.3c-0.4-0.4-0.8-0.5-1.4-0.5c-0.6,0-1,0.2-1.4,0.5c-0.4,0.4-0.5,0.8-0.5,1.3c0,0.5,0.2,1,0.5,1.4
			C154.4,2376.9,154.8,2377.1,155.4,2377.1z"/>
		<path class="st1" d="M166.9,2379v-17.5c-0.2,0.1-0.5,0.2-0.7,0.2c-0.3,0-0.5,0-0.8,0c-0.6,0-1.1-0.1-1.6-0.3
			c-0.5-0.2-0.9-0.5-1.3-0.9c-0.4-0.4-0.7-0.8-0.9-1.3c-0.2-0.5-0.3-1-0.3-1.6c0-0.6,0.1-1.1,0.3-1.6c0.2-0.5,0.5-0.9,0.9-1.3
			c0.4-0.4,0.8-0.7,1.3-0.9c0.5-0.2,1-0.3,1.6-0.3c0.6,0,1.1,0.1,1.6,0.3c0.5,0.2,0.9,0.5,1.3,0.9c0.4,0.4,0.7,0.8,0.9,1.3
			c0.2,0.5,0.3,1,0.3,1.6v19.1h11.8v-34.9h2.5v37.2H166.9z M165.3,2359.5c0.5,0,1-0.2,1.3-0.5c0.3-0.4,0.5-0.8,0.5-1.4
			s-0.2-1-0.5-1.3c-0.3-0.4-0.8-0.5-1.3-0.5c-0.5,0-1,0.2-1.4,0.5c-0.4,0.4-0.5,0.8-0.5,1.3s0.2,1,0.5,1.4
			C164.3,2359.4,164.8,2359.5,165.3,2359.5z"/>
		<path class="st1" d="M195.5,2342.2l-3.4,4.3h-1.8l-4.6-8.2h2.5l3.2,5.9l4.5-5.9h2.1v33c0.2-0.1,0.5-0.2,0.7-0.2c0.3,0,0.5,0,0.8,0
			c0.6,0,1.1,0.1,1.6,0.3c0.5,0.2,0.9,0.5,1.3,0.9c0.4,0.4,0.7,0.8,0.9,1.3c0.2,0.5,0.3,1,0.3,1.6c0,0.6-0.1,1.1-0.3,1.6
			c-0.2,0.5-0.5,0.9-0.9,1.3c-0.4,0.4-0.8,0.7-1.3,0.9c-0.5,0.2-1,0.3-1.6,0.3s-1.1-0.1-1.6-0.3s-0.9-0.5-1.3-0.9
			c-0.4-0.4-0.7-0.8-0.9-1.3c-0.2-0.5-0.3-1-0.3-1.6V2342.2z M199.6,2377.1c0.5,0,1-0.2,1.4-0.6s0.5-0.8,0.5-1.4
			c0-0.5-0.2-1-0.5-1.3c-0.4-0.4-0.8-0.5-1.4-0.5c-0.6,0-1,0.2-1.4,0.5c-0.4,0.4-0.5,0.8-0.5,1.3c0,0.5,0.2,1,0.5,1.4
			C198.6,2376.9,199.1,2377.1,199.6,2377.1z"/>
		<path class="st1" d="M225,2379v-15.7c0-1.1-0.2-2.1-0.5-3.1c-0.3-0.9-0.8-1.7-1.4-2.4c-0.6-0.7-1.4-1.2-2.3-1.5
			c-0.9-0.4-2-0.5-3.3-0.5s-2.4,0.2-3.3,0.5c-0.9,0.4-1.7,0.9-2.3,1.5c-0.6,0.7-1.1,1.5-1.4,2.4c-0.3,0.9-0.5,2-0.5,3.1v12.8l6.8-7
			c-0.4,0-0.8-0.1-1.1-0.3c-0.4-0.2-0.7-0.4-1-0.7c-0.3-0.3-0.5-0.7-0.7-1.1c-0.2-0.4-0.3-0.9-0.3-1.4c0-0.6,0.1-1.1,0.3-1.6
			s0.5-0.9,0.8-1.3c0.3-0.4,0.8-0.6,1.3-0.8c0.5-0.2,1-0.3,1.6-0.3c0.6,0,1.1,0.1,1.6,0.3c0.5,0.2,0.9,0.5,1.3,0.9
			c0.3,0.4,0.6,0.8,0.8,1.3c0.2,0.5,0.3,1,0.3,1.6c0,0.5-0.1,1-0.3,1.6c-0.2,0.5-0.5,1-0.9,1.3l-10,10.5h-2.8v-15.6
			c0-1.5,0.2-2.9,0.7-4.1c0.4-1.2,1.1-2.2,2-3.1c0.9-0.9,1.9-1.5,3.1-2c1.2-0.5,2.6-0.7,4.2-0.7c1.6,0,3,0.2,4.2,0.7
			c1.2,0.5,2.3,1.1,3.1,2c0.9,0.9,1.5,1.9,2,3.1c0.5,1.2,0.7,2.6,0.7,4.1v15.6H225z M217.6,2367.3c0.5,0,1-0.2,1.3-0.5
			c0.4-0.4,0.5-0.8,0.5-1.3c0-0.5-0.2-1-0.5-1.3c-0.4-0.4-0.8-0.5-1.3-0.5s-1,0.2-1.4,0.5c-0.4,0.4-0.5,0.8-0.5,1.3
			c0,0.5,0.2,1,0.5,1.3C216.6,2367.1,217.1,2367.3,217.6,2367.3z"/>
		<path class="st1" d="M230.7,2338.1c0,1.7-0.4,3.3-1.1,4.6c-0.7,1.3-1.7,2.5-2.9,3.4c-1.2,0.9-2.6,1.6-4.2,2.1
			c-1.6,0.5-3.3,0.7-5,0.7c-0.4,0-0.7,0-0.9,0c-0.3,0-0.5,0-0.6,0v-1.6c0.5-0.2,0.9-0.6,1.3-1s0.6-0.8,0.8-1.3c-0.1,0-0.3,0-0.4,0
			c-0.1,0-0.3,0-0.4,0c-0.6,0-1.2-0.1-1.6-0.3c-0.5-0.2-0.8-0.4-1.1-0.8c-0.3-0.3-0.5-0.7-0.7-1.1c-0.1-0.4-0.2-0.9-0.2-1.4
			c0-0.5,0.1-1,0.3-1.5c0.2-0.4,0.5-0.8,0.8-1.2c0.3-0.3,0.7-0.6,1.2-0.8c0.5-0.2,0.9-0.3,1.5-0.3c0.6,0,1.2,0.1,1.7,0.3
			c0.5,0.2,0.9,0.5,1.2,0.9c0.3,0.4,0.6,0.8,0.7,1.3c0.2,0.5,0.2,1.1,0.2,1.7c0,1-0.2,2-0.7,2.8c-0.5,0.9-1,1.6-1.7,2.2
			c1.4-0.1,2.6-0.3,3.8-0.8c1.2-0.4,2.2-1,3.1-1.8c0.9-0.8,1.6-1.7,2.1-2.7c0.5-1.1,0.8-2.3,0.8-3.6H230.7z M219,2341.5
			c0-0.5-0.2-1-0.5-1.3s-0.8-0.5-1.3-0.5c-0.5,0-1,0.2-1.3,0.5s-0.5,0.8-0.5,1.3c0,0.6,0.2,1,0.5,1.3c0.3,0.3,0.8,0.5,1.3,0.5
			c0.6,0,1-0.2,1.3-0.5S219,2342,219,2341.5z"/>
		<path class="st1" d="M243.9,2379l-11.8-13.1l1.7-1.7l10.5,11.5v-14.3c-0.2,0.1-0.5,0.2-0.7,0.2s-0.5,0-0.8,0
			c-0.6,0-1.1-0.1-1.6-0.3c-0.5-0.2-0.9-0.5-1.3-0.9c-0.4-0.4-0.7-0.8-0.9-1.3c-0.2-0.5-0.3-1-0.3-1.6c0-0.6,0.1-1.1,0.3-1.6
			c0.2-0.5,0.5-0.9,0.9-1.3c0.4-0.4,0.8-0.7,1.3-0.9c0.5-0.2,1-0.3,1.6-0.3s1.1,0.1,1.6,0.3c0.5,0.2,0.9,0.5,1.3,0.9
			c0.4,0.4,0.7,0.8,0.9,1.3c0.2,0.5,0.3,1,0.3,1.6v21.4H243.9z M242.7,2359.6c0.5,0,1-0.2,1.3-0.6c0.3-0.4,0.5-0.8,0.5-1.4
			c0-0.5-0.2-1-0.5-1.4c-0.4-0.4-0.8-0.5-1.3-0.5s-1,0.2-1.4,0.5s-0.5,0.8-0.5,1.4c0,0.5,0.2,1,0.5,1.4S242.2,2359.6,242.7,2359.6z"
			/>
		<path class="st1" d="M244.2,2348.8v-9h2.6v9H244.2z"/>
		<path class="st1" d="M265.5,2379v-17.2c0-0.8-0.1-1.6-0.3-2.3c-0.2-0.7-0.5-1.4-1-1.9c-0.5-0.5-1-1-1.8-1.3
			c-0.7-0.3-1.6-0.5-2.6-0.5c-0.9,0-1.8,0.1-2.4,0.4c-0.7,0.3-1.2,0.6-1.7,1.1c-0.5,0.5-0.8,1-1.1,1.6c-0.3,0.6-0.4,1.3-0.5,2h-2.5
			c0.1-1.1,0.3-2.1,0.7-3c0.4-0.9,0.9-1.7,1.6-2.3c0.7-0.7,1.5-1.2,2.5-1.5c1-0.4,2.1-0.5,3.5-0.5c1.4,0,2.7,0.2,3.7,0.6
			c1,0.4,1.9,1,2.5,1.7c0.7,0.7,1.1,1.6,1.5,2.6c0.3,1,0.5,2.1,0.5,3.3v17.2H265.5z"/>
		<path class="st1" d="M274.9,2379v-7.6c0-2.8,1.1-4.5,3.2-5.3c-1.5-0.4-2.7-1.1-3.5-2.2c-0.8-1.1-1.2-2.4-1.2-4
			c0-0.9,0.2-1.8,0.5-2.5c0.3-0.8,0.8-1.4,1.4-2c0.6-0.6,1.3-1,2.1-1.3c0.8-0.3,1.7-0.5,2.6-0.5c1.3,0,2.4,0.3,3.1,1
			c0.8,0.7,1.2,1.6,1.2,2.7c0,0.6-0.1,1.1-0.3,1.6c-0.2,0.5-0.4,0.9-0.8,1.2c-0.3,0.4-0.7,0.6-1.2,0.8c-0.5,0.2-1,0.3-1.7,0.3
			c-1,0-1.8-0.3-2.5-0.8c-0.7-0.5-1.2-1.3-1.4-2.4c-0.2,0.3-0.3,0.6-0.3,1c-0.1,0.3-0.1,0.7-0.1,1.1c0,0.7,0.1,1.3,0.3,1.9
			c0.2,0.5,0.5,1,0.9,1.4c0.4,0.4,1,0.7,1.7,0.9c0.7,0.2,1.6,0.3,2.6,0.3h2.4v2.5h-2.7c-1.2,0-2.1,0.3-2.8,1
			c-0.6,0.7-0.9,1.8-0.9,3.3v5.3h12.2v-22.9h2.5v25.2H274.9z M282.1,2357.4c0-0.5-0.2-0.9-0.5-1.3c-0.4-0.4-0.8-0.6-1.3-0.6
			c-0.6,0-1,0.2-1.4,0.5c-0.3,0.3-0.5,0.8-0.5,1.4c0,0.5,0.2,1,0.5,1.3c0.3,0.3,0.8,0.5,1.3,0.5c0.5,0,0.9-0.2,1.3-0.5
			C281.9,2358.4,282.1,2358,282.1,2357.4z"/>
		<path class="st1" d="M316.7,2344.3c0-1.3-0.3-2.3-1-3c-0.7-0.7-1.7-1.1-3-1.1c-0.7,0-1.4,0.2-2,0.7c-0.6,0.5-1,1.1-1.2,2
			c0.2-0.2,0.5-0.4,0.9-0.6c0.3-0.2,0.7-0.2,1.2-0.2c0.6,0,1.1,0.1,1.6,0.3s0.9,0.5,1.2,0.8c0.3,0.3,0.6,0.7,0.8,1.2
			c0.2,0.5,0.3,0.9,0.3,1.5c0,1.1-0.3,2-1,2.6c-0.7,0.7-1.6,1-2.8,1c-0.7,0-1.4-0.1-1.9-0.4c-0.6-0.3-1-0.7-1.4-1.2
			s-0.7-1.1-0.9-1.7c-0.2-0.7-0.3-1.3-0.3-2.1c0-0.8,0.2-1.6,0.5-2.4c0.3-0.7,0.7-1.3,1.3-1.9c0.5-0.5,1.2-0.9,1.9-1.2
			c0.8-0.3,1.6-0.5,2.4-0.5c0.9,0,1.8,0.2,2.5,0.5c0.7,0.3,1.4,0.7,1.9,1.3s0.9,1.2,1.2,1.9c0.3,0.7,0.4,1.5,0.4,2.4v27.2
			c0.2-0.1,0.5-0.2,0.7-0.2c0.3,0,0.5,0,0.8,0c0.6,0,1.1,0.1,1.6,0.3c0.5,0.2,0.9,0.5,1.3,0.9c0.4,0.4,0.7,0.8,0.9,1.3
			c0.2,0.5,0.3,1,0.3,1.6c0,0.6-0.1,1.1-0.3,1.6c-0.2,0.5-0.5,0.9-0.9,1.3c-0.4,0.4-0.8,0.7-1.3,0.9c-0.5,0.2-1,0.3-1.6,0.3
			c-0.6,0-1.1-0.1-1.6-0.3c-0.5-0.2-0.9-0.5-1.3-0.9c-0.4-0.4-0.7-0.8-0.9-1.3c-0.2-0.5-0.3-1-0.3-1.6V2344.3z M311.7,2347.6
			c0.5,0,0.9-0.2,1.2-0.5c0.3-0.4,0.5-0.8,0.5-1.3c0-0.5-0.1-0.9-0.4-1.2c-0.3-0.4-0.7-0.5-1.3-0.5c-0.5,0-0.9,0.2-1.2,0.5
			c-0.3,0.4-0.4,0.8-0.4,1.2c0,0.5,0.1,0.9,0.4,1.3C310.8,2347.4,311.2,2347.6,311.7,2347.6z M322.7,2375.2c0-0.5-0.2-1-0.6-1.3
			c-0.4-0.4-0.8-0.5-1.4-0.5s-1,0.2-1.3,0.5c-0.4,0.4-0.5,0.8-0.5,1.3c0,0.5,0.2,1,0.5,1.4c0.4,0.4,0.8,0.6,1.3,0.6s1-0.2,1.4-0.6
			S322.7,2375.7,322.7,2375.2z"/>
		<path class="st1" d="M336.2,2379v-19.9c0-1.2-0.3-2.1-0.8-2.7c-0.5-0.6-1.4-0.9-2.6-0.9c-0.8,0-1.4,0.2-1.9,0.5
			c-0.5,0.3-0.8,0.8-1,1.4c0.1,0,0.2-0.1,0.5-0.1c0.2,0,0.4,0,0.6,0c0.6,0,1.2,0.1,1.6,0.3c0.5,0.2,0.9,0.5,1.2,0.8
			c0.3,0.3,0.6,0.7,0.7,1.2c0.2,0.5,0.2,0.9,0.2,1.5c0,0.6-0.1,1.1-0.3,1.5c-0.2,0.5-0.4,0.9-0.8,1.2c-0.3,0.3-0.7,0.6-1.2,0.8
			c-0.5,0.2-1,0.3-1.5,0.3c-0.6,0-1.2-0.1-1.7-0.4c-0.5-0.2-0.9-0.6-1.3-1c-0.4-0.4-0.6-0.9-0.8-1.5c-0.2-0.6-0.3-1.2-0.3-1.9
			c0-0.9,0.1-1.8,0.4-2.6c0.3-0.8,0.7-1.5,1.2-2.1c0.5-0.6,1.2-1,1.9-1.3c0.7-0.3,1.6-0.5,2.5-0.5c0.8,0,1.6,0.1,2.3,0.4
			c0.7,0.2,1.3,0.6,1.8,1.1c0.5,0.5,0.9,1,1.2,1.7c0.3,0.7,0.4,1.5,0.4,2.4v17.6h5.3v-13.5c0-0.7-0.1-1.3-0.2-1.8
			c-0.1-0.5-0.3-1-0.6-1.3c-0.3-0.4-0.6-0.7-1-1c-0.4-0.3-0.9-0.5-1.4-0.8l6.6-7.2l1.8,1.6l-4.9,5.3c0.7,0.5,1.3,1.2,1.7,1.9
			c0.4,0.8,0.6,1.8,0.6,3v16H336.2z M331,2362.9c0.5,0,0.9-0.2,1.2-0.5c0.3-0.4,0.5-0.8,0.5-1.3c0-0.5-0.2-1-0.5-1.3
			c-0.3-0.3-0.7-0.5-1.3-0.5c-0.6,0-1,0.2-1.3,0.5s-0.5,0.8-0.5,1.3c0,0.5,0.2,1,0.5,1.3C330,2362.7,330.4,2362.9,331,2362.9z"/>
		<path class="st1" d="M349.7,2338.1c0,1.7-0.4,3.3-1.1,4.6c-0.7,1.3-1.7,2.5-2.9,3.4c-1.2,0.9-2.6,1.6-4.2,2.1
			c-1.6,0.5-3.3,0.7-5,0.7c-0.4,0-0.7,0-0.9,0c-0.3,0-0.5,0-0.6,0v-1.6c0.5-0.2,0.9-0.6,1.3-1s0.6-0.8,0.8-1.3c-0.1,0-0.3,0-0.4,0
			c-0.1,0-0.3,0-0.4,0c-0.6,0-1.2-0.1-1.6-0.3c-0.5-0.2-0.8-0.4-1.1-0.8c-0.3-0.3-0.5-0.7-0.7-1.1c-0.1-0.4-0.2-0.9-0.2-1.4
			c0-0.5,0.1-1,0.3-1.5c0.2-0.4,0.5-0.8,0.8-1.2c0.3-0.3,0.7-0.6,1.2-0.8c0.5-0.2,0.9-0.3,1.5-0.3c0.6,0,1.2,0.1,1.7,0.3
			c0.5,0.2,0.9,0.5,1.2,0.9c0.3,0.4,0.6,0.8,0.7,1.3c0.2,0.5,0.2,1.1,0.2,1.7c0,1-0.2,2-0.7,2.8c-0.5,0.9-1,1.6-1.7,2.2
			c1.4-0.1,2.6-0.3,3.8-0.8c1.2-0.4,2.2-1,3.1-1.8c0.9-0.8,1.6-1.7,2.1-2.7c0.5-1.1,0.8-2.3,0.8-3.6H349.7z M338,2341.5
			c0-0.5-0.2-1-0.5-1.3s-0.8-0.5-1.3-0.5c-0.5,0-1,0.2-1.3,0.5s-0.5,0.8-0.5,1.3c0,0.6,0.2,1,0.5,1.3c0.3,0.3,0.8,0.5,1.3,0.5
			c0.6,0,1-0.2,1.3-0.5S338,2342,338,2341.5z"/>
		<path class="st1" d="M353.8,2353.9h2.5v17.5c0.2-0.1,0.5-0.2,0.7-0.2c0.3,0,0.5,0,0.8,0c0.6,0,1.1,0.1,1.6,0.3
			c0.5,0.2,0.9,0.5,1.3,0.9c0.4,0.4,0.7,0.8,0.9,1.3c0.2,0.5,0.3,1,0.3,1.6c0,0.6-0.1,1.1-0.3,1.6c-0.2,0.5-0.5,0.9-0.9,1.3
			c-0.4,0.4-0.8,0.7-1.3,0.9c-0.5,0.2-1,0.3-1.6,0.3c-0.6,0-1.1-0.1-1.6-0.3c-0.5-0.2-0.9-0.5-1.3-0.9c-0.4-0.4-0.7-0.8-0.9-1.3
			c-0.2-0.5-0.3-1-0.3-1.6V2353.9z M357.9,2377.1c0.5,0,1-0.2,1.3-0.6s0.5-0.8,0.5-1.4c0-0.5-0.2-1-0.5-1.3
			c-0.4-0.4-0.8-0.5-1.3-0.5s-1,0.2-1.3,0.5c-0.3,0.4-0.5,0.8-0.5,1.3c0,0.5,0.2,1,0.5,1.4C357,2376.9,357.4,2377.1,357.9,2377.1z"
			/>
		<path class="st1" d="M378.2,2361.3c0-0.8-0.1-1.6-0.4-2.3c-0.3-0.7-0.6-1.3-1.1-1.8c-0.5-0.5-1.1-0.9-1.9-1.1
			c-0.7-0.3-1.6-0.4-2.6-0.4c-1,0-1.8,0.2-2.6,0.5c-0.7,0.3-1.4,0.8-1.9,1.3c-0.5,0.6-0.9,1.2-1.2,2c-0.3,0.8-0.4,1.6-0.4,2.5h-2.5
			c0-1.2,0.2-2.3,0.6-3.3c0.4-1,0.9-1.9,1.7-2.7c0.7-0.8,1.6-1.4,2.7-1.8s2.2-0.7,3.6-0.7c1.4,0,2.7,0.2,3.7,0.5
			c1.1,0.4,1.9,0.9,2.7,1.5c0.7,0.7,1.3,1.5,1.6,2.4c0.4,1,0.5,2,0.5,3.2v13.9c0,0.6-0.1,1.1-0.3,1.6c-0.2,0.5-0.5,0.9-0.9,1.3
			c-0.4,0.4-0.8,0.7-1.3,0.9c-0.5,0.2-1,0.3-1.6,0.3s-1.1-0.1-1.6-0.3c-0.5-0.2-0.9-0.5-1.3-0.9c-0.4-0.4-0.7-0.8-0.9-1.3
			c-0.2-0.5-0.3-1-0.3-1.6c0-0.6,0.1-1.1,0.3-1.6c0.2-0.5,0.5-0.9,0.9-1.3c0.4-0.4,0.8-0.7,1.3-0.9c0.5-0.2,1-0.3,1.6-0.3
			c0.3,0,0.6,0,0.8,0c0.3,0,0.5,0.1,0.8,0.2V2361.3z M376.6,2377.1c0.5,0,1-0.2,1.4-0.6c0.4-0.4,0.5-0.8,0.5-1.4
			c0-0.5-0.2-1-0.5-1.3c-0.4-0.4-0.8-0.5-1.4-0.5s-1,0.2-1.4,0.5c-0.4,0.4-0.6,0.8-0.6,1.3c0,0.5,0.2,1,0.6,1.4
			S376,2377.1,376.6,2377.1z"/>
		<path class="st1" d="M403.1,2379v-9.9c0-0.7-0.1-1.3-0.4-1.9c-0.3-0.6-0.7-1.1-1.3-1.6c-0.6-0.5-1.3-0.8-2.1-1.1
			c-0.8-0.3-1.8-0.4-2.9-0.4c-1,0-1.8,0.1-2.6,0.4c-0.7,0.3-1.4,0.6-1.9,1.1c-0.5,0.5-0.9,1-1.1,1.7c-0.3,0.7-0.4,1.4-0.4,2.2v1.9
			c0.2-0.1,0.5-0.2,0.7-0.2c0.2,0,0.5,0,0.8,0c0.6,0,1.1,0.1,1.6,0.3c0.5,0.2,0.9,0.5,1.3,0.9c0.4,0.4,0.7,0.8,0.9,1.3
			c0.2,0.5,0.3,1,0.3,1.6c0,0.6-0.1,1.1-0.3,1.6c-0.2,0.5-0.5,0.9-0.9,1.3c-0.4,0.4-0.8,0.7-1.3,0.9c-0.5,0.2-1,0.3-1.6,0.3
			c-0.6,0-1.1-0.1-1.6-0.3c-0.5-0.2-0.9-0.5-1.3-0.9c-0.4-0.4-0.6-0.8-0.8-1.3c-0.2-0.5-0.3-1-0.3-1.6v-5.8c0-1.1,0.2-2.1,0.6-3
			c0.4-0.9,1-1.7,1.8-2.4c0.8-0.7,1.7-1.2,2.7-1.6c1-0.4,2.2-0.6,3.5-0.6c1.5,0,2.8,0.2,3.9,0.7c1,0.4,2,1.1,2.8,1.9v-3.5
			c0-0.7-0.2-1.4-0.5-2c-0.3-0.6-0.8-1.2-1.3-1.6c-0.6-0.5-1.3-0.8-2.2-1.1c-0.9-0.3-1.8-0.4-3-0.4c-1.4,0-2.5,0.1-3.4,0.4
			s-1.7,0.7-2.3,1.2s-1,1-1.3,1.6c-0.3,0.6-0.5,1.2-0.6,1.9h-2.4c0-1,0.3-1.9,0.8-2.8c0.5-0.9,1.1-1.7,2-2.3
			c0.8-0.7,1.9-1.2,3.1-1.6c1.2-0.4,2.6-0.6,4.1-0.6c1.4,0,2.7,0.2,3.9,0.5c1.2,0.4,2.2,0.9,3,1.5s1.5,1.4,1.9,2.4
			c0.5,0.9,0.7,1.9,0.7,3.1v18H403.1z M391.9,2377.1c0.5,0,1-0.2,1.4-0.6s0.5-0.8,0.5-1.4c0-0.5-0.2-1-0.5-1.3
			c-0.4-0.4-0.8-0.5-1.4-0.5s-1,0.2-1.3,0.5c-0.4,0.4-0.5,0.8-0.5,1.3c0,0.5,0.2,1,0.5,1.4C390.9,2376.9,391.4,2377.1,391.9,2377.1z
			"/>
		<path class="st1" d="M424.3,2379v-17.2c0-0.8-0.1-1.6-0.3-2.3c-0.2-0.7-0.5-1.4-1-1.9c-0.5-0.5-1-1-1.8-1.3
			c-0.7-0.3-1.6-0.5-2.6-0.5c-0.9,0-1.8,0.1-2.4,0.4c-0.7,0.3-1.2,0.6-1.7,1.1c-0.5,0.5-0.8,1-1.1,1.6c-0.3,0.6-0.4,1.3-0.5,2h-2.5
			c0.1-1.1,0.3-2.1,0.7-3c0.4-0.9,0.9-1.7,1.6-2.3c0.7-0.7,1.5-1.2,2.5-1.5c1-0.4,2.1-0.5,3.5-0.5c1.4,0,2.7,0.2,3.7,0.6
			c1,0.4,1.9,1,2.5,1.7c0.7,0.7,1.1,1.6,1.5,2.6c0.3,1,0.5,2.1,0.5,3.3v17.2H424.3z"/>
		<path class="st1" d="M438.5,2344.3c0-1.3-0.3-2.3-1-3c-0.7-0.7-1.7-1.1-3-1.1c-0.7,0-1.4,0.2-2,0.7c-0.6,0.5-1,1.1-1.2,2
			c0.2-0.2,0.5-0.4,0.9-0.6c0.3-0.2,0.7-0.2,1.2-0.2c0.6,0,1.1,0.1,1.6,0.3s0.9,0.5,1.2,0.8c0.3,0.3,0.6,0.7,0.8,1.2
			c0.2,0.5,0.3,0.9,0.3,1.5c0,1.1-0.3,2-1,2.6c-0.7,0.7-1.6,1-2.8,1c-0.7,0-1.4-0.1-1.9-0.4c-0.6-0.3-1-0.7-1.4-1.2
			s-0.7-1.1-0.9-1.7c-0.2-0.7-0.3-1.3-0.3-2.1c0-0.8,0.2-1.6,0.5-2.4c0.3-0.7,0.7-1.3,1.3-1.9c0.5-0.5,1.2-0.9,1.9-1.2
			c0.8-0.3,1.6-0.5,2.4-0.5c0.9,0,1.8,0.2,2.5,0.5c0.7,0.3,1.4,0.7,1.9,1.3s0.9,1.2,1.2,1.9c0.3,0.7,0.4,1.5,0.4,2.4v27.2
			c0.2-0.1,0.5-0.2,0.7-0.2c0.3,0,0.5,0,0.8,0c0.6,0,1.1,0.1,1.6,0.3c0.5,0.2,0.9,0.5,1.3,0.9c0.4,0.4,0.7,0.8,0.9,1.3
			c0.2,0.5,0.3,1,0.3,1.6c0,0.6-0.1,1.1-0.3,1.6c-0.2,0.5-0.5,0.9-0.9,1.3c-0.4,0.4-0.8,0.7-1.3,0.9c-0.5,0.2-1,0.3-1.6,0.3
			c-0.6,0-1.1-0.1-1.6-0.3c-0.5-0.2-0.9-0.5-1.3-0.9c-0.4-0.4-0.7-0.8-0.9-1.3c-0.2-0.5-0.3-1-0.3-1.6V2344.3z M433.4,2347.6
			c0.5,0,0.9-0.2,1.2-0.5c0.3-0.4,0.5-0.8,0.5-1.3c0-0.5-0.1-0.9-0.4-1.2c-0.3-0.4-0.7-0.5-1.3-0.5c-0.5,0-0.9,0.2-1.2,0.5
			c-0.3,0.4-0.4,0.8-0.4,1.2c0,0.5,0.1,0.9,0.4,1.3C432.5,2347.4,432.9,2347.6,433.4,2347.6z M444.5,2375.2c0-0.5-0.2-1-0.6-1.3
			c-0.4-0.4-0.8-0.5-1.4-0.5s-1,0.2-1.3,0.5c-0.4,0.4-0.5,0.8-0.5,1.3c0,0.5,0.2,1,0.5,1.4c0.4,0.4,0.8,0.6,1.3,0.6s1-0.2,1.4-0.6
			S444.5,2375.7,444.5,2375.2z"/>
		<path class="st1" d="M465.4,2375l-8.7,4H454v-17.5c-0.2,0.1-0.5,0.2-0.7,0.2c-0.3,0-0.5,0-0.8,0c-0.6,0-1.1-0.1-1.6-0.3
			c-0.5-0.2-0.9-0.5-1.3-0.9c-0.4-0.4-0.7-0.8-0.9-1.3c-0.2-0.5-0.3-1-0.3-1.6c0-0.6,0.1-1.1,0.3-1.6c0.2-0.5,0.5-0.9,0.9-1.3
			c0.4-0.4,0.8-0.7,1.3-0.9c0.5-0.2,1-0.3,1.6-0.3c0.6,0,1.1,0.1,1.6,0.3c0.5,0.2,0.9,0.5,1.3,0.9c0.4,0.4,0.7,0.8,0.9,1.3
			c0.2,0.5,0.3,1,0.3,1.6v19l11.5-5.1v-17.7h2.5v17.9c0.8,0.3,1.4,0.8,1.9,1.4c0.5,0.7,0.7,1.4,0.7,2.3c0,0.6-0.1,1.1-0.3,1.6
			c-0.2,0.5-0.5,0.9-0.8,1.2c-0.3,0.4-0.8,0.6-1.2,0.8c-0.5,0.2-1,0.3-1.5,0.3c-0.6,0-1.1-0.1-1.5-0.3c-0.5-0.2-0.9-0.4-1.2-0.8
			c-0.3-0.3-0.6-0.7-0.8-1.2c-0.2-0.5-0.3-1-0.3-1.5V2375z M452.5,2359.6c0.5,0,1-0.2,1.3-0.6s0.5-0.8,0.5-1.4c0-0.5-0.2-1-0.5-1.4
			s-0.8-0.5-1.3-0.5c-0.5,0-1,0.2-1.4,0.5s-0.5,0.8-0.5,1.4c0,0.5,0.2,1,0.5,1.4S452,2359.6,452.5,2359.6z M469.3,2377.2
			c0.5,0,0.9-0.2,1.2-0.5c0.3-0.3,0.5-0.7,0.5-1.2c0-0.5-0.2-0.9-0.5-1.2c-0.3-0.3-0.7-0.5-1.2-0.5c-0.5,0-0.9,0.2-1.2,0.5
			c-0.3,0.3-0.5,0.7-0.5,1.2c0,0.5,0.2,0.9,0.5,1.2C468.4,2377,468.8,2377.2,469.3,2377.2z"/>
		<path class="st1" d="M493.5,2379v-16.1c0-1.1-0.2-2-0.6-2.9c-0.4-0.9-0.9-1.6-1.6-2.2c-0.7-0.6-1.5-1.1-2.4-1.4
			c-0.9-0.3-1.9-0.5-3-0.5c-1.7,0-3.1,0.4-4.4,1.2c-1.2,0.8-2.2,1.9-2.8,3.2l2.3,2.7v16.1h-2.5v-15.5l-2.5-2.9
			c0.3-1.1,0.7-2,1.3-2.9c0.6-0.9,1.3-1.6,2.2-2.2c0.9-0.6,1.8-1.1,2.9-1.4c1.1-0.3,2.3-0.5,3.6-0.5c1.5,0,2.9,0.2,4.2,0.7
			c1.3,0.5,2.3,1.1,3.2,2c0.9,0.8,1.6,1.8,2.1,3s0.7,2.5,0.7,3.9v15.9H493.5z"/>
		<path class="st1" d="M514.7,2379v-17.2c0-0.8-0.1-1.6-0.3-2.3c-0.2-0.7-0.5-1.4-1-1.9c-0.5-0.5-1-1-1.8-1.3
			c-0.7-0.3-1.6-0.5-2.6-0.5c-0.9,0-1.8,0.1-2.4,0.4c-0.7,0.3-1.2,0.6-1.7,1.1c-0.5,0.5-0.8,1-1.1,1.6c-0.3,0.6-0.4,1.3-0.5,2h-2.5
			c0.1-1.1,0.3-2.1,0.7-3c0.4-0.9,0.9-1.7,1.6-2.3c0.7-0.7,1.5-1.2,2.5-1.5c1-0.4,2.1-0.5,3.5-0.5c1.4,0,2.7,0.2,3.7,0.6
			c1,0.4,1.9,1,2.5,1.7c0.7,0.7,1.1,1.6,1.5,2.6c0.3,1,0.5,2.1,0.5,3.3v17.2H514.7z"/>
		<path class="st1" d="M531.8,2363.6h-9.9v-1.5c0-1.2,0.2-2.2,0.6-3.3c0.4-1,0.9-1.9,1.7-2.7s1.7-1.4,2.8-1.9
			c1.1-0.5,2.4-0.7,3.8-0.7c1.2,0,2.3,0.2,3.4,0.6c1,0.4,1.9,0.9,2.7,1.6c0.8,0.7,1.3,1.5,1.8,2.5c0.4,1,0.6,2,0.6,3.2h-2.5
			c0-0.8-0.1-1.6-0.4-2.3c-0.3-0.7-0.7-1.3-1.2-1.8c-0.5-0.5-1.2-0.9-1.9-1.2c-0.8-0.3-1.6-0.4-2.6-0.4c-0.9,0-1.8,0.1-2.5,0.4
			c-0.7,0.3-1.4,0.7-1.9,1.2c-0.5,0.5-0.9,1.1-1.2,1.8c-0.3,0.7-0.4,1.5-0.4,2.3h9.8v13.7c0,0.6-0.1,1.1-0.3,1.6
			c-0.2,0.5-0.5,0.9-0.9,1.3c-0.4,0.4-0.8,0.7-1.3,0.9s-1,0.3-1.6,0.3c-0.6,0-1.1-0.1-1.6-0.3s-0.9-0.5-1.3-0.9
			c-0.4-0.4-0.7-0.8-0.9-1.3c-0.2-0.5-0.3-1-0.3-1.6c0-0.6,0.1-1.1,0.3-1.6c0.2-0.5,0.5-0.9,0.9-1.3c0.4-0.4,0.8-0.7,1.3-0.9
			c0.5-0.2,1-0.3,1.6-0.3c0.6,0,1.1,0.1,1.5,0.2V2363.6z M530.3,2377.1c0.5,0,1-0.2,1.4-0.6c0.4-0.4,0.5-0.8,0.5-1.4
			c0-0.5-0.2-1-0.5-1.3c-0.4-0.4-0.8-0.5-1.4-0.5s-1,0.2-1.3,0.5c-0.3,0.4-0.5,0.8-0.5,1.3c0,0.5,0.2,1,0.5,1.4
			S529.7,2377.1,530.3,2377.1z"/>
		<path class="st1" d="M544.8,2353.9h2.5v17.5c0.2-0.1,0.5-0.2,0.7-0.2c0.3,0,0.5,0,0.8,0c0.6,0,1.1,0.1,1.6,0.3
			c0.5,0.2,0.9,0.5,1.3,0.9c0.4,0.4,0.7,0.8,0.9,1.3c0.2,0.5,0.3,1,0.3,1.6c0,0.6-0.1,1.1-0.3,1.6c-0.2,0.5-0.5,0.9-0.9,1.3
			c-0.4,0.4-0.8,0.7-1.3,0.9c-0.5,0.2-1,0.3-1.6,0.3c-0.6,0-1.1-0.1-1.6-0.3s-0.9-0.5-1.3-0.9c-0.4-0.4-0.7-0.8-0.9-1.3
			c-0.2-0.5-0.3-1-0.3-1.6V2353.9z M548.9,2377.1c0.5,0,1-0.2,1.3-0.6s0.5-0.8,0.5-1.4c0-0.5-0.2-1-0.5-1.3
			c-0.4-0.4-0.8-0.5-1.3-0.5c-0.5,0-1,0.2-1.3,0.5c-0.3,0.4-0.5,0.8-0.5,1.3c0,0.5,0.2,1,0.5,1.4
			C547.9,2376.9,548.4,2377.1,548.9,2377.1z"/>
		<path class="st1" d="M574.3,2379v-15.7c0-1.1-0.2-2.1-0.5-3.1c-0.3-0.9-0.8-1.7-1.4-2.4c-0.6-0.7-1.4-1.2-2.3-1.5
			c-0.9-0.4-2-0.5-3.3-0.5s-2.4,0.2-3.3,0.5c-0.9,0.4-1.7,0.9-2.3,1.5c-0.6,0.7-1.1,1.5-1.4,2.4c-0.3,0.9-0.5,2-0.5,3.1v12.8l6.8-7
			c-0.4,0-0.8-0.1-1.1-0.3c-0.4-0.2-0.7-0.4-1-0.7c-0.3-0.3-0.5-0.7-0.7-1.1c-0.2-0.4-0.3-0.9-0.3-1.4c0-0.6,0.1-1.1,0.3-1.6
			s0.5-0.9,0.8-1.3c0.3-0.4,0.8-0.6,1.3-0.8c0.5-0.2,1-0.3,1.6-0.3c0.6,0,1.1,0.1,1.6,0.3c0.5,0.2,0.9,0.5,1.3,0.9
			c0.3,0.4,0.6,0.8,0.8,1.3s0.3,1,0.3,1.6c0,0.5-0.1,1-0.3,1.6c-0.2,0.5-0.5,1-0.9,1.3l-10,10.5h-2.8v-15.6c0-1.5,0.2-2.9,0.7-4.1
			c0.4-1.2,1.1-2.2,2-3.1c0.9-0.9,1.9-1.5,3.1-2c1.2-0.5,2.6-0.7,4.2-0.7c1.6,0,3,0.2,4.2,0.7c1.2,0.5,2.3,1.1,3.1,2
			c0.9,0.9,1.5,1.9,2,3.1c0.5,1.2,0.7,2.6,0.7,4.1v15.6H574.3z M566.9,2367.3c0.5,0,1-0.2,1.3-0.5c0.4-0.4,0.5-0.8,0.5-1.3
			c0-0.5-0.2-1-0.5-1.3c-0.4-0.4-0.8-0.5-1.3-0.5s-1,0.2-1.4,0.5c-0.4,0.4-0.5,0.8-0.5,1.3c0,0.5,0.2,1,0.5,1.3
			C565.9,2367.1,566.4,2367.3,566.9,2367.3z"/>
		<path class="st1" d="M574.8,2348.8c-1.7-0.6-3.3-1.1-4.8-1.5s-2.9-0.7-4.2-0.9c-1.3-0.2-2.5-0.4-3.6-0.5c-1.1-0.1-2.1-0.1-3.1-0.1
			c-0.5,0-0.8,0-1.2,0c-0.3,0-0.6,0-0.8,0c-0.2,0-0.4,0-0.6,0c-0.2,0-0.4,0-0.6,0.1c0.4-1.1,1-2.2,1.6-3.1c0.7-0.9,1.4-1.7,2.3-2.3
			c0.9-0.6,1.8-1.1,2.9-1.4c1.1-0.3,2.2-0.5,3.4-0.5c1.5,0,2.8,0.3,4.1,0.8c1.2,0.5,2.3,1.3,3.2,2.2c0.9,1,1.6,2.1,2.2,3.4
			c0.6,1.3,0.9,2.8,1,4.4L574.8,2348.8z M574.2,2346.4c-0.9-1.9-1.9-3.3-3.2-4.2c-1.3-0.9-2.8-1.4-4.8-1.4c-0.7,0-1.5,0.1-2.2,0.2
			c-0.7,0.1-1.3,0.3-1.9,0.6c-0.6,0.3-1.1,0.6-1.6,1c-0.5,0.4-0.9,0.8-1.2,1.3c1.3,0,2.6,0,3.8,0.1c1.2,0.1,2.4,0.2,3.6,0.4
			s2.4,0.5,3.6,0.8C571.5,2345.5,572.8,2345.9,574.2,2346.4z"/>
		<path class="st1" d="M598.2,2375l-8.7,4h-2.7v-17.5c-0.2,0.1-0.5,0.2-0.7,0.2s-0.5,0-0.8,0c-0.6,0-1.1-0.1-1.6-0.3
			c-0.5-0.2-0.9-0.5-1.3-0.9c-0.4-0.4-0.7-0.8-0.9-1.3c-0.2-0.5-0.3-1-0.3-1.6c0-0.6,0.1-1.1,0.3-1.6c0.2-0.5,0.5-0.9,0.9-1.3
			c0.4-0.4,0.8-0.7,1.3-0.9c0.5-0.2,1-0.3,1.6-0.3c0.6,0,1.1,0.1,1.6,0.3c0.5,0.2,0.9,0.5,1.3,0.9c0.4,0.4,0.7,0.8,0.9,1.3
			c0.2,0.5,0.3,1,0.3,1.6v19l11.5-5.1v-17.7h2.5v17.9c0.8,0.3,1.4,0.8,1.9,1.4c0.5,0.7,0.7,1.4,0.7,2.3c0,0.6-0.1,1.1-0.3,1.6
			c-0.2,0.5-0.5,0.9-0.8,1.2c-0.3,0.4-0.8,0.6-1.2,0.8c-0.5,0.2-1,0.3-1.5,0.3c-0.6,0-1.1-0.1-1.5-0.3s-0.9-0.4-1.2-0.8
			c-0.3-0.3-0.6-0.7-0.8-1.2c-0.2-0.5-0.3-1-0.3-1.5V2375z M585.3,2359.6c0.5,0,1-0.2,1.3-0.6s0.5-0.8,0.5-1.4c0-0.5-0.2-1-0.5-1.4
			s-0.8-0.5-1.3-0.5c-0.5,0-1,0.2-1.4,0.5c-0.4,0.4-0.5,0.8-0.5,1.4c0,0.5,0.2,1,0.5,1.4C584.3,2359.4,584.7,2359.6,585.3,2359.6z
			 M602.1,2377.2c0.5,0,0.9-0.2,1.2-0.5c0.3-0.3,0.5-0.7,0.5-1.2c0-0.5-0.2-0.9-0.5-1.2c-0.3-0.3-0.7-0.5-1.2-0.5
			c-0.5,0-0.9,0.2-1.2,0.5c-0.3,0.3-0.5,0.7-0.5,1.2c0,0.5,0.2,0.9,0.5,1.2C601.2,2377,601.6,2377.2,602.1,2377.2z"/>
		<path class="st1" d="M627.9,2379v-20.5c0-0.8-0.2-1.4-0.7-1.9c-0.4-0.5-1.1-0.7-1.8-0.7c-0.6,0-1.1,0.2-1.5,0.5
			c-0.4,0.3-0.7,0.7-0.9,1.3l-7.1,21.4h-2.4v-17.5c-0.2,0.1-0.5,0.2-0.7,0.2s-0.5,0-0.8,0c-0.6,0-1.1-0.1-1.6-0.3
			c-0.5-0.2-0.9-0.5-1.3-0.9c-0.4-0.4-0.7-0.8-0.9-1.3c-0.2-0.5-0.3-1-0.3-1.6c0-0.6,0.1-1.1,0.3-1.6c0.2-0.5,0.5-0.9,0.9-1.3
			c0.4-0.4,0.8-0.7,1.3-0.9c0.5-0.2,1-0.3,1.6-0.3c0.6,0,1.1,0.1,1.6,0.3c0.5,0.2,0.9,0.5,1.3,0.9c0.4,0.4,0.7,0.8,0.9,1.3
			c0.2,0.5,0.3,1,0.3,1.6v14.4c0.8-2.4,1.6-4.9,2.4-7.3c0.8-2.4,1.6-4.9,2.4-7.3c0.4-1.4,1-2.3,1.7-2.9c0.7-0.6,1.7-0.9,2.9-0.9
			c0.7,0,1.4,0.1,2.1,0.4c0.6,0.2,1.2,0.6,1.6,1c0.4,0.4,0.8,0.9,1,1.5c0.2,0.6,0.4,1.3,0.4,2v20.5H627.9z M612,2359.6
			c0.5,0,1-0.2,1.3-0.6s0.5-0.8,0.5-1.4c0-0.5-0.2-1-0.5-1.4s-0.8-0.5-1.3-0.5c-0.5,0-1,0.2-1.4,0.5c-0.4,0.4-0.5,0.8-0.5,1.4
			c0,0.5,0.2,1,0.5,1.4C611,2359.4,611.5,2359.6,612,2359.6z"/>
		<path class="st1" d="M649.1,2379v-17.2c0-0.8-0.1-1.6-0.3-2.3c-0.2-0.7-0.5-1.4-1-1.9c-0.5-0.5-1-1-1.8-1.3
			c-0.7-0.3-1.6-0.5-2.6-0.5c-0.9,0-1.8,0.1-2.4,0.4c-0.7,0.3-1.2,0.6-1.7,1.1c-0.5,0.5-0.8,1-1.1,1.6c-0.3,0.6-0.4,1.3-0.5,2h-2.5
			c0.1-1.1,0.3-2.1,0.7-3c0.4-0.9,0.9-1.7,1.6-2.3c0.7-0.7,1.5-1.2,2.5-1.5c1-0.4,2.1-0.5,3.5-0.5c1.4,0,2.7,0.2,3.7,0.6
			c1,0.4,1.9,1,2.5,1.7c0.7,0.7,1.1,1.6,1.5,2.6c0.3,1,0.5,2.1,0.5,3.3v17.2H649.1z"/>
		<path class="st1" d="M668,2379l-11.8-13.1l1.7-1.7l10.5,11.5v-14.3c-0.2,0.1-0.5,0.2-0.7,0.2c-0.3,0-0.5,0-0.8,0
			c-0.6,0-1.1-0.1-1.6-0.3c-0.5-0.2-0.9-0.5-1.3-0.9c-0.4-0.4-0.7-0.8-0.9-1.3c-0.2-0.5-0.3-1-0.3-1.6c0-0.6,0.1-1.1,0.3-1.6
			c0.2-0.5,0.5-0.9,0.9-1.3c0.4-0.4,0.8-0.7,1.3-0.9c0.5-0.2,1-0.3,1.6-0.3c0.6,0,1.1,0.1,1.6,0.3c0.5,0.2,0.9,0.5,1.3,0.9
			c0.4,0.4,0.7,0.8,0.9,1.3c0.2,0.5,0.3,1,0.3,1.6v21.4H668z M666.8,2359.6c0.5,0,1-0.2,1.3-0.6s0.5-0.8,0.5-1.4
			c0-0.5-0.2-1-0.5-1.4s-0.8-0.5-1.3-0.5s-1,0.2-1.4,0.5c-0.4,0.4-0.5,0.8-0.5,1.4c0,0.5,0.2,1,0.5,1.4
			C665.8,2359.4,666.3,2359.6,666.8,2359.6z"/>
		<path class="st1" d="M692.3,2375l-8.7,4h-2.7v-17.5c-0.2,0.1-0.5,0.2-0.7,0.2c-0.3,0-0.5,0-0.8,0c-0.6,0-1.1-0.1-1.6-0.3
			c-0.5-0.2-0.9-0.5-1.3-0.9c-0.4-0.4-0.7-0.8-0.9-1.3c-0.2-0.5-0.3-1-0.3-1.6c0-0.6,0.1-1.1,0.3-1.6c0.2-0.5,0.5-0.9,0.9-1.3
			c0.4-0.4,0.8-0.7,1.3-0.9c0.5-0.2,1-0.3,1.6-0.3c0.6,0,1.1,0.1,1.6,0.3c0.5,0.2,0.9,0.5,1.3,0.9c0.4,0.4,0.7,0.8,0.9,1.3
			c0.2,0.5,0.3,1,0.3,1.6v19l11.5-5.1v-17.7h2.5v17.9c0.8,0.3,1.4,0.8,1.9,1.4c0.5,0.7,0.7,1.4,0.7,2.3c0,0.6-0.1,1.1-0.3,1.6
			c-0.2,0.5-0.5,0.9-0.8,1.2c-0.3,0.4-0.8,0.6-1.2,0.8c-0.5,0.2-1,0.3-1.5,0.3c-0.6,0-1.1-0.1-1.5-0.3c-0.5-0.2-0.9-0.4-1.2-0.8
			c-0.3-0.3-0.6-0.7-0.8-1.2c-0.2-0.5-0.3-1-0.3-1.5V2375z M679.4,2359.6c0.5,0,1-0.2,1.3-0.6s0.5-0.8,0.5-1.4c0-0.5-0.2-1-0.5-1.4
			s-0.8-0.5-1.3-0.5c-0.5,0-1,0.2-1.4,0.5c-0.4,0.4-0.5,0.8-0.5,1.4c0,0.5,0.2,1,0.5,1.4C678.4,2359.4,678.8,2359.6,679.4,2359.6z
			 M696.2,2377.2c0.5,0,0.9-0.2,1.2-0.5c0.3-0.3,0.5-0.7,0.5-1.2c0-0.5-0.2-0.9-0.5-1.2c-0.3-0.3-0.7-0.5-1.2-0.5
			c-0.5,0-0.9,0.2-1.2,0.5c-0.3,0.3-0.5,0.7-0.5,1.2c0,0.5,0.2,0.9,0.5,1.2C695.3,2377,695.7,2377.2,696.2,2377.2z"/>
		<path class="st1" d="M700.9,2338.1c0,1.7-0.4,3.3-1.1,4.6c-0.7,1.3-1.7,2.5-2.9,3.4c-1.2,0.9-2.6,1.6-4.2,2.1
			c-1.6,0.5-3.3,0.7-5,0.7c-0.4,0-0.7,0-0.9,0c-0.3,0-0.5,0-0.6,0v-1.6c0.5-0.2,0.9-0.6,1.3-1c0.4-0.4,0.6-0.8,0.8-1.3
			c-0.1,0-0.3,0-0.4,0c-0.1,0-0.3,0-0.4,0c-0.6,0-1.2-0.1-1.6-0.3c-0.5-0.2-0.8-0.4-1.1-0.8c-0.3-0.3-0.5-0.7-0.7-1.1
			c-0.1-0.4-0.2-0.9-0.2-1.4c0-0.5,0.1-1,0.3-1.5c0.2-0.4,0.5-0.8,0.8-1.2c0.3-0.3,0.7-0.6,1.2-0.8c0.5-0.2,0.9-0.3,1.5-0.3
			c0.6,0,1.2,0.1,1.7,0.3c0.5,0.2,0.9,0.5,1.2,0.9c0.3,0.4,0.6,0.8,0.7,1.3c0.2,0.5,0.2,1.1,0.2,1.7c0,1-0.2,2-0.7,2.8
			c-0.5,0.9-1,1.6-1.7,2.2c1.4-0.1,2.6-0.3,3.8-0.8c1.2-0.4,2.2-1,3.1-1.8c0.9-0.8,1.6-1.7,2.1-2.7c0.5-1.1,0.8-2.3,0.8-3.6H700.9z
			 M689.2,2341.5c0-0.5-0.2-1-0.5-1.3s-0.8-0.5-1.3-0.5c-0.5,0-1,0.2-1.3,0.5s-0.5,0.8-0.5,1.3c0,0.6,0.2,1,0.5,1.3
			c0.3,0.3,0.8,0.5,1.3,0.5c0.6,0,1-0.2,1.3-0.5S689.2,2342,689.2,2341.5z"/>
		<path class="st1" d="M705.4,2379v-12.3c0-0.6,0.1-1.1,0.3-1.6c0.2-0.5,0.5-0.9,0.9-1.3c0.4-0.4,0.8-0.6,1.3-0.8s1-0.3,1.6-0.3
			c0.6,0,1.1,0.1,1.6,0.3s0.9,0.5,1.3,0.8c0.3,0.4,0.6,0.8,0.8,1.3c0.2,0.5,0.3,1,0.3,1.6c0,0.6-0.1,1.1-0.3,1.6s-0.5,0.9-0.8,1.3
			c-0.3,0.3-0.8,0.6-1.3,0.8c-0.5,0.2-1,0.3-1.6,0.3c-0.3,0-0.6,0-0.8-0.1c-0.3,0-0.5-0.1-0.7-0.2v6.3h11.4v-14.5
			c0-1-0.2-1.9-0.5-2.7c-0.4-0.8-0.8-1.5-1.5-2c-0.6-0.6-1.4-1-2.3-1.3s-1.9-0.4-2.9-0.4c-0.9,0-1.8,0.1-2.5,0.4
			c-0.8,0.3-1.4,0.6-2,1.1c-0.6,0.5-1.1,1-1.4,1.6c-0.4,0.6-0.6,1.3-0.7,2h-2.7c0.2-1.1,0.5-2.1,1.1-3c0.5-0.9,1.2-1.7,2-2.3
			c0.8-0.6,1.8-1.1,2.8-1.5c1.1-0.4,2.2-0.5,3.4-0.5c1.4,0,2.7,0.2,3.9,0.6c1.2,0.4,2.2,0.9,3.1,1.7c0.9,0.7,1.5,1.6,2,2.7
			c0.5,1.1,0.7,2.3,0.7,3.7v16.8H705.4z M711.3,2366.7c0-0.5-0.2-1-0.5-1.3c-0.3-0.3-0.8-0.5-1.3-0.5s-1,0.2-1.3,0.5
			c-0.3,0.4-0.5,0.8-0.5,1.3s0.2,1,0.5,1.3s0.8,0.5,1.3,0.5s1-0.2,1.3-0.5S711.3,2367.3,711.3,2366.7z"/>
		<path class="st1" d="M728.7,2379v-7.6c0-2.8,1.1-4.5,3.2-5.3c-1.5-0.4-2.7-1.1-3.5-2.2c-0.8-1.1-1.2-2.4-1.2-4
			c0-0.9,0.2-1.8,0.5-2.5c0.3-0.8,0.8-1.4,1.4-2c0.6-0.6,1.3-1,2.1-1.3c0.8-0.3,1.7-0.5,2.6-0.5c1.3,0,2.4,0.3,3.1,1
			c0.8,0.7,1.2,1.6,1.2,2.7c0,0.6-0.1,1.1-0.3,1.6c-0.2,0.5-0.4,0.9-0.8,1.2c-0.3,0.4-0.7,0.6-1.2,0.8c-0.5,0.2-1,0.3-1.7,0.3
			c-1,0-1.8-0.3-2.5-0.8c-0.7-0.5-1.2-1.3-1.4-2.4c-0.2,0.3-0.3,0.6-0.3,1c-0.1,0.3-0.1,0.7-0.1,1.1c0,0.7,0.1,1.3,0.3,1.9
			c0.2,0.5,0.5,1,0.9,1.4c0.4,0.4,1,0.7,1.7,0.9s1.6,0.3,2.6,0.3h2.4v2.5H735c-1.2,0-2.1,0.3-2.8,1c-0.6,0.7-0.9,1.8-0.9,3.3v5.3
			h12.2v-22.9h2.5v25.2H728.7z M736,2357.4c0-0.5-0.2-0.9-0.5-1.3c-0.4-0.4-0.8-0.6-1.3-0.6c-0.6,0-1,0.2-1.4,0.5
			c-0.3,0.3-0.5,0.8-0.5,1.4c0,0.5,0.2,1,0.5,1.3s0.8,0.5,1.3,0.5c0.5,0,0.9-0.2,1.3-0.5S736,2358,736,2357.4z"/>
	</g>
	<g class="st0">
		<path class="st1" d="M146.8,2433.9h2.5v17.5c0.2-0.1,0.5-0.2,0.7-0.2c0.3,0,0.5,0,0.8,0c0.6,0,1.1,0.1,1.6,0.3
			c0.5,0.2,0.9,0.5,1.3,0.9c0.4,0.4,0.7,0.8,0.9,1.3c0.2,0.5,0.3,1,0.3,1.6c0,0.6-0.1,1.1-0.3,1.6c-0.2,0.5-0.5,0.9-0.9,1.3
			c-0.4,0.4-0.8,0.7-1.3,0.9c-0.5,0.2-1,0.3-1.6,0.3c-0.6,0-1.1-0.1-1.6-0.3c-0.5-0.2-0.9-0.5-1.3-0.9c-0.4-0.4-0.7-0.8-0.9-1.3
			c-0.2-0.5-0.3-1-0.3-1.6V2433.9z M150.9,2457.1c0.5,0,1-0.2,1.3-0.6s0.5-0.8,0.5-1.4c0-0.5-0.2-1-0.5-1.3
			c-0.4-0.4-0.8-0.5-1.3-0.5s-1,0.2-1.3,0.5c-0.3,0.4-0.5,0.8-0.5,1.3c0,0.5,0.2,1,0.5,1.4C149.9,2456.9,150.3,2457.1,150.9,2457.1z
			"/>
		<path class="st1" d="M176.3,2459v-13.7c0-1.9-0.5-2.9-1.4-2.9c-0.6,0-1.3,0.7-2.1,2.1l-8.1,14.4h-2.3v-17.5
			c-0.2,0.1-0.5,0.2-0.7,0.2c-0.3,0-0.5,0-0.8,0c-0.6,0-1.1-0.1-1.6-0.3c-0.5-0.2-0.9-0.5-1.3-0.9c-0.4-0.4-0.7-0.8-0.9-1.3
			c-0.2-0.5-0.3-1-0.3-1.6c0-0.6,0.1-1.1,0.3-1.6c0.2-0.5,0.5-0.9,0.9-1.3c0.4-0.4,0.8-0.7,1.3-0.9c0.5-0.2,1-0.3,1.6-0.3
			c0.6,0,1.1,0.1,1.6,0.3c0.5,0.2,0.9,0.5,1.3,0.9c0.4,0.4,0.7,0.8,0.9,1.3c0.2,0.5,0.3,1,0.3,1.6v13.9c0,0.2,0,0.5,0,0.8
			c0,0.3,0,0.6,0,1c0,0.3,0,0.6-0.1,0.9c0,0.3-0.1,0.5-0.1,0.6l1-2.1l5.1-9.3c0.3-0.5,0.6-1,0.9-1.4c0.3-0.5,0.7-0.8,1.1-1
			c-0.9-0.8-1.4-1.9-1.4-3.2c0-0.6,0.1-1.1,0.3-1.6c0.2-0.5,0.5-0.9,0.9-1.3c0.4-0.4,0.8-0.7,1.3-0.9c0.5-0.2,1.1-0.3,1.6-0.3
			s1.1,0.1,1.7,0.3c0.5,0.2,1,0.5,1.4,0.9c0.4,0.4,0.7,0.8,0.9,1.3c0.2,0.5,0.3,1,0.3,1.6c0,1.6-0.7,2.8-2.1,3.6
			c0.4,0.4,0.6,0.9,0.8,1.7c0.2,0.7,0.2,1.5,0.2,2.4v13.6H176.3z M160.8,2439.5c0.5,0,1-0.2,1.3-0.5c0.3-0.4,0.5-0.8,0.5-1.4
			s-0.2-1-0.5-1.3c-0.3-0.4-0.8-0.5-1.3-0.5c-0.5,0-1,0.2-1.4,0.5c-0.4,0.4-0.5,0.8-0.5,1.3s0.2,1,0.5,1.4
			C159.8,2439.4,160.2,2439.5,160.8,2439.5z M175.5,2439.8c0.6,0,1.1-0.2,1.5-0.6c0.4-0.4,0.6-0.9,0.6-1.5c0-0.6-0.2-1.1-0.6-1.5
			c-0.4-0.4-0.9-0.6-1.5-0.6c-0.6,0-1.1,0.2-1.5,0.6c-0.4,0.4-0.6,0.9-0.6,1.5c0,0.6,0.2,1.1,0.6,1.5S174.9,2439.8,175.5,2439.8z"/>
		<path class="st1" d="M202.7,2459l-10.7-4.6v0.8c0,0.6-0.1,1.1-0.3,1.6c-0.2,0.5-0.5,0.9-0.9,1.3c-0.4,0.4-0.8,0.7-1.3,0.9
			c-0.5,0.2-1,0.3-1.6,0.3c-0.6,0-1.1-0.1-1.6-0.3c-0.5-0.2-0.9-0.5-1.3-0.9c-0.4-0.4-0.7-0.8-0.9-1.3c-0.2-0.5-0.3-1-0.3-1.6
			c0-0.6,0.1-1.1,0.3-1.6c0.2-0.5,0.5-0.9,0.9-1.3c0.4-0.4,0.8-0.7,1.3-0.9c0.5-0.2,1-0.3,1.6-0.3c0.3,0,0.6,0,0.8,0
			c0.3,0,0.5,0.1,0.7,0.2v-9.9c-0.2,0.1-0.5,0.2-0.7,0.2c-0.3,0-0.5,0-0.8,0c-0.6,0-1.1-0.1-1.6-0.3c-0.5-0.2-0.9-0.5-1.3-0.9
			c-0.4-0.4-0.7-0.8-0.9-1.3c-0.2-0.5-0.3-1-0.3-1.6c0-0.6,0.1-1.1,0.3-1.6c0.2-0.5,0.5-0.9,0.9-1.3c0.4-0.4,0.8-0.7,1.3-0.9
			c0.5-0.2,1-0.3,1.6-0.3c0.6,0,1.1,0.1,1.6,0.3c0.5,0.2,0.9,0.5,1.3,0.9c0.4,0.4,0.7,0.8,0.9,1.3c0.2,0.5,0.3,1,0.3,1.6v14.5
			l10.6,4.4v-22.7h2.5v25.2H202.7z M187.9,2439.5c0.5,0,1-0.2,1.3-0.5c0.4-0.4,0.5-0.8,0.5-1.4s-0.2-1-0.5-1.3
			c-0.4-0.4-0.8-0.5-1.3-0.5s-1,0.2-1.4,0.5c-0.4,0.4-0.5,0.8-0.5,1.3s0.2,1,0.5,1.4C187,2439.4,187.4,2439.5,187.9,2439.5z
			 M187.9,2457.1c0.5,0,1-0.2,1.3-0.6c0.4-0.4,0.5-0.8,0.5-1.4c0-0.5-0.2-1-0.5-1.3c-0.4-0.4-0.8-0.5-1.3-0.5s-1,0.2-1.4,0.5
			c-0.4,0.4-0.5,0.8-0.5,1.3c0,0.5,0.2,1,0.5,1.4S187.4,2457.1,187.9,2457.1z"/>
		<path class="st1" d="M223.9,2459v-17.2c0-0.8-0.1-1.6-0.3-2.3c-0.2-0.7-0.5-1.4-1-1.9c-0.5-0.5-1-1-1.8-1.3
			c-0.7-0.3-1.6-0.5-2.6-0.5c-0.9,0-1.8,0.1-2.4,0.4c-0.7,0.3-1.2,0.6-1.7,1.1c-0.5,0.5-0.8,1-1.1,1.6c-0.3,0.6-0.4,1.3-0.5,2h-2.5
			c0.1-1.1,0.3-2.1,0.7-3c0.4-0.9,0.9-1.7,1.6-2.3c0.7-0.7,1.5-1.2,2.5-1.5c1-0.4,2.1-0.5,3.5-0.5c1.4,0,2.7,0.2,3.7,0.6
			c1,0.4,1.9,1,2.5,1.7c0.7,0.7,1.1,1.6,1.5,2.6c0.3,1,0.5,2.1,0.5,3.3v17.2H223.9z"/>
		<path class="st1" d="M248.1,2434.1c-0.5,2.7-1.6,4.7-3.4,6c-1.7,1.3-3.9,2-6.6,2c-2.1,0-3.7-0.4-4.9-1.2s-1.7-1.9-1.7-3.3
			c0-0.5,0.1-1,0.3-1.5c0.2-0.5,0.5-0.9,0.8-1.2s0.8-0.6,1.2-0.8s1-0.3,1.7-0.3c0.6,0,1.1,0.1,1.6,0.3c0.5,0.2,0.9,0.5,1.2,0.8
			c0.3,0.4,0.6,0.8,0.8,1.3c0.2,0.5,0.3,1,0.3,1.6c0,0.8-0.2,1.5-0.5,1.9c1.9-0.2,3.4-0.8,4.5-1.7s1.8-2.2,2.3-4H248.1z
			 M248.1,2449.9c-0.5,2.7-1.6,4.7-3.4,6c-1.7,1.3-3.9,2-6.6,2c-2.1,0-3.7-0.4-4.9-1.2s-1.7-1.9-1.7-3.3c0-0.5,0.1-1,0.3-1.5
			c0.2-0.5,0.5-0.9,0.8-1.2c0.3-0.3,0.8-0.6,1.2-0.8s1-0.3,1.7-0.3c0.6,0,1.1,0.1,1.6,0.3c0.5,0.2,0.9,0.5,1.2,0.8
			c0.3,0.4,0.6,0.8,0.8,1.3c0.2,0.5,0.3,1,0.3,1.5c0,0.9-0.2,1.5-0.5,2c1-0.1,1.8-0.3,2.5-0.6s1.4-0.6,1.9-1.1c0.5-0.5,1-1,1.4-1.7
			c0.4-0.7,0.7-1.4,0.9-2.3H248.1z M237.2,2437.8c0-0.5-0.2-0.9-0.5-1.2c-0.3-0.3-0.7-0.5-1.2-0.5c-0.5,0-0.9,0.2-1.2,0.5
			c-0.3,0.3-0.5,0.7-0.5,1.2c0,0.5,0.2,0.9,0.5,1.2c0.3,0.3,0.7,0.5,1.2,0.5c0.5,0,0.9-0.2,1.2-0.5
			C237,2438.7,237.2,2438.3,237.2,2437.8z M237.2,2453.6c0-0.5-0.2-0.9-0.5-1.2c-0.3-0.3-0.7-0.5-1.2-0.5c-0.5,0-0.9,0.2-1.2,0.5
			c-0.3,0.3-0.5,0.7-0.5,1.2c0,0.5,0.2,0.9,0.5,1.2c0.3,0.3,0.7,0.5,1.2,0.5c0.5,0,0.9-0.2,1.2-0.5
			C237,2454.5,237.2,2454.1,237.2,2453.6z"/>
		<path class="st1" d="M270.2,2459v-16.1c0-1.1-0.2-2-0.6-2.9c-0.4-0.9-0.9-1.6-1.6-2.2c-0.7-0.6-1.5-1.1-2.4-1.4
			c-0.9-0.3-1.9-0.5-3-0.5c-1.7,0-3.1,0.4-4.4,1.2c-1.2,0.8-2.2,1.9-2.8,3.2l2.3,2.7v16.1h-2.5v-15.5l-2.5-2.9
			c0.3-1.1,0.7-2,1.3-2.9c0.6-0.9,1.3-1.6,2.2-2.2c0.9-0.6,1.8-1.1,2.9-1.4c1.1-0.3,2.3-0.5,3.6-0.5c1.5,0,2.9,0.2,4.2,0.7
			c1.3,0.5,2.3,1.1,3.2,2c0.9,0.8,1.6,1.8,2.1,3s0.7,2.5,0.7,3.9v15.9H270.2z"/>
		<path class="st1" d="M278.9,2421.6c-0.2,1.3-0.6,2.4-1.2,3.4c-0.5,1-1.3,1.9-2.1,2.6c-0.9,0.7-2,1.3-3.3,1.6s-2.8,0.6-4.6,0.6
			c-1.2,0-2.3-0.1-3.3-0.3c-1-0.2-1.9-0.5-2.7-0.9c-0.7-0.4-1.3-0.9-1.8-1.5c-0.4-0.6-0.6-1.4-0.6-2.2c0-0.7,0.1-1.2,0.4-1.7
			c0.2-0.5,0.5-0.9,0.9-1.2c0.4-0.3,0.8-0.6,1.3-0.7c0.5-0.2,1-0.2,1.5-0.2s1,0.1,1.4,0.2s0.9,0.4,1.2,0.7c0.4,0.3,0.6,0.7,0.9,1.1
			c0.2,0.5,0.3,1,0.3,1.6c0,0.7-0.2,1.3-0.5,1.8c-0.3,0.5-0.6,0.8-1,1c0.2,0.1,0.5,0.2,0.8,0.2c0.3,0.1,0.7,0.1,1.1,0.1
			c1.4,0,2.6-0.1,3.6-0.4c1-0.3,1.9-0.7,2.6-1.3c0.7-0.5,1.3-1.2,1.6-2c0.4-0.8,0.6-1.6,0.8-2.6H278.9z M263.3,2426.7
			c0.5,0,1-0.2,1.3-0.5c0.4-0.4,0.5-0.8,0.5-1.3s-0.2-1-0.6-1.3c-0.4-0.4-0.8-0.5-1.4-0.5s-1,0.2-1.3,0.5c-0.3,0.3-0.5,0.8-0.5,1.3
			s0.2,1,0.6,1.3C262.3,2426.6,262.8,2426.7,263.3,2426.7z"/>
		<path class="st1" d="M282.7,2459v-17.5c-0.2,0.1-0.5,0.2-0.7,0.2c-0.3,0-0.5,0-0.8,0c-0.6,0-1.1-0.1-1.6-0.3
			c-0.5-0.2-0.9-0.5-1.3-0.9c-0.4-0.4-0.7-0.8-0.9-1.3c-0.2-0.5-0.3-1-0.3-1.6c0-0.6,0.1-1.1,0.3-1.6c0.2-0.5,0.5-0.9,0.9-1.3
			c0.4-0.4,0.8-0.7,1.3-0.9c0.5-0.2,1-0.3,1.6-0.3c0.6,0,1.1,0.1,1.6,0.3c0.5,0.2,0.9,0.5,1.3,0.9c0.4,0.4,0.7,0.8,0.9,1.3
			c0.2,0.5,0.3,1,0.3,1.6v19.1h11.8v-22.9h2.5v25.2H282.7z M281.2,2439.5c0.5,0,1-0.2,1.3-0.5c0.3-0.4,0.5-0.8,0.5-1.4
			s-0.2-1-0.5-1.3c-0.3-0.4-0.8-0.5-1.3-0.5c-0.5,0-1,0.2-1.4,0.5c-0.4,0.4-0.5,0.8-0.5,1.3s0.2,1,0.5,1.4
			C280.2,2439.4,280.7,2439.5,281.2,2439.5z"/>
		<path class="st1" d="M322.2,2459v-16.1c0-1.1-0.2-2-0.6-2.9c-0.4-0.9-0.9-1.6-1.6-2.2c-0.7-0.6-1.5-1.1-2.4-1.4
			c-0.9-0.3-1.9-0.5-3-0.5c-1.7,0-3.1,0.4-4.4,1.2c-1.2,0.8-2.2,1.9-2.8,3.2l2.3,2.7v16.1h-2.5v-15.5l-2.5-2.9
			c0.3-1.1,0.7-2,1.3-2.9c0.6-0.9,1.3-1.6,2.2-2.2c0.9-0.6,1.8-1.1,2.9-1.4c1.1-0.3,2.3-0.5,3.6-0.5c1.5,0,2.9,0.2,4.2,0.7
			c1.3,0.5,2.3,1.1,3.2,2c0.9,0.8,1.6,1.8,2.1,3s0.7,2.5,0.7,3.9v15.9H322.2z"/>
		<path class="st1" d="M343.4,2459v-17.2c0-0.8-0.1-1.6-0.3-2.3c-0.2-0.7-0.5-1.4-1-1.9c-0.5-0.5-1-1-1.8-1.3
			c-0.7-0.3-1.6-0.5-2.6-0.5c-0.9,0-1.8,0.1-2.4,0.4c-0.7,0.3-1.2,0.6-1.7,1.1c-0.5,0.5-0.8,1-1.1,1.6c-0.3,0.6-0.4,1.3-0.5,2h-2.5
			c0.1-1.1,0.3-2.1,0.7-3c0.4-0.9,0.9-1.7,1.6-2.3c0.7-0.7,1.5-1.2,2.5-1.5c1-0.4,2.1-0.5,3.5-0.5c1.4,0,2.7,0.2,3.7,0.6
			c1,0.4,1.9,1,2.5,1.7c0.7,0.7,1.1,1.6,1.5,2.6c0.3,1,0.5,2.1,0.5,3.3v17.2H343.4z"/>
		<path class="st1" d="M360.6,2443.6h-9.9v-1.5c0-1.2,0.2-2.2,0.6-3.3c0.4-1,0.9-1.9,1.7-2.7c0.7-0.8,1.7-1.4,2.8-1.9
			c1.1-0.5,2.4-0.7,3.8-0.7c1.2,0,2.3,0.2,3.4,0.6c1,0.4,1.9,0.9,2.7,1.6c0.8,0.7,1.3,1.5,1.8,2.5c0.4,1,0.6,2,0.6,3.2h-2.5
			c0-0.8-0.1-1.6-0.4-2.3c-0.3-0.7-0.7-1.3-1.2-1.8c-0.5-0.5-1.2-0.9-1.9-1.2c-0.8-0.3-1.6-0.4-2.6-0.4c-0.9,0-1.8,0.1-2.5,0.4
			c-0.7,0.3-1.4,0.7-1.9,1.2c-0.5,0.5-0.9,1.1-1.2,1.8c-0.3,0.7-0.4,1.5-0.4,2.3h9.8v13.7c0,0.6-0.1,1.1-0.3,1.6
			c-0.2,0.5-0.5,0.9-0.9,1.3c-0.4,0.4-0.8,0.7-1.3,0.9s-1,0.3-1.6,0.3c-0.6,0-1.1-0.1-1.6-0.3s-0.9-0.5-1.3-0.9
			c-0.4-0.4-0.7-0.8-0.9-1.3c-0.2-0.5-0.3-1-0.3-1.6c0-0.6,0.1-1.1,0.3-1.6c0.2-0.5,0.5-0.9,0.9-1.3c0.4-0.4,0.8-0.7,1.3-0.9
			c0.5-0.2,1-0.3,1.6-0.3c0.6,0,1.1,0.1,1.5,0.2V2443.6z M359.1,2457.1c0.5,0,1-0.2,1.4-0.6s0.5-0.8,0.5-1.4c0-0.5-0.2-1-0.5-1.3
			c-0.4-0.4-0.8-0.5-1.4-0.5s-1,0.2-1.3,0.5c-0.4,0.4-0.5,0.8-0.5,1.3c0,0.5,0.2,1,0.5,1.4C358.1,2456.9,358.5,2457.1,359.1,2457.1z
			"/>
		<path class="st1" d="M378.1,2422.2l-3.4,4.3h-1.8l-4.6-8.2h2.5l3.2,5.9l4.5-5.9h2.1v33c0.2-0.1,0.5-0.2,0.7-0.2c0.3,0,0.5,0,0.8,0
			c0.6,0,1.1,0.1,1.6,0.3c0.5,0.2,0.9,0.5,1.3,0.9c0.4,0.4,0.7,0.8,0.9,1.3c0.2,0.5,0.3,1,0.3,1.6c0,0.6-0.1,1.1-0.3,1.6
			c-0.2,0.5-0.5,0.9-0.9,1.3c-0.4,0.4-0.8,0.7-1.3,0.9c-0.5,0.2-1,0.3-1.6,0.3s-1.1-0.1-1.6-0.3s-0.9-0.5-1.3-0.9
			c-0.4-0.4-0.7-0.8-0.9-1.3c-0.2-0.5-0.3-1-0.3-1.6V2422.2z M382.2,2457.1c0.5,0,1-0.2,1.4-0.6s0.5-0.8,0.5-1.4
			c0-0.5-0.2-1-0.5-1.3c-0.4-0.4-0.8-0.5-1.4-0.5c-0.6,0-1,0.2-1.4,0.5c-0.4,0.4-0.5,0.8-0.5,1.3c0,0.5,0.2,1,0.5,1.4
			C381.2,2456.9,381.7,2457.1,382.2,2457.1z"/>
		<path class="st1" d="M393.7,2459v-17.5c-0.2,0.1-0.5,0.2-0.7,0.2c-0.3,0-0.5,0-0.8,0c-0.6,0-1.1-0.1-1.6-0.3
			c-0.5-0.2-0.9-0.5-1.3-0.9c-0.4-0.4-0.7-0.8-0.9-1.3c-0.2-0.5-0.3-1-0.3-1.6c0-0.6,0.1-1.1,0.3-1.6c0.2-0.5,0.5-0.9,0.9-1.3
			c0.4-0.4,0.8-0.7,1.3-0.9c0.5-0.2,1-0.3,1.6-0.3c0.6,0,1.1,0.1,1.6,0.3c0.5,0.2,0.9,0.5,1.3,0.9c0.4,0.4,0.7,0.8,0.9,1.3
			c0.2,0.5,0.3,1,0.3,1.6v19.1H408v-34.9h2.5v37.2H393.7z M392.2,2439.5c0.5,0,1-0.2,1.3-0.5c0.3-0.4,0.5-0.8,0.5-1.4
			s-0.2-1-0.5-1.3c-0.3-0.4-0.8-0.5-1.3-0.5c-0.5,0-1,0.2-1.4,0.5c-0.4,0.4-0.5,0.8-0.5,1.3s0.2,1,0.5,1.4
			C391.2,2439.4,391.6,2439.5,392.2,2439.5z"/>
		<path class="st1" d="M436.6,2459l-6.7-20l-6.7,20h-2.7v-17.5c-0.2,0.1-0.5,0.2-0.7,0.2c-0.3,0-0.5,0-0.8,0c-0.6,0-1.1-0.1-1.6-0.3
			c-0.5-0.2-0.9-0.5-1.3-0.9c-0.4-0.4-0.7-0.8-0.9-1.3c-0.2-0.5-0.3-1-0.3-1.6c0-0.6,0.1-1.1,0.3-1.6c0.2-0.5,0.5-0.9,0.9-1.3
			c0.4-0.4,0.8-0.7,1.3-0.9c0.5-0.2,1-0.3,1.6-0.3c0.6,0,1.1,0.1,1.6,0.3c0.5,0.2,0.9,0.5,1.3,0.9c0.4,0.4,0.7,0.8,0.9,1.3
			c0.2,0.5,0.3,1,0.3,1.6v12.4l-0.3,4.1l0.9-4l5.2-14.4h2l5.3,14.4l0.9,4l-0.3-4.1v-16.3h2.5v25.2H436.6z M419,2439.5
			c0.5,0,1-0.2,1.3-0.5c0.3-0.4,0.5-0.8,0.5-1.4s-0.2-1-0.5-1.3c-0.3-0.4-0.8-0.5-1.3-0.5c-0.5,0-1,0.2-1.4,0.5
			c-0.4,0.4-0.5,0.8-0.5,1.3s0.2,1,0.5,1.4C418,2439.4,418.4,2439.5,419,2439.5z"/>
		<path class="st1" d="M445.4,2421.6c-0.2,1.3-0.6,2.4-1.2,3.4c-0.5,1-1.3,1.9-2.1,2.6c-0.9,0.7-2,1.3-3.3,1.6s-2.8,0.6-4.6,0.6
			c-1.2,0-2.3-0.1-3.3-0.3c-1-0.2-1.9-0.5-2.7-0.9c-0.7-0.4-1.3-0.9-1.8-1.5c-0.4-0.6-0.6-1.4-0.6-2.2c0-0.7,0.1-1.2,0.4-1.7
			c0.2-0.5,0.5-0.9,0.9-1.2c0.4-0.3,0.8-0.6,1.3-0.7c0.5-0.2,1-0.2,1.5-0.2s1,0.1,1.4,0.2s0.9,0.4,1.2,0.7c0.4,0.3,0.6,0.7,0.9,1.1
			c0.2,0.5,0.3,1,0.3,1.6c0,0.7-0.2,1.3-0.5,1.8c-0.3,0.5-0.6,0.8-1,1c0.2,0.1,0.5,0.2,0.8,0.2c0.3,0.1,0.7,0.1,1.1,0.1
			c1.4,0,2.6-0.1,3.6-0.4c1-0.3,1.9-0.7,2.6-1.3c0.7-0.5,1.3-1.2,1.6-2c0.4-0.8,0.6-1.6,0.8-2.6H445.4z M429.8,2426.7
			c0.5,0,1-0.2,1.3-0.5c0.4-0.4,0.5-0.8,0.5-1.3s-0.2-1-0.6-1.3c-0.4-0.4-0.8-0.5-1.4-0.5s-1,0.2-1.3,0.5c-0.3,0.3-0.5,0.8-0.5,1.3
			s0.2,1,0.6,1.3C428.8,2426.6,429.3,2426.7,429.8,2426.7z"/>
		<path class="st1" d="M461.9,2459v-16.1c0-1.1-0.2-2-0.6-2.9c-0.4-0.9-0.9-1.6-1.6-2.2c-0.7-0.6-1.5-1.1-2.4-1.4
			c-0.9-0.3-1.9-0.5-3-0.5c-1.7,0-3.1,0.4-4.4,1.2c-1.2,0.8-2.2,1.9-2.8,3.2l2.3,2.7v16.1h-2.5v-15.5l-2.5-2.9
			c0.3-1.1,0.7-2,1.3-2.9c0.6-0.9,1.3-1.6,2.2-2.2c0.9-0.6,1.8-1.1,2.9-1.4c1.1-0.3,2.3-0.5,3.6-0.5c1.5,0,2.9,0.2,4.2,0.7
			c1.3,0.5,2.3,1.1,3.2,2c0.9,0.8,1.6,1.8,2.1,3s0.7,2.5,0.7,3.9v15.9H461.9z"/>
		<path class="st1" d="M487.6,2459l-6.9-8.1l-6.7,8.1h-2.6v-21.4c0-0.6,0.1-1.1,0.3-1.6c0.2-0.5,0.5-0.9,0.9-1.3
			c0.4-0.4,0.8-0.7,1.3-0.9c0.5-0.2,1-0.3,1.6-0.3c0.6,0,1.1,0.1,1.6,0.3c0.5,0.2,0.9,0.5,1.3,0.9c0.4,0.4,0.7,0.8,0.9,1.3
			c0.2,0.5,0.3,1,0.3,1.6c0,0.6-0.1,1.1-0.3,1.6c-0.2,0.5-0.5,0.9-0.9,1.3c-0.4,0.4-0.8,0.7-1.3,0.9c-0.5,0.2-1,0.3-1.6,0.3
			c-0.3,0-0.6,0-0.9,0c-0.3,0-0.5-0.1-0.7-0.2v14.3l6.8-8.2l6.9,8v-21.8h2.5v25.2H487.6z M475.5,2439.5c0.5,0,1-0.2,1.3-0.5
			c0.3-0.4,0.5-0.8,0.5-1.4s-0.2-1-0.5-1.3c-0.4-0.4-0.8-0.5-1.3-0.5s-1,0.2-1.4,0.5c-0.4,0.4-0.6,0.8-0.6,1.3s0.2,1,0.6,1.4
			C474.5,2439.4,475,2439.5,475.5,2439.5z"/>
		<path class="st1" d="M487.6,2428.8v-9h2.6v9H487.6z"/>
		<path class="st1" d="M497.9,2459v-12.3c0-0.6,0.1-1.1,0.3-1.6c0.2-0.5,0.5-0.9,0.9-1.3c0.4-0.4,0.8-0.6,1.3-0.8s1-0.3,1.6-0.3
			c0.6,0,1.1,0.1,1.6,0.3s0.9,0.5,1.3,0.8c0.3,0.4,0.6,0.8,0.8,1.3c0.2,0.5,0.3,1,0.3,1.6c0,0.6-0.1,1.1-0.3,1.6s-0.5,0.9-0.8,1.3
			c-0.3,0.3-0.8,0.6-1.3,0.8c-0.5,0.2-1,0.3-1.6,0.3c-0.3,0-0.6,0-0.8-0.1c-0.3,0-0.5-0.1-0.7-0.2v6.3h11.4v-14.5
			c0-1-0.2-1.9-0.5-2.7c-0.4-0.8-0.8-1.5-1.5-2c-0.6-0.6-1.4-1-2.3-1.3s-1.9-0.4-2.9-0.4c-0.9,0-1.8,0.1-2.5,0.4
			c-0.8,0.3-1.4,0.6-2,1.1c-0.6,0.5-1.1,1-1.4,1.6c-0.4,0.6-0.6,1.3-0.7,2h-2.7c0.2-1.1,0.5-2.1,1.1-3c0.5-0.9,1.2-1.7,2-2.3
			c0.8-0.6,1.8-1.1,2.8-1.5c1.1-0.4,2.2-0.5,3.4-0.5c1.4,0,2.7,0.2,3.9,0.6c1.2,0.4,2.2,0.9,3.1,1.7c0.9,0.7,1.5,1.6,2,2.7
			c0.5,1.1,0.7,2.3,0.7,3.7v16.8H497.9z M503.8,2446.7c0-0.5-0.2-1-0.5-1.3c-0.3-0.3-0.8-0.5-1.3-0.5s-1,0.2-1.3,0.5
			c-0.3,0.4-0.5,0.8-0.5,1.3s0.2,1,0.5,1.3s0.8,0.5,1.3,0.5s1-0.2,1.3-0.5S503.8,2447.3,503.8,2446.7z"/>
		<path class="st1" d="M535.7,2455l-8.7,4h-2.7v-17.5c-0.2,0.1-0.5,0.2-0.7,0.2c-0.3,0-0.5,0-0.8,0c-0.6,0-1.1-0.1-1.6-0.3
			c-0.5-0.2-0.9-0.5-1.3-0.9c-0.4-0.4-0.7-0.8-0.9-1.3c-0.2-0.5-0.3-1-0.3-1.6c0-0.6,0.1-1.1,0.3-1.6c0.2-0.5,0.5-0.9,0.9-1.3
			c0.4-0.4,0.8-0.7,1.3-0.9c0.5-0.2,1-0.3,1.6-0.3c0.6,0,1.1,0.1,1.6,0.3c0.5,0.2,0.9,0.5,1.3,0.9c0.4,0.4,0.7,0.8,0.9,1.3
			c0.2,0.5,0.3,1,0.3,1.6v19l11.5-5.1v-17.7h2.5v17.9c0.8,0.3,1.4,0.8,1.9,1.4c0.5,0.7,0.7,1.4,0.7,2.3c0,0.6-0.1,1.1-0.3,1.6
			c-0.2,0.5-0.5,0.9-0.8,1.2c-0.3,0.4-0.8,0.6-1.2,0.8c-0.5,0.2-1,0.3-1.5,0.3c-0.6,0-1.1-0.1-1.5-0.3c-0.5-0.2-0.9-0.4-1.2-0.8
			c-0.3-0.3-0.6-0.7-0.8-1.2c-0.2-0.5-0.3-1-0.3-1.5V2455z M522.8,2439.6c0.5,0,1-0.2,1.3-0.6s0.5-0.8,0.5-1.4c0-0.5-0.2-1-0.5-1.4
			s-0.8-0.5-1.3-0.5c-0.5,0-1,0.2-1.4,0.5c-0.4,0.4-0.5,0.8-0.5,1.4c0,0.5,0.2,1,0.5,1.4C521.8,2439.4,522.2,2439.6,522.8,2439.6z
			 M539.6,2457.2c0.5,0,0.9-0.2,1.2-0.5c0.3-0.3,0.5-0.7,0.5-1.2c0-0.5-0.2-0.9-0.5-1.2c-0.3-0.3-0.7-0.5-1.2-0.5
			c-0.5,0-0.9,0.2-1.2,0.5c-0.3,0.3-0.5,0.7-0.5,1.2c0,0.5,0.2,0.9,0.5,1.2C538.7,2457,539.1,2457.2,539.6,2457.2z"/>
		<path class="st1" d="M552.7,2424.3c0-1.3-0.3-2.3-1-3c-0.7-0.7-1.7-1.1-3-1.1c-0.7,0-1.4,0.2-2,0.7c-0.6,0.5-1,1.1-1.2,2
			c0.2-0.2,0.5-0.4,0.9-0.6c0.3-0.2,0.7-0.2,1.2-0.2c0.6,0,1.1,0.1,1.6,0.3c0.5,0.2,0.9,0.5,1.2,0.8c0.3,0.3,0.6,0.7,0.8,1.2
			c0.2,0.5,0.3,0.9,0.3,1.5c0,1.1-0.3,2-1,2.6c-0.7,0.7-1.6,1-2.8,1c-0.7,0-1.4-0.1-1.9-0.4c-0.6-0.3-1-0.7-1.4-1.2
			s-0.7-1.1-0.9-1.7c-0.2-0.7-0.3-1.3-0.3-2.1c0-0.8,0.2-1.6,0.5-2.4c0.3-0.7,0.7-1.3,1.3-1.9c0.5-0.5,1.2-0.9,1.9-1.2
			c0.8-0.3,1.6-0.5,2.4-0.5c0.9,0,1.8,0.2,2.5,0.5c0.7,0.3,1.4,0.7,1.9,1.3s0.9,1.2,1.2,1.9c0.3,0.7,0.4,1.5,0.4,2.4v27.2
			c0.2-0.1,0.5-0.2,0.7-0.2c0.3,0,0.5,0,0.8,0c0.6,0,1.1,0.1,1.6,0.3c0.5,0.2,0.9,0.5,1.3,0.9c0.4,0.4,0.7,0.8,0.9,1.3
			c0.2,0.5,0.3,1,0.3,1.6c0,0.6-0.1,1.1-0.3,1.6c-0.2,0.5-0.5,0.9-0.9,1.3c-0.4,0.4-0.8,0.7-1.3,0.9c-0.5,0.2-1,0.3-1.6,0.3
			c-0.6,0-1.1-0.1-1.6-0.3c-0.5-0.2-0.9-0.5-1.3-0.9c-0.4-0.4-0.7-0.8-0.9-1.3c-0.2-0.5-0.3-1-0.3-1.6V2424.3z M547.7,2427.6
			c0.5,0,0.9-0.2,1.2-0.5c0.3-0.4,0.5-0.8,0.5-1.3c0-0.5-0.1-0.9-0.4-1.2c-0.3-0.4-0.7-0.5-1.3-0.5c-0.5,0-0.9,0.2-1.2,0.5
			c-0.3,0.4-0.4,0.8-0.4,1.2c0,0.5,0.1,0.9,0.4,1.3C546.8,2427.4,547.2,2427.6,547.7,2427.6z M558.7,2455.2c0-0.5-0.2-1-0.6-1.3
			c-0.4-0.4-0.8-0.5-1.4-0.5c-0.5,0-1,0.2-1.3,0.5c-0.4,0.4-0.5,0.8-0.5,1.3c0,0.5,0.2,1,0.5,1.4s0.8,0.6,1.3,0.6
			c0.5,0,1-0.2,1.4-0.6C558.6,2456.2,558.7,2455.7,558.7,2455.2z"/>
		<path class="st1" d="M579.7,2455l-8.7,4h-2.7v-17.5c-0.2,0.1-0.5,0.2-0.7,0.2s-0.5,0-0.8,0c-0.6,0-1.1-0.1-1.6-0.3
			c-0.5-0.2-0.9-0.5-1.3-0.9c-0.4-0.4-0.7-0.8-0.9-1.3c-0.2-0.5-0.3-1-0.3-1.6c0-0.6,0.1-1.1,0.3-1.6c0.2-0.5,0.5-0.9,0.9-1.3
			c0.4-0.4,0.8-0.7,1.3-0.9c0.5-0.2,1-0.3,1.6-0.3c0.6,0,1.1,0.1,1.6,0.3c0.5,0.2,0.9,0.5,1.3,0.9c0.4,0.4,0.7,0.8,0.9,1.3
			c0.2,0.5,0.3,1,0.3,1.6v19l11.5-5.1v-17.7h2.5v17.9c0.8,0.3,1.4,0.8,1.9,1.4c0.5,0.7,0.7,1.4,0.7,2.3c0,0.6-0.1,1.1-0.3,1.6
			c-0.2,0.5-0.5,0.9-0.8,1.2c-0.3,0.4-0.8,0.6-1.2,0.8c-0.5,0.2-1,0.3-1.5,0.3c-0.6,0-1.1-0.1-1.5-0.3s-0.9-0.4-1.2-0.8
			c-0.3-0.3-0.6-0.7-0.8-1.2c-0.2-0.5-0.3-1-0.3-1.5V2455z M566.8,2439.6c0.5,0,1-0.2,1.3-0.6s0.5-0.8,0.5-1.4c0-0.5-0.2-1-0.5-1.4
			s-0.8-0.5-1.3-0.5c-0.5,0-1,0.2-1.4,0.5c-0.4,0.4-0.5,0.8-0.5,1.4c0,0.5,0.2,1,0.5,1.4C565.8,2439.4,566.2,2439.6,566.8,2439.6z
			 M583.6,2457.2c0.5,0,0.9-0.2,1.2-0.5c0.3-0.3,0.5-0.7,0.5-1.2c0-0.5-0.2-0.9-0.5-1.2c-0.3-0.3-0.7-0.5-1.2-0.5
			c-0.5,0-0.9,0.2-1.2,0.5c-0.3,0.3-0.5,0.7-0.5,1.2c0,0.5,0.2,0.9,0.5,1.2C582.7,2457,583.1,2457.2,583.6,2457.2z"/>
		<path class="st1" d="M599,2459v-19.9c0-1.2-0.3-2.1-0.8-2.7s-1.4-0.9-2.6-0.9c-0.8,0-1.4,0.2-1.9,0.5c-0.5,0.3-0.8,0.8-1,1.4
			c0.1,0,0.2-0.1,0.5-0.1c0.2,0,0.4,0,0.6,0c0.6,0,1.2,0.1,1.6,0.3c0.5,0.2,0.9,0.5,1.2,0.8c0.3,0.3,0.6,0.7,0.7,1.2
			c0.2,0.5,0.2,0.9,0.2,1.5c0,0.6-0.1,1.1-0.3,1.5c-0.2,0.5-0.4,0.9-0.8,1.2c-0.3,0.3-0.7,0.6-1.2,0.8c-0.5,0.2-1,0.3-1.5,0.3
			c-0.6,0-1.2-0.1-1.7-0.4c-0.5-0.2-0.9-0.6-1.3-1c-0.4-0.4-0.6-0.9-0.8-1.5c-0.2-0.6-0.3-1.2-0.3-1.9c0-0.9,0.1-1.8,0.4-2.6
			c0.3-0.8,0.7-1.5,1.2-2.1c0.5-0.6,1.2-1,1.9-1.3c0.7-0.3,1.6-0.5,2.5-0.5c0.8,0,1.6,0.1,2.3,0.4c0.7,0.2,1.3,0.6,1.8,1.1
			c0.5,0.5,0.9,1,1.2,1.7c0.3,0.7,0.4,1.5,0.4,2.4v17.6h5.3v-13.5c0-0.7-0.1-1.3-0.2-1.8c-0.1-0.5-0.3-1-0.6-1.3
			c-0.3-0.4-0.6-0.7-1-1c-0.4-0.3-0.9-0.5-1.4-0.8l6.6-7.2l1.8,1.6l-4.9,5.3c0.7,0.5,1.3,1.2,1.7,1.9c0.4,0.8,0.6,1.8,0.6,3v16H599z
			 M593.7,2442.9c0.5,0,0.9-0.2,1.2-0.5c0.3-0.4,0.5-0.8,0.5-1.3c0-0.5-0.2-1-0.5-1.3c-0.3-0.3-0.7-0.5-1.3-0.5
			c-0.6,0-1,0.2-1.3,0.5s-0.5,0.8-0.5,1.3c0,0.5,0.2,1,0.5,1.3C592.8,2442.7,593.2,2442.9,593.7,2442.9z"/>
		<path class="st1" d="M606.7,2428.8v-9h2.6v9H606.7z"/>
		<path class="st1" d="M628.1,2441.3c0-0.8-0.1-1.6-0.4-2.3c-0.3-0.7-0.6-1.3-1.1-1.8s-1.1-0.9-1.9-1.1c-0.7-0.3-1.6-0.4-2.6-0.4
			c-1,0-1.8,0.2-2.6,0.5c-0.7,0.3-1.4,0.8-1.9,1.3c-0.5,0.6-0.9,1.2-1.2,2c-0.3,0.8-0.4,1.6-0.4,2.5h-2.5c0-1.2,0.2-2.3,0.6-3.3
			c0.4-1,0.9-1.9,1.7-2.7c0.7-0.8,1.6-1.4,2.7-1.8c1.1-0.4,2.2-0.7,3.6-0.7c1.4,0,2.7,0.2,3.7,0.5c1.1,0.4,1.9,0.9,2.7,1.5
			c0.7,0.7,1.3,1.5,1.6,2.4c0.4,1,0.5,2,0.5,3.2v13.9c0,0.6-0.1,1.1-0.3,1.6c-0.2,0.5-0.5,0.9-0.9,1.3c-0.4,0.4-0.8,0.7-1.3,0.9
			c-0.5,0.2-1,0.3-1.6,0.3c-0.6,0-1.1-0.1-1.6-0.3s-0.9-0.5-1.3-0.9c-0.4-0.4-0.7-0.8-0.9-1.3c-0.2-0.5-0.3-1-0.3-1.6
			c0-0.6,0.1-1.1,0.3-1.6c0.2-0.5,0.5-0.9,0.9-1.3c0.4-0.4,0.8-0.7,1.3-0.9c0.5-0.2,1-0.3,1.6-0.3c0.3,0,0.6,0,0.8,0
			c0.3,0,0.5,0.1,0.8,0.2V2441.3z M626.5,2457.1c0.5,0,1-0.2,1.4-0.6c0.4-0.4,0.5-0.8,0.5-1.4c0-0.5-0.2-1-0.5-1.3
			c-0.4-0.4-0.8-0.5-1.4-0.5c-0.5,0-1,0.2-1.4,0.5c-0.4,0.4-0.6,0.8-0.6,1.3c0,0.5,0.2,1,0.6,1.4S625.9,2457.1,626.5,2457.1z"/>
		<path class="st1" d="M647,2459l-11.8-13.1l1.7-1.7l10.5,11.5v-14.3c-0.2,0.1-0.5,0.2-0.7,0.2c-0.3,0-0.5,0-0.8,0
			c-0.6,0-1.1-0.1-1.6-0.3c-0.5-0.2-0.9-0.5-1.3-0.9c-0.4-0.4-0.7-0.8-0.9-1.3c-0.2-0.5-0.3-1-0.3-1.6c0-0.6,0.1-1.1,0.3-1.6
			c0.2-0.5,0.5-0.9,0.9-1.3c0.4-0.4,0.8-0.7,1.3-0.9c0.5-0.2,1-0.3,1.6-0.3c0.6,0,1.1,0.1,1.6,0.3c0.5,0.2,0.9,0.5,1.3,0.9
			c0.4,0.4,0.7,0.8,0.9,1.3c0.2,0.5,0.3,1,0.3,1.6v21.4H647z M645.8,2439.6c0.5,0,1-0.2,1.3-0.6s0.5-0.8,0.5-1.4
			c0-0.5-0.2-1-0.5-1.4s-0.8-0.5-1.3-0.5s-1,0.2-1.4,0.5c-0.4,0.4-0.5,0.8-0.5,1.4c0,0.5,0.2,1,0.5,1.4
			C644.8,2439.4,645.2,2439.6,645.8,2439.6z"/>
		<path class="st1" d="M657.2,2433.9h2.5v17.5c0.2-0.1,0.5-0.2,0.7-0.2c0.3,0,0.5,0,0.8,0c0.6,0,1.1,0.1,1.6,0.3
			c0.5,0.2,0.9,0.5,1.3,0.9c0.4,0.4,0.7,0.8,0.9,1.3c0.2,0.5,0.3,1,0.3,1.6c0,0.6-0.1,1.1-0.3,1.6c-0.2,0.5-0.5,0.9-0.9,1.3
			c-0.4,0.4-0.8,0.7-1.3,0.9c-0.5,0.2-1,0.3-1.6,0.3c-0.6,0-1.1-0.1-1.6-0.3s-0.9-0.5-1.3-0.9c-0.4-0.4-0.7-0.8-0.9-1.3
			c-0.2-0.5-0.3-1-0.3-1.6V2433.9z M661.3,2457.1c0.5,0,1-0.2,1.3-0.6s0.5-0.8,0.5-1.4c0-0.5-0.2-1-0.5-1.3
			c-0.4-0.4-0.8-0.5-1.3-0.5c-0.5,0-1,0.2-1.3,0.5c-0.3,0.4-0.5,0.8-0.5,1.3c0,0.5,0.2,1,0.5,1.4
			C660.3,2456.9,660.7,2457.1,661.3,2457.1z"/>
		<path class="st1" d="M681.5,2441.3c0-0.8-0.1-1.6-0.4-2.3c-0.3-0.7-0.6-1.3-1.1-1.8s-1.1-0.9-1.9-1.1c-0.7-0.3-1.6-0.4-2.6-0.4
			c-1,0-1.8,0.2-2.6,0.5c-0.7,0.3-1.4,0.8-1.9,1.3c-0.5,0.6-0.9,1.2-1.2,2c-0.3,0.8-0.4,1.6-0.4,2.5H667c0-1.2,0.2-2.3,0.6-3.3
			c0.4-1,0.9-1.9,1.7-2.7c0.7-0.8,1.6-1.4,2.7-1.8c1.1-0.4,2.2-0.7,3.6-0.7c1.4,0,2.7,0.2,3.7,0.5c1.1,0.4,1.9,0.9,2.7,1.5
			c0.7,0.7,1.3,1.5,1.6,2.4c0.4,1,0.5,2,0.5,3.2v13.9c0,0.6-0.1,1.1-0.3,1.6c-0.2,0.5-0.5,0.9-0.9,1.3c-0.4,0.4-0.8,0.7-1.3,0.9
			c-0.5,0.2-1,0.3-1.6,0.3c-0.6,0-1.1-0.1-1.6-0.3s-0.9-0.5-1.3-0.9c-0.4-0.4-0.7-0.8-0.9-1.3c-0.2-0.5-0.3-1-0.3-1.6
			c0-0.6,0.1-1.1,0.3-1.6c0.2-0.5,0.5-0.9,0.9-1.3c0.4-0.4,0.8-0.7,1.3-0.9c0.5-0.2,1-0.3,1.6-0.3c0.3,0,0.6,0,0.8,0
			c0.3,0,0.5,0.1,0.8,0.2V2441.3z M679.9,2457.1c0.5,0,1-0.2,1.4-0.6c0.4-0.4,0.5-0.8,0.5-1.4c0-0.5-0.2-1-0.5-1.3
			c-0.4-0.4-0.8-0.5-1.4-0.5c-0.5,0-1,0.2-1.4,0.5c-0.4,0.4-0.6,0.8-0.6,1.3c0,0.5,0.2,1,0.6,1.4S679.4,2457.1,679.9,2457.1z"/>
		<path class="st1" d="M706.5,2459v-9.9c0-0.7-0.1-1.3-0.4-1.9c-0.3-0.6-0.7-1.1-1.3-1.6c-0.6-0.5-1.3-0.8-2.1-1.1
			c-0.8-0.3-1.8-0.4-2.9-0.4c-1,0-1.8,0.1-2.6,0.4c-0.7,0.3-1.4,0.6-1.9,1.1c-0.5,0.5-0.9,1-1.1,1.7c-0.3,0.7-0.4,1.4-0.4,2.2v1.9
			c0.2-0.1,0.5-0.2,0.7-0.2c0.2,0,0.5,0,0.8,0c0.6,0,1.1,0.1,1.6,0.3c0.5,0.2,0.9,0.5,1.3,0.9c0.4,0.4,0.7,0.8,0.9,1.3
			c0.2,0.5,0.3,1,0.3,1.6c0,0.6-0.1,1.1-0.3,1.6c-0.2,0.5-0.5,0.9-0.9,1.3c-0.4,0.4-0.8,0.7-1.3,0.9c-0.5,0.2-1,0.3-1.6,0.3
			c-0.6,0-1.1-0.1-1.6-0.3s-0.9-0.5-1.3-0.9c-0.4-0.4-0.6-0.8-0.8-1.3c-0.2-0.5-0.3-1-0.3-1.6v-5.8c0-1.1,0.2-2.1,0.6-3
			c0.4-0.9,1-1.7,1.8-2.4c0.8-0.7,1.7-1.2,2.7-1.6c1-0.4,2.2-0.6,3.5-0.6c1.5,0,2.8,0.2,3.9,0.7c1,0.4,2,1.1,2.8,1.9v-3.5
			c0-0.7-0.2-1.4-0.5-2c-0.3-0.6-0.8-1.2-1.3-1.6c-0.6-0.5-1.3-0.8-2.2-1.1c-0.9-0.3-1.8-0.4-3-0.4c-1.4,0-2.5,0.1-3.4,0.4
			s-1.7,0.7-2.3,1.2s-1,1-1.3,1.6c-0.3,0.6-0.5,1.2-0.6,1.9h-2.4c0-1,0.3-1.9,0.8-2.8c0.5-0.9,1.1-1.7,2-2.3
			c0.8-0.7,1.9-1.2,3.1-1.6s2.6-0.6,4.1-0.6c1.4,0,2.7,0.2,3.9,0.5c1.2,0.4,2.2,0.9,3,1.5s1.5,1.4,1.9,2.4c0.5,0.9,0.7,1.9,0.7,3.1
			v18H706.5z M695.2,2457.1c0.5,0,1-0.2,1.4-0.6c0.4-0.4,0.5-0.8,0.5-1.4c0-0.5-0.2-1-0.5-1.3c-0.4-0.4-0.8-0.5-1.4-0.5
			s-1,0.2-1.3,0.5c-0.4,0.4-0.5,0.8-0.5,1.3c0,0.5,0.2,1,0.5,1.4C694.3,2456.9,694.7,2457.1,695.2,2457.1z"/>
		<path class="st1" d="M727.7,2459v-17.2c0-0.8-0.1-1.6-0.3-2.3c-0.2-0.7-0.5-1.4-1-1.9c-0.5-0.5-1-1-1.8-1.3
			c-0.7-0.3-1.6-0.5-2.6-0.5c-0.9,0-1.8,0.1-2.4,0.4c-0.7,0.3-1.2,0.6-1.7,1.1c-0.5,0.5-0.8,1-1.1,1.6c-0.3,0.6-0.4,1.3-0.5,2h-2.5
			c0.1-1.1,0.3-2.1,0.7-3c0.4-0.9,0.9-1.7,1.6-2.3c0.7-0.7,1.5-1.2,2.5-1.5c1-0.4,2.1-0.5,3.5-0.5c1.4,0,2.7,0.2,3.7,0.6
			c1,0.4,1.9,1,2.5,1.7c0.7,0.7,1.1,1.6,1.5,2.6c0.3,1,0.5,2.1,0.5,3.3v17.2H727.7z"/>
	</g>
</g>
</svg>
