<?xml version="1.0" encoding="utf-8"?>
<!-- Generator: Adobe Illustrator 24.2.3, SVG Export Plug-In . SVG Version: 6.00 Build 0)  -->
<svg version="1.1" id="Layer_1" xmlns="http://www.w3.org/2000/svg" xmlns:xlink="http://www.w3.org/1999/xlink" x="0px" y="0px"
	 viewBox="0 0 598 131" style="enable-background:new 0 0 598 131;" xml:space="preserve">
<style type="text/css">
	.st0{enable-background:new    ;}
	.st1{fill:#F8EFD7;}
</style>
<g class="st0">
	<path class="st1" d="M8.4,84.1l-0.7,0.6l-0.4,0.2c-0.4,0.1-0.6,0-0.6-0.3C6,82.7,5.5,81,5,79.5c-0.5-1.5-0.8-2.9-1-4.2
		c-0.2-1.3-0.3-2.7-0.2-4.2c0-1.4,0.2-3.1,0.5-5c0.3-1.9,0.7-4.1,1.2-6.6C6,57,6.7,54,7.4,50.4c0.1-0.5-0.1-0.8-0.4-1.1
		c-0.4-0.2-0.8-0.4-1.4-0.5c-0.6-0.1-1.2-0.1-1.8,0c-0.6,0.1-1.1,0.1-1.5,0.2c-0.3,0.1-0.7,0.2-1,0.1c-0.3-0.1-0.3-0.3,0-0.7L4.6,44
		c0.1-0.2,0.3-0.3,0.6-0.3c0.3,0,0.5-0.1,0.8-0.1c0.7,0,1.5,0.1,2.3,0.3c0.8,0.2,1.5,0.5,2.2,1c0.6,0.5,1.1,1.1,1.5,1.9
		c0.4,0.8,0.4,1.8,0.2,2.9L9.8,65.4c-0.1,1.1-0.1,2.1,0,3c0.1,1,0.2,1.8,0.4,2.5c0.2,0.7,0.4,1.3,0.6,1.8c0.2,0.4,0.3,0.6,0.3,0.5
		l5.6-23.9c0-0.3,0.1-0.5,0.3-0.7l3.4-4.5c0.2-0.5,0.6-0.6,1.1-0.5c0.7,0.1,1.3,0.4,2,0.9c0.6,0.5,1.2,1,1.8,1.7
		c0.5,0.7,1,1.4,1.4,2.1c0.4,0.7,0.5,1.4,0.5,2.1v27.3c-0.1,0.7-0.3,1.3-0.7,1.7l-4.2,5.1c-0.3,0.3-0.5,0.4-0.7,0.2
		c-0.2-0.2-0.3-0.4-0.3-0.8v-0.6V50.7l-0.3-0.8L14,78.4L8.4,84.1z"/>
	<path class="st1" d="M27.5,33.8L23,38c-0.8,0.6-1.6,0.7-2.6,0.4c-0.9-0.3-1.7-0.9-2.5-1.6c-0.8-0.7-1.4-1.6-1.8-2.6
		c-0.4-1-0.6-1.9-0.5-2.7c0-0.3,0-0.6,0.1-0.7c0.1-0.1,0.2-0.3,0.4-0.4l4.6-4.2c0.8-0.6,1.6-0.8,2.4-0.5c0.8,0.2,1.5,0.7,2.1,1.3
		c0.7,0.6,1.2,1.4,1.8,2.2c0.5,0.9,0.9,1.7,1.2,2.4c0.2,0.5,0.2,1,0,1.3C28,33.2,27.8,33.5,27.5,33.8z M24.2,33.9
		c0.1-0.6-0.1-1.2-0.4-1.9c-0.4-0.7-0.8-1.2-1.4-1.7c-0.5-0.5-1.1-0.8-1.6-0.8c-0.6-0.1-1,0.2-1.2,0.8c-0.1,0.6,0.1,1.2,0.4,1.9
		c0.4,0.7,0.8,1.2,1.4,1.7c0.5,0.5,1.1,0.8,1.6,0.8C23.4,34.8,23.9,34.6,24.2,33.9z"/>
	<path class="st1" d="M40.8,49.5h-8.5c-0.6-0.1-0.7-0.4-0.4-0.9l3.6-4.6c0.3-0.3,0.6-0.4,0.9-0.4h9.4c0.6,0,0.9,0.3,0.9,0.8v34.9
		c0,0.3-0.1,0.6-0.3,0.8l-4.9,4.7c-0.4,0.2-0.6,0.1-0.7-0.2V49.5z"/>
	<path class="st1" d="M58.2,39c0.4-1.2,0.8-2.2,1.4-3.2c0.5-1,1.1-1.8,1.6-2.6c0.5-0.8,1-1.4,1.4-1.9c0.3-0.5,0.5-1,0.4-1.6
		c-0.1-0.6-0.3-1.2-0.6-1.9c-0.4-0.6-0.8-1.1-1.4-1.5c-0.5-0.4-1.1-0.6-1.7-0.6c-0.4,0-0.8,0.2-1.3,0.5c-0.5,0.4-0.9,0.8-1.3,1.3
		s-0.8,1-1.2,1.5c-0.4,0.5-0.7,1-1,1.3c-0.7,0.7-1.1,0.7-1.3,0c-0.3-0.7-0.7-1.5-1.2-2.2c-0.5-0.7-1.1-1.3-1.7-1.8
		c-0.6-0.5-1.2-0.7-1.9-0.8c-0.6,0-1.2,0.3-1.8,1c-0.3,0.4-0.5,0.5-0.6,0.2c-0.2-0.2-0.1-0.5,0.2-0.9l3-4.7c0.4-0.7,0.9-1,1.5-1
		c0.6,0,1.3,0.2,2,0.6c0.7,0.4,1.4,1,2.1,1.8c0.7,0.7,1.4,1.5,2,2.4c0.4-0.4,0.8-0.9,1.2-1.5c0.4-0.6,0.8-1.1,1.2-1.6
		c0.4-0.5,0.9-0.9,1.4-1.2c0.5-0.3,1-0.4,1.6-0.4c0.9,0.1,1.7,0.5,2.5,1.2c0.8,0.6,1.6,1.4,2.1,2.2c0.6,0.9,1.1,1.7,1.4,2.6
		c0.3,0.9,0.5,1.6,0.5,2.1c0,0.8-0.3,1.6-1,2.5c-0.7,0.8-1.4,1.5-1.9,2.1c-0.5,0.6-1,1.2-1.3,1.9c-0.4,0.6-0.6,1.3-0.8,2.1
		c-0.2,0.8-0.2,1.8-0.2,3v37.9c0.1,0.9,0.5,1.5,1.1,2c0.7,0.4,1.5,0.5,2.2,0.3c0.3-0.1,0.7-0.2,1-0.2s0.3,0.2,0,0.5l-3.6,3.7
		C64,84.8,63.5,85,62.9,85c-1.2,0-2.4-0.6-3.5-1.8c-1.1-1.2-1.7-2.9-1.7-5V42.5C57.7,41.3,57.9,40.1,58.2,39z"/>
	<path class="st1" d="M89.2,48.5l4.9-4.7c0.5-0.3,0.7-0.3,0.7,0.2v35.3c0,0.4-0.1,0.6-0.3,0.7l-4.2,4.1l-0.6,0.6
		C89.2,85,89,85,88.9,84.6c-0.2-1.1-0.7-2.3-1.6-3.6c-0.9-1.3-1.8-2.4-2.9-3.3c-1-1-2-1.7-3-2.3c-0.9-0.6-1.5-0.7-1.8-0.4l-0.5,0.4
		v5.4c0.1,0.3,0,0.5-0.3,0.8l-5,3.3c-0.4,0.3-0.7,0.3-0.8-0.2c-0.3-1.4-0.6-2.7-1-4c-0.4-1.3-1.1-2.3-2-3.1
		c-0.5-0.3-0.4-0.7,0.2-1.1l2.8-1.6v-23c0-0.5,0-0.9,0.1-1.2c0.1-0.3,0.2-0.7,0.4-1c0.1-0.8-0.2-1.3-1-1.5c-0.8-0.2-1.6-0.2-2.4,0.1
		c-0.3,0.1-0.7,0.1-1,0.1c-0.3,0-0.3-0.1,0-0.5l3.6-3.7c0.3-0.3,0.8-0.5,1.4-0.5s1.2,0.1,1.9,0.4c0.7,0.3,1.3,0.6,1.9,1
		c0.5,0.4,1,1,1.2,1.5c0.3,0.6,0.4,1.3,0.1,2c-0.3,0.9-0.4,1.9-0.4,3l0.2,20l1.4-0.7c1.1-0.7,2-1,2.9-0.9c0.8,0.1,1.6,0.3,2.2,0.8
		c0.6,0.5,1.2,1,1.8,1.7c0.5,0.6,1,1.2,1.5,1.6V49.2C88.9,48.9,89,48.7,89.2,48.5z"/>
	<path class="st1" d="M102.6,71.7v-9.3c0-1.1-0.2-2-0.8-2.9c-0.5-0.8-1-1.6-1.5-2.5c-0.5-0.8-0.8-1.6-1-2.4s0-1.7,0.7-2.7l5.3-8
		c0.2-0.3,0.5-0.4,1-0.4h13c3.7,0,5.6,2.2,5.7,6.5v27.8c0,0.7-0.2,1.2-0.7,1.7l-4.2,5.1c-0.3,0.3-0.5,0.4-0.7,0.2
		c-0.2-0.2-0.3-0.4-0.3-0.8V52c0-0.9-0.3-1.6-0.8-2c-0.5-0.4-1.2-0.6-2.1-0.6h-11.6l-1.2,1.9c-0.3,0.7-0.4,1.2-0.3,1.8
		c0.1,0.5,0.4,1,0.7,1.5c0.3,0.5,0.8,0.9,1.3,1.3c0.5,0.4,1,0.9,1.5,1.4c0.9-1.7,2.2-3.1,3.9-4.4c0.3-0.1,0.5-0.2,0.6-0.2
		c0.1,0,0.3-0.1,0.7-0.1c1.5-0.1,2.8,0.6,3.7,2.1c0.9,1.5,1.8,3.7,2.5,6.5c0.1,0.5,0.1,0.8,0,1c-0.1,0.1-0.2,0.2-0.4,0.3l-3.1,2.7
		c-0.3,0.3-0.6,0.5-0.8,0.6c-0.2,0.1-0.3,0-0.3-0.3c-0.5-2.9-1.1-4.9-1.6-6.2c-0.5-1.3-1-1.9-1.4-2c-0.4-0.1-0.9,0.3-1.2,1.1
		c-0.4,0.8-0.7,1.9-0.9,3.1v11.5c0,0.6,0,1.3,0,2.1c0,0.8,0.1,2.3,0.1,4.4c0,0.3-0.1,0.6-0.3,0.8l-4.9,4.7c-0.5,0.3-0.7,0.2-0.7-0.2
		V72.1V71.7z"/>
	<path class="st1" d="M155.9,79.3c0.3,0.3,0.5,0.6,0.5,0.8c0,0.2-0.2,0.4-0.4,0.5l-3.6,4c-0.2,0.2-0.4,0.4-0.5,0.5
		c-0.1,0.1-0.4,0-0.7-0.5c-0.5-0.6-1.1-1.2-1.8-1.8c-0.7-0.6-1.5-1.2-2.3-1.7c-0.8-0.5-1.7-0.8-2.6-0.8c-0.9-0.1-1.9,0.1-2.9,0.5
		c-0.7,0.3-1.6,0.9-2.6,1.5c-1,0.7-2.2,1.6-3.5,2.7c-0.2,0.1-0.5,0-0.9-0.2c-0.4-0.3-0.8-0.7-1.1-1.2c-0.4-0.5-0.8-0.9-1.1-1.4
		c-0.3-0.5-0.5-0.9-0.6-1.2c-0.5-1.2-0.7-2.5-0.8-4c-0.1-1.5,0-3,0.3-4.5l3.1-21.9c0-0.5-0.2-0.8-0.6-1c-0.4-0.2-0.9-0.4-1.4-0.5
		c-0.5-0.1-1.1-0.1-1.6-0.1c-0.6,0-1,0.1-1.5,0.2c-0.3,0.1-0.7,0.2-1,0.1c-0.3-0.1-0.3-0.3,0-0.6l2.9-4.4c0.2-0.3,0.4-0.4,0.7-0.4
		c0.3,0,0.5-0.1,0.8-0.1c0.8,0,1.6,0.1,2.4,0.3c0.8,0.2,1.5,0.5,2.1,1c0.6,0.5,1.1,1.1,1.5,1.8c0.4,0.8,0.5,1.7,0.5,2.8l-1.8,21.6
		c-0.2,2.1-0.2,3.9-0.1,5.5c0.1,1.6,0.7,2.8,1.9,3.5c0.5-0.3,1.1-0.7,1.9-1.2c0.8-0.5,1.6-1.1,2.5-1.6c0.8-0.5,1.6-0.9,2.4-1.2
		c0.8-0.3,1.4-0.4,1.9-0.2V49.1c0-0.3,0.1-0.5,0.3-0.7l4.9-4.7c0.4-0.2,0.6-0.1,0.7,0.2v27c0,0.3-0.1,0.6-0.3,0.8l-4.4,4.2
		c1.3,0.1,2.5,0.5,3.7,1.1C153.8,77.6,154.9,78.4,155.9,79.3z"/>
	<path class="st1" d="M161.2,59c-0.1-1.8-0.3-3.2-0.8-4.3c-0.5-1.1-1.4-1.7-2.9-1.8c-0.7,0-0.9-0.3-0.5-0.9l7-8
		c0.2-0.3,0.5-0.4,0.9-0.4h17.8c0.7-0.1,1,0.2,1,0.8v33.5c-0.1,0.8-0.4,1.4-0.7,1.7l-4.2,5.1c-0.3,0.3-0.6,0.4-0.8,0.2
		c-0.2-0.2-0.2-0.4-0.2-0.8v-0.6V49.4h-14.9l-0.6,0.8c2.1,0.7,3.4,1.7,4,3c0.6,1.3,0.8,2.9,0.8,4.8v17.5l-0.3,2.7
		c0,0.4,0.2,0.8,0.7,1.1c0.5,0.3,1,0.6,1.6,0.8c0.6,0.2,1.2,0.4,1.9,0.5c0.6,0.1,1.1,0.1,1.5,0c0.3-0.1,0.6-0.2,1-0.2
		c0.3,0,0.3,0.2,0,0.5l-3.7,3.7c-0.3,0.3-0.9,0.5-1.9,0.5c-1,0-2-0.2-3.1-0.7c-1.1-0.4-2-1.1-2.8-2.1c-0.8-1-1.2-2.3-1.2-4l0.4-2.5
		V59z"/>
	<path class="st1" d="M183.2,33.2l-3.3,3.1c-0.1,0.1-0.2,0.2-0.3,0.2c-0.1,0-0.2-0.2-0.4-0.5l-0.2-0.4c-0.6-1.1-1.6-2.2-3.1-3.1
		c-1.5-1-3-1.8-4.6-2.4c-1.6-0.6-3.1-0.9-4.5-1c-1.4-0.1-2.2,0.2-2.4,0.9c-0.1,0.3-0.1,0.7,0.2,1.2c0.3,0.4,0.7,0.8,1.2,1.2
		c0.5,0.4,1,0.7,1.6,1c0.6,0.3,1.1,0.4,1.5,0.5c0.4,0.1,0.6,0.1,0.5,0.1c-0.1,0-0.2,0.1-0.3,0.2l-3,2.2c-0.3,0.2-0.7,0.3-1,0.3
		c-1.1-0.1-2-0.3-2.7-0.6c-0.7-0.4-1.3-0.8-1.8-1.3s-0.9-1-1.1-1.5c-0.2-0.5-0.4-1-0.4-1.4c0-0.5,0.2-1,0.7-1.5l6.8-4.9
		c0.7-0.5,1.6-0.8,2.8-0.8c1.2,0,2.4,0.2,3.8,0.7c0-0.1,0-0.2,0.1-0.3c0-0.3,0.1-0.6,0.4-0.9l3.7-3.4c0.7-0.5,1.3-0.6,1.9-0.5
		c0.6,0.2,1.2,0.5,1.8,1.1c0.6,0.5,1,1.1,1.4,1.8s0.7,1.3,0.9,2c0.1,0.5,0.2,0.8,0.1,1.1c-0.1,0.3-0.2,0.5-0.5,0.7l-2.4,2.1
		c1.4,1,2.3,1.9,2.7,2.8c0.3,0.4,0.4,0.7,0.3,0.8C183.5,32.8,183.4,33,183.2,33.2z M180.2,27c0.1-0.5-0.1-1-0.4-1.5
		c-0.3-0.5-0.7-1-1.1-1.4c-0.4-0.4-0.9-0.6-1.3-0.7c-0.4-0.1-0.8,0.2-1.1,0.7c-0.1,0.5,0.1,1,0.4,1.6c0.3,0.6,0.7,1,1.1,1.4
		c0.4,0.4,0.9,0.6,1.3,0.7C179.6,27.8,179.9,27.5,180.2,27z"/>
	<path class="st1" d="M209.7,51.2v26.2c0,0.5-0.2,1-0.7,1.5l-5.8,5.4c-0.3,0.3-0.6,0.4-1,0.5c-0.4,0.1-0.8,0.1-1.2,0.2
		c-1.9,0.1-3.6-0.1-5.2-0.7c-1.6-0.6-3-1.5-4.2-2.6c-1.2-1.1-2-2.5-2.5-4c-0.5-1.5-0.6-3.2-0.2-4.9l3.6-17.4
		c0.1-0.3,0.3-0.9,0.6-1.6c0.3-0.7,0.7-1.4,1.1-2c0.4-0.6,0.7-0.9,0.9-1.1c0.3-0.2,0.4,0.1,0.3,0.8l-1.9,21.4
		c-0.1,1.3,0.4,2.5,1.2,3.7c0.9,1.2,2,2.2,3.2,2.9c1.2,0.7,2.4,1.1,3.5,1.1c1.2,0,2-0.6,2.5-1.7V51.7c-0.1-0.5-0.1-0.9,0-1.2
		s0.2-0.6,0.4-1c0.1-0.8-0.2-1.3-1-1.5c-0.8-0.2-1.6-0.1-2.3,0c-0.4,0.1-0.8,0.2-1,0.2s-0.3-0.2,0-0.6l3.6-3.7
		c0.2-0.2,0.4-0.3,0.6-0.3c0.2,0,0.5-0.1,0.8-0.1c0.6,0.1,1.2,0.2,2,0.5c0.7,0.2,1.3,0.6,1.9,1c0.5,0.4,0.9,1,1.2,1.5
		c0.3,0.6,0.4,1.3,0.1,2c-0.1,0.4-0.2,0.8-0.3,1.2c-0.1,0.4-0.1,0.8-0.1,1.3V51.2z"/>
	<path class="st1" d="M229.8,55.4c0-0.3,0-0.8-0.1-1.4c-0.1-0.6-0.4-0.8-1.1-0.7c-0.4,0.1-0.6,0-0.6-0.3c0-0.3,0.1-0.5,0.4-0.8
		l1.6-1.9v-9.5c0-0.3,0.1-0.5,0.3-0.7l4.8-4.7c0.5-0.3,0.7-0.2,0.8,0.2v10.9c0,0.3-0.1,0.6-0.3,0.8l-4.2,4c1.2,0.1,2.2,0.6,3.2,1.5
		c0.9,0.9,1.3,2.1,1.3,3.6v20.8c-0.1,0.6-0.3,1.1-0.7,1.5l-6.5,5.5c-0.3,0.3-0.5,0.4-0.6,0.5c-0.2,0.1-0.5,0.1-1,0.2
		c-2.3,0.3-4.3,0.1-5.9-0.6c-1.6-0.6-2.9-1.5-3.8-2.8c-0.9-1.2-1.5-2.6-1.8-4.2c-0.2-1.6-0.1-3.3,0.5-5.1l6.2-22
		c-0.1-0.3-0.5-0.6-1.2-0.8c-0.7-0.2-1.2-0.4-1.6-0.5v5.2c0,0.3-0.1,0.5-0.3,0.7l-4.2,4.7c-0.3,0.3-0.6,0.2-0.7-0.2V49.3
		c0-0.3,0.1-0.5,0.3-0.7l3.9-4.5c0.1-0.3,0.3-0.4,0.6-0.4c0.3,0,0.5-0.1,0.8-0.1c0.8,0,1.7,0.1,2.6,0.4c0.9,0.2,1.8,0.6,2.5,1
		c0.7,0.5,1.3,1.1,1.7,1.8c0.4,0.7,0.5,1.6,0.3,2.6l-4.8,21.5c-0.6,2.5-0.4,4.7,0.5,6.5c0.9,1.8,2.5,2.8,4.6,3c1.1,0,2-0.4,2.5-1.3
		V55.4z"/>
	<path class="st1" d="M241.7,74.3V57c0.1-0.3,0.1-0.6,0.2-0.8s0.2-0.4,0.4-0.6l3.9-3.1c0.3-0.3,0.6-0.4,0.7-0.4c0.1,0,0.4,0,0.7-0.1
		c0.9,0,2.2,0.2,3.7,0.5c1.5,0.3,2.9,0.9,4.2,1.8c0.5,0.3,0.6,0.6,0.5,0.8c-0.1,0.2-0.2,0.4-0.5,0.5l-2.8,2.9
		c-0.2,0.2-0.4,0.2-0.5,0c-0.1-0.2-0.3-0.4-0.8-0.6c-0.4-0.3-0.8-0.5-1.3-0.8c-0.5-0.3-0.9-0.4-1.3-0.5c-0.4-0.1-0.7-0.1-1,0
		c-0.3,0.1-0.4,0.5-0.4,1.1V73c0.1,1.4,0.7,2.7,1.7,3.8s2.1,1.9,3.3,2.5c1.2,0.6,2.4,0.8,3.5,0.8c1.1,0,1.9-0.5,2.2-1.2V49.4h-14.4
		c-0.7,0-0.8-0.3-0.4-0.9l3.6-4.6c0.2-0.2,0.5-0.3,0.9-0.3h15.2c0.7-0.1,1,0.1,1,0.7v33c0,0.6-0.2,1.1-0.6,1.5l-6.6,5.4
		c-0.3,0.2-0.6,0.3-0.7,0.5c-0.1,0.1-0.4,0.2-0.9,0.2c-1.7,0.2-3.4,0.1-5-0.4c-1.6-0.4-3-1.1-4.3-2c-1.3-0.9-2.3-2.1-3.1-3.5
		C242.2,77.6,241.8,76,241.7,74.3z"/>
	<path class="st1" d="M287.2,48.4l4.9-4.6c0.4-0.3,0.6-0.2,0.7,0.1v33.3c0,0.3-0.1,0.6-0.2,0.8c-0.1,0.2-0.3,0.4-0.5,0.7l-6.5,5.4
		c-0.3,0.2-0.5,0.3-0.6,0.4c-0.1,0.1-0.5,0.2-1,0.3c-2.3,0.3-4.4,0.2-6.2-0.4c-1.8-0.6-3.3-1.5-4.5-2.8c-1.2-1.2-2.1-2.7-2.6-4.4
		s-0.6-3.5-0.4-5.2l3.1-21.6c0.1-0.4-0.1-0.7-0.5-1c-0.4-0.2-0.9-0.4-1.4-0.5c-0.5-0.1-1.1-0.1-1.7-0.1c-0.6,0-1.1,0.1-1.5,0.2
		c-0.4,0.1-0.8,0.2-1,0.1c-0.3-0.1-0.3-0.3,0-0.7l2.9-4.3c0.1-0.3,0.3-0.4,0.6-0.4c0.3,0,0.5-0.1,0.8-0.1c0.8,0,1.6,0.1,2.4,0.3
		c0.8,0.2,1.6,0.5,2.2,1c0.6,0.5,1.1,1.1,1.5,1.8c0.4,0.8,0.5,1.7,0.5,2.8l-1.8,21.1c-0.1,1.3,0,2.6,0.4,3.7c0.4,1.1,1,2.1,1.7,3
		c0.7,0.8,1.5,1.5,2.5,2.1c1,0.6,2,0.9,3.1,1c1.3,0.1,2.2-0.4,2.7-1.6V49.2C286.9,48.9,287,48.6,287.2,48.4z"/>
	<path class="st1" d="M304.2,39c0.4-1.2,0.8-2.2,1.3-3.2c0.5-1,1.1-1.8,1.6-2.6c0.5-0.8,1-1.4,1.4-1.9c0.3-0.5,0.5-1,0.4-1.6
		c-0.1-0.6-0.3-1.2-0.7-1.9c-0.4-0.6-0.8-1.1-1.3-1.5c-0.5-0.4-1.1-0.6-1.7-0.6c-0.4,0-0.8,0.2-1.3,0.5c-0.5,0.4-0.9,0.8-1.3,1.3
		s-0.8,1-1.2,1.5c-0.4,0.5-0.7,1-1,1.3c-0.7,0.7-1.1,0.7-1.3,0c-0.3-0.7-0.7-1.5-1.2-2.2c-0.5-0.7-1.1-1.3-1.7-1.8
		c-0.6-0.5-1.2-0.7-1.9-0.8c-0.6,0-1.2,0.3-1.8,1c-0.3,0.4-0.5,0.5-0.6,0.2c-0.2-0.2-0.1-0.5,0.2-0.9l3-4.7c0.4-0.7,0.9-1,1.5-1
		c0.6,0,1.3,0.2,2,0.6c0.7,0.4,1.4,1,2.1,1.8c0.7,0.7,1.4,1.5,2,2.4c0.4-0.4,0.8-0.9,1.2-1.5c0.4-0.6,0.8-1.1,1.2-1.6
		s0.9-0.9,1.4-1.2c0.5-0.3,1-0.4,1.6-0.4c0.9,0.1,1.7,0.5,2.5,1.2c0.8,0.6,1.6,1.4,2.2,2.2c0.6,0.9,1.1,1.7,1.4,2.6
		c0.3,0.9,0.5,1.6,0.5,2.1c0,0.8-0.3,1.6-1,2.5c-0.7,0.8-1.4,1.5-1.9,2.1c-0.5,0.6-1,1.2-1.3,1.9c-0.4,0.6-0.6,1.3-0.8,2.1
		s-0.2,1.8-0.2,3v37.9c0.1,0.9,0.5,1.5,1.2,2c0.7,0.4,1.5,0.5,2.2,0.3c0.3-0.1,0.7-0.2,1-0.2s0.3,0.2,0,0.5l-3.6,3.7
		c-0.3,0.3-0.8,0.5-1.4,0.5c-1.2,0-2.4-0.6-3.5-1.8c-1.1-1.2-1.7-2.9-1.7-5V42.5C303.7,41.3,303.9,40.1,304.2,39z"/>
	<path class="st1" d="M334.2,34.3l4.8-4.7c0.4-0.3,0.7-0.3,0.8,0.2v47.4c-0.1,0.5-0.3,1-0.7,1.5l-6.5,5.4c-0.3,0.2-0.5,0.4-0.6,0.5
		c-0.2,0.1-0.5,0.2-1,0.2c-2.4,0.3-4.5,0.2-6.3-0.3c-1.8-0.6-3.3-1.5-4.5-2.7c-1.2-1.2-2-2.6-2.5-4.3c-0.5-1.7-0.6-3.4-0.3-5.2
		l3.2-22c-0.1-0.4-0.3-0.7-0.7-1c-0.4-0.2-0.9-0.4-1.4-0.5c-0.5-0.1-1.1-0.1-1.7-0.1c-0.6,0-1,0.1-1.4,0.2c-0.3,0.1-0.7,0.2-1,0.1
		c-0.3-0.1-0.3-0.3,0.1-0.7l2.9-4.3c0.1-0.3,0.3-0.4,0.6-0.5c0.3,0,0.5,0,0.8,0c0.8,0,1.6,0.1,2.4,0.3c0.8,0.2,1.5,0.5,2.2,1
		c0.7,0.4,1.2,1,1.5,1.8c0.3,0.8,0.5,1.7,0.4,2.9l-1.8,21.5c-0.1,1.3,0,2.5,0.4,3.6c0.4,1.1,1,2,1.7,2.9c0.7,0.8,1.6,1.5,2.6,2
		c1,0.5,2,0.8,3,0.9c1.3,0.1,2.3-0.4,2.8-1.6V35C333.9,34.7,334,34.5,334.2,34.3z"/>
	<path class="st1" d="M345.7,47.9c-0.1-0.3,0-0.6,0.2-0.8l5-3.4c0.5-0.2,0.7-0.1,0.7,0.2v9.8V76c0.1,0.5,0.1,1,0,1.6
		c-0.1,0.6-0.2,1.1-0.4,1.4c-0.1,0.8,0.2,1.3,1,1.5c0.8,0.2,1.6,0.1,2.4,0c0.3-0.1,0.7-0.2,1-0.2s0.3,0.2,0,0.6l-3.6,3.7
		c-0.2,0.2-0.4,0.3-0.7,0.4s-0.5,0.1-0.7,0.1c-0.6,0-1.2-0.1-2-0.4c-0.7-0.3-1.3-0.6-1.9-1c-0.5-0.4-1-1-1.3-1.6
		c-0.3-0.6-0.4-1.3-0.2-2c0.1-0.5,0.2-1.2,0.3-1.9s0.1-1.3,0.1-1.8V47.9z"/>
	<path class="st1" d="M363.2,84.1l-0.7,0.6l-0.4,0.2c-0.4,0.1-0.6,0-0.6-0.3c-0.7-1.9-1.2-3.6-1.7-5.1c-0.5-1.5-0.8-2.9-1-4.2
		c-0.2-1.3-0.3-2.7-0.2-4.2c0-1.4,0.2-3.1,0.5-5c0.3-1.9,0.7-4.1,1.2-6.6c0.6-2.5,1.2-5.5,1.9-9.1c0.1-0.5-0.1-0.8-0.4-1.1
		c-0.4-0.2-0.8-0.4-1.4-0.5c-0.6-0.1-1.2-0.1-1.8,0c-0.6,0.1-1.1,0.1-1.5,0.2c-0.3,0.1-0.7,0.2-1,0.1c-0.3-0.1-0.3-0.3,0-0.7
		l3.4-4.4c0.1-0.2,0.3-0.3,0.6-0.3c0.3,0,0.5-0.1,0.8-0.1c0.7,0,1.5,0.1,2.3,0.3c0.8,0.2,1.5,0.5,2.2,1c0.6,0.5,1.1,1.1,1.5,1.9
		c0.4,0.8,0.4,1.8,0.2,2.9l-2.4,15.7c-0.1,1.1-0.2,2.1,0,3c0.1,1,0.2,1.8,0.4,2.5c0.2,0.7,0.4,1.3,0.6,1.8c0.2,0.4,0.3,0.6,0.3,0.5
		l5.6-23.9c0-0.3,0.1-0.5,0.3-0.7l3.4-4.5c0.2-0.5,0.6-0.6,1.1-0.5c0.7,0.1,1.3,0.4,2,0.9c0.6,0.5,1.2,1,1.8,1.7
		c0.5,0.7,1,1.4,1.3,2.1c0.4,0.7,0.5,1.4,0.5,2.1v27.3c-0.1,0.7-0.3,1.3-0.7,1.7l-4.2,5.1c-0.3,0.3-0.5,0.4-0.7,0.2
		c-0.2-0.2-0.3-0.4-0.3-0.8v-0.6V50.7l-0.3-0.8l-6.8,28.5L363.2,84.1z"/>
	<path class="st1" d="M375.4,36.6c-0.6-1.1-1.6-2.2-2.9-3.2c-1.3-1-2.7-1.8-4.2-2.4c-1.4-0.6-2.7-0.9-3.9-1
		c-1.2-0.1-1.9,0.2-2.2,0.9c-0.1,0.4,0,0.8,0.2,1.2s0.7,0.8,1.2,1.2c0.5,0.4,1,0.7,1.6,1c0.6,0.3,1.1,0.4,1.6,0.5
		c0.5,0,0.6,0,0.5,0.1c-0.1,0.1-0.2,0.2-0.3,0.3l-2.9,2.2c-0.3,0.2-0.7,0.3-1.1,0.3c-2.1-0.2-3.6-0.9-4.5-2c-0.9-1.2-1.4-2.2-1.4-3
		c0-0.3,0.1-0.6,0.2-0.8c0.1-0.2,0.3-0.4,0.5-0.6l6.7-5c0.6-0.4,1.3-0.6,2.2-0.7c0.9,0,1.8,0.1,2.8,0.3c1,0.3,2,0.7,3.1,1.2
		c1.1,0.5,2.1,1.1,3,1.8v-1.9c0-0.3,0.1-0.6,0.3-0.8l4.9-4.7c0.5-0.2,0.7-0.1,0.7,0.2v9.8v0.3c0,0.3-0.1,0.6-0.3,0.8l-4.8,4.7
		C376.1,37.8,375.7,37.5,375.4,36.6z"/>
	<path class="st1" d="M376.1,8.5l4.9-4.7c0.4-0.3,0.6-0.2,0.7,0.1V14c0,0.3-0.1,0.6-0.3,0.8l-4.8,4.7c-0.5,0.2-0.7,0.1-0.8-0.2V9.2
		C375.8,8.9,375.9,8.6,376.1,8.5z"/>
	<path class="st1" d="M394.9,44.2c0.3-0.3,0.6-0.4,0.7-0.5c0.1-0.1,0.4-0.1,0.8-0.1c0.9,0,2.1,0.3,3.5,0.9c1.4,0.6,2.7,1.3,3.9,2.2
		c0.4,0.3,0.5,0.6,0.4,0.8c-0.1,0.2-0.3,0.3-0.5,0.5l-2.7,2.9c-0.3,0.2-0.4,0.3-0.5,0.4c-0.1,0.1-0.4,0-0.8-0.3
		c-1.3-0.9-2.5-1.5-3.6-2c-1.1-0.5-2-0.5-2.7,0.1c-0.6,0.5-0.9,1.2-0.8,2c0.1,0.8,0.3,1.6,0.8,2.2c0.5,0.7,1,1.3,1.7,1.7
		c0.7,0.4,1.3,0.5,2,0.4c0.2,0,0.3,0,0.4-0.1l1-1c0.2-0.2,0.4-0.3,0.6-0.3c0.2,0.1,0.3,0.3,0.3,0.6c0,0.3-0.2,1.1-0.6,2.4
		c-0.4,1.2-1,3.1-1.9,5.6c-0.9,2.5-2,6-3.5,10.4c0.1,1.4,0.7,2.7,1.7,3.8s2.1,1.9,3.4,2.5c1.2,0.6,2.4,0.8,3.5,0.8
		c1.1,0,1.8-0.5,2.1-1.2V49.4c0-0.3,0.1-0.6,0.3-0.7l4.9-4.7c0.5-0.3,0.7-0.3,0.7,0.1v27.1v6.1c0,0.3-0.1,0.6-0.2,0.8
		c-0.1,0.2-0.3,0.4-0.5,0.6l-6.5,5.5c-0.3,0.2-0.5,0.3-0.7,0.5c-0.2,0.1-0.5,0.2-1,0.2c-1.7,0.2-3.4,0.1-5-0.4c-1.6-0.4-3-1.1-4.2-2
		c-1.2-0.9-2.2-2.1-3-3.5c-0.8-1.4-1.2-3-1.3-4.7l7-14.6c-0.7,0.2-1.4,0.2-2.2,0.1c-1.1-0.2-2.2-0.7-3.2-1.5s-1.8-1.7-2.3-2.8
		c-0.5-1.1-0.8-2.1-0.7-3.2c0.1-1,0.7-1.9,1.8-2.6L394.9,44.2z"/>
	<path class="st1" d="M415.9,77.6l3.7-1.9c0.3-0.2,0.6-0.4,0.8-0.5c0.2-0.1,0.3,0,0.5,0.3L421,76c0.6,1.1,1.4,1.9,2.4,2.6
		c1,0.7,2.1,1.1,3.2,1.4c1.1,0.3,2,0.3,2.9,0c0.9-0.2,1.5-0.7,1.8-1.5V49.4h-15.6c-0.7,0-0.9-0.3-0.5-0.9l3.6-4.5
		c0.3-0.3,0.6-0.4,1-0.4h16.4c0.5-0.1,0.9,0.2,1,0.8v32.7c0,0.5-0.2,1-0.7,1.5L430,84c-1,0.8-2.2,1.1-3.7,1
		c-1.5-0.1-2.9-0.5-4.4-1.2c-1.4-0.7-2.7-1.5-3.9-2.5c-1.2-1-2-1.9-2.5-2.8c-0.2-0.4-0.2-0.6-0.1-0.7
		C415.6,77.8,415.8,77.7,415.9,77.6z"/>
	<path class="st1" d="M443.2,47.9c-0.1-0.3,0-0.6,0.2-0.8l5-3.4c0.5-0.2,0.7-0.1,0.7,0.2v9.8V76c0.1,0.5,0.1,1,0,1.6
		c-0.1,0.6-0.2,1.1-0.4,1.4c-0.1,0.8,0.2,1.3,1,1.5c0.8,0.2,1.6,0.1,2.4,0c0.3-0.1,0.7-0.2,1-0.2s0.3,0.2,0,0.6l-3.6,3.7
		c-0.2,0.2-0.4,0.3-0.7,0.4s-0.5,0.1-0.7,0.1c-0.6,0-1.2-0.1-2-0.4c-0.7-0.3-1.3-0.6-1.9-1c-0.5-0.4-1-1-1.3-1.6
		c-0.3-0.6-0.4-1.3-0.2-2c0.1-0.5,0.2-1.2,0.3-1.9s0.1-1.3,0.1-1.8V47.9z"/>
	<path class="st1" d="M471,48.5l4.9-4.7c0.4-0.3,0.6-0.2,0.7,0.1v33.4c0,0.5-0.2,1-0.7,1.5l-6.5,5.4c-0.3,0.2-0.5,0.3-0.6,0.4
		c-0.1,0.1-0.4,0.2-0.9,0.3c-2.3,0.3-4.3,0-6-0.9c-1.6-0.9-2.9-2.1-3.8-3.8c-0.9-1.6-1.5-3.4-1.8-5.3c-0.2-2-0.1-3.9,0.5-5.7
		l6.2-18.9c0.1-0.1,0-0.3-0.2-0.5c-0.2-0.2-0.5-0.3-0.8-0.5c-0.3-0.2-0.7-0.3-1-0.4c-0.3-0.1-0.5-0.1-0.6-0.1v5.4
		c0,0.3-0.1,0.5-0.3,0.7l-4.2,4.7c-0.5,0.2-0.7,0.1-0.8-0.2V49.4c0-0.3,0.1-0.5,0.3-0.7l3.9-4.6c0.1-0.3,0.3-0.4,0.6-0.4
		c0.3,0,0.5-0.1,0.8-0.1c0.8,0,1.7,0.1,2.7,0.4c1,0.2,1.8,0.6,2.6,1c0.8,0.5,1.3,1.1,1.8,1.8c0.4,0.7,0.5,1.6,0.2,2.7l-4.9,18.4
		c-0.3,1.3-0.4,2.6-0.2,4c0.1,1.4,0.4,2.8,0.8,4c0.4,1.2,1,2.3,1.8,3.1c0.8,0.8,1.7,1.3,2.8,1.4c1.2,0.2,2.1-0.3,2.7-1.6V49.2
		C470.7,48.9,470.8,48.6,471,48.5z"/>
	<path class="st1" d="M490.4,49.5h-8.5c-0.6-0.1-0.7-0.4-0.4-0.9l3.6-4.6c0.3-0.3,0.6-0.4,0.9-0.4h9.4c0.6,0,0.9,0.3,0.9,0.8v34.9
		c0,0.3-0.1,0.6-0.3,0.8l-4.9,4.7c-0.4,0.2-0.6,0.1-0.7-0.2V49.5z"/>
	<path class="st1" d="M500.8,39.2c-0.5-0.1-1.1-0.5-1.6-1c-0.6-0.5-1.1-1.2-1.6-1.9c-0.5-0.7-0.8-1.4-1-2.1
		c-0.2-0.7-0.3-1.4-0.1-1.9c0.2-0.7,0.6-1.4,1.2-2l6.3-6.9c1.2-1.3,2.1-2.1,2.8-2.5c0.7-0.4,1.4-0.5,2.2-0.4
		c0.7,0.1,1.6,0.5,2.4,1.1c0.9,0.6,1.7,1.2,2.5,2c0.8,0.8,1.5,1.6,2.1,2.5c0.6,0.9,1.1,1.7,1.5,2.4c0.3,0.8,0.4,1.5,0.3,2
		c-0.1,0.5-0.5,1.2-1,1.9c-0.6,0.8-1.2,1.5-1.7,2.1c-0.5,0.6-1,1.2-1.3,1.9c-0.3,0.6-0.6,1.3-0.8,2.1c-0.2,0.8-0.3,1.7-0.3,2.9v36.8
		c0.1,0.9,0.6,1.5,1.2,2c0.7,0.4,1.4,0.5,2.2,0.3c0.3-0.1,0.7-0.2,1-0.2c0.3,0,0.3,0.2,0,0.5l-3.6,3.7c-0.3,0.3-0.8,0.5-1.4,0.5
		c-1.3,0-2.5-0.6-3.7-1.8c-1.2-1.2-1.7-2.9-1.6-5V43.6c0-1.1,0.2-2.2,0.6-3.3c0.4-1.1,0.8-2,1.4-2.9c0.5-0.9,1.1-1.7,1.7-2.4
		c0.6-0.7,1-1.2,1.4-1.6c0.6-0.7,0.7-1.6,0.2-2.5s-1.2-1.8-2-2.7c-0.9-0.8-1.8-1.5-2.8-2c-1-0.5-1.7-0.7-2.1-0.5
		c-0.3,0.1-0.6,0.4-1,0.7s-0.8,0.6-1.2,1c-0.4,0.4-0.8,0.8-1.1,1.2c-0.3,0.4-0.5,0.8-0.5,1c-0.1,0.4,0.1,0.9,0.5,1.6
		c0.4,0.7,0.8,1.3,1.4,1.8c0.6,0.6,1.2,1,1.9,1.2c0.7,0.2,1.3,0,1.8-0.6c0.3-0.4,0.5-0.5,0.6-0.2c0.1,0.2,0,0.5-0.3,0.9l-4.1,4.3
		C502.4,39.3,501.6,39.5,500.8,39.2z"/>
	<path class="st1" d="M529.6,80.4c0,0.3-0.1,0.5-0.3,0.7c-0.1,0.1-0.5,0.4-1.1,0.8c-0.6,0.4-1.2,0.8-1.8,1.3
		c-0.6,0.5-1.2,0.9-1.8,1.2c-0.6,0.4-0.9,0.5-1,0.5c-0.3,0.2-0.5,0.1-0.5-0.2c-1.5-2.3-2.5-4.8-2.8-7.2c-0.4-2.5-0.3-4.9,0-7.2
		l3.4-19.7c0-0.5-0.2-0.8-0.6-1c-0.4-0.2-0.9-0.4-1.4-0.5c-0.5-0.1-1.1-0.1-1.6-0.1c-0.6,0-1,0.1-1.5,0.1c-0.3,0.1-0.7,0.2-1,0.1
		c-0.3-0.1-0.3-0.3,0-0.6l3.4-4.4c0.3-0.3,0.7-0.5,1.4-0.5c0.7,0,1.5,0.1,2.3,0.3c0.8,0.2,1.5,0.5,2.2,1c0.6,0.5,1.1,1.1,1.5,1.9
		c0.3,0.8,0.4,1.7,0.3,2.8L526.3,66c-0.1,0.7-0.2,1.5-0.2,2.3c0,0.9,0.1,1.8,0.2,2.6c0.1,0.8,0.2,1.6,0.4,2.3
		c0.2,0.7,0.5,1.2,0.8,1.3l6.2-19.8v-0.1c0-0.1,0-0.2,0.1-0.3c0-0.1,0.1-0.2,0.2-0.3l2.8-3c0.1-0.3,0.5-0.4,1.1-0.4
		c1.3,0.5,2.6,1.4,3.8,2.7c1.2,1.3,1.8,2.7,1.9,4v20.7c-0.1,0.8-0.4,1.4-0.7,1.7l-4.2,5c-0.3,0.3-0.5,0.4-0.7,0.2
		c-0.2-0.2-0.3-0.4-0.3-0.6V57.7l-0.3-1.1L529.6,80.4z M540.4,49.6h-8.6c-0.3-0.1-0.4-0.3-0.2-0.8l4.7-4.8c0.2-0.2,0.4-0.3,0.7-0.3
		h8.6c0.3,0.1,0.4,0.3,0.2,0.7l-4.7,4.9C540.9,49.5,540.7,49.6,540.4,49.6z"/>
	<path class="st1" d="M551.5,59c-0.1-1.7-0.3-3.1-0.8-4.2c-0.5-1.1-1.5-1.7-3-1.8c-0.7-0.1-0.9-0.4-0.5-0.9l7-8.1
		c0.2-0.3,0.5-0.4,0.9-0.4h11.8c1,0,2,0.1,3.1,0.4c1.1,0.2,2,0.6,2.7,1c0.7,0.5,1.2,1.1,1.5,1.8c0.3,0.8,0.2,1.7-0.3,2.7
		c-0.7,1.3-1.2,3-1.6,5s-0.7,4.1-0.9,6.3c-0.2,2.2-0.1,4.5,0.1,6.8c0.2,2.3,0.7,4.3,1.3,6.2c0.6,1.8,1.5,3.4,2.7,4.6
		c1.1,1.2,2.6,1.9,4.3,2.1c1.2,0.1,2.1-0.4,2.7-1.6v-27v-2.6c0-0.3,0.1-0.6,0.3-0.8l4.9-4.7c0.4-0.2,0.6-0.1,0.7,0.2v33.4
		c0,0.3-0.1,0.6-0.2,0.8c-0.1,0.2-0.3,0.4-0.5,0.6l-6.5,5.5c-0.3,0.2-0.5,0.3-0.6,0.4c-0.1,0.1-0.4,0.2-0.9,0.3
		c-3.6,0.5-6.4,0-8.4-1.5c-2-1.5-3.4-3.6-4.3-6.2c-0.9-2.6-1.3-5.3-1.2-8.3c0-3,0.3-5.7,0.8-8.2c0.3-1.4,0.6-2.8,0.9-4.2
		c0.3-1.4,0.8-2.9,1.3-4.5c0.3-0.9,0.2-1.6,0-2c-0.3-0.4-0.8-0.6-1.5-0.6h-14.1l-0.7,0.8c2.2,0.7,3.6,1.7,4.1,3
		c0.6,1.3,0.9,3,0.9,4.9v17.4l-0.3,2.6c0,0.5,0.2,0.9,0.7,1.2c0.5,0.3,1,0.6,1.6,0.8c0.6,0.2,1.2,0.3,1.8,0.4c0.6,0.1,1.2,0,1.5-0.1
		c0.3-0.1,0.7-0.2,1-0.2c0.3,0,0.3,0.2,0,0.6l-3.6,3.7c-0.3,0.3-0.9,0.4-1.9,0.5c-1,0-2-0.2-3.1-0.6c-1.1-0.4-2.1-1.1-2.9-2.1
		c-0.8-1-1.2-2.3-1.2-4l0.5-2.5V59z M570.9,87.3h16.9c0.4,0.1,0.5,0.3,0.2,0.8l-4.7,4.8c-0.2,0.2-0.4,0.3-0.7,0.3h-16.9
		c-0.4-0.1-0.5-0.4-0.2-0.7l4.7-4.9C570.4,87.4,570.6,87.3,570.9,87.3z"/>
	<path class="st1" d="M582.8,25.1l4.9-4.7c0.4-0.3,0.6-0.2,0.7,0.1v10.1c0,0.3-0.1,0.6-0.3,0.8l-4.8,4.7c-0.5,0.2-0.7,0.1-0.8-0.2
		V25.8C582.5,25.5,582.6,25.2,582.8,25.1z"/>
</g>
</svg>
