<?xml version="1.0" encoding="utf-8"?>
<!-- Generator: Adobe Illustrator 24.2.3, SVG Export Plug-In . SVG Version: 6.00 Build 0)  -->
<svg version="1.1" id="Layer_1" xmlns="http://www.w3.org/2000/svg" xmlns:xlink="http://www.w3.org/1999/xlink" x="0px" y="0px"
	 viewBox="0 0 196 537" style="enable-background:new 0 0 196 537;" xml:space="preserve">
<style type="text/css">
	.st0{enable-background:new    ;}
	.st1{fill:#F8EFD7;}
</style>
<g class="st0">
	<path class="st1" d="M28.5,58.2l5.9-5.6c0.6-0.4,0.8-0.3,0.8,0.2v42.4c0,0.5-0.1,0.8-0.4,0.8l-5,4.9l-0.7,0.7
		c-0.6,0.4-0.9,0.4-1-0.1c-0.2-1.4-0.9-2.8-1.9-4.3c-1-1.5-2.2-2.9-3.4-4c-1.2-1.2-2.4-2.1-3.5-2.8c-1.1-0.7-1.8-0.9-2.2-0.5
		l-0.6,0.5v6.5c0.1,0.3,0,0.6-0.4,1l-6,4c-0.5,0.4-0.8,0.3-1-0.2c-0.3-1.7-0.7-3.3-1.2-4.8C7.5,95.2,6.7,94,5.6,93
		c-0.6-0.4-0.5-0.8,0.2-1.3l3.4-1.9V62.2c0-0.6,0.1-1,0.2-1.4c0.1-0.4,0.3-0.8,0.4-1.2c0.2-1-0.3-1.6-1.3-1.8
		c-1-0.2-1.9-0.2-2.8,0.1C5.3,57.9,4.9,58,4.5,58c-0.4,0-0.4-0.2,0-0.7l4.3-4.4c0.4-0.4,1-0.6,1.7-0.6c0.7,0,1.5,0.2,2.3,0.5
		c0.8,0.3,1.6,0.7,2.2,1.3c0.6,0.5,1.1,1.1,1.5,1.9c0.4,0.7,0.4,1.5,0.2,2.4c-0.3,1-0.5,2.2-0.5,3.6l0.2,24l1.7-0.8
		c1.3-0.8,2.4-1.2,3.4-1.1c1,0.1,1.9,0.4,2.6,1c0.8,0.6,1.5,1.2,2.1,2c0.6,0.8,1.2,1.4,1.8,2V59C28.2,58.7,28.3,58.4,28.5,58.2z"/>
	<path class="st1" d="M51.9,59.4H41.7c-0.7-0.1-0.9-0.4-0.5-1.1l4.3-5.5c0.3-0.3,0.7-0.5,1.1-0.5h11.3c0.7,0,1.1,0.3,1.1,1v41.9
		c0,0.4-0.1,0.7-0.4,1l-5.9,5.6c-0.5,0.2-0.8,0.2-0.8-0.2V59.4z"/>
	<path class="st1" d="M68.7,70.8c-0.2-2.1-0.5-3.8-1.1-5c-0.6-1.3-1.7-2-3.5-2.2c-0.8-0.1-1-0.4-0.6-1.1l8.4-9.7
		c0.3-0.3,0.7-0.5,1.1-0.5h21.5c0.7,0,1.1,0.3,1.1,1v40.2c0,0.4,0,0.7-0.1,1c0,0.2-0.2,0.5-0.4,0.7l-5.4,6.5
		c-0.3,0.4-0.6,0.5-0.9,0.2s-0.4-0.5-0.4-0.8V59.3H70.7l-0.8,1c1.3,0.4,2.3,1,3.1,1.7c0.8,0.8,1.4,1.6,1.8,2.5
		c0.4,0.9,0.7,1.8,0.8,2.8c0.1,1,0.2,1.8,0.3,2.5v25.2c0,0.5-0.1,0.8-0.4,0.8l-5.7,6c-0.2,0.2-0.5,0.2-0.7,0.1
		c-0.2-0.1-0.3-0.3-0.3-0.5V70.8z"/>
	<path class="st1" d="M105.2,70.8c-0.2-2.1-0.5-3.8-1.1-5c-0.6-1.3-1.7-2-3.5-2.2c-0.8-0.1-1-0.4-0.6-1.1l8.4-9.7
		c0.3-0.3,0.7-0.5,1.1-0.5H131c0.7,0,1.1,0.3,1.1,1v40.2c0,0.4,0,0.7-0.1,1c0,0.2-0.2,0.5-0.4,0.7l-5.4,6.5
		c-0.3,0.4-0.6,0.5-0.9,0.2c-0.2-0.2-0.4-0.5-0.4-0.8V59.3h-17.9l-0.8,1c1.3,0.4,2.3,1,3.1,1.7c0.8,0.8,1.4,1.6,1.8,2.5
		c0.4,0.9,0.7,1.8,0.8,2.8c0.1,1,0.2,1.8,0.3,2.5v25.2c0,0.5-0.1,0.8-0.4,0.8l-5.7,6c-0.2,0.2-0.5,0.2-0.7,0.1
		c-0.2-0.1-0.3-0.3-0.3-0.5V70.8z"/>
	<path class="st1" d="M139.2,93.1l4.4-2.3c0.4-0.2,0.7-0.4,0.9-0.5c0.2-0.1,0.4,0,0.5,0.4l0.2,0.5c0.7,1.3,1.7,2.3,2.9,3.1
		c1.2,0.8,2.5,1.4,3.8,1.7c1.3,0.3,2.4,0.3,3.5,0.1c1-0.3,1.8-0.9,2.2-1.7v-35h-18.7c-0.9,0-1.1-0.4-0.6-1.1l4.3-5.4
		c0.3-0.3,0.7-0.5,1.2-0.5h19.7c0.6-0.1,1,0.2,1.2,1v39.2c0,0.6-0.3,1.2-0.8,1.8l-7.8,6.5c-1.2,1-2.7,1.4-4.4,1.2
		c-1.8-0.2-3.5-0.6-5.2-1.4c-1.7-0.8-3.3-1.8-4.7-2.9c-1.4-1.2-2.4-2.3-2.9-3.3c-0.2-0.5-0.3-0.8-0.1-0.8
		C138.8,93.4,139,93.3,139.2,93.1z"/>
	<path class="st1" d="M158,30.1l5.9-5.6c0.5-0.3,0.8-0.3,0.8,0.1v12.1c0,0.4-0.1,0.7-0.4,1l-5.8,5.6c-0.6,0.2-0.9,0.2-1-0.2V31
		C157.6,30.6,157.8,30.3,158,30.1z"/>
	<path class="st1" d="M181.4,59.4h-10.2c-0.7-0.1-0.9-0.4-0.5-1.1l4.3-5.5c0.3-0.3,0.7-0.5,1.1-0.5h11.3c0.7,0,1.1,0.3,1.1,1v41.9
		c0,0.4-0.1,0.7-0.4,1l-5.9,5.6c-0.5,0.2-0.8,0.2-0.8-0.2V59.4z"/>
</g>
<g class="st0">
	<path class="st1" d="M7.3,440.8c-0.2-2.1-0.5-3.8-1.1-5c-0.6-1.3-1.7-2-3.5-2.2c-0.8-0.1-1-0.4-0.6-1.1l8.4-9.7
		c0.3-0.3,0.7-0.5,1.1-0.5h21.5c0.7,0,1.1,0.3,1.1,1v40.2c0,0.4,0,0.7-0.1,1c0,0.2-0.2,0.5-0.4,0.7l-5.4,6.5
		c-0.3,0.4-0.6,0.5-0.9,0.2s-0.4-0.5-0.4-0.8v-41.8H9.2l-0.8,1c1.3,0.4,2.3,1,3.1,1.7c0.8,0.8,1.4,1.6,1.8,2.5
		c0.4,0.9,0.7,1.8,0.8,2.8c0.1,1,0.2,1.8,0.3,2.5v25.2c0,0.5-0.1,0.8-0.4,0.8l-5.7,6c-0.2,0.2-0.5,0.2-0.7,0.1
		c-0.2-0.1-0.3-0.3-0.3-0.5V440.8z"/>
	<path class="st1" d="M33.6,409l-4,3.8c-0.2,0.2-0.5,0-0.8-0.4c0-0.2-0.1-0.3-0.2-0.5c-0.7-1.4-2-2.6-3.8-3.8
		c-1.8-1.2-3.7-2.2-5.6-2.9c-1.9-0.7-3.7-1.1-5.3-1.2c-1.6-0.1-2.6,0.3-2.9,1.1c-0.2,0.5-0.1,1,0.3,1.5c0.4,0.5,0.8,1,1.4,1.5
		c0.6,0.5,1.2,0.9,1.9,1.2c0.7,0.3,1.3,0.5,1.9,0.5c0.5,0.1,0.7,0.2,0.6,0.2c-0.1,0.1-0.2,0.2-0.4,0.4l-3.6,2.6
		c-0.4,0.2-0.8,0.3-1.2,0.2c-1.3-0.1-2.4-0.3-3.2-0.8c-0.9-0.4-1.6-1-2.2-1.6c-0.6-0.6-1-1.2-1.3-1.9c-0.3-0.6-0.4-1.2-0.4-1.7
		c0-0.7,0.3-1.3,0.8-1.7l8.2-6c1-0.7,2.6-1,4.6-0.7c2,0.2,4,0.8,6.1,1.7c2.1,0.9,4,1.9,5.8,3.2c1.8,1.2,3,2.5,3.6,3.7
		c0.3,0.5,0.4,0.8,0.4,0.9C34,408.6,33.8,408.8,33.6,409z"/>
	<path class="st1" d="M42.4,410.5c-0.5-0.4-1.2-0.8-2-1.1c-0.8-0.3-1.7-0.5-2.6-0.7s-1.8-0.2-2.6-0.3c-0.8,0-1-0.4-0.5-1.1l8.6-12.1
		c0.2-0.3,0.6-0.5,1.1-0.5H66c0.8,0,1,0.4,0.5,1.1l-4.3,5.5c-0.2,0.2-0.6,0.4-1.1,0.4H41.4l-1.2,1.6c3.2,0.4,5.7,1.2,7.4,2.3
		c1.8,1.1,2.6,3.3,2.6,6.5v51.8c0.1,1,0.5,1.8,1.4,2.3c0.8,0.5,1.7,0.7,2.7,0.4c0.4-0.2,0.8-0.2,1.1-0.2c0.4,0,0.4,0.2,0.1,0.6
		l-4.3,4.4c-0.4,0.4-1,0.6-1.8,0.6c-1.4,0-2.8-0.7-4.2-2.2c-1.4-1.5-2-3.5-2-5.9v-51.6C43.2,411.5,42.9,410.9,42.4,410.5z"/>
	<path class="st1" d="M79.3,429.4H61.4c-0.8-0.1-1-0.4-0.6-1.1l4.3-5.5c0.5-0.3,0.9-0.5,1.2-0.5h18.6c1-0.1,1.4,0.3,1.4,1.2v40.1
		c0,0.9-0.2,1.6-0.7,2l-5.3,6.1c-0.3,0.4-0.6,0.5-0.8,0.3c-0.2-0.2-0.3-0.5-0.3-0.9v-0.7v-28.1c-1-0.6-2.2-1.2-3.6-1.7
		c-1.5-0.5-2.8-0.8-4.2-1c-1.3-0.2-2.5-0.1-3.5,0.1c-1,0.2-1.5,0.7-1.5,1.4v22.7c0,0.6,0.3,1,0.8,1.4c0.6,0.4,1.2,0.7,2,1
		c0.8,0.2,1.5,0.4,2.3,0.5c0.8,0.1,1.4,0,1.9-0.1c0.4-0.2,0.8-0.2,1.1-0.2c0.4,0,0.4,0.2,0.1,0.7l-4.3,4.3c-0.3,0.4-1.1,0.6-2.3,0.6
		c-1.2,0-2.4-0.3-3.7-0.8c-1.3-0.5-2.4-1.4-3.4-2.5c-1-1.2-1.5-2.8-1.5-4.9v-22.7c0-0.4,0.1-0.7,0.2-1c0.1-0.2,0.3-0.5,0.4-0.7
		l6.2-5.6c0.4-0.3,1.1-0.5,2-0.6c0.9-0.1,2-0.1,3.3,0.1c1.3,0.1,2.6,0.3,3.9,0.6c1.4,0.3,2.7,0.6,3.9,1V429.4z"/>
	<path class="st1" d="M96,440.8c-0.2-2.1-0.5-3.8-1.1-5c-0.6-1.3-1.7-2-3.5-2.2c-0.8-0.1-1-0.4-0.6-1.1l8.4-9.7
		c0.3-0.3,0.7-0.5,1.1-0.5h21.5c0.7,0,1.1,0.3,1.1,1v40.2c0,0.4,0,0.7-0.1,1c0,0.2-0.2,0.5-0.4,0.7l-5.4,6.5
		c-0.3,0.4-0.6,0.5-0.9,0.2c-0.2-0.2-0.4-0.5-0.4-0.8v-41.8H97.9l-0.8,1c1.3,0.4,2.3,1,3.1,1.7c0.8,0.8,1.4,1.6,1.8,2.5
		c0.4,0.9,0.7,1.8,0.8,2.8s0.2,1.8,0.3,2.5v25.2c0,0.5-0.1,0.8-0.4,0.8l-5.7,6c-0.2,0.2-0.5,0.2-0.7,0.1c-0.2-0.1-0.3-0.3-0.3-0.5
		V440.8z"/>
	<path class="st1" d="M129.3,463.1l4.2-3c0.6-0.6,1.1-0.7,1.3-0.5c0.2,0.2,0.6,0.7,1.1,1.3c0.9,1.1,1.9,2.1,3.2,2.9
		c1.2,0.8,2.4,1.4,3.6,1.7c1.2,0.3,2.2,0.4,3.1,0.2c0.9-0.2,1.6-0.6,2-1.4V444c0-1.2-0.8-2.3-2.4-3.4c-1.6-1-3.5-1.9-5.6-2.7
		c-2.1-0.8-4.2-1.4-6.3-1.8c-2.1-0.4-3.6-0.7-4.4-0.8c-0.9,0-1.1-0.4-0.6-1.1l9.5-11.5c0.3-0.3,0.7-0.5,1.1-0.5h19.7
		c0.7,0.1,0.9,0.4,0.6,1.1l-4.4,5.5c-0.3,0.3-0.7,0.5-1.1,0.5h-17.3l-0.6,1c1.5,0.2,3.4,0.5,5.5,1.1c2.2,0.6,4.2,1.2,6.2,2
		c2,0.8,3.6,1.7,5,2.7c1.4,1,2.1,2.1,2.2,3.2v23.2c0,0.4-0.1,0.7-0.2,1c-0.2,0.2-0.4,0.5-0.6,0.7l-7.8,6.6c-0.3,0.2-0.6,0.4-0.7,0.5
		c-0.2,0.1-0.5,0.2-1.1,0.4c-3.5,0.6-6.6,0.2-9.2-1.2c-2.6-1.4-4.7-3.5-6.3-6.1c-0.2-0.3-0.2-0.6-0.1-0.8
		C129,463.3,129.2,463.2,129.3,463.1z"/>
	<path class="st1" d="M158,415.1h-10.3l-3,0.5c-2.5,0.1-4.5-0.6-5.9-1.9c-1.5-1.4-2.2-2.8-2.2-4.3c0-0.3,0-0.6,0.1-0.9
		c0-0.3,0.2-0.5,0.5-0.8l4.3-4.3c0.5-0.4,0.7-0.4,0.7,0c0,0.4-0.1,0.8-0.2,1.2c-0.2,0.9-0.1,1.7,0.4,2.6c0.5,0.8,1.3,1.3,2.4,1.5
		l3.2-0.6h16.4c0.4,0.1,0.5,0.4,0.2,1l-5.6,5.8C158.7,415,158.4,415.1,158,415.1z"/>
	<path class="st1" d="M183.8,428.2l5.9-5.6c0.6-0.4,0.8-0.3,0.8,0.2v42.4c0,0.5-0.1,0.8-0.4,0.8l-5,4.9l-0.7,0.7
		c-0.6,0.4-0.9,0.4-1-0.1c-0.2-1.4-0.9-2.8-1.9-4.3c-1-1.5-2.2-2.9-3.4-4c-1.2-1.2-2.4-2.1-3.5-2.8c-1.1-0.7-1.8-0.9-2.2-0.5
		l-0.6,0.5v6.5c0.1,0.3,0,0.6-0.4,1l-6,4c-0.5,0.4-0.8,0.3-1-0.2c-0.3-1.7-0.7-3.3-1.2-4.8c-0.5-1.5-1.3-2.8-2.4-3.7
		c-0.6-0.4-0.5-0.8,0.2-1.3l3.4-1.9v-27.6c0-0.6,0.1-1,0.2-1.4c0.1-0.4,0.3-0.8,0.4-1.2c0.2-1-0.3-1.6-1.3-1.8
		c-1-0.2-1.9-0.2-2.8,0.1c-0.4,0.1-0.8,0.1-1.2,0.2c-0.4,0-0.4-0.2,0-0.7l4.3-4.4c0.4-0.4,1-0.6,1.7-0.6s1.5,0.2,2.3,0.5
		c0.8,0.3,1.6,0.7,2.2,1.3c0.6,0.5,1.1,1.1,1.5,1.9c0.4,0.7,0.4,1.5,0.2,2.4c-0.3,1-0.5,2.2-0.5,3.6l0.2,24l1.7-0.8
		c1.3-0.8,2.4-1.2,3.4-1.1c1,0.1,1.9,0.4,2.6,1c0.8,0.6,1.5,1.2,2.1,2c0.6,0.8,1.2,1.4,1.8,2V429
		C183.4,428.7,183.6,428.4,183.8,428.2z"/>
</g>
</svg>
