<?xml version="1.0" encoding="utf-8"?>
<!-- Generator: Adobe Illustrator 24.2.3, SVG Export Plug-In . SVG Version: 6.00 Build 0)  -->
<svg version="1.1" id="Layer_1" xmlns="http://www.w3.org/2000/svg" xmlns:xlink="http://www.w3.org/1999/xlink" x="0px" y="0px"
	 viewBox="0 0 666 273" style="enable-background:new 0 0 666 273;" xml:space="preserve">
<style type="text/css">
	.st0{enable-background:new    ;}
	.st1{fill:#F4EBD3;}
</style>
<g class="st0">
	<path class="st1" d="M3.8,51.9h2.5v17.5c0.2-0.1,0.5-0.2,0.7-0.2c0.3,0,0.5,0,0.8,0c0.6,0,1.1,0.1,1.6,0.3c0.5,0.2,0.9,0.5,1.3,0.9
		c0.4,0.4,0.7,0.8,0.9,1.3c0.2,0.5,0.3,1,0.3,1.6c0,0.6-0.1,1.1-0.3,1.6c-0.2,0.5-0.5,0.9-0.9,1.3c-0.4,0.4-0.8,0.7-1.3,0.9
		c-0.5,0.2-1,0.3-1.6,0.3c-0.6,0-1.1-0.1-1.6-0.3c-0.5-0.2-0.9-0.5-1.3-0.9c-0.4-0.4-0.7-0.8-0.9-1.3c-0.2-0.5-0.3-1-0.3-1.6V51.9z
		 M7.9,75.1c0.5,0,1-0.2,1.3-0.6s0.5-0.8,0.5-1.4c0-0.5-0.2-1-0.5-1.3c-0.4-0.4-0.8-0.5-1.3-0.5s-1,0.2-1.3,0.5
		C6.2,72.2,6,72.7,6,73.2c0,0.5,0.2,1,0.5,1.4C6.9,74.9,7.3,75.1,7.9,75.1z"/>
	<path class="st1" d="M35.4,77l-6.7-20L22,77h-2.7V59.5c-0.2,0.1-0.5,0.2-0.7,0.2c-0.3,0-0.5,0-0.8,0c-0.6,0-1.1-0.1-1.6-0.3
		c-0.5-0.2-0.9-0.5-1.3-0.9c-0.4-0.4-0.7-0.8-0.9-1.3c-0.2-0.5-0.3-1-0.3-1.6c0-0.6,0.1-1.1,0.3-1.6c0.2-0.5,0.5-0.9,0.9-1.3
		c0.4-0.4,0.8-0.7,1.3-0.9c0.5-0.2,1-0.3,1.6-0.3c0.6,0,1.1,0.1,1.6,0.3c0.5,0.2,0.9,0.5,1.3,0.9c0.4,0.4,0.7,0.8,0.9,1.3
		c0.2,0.5,0.3,1,0.3,1.6v12.4l-0.3,4.1l0.9-4l5.2-14.4h2L35,68.2l0.9,4l-0.3-4.1V51.8h2.5V77H35.4z M17.8,57.5c0.5,0,1-0.2,1.3-0.5
		c0.3-0.4,0.5-0.8,0.5-1.4s-0.2-1-0.5-1.3c-0.3-0.4-0.8-0.5-1.3-0.5c-0.5,0-1,0.2-1.4,0.5c-0.4,0.4-0.5,0.8-0.5,1.3s0.2,1,0.5,1.4
		C16.8,57.4,17.2,57.5,17.8,57.5z"/>
	<path class="st1" d="M52.7,61.6h-9.9v-1.5c0-1.2,0.2-2.2,0.6-3.3c0.4-1,0.9-1.9,1.7-2.7c0.7-0.8,1.7-1.4,2.8-1.9
		c1.1-0.5,2.4-0.7,3.8-0.7c1.2,0,2.3,0.2,3.4,0.6c1,0.4,1.9,0.9,2.7,1.6c0.8,0.7,1.3,1.5,1.8,2.5c0.4,1,0.6,2,0.6,3.2h-2.5
		c0-0.8-0.1-1.6-0.4-2.3c-0.3-0.7-0.7-1.3-1.2-1.8c-0.5-0.5-1.2-0.9-1.9-1.2c-0.8-0.3-1.6-0.4-2.6-0.4c-0.9,0-1.8,0.1-2.5,0.4
		c-0.7,0.3-1.4,0.7-1.9,1.2c-0.5,0.5-0.9,1.1-1.2,1.8c-0.3,0.7-0.4,1.5-0.4,2.3h9.8v13.7c0,0.6-0.1,1.1-0.3,1.6
		c-0.2,0.5-0.5,0.9-0.9,1.3c-0.4,0.4-0.8,0.7-1.3,0.9s-1,0.3-1.6,0.3c-0.6,0-1.1-0.1-1.6-0.3s-0.9-0.5-1.3-0.9
		c-0.4-0.4-0.7-0.8-0.9-1.3c-0.2-0.5-0.3-1-0.3-1.6c0-0.6,0.1-1.1,0.3-1.6c0.2-0.5,0.5-0.9,0.9-1.3c0.4-0.4,0.8-0.7,1.3-0.9
		c0.5-0.2,1-0.3,1.6-0.3c0.6,0,1.1,0.1,1.5,0.2V61.6z M51.2,75.1c0.5,0,1-0.2,1.4-0.6s0.5-0.8,0.5-1.4c0-0.5-0.2-1-0.5-1.3
		c-0.4-0.4-0.8-0.5-1.4-0.5s-1,0.2-1.3,0.5c-0.4,0.4-0.5,0.8-0.5,1.3c0,0.5,0.2,1,0.5,1.4C50.2,74.9,50.6,75.1,51.2,75.1z"/>
	<path class="st1" d="M77.1,77V59.8c0-0.8-0.1-1.6-0.3-2.3c-0.2-0.7-0.5-1.4-1-1.9c-0.5-0.5-1-1-1.8-1.3c-0.7-0.3-1.6-0.5-2.6-0.5
		c-0.9,0-1.8,0.1-2.4,0.4c-0.7,0.3-1.2,0.6-1.7,1.1c-0.5,0.5-0.8,1-1.1,1.6c-0.3,0.6-0.4,1.3-0.5,2h-2.5c0.1-1.1,0.3-2.1,0.7-3
		c0.4-0.9,0.9-1.7,1.6-2.3c0.7-0.7,1.5-1.2,2.5-1.5c1-0.4,2.1-0.5,3.5-0.5c1.4,0,2.7,0.2,3.7,0.6c1,0.4,1.9,1,2.5,1.7
		c0.7,0.7,1.1,1.6,1.5,2.6c0.3,1,0.5,2.1,0.5,3.3V77H77.1z"/>
	<path class="st1" d="M101.2,52.1c-0.5,2.7-1.6,4.7-3.4,6c-1.7,1.3-3.9,2-6.6,2c-2.1,0-3.7-0.4-4.9-1.2s-1.7-1.9-1.7-3.3
		c0-0.5,0.1-1,0.3-1.5c0.2-0.5,0.5-0.9,0.8-1.2s0.8-0.6,1.2-0.8s1-0.3,1.7-0.3c0.6,0,1.1,0.1,1.6,0.3c0.5,0.2,0.9,0.5,1.2,0.8
		c0.3,0.4,0.6,0.8,0.8,1.3c0.2,0.5,0.3,1,0.3,1.6c0,0.8-0.2,1.5-0.5,1.9c1.9-0.2,3.4-0.8,4.5-1.7s1.8-2.2,2.3-4H101.2z M101.2,67.9
		c-0.5,2.7-1.6,4.7-3.4,6c-1.7,1.3-3.9,2-6.6,2c-2.1,0-3.7-0.4-4.9-1.2s-1.7-1.9-1.7-3.3c0-0.5,0.1-1,0.3-1.5
		c0.2-0.5,0.5-0.9,0.8-1.2c0.3-0.3,0.8-0.6,1.2-0.8s1-0.3,1.7-0.3c0.6,0,1.1,0.1,1.6,0.3c0.5,0.2,0.9,0.5,1.2,0.8
		c0.3,0.4,0.6,0.8,0.8,1.3c0.2,0.5,0.3,1,0.3,1.5c0,0.9-0.2,1.5-0.5,2c1-0.1,1.8-0.3,2.5-0.6s1.4-0.6,1.9-1.1c0.5-0.5,1-1,1.4-1.7
		c0.4-0.7,0.7-1.4,0.9-2.3H101.2z M90.4,55.8c0-0.5-0.2-0.9-0.5-1.2c-0.3-0.3-0.7-0.5-1.2-0.5c-0.5,0-0.9,0.2-1.2,0.5
		C87.2,55,87,55.4,87,55.8c0,0.5,0.2,0.9,0.5,1.2c0.3,0.3,0.7,0.5,1.2,0.5c0.5,0,0.9-0.2,1.2-0.5C90.2,56.7,90.4,56.3,90.4,55.8z
		 M90.4,71.6c0-0.5-0.2-0.9-0.5-1.2c-0.3-0.3-0.7-0.5-1.2-0.5c-0.5,0-0.9,0.2-1.2,0.5c-0.3,0.3-0.5,0.7-0.5,1.2
		c0,0.5,0.2,0.9,0.5,1.2c0.3,0.3,0.7,0.5,1.2,0.5c0.5,0,0.9-0.2,1.2-0.5C90.2,72.5,90.4,72.1,90.4,71.6z"/>
	<path class="st1" d="M119.5,59.3c0-0.8-0.1-1.6-0.4-2.3c-0.3-0.7-0.6-1.3-1.1-1.8c-0.5-0.5-1.1-0.9-1.9-1.1
		c-0.7-0.3-1.6-0.4-2.6-0.4c-1,0-1.8,0.2-2.6,0.5c-0.7,0.3-1.4,0.8-1.9,1.3c-0.5,0.6-0.9,1.2-1.2,2c-0.3,0.8-0.4,1.6-0.4,2.5H105
		c0-1.2,0.2-2.3,0.6-3.3c0.4-1,0.9-1.9,1.7-2.7c0.7-0.8,1.6-1.4,2.7-1.8s2.2-0.7,3.6-0.7c1.4,0,2.7,0.2,3.7,0.5
		c1.1,0.4,1.9,0.9,2.7,1.5c0.7,0.7,1.3,1.5,1.6,2.4c0.4,1,0.5,2,0.5,3.2v13.9c0,0.6-0.1,1.1-0.3,1.6c-0.2,0.5-0.5,0.9-0.9,1.3
		c-0.4,0.4-0.8,0.7-1.3,0.9c-0.5,0.2-1,0.3-1.6,0.3s-1.1-0.1-1.6-0.3c-0.5-0.2-0.9-0.5-1.3-0.9c-0.4-0.4-0.7-0.8-0.9-1.3
		c-0.2-0.5-0.3-1-0.3-1.6c0-0.6,0.1-1.1,0.3-1.6c0.2-0.5,0.5-0.9,0.9-1.3c0.4-0.4,0.8-0.7,1.3-0.9c0.5-0.2,1-0.3,1.6-0.3
		c0.3,0,0.6,0,0.8,0c0.3,0,0.5,0.1,0.8,0.2V59.3z M117.9,75.1c0.5,0,1-0.2,1.4-0.6c0.4-0.4,0.5-0.8,0.5-1.4c0-0.5-0.2-1-0.5-1.3
		c-0.4-0.4-0.8-0.5-1.4-0.5s-1,0.2-1.4,0.5c-0.4,0.4-0.6,0.8-0.6,1.3c0,0.5,0.2,1,0.6,1.4S117.4,75.1,117.9,75.1z"/>
	<path class="st1" d="M119.4,46.8v-9h2.6v9H119.4z"/>
	<path class="st1" d="M140.7,77V59.8c0-0.8-0.1-1.6-0.3-2.3c-0.2-0.7-0.5-1.4-1-1.9c-0.5-0.5-1-1-1.8-1.3c-0.7-0.3-1.6-0.5-2.6-0.5
		c-0.9,0-1.8,0.1-2.4,0.4c-0.7,0.3-1.2,0.6-1.7,1.1c-0.5,0.5-0.8,1-1.1,1.6c-0.3,0.6-0.4,1.3-0.5,2h-2.5c0.1-1.1,0.3-2.1,0.7-3
		c0.4-0.9,0.9-1.7,1.6-2.3c0.7-0.7,1.5-1.2,2.5-1.5c1-0.4,2.1-0.5,3.5-0.5c1.4,0,2.7,0.2,3.7,0.6c1,0.4,1.9,1,2.5,1.7
		c0.7,0.7,1.1,1.6,1.5,2.6c0.3,1,0.5,2.1,0.5,3.3V77H140.7z"/>
	<path class="st1" d="M167.2,77l-10.7-4.6v0.8c0,0.6-0.1,1.1-0.3,1.6c-0.2,0.5-0.5,0.9-0.9,1.3c-0.4,0.4-0.8,0.7-1.3,0.9
		c-0.5,0.2-1,0.3-1.6,0.3c-0.6,0-1.1-0.1-1.6-0.3c-0.5-0.2-0.9-0.5-1.3-0.9c-0.4-0.4-0.7-0.8-0.9-1.3c-0.2-0.5-0.3-1-0.3-1.6
		c0-0.6,0.1-1.1,0.3-1.6c0.2-0.5,0.5-0.9,0.9-1.3c0.4-0.4,0.8-0.7,1.3-0.9c0.5-0.2,1-0.3,1.6-0.3c0.3,0,0.6,0,0.8,0
		c0.3,0,0.5,0.1,0.7,0.2v-9.9c-0.2,0.1-0.5,0.2-0.7,0.2c-0.3,0-0.5,0-0.8,0c-0.6,0-1.1-0.1-1.6-0.3c-0.5-0.2-0.9-0.5-1.3-0.9
		c-0.4-0.4-0.7-0.8-0.9-1.3c-0.2-0.5-0.3-1-0.3-1.6c0-0.6,0.1-1.1,0.3-1.6c0.2-0.5,0.5-0.9,0.9-1.3c0.4-0.4,0.8-0.7,1.3-0.9
		c0.5-0.2,1-0.3,1.6-0.3c0.6,0,1.1,0.1,1.6,0.3c0.5,0.2,0.9,0.5,1.3,0.9c0.4,0.4,0.7,0.8,0.9,1.3c0.2,0.5,0.3,1,0.3,1.6v14.5
		l10.6,4.4V51.8h2.5V77H167.2z M152.4,57.5c0.5,0,1-0.2,1.3-0.5c0.4-0.4,0.5-0.8,0.5-1.4s-0.2-1-0.5-1.3c-0.4-0.4-0.8-0.5-1.3-0.5
		s-1,0.2-1.4,0.5c-0.4,0.4-0.5,0.8-0.5,1.3s0.2,1,0.5,1.4C151.4,57.4,151.9,57.5,152.4,57.5z M152.4,75.1c0.5,0,1-0.2,1.3-0.6
		c0.4-0.4,0.5-0.8,0.5-1.4c0-0.5-0.2-1-0.5-1.3c-0.4-0.4-0.8-0.5-1.3-0.5s-1,0.2-1.4,0.5c-0.4,0.4-0.5,0.8-0.5,1.3
		c0,0.5,0.2,1,0.5,1.4S151.9,75.1,152.4,75.1z"/>
	<path class="st1" d="M167.7,46.8c-1.7-0.6-3.3-1.1-4.8-1.5c-1.5-0.4-2.9-0.7-4.2-0.9c-1.3-0.2-2.5-0.4-3.6-0.4
		c-1.1-0.1-2.1-0.1-3.1-0.2c-0.5,0-0.8,0-1.2,0s-0.6,0-0.8,0c-0.2,0-0.4,0-0.6,0c-0.2,0-0.4,0-0.6,0.1c0.4-1.1,1-2.2,1.6-3.1
		c0.7-0.9,1.4-1.7,2.3-2.3c0.9-0.6,1.8-1.1,2.9-1.4c1.1-0.3,2.2-0.5,3.4-0.5c3.3,0,6,1.3,8.1,4v-6h2.4v12.8L167.7,46.8z M167.1,44.4
		c-0.9-1.9-1.9-3.3-3.2-4.2c-1.3-0.9-2.8-1.4-4.8-1.4c-0.7,0-1.5,0.1-2.2,0.2c-0.7,0.1-1.3,0.3-1.9,0.6c-0.6,0.3-1.1,0.6-1.6,1
		c-0.5,0.4-0.9,0.8-1.2,1.3c1.3,0,2.6,0,3.8,0.1c1.2,0.1,2.4,0.2,3.6,0.4c1.2,0.2,2.4,0.5,3.6,0.8C164.4,43.5,165.7,43.9,167.1,44.4
		z"/>
</g>
<g class="st0">
	<path class="st1" d="M200.1,77H194V53.9h-1.3c-0.9,0-1.7-0.2-2.5-0.5c-0.8-0.3-1.4-0.8-2-1.3c-0.6-0.5-1-1.2-1.3-2
		c-0.3-0.8-0.5-1.6-0.5-2.5c0-0.9,0.2-1.7,0.5-2.4c0.3-0.8,0.8-1.4,1.4-2c0.6-0.6,1.3-1,2.1-1.3s1.7-0.5,2.7-0.5
		c1.2,0,2.3,0.2,3.2,0.6c0.9,0.4,1.6,0.9,2.2,1.5c0.6,0.6,1,1.4,1.2,2.2c0.3,0.8,0.4,1.7,0.4,2.6v23l13.5-6.9V41.7h6v22.7
		c1.5,0.5,2.6,1.3,3.5,2.4c0.9,1.1,1.3,2.5,1.3,4.1c0,0.9-0.2,1.7-0.5,2.5s-0.8,1.5-1.4,2.1c-0.6,0.6-1.3,1.1-2.1,1.4
		c-0.8,0.4-1.7,0.5-2.6,0.5c-1,0-1.9-0.2-2.7-0.5c-0.8-0.3-1.5-0.7-2.1-1.3c-0.6-0.5-1.1-1.2-1.4-1.9c-0.3-0.7-0.5-1.5-0.5-2.4
		L200.1,77z M195.5,47.5c0-0.7-0.2-1.2-0.7-1.7c-0.5-0.5-1-0.7-1.7-0.7c-0.7,0-1.2,0.2-1.7,0.7c-0.5,0.5-0.7,1-0.7,1.7
		c0,0.7,0.2,1.2,0.7,1.7c0.5,0.5,1,0.7,1.7,0.7c0.7,0,1.2-0.2,1.7-0.7C195.3,48.8,195.5,48.2,195.5,47.5z M219.9,70.7
		c0-0.7-0.2-1.3-0.7-1.8c-0.5-0.5-1.1-0.7-1.8-0.7c-0.7,0-1.3,0.2-1.8,0.7s-0.7,1.1-0.7,1.8c0,0.7,0.2,1.3,0.7,1.8s1.1,0.7,1.8,0.7
		c0.7,0,1.3-0.2,1.8-0.7C219.7,72,219.9,71.4,219.9,70.7z"/>
	<path class="st1" d="M223.5,28.1c0,1-0.2,1.9-0.5,2.8c-0.4,0.9-0.9,1.6-1.5,2.2c-0.7,0.6-1.5,1.1-2.5,1.5c-1,0.4-2.1,0.5-3.3,0.5
		c-1.3,0-2.4-0.2-3.4-0.5c-1-0.4-1.8-0.9-2.4-1.5c-0.6-0.6-1.1-1.4-1.4-2.2c-0.3-0.9-0.5-1.8-0.5-2.8c0-0.9,0.2-1.8,0.5-2.6
		c0.3-0.8,0.8-1.6,1.5-2.2c0.6-0.6,1.5-1.2,2.4-1.5c1-0.4,2.1-0.6,3.3-0.6c1.2,0,2.2,0.2,3.2,0.5c1,0.4,1.8,0.9,2.5,1.5
		s1.2,1.4,1.6,2.2C223.3,26.3,223.5,27.2,223.5,28.1z M218.5,28.1c0-0.9-0.3-1.6-0.8-2.1c-0.5-0.5-1.2-0.8-2.1-0.8
		c-0.8,0-1.5,0.3-2.1,0.8c-0.6,0.5-0.8,1.2-0.8,2.1c0,0.8,0.3,1.5,0.8,2.1c0.6,0.5,1.3,0.8,2.1,0.8c0.8,0,1.5-0.3,2.1-0.8
		C218.2,29.7,218.5,29,218.5,28.1z"/>
	<path class="st1" d="M206.9,16.3v-3.1c0.5-0.3,1-0.6,1.4-1c0.4-0.4,0.8-0.9,1-1.5h-0.5c-0.7,0-1.4-0.1-2-0.4
		c-0.6-0.3-1.1-0.6-1.5-1c-0.4-0.4-0.7-0.9-0.9-1.5c-0.2-0.6-0.3-1.2-0.3-1.8c0-0.8,0.1-1.4,0.4-2.1s0.7-1.2,1.2-1.6
		c0.5-0.5,1.1-0.8,1.8-1.1c0.7-0.3,1.5-0.4,2.4-0.4c1,0,1.8,0.1,2.5,0.4c0.7,0.3,1.3,0.7,1.8,1.2c0.5,0.5,0.8,1.1,1.1,1.8
		s0.4,1.4,0.4,2.2c0,0.8-0.1,1.5-0.4,2.1c-0.3,0.7-0.6,1.3-0.9,1.9c-0.4,0.6-0.7,1.1-1.1,1.5c-0.4,0.4-0.7,0.7-1,1
		c3.4-0.7,6-2,7.8-4c1.8-2,2.6-4.6,2.6-7.9h5.5c0,1.9-0.3,3.6-0.8,5.1c-0.5,1.5-1.3,2.8-2.2,3.9c-0.9,1.1-2,2.1-3.3,2.9
		c-1.3,0.8-2.6,1.4-4.2,1.9c-1.5,0.5-3.1,0.8-4.8,1.1c-1.7,0.2-3.4,0.3-5.2,0.3H206.9z M209.8,7.6c0.6,0,1.1-0.2,1.4-0.5
		c0.4-0.4,0.5-0.8,0.5-1.4c0-0.6-0.2-1.1-0.5-1.4c-0.4-0.3-0.8-0.5-1.4-0.5c-0.6,0-1.1,0.2-1.4,0.5c-0.4,0.3-0.5,0.8-0.5,1.4
		c0,0.6,0.2,1.1,0.5,1.4C208.7,7.5,209.2,7.6,209.8,7.6z"/>
	<path class="st1" d="M245,77V53.2c0-1-0.1-1.9-0.4-2.8c-0.3-0.9-0.6-1.6-1.2-2.3c-0.5-0.6-1.3-1.1-2.1-1.5
		c-0.9-0.4-1.9-0.6-3.1-0.6c-1.1,0-2,0.2-2.8,0.5s-1.4,0.8-2,1.4c-0.5,0.6-1,1.3-1.3,2.2c-0.3,0.8-0.5,1.8-0.7,2.7h-6
		c0.2-1.7,0.5-3.2,1.1-4.6c0.6-1.4,1.4-2.6,2.5-3.7c1-1,2.3-1.8,3.8-2.4c1.5-0.6,3.3-0.9,5.3-0.9c2.3,0,4.2,0.3,5.9,0.9
		c1.6,0.6,2.9,1.4,4,2.4c1,1,1.8,2.3,2.2,3.7c0.5,1.4,0.7,3,0.7,4.7V77H245z"/>
	<path class="st1" d="M283.6,77V54.8c0-1.1-0.1-2.1-0.2-3c-0.1-0.9-0.4-1.8-0.7-2.5c-0.3-0.7-0.7-1.4-1.2-1.9
		c-0.5-0.5-1.2-0.9-1.9-1.2l-5.2,3.6l-5.1-3.6c-0.8,0.3-1.4,0.7-1.9,1.2c-0.5,0.5-1,1.2-1.3,1.9c-0.3,0.7-0.6,1.6-0.7,2.5
		c-0.1,0.9-0.2,1.9-0.2,3v15.8l6.7-6.1c-1.1-0.4-1.9-1.1-2.5-2.1c-0.6-1-0.9-2-0.9-3.1c0-0.8,0.1-1.6,0.4-2.3
		c0.3-0.7,0.7-1.3,1.2-1.8c0.5-0.5,1.1-0.9,1.9-1.2c0.7-0.3,1.5-0.4,2.3-0.4c0.9,0,1.7,0.1,2.4,0.4c0.7,0.3,1.3,0.7,1.9,1.2
		c0.5,0.5,0.9,1.1,1.2,1.8c0.3,0.7,0.4,1.5,0.4,2.3c0,0.7-0.1,1.3-0.3,1.9c-0.2,0.6-0.4,1.1-0.7,1.6s-0.6,0.9-0.9,1.3
		c-0.3,0.4-0.6,0.7-0.9,1l-12.6,12H259V55c0-1.7,0.2-3.2,0.6-4.8c0.4-1.5,1-2.9,1.8-4.1c0.8-1.2,1.9-2.2,3.2-3.1
		c1.3-0.9,2.9-1.5,4.7-1.8l5,4l5.2-4c1.8,0.3,3.3,0.9,4.6,1.8s2.3,1.9,3.1,3.1c0.8,1.2,1.4,2.6,1.8,4.1c0.4,1.5,0.6,3.1,0.6,4.8v22
		H283.6z M276.4,59.2c0-0.6-0.2-1.1-0.6-1.6c-0.4-0.4-1-0.6-1.6-0.6c-0.7,0-1.2,0.2-1.6,0.6c-0.4,0.4-0.6,1-0.6,1.6s0.2,1.1,0.6,1.6
		c0.4,0.4,0.9,0.6,1.6,0.6c0.7,0,1.2-0.2,1.6-0.6C276.2,60.4,276.4,59.8,276.4,59.2z"/>
	<path class="st1" d="M320.7,77V54.7c0-1.3-0.3-2.4-0.8-3.5c-0.5-1.1-1.2-2-2.1-2.8c-0.9-0.8-1.9-1.4-3.1-1.8
		c-1.2-0.4-2.4-0.6-3.7-0.6c-0.9,0-1.8,0.1-2.6,0.3c-0.9,0.2-1.7,0.5-2.5,0.9c-0.8,0.4-1.5,0.9-2.1,1.6c-0.6,0.6-1.2,1.3-1.6,2.2
		l3.1,3.5V77h-6V55.7l-3.6-3.9c0.4-1.6,1.1-3,2.1-4.3c0.9-1.3,2.1-2.4,3.4-3.3c1.3-0.9,2.8-1.6,4.5-2.1c1.7-0.5,3.5-0.7,5.4-0.7
		c2.3,0,4.4,0.3,6.4,1c1.9,0.7,3.6,1.6,5,2.8c1.4,1.2,2.5,2.6,3.2,4.3c0.8,1.7,1.2,3.5,1.2,5.5v22H320.7z"/>
	<path class="st1" d="M343.1,64.9c0.9,0,1.7,0.2,2.5,0.5c0.8,0.3,1.4,0.8,2,1.3c0.6,0.6,1,1.2,1.3,2c0.3,0.8,0.5,1.6,0.5,2.5
		c0,0.9-0.2,1.7-0.5,2.4c-0.3,0.8-0.8,1.4-1.3,2c-0.6,0.6-1.3,1-2.1,1.3c-0.8,0.3-1.7,0.5-2.7,0.5c-1.3,0-2.3-0.2-3.2-0.6
		c-0.9-0.4-1.6-0.9-2.2-1.6c-0.6-0.7-1-1.4-1.2-2.2c-0.3-0.8-0.4-1.7-0.4-2.6V41.7h5.9v23.2H343.1z M345,71.3c0-0.7-0.2-1.3-0.7-1.7
		c-0.5-0.5-1-0.7-1.7-0.7c-0.7,0-1.2,0.2-1.7,0.7c-0.5,0.5-0.7,1-0.7,1.7c0,0.7,0.2,1.2,0.7,1.7c0.5,0.5,1,0.7,1.7,0.7
		c0.7,0,1.2-0.2,1.7-0.7C344.8,72.5,345,72,345,71.3z"/>
	<path class="st1" d="M377.9,77V57.9c0-1.9-0.2-2.9-0.7-2.9c-0.2,0-0.4,0.2-0.8,0.6s-0.7,1-1.2,1.7L363.6,77h-5.5V53.9h-1.3
		c-0.9,0-1.7-0.2-2.5-0.5c-0.8-0.3-1.4-0.8-2-1.3s-1-1.2-1.3-2c-0.3-0.8-0.5-1.6-0.5-2.5c0-0.9,0.2-1.7,0.5-2.4
		c0.3-0.8,0.8-1.4,1.3-2c0.6-0.6,1.3-1,2.1-1.3s1.7-0.5,2.7-0.5c1.2,0,2.3,0.2,3.2,0.6c0.9,0.4,1.6,0.9,2.2,1.5
		c0.6,0.6,1,1.4,1.2,2.2s0.4,1.7,0.4,2.6v13.1c0,0.7,0,1.4-0.1,2.3s-0.2,1.8-0.3,2.6c-0.1,0.8-0.2,1.5-0.3,2.1
		c-0.1,0.6-0.2,0.9-0.2,1c0-0.1,0.2-0.4,0.4-1c0.2-0.6,0.5-1.3,0.8-2s0.6-1.5,1-2.3c0.3-0.8,0.6-1.4,0.9-1.8l4.1-7.3
		c0.3-0.5,0.7-1.1,1.1-1.6c0.5-0.6,0.9-1,1.3-1.4c-0.5-0.7-0.9-1.3-1.2-2s-0.4-1.4-0.4-2.2c0-0.9,0.2-1.7,0.5-2.5
		c0.3-0.8,0.8-1.4,1.4-2c0.6-0.6,1.4-1,2.2-1.3c0.9-0.3,1.8-0.5,2.9-0.5c1,0,2,0.2,2.8,0.5c0.9,0.3,1.6,0.8,2.2,1.3
		c0.6,0.6,1.1,1.2,1.5,2c0.4,0.8,0.5,1.6,0.5,2.5c0,1-0.2,2-0.7,2.8c-0.5,0.9-1.2,1.6-2,2.2c0.5,0.7,0.9,1.5,1.1,2.3
		c0.2,0.8,0.3,1.8,0.3,3V77H377.9z M359.6,47.5c0-0.7-0.2-1.2-0.7-1.7c-0.5-0.5-1-0.7-1.7-0.7s-1.2,0.2-1.7,0.7
		c-0.5,0.5-0.7,1-0.7,1.7c0,0.7,0.2,1.2,0.7,1.7c0.5,0.5,1,0.7,1.7,0.7s1.2-0.2,1.7-0.7C359.4,48.8,359.6,48.2,359.6,47.5z
		 M380.6,47.5c0-0.7-0.2-1.2-0.7-1.7c-0.5-0.5-1-0.7-1.7-0.7c-0.7,0-1.2,0.2-1.7,0.7c-0.4,0.5-0.7,1-0.7,1.7c0,0.7,0.2,1.2,0.7,1.7
		c0.4,0.5,1,0.7,1.7,0.7c0.7,0,1.2-0.2,1.7-0.7C380.3,48.8,380.6,48.2,380.6,47.5z"/>
	<path class="st1" d="M409.2,52.6c0-2-0.6-3.6-1.8-4.8c-1.2-1.2-3-1.8-5.5-1.8c-1.1,0-2.1,0.2-3,0.6c-0.9,0.4-1.6,1-2.2,1.8
		c-0.6,0.8-1.1,1.6-1.4,2.7c-0.3,1-0.5,2.2-0.5,3.4h-5.9c0-1.8,0.3-3.5,0.9-5.1c0.6-1.6,1.4-3,2.6-4.2c1.1-1.2,2.5-2.1,4.1-2.8
		c1.6-0.7,3.4-1,5.5-1c2.2,0,4.1,0.3,5.8,0.8c1.6,0.5,3,1.3,4.1,2.2c1.1,1,1.9,2.1,2.5,3.5c0.6,1.4,0.8,2.9,0.8,4.6V70
		c0,0.9-0.1,1.8-0.4,2.6s-0.7,1.6-1.2,2.2c-0.6,0.7-1.3,1.2-2.1,1.6c-0.9,0.4-1.9,0.6-3.2,0.6c-1,0-1.9-0.2-2.7-0.5
		c-0.8-0.3-1.5-0.8-2.1-1.3c-0.6-0.6-1-1.2-1.3-2s-0.5-1.6-0.5-2.4c0-0.9,0.2-1.7,0.5-2.5s0.8-1.4,1.3-2c0.6-0.6,1.2-1,2-1.3
		c0.8-0.3,1.6-0.5,2.5-0.5h1.3V52.6z M410.6,70.8c0-0.7-0.2-1.3-0.7-1.7c-0.5-0.5-1-0.7-1.7-0.7s-1.2,0.2-1.7,0.7
		c-0.5,0.5-0.7,1-0.7,1.7c0,0.7,0.2,1.2,0.7,1.7c0.5,0.5,1,0.7,1.7,0.7s1.2-0.2,1.7-0.7C410.4,72.1,410.6,71.5,410.6,70.8z"/>
	<path class="st1" d="M445.6,77V63.1c0-0.8-0.2-1.5-0.6-2.2c-0.4-0.7-1-1.3-1.7-1.7c-0.7-0.5-1.6-0.9-2.6-1.1
		c-1-0.3-2.1-0.4-3.2-0.4c-1.3,0-2.4,0.1-3.3,0.4c-0.9,0.3-1.6,0.7-2.2,1.2c-0.6,0.5-1,1.1-1.2,1.8c-0.3,0.7-0.4,1.5-0.4,2.3v1.5
		h1.4c0.9,0,1.7,0.2,2.5,0.5c0.8,0.3,1.4,0.8,2,1.3c0.6,0.6,1,1.2,1.3,2c0.3,0.8,0.5,1.6,0.5,2.5c0,0.9-0.2,1.7-0.5,2.4
		c-0.3,0.8-0.8,1.4-1.3,2c-0.6,0.6-1.3,1-2.1,1.3c-0.8,0.3-1.7,0.5-2.7,0.5c-1.3,0-2.3-0.2-3.2-0.6s-1.6-0.9-2.2-1.6
		c-0.6-0.6-1-1.4-1.2-2.2c-0.3-0.8-0.4-1.7-0.4-2.6v-7.1c0-1.5,0.3-2.9,1-4.2c0.6-1.3,1.5-2.4,2.6-3.3c1.1-0.9,2.5-1.6,4-2.2
		c1.6-0.5,3.3-0.8,5.1-0.8c1.9,0,3.6,0.3,5.1,0.8c1.4,0.5,2.6,1.3,3.3,2.4v-4.6c0-0.8-0.2-1.5-0.7-2.2c-0.5-0.7-1.1-1.2-1.8-1.7
		c-0.8-0.5-1.7-0.8-2.7-1.1c-1-0.3-2.1-0.4-3.1-0.4c-1.5,0-2.8,0.2-3.9,0.6c-1.1,0.4-2.1,0.9-2.9,1.5c-0.8,0.6-1.4,1.3-1.8,2
		c-0.4,0.7-0.7,1.5-0.8,2.2H422c0.1-1.4,0.5-2.8,1.2-4.1s1.7-2.5,2.9-3.5c1.3-1,2.8-1.8,4.6-2.4s3.9-0.9,6.3-0.9
		c1.4,0,2.7,0.1,4,0.3c1.3,0.2,2.4,0.5,3.5,1l5.5-5l4,3.4l-4.9,4.4c1.6,1.7,2.5,3.7,2.5,6.1V77H445.6z M433.7,71.2
		c0-0.7-0.2-1.2-0.7-1.7c-0.5-0.5-1-0.7-1.7-0.7c-0.7,0-1.2,0.2-1.7,0.7c-0.5,0.5-0.7,1-0.7,1.7c0,0.7,0.2,1.2,0.7,1.7
		c0.5,0.5,1,0.7,1.7,0.7c0.7,0,1.2-0.2,1.7-0.7C433.4,72.4,433.7,71.9,433.7,71.2z"/>
	<path class="st1" d="M446.1,97.5v-5.9h-0.8c-1,0-1.9-0.1-2.7-0.4c-0.8-0.3-1.5-0.7-2-1.2c-0.5-0.5-1-1.1-1.2-1.8
		c-0.3-0.7-0.4-1.4-0.4-2.2c0-1.6,0.5-3,1.6-4c1.1-1,2.7-1.5,4.7-1.5c2.1,0,3.6,0.5,4.6,1.5c1,1,1.6,2.3,1.6,4v11.6H446.1z
		 M444.7,88c0.6,0,1.1-0.2,1.5-0.6c0.4-0.4,0.6-0.9,0.6-1.5c0-0.6-0.2-1.1-0.6-1.5c-0.4-0.4-0.9-0.6-1.5-0.6s-1.1,0.2-1.5,0.6
		c-0.4,0.4-0.6,0.9-0.6,1.5c0,0.6,0.2,1.1,0.6,1.5C443.6,87.8,444.1,88,444.7,88z"/>
	<path class="st1" d="M476.8,52.6c0-2-0.6-3.6-1.8-4.8c-1.2-1.2-3-1.8-5.5-1.8c-1.1,0-2.1,0.2-3,0.6c-0.9,0.4-1.6,1-2.2,1.8
		s-1.1,1.6-1.4,2.7c-0.3,1-0.5,2.2-0.5,3.4h-5.9c0-1.8,0.3-3.5,0.9-5.1c0.6-1.6,1.4-3,2.6-4.2c1.1-1.2,2.5-2.1,4.1-2.8
		c1.6-0.7,3.4-1,5.5-1c2.2,0,4.1,0.3,5.8,0.8c1.7,0.5,3,1.3,4.1,2.2s1.9,2.1,2.5,3.5c0.6,1.4,0.8,2.9,0.8,4.6V70
		c0,0.9-0.1,1.8-0.4,2.6s-0.7,1.6-1.2,2.2c-0.6,0.7-1.3,1.2-2.1,1.6c-0.9,0.4-1.9,0.6-3.2,0.6c-1,0-1.9-0.2-2.7-0.5
		c-0.8-0.3-1.5-0.8-2.1-1.3c-0.6-0.6-1-1.2-1.3-2s-0.5-1.6-0.5-2.4c0-0.9,0.2-1.7,0.5-2.5c0.3-0.8,0.8-1.4,1.3-2
		c0.6-0.6,1.2-1,2-1.3c0.8-0.3,1.6-0.5,2.5-0.5h1.3V52.6z M478.3,70.8c0-0.7-0.2-1.3-0.7-1.7c-0.5-0.5-1-0.7-1.7-0.7
		c-0.7,0-1.2,0.2-1.7,0.7c-0.5,0.5-0.7,1-0.7,1.7c0,0.7,0.2,1.2,0.7,1.7c0.5,0.5,1,0.7,1.7,0.7c0.7,0,1.2-0.2,1.7-0.7
		C478,72.1,478.3,71.5,478.3,70.8z"/>
	<path class="st1" d="M491.7,23.5c0,2.1-0.5,4-1.5,5.6c-1,1.6-2.4,3-4,4.1s-3.6,1.9-5.7,2.5c-2.1,0.6-4.3,0.9-6.5,0.9
		c-1.5,0-3-0.1-4.3-0.4c-1.3-0.3-2.4-0.7-3.4-1.3c-0.9-0.6-1.7-1.4-2.2-2.3c-0.5-0.9-0.8-2-0.8-3.3c0-1,0.2-1.9,0.5-2.6
		s0.8-1.4,1.4-1.9c0.6-0.5,1.3-0.9,2.1-1.1c0.8-0.2,1.6-0.4,2.5-0.4c0.8,0,1.6,0.1,2.4,0.4c0.8,0.2,1.4,0.6,2,1.1
		c0.6,0.5,1,1.1,1.4,1.8c0.3,0.7,0.5,1.5,0.5,2.5c0,0.6-0.1,1.3-0.4,1.9c-0.2,0.6-0.6,1.2-0.9,1.7c1.7,0,3.2-0.2,4.5-0.7
		c1.3-0.5,2.4-1.1,3.4-1.9c0.9-0.8,1.7-1.8,2.2-2.8s0.9-2.3,1-3.5H491.7z M472,29c0-0.7-0.2-1.2-0.7-1.7s-1-0.7-1.7-0.7
		s-1.2,0.2-1.7,0.7s-0.7,1.1-0.7,1.7c0,0.7,0.2,1.2,0.7,1.7s1,0.7,1.7,0.7s1.2-0.2,1.7-0.7S472,29.6,472,29z"/>
	<path class="st1" d="M515.4,77V54.8c0-1.1-0.1-2.1-0.2-3c-0.1-0.9-0.4-1.8-0.7-2.5c-0.3-0.7-0.7-1.4-1.2-1.9
		c-0.5-0.5-1.2-0.9-1.9-1.2l-5.2,3.6l-5.1-3.6c-0.8,0.3-1.4,0.7-1.9,1.2c-0.5,0.5-1,1.2-1.3,1.9c-0.3,0.7-0.6,1.6-0.7,2.5
		c-0.1,0.9-0.2,1.9-0.2,3v15.8l6.7-6.1c-1.1-0.4-1.9-1.1-2.5-2.1c-0.6-1-0.9-2-0.9-3.1c0-0.8,0.1-1.6,0.4-2.3
		c0.3-0.7,0.7-1.3,1.2-1.8c0.5-0.5,1.1-0.9,1.9-1.2c0.7-0.3,1.5-0.4,2.3-0.4c0.9,0,1.7,0.1,2.4,0.4c0.7,0.3,1.3,0.7,1.9,1.2
		c0.5,0.5,0.9,1.1,1.2,1.8c0.3,0.7,0.4,1.5,0.4,2.3c0,0.7-0.1,1.3-0.3,1.9c-0.2,0.6-0.4,1.1-0.7,1.6s-0.6,0.9-0.9,1.3
		c-0.3,0.4-0.6,0.7-0.9,1l-12.6,12h-5.7V55c0-1.7,0.2-3.2,0.6-4.8s1-2.9,1.8-4.1c0.8-1.2,1.9-2.2,3.2-3.1c1.3-0.9,2.9-1.5,4.7-1.8
		l5,4l5.2-4c1.8,0.3,3.3,0.9,4.6,1.8s2.3,1.9,3.1,3.1c0.8,1.2,1.4,2.6,1.8,4.1c0.4,1.5,0.6,3.1,0.6,4.8v22H515.4z M508.2,59.2
		c0-0.6-0.2-1.1-0.6-1.6c-0.4-0.4-1-0.6-1.6-0.6c-0.7,0-1.2,0.2-1.6,0.6c-0.4,0.4-0.6,1-0.6,1.6s0.2,1.1,0.6,1.6
		c0.4,0.4,0.9,0.6,1.6,0.6c0.7,0,1.2-0.2,1.6-0.6C508,60.4,508.2,59.8,508.2,59.2z"/>
</g>
<g class="st0">
	<path class="st1" d="M557,73l-8.7,4h-2.7V59.5c-0.2,0.1-0.5,0.2-0.7,0.2s-0.5,0-0.8,0c-0.6,0-1.1-0.1-1.6-0.3
		c-0.5-0.2-0.9-0.5-1.3-0.9c-0.4-0.4-0.7-0.8-0.9-1.3c-0.2-0.5-0.3-1-0.3-1.6c0-0.6,0.1-1.1,0.3-1.6c0.2-0.5,0.5-0.9,0.9-1.3
		c0.4-0.4,0.8-0.7,1.3-0.9c0.5-0.2,1-0.3,1.6-0.3c0.6,0,1.1,0.1,1.6,0.3c0.5,0.2,0.9,0.5,1.3,0.9c0.4,0.4,0.7,0.8,0.9,1.3
		c0.2,0.5,0.3,1,0.3,1.6v19l11.5-5.1V51.8h2.5v17.9c0.8,0.3,1.4,0.8,1.9,1.4c0.5,0.7,0.7,1.4,0.7,2.3c0,0.6-0.1,1.1-0.3,1.6
		c-0.2,0.5-0.5,0.9-0.8,1.2c-0.3,0.4-0.8,0.6-1.2,0.8c-0.5,0.2-1,0.3-1.5,0.3c-0.6,0-1.1-0.1-1.5-0.3s-0.9-0.4-1.2-0.8
		c-0.3-0.3-0.6-0.7-0.8-1.2c-0.2-0.5-0.3-1-0.3-1.5V73z M544.1,57.6c0.5,0,1-0.2,1.3-0.6s0.5-0.8,0.5-1.4c0-0.5-0.2-1-0.5-1.4
		s-0.8-0.5-1.3-0.5c-0.5,0-1,0.2-1.4,0.5c-0.4,0.4-0.5,0.8-0.5,1.4c0,0.5,0.2,1,0.5,1.4C543.1,57.4,543.6,57.6,544.1,57.6z
		 M560.9,75.2c0.5,0,0.9-0.2,1.2-0.5c0.3-0.3,0.5-0.7,0.5-1.2c0-0.5-0.2-0.9-0.5-1.2c-0.3-0.3-0.7-0.5-1.2-0.5
		c-0.5,0-0.9,0.2-1.2,0.5c-0.3,0.3-0.5,0.7-0.5,1.2c0,0.5,0.2,0.9,0.5,1.2C560,75,560.5,75.2,560.9,75.2z"/>
	<path class="st1" d="M565.2,43.2c0,0.6-0.1,1.1-0.3,1.5c-0.2,0.5-0.5,0.9-0.8,1.2s-0.8,0.6-1.2,0.8s-1,0.3-1.7,0.3
		s-1.2-0.1-1.7-0.3s-0.9-0.5-1.2-0.8s-0.6-0.7-0.8-1.2c-0.2-0.5-0.3-1-0.3-1.5c0-0.5,0.1-1,0.3-1.5c0.2-0.5,0.5-0.9,0.8-1.2
		c0.3-0.4,0.8-0.6,1.2-0.8c0.5-0.2,1-0.3,1.6-0.3c0.6,0,1.1,0.1,1.6,0.3s0.9,0.5,1.3,0.8c0.4,0.3,0.6,0.7,0.8,1.2
		C565.1,42.1,565.2,42.6,565.2,43.2z M561.3,44.9c0.6,0,1.1-0.2,1.3-0.5c0.3-0.4,0.4-0.8,0.4-1.2c0-0.5-0.1-0.9-0.4-1.2
		c-0.3-0.3-0.7-0.5-1.3-0.5c-0.5,0-1,0.2-1.2,0.5c-0.3,0.3-0.4,0.7-0.4,1.2c0,0.5,0.1,0.9,0.4,1.2C560.3,44.8,560.7,44.9,561.3,44.9
		z"/>
	<path class="st1" d="M554.2,30.7c0.4-0.3,0.7-0.7,1-1c0.3-0.3,0.5-0.7,0.7-1.1h-0.8c-0.6,0-1-0.1-1.5-0.3c-0.4-0.2-0.8-0.5-1-0.8
		c-0.3-0.3-0.5-0.7-0.6-1.1c-0.1-0.4-0.2-0.8-0.2-1.3c0-1.1,0.3-1.9,0.9-2.6c0.6-0.7,1.5-1,2.6-1c0.7,0,1.2,0.1,1.7,0.3
		c0.5,0.2,0.8,0.5,1.1,0.8c0.3,0.3,0.5,0.8,0.6,1.2c0.1,0.5,0.2,1,0.2,1.5c0,0.9-0.2,1.8-0.5,2.7c-0.4,0.9-0.8,1.7-1.3,2.3
		c1.1-0.1,2.1-0.4,3.1-0.8c0.9-0.4,1.7-1,2.4-1.7c0.7-0.7,1.2-1.6,1.5-2.5c0.4-1,0.5-2.1,0.5-3.2h2.4c0,1.8-0.3,3.3-1,4.6
		c-0.6,1.3-1.5,2.4-2.6,3.2c-1.1,0.9-2.3,1.5-3.7,1.9c-1.4,0.4-2.8,0.6-4.3,0.6c-0.4,0-0.6,0-0.7,0c-0.1,0-0.3,0-0.4,0V30.7z
		 M555.4,26.7c0.5,0,0.9-0.2,1.2-0.5c0.3-0.3,0.5-0.7,0.5-1.2c0-0.5-0.1-0.9-0.4-1.2c-0.3-0.3-0.7-0.5-1.2-0.5s-1,0.2-1.3,0.5
		c-0.3,0.4-0.5,0.8-0.5,1.2c0,0.5,0.2,0.9,0.5,1.2C554.5,26.6,554.9,26.7,555.4,26.7z"/>
	<path class="st1" d="M581.1,77V59.8c0-0.8-0.1-1.6-0.3-2.3c-0.2-0.7-0.5-1.4-1-1.9c-0.5-0.5-1-1-1.8-1.3c-0.7-0.3-1.6-0.5-2.6-0.5
		c-0.9,0-1.8,0.1-2.4,0.4c-0.7,0.3-1.2,0.6-1.7,1.1c-0.5,0.5-0.8,1-1.1,1.6c-0.3,0.6-0.4,1.3-0.5,2h-2.5c0.1-1.1,0.3-2.1,0.7-3
		c0.4-0.9,0.9-1.7,1.6-2.3c0.7-0.7,1.5-1.2,2.5-1.5c1-0.4,2.1-0.5,3.5-0.5c1.4,0,2.7,0.2,3.7,0.6c1,0.4,1.9,1,2.5,1.7
		c0.7,0.7,1.1,1.6,1.5,2.6c0.3,1,0.5,2.1,0.5,3.3V77H581.1z"/>
	<path class="st1" d="M607.6,77V60.8c0-1.8-0.3-3.3-0.9-4.5c-0.6-1.2-1.7-2-3.1-2.4l-3.5,2.5l-3.4-2.5c-1.4,0.4-2.4,1.2-3.1,2.4
		c-0.6,1.2-1,2.7-1,4.5v13.4l6.8-6.6c-0.4,0-0.8-0.1-1.2-0.3c-0.4-0.2-0.7-0.4-1-0.7s-0.5-0.6-0.7-1.1c-0.2-0.4-0.3-0.9-0.3-1.4
		c0-0.6,0.1-1.1,0.3-1.6s0.5-0.9,0.8-1.3c0.3-0.4,0.8-0.6,1.3-0.8c0.5-0.2,1-0.3,1.6-0.3c0.6,0,1.1,0.1,1.6,0.3
		c0.5,0.2,0.9,0.5,1.3,0.9c0.3,0.4,0.6,0.8,0.8,1.3s0.3,1,0.3,1.6c0,0.6-0.1,1.1-0.3,1.7c-0.2,0.5-0.5,1-0.9,1.4l-10,9.9h-2.8V60.9
		c0-1.2,0.1-2.3,0.4-3.4c0.3-1,0.7-2,1.3-2.8c0.6-0.8,1.3-1.5,2.1-2c0.8-0.5,1.8-0.9,2.9-1.2L600,54l3.2-2.4
		c1.1,0.2,2.1,0.6,2.9,1.2c0.8,0.6,1.5,1.2,2.1,2c0.6,0.8,1,1.7,1.3,2.8c0.3,1,0.4,2.2,0.4,3.4V77H607.6z M600.2,65.8
		c0.5,0,1-0.2,1.3-0.5c0.4-0.4,0.5-0.8,0.5-1.3c0-0.5-0.2-1-0.5-1.3c-0.4-0.4-0.8-0.5-1.3-0.5s-1,0.2-1.4,0.5
		c-0.4,0.4-0.5,0.8-0.5,1.3c0,0.5,0.2,1,0.5,1.3C599.2,65.6,599.6,65.8,600.2,65.8z"/>
	<path class="st1" d="M632.7,77V60.9c0-1.1-0.2-2-0.6-2.9c-0.4-0.9-0.9-1.6-1.6-2.2c-0.7-0.6-1.5-1.1-2.4-1.4
		c-0.9-0.3-1.9-0.5-3-0.5c-1.7,0-3.1,0.4-4.4,1.2c-1.2,0.8-2.2,1.9-2.8,3.2l2.3,2.7V77h-2.5V61.5l-2.5-2.9c0.3-1.1,0.7-2,1.3-2.9
		c0.6-0.9,1.3-1.6,2.2-2.2c0.9-0.6,1.8-1.1,2.9-1.4c1.1-0.3,2.3-0.5,3.6-0.5c1.5,0,2.9,0.2,4.2,0.7c1.3,0.5,2.3,1.1,3.2,2
		c0.9,0.8,1.6,1.8,2.1,3s0.7,2.5,0.7,3.9V77H632.7z"/>
	<path class="st1" d="M659.6,77V56.5c0-0.8-0.2-1.4-0.7-1.9c-0.4-0.5-1.1-0.7-1.8-0.7c-0.6,0-1.1,0.2-1.5,0.5
		c-0.4,0.3-0.7,0.7-0.9,1.3L647.6,77h-2.4V59.5c-0.2,0.1-0.5,0.2-0.7,0.2c-0.3,0-0.5,0-0.8,0c-0.6,0-1.1-0.1-1.6-0.3
		c-0.5-0.2-0.9-0.5-1.3-0.9c-0.4-0.4-0.7-0.8-0.9-1.3c-0.2-0.5-0.3-1-0.3-1.6c0-0.6,0.1-1.1,0.3-1.6c0.2-0.5,0.5-0.9,0.9-1.3
		c0.4-0.4,0.8-0.7,1.3-0.9c0.5-0.2,1-0.3,1.6-0.3c0.6,0,1.1,0.1,1.6,0.3c0.5,0.2,0.9,0.5,1.3,0.9c0.4,0.4,0.7,0.8,0.9,1.3
		c0.2,0.5,0.3,1,0.3,1.6V70c0.8-2.4,1.5-4.9,2.4-7.3c0.8-2.4,1.6-4.9,2.4-7.3c0.4-1.4,1-2.3,1.7-2.9c0.7-0.6,1.7-0.9,2.9-0.9
		c0.7,0,1.4,0.1,2.1,0.4c0.6,0.2,1.2,0.6,1.6,1c0.4,0.4,0.8,0.9,1,1.5c0.2,0.6,0.4,1.3,0.4,2V77H659.6z M643.7,57.6
		c0.5,0,1-0.2,1.3-0.6s0.5-0.8,0.5-1.4c0-0.5-0.2-1-0.5-1.4s-0.8-0.5-1.3-0.5c-0.5,0-1,0.2-1.4,0.5c-0.4,0.4-0.5,0.8-0.5,1.4
		c0,0.5,0.2,1,0.5,1.4C642.7,57.4,643.2,57.6,643.7,57.6z"/>
	<path class="st1" d="M660.1,46.8c-1.7-0.6-3.3-1.1-4.8-1.5c-1.5-0.4-2.9-0.7-4.2-0.9c-1.3-0.2-2.5-0.4-3.6-0.4
		c-1.1-0.1-2.1-0.1-3.1-0.2c-0.5,0-0.8,0-1.2,0c-0.3,0-0.6,0-0.8,0c-0.2,0-0.4,0-0.6,0c-0.2,0-0.4,0-0.6,0.1c0.4-1.1,1-2.2,1.6-3.1
		c0.7-0.9,1.4-1.7,2.3-2.3c0.9-0.6,1.8-1.1,2.9-1.4c1.1-0.3,2.2-0.5,3.4-0.5c3.3,0,6,1.3,8.1,4v-6h2.4v12.8L660.1,46.8z M659.6,44.4
		c-0.9-1.9-1.9-3.3-3.2-4.2c-1.3-0.9-2.8-1.4-4.8-1.4c-0.7,0-1.5,0.1-2.2,0.2c-0.7,0.1-1.3,0.3-1.9,0.6c-0.6,0.3-1.1,0.6-1.6,1
		c-0.5,0.4-0.9,0.8-1.2,1.3c1.3,0,2.6,0,3.8,0.1c1.2,0.1,2.4,0.2,3.6,0.4c1.2,0.2,2.4,0.5,3.6,0.8C656.9,43.5,658.2,43.9,659.6,44.4
		z"/>
	<path class="st1" d="M659.8,32.5V25h2.4v7.5H659.8z"/>
</g>
<g class="st0">
	<path class="st1" d="M20.5,157l-10.7-4.6v0.8c0,0.6-0.1,1.1-0.3,1.6c-0.2,0.5-0.5,0.9-0.9,1.3c-0.4,0.4-0.8,0.7-1.3,0.9
		c-0.5,0.2-1,0.3-1.6,0.3c-0.6,0-1.1-0.1-1.6-0.3c-0.5-0.2-0.9-0.5-1.3-0.9c-0.4-0.4-0.7-0.8-0.9-1.3c-0.2-0.5-0.3-1-0.3-1.6
		c0-0.6,0.1-1.1,0.3-1.6c0.2-0.5,0.5-0.9,0.9-1.3c0.4-0.4,0.8-0.7,1.3-0.9c0.5-0.2,1-0.3,1.6-0.3c0.3,0,0.6,0,0.8,0
		c0.3,0,0.5,0.1,0.7,0.2v-9.9c-0.2,0.1-0.5,0.2-0.7,0.2c-0.3,0-0.5,0-0.8,0c-0.6,0-1.1-0.1-1.6-0.3c-0.5-0.2-0.9-0.5-1.3-0.9
		c-0.4-0.4-0.7-0.8-0.9-1.3c-0.2-0.5-0.3-1-0.3-1.6c0-0.6,0.1-1.1,0.3-1.6c0.2-0.5,0.5-0.9,0.9-1.3c0.4-0.4,0.8-0.7,1.3-0.9
		c0.5-0.2,1-0.3,1.6-0.3c0.6,0,1.1,0.1,1.6,0.3c0.5,0.2,0.9,0.5,1.3,0.9c0.4,0.4,0.7,0.8,0.9,1.3c0.2,0.5,0.3,1,0.3,1.6v14.5
		l10.6,4.4v-22.7h2.5V157H20.5z M5.7,137.5c0.5,0,1-0.2,1.3-0.5c0.4-0.4,0.5-0.8,0.5-1.4s-0.2-1-0.5-1.3c-0.4-0.4-0.8-0.5-1.3-0.5
		s-1,0.2-1.4,0.5c-0.4,0.4-0.5,0.8-0.5,1.3s0.2,1,0.5,1.4C4.7,137.4,5.1,137.5,5.7,137.5z M5.7,155.1c0.5,0,1-0.2,1.3-0.6
		c0.4-0.4,0.5-0.8,0.5-1.4c0-0.5-0.2-1-0.5-1.3c-0.4-0.4-0.8-0.5-1.3-0.5s-1,0.2-1.4,0.5c-0.4,0.4-0.5,0.8-0.5,1.3
		c0,0.5,0.2,1,0.5,1.4S5.1,155.1,5.7,155.1z"/>
	<path class="st1" d="M20.9,126.8c-1.7-0.6-3.3-1.1-4.8-1.5c-1.5-0.4-2.9-0.7-4.2-0.9c-1.3-0.2-2.5-0.4-3.6-0.4
		c-1.1-0.1-2.1-0.1-3.1-0.2c-0.5,0-0.8,0-1.2,0s-0.6,0-0.8,0c-0.2,0-0.4,0-0.6,0c-0.2,0-0.4,0-0.6,0.1c0.4-1.1,1-2.2,1.6-3.1
		c0.7-0.9,1.4-1.7,2.3-2.3C7,118,8,117.5,9,117.2c1.1-0.3,2.2-0.5,3.4-0.5c3.3,0,6,1.3,8.1,4v-6h2.4v12.8L20.9,126.8z M20.3,124.4
		c-0.9-1.9-1.9-3.3-3.2-4.2c-1.3-0.9-2.8-1.4-4.8-1.4c-0.7,0-1.5,0.1-2.2,0.2c-0.7,0.1-1.3,0.3-1.9,0.6c-0.6,0.3-1.1,0.6-1.6,1
		c-0.5,0.4-0.9,0.8-1.2,1.3c1.3,0,2.6,0,3.8,0.1c1.2,0.1,2.4,0.2,3.6,0.4c1.2,0.2,2.4,0.5,3.6,0.8C17.7,123.5,19,123.9,20.3,124.4z"
		/>
	<path class="st1" d="M36.9,157v-19.9c0-1.2-0.3-2.1-0.8-2.7c-0.5-0.6-1.4-0.9-2.6-0.9c-0.8,0-1.4,0.2-1.9,0.5
		c-0.5,0.3-0.8,0.8-1,1.4c0.1,0,0.2-0.1,0.5-0.1c0.2,0,0.4,0,0.6,0c0.6,0,1.2,0.1,1.6,0.3c0.5,0.2,0.9,0.5,1.2,0.8
		c0.3,0.3,0.6,0.7,0.7,1.2c0.2,0.5,0.2,0.9,0.2,1.5c0,0.6-0.1,1.1-0.3,1.5c-0.2,0.5-0.4,0.9-0.8,1.2c-0.3,0.3-0.7,0.6-1.2,0.8
		c-0.5,0.2-1,0.3-1.5,0.3c-0.6,0-1.2-0.1-1.7-0.4c-0.5-0.2-0.9-0.6-1.3-1c-0.4-0.4-0.6-0.9-0.8-1.5c-0.2-0.6-0.3-1.2-0.3-1.9
		c0-0.9,0.1-1.8,0.4-2.6c0.3-0.8,0.7-1.5,1.2-2.1c0.5-0.6,1.2-1,1.9-1.3c0.7-0.3,1.6-0.5,2.5-0.5c0.8,0,1.6,0.1,2.3,0.4
		c0.7,0.2,1.3,0.6,1.8,1.1c0.5,0.5,0.9,1,1.2,1.7c0.3,0.7,0.4,1.5,0.4,2.4v17.6h5.3v-13.5c0-0.7-0.1-1.3-0.2-1.8
		c-0.1-0.5-0.3-1-0.6-1.3c-0.3-0.4-0.6-0.7-1-1c-0.4-0.3-0.9-0.5-1.4-0.8l6.6-7.2l1.8,1.6l-4.9,5.3c0.7,0.5,1.3,1.2,1.7,1.9
		c0.4,0.8,0.6,1.8,0.6,3v16H36.9z M31.6,140.9c0.5,0,0.9-0.2,1.2-0.5c0.3-0.4,0.5-0.8,0.5-1.3c0-0.5-0.2-1-0.5-1.3
		c-0.3-0.3-0.7-0.5-1.3-0.5c-0.6,0-1,0.2-1.3,0.5s-0.5,0.8-0.5,1.3c0,0.5,0.2,1,0.5,1.3C30.7,140.7,31.1,140.9,31.6,140.9z"/>
	<path class="st1" d="M45.2,126.8c-1.7-0.6-3.3-1.1-4.8-1.5c-1.5-0.4-2.9-0.7-4.2-0.9c-1.3-0.2-2.5-0.4-3.6-0.4
		c-1.1-0.1-2.1-0.1-3.1-0.2c-0.5,0-0.8,0-1.2,0s-0.6,0-0.8,0c-0.2,0-0.4,0-0.6,0c-0.2,0-0.4,0-0.6,0.1c0.4-1.1,1-2.2,1.6-3.1
		c0.7-0.9,1.4-1.7,2.3-2.3c0.9-0.6,1.8-1.1,2.9-1.4c1.1-0.3,2.2-0.5,3.4-0.5c0.4,0,0.8,0,1.1,0c0.3,0,0.6,0,0.8,0.1s0.5,0.1,0.7,0.2
		c0.2,0.1,0.5,0.2,0.8,0.3v-2.6h2.5v3.9c0.4,0.3,0.7,0.6,1.1,0.9s0.7,0.7,1.1,1.2v-6h2.4v12.8L45.2,126.8z M44.6,124.4
		c-0.9-1.9-1.9-3.3-3.2-4.2c-1.3-0.9-2.8-1.4-4.8-1.4c-0.7,0-1.5,0.1-2.2,0.2c-0.7,0.1-1.3,0.3-1.9,0.6c-0.6,0.3-1.1,0.6-1.6,1
		c-0.5,0.4-0.9,0.8-1.2,1.3c1.3,0,2.6,0,3.8,0.1c1.2,0.1,2.4,0.2,3.6,0.4c1.2,0.2,2.4,0.5,3.6,0.8C41.9,123.5,43.2,123.9,44.6,124.4
		z"/>
	<path class="st1" d="M44.8,112.5V105h2.4v7.5H44.8z"/>
	<path class="st1" d="M54.9,157v-12.3c0-0.6,0.1-1.1,0.3-1.6c0.2-0.5,0.5-0.9,0.9-1.3c0.4-0.4,0.8-0.6,1.3-0.8
		c0.5-0.2,1-0.3,1.6-0.3c0.6,0,1.1,0.1,1.6,0.3s0.9,0.5,1.3,0.8c0.3,0.4,0.6,0.8,0.8,1.3c0.2,0.5,0.3,1,0.3,1.6
		c0,0.6-0.1,1.1-0.3,1.6c-0.2,0.5-0.5,0.9-0.8,1.3c-0.4,0.3-0.8,0.6-1.3,0.8c-0.5,0.2-1,0.3-1.6,0.3c-0.3,0-0.6,0-0.8-0.1
		c-0.3,0-0.5-0.1-0.7-0.2v6.3h11.4v-14.5c0-1-0.2-1.9-0.5-2.7c-0.4-0.8-0.8-1.5-1.5-2c-0.6-0.6-1.4-1-2.3-1.3
		c-0.9-0.3-1.9-0.4-2.9-0.4c-0.9,0-1.8,0.1-2.5,0.4c-0.8,0.3-1.4,0.6-2,1.1c-0.6,0.5-1.1,1-1.4,1.6c-0.4,0.6-0.6,1.3-0.7,2h-2.7
		c0.2-1.1,0.5-2.1,1.1-3c0.5-0.9,1.2-1.7,2-2.3c0.8-0.6,1.8-1.1,2.8-1.5c1.1-0.4,2.2-0.5,3.4-0.5c1.4,0,2.7,0.2,3.9,0.6
		c1.2,0.4,2.2,0.9,3.1,1.7c0.9,0.7,1.5,1.6,2,2.7c0.5,1.1,0.7,2.3,0.7,3.7V157H54.9z M60.8,144.7c0-0.5-0.2-1-0.5-1.3
		c-0.3-0.3-0.8-0.5-1.3-0.5s-1,0.2-1.3,0.5c-0.3,0.4-0.5,0.8-0.5,1.3s0.2,1,0.5,1.3s0.8,0.5,1.3,0.5s1-0.2,1.3-0.5
		S60.8,145.3,60.8,144.7z"/>
	<path class="st1" d="M78.7,131.9h2.5v17.5c0.2-0.1,0.5-0.2,0.7-0.2c0.3,0,0.5,0,0.8,0c0.6,0,1.1,0.1,1.6,0.3
		c0.5,0.2,0.9,0.5,1.3,0.9c0.4,0.4,0.7,0.8,0.9,1.3c0.2,0.5,0.3,1,0.3,1.6c0,0.6-0.1,1.1-0.3,1.6c-0.2,0.5-0.5,0.9-0.9,1.3
		c-0.4,0.4-0.8,0.7-1.3,0.9c-0.5,0.2-1,0.3-1.6,0.3c-0.6,0-1.1-0.1-1.6-0.3c-0.5-0.2-0.9-0.5-1.3-0.9c-0.4-0.4-0.7-0.8-0.9-1.3
		c-0.2-0.5-0.3-1-0.3-1.6V131.9z M82.8,155.1c0.5,0,1-0.2,1.3-0.6s0.5-0.8,0.5-1.4c0-0.5-0.2-1-0.5-1.3c-0.4-0.4-0.8-0.5-1.3-0.5
		s-1,0.2-1.3,0.5c-0.3,0.4-0.5,0.8-0.5,1.3c0,0.5,0.2,1,0.5,1.4C81.8,154.9,82.2,155.1,82.8,155.1z"/>
	<path class="st1" d="M106.7,157v-9.9c0-0.7-0.1-1.3-0.4-1.9c-0.3-0.6-0.7-1.1-1.3-1.6s-1.3-0.8-2.1-1.1c-0.8-0.3-1.8-0.4-2.9-0.4
		c-1,0-1.8,0.1-2.6,0.4c-0.7,0.3-1.4,0.6-1.9,1.1c-0.5,0.5-0.9,1-1.1,1.7c-0.3,0.7-0.4,1.4-0.4,2.2v1.9c0.2-0.1,0.5-0.2,0.7-0.2
		c0.2,0,0.5,0,0.8,0c0.6,0,1.1,0.1,1.6,0.3c0.5,0.2,0.9,0.5,1.3,0.9c0.4,0.4,0.7,0.8,0.9,1.3c0.2,0.5,0.3,1,0.3,1.6
		c0,0.6-0.1,1.1-0.3,1.6c-0.2,0.5-0.5,0.9-0.9,1.3c-0.4,0.4-0.8,0.7-1.3,0.9c-0.5,0.2-1,0.3-1.6,0.3c-0.6,0-1.1-0.1-1.6-0.3
		c-0.5-0.2-0.9-0.5-1.3-0.9c-0.4-0.4-0.6-0.8-0.8-1.3c-0.2-0.5-0.3-1-0.3-1.6v-5.8c0-1.1,0.2-2.1,0.6-3c0.4-0.9,1-1.7,1.8-2.4
		c0.8-0.7,1.7-1.2,2.7-1.6c1-0.4,2.2-0.6,3.5-0.6c1.5,0,2.8,0.2,3.9,0.7c1,0.4,2,1.1,2.8,1.9v-3.5c0-0.7-0.2-1.4-0.5-2
		c-0.3-0.6-0.8-1.2-1.3-1.6c-0.6-0.5-1.3-0.8-2.2-1.1c-0.9-0.3-1.8-0.4-3-0.4c-1.4,0-2.5,0.1-3.4,0.4s-1.7,0.7-2.3,1.2s-1,1-1.3,1.6
		c-0.3,0.6-0.5,1.2-0.5,1.9h-2.4c0-1,0.3-1.9,0.8-2.8c0.5-0.9,1.1-1.7,2-2.3c0.8-0.7,1.9-1.2,3.1-1.6c1.2-0.4,2.6-0.6,4.1-0.6
		c1.1,0,2.1,0.1,3,0.3c0.9,0.2,1.8,0.5,2.5,0.9l3.7-3.7l1.8,1.6l-3.5,3.3c1.4,1.3,2.1,2.9,2.1,5v18H106.7z M95.5,155.1
		c0.5,0,1-0.2,1.4-0.6s0.5-0.8,0.5-1.4c0-0.5-0.2-1-0.5-1.3c-0.4-0.4-0.8-0.5-1.4-0.5s-1,0.2-1.3,0.5c-0.4,0.4-0.5,0.8-0.5,1.3
		c0,0.5,0.2,1,0.5,1.4C94.5,154.9,94.9,155.1,95.5,155.1z"/>
	<path class="st1" d="M107.2,126.8c-1.7-0.6-3.3-1.1-4.8-1.5c-1.5-0.4-2.9-0.7-4.2-0.9c-1.3-0.2-2.5-0.4-3.6-0.4
		c-1.1-0.1-2.1-0.1-3.1-0.2c-0.5,0-0.8,0-1.2,0s-0.6,0-0.8,0c-0.2,0-0.4,0-0.6,0c-0.2,0-0.4,0-0.6,0.1c0.4-1.1,1-2.2,1.6-3.1
		c0.7-0.9,1.4-1.7,2.3-2.3c0.9-0.6,1.8-1.1,2.9-1.4c1.1-0.3,2.2-0.5,3.4-0.5c3.3,0,6,1.3,8.1,4v-6h2.4v12.8L107.2,126.8z
		 M106.6,124.4c-0.9-1.9-1.9-3.3-3.2-4.2c-1.3-0.9-2.8-1.4-4.8-1.4c-0.7,0-1.5,0.1-2.2,0.2c-0.7,0.1-1.3,0.3-1.9,0.6
		c-0.6,0.3-1.1,0.6-1.6,1c-0.5,0.4-0.9,0.8-1.2,1.3c1.3,0,2.6,0,3.8,0.1c1.2,0.1,2.4,0.2,3.6,0.4c1.2,0.2,2.4,0.5,3.6,0.8
		C103.9,123.5,105.2,123.9,106.6,124.4z"/>
	<path class="st1" d="M116.1,157v-7.6c0-2.8,1.1-4.5,3.2-5.3c-1.5-0.4-2.7-1.1-3.5-2.2c-0.8-1.1-1.2-2.4-1.2-4
		c0-0.9,0.2-1.8,0.5-2.5c0.3-0.8,0.8-1.4,1.4-2c0.6-0.6,1.3-1,2.1-1.3c0.8-0.3,1.7-0.5,2.6-0.5c1.3,0,2.4,0.3,3.1,1
		c0.8,0.7,1.2,1.6,1.2,2.7c0,0.6-0.1,1.1-0.3,1.6c-0.2,0.5-0.4,0.9-0.8,1.2c-0.3,0.4-0.7,0.6-1.2,0.8c-0.5,0.2-1,0.3-1.7,0.3
		c-1,0-1.8-0.3-2.5-0.8c-0.7-0.5-1.2-1.3-1.4-2.4c-0.2,0.3-0.3,0.6-0.3,1c-0.1,0.3-0.1,0.7-0.1,1.1c0,0.7,0.1,1.3,0.3,1.9
		c0.2,0.5,0.5,1,0.9,1.4c0.4,0.4,1,0.7,1.7,0.9c0.7,0.2,1.6,0.3,2.6,0.3h2.4v2.5h-2.7c-1.2,0-2.1,0.3-2.8,1
		c-0.6,0.7-0.9,1.8-0.9,3.3v5.3h12.2v-22.9h2.5V157H116.1z M123.3,135.4c0-0.5-0.2-0.9-0.5-1.3c-0.4-0.4-0.8-0.6-1.3-0.6
		c-0.6,0-1,0.2-1.4,0.5c-0.3,0.3-0.5,0.8-0.5,1.4c0,0.5,0.2,1,0.5,1.3c0.3,0.3,0.8,0.5,1.3,0.5c0.5,0,0.9-0.2,1.3-0.5
		C123.2,136.4,123.3,136,123.3,135.4z"/>
	<path class="st1" d="M149.7,157l-11.8-13.1l1.7-1.7l10.5,11.5v-14.3c-0.2,0.1-0.5,0.2-0.7,0.2s-0.5,0-0.8,0c-0.6,0-1.1-0.1-1.6-0.3
		c-0.5-0.2-0.9-0.5-1.3-0.9c-0.4-0.4-0.7-0.8-0.9-1.3c-0.2-0.5-0.3-1-0.3-1.6c0-0.6,0.1-1.1,0.3-1.6c0.2-0.5,0.5-0.9,0.9-1.3
		c0.4-0.4,0.8-0.7,1.3-0.9c0.5-0.2,1-0.3,1.6-0.3s1.1,0.1,1.6,0.3c0.5,0.2,0.9,0.5,1.3,0.9c0.4,0.4,0.7,0.8,0.9,1.3
		c0.2,0.5,0.3,1,0.3,1.6V157H149.7z M148.5,137.6c0.5,0,1-0.2,1.3-0.6c0.3-0.4,0.5-0.8,0.5-1.4c0-0.5-0.2-1-0.5-1.4
		c-0.4-0.4-0.8-0.5-1.3-0.5s-1,0.2-1.4,0.5s-0.5,0.8-0.5,1.4c0,0.5,0.2,1,0.5,1.4S148,137.6,148.5,137.6z"/>
	<path class="st1" d="M176.6,157l-10.7-4.6v0.8c0,0.6-0.1,1.1-0.3,1.6c-0.2,0.5-0.5,0.9-0.9,1.3c-0.4,0.4-0.8,0.7-1.3,0.9
		c-0.5,0.2-1,0.3-1.6,0.3c-0.6,0-1.1-0.1-1.6-0.3c-0.5-0.2-0.9-0.5-1.3-0.9c-0.4-0.4-0.7-0.8-0.9-1.3c-0.2-0.5-0.3-1-0.3-1.6
		c0-0.6,0.1-1.1,0.3-1.6c0.2-0.5,0.5-0.9,0.9-1.3c0.4-0.4,0.8-0.7,1.3-0.9c0.5-0.2,1-0.3,1.6-0.3c0.3,0,0.6,0,0.8,0
		c0.3,0,0.5,0.1,0.7,0.2v-9.9c-0.2,0.1-0.5,0.2-0.7,0.2c-0.3,0-0.5,0-0.8,0c-0.6,0-1.1-0.1-1.6-0.3c-0.5-0.2-0.9-0.5-1.3-0.9
		c-0.4-0.4-0.7-0.8-0.9-1.3c-0.2-0.5-0.3-1-0.3-1.6c0-0.6,0.1-1.1,0.3-1.6c0.2-0.5,0.5-0.9,0.9-1.3c0.4-0.4,0.8-0.7,1.3-0.9
		c0.5-0.2,1-0.3,1.6-0.3c0.6,0,1.1,0.1,1.6,0.3c0.5,0.2,0.9,0.5,1.3,0.9c0.4,0.4,0.7,0.8,0.9,1.3c0.2,0.5,0.3,1,0.3,1.6v14.5
		l10.6,4.4v-22.7h2.5V157H176.6z M161.8,137.5c0.5,0,1-0.2,1.3-0.5c0.4-0.4,0.5-0.8,0.5-1.4s-0.2-1-0.5-1.3
		c-0.4-0.4-0.8-0.5-1.3-0.5s-1,0.2-1.4,0.5c-0.4,0.4-0.5,0.8-0.5,1.3s0.2,1,0.5,1.4C160.8,137.4,161.3,137.5,161.8,137.5z
		 M161.8,155.1c0.5,0,1-0.2,1.3-0.6c0.4-0.4,0.5-0.8,0.5-1.4c0-0.5-0.2-1-0.5-1.3c-0.4-0.4-0.8-0.5-1.3-0.5s-1,0.2-1.4,0.5
		c-0.4,0.4-0.5,0.8-0.5,1.3c0,0.5,0.2,1,0.5,1.4S161.3,155.1,161.8,155.1z"/>
	<path class="st1" d="M197.8,157v-17.2c0-0.8-0.1-1.6-0.3-2.3c-0.2-0.7-0.5-1.4-1-1.9c-0.5-0.5-1-1-1.8-1.3
		c-0.7-0.3-1.6-0.5-2.6-0.5c-0.9,0-1.8,0.1-2.4,0.4c-0.7,0.3-1.2,0.6-1.7,1.1c-0.5,0.5-0.8,1-1.1,1.6c-0.3,0.6-0.4,1.3-0.5,2h-2.5
		c0.1-1.1,0.3-2.1,0.7-3c0.4-0.9,0.9-1.7,1.6-2.3c0.7-0.7,1.5-1.2,2.5-1.5c1-0.4,2.1-0.5,3.5-0.5c1.4,0,2.7,0.2,3.7,0.6
		c1,0.4,1.9,1,2.5,1.7c0.7,0.7,1.1,1.6,1.5,2.6c0.3,1,0.5,2.1,0.5,3.3V157H197.8z"/>
	<path class="st1" d="M222.9,157v-16.1c0-1.1-0.2-2-0.6-2.9c-0.4-0.9-0.9-1.6-1.6-2.2c-0.7-0.6-1.5-1.1-2.4-1.4
		c-0.9-0.3-1.9-0.5-3-0.5c-1.7,0-3.1,0.4-4.4,1.2c-1.2,0.8-2.2,1.9-2.8,3.2l2.3,2.7V157h-2.5v-15.5l-2.5-2.9c0.3-1.1,0.7-2,1.3-2.9
		c0.6-0.9,1.3-1.6,2.2-2.2c0.9-0.6,1.8-1.1,2.9-1.4c1.1-0.3,2.3-0.5,3.6-0.5c1.5,0,2.9,0.2,4.2,0.7c1.3,0.5,2.3,1.1,3.2,2
		c0.9,0.8,1.6,1.8,2.1,3s0.7,2.5,0.7,3.9V157H222.9z"/>
	<path class="st1" d="M262.4,157v-15.7c0-1.1-0.2-2.1-0.5-3.1c-0.3-0.9-0.8-1.7-1.4-2.4c-0.6-0.7-1.4-1.2-2.3-1.5
		c-0.9-0.4-2-0.5-3.3-0.5s-2.4,0.2-3.3,0.5c-0.9,0.4-1.7,0.9-2.3,1.5c-0.6,0.7-1.1,1.5-1.4,2.4c-0.3,0.9-0.5,2-0.5,3.1v12.8l6.8-7
		c-0.4,0-0.8-0.1-1.1-0.3c-0.4-0.2-0.7-0.4-1-0.7c-0.3-0.3-0.5-0.7-0.7-1.1c-0.2-0.4-0.3-0.9-0.3-1.4c0-0.6,0.1-1.1,0.3-1.6
		s0.5-0.9,0.8-1.3c0.3-0.4,0.8-0.6,1.3-0.8c0.5-0.2,1-0.3,1.6-0.3c0.6,0,1.1,0.1,1.6,0.3c0.5,0.2,0.9,0.5,1.3,0.9
		c0.3,0.4,0.6,0.8,0.8,1.3c0.2,0.5,0.3,1,0.3,1.6c0,0.5-0.1,1-0.3,1.6c-0.2,0.5-0.5,1-0.9,1.3l-10,10.5h-2.8v-15.6
		c0-1.5,0.2-2.9,0.7-4.1c0.4-1.2,1.1-2.2,2-3.1c0.9-0.9,1.9-1.5,3.1-2c1.2-0.5,2.6-0.7,4.2-0.7c1.6,0,3,0.2,4.2,0.7
		c1.2,0.5,2.3,1.1,3.1,2c0.9,0.9,1.5,1.9,2,3.1c0.5,1.2,0.7,2.6,0.7,4.1V157H262.4z M255,145.3c0.5,0,1-0.2,1.3-0.5
		c0.4-0.4,0.5-0.8,0.5-1.3c0-0.5-0.2-1-0.5-1.3c-0.4-0.4-0.8-0.5-1.3-0.5s-1,0.2-1.4,0.5c-0.4,0.4-0.5,0.8-0.5,1.3
		c0,0.5,0.2,1,0.5,1.3C254,145.1,254.4,145.3,255,145.3z"/>
	<path class="st1" d="M268,116.1c0,1.7-0.4,3.3-1.1,4.6c-0.7,1.3-1.7,2.5-2.9,3.4c-1.2,0.9-2.6,1.6-4.2,2.1c-1.6,0.5-3.3,0.7-5,0.7
		c-0.4,0-0.7,0-0.9,0c-0.3,0-0.5,0-0.6,0v-1.6c0.5-0.2,0.9-0.6,1.3-1s0.6-0.8,0.8-1.3c-0.1,0-0.3,0-0.4,0c-0.1,0-0.3,0-0.4,0
		c-0.6,0-1.2-0.1-1.6-0.3c-0.5-0.2-0.8-0.4-1.1-0.8c-0.3-0.3-0.5-0.7-0.7-1.1c-0.1-0.4-0.2-0.9-0.2-1.4c0-0.5,0.1-1,0.3-1.5
		c0.2-0.4,0.5-0.8,0.8-1.2c0.3-0.3,0.7-0.6,1.2-0.8c0.5-0.2,0.9-0.3,1.5-0.3c0.6,0,1.2,0.1,1.7,0.3c0.5,0.2,0.9,0.5,1.2,0.9
		c0.3,0.4,0.6,0.8,0.7,1.3c0.2,0.5,0.2,1.1,0.2,1.7c0,1-0.2,2-0.7,2.8c-0.5,0.9-1,1.6-1.7,2.2c1.4-0.1,2.6-0.3,3.8-0.8
		c1.2-0.4,2.2-1,3.1-1.8c0.9-0.8,1.6-1.7,2.1-2.7c0.5-1.1,0.8-2.3,0.8-3.6H268z M256.3,119.5c0-0.5-0.2-1-0.5-1.3s-0.8-0.5-1.3-0.5
		c-0.5,0-1,0.2-1.3,0.5s-0.5,0.8-0.5,1.3c0,0.6,0.2,1,0.5,1.3c0.3,0.3,0.8,0.5,1.3,0.5c0.6,0,1-0.2,1.3-0.5S256.3,120,256.3,119.5z"
		/>
	<path class="st1" d="M283.5,157v-17.2c0-0.8-0.1-1.6-0.3-2.3c-0.2-0.7-0.5-1.4-1-1.9c-0.5-0.5-1-1-1.8-1.3
		c-0.7-0.3-1.6-0.5-2.6-0.5c-0.9,0-1.8,0.1-2.4,0.4c-0.7,0.3-1.2,0.6-1.7,1.1c-0.5,0.5-0.8,1-1.1,1.6c-0.3,0.6-0.4,1.3-0.5,2h-2.5
		c0.1-1.1,0.3-2.1,0.7-3c0.4-0.9,0.9-1.7,1.6-2.3c0.7-0.7,1.5-1.2,2.5-1.5c1-0.4,2.1-0.5,3.5-0.5c1.4,0,2.7,0.2,3.7,0.6
		c1,0.4,1.9,1,2.5,1.7c0.7,0.7,1.1,1.6,1.5,2.6c0.3,1,0.5,2.1,0.5,3.3V157H283.5z"/>
	<path class="st1" d="M307.4,153l-8.7,4H296v-17.5c-0.2,0.1-0.5,0.2-0.7,0.2c-0.3,0-0.5,0-0.8,0c-0.6,0-1.1-0.1-1.6-0.3
		c-0.5-0.2-0.9-0.5-1.3-0.9c-0.4-0.4-0.7-0.8-0.9-1.3c-0.2-0.5-0.3-1-0.3-1.6c0-0.6,0.1-1.1,0.3-1.6c0.2-0.5,0.5-0.9,0.9-1.3
		c0.4-0.4,0.8-0.7,1.3-0.9c0.5-0.2,1-0.3,1.6-0.3c0.6,0,1.1,0.1,1.6,0.3c0.5,0.2,0.9,0.5,1.3,0.9c0.4,0.4,0.7,0.8,0.9,1.3
		c0.2,0.5,0.3,1,0.3,1.6v19l11.5-5.1v-17.7h2.5v17.9c0.8,0.3,1.4,0.8,1.9,1.4c0.5,0.7,0.7,1.4,0.7,2.3c0,0.6-0.1,1.1-0.3,1.6
		c-0.2,0.5-0.5,0.9-0.8,1.2c-0.3,0.4-0.8,0.6-1.2,0.8c-0.5,0.2-1,0.3-1.5,0.3c-0.6,0-1.1-0.1-1.5-0.3c-0.5-0.2-0.9-0.4-1.2-0.8
		c-0.3-0.3-0.6-0.7-0.8-1.2c-0.2-0.5-0.3-1-0.3-1.5V153z M294.5,137.6c0.5,0,1-0.2,1.3-0.6s0.5-0.8,0.5-1.4c0-0.5-0.2-1-0.5-1.4
		s-0.8-0.5-1.3-0.5c-0.5,0-1,0.2-1.4,0.5s-0.5,0.8-0.5,1.4c0,0.5,0.2,1,0.5,1.4S293.9,137.6,294.5,137.6z M311.3,155.2
		c0.5,0,0.9-0.2,1.2-0.5c0.3-0.3,0.5-0.7,0.5-1.2c0-0.5-0.2-0.9-0.5-1.2c-0.3-0.3-0.7-0.5-1.2-0.5c-0.5,0-0.9,0.2-1.2,0.5
		c-0.3,0.3-0.5,0.7-0.5,1.2c0,0.5,0.2,0.9,0.5,1.2C310.4,155,310.8,155.2,311.3,155.2z"/>
	<path class="st1" d="M335.2,157v-9.9c0-0.7-0.1-1.3-0.4-1.9c-0.3-0.6-0.7-1.1-1.3-1.6c-0.6-0.5-1.3-0.8-2.1-1.1
		c-0.8-0.3-1.8-0.4-2.9-0.4c-1,0-1.8,0.1-2.6,0.4c-0.7,0.3-1.4,0.6-1.9,1.1c-0.5,0.5-0.9,1-1.1,1.7c-0.3,0.7-0.4,1.4-0.4,2.2v1.9
		c0.2-0.1,0.5-0.2,0.7-0.2c0.2,0,0.5,0,0.8,0c0.6,0,1.1,0.1,1.6,0.3c0.5,0.2,0.9,0.5,1.3,0.9c0.4,0.4,0.7,0.8,0.9,1.3
		c0.2,0.5,0.3,1,0.3,1.6c0,0.6-0.1,1.1-0.3,1.6c-0.2,0.5-0.5,0.9-0.9,1.3c-0.4,0.4-0.8,0.7-1.3,0.9c-0.5,0.2-1,0.3-1.6,0.3
		c-0.6,0-1.1-0.1-1.6-0.3c-0.5-0.2-0.9-0.5-1.3-0.9c-0.4-0.4-0.6-0.8-0.8-1.3c-0.2-0.5-0.3-1-0.3-1.6v-5.8c0-1.1,0.2-2.1,0.6-3
		c0.4-0.9,1-1.7,1.8-2.4c0.8-0.7,1.7-1.2,2.7-1.6c1-0.4,2.2-0.6,3.5-0.6c1.5,0,2.8,0.2,3.9,0.7c1,0.4,2,1.1,2.8,1.9v-3.5
		c0-0.7-0.2-1.4-0.5-2c-0.3-0.6-0.8-1.2-1.3-1.6c-0.6-0.5-1.3-0.8-2.2-1.1c-0.9-0.3-1.8-0.4-3-0.4c-1.4,0-2.5,0.1-3.4,0.4
		s-1.7,0.7-2.3,1.2s-1,1-1.3,1.6c-0.3,0.6-0.5,1.2-0.6,1.9h-2.4c0-1,0.3-1.9,0.8-2.8c0.5-0.9,1.1-1.7,2-2.3c0.8-0.7,1.9-1.2,3.1-1.6
		c1.2-0.4,2.6-0.6,4.1-0.6c1.4,0,2.7,0.2,3.9,0.5c1.2,0.4,2.2,0.9,3,1.5s1.5,1.4,1.9,2.4c0.5,0.9,0.7,1.9,0.7,3.1v18H335.2z
		 M324,155.1c0.5,0,1-0.2,1.4-0.6s0.5-0.8,0.5-1.4c0-0.5-0.2-1-0.5-1.3c-0.4-0.4-0.8-0.5-1.4-0.5s-1,0.2-1.3,0.5
		c-0.4,0.4-0.5,0.8-0.5,1.3c0,0.5,0.2,1,0.5,1.4C323,154.9,323.5,155.1,324,155.1z"/>
	<path class="st1" d="M335.2,126.8v-9h2.6v9H335.2z"/>
	<path class="st1" d="M356.4,157v-17.2c0-0.8-0.1-1.6-0.3-2.3c-0.2-0.7-0.5-1.4-1-1.9c-0.5-0.5-1-1-1.8-1.3
		c-0.7-0.3-1.6-0.5-2.6-0.5c-0.9,0-1.8,0.1-2.4,0.4c-0.7,0.3-1.2,0.6-1.7,1.1c-0.5,0.5-0.8,1-1.1,1.6c-0.3,0.6-0.4,1.3-0.5,2h-2.5
		c0.1-1.1,0.3-2.1,0.7-3c0.4-0.9,0.9-1.7,1.6-2.3c0.7-0.7,1.5-1.2,2.5-1.5c1-0.4,2.1-0.5,3.5-0.5c1.4,0,2.7,0.2,3.7,0.6
		c1,0.4,1.9,1,2.5,1.7c0.7,0.7,1.1,1.6,1.5,2.6c0.3,1,0.5,2.1,0.5,3.3V157H356.4z"/>
	<path class="st1" d="M375.3,157l-11.8-13.1l1.7-1.7l10.5,11.5v-14.3c-0.2,0.1-0.5,0.2-0.7,0.2c-0.3,0-0.5,0-0.8,0
		c-0.6,0-1.1-0.1-1.6-0.3c-0.5-0.2-0.9-0.5-1.3-0.9c-0.4-0.4-0.7-0.8-0.9-1.3c-0.2-0.5-0.3-1-0.3-1.6c0-0.6,0.1-1.1,0.3-1.6
		c0.2-0.5,0.5-0.9,0.9-1.3c0.4-0.4,0.8-0.7,1.3-0.9c0.5-0.2,1-0.3,1.6-0.3c0.6,0,1.1,0.1,1.6,0.3c0.5,0.2,0.9,0.5,1.3,0.9
		c0.4,0.4,0.7,0.8,0.9,1.3c0.2,0.5,0.3,1,0.3,1.6V157H375.3z M374.1,137.6c0.5,0,1-0.2,1.3-0.6s0.5-0.8,0.5-1.4c0-0.5-0.2-1-0.5-1.4
		s-0.8-0.5-1.3-0.5s-1,0.2-1.4,0.5c-0.4,0.4-0.5,0.8-0.5,1.4c0,0.5,0.2,1,0.5,1.4C373.1,137.4,373.6,137.6,374.1,137.6z"/>
	<path class="st1" d="M385.5,131.9h2.5v17.5c0.2-0.1,0.5-0.2,0.7-0.2c0.3,0,0.5,0,0.8,0c0.6,0,1.1,0.1,1.6,0.3
		c0.5,0.2,0.9,0.5,1.3,0.9c0.4,0.4,0.7,0.8,0.9,1.3c0.2,0.5,0.3,1,0.3,1.6c0,0.6-0.1,1.1-0.3,1.6c-0.2,0.5-0.5,0.9-0.9,1.3
		c-0.4,0.4-0.8,0.7-1.3,0.9c-0.5,0.2-1,0.3-1.6,0.3c-0.6,0-1.1-0.1-1.6-0.3s-0.9-0.5-1.3-0.9c-0.4-0.4-0.7-0.8-0.9-1.3
		c-0.2-0.5-0.3-1-0.3-1.6V131.9z M389.6,155.1c0.5,0,1-0.2,1.3-0.6s0.5-0.8,0.5-1.4c0-0.5-0.2-1-0.5-1.3c-0.4-0.4-0.8-0.5-1.3-0.5
		c-0.5,0-1,0.2-1.3,0.5c-0.3,0.4-0.5,0.8-0.5,1.3c0,0.5,0.2,1,0.5,1.4C388.6,154.9,389.1,155.1,389.6,155.1z"/>
	<path class="st1" d="M401,157v-17.5c-0.2,0.1-0.5,0.2-0.7,0.2c-0.3,0-0.5,0-0.8,0c-0.6,0-1.1-0.1-1.6-0.3c-0.5-0.2-0.9-0.5-1.3-0.9
		c-0.4-0.4-0.7-0.8-0.9-1.3c-0.2-0.5-0.3-1-0.3-1.6c0-0.6,0.1-1.1,0.3-1.6c0.2-0.5,0.5-0.9,0.9-1.3c0.4-0.4,0.8-0.7,1.3-0.9
		c0.5-0.2,1-0.3,1.6-0.3c0.6,0,1.1,0.1,1.6,0.3c0.5,0.2,0.9,0.5,1.3,0.9c0.4,0.4,0.7,0.8,0.9,1.3c0.2,0.5,0.3,1,0.3,1.6v19.1h11.8
		v-34.9h2.5V157H401z M399.5,137.5c0.5,0,1-0.2,1.3-0.5c0.3-0.4,0.5-0.8,0.5-1.4s-0.2-1-0.5-1.3c-0.3-0.4-0.8-0.5-1.3-0.5
		c-0.5,0-1,0.2-1.4,0.5c-0.4,0.4-0.5,0.8-0.5,1.3s0.2,1,0.5,1.4C398.5,137.4,399,137.5,399.5,137.5z"/>
	<path class="st1" d="M400.6,127c-0.6,0-1.2-0.1-1.8-0.4c-0.6-0.2-1-0.6-1.5-1.1c-0.4-0.5-0.7-1-1-1.7c-0.2-0.7-0.4-1.5-0.4-2.3
		c0-0.7,0.1-1.4,0.4-2c0.3-0.6,0.6-1.2,1.1-1.6c0.5-0.5,1.1-0.8,1.8-1.1c0.7-0.3,1.5-0.4,2.5-0.4h5.8c0.9,0,1.6-0.2,2.1-0.5
		c0.5-0.3,0.9-0.8,1.3-1.4l1.9,1.3c-0.5,1-1.2,1.7-2,2.1s-1.9,0.6-3.2,0.6h-5.8c-1.2,0-2.1,0.3-2.6,0.8c-0.5,0.6-0.8,1.3-0.8,2.3
		c0,1,0.1,1.7,0.4,2.2c0.3,0.5,0.7,0.8,1.2,1l2.8-3.2l1.3,1.6c0.4,0.4,0.7,0.8,1,1c0.3,0.3,0.6,0.4,0.9,0.5c0,0,0-0.1,0-0.2
		c0-0.1,0-0.2,0-0.2c0-1,0.3-1.7,0.9-2.2s1.3-0.8,2.2-0.8c0.4,0,0.9,0.1,1.2,0.2c0.4,0.1,0.7,0.4,1,0.6c0.3,0.3,0.5,0.6,0.6,1
		c0.2,0.4,0.2,0.8,0.2,1.2c0,0.4-0.1,0.8-0.2,1.1c-0.1,0.4-0.4,0.7-0.7,1c-0.3,0.3-0.7,0.5-1.1,0.7c-0.5,0.2-1,0.3-1.6,0.3
		c-1.3,0-2.4-0.2-3.3-0.6c-0.9-0.4-1.6-1.1-2.3-2L400.6,127z M409,125.6c0.9,0,1.3-0.5,1.3-1.5c0-0.4-0.1-0.7-0.3-1
		c-0.2-0.3-0.5-0.4-1-0.4c-0.5,0-0.8,0.1-1,0.4c-0.2,0.3-0.3,0.6-0.3,1C407.6,125.1,408.1,125.6,409,125.6z"/>
	<path class="st1" d="M439.2,153l-8.7,4h-2.7v-17.5c-0.2,0.1-0.5,0.2-0.7,0.2s-0.5,0-0.8,0c-0.6,0-1.1-0.1-1.6-0.3
		c-0.5-0.2-0.9-0.5-1.3-0.9c-0.4-0.4-0.7-0.8-0.9-1.3c-0.2-0.5-0.3-1-0.3-1.6c0-0.6,0.1-1.1,0.3-1.6c0.2-0.5,0.5-0.9,0.9-1.3
		c0.4-0.4,0.8-0.7,1.3-0.9c0.5-0.2,1-0.3,1.6-0.3c0.6,0,1.1,0.1,1.6,0.3c0.5,0.2,0.9,0.5,1.3,0.9c0.4,0.4,0.7,0.8,0.9,1.3
		c0.2,0.5,0.3,1,0.3,1.6v19l11.5-5.1v-17.7h2.5v17.9c0.8,0.3,1.4,0.8,1.9,1.4c0.5,0.7,0.7,1.4,0.7,2.3c0,0.6-0.1,1.1-0.3,1.6
		c-0.2,0.5-0.5,0.9-0.8,1.2c-0.3,0.4-0.8,0.6-1.2,0.8c-0.5,0.2-1,0.3-1.5,0.3c-0.6,0-1.1-0.1-1.5-0.3s-0.9-0.4-1.2-0.8
		c-0.3-0.3-0.6-0.7-0.8-1.2c-0.2-0.5-0.3-1-0.3-1.5V153z M426.4,137.6c0.5,0,1-0.2,1.3-0.6s0.5-0.8,0.5-1.4c0-0.5-0.2-1-0.5-1.4
		s-0.8-0.5-1.3-0.5c-0.5,0-1,0.2-1.4,0.5c-0.4,0.4-0.5,0.8-0.5,1.4c0,0.5,0.2,1,0.5,1.4C425.3,137.4,425.8,137.6,426.4,137.6z
		 M443.2,155.2c0.5,0,0.9-0.2,1.2-0.5c0.3-0.3,0.5-0.7,0.5-1.2c0-0.5-0.2-0.9-0.5-1.2c-0.3-0.3-0.7-0.5-1.2-0.5
		c-0.5,0-0.9,0.2-1.2,0.5c-0.3,0.3-0.5,0.7-0.5,1.2c0,0.5,0.2,0.9,0.5,1.2C442.3,155,442.7,155.2,443.2,155.2z"/>
	<path class="st1" d="M452,131.9h2.5v17.5c0.2-0.1,0.5-0.2,0.7-0.2c0.3,0,0.5,0,0.8,0c0.6,0,1.1,0.1,1.6,0.3
		c0.5,0.2,0.9,0.5,1.3,0.9c0.4,0.4,0.7,0.8,0.9,1.3c0.2,0.5,0.3,1,0.3,1.6c0,0.6-0.1,1.1-0.3,1.6c-0.2,0.5-0.5,0.9-0.9,1.3
		c-0.4,0.4-0.8,0.7-1.3,0.9s-1,0.3-1.6,0.3s-1.1-0.1-1.6-0.3c-0.5-0.2-0.9-0.5-1.3-0.9c-0.4-0.4-0.7-0.8-0.9-1.3
		c-0.2-0.5-0.3-1-0.3-1.6V131.9z M456,155.1c0.5,0,1-0.2,1.3-0.6s0.5-0.8,0.5-1.4c0-0.5-0.2-1-0.5-1.3c-0.4-0.4-0.8-0.5-1.3-0.5
		c-0.5,0-1,0.2-1.3,0.5c-0.3,0.4-0.5,0.8-0.5,1.3c0,0.5,0.2,1,0.5,1.4S455.5,155.1,456,155.1z M462.4,131.9h2.5v17.5
		c0.2-0.1,0.5-0.2,0.7-0.2c0.3,0,0.5,0,0.8,0c0.6,0,1.1,0.1,1.6,0.3c0.5,0.2,0.9,0.5,1.3,0.9c0.4,0.4,0.7,0.8,0.9,1.3
		c0.2,0.5,0.3,1,0.3,1.6c0,0.6-0.1,1.1-0.3,1.6c-0.2,0.5-0.5,0.9-0.9,1.3c-0.4,0.4-0.8,0.7-1.3,0.9s-1,0.3-1.6,0.3
		c-0.6,0-1.1-0.1-1.6-0.3c-0.5-0.2-0.9-0.5-1.3-0.9c-0.4-0.4-0.7-0.8-0.9-1.3c-0.2-0.5-0.3-1-0.3-1.6V131.9z M466.5,155.1
		c0.5,0,1-0.2,1.3-0.6s0.5-0.8,0.5-1.4c0-0.5-0.2-1-0.5-1.3c-0.4-0.4-0.8-0.5-1.3-0.5c-0.6,0-1,0.2-1.4,0.5
		c-0.3,0.4-0.5,0.8-0.5,1.3c0,0.5,0.2,1,0.5,1.4S466,155.1,466.5,155.1z"/>
	<path class="st1" d="M475.7,157v-12.3c0-0.6,0.1-1.1,0.3-1.6c0.2-0.5,0.5-0.9,0.9-1.3c0.4-0.4,0.8-0.6,1.3-0.8s1-0.3,1.6-0.3
		c0.6,0,1.1,0.1,1.6,0.3s0.9,0.5,1.3,0.8c0.3,0.4,0.6,0.8,0.8,1.3c0.2,0.5,0.3,1,0.3,1.6c0,0.6-0.1,1.1-0.3,1.6s-0.5,0.9-0.8,1.3
		c-0.3,0.3-0.8,0.6-1.3,0.8c-0.5,0.2-1,0.3-1.6,0.3c-0.3,0-0.6,0-0.8-0.1c-0.3,0-0.5-0.1-0.7-0.2v6.3h11.4v-14.5
		c0-1-0.2-1.9-0.5-2.7c-0.4-0.8-0.8-1.5-1.5-2c-0.6-0.6-1.4-1-2.3-1.3s-1.9-0.4-2.9-0.4c-0.9,0-1.8,0.1-2.5,0.4
		c-0.8,0.3-1.4,0.6-2,1.1c-0.6,0.5-1.1,1-1.4,1.6c-0.4,0.6-0.6,1.3-0.7,2H473c0.2-1.1,0.5-2.1,1.1-3c0.5-0.9,1.2-1.7,2-2.3
		c0.8-0.6,1.8-1.1,2.8-1.5c1.1-0.4,2.2-0.5,3.4-0.5c1.4,0,2.7,0.2,3.9,0.6c1.2,0.4,2.2,0.9,3.1,1.7c0.9,0.7,1.5,1.6,2,2.7
		c0.5,1.1,0.7,2.3,0.7,3.7V157H475.7z M481.6,144.7c0-0.5-0.2-1-0.5-1.3c-0.3-0.3-0.8-0.5-1.3-0.5s-1,0.2-1.3,0.5
		c-0.3,0.4-0.5,0.8-0.5,1.3s0.2,1,0.5,1.3s0.8,0.5,1.3,0.5s1-0.2,1.3-0.5S481.6,145.3,481.6,144.7z"/>
	<path class="st1" d="M489.5,126.8v-9h2.6v9H489.5z"/>
	<path class="st1" d="M508.5,157l-11.8-13.1l1.7-1.7l10.5,11.5v-14.3c-0.2,0.1-0.5,0.2-0.7,0.2c-0.3,0-0.5,0-0.8,0
		c-0.6,0-1.1-0.1-1.6-0.3c-0.5-0.2-0.9-0.5-1.3-0.9c-0.4-0.4-0.7-0.8-0.9-1.3c-0.2-0.5-0.3-1-0.3-1.6c0-0.6,0.1-1.1,0.3-1.6
		c0.2-0.5,0.5-0.9,0.9-1.3c0.4-0.4,0.8-0.7,1.3-0.9c0.5-0.2,1-0.3,1.6-0.3c0.6,0,1.1,0.1,1.6,0.3c0.5,0.2,0.9,0.5,1.3,0.9
		c0.4,0.4,0.7,0.8,0.9,1.3c0.2,0.5,0.3,1,0.3,1.6V157H508.5z M507.3,137.6c0.5,0,1-0.2,1.3-0.6s0.5-0.8,0.5-1.4c0-0.5-0.2-1-0.5-1.4
		s-0.8-0.5-1.3-0.5s-1,0.2-1.4,0.5c-0.4,0.4-0.5,0.8-0.5,1.4c0,0.5,0.2,1,0.5,1.4C506.3,137.4,506.8,137.6,507.3,137.6z"/>
	<path class="st1" d="M518.7,131.9h2.5v17.5c0.2-0.1,0.5-0.2,0.7-0.2c0.3,0,0.5,0,0.8,0c0.6,0,1.1,0.1,1.6,0.3
		c0.5,0.2,0.9,0.5,1.3,0.9c0.4,0.4,0.7,0.8,0.9,1.3c0.2,0.5,0.3,1,0.3,1.6c0,0.6-0.1,1.1-0.3,1.6c-0.2,0.5-0.5,0.9-0.9,1.3
		c-0.4,0.4-0.8,0.7-1.3,0.9c-0.5,0.2-1,0.3-1.6,0.3c-0.6,0-1.1-0.1-1.6-0.3s-0.9-0.5-1.3-0.9c-0.4-0.4-0.7-0.8-0.9-1.3
		c-0.2-0.5-0.3-1-0.3-1.6V131.9z M522.8,155.1c0.5,0,1-0.2,1.3-0.6s0.5-0.8,0.5-1.4c0-0.5-0.2-1-0.5-1.3c-0.4-0.4-0.8-0.5-1.3-0.5
		c-0.5,0-1,0.2-1.3,0.5c-0.3,0.4-0.5,0.8-0.5,1.3c0,0.5,0.2,1,0.5,1.4C521.8,154.9,522.3,155.1,522.8,155.1z"/>
	<path class="st1" d="M548.2,157v-13.7c0-1.9-0.5-2.9-1.4-2.9c-0.6,0-1.3,0.7-2.1,2.1l-8.1,14.4h-2.3v-17.5
		c-0.2,0.1-0.5,0.2-0.7,0.2c-0.3,0-0.5,0-0.8,0c-0.6,0-1.1-0.1-1.6-0.3c-0.5-0.2-0.9-0.5-1.3-0.9c-0.4-0.4-0.7-0.8-0.9-1.3
		c-0.2-0.5-0.3-1-0.3-1.6c0-0.6,0.1-1.1,0.3-1.6c0.2-0.5,0.5-0.9,0.9-1.3c0.4-0.4,0.8-0.7,1.3-0.9c0.5-0.2,1-0.3,1.6-0.3
		c0.6,0,1.1,0.1,1.6,0.3c0.5,0.2,0.9,0.5,1.3,0.9c0.4,0.4,0.7,0.8,0.9,1.3c0.2,0.5,0.3,1,0.3,1.6v13.9c0,0.2,0,0.5,0,0.8
		c0,0.3,0,0.6,0,1c0,0.3,0,0.6-0.1,0.9c0,0.3-0.1,0.5-0.1,0.6l1-2.1l5.1-9.3c0.3-0.5,0.6-1,0.9-1.4c0.3-0.5,0.7-0.8,1.1-1
		c-0.9-0.8-1.4-1.9-1.4-3.2c0-0.6,0.1-1.1,0.3-1.6c0.2-0.5,0.5-0.9,0.9-1.3c0.4-0.4,0.8-0.7,1.3-0.9c0.5-0.2,1.1-0.3,1.6-0.3
		s1.1,0.1,1.7,0.3c0.5,0.2,1,0.5,1.4,0.9c0.4,0.4,0.7,0.8,0.9,1.3c0.2,0.5,0.3,1,0.3,1.6c0,1.6-0.7,2.8-2.1,3.6
		c0.4,0.4,0.6,0.9,0.8,1.7c0.2,0.7,0.2,1.5,0.2,2.4V157H548.2z M532.7,137.5c0.5,0,1-0.2,1.3-0.5c0.3-0.4,0.5-0.8,0.5-1.4
		s-0.2-1-0.5-1.3c-0.3-0.4-0.8-0.5-1.3-0.5c-0.5,0-1,0.2-1.4,0.5c-0.4,0.4-0.5,0.8-0.5,1.3s0.2,1,0.5,1.4
		C531.7,137.4,532.2,137.5,532.7,137.5z M547.5,137.8c0.6,0,1.1-0.2,1.5-0.6s0.6-0.9,0.6-1.5c0-0.6-0.2-1.1-0.6-1.5
		c-0.4-0.4-0.9-0.6-1.5-0.6c-0.6,0-1.1,0.2-1.5,0.6c-0.4,0.4-0.6,0.9-0.6,1.5c0,0.6,0.2,1.1,0.6,1.5S546.9,137.8,547.5,137.8z"/>
	<path class="st1" d="M574.7,157l-10.7-4.6v0.8c0,0.6-0.1,1.1-0.3,1.6c-0.2,0.5-0.5,0.9-0.9,1.3c-0.4,0.4-0.8,0.7-1.3,0.9
		c-0.5,0.2-1,0.3-1.6,0.3c-0.6,0-1.1-0.1-1.6-0.3c-0.5-0.2-0.9-0.5-1.3-0.9c-0.4-0.4-0.7-0.8-0.9-1.3c-0.2-0.5-0.3-1-0.3-1.6
		c0-0.6,0.1-1.1,0.3-1.6c0.2-0.5,0.5-0.9,0.9-1.3c0.4-0.4,0.8-0.7,1.3-0.9c0.5-0.2,1-0.3,1.6-0.3c0.3,0,0.6,0,0.8,0
		c0.3,0,0.5,0.1,0.7,0.2v-9.9c-0.2,0.1-0.5,0.2-0.7,0.2c-0.3,0-0.5,0-0.8,0c-0.6,0-1.1-0.1-1.6-0.3c-0.5-0.2-0.9-0.5-1.3-0.9
		c-0.4-0.4-0.7-0.8-0.9-1.3c-0.2-0.5-0.3-1-0.3-1.6c0-0.6,0.1-1.1,0.3-1.6c0.2-0.5,0.5-0.9,0.9-1.3c0.4-0.4,0.8-0.7,1.3-0.9
		c0.5-0.2,1-0.3,1.6-0.3c0.6,0,1.1,0.1,1.6,0.3c0.5,0.2,0.9,0.5,1.3,0.9c0.4,0.4,0.7,0.8,0.9,1.3c0.2,0.5,0.3,1,0.3,1.6v14.5
		l10.6,4.4v-22.7h2.5V157H574.7z M559.9,137.5c0.5,0,1-0.2,1.3-0.5c0.4-0.4,0.5-0.8,0.5-1.4s-0.2-1-0.5-1.3
		c-0.4-0.4-0.8-0.5-1.3-0.5s-1,0.2-1.4,0.5c-0.4,0.4-0.5,0.8-0.5,1.3s0.2,1,0.5,1.4C558.9,137.4,559.4,137.5,559.9,137.5z
		 M559.9,155.1c0.5,0,1-0.2,1.3-0.6c0.4-0.4,0.5-0.8,0.5-1.4c0-0.5-0.2-1-0.5-1.3c-0.4-0.4-0.8-0.5-1.3-0.5s-1,0.2-1.4,0.5
		c-0.4,0.4-0.5,0.8-0.5,1.3c0,0.5,0.2,1,0.5,1.4C558.9,154.9,559.4,155.1,559.9,155.1z"/>
	<path class="st1" d="M595.8,157v-17.2c0-0.8-0.1-1.6-0.3-2.3c-0.2-0.7-0.5-1.4-1-1.9c-0.5-0.5-1-1-1.8-1.3
		c-0.7-0.3-1.6-0.5-2.6-0.5c-0.9,0-1.8,0.1-2.4,0.4c-0.7,0.3-1.2,0.6-1.7,1.1c-0.5,0.5-0.8,1-1.1,1.6c-0.3,0.6-0.4,1.3-0.5,2h-2.5
		c0.1-1.1,0.3-2.1,0.7-3c0.4-0.9,0.9-1.7,1.6-2.3c0.7-0.7,1.5-1.2,2.5-1.5c1-0.4,2.1-0.5,3.5-0.5c1.4,0,2.7,0.2,3.7,0.6
		c1,0.4,1.9,1,2.5,1.7c0.7,0.7,1.1,1.6,1.5,2.6c0.3,1,0.5,2.1,0.5,3.3V157H595.8z"/>
	<path class="st1" d="M620,132.1c-0.5,2.7-1.6,4.7-3.4,6c-1.7,1.3-3.9,2-6.6,2c-2.1,0-3.7-0.4-4.9-1.2c-1.1-0.8-1.7-1.9-1.7-3.3
		c0-0.5,0.1-1,0.3-1.5c0.2-0.5,0.5-0.9,0.8-1.2s0.8-0.6,1.2-0.8s1-0.3,1.7-0.3c0.6,0,1.1,0.1,1.6,0.3c0.5,0.2,0.9,0.5,1.2,0.8
		c0.3,0.4,0.6,0.8,0.8,1.3c0.2,0.5,0.3,1,0.3,1.6c0,0.8-0.2,1.5-0.5,1.9c1.9-0.2,3.4-0.8,4.5-1.7c1.1-0.9,1.8-2.2,2.3-4H620z
		 M620,147.9c-0.5,2.7-1.6,4.7-3.4,6c-1.7,1.3-3.9,2-6.6,2c-2.1,0-3.7-0.4-4.9-1.2c-1.1-0.8-1.7-1.9-1.7-3.3c0-0.5,0.1-1,0.3-1.5
		c0.2-0.5,0.5-0.9,0.8-1.2c0.3-0.3,0.8-0.6,1.2-0.8s1-0.3,1.7-0.3c0.6,0,1.1,0.1,1.6,0.3c0.5,0.2,0.9,0.5,1.2,0.8
		c0.3,0.4,0.6,0.8,0.8,1.3c0.2,0.5,0.3,1,0.3,1.5c0,0.9-0.2,1.5-0.5,2c1-0.1,1.8-0.3,2.5-0.6s1.4-0.6,1.9-1.1c0.5-0.5,1-1,1.4-1.7
		c0.4-0.7,0.7-1.4,0.9-2.3H620z M609.1,135.8c0-0.5-0.2-0.9-0.5-1.2c-0.3-0.3-0.7-0.5-1.2-0.5c-0.5,0-0.9,0.2-1.2,0.5
		c-0.3,0.3-0.5,0.7-0.5,1.2c0,0.5,0.2,0.9,0.5,1.2c0.3,0.3,0.7,0.5,1.2,0.5c0.5,0,0.9-0.2,1.2-0.5
		C608.9,136.7,609.1,136.3,609.1,135.8z M609.1,151.6c0-0.5-0.2-0.9-0.5-1.2c-0.3-0.3-0.7-0.5-1.2-0.5c-0.5,0-0.9,0.2-1.2,0.5
		c-0.3,0.3-0.5,0.7-0.5,1.2c0,0.5,0.2,0.9,0.5,1.2c0.3,0.3,0.7,0.5,1.2,0.5c0.5,0,0.9-0.2,1.2-0.5
		C608.9,152.5,609.1,152.1,609.1,151.6z"/>
</g>
<g class="st0">
	<path class="st1" d="M19.1,237v-16.1c0-1.1-0.2-2-0.6-2.9c-0.4-0.9-0.9-1.6-1.6-2.2c-0.7-0.6-1.5-1.1-2.4-1.4
		c-0.9-0.3-1.9-0.5-3-0.5c-1.7,0-3.1,0.4-4.4,1.2c-1.2,0.8-2.2,1.9-2.8,3.2l2.3,2.7V237H4.1v-15.5l-2.5-2.9c0.3-1.1,0.7-2,1.3-2.9
		c0.6-0.9,1.3-1.6,2.2-2.2c0.9-0.6,1.8-1.1,2.9-1.4c1.1-0.3,2.3-0.5,3.6-0.5c1.5,0,2.9,0.2,4.2,0.7c1.3,0.5,2.3,1.1,3.2,2
		c0.9,0.8,1.6,1.8,2.1,3s0.7,2.5,0.7,3.9V237H19.1z"/>
	<path class="st1" d="M27.8,199.6c-0.2,1.3-0.6,2.4-1.2,3.4c-0.5,1-1.3,1.9-2.1,2.6c-0.9,0.7-2,1.3-3.3,1.6s-2.8,0.6-4.6,0.6
		c-1.2,0-2.3-0.1-3.3-0.3c-1-0.2-1.9-0.5-2.7-0.9c-0.7-0.4-1.3-0.9-1.8-1.5c-0.4-0.6-0.6-1.4-0.6-2.2c0-0.7,0.1-1.2,0.4-1.7
		c0.2-0.5,0.5-0.9,0.9-1.2c0.4-0.3,0.8-0.6,1.3-0.7c0.5-0.2,1-0.2,1.5-0.2s1,0.1,1.4,0.2s0.9,0.4,1.2,0.7c0.4,0.3,0.6,0.7,0.9,1.1
		c0.2,0.5,0.3,1,0.3,1.6c0,0.7-0.2,1.3-0.5,1.8c-0.3,0.5-0.6,0.8-1,1c0.2,0.1,0.5,0.2,0.8,0.2c0.3,0.1,0.7,0.1,1.1,0.1
		c1.4,0,2.6-0.1,3.6-0.4c1-0.3,1.9-0.7,2.6-1.3c0.7-0.5,1.3-1.2,1.6-2c0.4-0.8,0.6-1.6,0.8-2.6H27.8z M12.2,204.7
		c0.5,0,1-0.2,1.3-0.5c0.4-0.4,0.5-0.8,0.5-1.3s-0.2-1-0.6-1.3c-0.4-0.4-0.8-0.5-1.4-0.5s-1,0.2-1.3,0.5c-0.3,0.3-0.5,0.8-0.5,1.3
		s0.2,1,0.6,1.3C11.2,204.6,11.7,204.7,12.2,204.7z"/>
	<path class="st1" d="M31.7,237v-17.5c-0.2,0.1-0.5,0.2-0.7,0.2c-0.3,0-0.5,0-0.8,0c-0.6,0-1.1-0.1-1.6-0.3
		c-0.5-0.2-0.9-0.5-1.3-0.9c-0.4-0.4-0.7-0.8-0.9-1.3c-0.2-0.5-0.3-1-0.3-1.6c0-0.6,0.1-1.1,0.3-1.6c0.2-0.5,0.5-0.9,0.9-1.3
		c0.4-0.4,0.8-0.7,1.3-0.9c0.5-0.2,1-0.3,1.6-0.3c0.6,0,1.1,0.1,1.6,0.3c0.5,0.2,0.9,0.5,1.3,0.9c0.4,0.4,0.7,0.8,0.9,1.3
		c0.2,0.5,0.3,1,0.3,1.6v19.1H46v-22.9h2.5V237H31.7z M30.1,217.5c0.5,0,1-0.2,1.3-0.5c0.3-0.4,0.5-0.8,0.5-1.4s-0.2-1-0.5-1.3
		c-0.3-0.4-0.8-0.5-1.3-0.5c-0.5,0-1,0.2-1.4,0.5c-0.4,0.4-0.5,0.8-0.5,1.3s0.2,1,0.5,1.4C29.1,217.4,29.6,217.5,30.1,217.5z"/>
	<path class="st1" d="M71.2,237v-16.1c0-1.1-0.2-2-0.6-2.9c-0.4-0.9-0.9-1.6-1.6-2.2c-0.7-0.6-1.5-1.1-2.4-1.4
		c-0.9-0.3-1.9-0.5-3-0.5c-1.7,0-3.1,0.4-4.4,1.2c-1.2,0.8-2.2,1.9-2.8,3.2l2.3,2.7V237h-2.5v-15.5l-2.5-2.9c0.3-1.1,0.7-2,1.3-2.9
		c0.6-0.9,1.3-1.6,2.2-2.2c0.9-0.6,1.8-1.1,2.9-1.4c1.1-0.3,2.3-0.5,3.6-0.5c1.5,0,2.9,0.2,4.2,0.7c1.3,0.5,2.3,1.1,3.2,2
		c0.9,0.8,1.6,1.8,2.1,3s0.7,2.5,0.7,3.9V237H71.2z"/>
	<path class="st1" d="M92.4,237v-17.2c0-0.8-0.1-1.6-0.3-2.3c-0.2-0.7-0.5-1.4-1-1.9c-0.5-0.5-1-1-1.8-1.3c-0.7-0.3-1.6-0.5-2.6-0.5
		c-0.9,0-1.8,0.1-2.4,0.4c-0.7,0.3-1.2,0.6-1.7,1.1c-0.5,0.5-0.8,1-1.1,1.6c-0.3,0.6-0.4,1.3-0.5,2h-2.5c0.1-1.1,0.3-2.1,0.7-3
		c0.4-0.9,0.9-1.7,1.6-2.3c0.7-0.7,1.5-1.2,2.5-1.5c1-0.4,2.1-0.5,3.5-0.5c1.4,0,2.7,0.2,3.7,0.6c1,0.4,1.9,1,2.5,1.7
		c0.7,0.7,1.1,1.6,1.5,2.6c0.3,1,0.5,2.1,0.5,3.3V237H92.4z"/>
	<path class="st1" d="M109.5,221.6h-9.9v-1.5c0-1.2,0.2-2.2,0.6-3.3c0.4-1,0.9-1.9,1.7-2.7c0.7-0.8,1.7-1.4,2.8-1.9
		c1.1-0.5,2.4-0.7,3.8-0.7c1.2,0,2.3,0.2,3.4,0.6c1,0.4,1.9,0.9,2.7,1.6c0.8,0.7,1.3,1.5,1.8,2.5c0.4,1,0.6,2,0.6,3.2h-2.5
		c0-0.8-0.1-1.6-0.4-2.3c-0.3-0.7-0.7-1.3-1.2-1.8c-0.5-0.5-1.2-0.9-1.9-1.2c-0.8-0.3-1.6-0.4-2.6-0.4c-0.9,0-1.8,0.1-2.5,0.4
		c-0.7,0.3-1.4,0.7-1.9,1.2c-0.5,0.5-0.9,1.1-1.2,1.8c-0.3,0.7-0.4,1.5-0.4,2.3h9.8v13.7c0,0.6-0.1,1.1-0.3,1.6
		c-0.2,0.5-0.5,0.9-0.9,1.3c-0.4,0.4-0.8,0.7-1.3,0.9s-1,0.3-1.6,0.3c-0.6,0-1.1-0.1-1.6-0.3s-0.9-0.5-1.3-0.9
		c-0.4-0.4-0.7-0.8-0.9-1.3c-0.2-0.5-0.3-1-0.3-1.6c0-0.6,0.1-1.1,0.3-1.6c0.2-0.5,0.5-0.9,0.9-1.3c0.4-0.4,0.8-0.7,1.3-0.9
		c0.5-0.2,1-0.3,1.6-0.3c0.6,0,1.1,0.1,1.5,0.2V221.6z M108,235.1c0.5,0,1-0.2,1.4-0.6s0.5-0.8,0.5-1.4c0-0.5-0.2-1-0.5-1.3
		c-0.4-0.4-0.8-0.5-1.4-0.5s-1,0.2-1.3,0.5c-0.4,0.4-0.5,0.8-0.5,1.3c0,0.5,0.2,1,0.5,1.4C107,234.9,107.4,235.1,108,235.1z"/>
	<path class="st1" d="M122.5,211.9h2.5v17.5c0.2-0.1,0.5-0.2,0.7-0.2c0.3,0,0.5,0,0.8,0c0.6,0,1.1,0.1,1.6,0.3
		c0.5,0.2,0.9,0.5,1.3,0.9c0.4,0.4,0.7,0.8,0.9,1.3c0.2,0.5,0.3,1,0.3,1.6c0,0.6-0.1,1.1-0.3,1.6c-0.2,0.5-0.5,0.9-0.9,1.3
		c-0.4,0.4-0.8,0.7-1.3,0.9c-0.5,0.2-1,0.3-1.6,0.3c-0.6,0-1.1-0.1-1.6-0.3c-0.5-0.2-0.9-0.5-1.3-0.9c-0.4-0.4-0.7-0.8-0.9-1.3
		c-0.2-0.5-0.3-1-0.3-1.6V211.9z M126.6,235.1c0.5,0,1-0.2,1.3-0.6s0.5-0.8,0.5-1.4c0-0.5-0.2-1-0.5-1.3c-0.4-0.4-0.8-0.5-1.3-0.5
		s-1,0.2-1.3,0.5c-0.3,0.4-0.5,0.8-0.5,1.3c0,0.5,0.2,1,0.5,1.4C125.6,234.9,126.1,235.1,126.6,235.1z"/>
	<path class="st1" d="M150.5,237v-9.9c0-0.7-0.1-1.3-0.4-1.9c-0.3-0.6-0.7-1.1-1.3-1.6c-0.6-0.5-1.3-0.8-2.1-1.1
		c-0.8-0.3-1.8-0.4-2.9-0.4c-1,0-1.8,0.1-2.6,0.4c-0.7,0.3-1.4,0.6-1.9,1.1c-0.5,0.5-0.9,1-1.1,1.7c-0.3,0.7-0.4,1.4-0.4,2.2v1.9
		c0.2-0.1,0.5-0.2,0.7-0.2c0.2,0,0.5,0,0.8,0c0.6,0,1.1,0.1,1.6,0.3c0.5,0.2,0.9,0.5,1.3,0.9c0.4,0.4,0.7,0.8,0.9,1.3
		c0.2,0.5,0.3,1,0.3,1.6c0,0.6-0.1,1.1-0.3,1.6c-0.2,0.5-0.5,0.9-0.9,1.3c-0.4,0.4-0.8,0.7-1.3,0.9c-0.5,0.2-1,0.3-1.6,0.3
		c-0.6,0-1.1-0.1-1.6-0.3c-0.5-0.2-0.9-0.5-1.3-0.9c-0.4-0.4-0.6-0.8-0.8-1.3c-0.2-0.5-0.3-1-0.3-1.6v-5.8c0-1.1,0.2-2.1,0.6-3
		c0.4-0.9,1-1.7,1.8-2.4c0.8-0.7,1.7-1.2,2.7-1.6c1-0.4,2.2-0.6,3.5-0.6c1.5,0,2.8,0.2,3.9,0.7c1,0.4,2,1.1,2.8,1.9v-3.5
		c0-0.7-0.2-1.4-0.5-2c-0.3-0.6-0.8-1.2-1.3-1.6c-0.6-0.5-1.3-0.8-2.2-1.1c-0.9-0.3-1.8-0.4-3-0.4c-1.4,0-2.5,0.1-3.4,0.4
		s-1.7,0.7-2.3,1.2s-1,1-1.3,1.6c-0.3,0.6-0.5,1.2-0.6,1.9h-2.4c0-1,0.3-1.9,0.8-2.8c0.5-0.9,1.1-1.7,2-2.3c0.8-0.7,1.9-1.2,3.1-1.6
		c1.2-0.4,2.6-0.6,4.1-0.6c1.4,0,2.7,0.2,3.9,0.5c1.2,0.4,2.2,0.9,3,1.5s1.5,1.4,1.9,2.4c0.5,0.9,0.7,1.9,0.7,3.1v18H150.5z
		 M139.3,235.1c0.5,0,1-0.2,1.4-0.6s0.5-0.8,0.5-1.4c0-0.5-0.2-1-0.5-1.3c-0.4-0.4-0.8-0.5-1.4-0.5s-1,0.2-1.3,0.5
		c-0.4,0.4-0.5,0.8-0.5,1.3c0,0.5,0.2,1,0.5,1.4C138.3,234.9,138.8,235.1,139.3,235.1z"/>
	<path class="st1" d="M150.5,206.8v-9h2.6v9H150.5z"/>
	<path class="st1" d="M174.4,233l-8.7,4h-2.7v-17.5c-0.2,0.1-0.5,0.2-0.7,0.2c-0.3,0-0.5,0-0.8,0c-0.6,0-1.1-0.1-1.6-0.3
		c-0.5-0.2-0.9-0.5-1.3-0.9c-0.4-0.4-0.7-0.8-0.9-1.3c-0.2-0.5-0.3-1-0.3-1.6c0-0.6,0.1-1.1,0.3-1.6c0.2-0.5,0.5-0.9,0.9-1.3
		c0.4-0.4,0.8-0.7,1.3-0.9c0.5-0.2,1-0.3,1.6-0.3c0.6,0,1.1,0.1,1.6,0.3c0.5,0.2,0.9,0.5,1.3,0.9c0.4,0.4,0.7,0.8,0.9,1.3
		c0.2,0.5,0.3,1,0.3,1.6v19l11.5-5.1v-17.7h2.5v17.9c0.8,0.3,1.4,0.8,1.9,1.4c0.5,0.7,0.7,1.4,0.7,2.3c0,0.6-0.1,1.1-0.3,1.6
		c-0.2,0.5-0.5,0.9-0.8,1.2c-0.3,0.4-0.8,0.6-1.2,0.8c-0.5,0.2-1,0.3-1.5,0.3c-0.6,0-1.1-0.1-1.5-0.3c-0.5-0.2-0.9-0.4-1.2-0.8
		c-0.3-0.3-0.6-0.7-0.8-1.2c-0.2-0.5-0.3-1-0.3-1.5V233z M161.5,217.6c0.5,0,1-0.2,1.3-0.6s0.5-0.8,0.5-1.4c0-0.5-0.2-1-0.5-1.4
		s-0.8-0.5-1.3-0.5c-0.5,0-1,0.2-1.4,0.5s-0.5,0.8-0.5,1.4c0,0.5,0.2,1,0.5,1.4S161,217.6,161.5,217.6z M178.3,235.2
		c0.5,0,0.9-0.2,1.2-0.5c0.3-0.3,0.5-0.7,0.5-1.2c0-0.5-0.2-0.9-0.5-1.2c-0.3-0.3-0.7-0.5-1.2-0.5c-0.5,0-0.9,0.2-1.2,0.5
		c-0.3,0.3-0.5,0.7-0.5,1.2c0,0.5,0.2,0.9,0.5,1.2C177.4,235,177.9,235.2,178.3,235.2z"/>
	<path class="st1" d="M201.2,233l-8.7,4h-2.7v-17.5c-0.2,0.1-0.5,0.2-0.7,0.2c-0.3,0-0.5,0-0.8,0c-0.6,0-1.1-0.1-1.6-0.3
		c-0.5-0.2-0.9-0.5-1.3-0.9c-0.4-0.4-0.7-0.8-0.9-1.3c-0.2-0.5-0.3-1-0.3-1.6c0-0.6,0.1-1.1,0.3-1.6c0.2-0.5,0.5-0.9,0.9-1.3
		c0.4-0.4,0.8-0.7,1.3-0.9c0.5-0.2,1-0.3,1.6-0.3c0.6,0,1.1,0.1,1.6,0.3c0.5,0.2,0.9,0.5,1.3,0.9c0.4,0.4,0.7,0.8,0.9,1.3
		c0.2,0.5,0.3,1,0.3,1.6v19l11.5-5.1v-17.7h2.5v17.9c0.8,0.3,1.4,0.8,1.9,1.4c0.5,0.7,0.7,1.4,0.7,2.3c0,0.6-0.1,1.1-0.3,1.6
		c-0.2,0.5-0.5,0.9-0.8,1.2c-0.3,0.4-0.8,0.6-1.2,0.8c-0.5,0.2-1,0.3-1.5,0.3c-0.6,0-1.1-0.1-1.5-0.3c-0.5-0.2-0.9-0.4-1.2-0.8
		c-0.3-0.3-0.6-0.7-0.8-1.2c-0.2-0.5-0.3-1-0.3-1.5V233z M188.3,217.6c0.5,0,1-0.2,1.3-0.6s0.5-0.8,0.5-1.4c0-0.5-0.2-1-0.5-1.4
		s-0.8-0.5-1.3-0.5c-0.5,0-1,0.2-1.4,0.5s-0.5,0.8-0.5,1.4c0,0.5,0.2,1,0.5,1.4S187.7,217.6,188.3,217.6z M205.1,235.2
		c0.5,0,0.9-0.2,1.2-0.5c0.3-0.3,0.5-0.7,0.5-1.2c0-0.5-0.2-0.9-0.5-1.2c-0.3-0.3-0.7-0.5-1.2-0.5c-0.5,0-0.9,0.2-1.2,0.5
		c-0.3,0.3-0.5,0.7-0.5,1.2c0,0.5,0.2,0.9,0.5,1.2C204.2,235,204.6,235.2,205.1,235.2z"/>
	<path class="st1" d="M209.4,203.2c0,0.6-0.1,1.1-0.3,1.5c-0.2,0.5-0.5,0.9-0.8,1.2s-0.8,0.6-1.2,0.8s-1,0.3-1.7,0.3
		c-0.6,0-1.2-0.1-1.7-0.3s-0.9-0.5-1.2-0.8s-0.6-0.7-0.8-1.2c-0.2-0.5-0.3-1-0.3-1.5c0-0.5,0.1-1,0.3-1.5c0.2-0.5,0.5-0.9,0.8-1.2
		c0.3-0.4,0.8-0.6,1.2-0.8c0.5-0.2,1-0.3,1.6-0.3c0.6,0,1.1,0.1,1.6,0.3s0.9,0.5,1.3,0.8c0.4,0.3,0.6,0.7,0.8,1.2
		C209.3,202.1,209.4,202.6,209.4,203.2z M205.4,204.9c0.6,0,1.1-0.2,1.3-0.5c0.3-0.4,0.4-0.8,0.4-1.2c0-0.5-0.1-0.9-0.4-1.2
		c-0.3-0.3-0.7-0.5-1.3-0.5c-0.5,0-1,0.2-1.2,0.5c-0.3,0.3-0.4,0.7-0.4,1.2c0,0.5,0.1,0.9,0.4,1.2
		C204.5,204.8,204.9,204.9,205.4,204.9z"/>
	<path class="st1" d="M198.4,190.7c0.4-0.3,0.7-0.7,1-1c0.3-0.3,0.5-0.7,0.7-1.1h-0.8c-0.6,0-1-0.1-1.5-0.3c-0.4-0.2-0.8-0.5-1-0.8
		c-0.3-0.3-0.5-0.7-0.6-1.1c-0.1-0.4-0.2-0.8-0.2-1.3c0-1.1,0.3-1.9,0.9-2.6c0.6-0.7,1.5-1,2.6-1c0.7,0,1.2,0.1,1.7,0.3
		c0.5,0.2,0.8,0.5,1.1,0.8c0.3,0.3,0.5,0.8,0.6,1.2c0.1,0.5,0.2,1,0.2,1.5c0,0.9-0.2,1.8-0.5,2.7c-0.4,0.9-0.8,1.7-1.3,2.3
		c1.1-0.1,2.1-0.4,3.1-0.8c0.9-0.4,1.7-1,2.4-1.7c0.7-0.7,1.2-1.6,1.5-2.5c0.4-1,0.5-2.1,0.5-3.2h2.4c0,1.8-0.3,3.3-1,4.6
		c-0.6,1.3-1.5,2.4-2.6,3.2c-1.1,0.9-2.3,1.5-3.7,1.9c-1.4,0.4-2.8,0.6-4.3,0.6c-0.4,0-0.6,0-0.7,0c-0.1,0-0.3,0-0.4,0V190.7z
		 M199.5,186.7c0.5,0,0.9-0.2,1.2-0.5c0.3-0.3,0.5-0.7,0.5-1.2c0-0.5-0.1-0.9-0.4-1.2c-0.3-0.3-0.7-0.5-1.2-0.5s-1,0.2-1.3,0.5
		c-0.3,0.4-0.5,0.8-0.5,1.2c0,0.5,0.2,0.9,0.5,1.2C198.6,186.6,199,186.7,199.5,186.7z"/>
	<path class="st1" d="M225.2,237v-17.2c0-0.8-0.1-1.6-0.3-2.3c-0.2-0.7-0.5-1.4-1-1.9c-0.5-0.5-1-1-1.8-1.3
		c-0.7-0.3-1.6-0.5-2.6-0.5c-0.9,0-1.8,0.1-2.4,0.4c-0.7,0.3-1.2,0.6-1.7,1.1c-0.5,0.5-0.8,1-1.1,1.6c-0.3,0.6-0.4,1.3-0.5,2h-2.5
		c0.1-1.1,0.3-2.1,0.7-3c0.4-0.9,0.9-1.7,1.6-2.3c0.7-0.7,1.5-1.2,2.5-1.5c1-0.4,2.1-0.5,3.5-0.5c1.4,0,2.7,0.2,3.7,0.6
		c1,0.4,1.9,1,2.5,1.7c0.7,0.7,1.1,1.6,1.5,2.6c0.3,1,0.5,2.1,0.5,3.3V237H225.2z"/>
	<path class="st1" d="M248,211.9h2.5v17.5c0.2-0.1,0.5-0.2,0.7-0.2c0.3,0,0.5,0,0.8,0c0.6,0,1.1,0.1,1.6,0.3
		c0.5,0.2,0.9,0.5,1.3,0.9c0.4,0.4,0.7,0.8,0.9,1.3c0.2,0.5,0.3,1,0.3,1.6c0,0.6-0.1,1.1-0.3,1.6c-0.2,0.5-0.5,0.9-0.9,1.3
		c-0.4,0.4-0.8,0.7-1.3,0.9c-0.5,0.2-1,0.3-1.6,0.3c-0.6,0-1.1-0.1-1.6-0.3c-0.5-0.2-0.9-0.5-1.3-0.9c-0.4-0.4-0.7-0.8-0.9-1.3
		c-0.2-0.5-0.3-1-0.3-1.6V211.9z M252.1,235.1c0.5,0,1-0.2,1.3-0.6s0.5-0.8,0.5-1.4c0-0.5-0.2-1-0.5-1.3c-0.4-0.4-0.8-0.5-1.3-0.5
		s-1,0.2-1.3,0.5c-0.3,0.4-0.5,0.8-0.5,1.3c0,0.5,0.2,1,0.5,1.4C251.1,234.9,251.6,235.1,252.1,235.1z M258.4,211.9h2.5v17.5
		c0.2-0.1,0.5-0.2,0.7-0.2c0.3,0,0.5,0,0.8,0c0.6,0,1.1,0.1,1.6,0.3c0.5,0.2,0.9,0.5,1.3,0.9c0.4,0.4,0.7,0.8,0.9,1.3
		c0.2,0.5,0.3,1,0.3,1.6c0,0.6-0.1,1.1-0.3,1.6c-0.2,0.5-0.5,0.9-0.9,1.3c-0.4,0.4-0.8,0.7-1.3,0.9s-1,0.3-1.6,0.3s-1.1-0.1-1.6-0.3
		s-0.9-0.5-1.3-0.9c-0.4-0.4-0.7-0.8-0.9-1.3c-0.2-0.5-0.3-1-0.3-1.6V211.9z M262.5,235.1c0.5,0,1-0.2,1.3-0.6
		c0.4-0.4,0.5-0.8,0.5-1.4c0-0.5-0.2-1-0.5-1.3c-0.4-0.4-0.8-0.5-1.3-0.5c-0.6,0-1,0.2-1.4,0.5c-0.4,0.4-0.5,0.8-0.5,1.3
		c0,0.5,0.2,1,0.5,1.4C261.5,234.9,262,235.1,262.5,235.1z"/>
	<path class="st1" d="M286.5,237v-9.9c0-0.7-0.1-1.3-0.4-1.9c-0.3-0.6-0.7-1.1-1.3-1.6c-0.6-0.5-1.3-0.8-2.1-1.1
		c-0.8-0.3-1.8-0.4-2.9-0.4c-1,0-1.8,0.1-2.6,0.4c-0.7,0.3-1.4,0.6-1.9,1.1c-0.5,0.5-0.9,1-1.1,1.7c-0.3,0.7-0.4,1.4-0.4,2.2v1.9
		c0.2-0.1,0.5-0.2,0.7-0.2c0.2,0,0.5,0,0.8,0c0.6,0,1.1,0.1,1.6,0.3c0.5,0.2,0.9,0.5,1.3,0.9c0.4,0.4,0.7,0.8,0.9,1.3
		c0.2,0.5,0.3,1,0.3,1.6c0,0.6-0.1,1.1-0.3,1.6c-0.2,0.5-0.5,0.9-0.9,1.3c-0.4,0.4-0.8,0.7-1.3,0.9c-0.5,0.2-1,0.3-1.6,0.3
		c-0.6,0-1.1-0.1-1.6-0.3c-0.5-0.2-0.9-0.5-1.3-0.9c-0.4-0.4-0.6-0.8-0.8-1.3c-0.2-0.5-0.3-1-0.3-1.6v-5.8c0-1.1,0.2-2.1,0.6-3
		c0.4-0.9,1-1.7,1.8-2.4c0.8-0.7,1.7-1.2,2.7-1.6c1-0.4,2.2-0.6,3.5-0.6c1.5,0,2.8,0.2,3.9,0.7c1,0.4,2,1.1,2.8,1.9v-3.5
		c0-0.7-0.2-1.4-0.5-2c-0.3-0.6-0.8-1.2-1.3-1.6c-0.6-0.5-1.3-0.8-2.2-1.1c-0.9-0.3-1.8-0.4-3-0.4c-1.4,0-2.5,0.1-3.4,0.4
		s-1.7,0.7-2.3,1.2s-1,1-1.3,1.6c-0.3,0.6-0.5,1.2-0.6,1.9h-2.4c0-1,0.3-1.9,0.8-2.8c0.5-0.9,1.1-1.7,2-2.3c0.8-0.7,1.9-1.2,3.1-1.6
		c1.2-0.4,2.6-0.6,4.1-0.6c1.4,0,2.7,0.2,3.9,0.5c1.2,0.4,2.2,0.9,3,1.5s1.5,1.4,1.9,2.4c0.5,0.9,0.7,1.9,0.7,3.1v18H286.5z
		 M275.2,235.1c0.5,0,1-0.2,1.4-0.6s0.5-0.8,0.5-1.4c0-0.5-0.2-1-0.5-1.3c-0.4-0.4-0.8-0.5-1.4-0.5s-1,0.2-1.3,0.5
		c-0.4,0.4-0.5,0.8-0.5,1.3c0,0.5,0.2,1,0.5,1.4C274.3,234.9,274.7,235.1,275.2,235.1z"/>
	<path class="st1" d="M310.7,212.1c-0.5,2.7-1.6,4.7-3.4,6c-1.7,1.3-3.9,2-6.6,2c-2.1,0-3.7-0.4-4.9-1.2s-1.7-1.9-1.7-3.3
		c0-0.5,0.1-1,0.3-1.5c0.2-0.5,0.5-0.9,0.8-1.2s0.8-0.6,1.2-0.8s1-0.3,1.7-0.3c0.6,0,1.1,0.1,1.6,0.3c0.5,0.2,0.9,0.5,1.2,0.8
		c0.3,0.4,0.6,0.8,0.8,1.3c0.2,0.5,0.3,1,0.3,1.6c0,0.8-0.2,1.5-0.5,1.9c1.9-0.2,3.4-0.8,4.5-1.7s1.8-2.2,2.3-4H310.7z M310.7,227.9
		c-0.5,2.7-1.6,4.7-3.4,6c-1.7,1.3-3.9,2-6.6,2c-2.1,0-3.7-0.4-4.9-1.2s-1.7-1.9-1.7-3.3c0-0.5,0.1-1,0.3-1.5
		c0.2-0.5,0.5-0.9,0.8-1.2c0.3-0.3,0.8-0.6,1.2-0.8s1-0.3,1.7-0.3c0.6,0,1.1,0.1,1.6,0.3c0.5,0.2,0.9,0.5,1.2,0.8
		c0.3,0.4,0.6,0.8,0.8,1.3c0.2,0.5,0.3,1,0.3,1.5c0,0.9-0.2,1.5-0.5,2c1-0.1,1.8-0.3,2.5-0.6s1.4-0.6,1.9-1.1c0.5-0.5,1-1,1.4-1.7
		c0.4-0.7,0.7-1.4,0.9-2.3H310.7z M299.8,215.8c0-0.5-0.2-0.9-0.5-1.2c-0.3-0.3-0.7-0.5-1.2-0.5c-0.5,0-0.9,0.2-1.2,0.5
		c-0.3,0.3-0.5,0.7-0.5,1.2c0,0.5,0.2,0.9,0.5,1.2c0.3,0.3,0.7,0.5,1.2,0.5c0.5,0,0.9-0.2,1.2-0.5
		C299.6,216.7,299.8,216.3,299.8,215.8z M299.8,231.6c0-0.5-0.2-0.9-0.5-1.2c-0.3-0.3-0.7-0.5-1.2-0.5c-0.5,0-0.9,0.2-1.2,0.5
		c-0.3,0.3-0.5,0.7-0.5,1.2c0,0.5,0.2,0.9,0.5,1.2c0.3,0.3,0.7,0.5,1.2,0.5c0.5,0,0.9-0.2,1.2-0.5
		C299.6,232.5,299.8,232.1,299.8,231.6z"/>
	<path class="st1" d="M317.1,237v-7.6c0-2.8,1.1-4.5,3.2-5.3c-1.5-0.4-2.7-1.1-3.5-2.2c-0.8-1.1-1.2-2.4-1.2-4
		c0-0.9,0.2-1.8,0.5-2.5c0.3-0.8,0.8-1.4,1.4-2c0.6-0.6,1.3-1,2.1-1.3c0.8-0.3,1.7-0.5,2.6-0.5c1.3,0,2.4,0.3,3.1,1
		c0.8,0.7,1.2,1.6,1.2,2.7c0,0.6-0.1,1.1-0.3,1.6c-0.2,0.5-0.4,0.9-0.8,1.2c-0.3,0.4-0.7,0.6-1.2,0.8c-0.5,0.2-1,0.3-1.7,0.3
		c-1,0-1.8-0.3-2.5-0.8c-0.7-0.5-1.2-1.3-1.4-2.4c-0.2,0.3-0.3,0.6-0.3,1c-0.1,0.3-0.1,0.7-0.1,1.1c0,0.7,0.1,1.3,0.3,1.9
		c0.2,0.5,0.5,1,0.9,1.4c0.4,0.4,1,0.7,1.7,0.9c0.7,0.2,1.6,0.3,2.6,0.3h2.4v2.5h-2.7c-1.2,0-2.1,0.3-2.8,1
		c-0.6,0.7-0.9,1.8-0.9,3.3v5.3h12.2v-22.9h2.5V237H317.1z M324.3,215.4c0-0.5-0.2-0.9-0.5-1.3c-0.4-0.4-0.8-0.6-1.3-0.6
		c-0.6,0-1,0.2-1.4,0.5c-0.3,0.3-0.5,0.8-0.5,1.4c0,0.5,0.2,1,0.5,1.3c0.3,0.3,0.8,0.5,1.3,0.5c0.5,0,0.9-0.2,1.3-0.5
		C324.2,216.4,324.3,216,324.3,215.4z"/>
	<path class="st1" d="M340.5,199.6c-0.2,1.3-0.6,2.4-1.2,3.4c-0.5,1-1.3,1.9-2.1,2.6c-0.9,0.7-2,1.3-3.3,1.6
		c-1.3,0.4-2.8,0.6-4.6,0.6c-1.2,0-2.3-0.1-3.3-0.3c-1-0.2-1.9-0.5-2.7-0.9c-0.7-0.4-1.3-0.9-1.8-1.5c-0.4-0.6-0.6-1.4-0.6-2.2
		c0-0.7,0.1-1.2,0.4-1.7c0.2-0.5,0.5-0.9,0.9-1.2c0.4-0.3,0.8-0.6,1.3-0.7c0.5-0.2,1-0.2,1.5-0.2s1,0.1,1.4,0.2s0.9,0.4,1.2,0.7
		c0.4,0.3,0.6,0.7,0.9,1.1c0.2,0.5,0.3,1,0.3,1.6c0,0.7-0.2,1.3-0.5,1.8c-0.3,0.5-0.6,0.8-1,1c0.2,0.1,0.5,0.2,0.8,0.2
		c0.3,0.1,0.7,0.1,1.1,0.1c1.4,0,2.6-0.1,3.6-0.4c1-0.3,1.9-0.7,2.6-1.3c0.7-0.5,1.3-1.2,1.6-2c0.4-0.8,0.6-1.6,0.8-2.6H340.5z
		 M324.9,204.7c0.5,0,1-0.2,1.3-0.5c0.4-0.4,0.5-0.8,0.5-1.3s-0.2-1-0.6-1.3c-0.4-0.4-0.8-0.5-1.4-0.5s-1,0.2-1.3,0.5
		c-0.3,0.3-0.5,0.8-0.5,1.3s0.2,1,0.6,1.3C323.9,204.6,324.3,204.7,324.9,204.7z"/>
	<path class="st1" d="M350.7,237l-11.8-13.1l1.7-1.7l10.5,11.5v-14.3c-0.2,0.1-0.5,0.2-0.7,0.2c-0.3,0-0.5,0-0.8,0
		c-0.6,0-1.1-0.1-1.6-0.3c-0.5-0.2-0.9-0.5-1.3-0.9c-0.4-0.4-0.7-0.8-0.9-1.3c-0.2-0.5-0.3-1-0.3-1.6c0-0.6,0.1-1.1,0.3-1.6
		c0.2-0.5,0.5-0.9,0.9-1.3c0.4-0.4,0.8-0.7,1.3-0.9c0.5-0.2,1-0.3,1.6-0.3c0.6,0,1.1,0.1,1.6,0.3c0.5,0.2,0.9,0.5,1.3,0.9
		c0.4,0.4,0.7,0.8,0.9,1.3c0.2,0.5,0.3,1,0.3,1.6V237H350.7z M349.5,217.6c0.5,0,1-0.2,1.3-0.6c0.3-0.4,0.5-0.8,0.5-1.4
		c0-0.5-0.2-1-0.5-1.4c-0.4-0.4-0.8-0.5-1.3-0.5s-1,0.2-1.4,0.5c-0.4,0.4-0.5,0.8-0.5,1.4c0,0.5,0.2,1,0.5,1.4
		C348.5,217.4,349,217.6,349.5,217.6z"/>
	<path class="st1" d="M360.9,211.9h2.5v17.5c0.2-0.1,0.5-0.2,0.7-0.2c0.3,0,0.5,0,0.8,0c0.6,0,1.1,0.1,1.6,0.3
		c0.5,0.2,0.9,0.5,1.3,0.9c0.4,0.4,0.7,0.8,0.9,1.3c0.2,0.5,0.3,1,0.3,1.6c0,0.6-0.1,1.1-0.3,1.6c-0.2,0.5-0.5,0.9-0.9,1.3
		c-0.4,0.4-0.8,0.7-1.3,0.9s-1,0.3-1.6,0.3s-1.1-0.1-1.6-0.3c-0.5-0.2-0.9-0.5-1.3-0.9c-0.4-0.4-0.7-0.8-0.9-1.3
		c-0.2-0.5-0.3-1-0.3-1.6V211.9z M365,235.1c0.5,0,1-0.2,1.3-0.6s0.5-0.8,0.5-1.4c0-0.5-0.2-1-0.5-1.3c-0.4-0.4-0.8-0.5-1.3-0.5
		c-0.5,0-1,0.2-1.3,0.5c-0.3,0.4-0.5,0.8-0.5,1.3c0,0.5,0.2,1,0.5,1.4S364.5,235.1,365,235.1z"/>
	<path class="st1" d="M376.5,237v-17.5c-0.2,0.1-0.5,0.2-0.7,0.2c-0.3,0-0.5,0-0.8,0c-0.6,0-1.1-0.1-1.6-0.3
		c-0.5-0.2-0.9-0.5-1.3-0.9c-0.4-0.4-0.7-0.8-0.9-1.3c-0.2-0.5-0.3-1-0.3-1.6c0-0.6,0.1-1.1,0.3-1.6c0.2-0.5,0.5-0.9,0.9-1.3
		c0.4-0.4,0.8-0.7,1.3-0.9c0.5-0.2,1-0.3,1.6-0.3c0.6,0,1.1,0.1,1.6,0.3c0.5,0.2,0.9,0.5,1.3,0.9c0.4,0.4,0.7,0.8,0.9,1.3
		c0.2,0.5,0.3,1,0.3,1.6v19.1h11.8v-34.9h2.5V237H376.5z M374.9,217.5c0.5,0,1-0.2,1.3-0.5c0.3-0.4,0.5-0.8,0.5-1.4s-0.2-1-0.5-1.3
		c-0.3-0.4-0.8-0.5-1.3-0.5c-0.5,0-1,0.2-1.4,0.5c-0.4,0.4-0.5,0.8-0.5,1.3s0.2,1,0.5,1.4C373.9,217.4,374.4,217.5,374.9,217.5z"/>
	<path class="st1" d="M376,207c-0.6,0-1.2-0.1-1.8-0.4c-0.6-0.2-1-0.6-1.5-1.1c-0.4-0.5-0.7-1-1-1.7c-0.2-0.7-0.4-1.5-0.4-2.3
		c0-0.7,0.1-1.4,0.4-2c0.3-0.6,0.6-1.2,1.1-1.6c0.5-0.5,1.1-0.8,1.8-1.1c0.7-0.3,1.5-0.4,2.5-0.4h5.8c0.9,0,1.6-0.2,2.1-0.5
		c0.5-0.3,0.9-0.8,1.3-1.4l1.9,1.3c-0.5,1-1.2,1.7-2,2.1c-0.8,0.4-1.9,0.6-3.2,0.6h-5.8c-1.2,0-2.1,0.3-2.6,0.8
		c-0.5,0.6-0.8,1.3-0.8,2.3c0,1,0.1,1.7,0.4,2.2c0.3,0.5,0.7,0.8,1.2,1l2.8-3.2l1.3,1.6c0.4,0.4,0.7,0.8,1,1
		c0.3,0.3,0.6,0.4,0.9,0.5c0,0,0-0.1,0-0.2c0-0.1,0-0.2,0-0.2c0-1,0.3-1.7,0.9-2.2c0.6-0.5,1.3-0.8,2.2-0.8c0.4,0,0.9,0.1,1.2,0.2
		s0.7,0.4,1,0.6c0.3,0.3,0.5,0.6,0.6,1c0.2,0.4,0.2,0.8,0.2,1.2c0,0.4-0.1,0.8-0.2,1.1c-0.1,0.4-0.4,0.7-0.7,1
		c-0.3,0.3-0.7,0.5-1.1,0.7c-0.5,0.2-1,0.3-1.6,0.3c-1.3,0-2.4-0.2-3.3-0.6c-0.9-0.4-1.6-1.1-2.3-2L376,207z M384.4,205.6
		c0.9,0,1.3-0.5,1.3-1.5c0-0.4-0.1-0.7-0.3-1c-0.2-0.3-0.5-0.4-1-0.4s-0.8,0.1-1,0.4c-0.2,0.3-0.3,0.6-0.3,1
		C383,205.1,383.5,205.6,384.4,205.6z"/>
	<path class="st1" d="M414.7,233l-8.7,4h-2.7v-17.5c-0.2,0.1-0.5,0.2-0.7,0.2c-0.3,0-0.5,0-0.8,0c-0.6,0-1.1-0.1-1.6-0.3
		c-0.5-0.2-0.9-0.5-1.3-0.9c-0.4-0.4-0.7-0.8-0.9-1.3c-0.2-0.5-0.3-1-0.3-1.6c0-0.6,0.1-1.1,0.3-1.6c0.2-0.5,0.5-0.9,0.9-1.3
		c0.4-0.4,0.8-0.7,1.3-0.9c0.5-0.2,1-0.3,1.6-0.3c0.6,0,1.1,0.1,1.6,0.3c0.5,0.2,0.9,0.5,1.3,0.9c0.4,0.4,0.7,0.8,0.9,1.3
		c0.2,0.5,0.3,1,0.3,1.6v19l11.5-5.1v-17.7h2.5v17.9c0.8,0.3,1.4,0.8,1.9,1.4c0.5,0.7,0.7,1.4,0.7,2.3c0,0.6-0.1,1.1-0.3,1.6
		c-0.2,0.5-0.5,0.9-0.8,1.2c-0.3,0.4-0.8,0.6-1.2,0.8c-0.5,0.2-1,0.3-1.5,0.3c-0.6,0-1.1-0.1-1.5-0.3c-0.5-0.2-0.9-0.4-1.2-0.8
		c-0.3-0.3-0.6-0.7-0.8-1.2c-0.2-0.5-0.3-1-0.3-1.5V233z M401.8,217.6c0.5,0,1-0.2,1.3-0.6s0.5-0.8,0.5-1.4c0-0.5-0.2-1-0.5-1.4
		s-0.8-0.5-1.3-0.5c-0.5,0-1,0.2-1.4,0.5c-0.4,0.4-0.5,0.8-0.5,1.4c0,0.5,0.2,1,0.5,1.4C400.8,217.4,401.2,217.6,401.8,217.6z
		 M418.6,235.2c0.5,0,0.9-0.2,1.2-0.5c0.3-0.3,0.5-0.7,0.5-1.2c0-0.5-0.2-0.9-0.5-1.2c-0.3-0.3-0.7-0.5-1.2-0.5
		c-0.5,0-0.9,0.2-1.2,0.5c-0.3,0.3-0.5,0.7-0.5,1.2c0,0.5,0.2,0.9,0.5,1.2C417.7,235,418.1,235.2,418.6,235.2z"/>
	<path class="st1" d="M438.8,237l-2.5-10.7c-0.3,0.2-0.6,0.3-0.9,0.4c-0.3,0.1-0.6,0.1-1,0.1c-0.6,0-1.1-0.1-1.6-0.3
		c-0.5-0.2-0.9-0.4-1.2-0.8c-0.3-0.3-0.6-0.7-0.8-1.2c-0.2-0.4-0.3-0.9-0.3-1.5c0-0.6,0.1-1.1,0.3-1.5c0.2-0.5,0.4-0.9,0.8-1.2
		s0.7-0.6,1.2-0.8c0.5-0.2,1-0.3,1.5-0.3c1.1,0,2,0.3,2.6,0.8c0.6,0.6,1,1.3,1.3,2.3l1.4,6.5c0,0.1,0.1,0.4,0.1,0.8s0.1,0.8,0.2,1.2
		s0.1,0.9,0.2,1.3c0.1,0.4,0.1,0.7,0.1,0.9h0c0-0.3,0-0.8,0-1.3c0-0.6,0.1-1.1,0.2-1.6c0.3-1.7,0.5-3.2,0.6-4.4
		c0.2-1.2,0.3-2.1,0.4-2.9c0.1-0.8,0.2-1.3,0.2-1.7c0-0.4,0.1-0.6,0.1-0.7c0-1-0.1-1.9-0.4-2.7c-0.3-0.8-0.7-1.6-1.3-2.2
		c-0.6-0.6-1.3-1.1-2.3-1.5c-0.9-0.4-2-0.5-3.3-0.5c-0.9,0-1.7,0.1-2.5,0.4c-0.8,0.3-1.4,0.6-2,1.1c-0.6,0.5-1.1,1-1.4,1.6
		c-0.4,0.6-0.6,1.3-0.7,2h-2.7c0.1-1.1,0.5-2.2,1-3.1c0.6-0.9,1.3-1.7,2.1-2.3c0.9-0.6,1.8-1.1,2.9-1.5c1.1-0.3,2.2-0.5,3.4-0.5
		c1.5,0,2.9,0.2,4.1,0.6c1.2,0.4,2.2,1.1,3,1.9c0.8,0.8,1.5,1.8,1.9,2.9c0.4,1.1,0.7,2.4,0.7,3.9c0,0.1,0,0.3,0,0.5
		c0,0.2-0.1,0.6-0.1,1.1c-0.1,0.5-0.2,1.1-0.3,1.9c-0.1,0.8-0.3,1.7-0.5,2.9c-0.2,1.2-0.4,2.5-0.7,4.2c-0.3,1.6-0.6,3.5-1,5.6H438.8
		z M434.3,224.9c0.5,0,0.9-0.2,1.3-0.5c0.3-0.3,0.5-0.8,0.5-1.2s-0.2-0.9-0.5-1.3c-0.3-0.4-0.7-0.6-1.3-0.6c-0.6,0-1,0.2-1.3,0.6
		c-0.3,0.4-0.4,0.8-0.4,1.3s0.1,0.9,0.4,1.2S433.7,224.9,434.3,224.9z"/>
	<path class="st1" d="M441.9,251.4v-4.9c-0.2,0.1-0.4,0.2-0.6,0.2c-0.2,0-0.5,0.1-0.8,0.1c-0.6,0-1.1-0.1-1.6-0.3s-0.9-0.5-1.2-0.8
		c-0.3-0.3-0.6-0.7-0.8-1.2s-0.3-0.9-0.3-1.4c0-1.1,0.3-2,1-2.6c0.7-0.7,1.6-1,2.8-1c1.2,0,2.1,0.3,2.7,1c0.6,0.7,1,1.6,1,2.7v8.3
		H441.9z M440.5,244.8c0.5,0,0.9-0.2,1.2-0.5c0.3-0.3,0.4-0.7,0.4-1.1c0-0.5-0.1-0.8-0.4-1.1c-0.2-0.3-0.7-0.5-1.2-0.5
		c-0.5,0-0.9,0.2-1.2,0.5c-0.3,0.3-0.4,0.7-0.4,1.1c0,0.5,0.1,0.8,0.4,1.1C439.6,244.6,440,244.8,440.5,244.8z"/>
	<path class="st1" d="M468.1,237v-15.7c0-1.1-0.2-2.1-0.5-3.1c-0.3-0.9-0.8-1.7-1.4-2.4c-0.6-0.7-1.4-1.2-2.3-1.5
		c-0.9-0.4-2-0.5-3.3-0.5s-2.4,0.2-3.3,0.5c-0.9,0.4-1.7,0.9-2.3,1.5c-0.6,0.7-1.1,1.5-1.4,2.4c-0.3,0.9-0.5,2-0.5,3.1v12.8l6.8-7
		c-0.4,0-0.8-0.1-1.1-0.3c-0.4-0.2-0.7-0.4-1-0.7c-0.3-0.3-0.5-0.7-0.7-1.1c-0.2-0.4-0.3-0.9-0.3-1.4c0-0.6,0.1-1.1,0.3-1.6
		s0.5-0.9,0.8-1.3c0.3-0.4,0.8-0.6,1.3-0.8c0.5-0.2,1-0.3,1.6-0.3c0.6,0,1.1,0.1,1.6,0.3c0.5,0.2,0.9,0.5,1.3,0.9
		c0.3,0.4,0.6,0.8,0.8,1.3s0.3,1,0.3,1.6c0,0.5-0.1,1-0.3,1.6c-0.2,0.5-0.5,1-0.9,1.3l-10,10.5h-2.8v-15.6c0-1.5,0.2-2.9,0.7-4.1
		c0.4-1.2,1.1-2.2,2-3.1c0.9-0.9,1.9-1.5,3.1-2c1.2-0.5,2.6-0.7,4.2-0.7c1.6,0,3,0.2,4.2,0.7c1.2,0.5,2.3,1.1,3.1,2
		c0.9,0.9,1.5,1.9,2,3.1c0.5,1.2,0.7,2.6,0.7,4.1V237H468.1z M460.7,225.3c0.5,0,1-0.2,1.3-0.5c0.4-0.4,0.5-0.8,0.5-1.3
		c0-0.5-0.2-1-0.5-1.3c-0.4-0.4-0.8-0.5-1.3-0.5s-1,0.2-1.4,0.5c-0.4,0.4-0.5,0.8-0.5,1.3c0,0.5,0.2,1,0.5,1.3
		C459.8,225.1,460.2,225.3,460.7,225.3z"/>
	<path class="st1" d="M484.5,237v-19.9c0-1.2-0.3-2.1-0.8-2.7s-1.4-0.9-2.6-0.9c-0.8,0-1.4,0.2-1.9,0.5c-0.5,0.3-0.8,0.8-1,1.4
		c0.1,0,0.2-0.1,0.5-0.1c0.2,0,0.4,0,0.6,0c0.6,0,1.2,0.1,1.6,0.3c0.5,0.2,0.9,0.5,1.2,0.8c0.3,0.3,0.6,0.7,0.7,1.2
		c0.2,0.5,0.2,0.9,0.2,1.5c0,0.6-0.1,1.1-0.3,1.5c-0.2,0.5-0.4,0.9-0.8,1.2c-0.3,0.3-0.7,0.6-1.2,0.8c-0.5,0.2-1,0.3-1.5,0.3
		c-0.6,0-1.2-0.1-1.7-0.4c-0.5-0.2-0.9-0.6-1.3-1c-0.4-0.4-0.6-0.9-0.8-1.5c-0.2-0.6-0.3-1.2-0.3-1.9c0-0.9,0.1-1.8,0.4-2.6
		c0.3-0.8,0.7-1.5,1.2-2.1c0.5-0.6,1.2-1,1.9-1.3c0.7-0.3,1.6-0.5,2.5-0.5c0.8,0,1.6,0.1,2.3,0.4c0.7,0.2,1.3,0.6,1.8,1.1
		c0.5,0.5,0.9,1,1.2,1.7c0.3,0.7,0.4,1.5,0.4,2.4v17.6h5.3v-13.5c0-0.7-0.1-1.3-0.2-1.8c-0.1-0.5-0.3-1-0.6-1.3
		c-0.3-0.4-0.6-0.7-1-1c-0.4-0.3-0.9-0.5-1.4-0.8l6.6-7.2l1.8,1.6l-4.9,5.3c0.7,0.5,1.3,1.2,1.7,1.9c0.4,0.8,0.6,1.8,0.6,3v16H484.5
		z M479.3,220.9c0.5,0,0.9-0.2,1.2-0.5c0.3-0.4,0.5-0.8,0.5-1.3c0-0.5-0.2-1-0.5-1.3c-0.3-0.3-0.7-0.5-1.3-0.5c-0.6,0-1,0.2-1.3,0.5
		s-0.5,0.8-0.5,1.3c0,0.5,0.2,1,0.5,1.3C478.3,220.7,478.8,220.9,479.3,220.9z"/>
	<path class="st1" d="M518.8,237l-10.7-4.6v0.8c0,0.6-0.1,1.1-0.3,1.6c-0.2,0.5-0.5,0.9-0.9,1.3c-0.4,0.4-0.8,0.7-1.3,0.9
		s-1,0.3-1.6,0.3c-0.6,0-1.1-0.1-1.6-0.3s-0.9-0.5-1.3-0.9c-0.4-0.4-0.7-0.8-0.9-1.3c-0.2-0.5-0.3-1-0.3-1.6c0-0.6,0.1-1.1,0.3-1.6
		c0.2-0.5,0.5-0.9,0.9-1.3c0.4-0.4,0.8-0.7,1.3-0.9c0.5-0.2,1-0.3,1.6-0.3c0.3,0,0.6,0,0.8,0c0.3,0,0.5,0.1,0.7,0.2v-9.9
		c-0.2,0.1-0.5,0.2-0.7,0.2c-0.3,0-0.5,0-0.8,0c-0.6,0-1.1-0.1-1.6-0.3c-0.5-0.2-0.9-0.5-1.3-0.9c-0.4-0.4-0.7-0.8-0.9-1.3
		c-0.2-0.5-0.3-1-0.3-1.6c0-0.6,0.1-1.1,0.3-1.6c0.2-0.5,0.5-0.9,0.9-1.3c0.4-0.4,0.8-0.7,1.3-0.9c0.5-0.2,1-0.3,1.6-0.3
		c0.6,0,1.1,0.1,1.6,0.3c0.5,0.2,0.9,0.5,1.3,0.9c0.4,0.4,0.7,0.8,0.9,1.3c0.2,0.5,0.3,1,0.3,1.6v14.5l10.6,4.4v-22.7h2.5V237H518.8
		z M504.1,217.5c0.5,0,1-0.2,1.3-0.5c0.4-0.4,0.5-0.8,0.5-1.4s-0.2-1-0.5-1.3c-0.4-0.4-0.8-0.5-1.3-0.5s-1,0.2-1.4,0.5
		c-0.4,0.4-0.5,0.8-0.5,1.3s0.2,1,0.5,1.4C503.1,217.4,503.5,217.5,504.1,217.5z M504.1,235.1c0.5,0,1-0.2,1.3-0.6s0.5-0.8,0.5-1.4
		c0-0.5-0.2-1-0.5-1.3c-0.4-0.4-0.8-0.5-1.3-0.5s-1,0.2-1.4,0.5c-0.4,0.4-0.5,0.8-0.5,1.3c0,0.5,0.2,1,0.5,1.4
		C503.1,234.9,503.5,235.1,504.1,235.1z"/>
	<path class="st1" d="M540.1,219.3c0-0.8-0.1-1.6-0.4-2.3c-0.3-0.7-0.6-1.3-1.1-1.8s-1.1-0.9-1.9-1.1c-0.7-0.3-1.6-0.4-2.6-0.4
		c-1,0-1.8,0.2-2.6,0.5c-0.7,0.3-1.4,0.8-1.9,1.3c-0.5,0.6-0.9,1.2-1.2,2c-0.3,0.8-0.4,1.6-0.4,2.5h-2.5c0-1.2,0.2-2.3,0.6-3.3
		c0.4-1,0.9-1.9,1.7-2.7c0.7-0.8,1.6-1.4,2.7-1.8c1.1-0.4,2.2-0.7,3.6-0.7c1.4,0,2.7,0.2,3.7,0.5c1.1,0.4,1.9,0.9,2.7,1.5
		c0.7,0.7,1.3,1.5,1.6,2.4c0.4,1,0.5,2,0.5,3.2v13.9c0,0.6-0.1,1.1-0.3,1.6c-0.2,0.5-0.5,0.9-0.9,1.3c-0.4,0.4-0.8,0.7-1.3,0.9
		c-0.5,0.2-1,0.3-1.6,0.3c-0.6,0-1.1-0.1-1.6-0.3s-0.9-0.5-1.3-0.9c-0.4-0.4-0.7-0.8-0.9-1.3c-0.2-0.5-0.3-1-0.3-1.6
		c0-0.6,0.1-1.1,0.3-1.6c0.2-0.5,0.5-0.9,0.9-1.3c0.4-0.4,0.8-0.7,1.3-0.9c0.5-0.2,1-0.3,1.6-0.3c0.3,0,0.6,0,0.8,0
		c0.3,0,0.5,0.1,0.8,0.2V219.3z M538.5,235.1c0.5,0,1-0.2,1.4-0.6c0.4-0.4,0.5-0.8,0.5-1.4c0-0.5-0.2-1-0.5-1.3
		c-0.4-0.4-0.8-0.5-1.4-0.5c-0.5,0-1,0.2-1.4,0.5c-0.4,0.4-0.6,0.8-0.6,1.3c0,0.5,0.2,1,0.6,1.4S538,235.1,538.5,235.1z"/>
	<path class="st1" d="M540.6,206.8c-1.7-0.6-3.3-1.1-4.8-1.5c-1.5-0.4-2.9-0.7-4.2-0.9c-1.3-0.2-2.5-0.4-3.6-0.5
		c-1.1-0.1-2.1-0.1-3.1-0.1c-0.5,0-0.8,0-1.2,0c-0.3,0-0.6,0-0.8,0c-0.2,0-0.4,0-0.6,0c-0.2,0-0.4,0-0.6,0.1c0.4-1.1,1-2.2,1.6-3.1
		c0.7-0.9,1.4-1.7,2.3-2.3c0.9-0.6,1.8-1.1,2.9-1.4c1.1-0.3,2.2-0.5,3.4-0.5c1.5,0,2.8,0.3,4.1,0.8c1.2,0.5,2.3,1.3,3.2,2.2
		c0.9,1,1.6,2.1,2.2,3.4c0.6,1.3,0.9,2.8,1,4.4L540.6,206.8z M540,204.4c-0.9-1.9-1.9-3.3-3.2-4.2c-1.3-0.9-2.8-1.4-4.8-1.4
		c-0.7,0-1.5,0.1-2.2,0.2c-0.7,0.1-1.3,0.3-1.9,0.6c-0.6,0.3-1.1,0.6-1.6,1c-0.5,0.4-0.9,0.8-1.2,1.3c1.3,0,2.6,0,3.8,0.1
		c1.2,0.1,2.4,0.2,3.6,0.4c1.2,0.2,2.4,0.5,3.6,0.8C537.4,203.5,538.6,203.9,540,204.4z"/>
	<path class="st1" d="M561.4,219.3c0-0.8-0.1-1.6-0.4-2.3c-0.3-0.7-0.6-1.3-1.1-1.8s-1.1-0.9-1.9-1.1c-0.7-0.3-1.6-0.4-2.6-0.4
		c-1,0-1.8,0.2-2.6,0.5c-0.7,0.3-1.4,0.8-1.9,1.3c-0.5,0.6-0.9,1.2-1.2,2c-0.3,0.8-0.4,1.6-0.4,2.5h-2.5c0-1.2,0.2-2.3,0.6-3.3
		c0.4-1,0.9-1.9,1.7-2.7c0.7-0.8,1.6-1.4,2.7-1.8c1.1-0.4,2.2-0.7,3.6-0.7c1.4,0,2.7,0.2,3.7,0.5c1.1,0.4,1.9,0.9,2.7,1.5
		c0.7,0.7,1.3,1.5,1.6,2.4c0.4,1,0.5,2,0.5,3.2v13.9c0,0.6-0.1,1.1-0.3,1.6c-0.2,0.5-0.5,0.9-0.9,1.3c-0.4,0.4-0.8,0.7-1.3,0.9
		c-0.5,0.2-1,0.3-1.6,0.3c-0.6,0-1.1-0.1-1.6-0.3s-0.9-0.5-1.3-0.9c-0.4-0.4-0.7-0.8-0.9-1.3c-0.2-0.5-0.3-1-0.3-1.6
		c0-0.6,0.1-1.1,0.3-1.6c0.2-0.5,0.5-0.9,0.9-1.3c0.4-0.4,0.8-0.7,1.3-0.9c0.5-0.2,1-0.3,1.6-0.3c0.3,0,0.6,0,0.8,0
		c0.3,0,0.5,0.1,0.8,0.2V219.3z M559.8,235.1c0.5,0,1-0.2,1.4-0.6c0.4-0.4,0.5-0.8,0.5-1.4c0-0.5-0.2-1-0.5-1.3
		c-0.4-0.4-0.8-0.5-1.4-0.5c-0.5,0-1,0.2-1.4,0.5c-0.4,0.4-0.6,0.8-0.6,1.3c0,0.5,0.2,1,0.6,1.4S559.3,235.1,559.8,235.1z"/>
	<path class="st1" d="M588.3,237v-20.5c0-0.8-0.2-1.4-0.7-1.9c-0.4-0.5-1.1-0.7-1.8-0.7c-0.6,0-1.1,0.2-1.5,0.5
		c-0.4,0.3-0.7,0.7-0.9,1.3l-7.1,21.4h-2.4v-17.5c-0.2,0.1-0.5,0.2-0.7,0.2c-0.3,0-0.5,0-0.8,0c-0.6,0-1.1-0.1-1.6-0.3
		c-0.5-0.2-0.9-0.5-1.3-0.9c-0.4-0.4-0.7-0.8-0.9-1.3c-0.2-0.5-0.3-1-0.3-1.6c0-0.6,0.1-1.1,0.3-1.6c0.2-0.5,0.5-0.9,0.9-1.3
		c0.4-0.4,0.8-0.7,1.3-0.9c0.5-0.2,1-0.3,1.6-0.3c0.6,0,1.1,0.1,1.6,0.3c0.5,0.2,0.9,0.5,1.3,0.9c0.4,0.4,0.7,0.8,0.9,1.3
		c0.2,0.5,0.3,1,0.3,1.6V230c0.8-2.4,1.5-4.9,2.4-7.3c0.8-2.4,1.6-4.9,2.4-7.3c0.4-1.4,1-2.3,1.7-2.9c0.7-0.6,1.7-0.9,2.9-0.9
		c0.7,0,1.4,0.1,2.1,0.4c0.6,0.2,1.2,0.6,1.6,1c0.4,0.4,0.8,0.9,1,1.5c0.2,0.6,0.4,1.3,0.4,2V237H588.3z M572.4,217.6
		c0.5,0,1-0.2,1.3-0.6s0.5-0.8,0.5-1.4c0-0.5-0.2-1-0.5-1.4s-0.8-0.5-1.3-0.5c-0.5,0-1,0.2-1.4,0.5c-0.4,0.4-0.5,0.8-0.5,1.4
		c0,0.5,0.2,1,0.5,1.4C571.4,217.4,571.8,217.6,572.4,217.6z"/>
	<path class="st1" d="M588.8,206.8c-1.7-0.6-3.3-1.1-4.8-1.5c-1.5-0.4-2.9-0.7-4.2-0.9c-1.3-0.2-2.5-0.4-3.6-0.4
		c-1.1-0.1-2.1-0.1-3.1-0.2c-0.5,0-0.8,0-1.2,0c-0.3,0-0.6,0-0.8,0c-0.2,0-0.4,0-0.6,0c-0.2,0-0.4,0-0.6,0.1c0.4-1.1,1-2.2,1.6-3.1
		c0.7-0.9,1.4-1.7,2.3-2.3c0.9-0.6,1.8-1.1,2.9-1.4c1.1-0.3,2.2-0.5,3.4-0.5c3.3,0,6,1.3,8.1,4v-6h2.4v12.8L588.8,206.8z
		 M588.2,204.4c-0.9-1.9-1.9-3.3-3.2-4.2c-1.3-0.9-2.8-1.4-4.8-1.4c-0.7,0-1.5,0.1-2.2,0.2c-0.7,0.1-1.3,0.3-1.9,0.6
		c-0.6,0.3-1.1,0.6-1.6,1c-0.5,0.4-0.9,0.8-1.2,1.3c1.3,0,2.6,0,3.8,0.1c1.2,0.1,2.4,0.2,3.6,0.4c1.2,0.2,2.4,0.5,3.6,0.8
		C585.5,203.5,586.8,203.9,588.2,204.4z"/>
	<path class="st1" d="M588.4,192.5V185h2.4v7.5H588.4z"/>
</g>
</svg>
