<?xml version="1.0" encoding="utf-8"?>
<!-- Generator: Adobe Illustrator 24.2.3, SVG Export Plug-In . SVG Version: 6.00 Build 0)  -->
<svg version="1.1" id="Layer_1" xmlns="http://www.w3.org/2000/svg" xmlns:xlink="http://www.w3.org/1999/xlink" x="0px" y="0px"
	 viewBox="0 0 666 359" style="enable-background:new 0 0 666 359;" xml:space="preserve">
<style type="text/css">
	.st0{enable-background:new    ;}
	.st1{fill:#F8EFD7;}
</style>
<g class="st0">
	<path class="st1" d="M3.8,38.9h2.5v17.5c0.2-0.1,0.5-0.2,0.7-0.2c0.3,0,0.5,0,0.8,0c0.6,0,1.1,0.1,1.6,0.3c0.5,0.2,0.9,0.5,1.3,0.9
		c0.4,0.4,0.7,0.8,0.9,1.3c0.2,0.5,0.3,1,0.3,1.6c0,0.6-0.1,1.1-0.3,1.6c-0.2,0.5-0.5,0.9-0.9,1.3c-0.4,0.4-0.8,0.7-1.3,0.9
		c-0.5,0.2-1,0.3-1.6,0.3c-0.6,0-1.1-0.1-1.6-0.3c-0.5-0.2-0.9-0.5-1.3-0.9c-0.4-0.4-0.7-0.8-0.9-1.3c-0.2-0.5-0.3-1-0.3-1.6V38.9z
		 M7.9,62.1c0.5,0,1-0.2,1.3-0.6s0.5-0.8,0.5-1.4c0-0.5-0.2-1-0.5-1.3c-0.4-0.4-0.8-0.5-1.3-0.5s-1,0.2-1.3,0.5
		C6.2,59.2,6,59.7,6,60.2c0,0.5,0.2,1,0.5,1.4C6.9,61.9,7.3,62.1,7.9,62.1z"/>
	<path class="st1" d="M35.4,64l-6.7-20L22,64h-2.7V46.5c-0.2,0.1-0.5,0.2-0.7,0.2c-0.3,0-0.5,0-0.8,0c-0.6,0-1.1-0.1-1.6-0.3
		c-0.5-0.2-0.9-0.5-1.3-0.9c-0.4-0.4-0.7-0.8-0.9-1.3c-0.2-0.5-0.3-1-0.3-1.6c0-0.6,0.1-1.1,0.3-1.6c0.2-0.5,0.5-0.9,0.9-1.3
		c0.4-0.4,0.8-0.7,1.3-0.9c0.5-0.2,1-0.3,1.6-0.3c0.6,0,1.1,0.1,1.6,0.3c0.5,0.2,0.9,0.5,1.3,0.9c0.4,0.4,0.7,0.8,0.9,1.3
		c0.2,0.5,0.3,1,0.3,1.6v12.4l-0.3,4.1l0.9-4l5.2-14.4h2L35,55.2l0.9,4l-0.3-4.1V38.8h2.5V64H35.4z M17.8,44.5c0.5,0,1-0.2,1.3-0.5
		c0.3-0.4,0.5-0.8,0.5-1.4s-0.2-1-0.5-1.3c-0.3-0.4-0.8-0.5-1.3-0.5c-0.5,0-1,0.2-1.4,0.5c-0.4,0.4-0.5,0.8-0.5,1.3s0.2,1,0.5,1.4
		C16.8,44.4,17.2,44.5,17.8,44.5z"/>
	<path class="st1" d="M52.7,48.6h-9.9v-1.5c0-1.2,0.2-2.2,0.6-3.3c0.4-1,0.9-1.9,1.7-2.7c0.7-0.8,1.7-1.4,2.8-1.9
		c1.1-0.5,2.4-0.7,3.8-0.7c1.2,0,2.3,0.2,3.4,0.6c1,0.4,1.9,0.9,2.7,1.6c0.8,0.7,1.3,1.5,1.8,2.5c0.4,1,0.6,2,0.6,3.2h-2.5
		c0-0.8-0.1-1.6-0.4-2.3c-0.3-0.7-0.7-1.3-1.2-1.8c-0.5-0.5-1.2-0.9-1.9-1.2c-0.8-0.3-1.6-0.4-2.6-0.4c-0.9,0-1.8,0.1-2.5,0.4
		c-0.7,0.3-1.4,0.7-1.9,1.2c-0.5,0.5-0.9,1.1-1.2,1.8c-0.3,0.7-0.4,1.5-0.4,2.3h9.8v13.7c0,0.6-0.1,1.1-0.3,1.6
		c-0.2,0.5-0.5,0.9-0.9,1.3c-0.4,0.4-0.8,0.7-1.3,0.9s-1,0.3-1.6,0.3c-0.6,0-1.1-0.1-1.6-0.3s-0.9-0.5-1.3-0.9
		c-0.4-0.4-0.7-0.8-0.9-1.3c-0.2-0.5-0.3-1-0.3-1.6c0-0.6,0.1-1.1,0.3-1.6c0.2-0.5,0.5-0.9,0.9-1.3c0.4-0.4,0.8-0.7,1.3-0.9
		c0.5-0.2,1-0.3,1.6-0.3c0.6,0,1.1,0.1,1.5,0.2V48.6z M51.2,62.1c0.5,0,1-0.2,1.4-0.6s0.5-0.8,0.5-1.4c0-0.5-0.2-1-0.5-1.3
		c-0.4-0.4-0.8-0.5-1.4-0.5s-1,0.2-1.3,0.5c-0.4,0.4-0.5,0.8-0.5,1.3c0,0.5,0.2,1,0.5,1.4C50.2,61.9,50.6,62.1,51.2,62.1z"/>
	<path class="st1" d="M77.1,64V46.8c0-0.8-0.1-1.6-0.3-2.3c-0.2-0.7-0.5-1.4-1-1.9c-0.5-0.5-1-1-1.8-1.3c-0.7-0.3-1.6-0.5-2.6-0.5
		c-0.9,0-1.8,0.1-2.4,0.4c-0.7,0.3-1.2,0.6-1.7,1.1c-0.5,0.5-0.8,1-1.1,1.6c-0.3,0.6-0.4,1.3-0.5,2h-2.5c0.1-1.1,0.3-2.1,0.7-3
		c0.4-0.9,0.9-1.7,1.6-2.3c0.7-0.7,1.5-1.2,2.5-1.5c1-0.4,2.1-0.5,3.5-0.5c1.4,0,2.7,0.2,3.7,0.6c1,0.4,1.9,1,2.5,1.7
		c0.7,0.7,1.1,1.6,1.5,2.6c0.3,1,0.5,2.1,0.5,3.3V64H77.1z"/>
	<path class="st1" d="M101.2,39.1c-0.5,2.7-1.6,4.7-3.4,6c-1.7,1.3-3.9,2-6.6,2c-2.1,0-3.7-0.4-4.9-1.2s-1.7-1.9-1.7-3.3
		c0-0.5,0.1-1,0.3-1.5c0.2-0.5,0.5-0.9,0.8-1.2s0.8-0.6,1.2-0.8s1-0.3,1.7-0.3c0.6,0,1.1,0.1,1.6,0.3c0.5,0.2,0.9,0.5,1.2,0.8
		c0.3,0.4,0.6,0.8,0.8,1.3c0.2,0.5,0.3,1,0.3,1.6c0,0.8-0.2,1.5-0.5,1.9c1.9-0.2,3.4-0.8,4.5-1.7s1.8-2.2,2.3-4H101.2z M101.2,54.9
		c-0.5,2.7-1.6,4.7-3.4,6c-1.7,1.3-3.9,2-6.6,2c-2.1,0-3.7-0.4-4.9-1.2s-1.7-1.9-1.7-3.3c0-0.5,0.1-1,0.3-1.5
		c0.2-0.5,0.5-0.9,0.8-1.2c0.3-0.3,0.8-0.6,1.2-0.8s1-0.3,1.7-0.3c0.6,0,1.1,0.1,1.6,0.3c0.5,0.2,0.9,0.5,1.2,0.8
		c0.3,0.4,0.6,0.8,0.8,1.3c0.2,0.5,0.3,1,0.3,1.5c0,0.9-0.2,1.5-0.5,2c1-0.1,1.8-0.3,2.5-0.6s1.4-0.6,1.9-1.1c0.5-0.5,1-1,1.4-1.7
		c0.4-0.7,0.7-1.4,0.9-2.3H101.2z M90.4,42.8c0-0.5-0.2-0.9-0.5-1.2c-0.3-0.3-0.7-0.5-1.2-0.5c-0.5,0-0.9,0.2-1.2,0.5
		C87.2,42,87,42.4,87,42.8c0,0.5,0.2,0.9,0.5,1.2c0.3,0.3,0.7,0.5,1.2,0.5c0.5,0,0.9-0.2,1.2-0.5C90.2,43.7,90.4,43.3,90.4,42.8z
		 M90.4,58.6c0-0.5-0.2-0.9-0.5-1.2c-0.3-0.3-0.7-0.5-1.2-0.5c-0.5,0-0.9,0.2-1.2,0.5c-0.3,0.3-0.5,0.7-0.5,1.2
		c0,0.5,0.2,0.9,0.5,1.2c0.3,0.3,0.7,0.5,1.2,0.5c0.5,0,0.9-0.2,1.2-0.5C90.2,59.5,90.4,59.1,90.4,58.6z"/>
	<path class="st1" d="M119.5,46.3c0-0.8-0.1-1.6-0.4-2.3c-0.3-0.7-0.6-1.3-1.1-1.8c-0.5-0.5-1.1-0.9-1.9-1.1
		c-0.7-0.3-1.6-0.4-2.6-0.4c-1,0-1.8,0.2-2.6,0.5c-0.7,0.3-1.4,0.8-1.9,1.3c-0.5,0.6-0.9,1.2-1.2,2c-0.3,0.8-0.4,1.6-0.4,2.5H105
		c0-1.2,0.2-2.3,0.6-3.3c0.4-1,0.9-1.9,1.7-2.7c0.7-0.8,1.6-1.4,2.7-1.8s2.2-0.7,3.6-0.7c1.4,0,2.7,0.2,3.7,0.5
		c1.1,0.4,1.9,0.9,2.7,1.5c0.7,0.7,1.3,1.5,1.6,2.4c0.4,1,0.5,2,0.5,3.2v13.9c0,0.6-0.1,1.1-0.3,1.6c-0.2,0.5-0.5,0.9-0.9,1.3
		c-0.4,0.4-0.8,0.7-1.3,0.9c-0.5,0.2-1,0.3-1.6,0.3s-1.1-0.1-1.6-0.3c-0.5-0.2-0.9-0.5-1.3-0.9c-0.4-0.4-0.7-0.8-0.9-1.3
		c-0.2-0.5-0.3-1-0.3-1.6c0-0.6,0.1-1.1,0.3-1.6c0.2-0.5,0.5-0.9,0.9-1.3c0.4-0.4,0.8-0.7,1.3-0.9c0.5-0.2,1-0.3,1.6-0.3
		c0.3,0,0.6,0,0.8,0c0.3,0,0.5,0.1,0.8,0.2V46.3z M117.9,62.1c0.5,0,1-0.2,1.4-0.6c0.4-0.4,0.5-0.8,0.5-1.4c0-0.5-0.2-1-0.5-1.3
		c-0.4-0.4-0.8-0.5-1.4-0.5s-1,0.2-1.4,0.5c-0.4,0.4-0.6,0.8-0.6,1.3c0,0.5,0.2,1,0.6,1.4S117.4,62.1,117.9,62.1z"/>
	<path class="st1" d="M119.4,33.8v-9h2.6v9H119.4z"/>
	<path class="st1" d="M140.7,64V46.8c0-0.8-0.1-1.6-0.3-2.3c-0.2-0.7-0.5-1.4-1-1.9c-0.5-0.5-1-1-1.8-1.3c-0.7-0.3-1.6-0.5-2.6-0.5
		c-0.9,0-1.8,0.1-2.4,0.4c-0.7,0.3-1.2,0.6-1.7,1.1c-0.5,0.5-0.8,1-1.1,1.6c-0.3,0.6-0.4,1.3-0.5,2h-2.5c0.1-1.1,0.3-2.1,0.7-3
		c0.4-0.9,0.9-1.7,1.6-2.3c0.7-0.7,1.5-1.2,2.5-1.5c1-0.4,2.1-0.5,3.5-0.5c1.4,0,2.7,0.2,3.7,0.6c1,0.4,1.9,1,2.5,1.7
		c0.7,0.7,1.1,1.6,1.5,2.6c0.3,1,0.5,2.1,0.5,3.3V64H140.7z"/>
	<path class="st1" d="M167.2,64l-10.7-4.6v0.8c0,0.6-0.1,1.1-0.3,1.6c-0.2,0.5-0.5,0.9-0.9,1.3c-0.4,0.4-0.8,0.7-1.3,0.9
		c-0.5,0.2-1,0.3-1.6,0.3c-0.6,0-1.1-0.1-1.6-0.3c-0.5-0.2-0.9-0.5-1.3-0.9c-0.4-0.4-0.7-0.8-0.9-1.3c-0.2-0.5-0.3-1-0.3-1.6
		c0-0.6,0.1-1.1,0.3-1.6c0.2-0.5,0.5-0.9,0.9-1.3c0.4-0.4,0.8-0.7,1.3-0.9c0.5-0.2,1-0.3,1.6-0.3c0.3,0,0.6,0,0.8,0
		c0.3,0,0.5,0.1,0.7,0.2v-9.9c-0.2,0.1-0.5,0.2-0.7,0.2c-0.3,0-0.5,0-0.8,0c-0.6,0-1.1-0.1-1.6-0.3c-0.5-0.2-0.9-0.5-1.3-0.9
		c-0.4-0.4-0.7-0.8-0.9-1.3c-0.2-0.5-0.3-1-0.3-1.6c0-0.6,0.1-1.1,0.3-1.6c0.2-0.5,0.5-0.9,0.9-1.3c0.4-0.4,0.8-0.7,1.3-0.9
		c0.5-0.2,1-0.3,1.6-0.3c0.6,0,1.1,0.1,1.6,0.3c0.5,0.2,0.9,0.5,1.3,0.9c0.4,0.4,0.7,0.8,0.9,1.3c0.2,0.5,0.3,1,0.3,1.6v14.5
		l10.6,4.4V38.8h2.5V64H167.2z M152.4,44.5c0.5,0,1-0.2,1.3-0.5c0.4-0.4,0.5-0.8,0.5-1.4s-0.2-1-0.5-1.3c-0.4-0.4-0.8-0.5-1.3-0.5
		s-1,0.2-1.4,0.5c-0.4,0.4-0.5,0.8-0.5,1.3s0.2,1,0.5,1.4C151.4,44.4,151.9,44.5,152.4,44.5z M152.4,62.1c0.5,0,1-0.2,1.3-0.6
		c0.4-0.4,0.5-0.8,0.5-1.4c0-0.5-0.2-1-0.5-1.3c-0.4-0.4-0.8-0.5-1.3-0.5s-1,0.2-1.4,0.5c-0.4,0.4-0.5,0.8-0.5,1.3
		c0,0.5,0.2,1,0.5,1.4S151.9,62.1,152.4,62.1z"/>
	<path class="st1" d="M167.7,33.8c-1.7-0.6-3.3-1.1-4.8-1.5c-1.5-0.4-2.9-0.7-4.2-0.9c-1.3-0.2-2.5-0.4-3.6-0.4
		c-1.1-0.1-2.1-0.1-3.1-0.2c-0.5,0-0.8,0-1.2,0s-0.6,0-0.8,0c-0.2,0-0.4,0-0.6,0c-0.2,0-0.4,0-0.6,0.1c0.4-1.1,1-2.2,1.6-3.1
		c0.7-0.9,1.4-1.7,2.3-2.3c0.9-0.6,1.8-1.1,2.9-1.4c1.1-0.3,2.2-0.5,3.4-0.5c3.3,0,6,1.3,8.1,4v-6h2.4v12.8L167.7,33.8z M167.1,31.4
		c-0.9-1.9-1.9-3.3-3.2-4.2c-1.3-0.9-2.8-1.4-4.8-1.4c-0.7,0-1.5,0.1-2.2,0.2c-0.7,0.1-1.3,0.3-1.9,0.6c-0.6,0.3-1.1,0.6-1.6,1
		c-0.5,0.4-0.9,0.8-1.2,1.3c1.3,0,2.6,0,3.8,0.1c1.2,0.1,2.4,0.2,3.6,0.4c1.2,0.2,2.4,0.5,3.6,0.8C164.4,30.5,165.7,30.9,167.1,31.4
		z"/>
</g>
<g class="st0">
	<path class="st1" d="M213.8,64V44.9c0-1.9-0.2-2.9-0.7-2.9c-0.2,0-0.4,0.2-0.8,0.6s-0.7,1-1.2,1.7L199.5,64H194V40.9h-1.3
		c-0.9,0-1.7-0.2-2.5-0.5c-0.8-0.3-1.4-0.8-2-1.3c-0.6-0.5-1-1.2-1.3-2c-0.3-0.8-0.5-1.6-0.5-2.5c0-0.9,0.2-1.7,0.5-2.4
		c0.3-0.8,0.8-1.4,1.4-2c0.6-0.6,1.3-1,2.1-1.3s1.7-0.5,2.7-0.5c1.2,0,2.3,0.2,3.2,0.6c0.9,0.4,1.6,0.9,2.2,1.5
		c0.6,0.6,1,1.4,1.2,2.2c0.3,0.8,0.4,1.7,0.4,2.6v13.1c0,0.7,0,1.4-0.1,2.3c-0.1,0.9-0.2,1.8-0.3,2.6c-0.1,0.8-0.2,1.5-0.3,2.1
		c-0.1,0.6-0.2,0.9-0.2,1c0-0.1,0.2-0.4,0.4-1c0.2-0.6,0.5-1.3,0.8-2c0.3-0.8,0.6-1.5,1-2.3c0.3-0.8,0.6-1.4,0.9-1.8l4.1-7.3
		c0.3-0.5,0.7-1.1,1.1-1.6c0.5-0.6,0.9-1,1.3-1.4c-0.5-0.7-0.9-1.3-1.2-2c-0.3-0.7-0.4-1.4-0.4-2.2c0-0.9,0.2-1.7,0.5-2.5
		s0.8-1.4,1.4-2c0.6-0.6,1.4-1,2.2-1.3s1.8-0.5,2.9-0.5c1,0,2,0.2,2.8,0.5c0.9,0.3,1.6,0.8,2.2,1.3c0.6,0.6,1.1,1.2,1.5,2
		c0.4,0.8,0.5,1.6,0.5,2.5c0,1-0.2,2-0.7,2.8c-0.5,0.9-1.2,1.6-2,2.2c0.5,0.7,0.9,1.5,1.1,2.3c0.2,0.8,0.3,1.8,0.3,3V64H213.8z
		 M195.5,34.5c0-0.7-0.2-1.2-0.7-1.7c-0.5-0.5-1-0.7-1.7-0.7c-0.7,0-1.2,0.2-1.7,0.7c-0.5,0.5-0.7,1-0.7,1.7c0,0.7,0.2,1.2,0.7,1.7
		c0.5,0.5,1,0.7,1.7,0.7c0.7,0,1.2-0.2,1.7-0.7C195.3,35.8,195.5,35.2,195.5,34.5z M216.5,34.5c0-0.7-0.2-1.2-0.7-1.7
		c-0.5-0.5-1-0.7-1.7-0.7c-0.7,0-1.2,0.2-1.7,0.7c-0.4,0.5-0.7,1-0.7,1.7c0,0.7,0.2,1.2,0.7,1.7c0.4,0.5,1,0.7,1.7,0.7
		c0.7,0,1.2-0.2,1.7-0.7C216.3,35.8,216.5,35.2,216.5,34.5z"/>
	<path class="st1" d="M229.1,64V48.8c0-0.9,0.1-1.8,0.4-2.6c0.3-0.8,0.7-1.6,1.2-2.2c0.6-0.7,1.3-1.2,2.2-1.6c0.9-0.4,2-0.6,3.2-0.6
		c1,0,1.9,0.2,2.7,0.5c0.8,0.3,1.5,0.8,2.1,1.3c0.6,0.6,1,1.2,1.4,2c0.3,0.8,0.5,1.6,0.5,2.4c0,0.9-0.2,1.7-0.5,2.5
		c-0.3,0.8-0.8,1.4-1.3,2c-0.6,0.6-1.2,1-2,1.3s-1.6,0.5-2.5,0.5H235v4.9h14.2V40.5c0-2.5-0.7-4.4-2.2-5.6c-1.5-1.2-3.5-1.8-6.1-1.8
		c-1.2,0-2.4,0.1-3.5,0.4s-2.1,0.7-2.9,1.3c-0.8,0.6-1.5,1.3-2.1,2.2c-0.5,0.9-0.8,1.9-0.8,3h-5.9c0.1-1.9,0.5-3.5,1.4-5
		c0.8-1.4,1.9-2.6,3.3-3.6c1.4-1,2.9-1.7,4.7-2.2c1.8-0.5,3.6-0.7,5.6-0.7c2,0,3.9,0.2,5.7,0.7c1.8,0.5,3.3,1.2,4.6,2.2
		c1.3,1,2.4,2.2,3.1,3.7c0.8,1.5,1.1,3.3,1.1,5.3V64H229.1z M236,50.4c0.7,0,1.2-0.2,1.7-0.7c0.5-0.5,0.7-1,0.7-1.7
		c0-0.7-0.2-1.2-0.7-1.7c-0.5-0.4-1-0.7-1.7-0.7c-0.7,0-1.2,0.2-1.7,0.7c-0.5,0.4-0.7,1-0.7,1.7c0,0.7,0.2,1.2,0.7,1.7
		C234.7,50.2,235.3,50.4,236,50.4z"/>
	<path class="st1" d="M287.8,64V42.1c0-1.4-0.2-2.6-0.6-3.7c-0.4-1.1-1-2.1-1.8-2.9c-0.8-0.8-1.7-1.4-2.9-1.8
		c-1.2-0.4-2.5-0.6-4-0.6c-1.5,0-2.8,0.2-3.9,0.6c-1.1,0.4-2.1,1-2.9,1.8c-0.8,0.8-1.4,1.8-1.8,2.9c-0.4,1.1-0.6,2.4-0.6,3.7v15.4
		l6.7-6.1c-1.1-0.4-1.9-1.1-2.5-2.1c-0.6-1-0.9-2-0.9-3.1c0-0.8,0.1-1.6,0.4-2.3c0.3-0.7,0.7-1.3,1.2-1.8c0.5-0.5,1.1-0.9,1.9-1.2
		c0.7-0.3,1.5-0.4,2.3-0.4c0.9,0,1.7,0.1,2.4,0.4c0.7,0.3,1.3,0.7,1.9,1.2c0.5,0.5,0.9,1.1,1.2,1.8c0.3,0.7,0.4,1.5,0.4,2.3
		c0,0.7-0.1,1.3-0.3,1.9c-0.2,0.6-0.4,1.1-0.7,1.6s-0.6,0.9-0.9,1.3c-0.3,0.4-0.6,0.7-0.9,1l-12.6,12h-5.7V42.3
		c0-2.1,0.4-3.9,1.1-5.6c0.7-1.7,1.7-3.2,3-4.4c1.3-1.2,2.9-2.2,4.8-2.9c1.9-0.7,4-1,6.3-1c2.3,0,4.4,0.3,6.3,1
		c1.9,0.7,3.5,1.6,4.8,2.9c1.3,1.2,2.4,2.7,3.1,4.4s1.1,3.6,1.1,5.6V64H287.8z M280.7,46.2c0-0.6-0.2-1.1-0.6-1.6
		c-0.4-0.4-1-0.6-1.6-0.6c-0.7,0-1.2,0.2-1.6,0.6c-0.4,0.4-0.6,1-0.6,1.6s0.2,1.1,0.6,1.6c0.4,0.4,0.9,0.6,1.6,0.6
		c0.7,0,1.2-0.2,1.6-0.6C280.5,47.4,280.7,46.8,280.7,46.2z"/>
	<path class="st1" d="M277.3,84.5v-5.9h-0.7c-1,0-1.9-0.1-2.7-0.4c-0.8-0.3-1.4-0.7-2-1.2c-0.5-0.5-0.9-1.1-1.2-1.8
		c-0.3-0.7-0.4-1.4-0.4-2.2c0-1.6,0.5-3,1.6-4c1.1-1,2.6-1.5,4.7-1.5c2.1,0,3.6,0.5,4.6,1.5c1,1,1.5,2.3,1.5,4v7.2h4.4
		c0.4,0,0.6-0.1,0.8-0.3c0.2-0.2,0.2-0.6,0.2-1.1V68h5.7v11c0,1-0.1,1.9-0.3,2.6c-0.2,0.7-0.5,1.3-0.9,1.7c-0.4,0.4-1,0.7-1.6,0.9
		c-0.7,0.2-1.5,0.3-2.4,0.3H277.3z M278.5,72.9c0-0.6-0.2-1.1-0.6-1.5c-0.4-0.4-0.9-0.6-1.5-0.6c-0.6,0-1.1,0.2-1.5,0.6
		c-0.4,0.4-0.6,0.9-0.6,1.5c0,0.6,0.2,1.1,0.6,1.5c0.4,0.4,0.9,0.6,1.5,0.6c0.6,0,1.1-0.2,1.5-0.6C278.3,74,278.5,73.5,278.5,72.9z"
		/>
	<path class="st1" d="M324.3,64V50.1c0-0.8-0.2-1.5-0.6-2.2c-0.4-0.7-1-1.3-1.7-1.7c-0.7-0.5-1.6-0.9-2.6-1.1s-2.1-0.4-3.2-0.4
		c-1.3,0-2.4,0.1-3.3,0.4c-0.9,0.3-1.6,0.7-2.2,1.2c-0.6,0.5-1,1.1-1.2,1.8c-0.3,0.7-0.4,1.5-0.4,2.3v1.5h1.4c0.9,0,1.7,0.2,2.5,0.5
		c0.8,0.3,1.4,0.8,2,1.3c0.6,0.6,1,1.2,1.3,2c0.3,0.8,0.5,1.6,0.5,2.5c0,0.9-0.2,1.7-0.5,2.4c-0.3,0.8-0.8,1.4-1.4,2s-1.3,1-2.1,1.3
		c-0.8,0.3-1.7,0.5-2.7,0.5c-1.3,0-2.3-0.2-3.2-0.6s-1.6-0.9-2.2-1.6c-0.6-0.6-1-1.4-1.2-2.2c-0.3-0.8-0.4-1.7-0.4-2.6v-7.1
		c0-1.5,0.3-2.9,1-4.2c0.6-1.3,1.5-2.4,2.6-3.3c1.1-0.9,2.5-1.6,4.1-2.2c1.6-0.5,3.3-0.8,5.1-0.8c1.9,0,3.6,0.3,5.1,0.8
		c1.4,0.5,2.6,1.3,3.3,2.4v-4.6c0-0.8-0.2-1.5-0.7-2.2c-0.5-0.7-1.1-1.2-1.8-1.7c-0.8-0.5-1.7-0.8-2.7-1.1c-1-0.3-2.1-0.4-3.1-0.4
		c-1.5,0-2.8,0.2-3.9,0.6c-1.1,0.4-2.1,0.9-2.9,1.5c-0.8,0.6-1.4,1.3-1.8,2c-0.4,0.7-0.7,1.5-0.8,2.2h-5.9c0.1-1.4,0.5-2.8,1.2-4.1
		s1.7-2.5,2.9-3.5c1.3-1,2.8-1.8,4.6-2.4c1.8-0.6,3.9-0.9,6.3-0.9c1.4,0,2.7,0.1,4,0.3s2.4,0.5,3.5,1l5.5-5l4,3.4l-4.9,4.4
		c1.6,1.7,2.5,3.7,2.5,6.1V64H324.3z M312.3,58.2c0-0.7-0.2-1.2-0.7-1.7c-0.5-0.5-1-0.7-1.7-0.7c-0.7,0-1.2,0.2-1.7,0.7
		c-0.5,0.5-0.7,1-0.7,1.7c0,0.7,0.2,1.2,0.7,1.7c0.5,0.5,1,0.7,1.7,0.7c0.7,0,1.2-0.2,1.7-0.7C312.1,59.4,312.3,58.9,312.3,58.2z"/>
	<path class="st1" d="M339.2,10.5c0,2.1-0.5,4-1.5,5.6s-2.4,3-4,4.1s-3.6,1.9-5.7,2.5c-2.1,0.6-4.3,0.9-6.5,0.9
		c-1.5,0-3-0.1-4.3-0.4c-1.3-0.3-2.4-0.7-3.4-1.3c-0.9-0.6-1.7-1.4-2.2-2.3c-0.5-0.9-0.8-2-0.8-3.3c0-1,0.2-1.9,0.5-2.6
		s0.8-1.4,1.4-1.9c0.6-0.5,1.3-0.9,2.1-1.1c0.8-0.2,1.6-0.4,2.5-0.4c0.8,0,1.6,0.1,2.4,0.4c0.8,0.2,1.4,0.6,2,1.1s1,1.1,1.4,1.8
		c0.3,0.7,0.5,1.5,0.5,2.5c0,0.6-0.1,1.3-0.4,1.9c-0.2,0.6-0.6,1.2-0.9,1.7c1.7,0,3.2-0.2,4.5-0.7c1.3-0.5,2.4-1.1,3.4-1.9
		c0.9-0.8,1.7-1.8,2.2-2.8c0.5-1.1,0.9-2.3,1-3.5H339.2z M319.5,16c0-0.7-0.2-1.2-0.7-1.7s-1-0.7-1.7-0.7c-0.7,0-1.2,0.2-1.7,0.7
		s-0.7,1.1-0.7,1.7c0,0.7,0.2,1.2,0.7,1.7s1,0.7,1.7,0.7c0.7,0,1.2-0.2,1.7-0.7S319.5,16.6,319.5,16z"/>
	<path class="st1" d="M362.9,64V41.8c0-1.1-0.1-2.1-0.2-3c-0.1-0.9-0.4-1.8-0.7-2.5c-0.3-0.7-0.7-1.4-1.2-1.9
		c-0.5-0.5-1.2-0.9-1.9-1.2l-5.2,3.6l-5.1-3.6c-0.8,0.3-1.4,0.7-1.9,1.2c-0.5,0.5-1,1.2-1.3,1.9c-0.3,0.7-0.6,1.6-0.7,2.5
		c-0.1,0.9-0.2,1.9-0.2,3v15.8l6.7-6.1c-1.1-0.4-1.9-1.1-2.5-2.1s-0.9-2-0.9-3.1c0-0.8,0.1-1.6,0.4-2.3c0.3-0.7,0.7-1.3,1.2-1.8
		c0.5-0.5,1.1-0.9,1.9-1.2c0.7-0.3,1.5-0.4,2.3-0.4c0.9,0,1.7,0.1,2.4,0.4c0.7,0.3,1.3,0.7,1.9,1.2c0.5,0.5,0.9,1.1,1.2,1.8
		c0.3,0.7,0.4,1.5,0.4,2.3c0,0.7-0.1,1.3-0.3,1.9c-0.2,0.6-0.4,1.1-0.7,1.6s-0.6,0.9-0.9,1.3c-0.3,0.4-0.6,0.7-0.9,1l-12.6,12h-5.7
		V42c0-1.7,0.2-3.2,0.6-4.8c0.4-1.5,1-2.9,1.8-4.1c0.8-1.2,1.9-2.2,3.2-3.1c1.3-0.9,2.9-1.5,4.7-1.8l5,4l5.2-4
		c1.8,0.3,3.3,0.9,4.6,1.8s2.3,1.9,3.1,3.1c0.8,1.2,1.4,2.6,1.8,4.1c0.4,1.5,0.6,3.1,0.6,4.8v22H362.9z M355.7,46.2
		c0-0.6-0.2-1.1-0.6-1.6c-0.4-0.4-1-0.6-1.6-0.6c-0.7,0-1.2,0.2-1.6,0.6c-0.4,0.4-0.6,1-0.6,1.6s0.2,1.1,0.6,1.6
		c0.4,0.4,0.9,0.6,1.6,0.6c0.7,0,1.2-0.2,1.6-0.6C355.5,47.4,355.7,46.8,355.7,46.2z"/>
	<path class="st1" d="M394.1,39.6c0-2-0.6-3.6-1.8-4.8c-1.2-1.2-3-1.8-5.5-1.8c-1.1,0-2.1,0.2-3,0.6c-0.9,0.4-1.6,1-2.2,1.8
		s-1.1,1.6-1.4,2.7c-0.3,1-0.5,2.2-0.5,3.4h-5.9c0-1.8,0.3-3.5,0.9-5.1c0.6-1.6,1.4-3,2.6-4.2c1.1-1.2,2.5-2.1,4.1-2.8
		c1.6-0.7,3.4-1,5.5-1c2.2,0,4.1,0.3,5.8,0.8c1.7,0.5,3,1.3,4.1,2.2s1.9,2.1,2.5,3.5c0.6,1.4,0.8,2.9,0.8,4.6V57
		c0,0.9-0.1,1.8-0.4,2.6s-0.7,1.6-1.2,2.2c-0.6,0.7-1.3,1.2-2.1,1.6c-0.9,0.4-1.9,0.6-3.2,0.6c-1,0-1.9-0.2-2.7-0.5
		c-0.8-0.3-1.5-0.8-2.1-1.3c-0.6-0.6-1-1.2-1.3-2s-0.5-1.6-0.5-2.4c0-0.9,0.2-1.7,0.5-2.5c0.3-0.8,0.8-1.4,1.3-2
		c0.6-0.6,1.2-1,2-1.3c0.8-0.3,1.6-0.5,2.5-0.5h1.3V39.6z M395.6,57.8c0-0.7-0.2-1.3-0.7-1.7c-0.5-0.5-1-0.7-1.7-0.7
		c-0.7,0-1.2,0.2-1.7,0.7c-0.5,0.5-0.7,1-0.7,1.7c0,0.7,0.2,1.2,0.7,1.7c0.5,0.5,1,0.7,1.7,0.7c0.7,0,1.2-0.2,1.7-0.7
		C395.3,59.1,395.6,58.5,395.6,57.8z"/>
	<path class="st1" d="M395.1,12.6c1.1,1.2,1.6,2.6,1.6,4.3c0,0.9-0.2,1.8-0.5,2.6c-0.4,0.8-0.9,1.5-1.5,2.1c-0.6,0.6-1.3,1-2.2,1.4
		c-0.8,0.3-1.7,0.5-2.7,0.5c-0.9,0-1.8-0.2-2.6-0.5c-0.8-0.3-1.5-0.8-2.2-1.4c-0.6-0.6-1.1-1.3-1.5-2.1c-0.4-0.8-0.5-1.7-0.5-2.6
		c0-1.3,0.4-2.4,1.1-3.5c0.7-1,1.6-1.8,2.8-2.3l13.9-6.3l2.1,4.6L395.1,12.6z M392.5,16.8c0-0.7-0.2-1.3-0.7-1.8
		c-0.5-0.5-1.1-0.7-1.8-0.7c-0.7,0-1.3,0.2-1.8,0.7c-0.5,0.5-0.7,1.1-0.7,1.8c0,0.8,0.2,1.4,0.7,1.8c0.5,0.5,1.1,0.7,1.8,0.7
		c0.7,0,1.3-0.2,1.8-0.7C392.3,18.2,392.5,17.6,392.5,16.8z"/>
	<path class="st1" d="M432.6,64V44.9c0-1.9-0.2-2.9-0.7-2.9c-0.2,0-0.4,0.2-0.8,0.6s-0.7,1-1.2,1.7L418.3,64h-5.5V40.9h-1.3
		c-0.9,0-1.7-0.2-2.5-0.5c-0.8-0.3-1.4-0.8-2-1.3s-1-1.2-1.3-2c-0.3-0.8-0.5-1.6-0.5-2.5c0-0.9,0.2-1.7,0.5-2.4
		c0.3-0.8,0.8-1.4,1.3-2c0.6-0.6,1.3-1,2.1-1.3s1.7-0.5,2.7-0.5c1.2,0,2.3,0.2,3.2,0.6c0.9,0.4,1.6,0.9,2.2,1.5
		c0.6,0.6,1,1.4,1.2,2.2s0.4,1.7,0.4,2.6v13.1c0,0.7,0,1.4-0.1,2.3s-0.2,1.8-0.3,2.6c-0.1,0.8-0.2,1.5-0.3,2.1
		c-0.1,0.6-0.2,0.9-0.2,1c0-0.1,0.2-0.4,0.4-1c0.2-0.6,0.5-1.3,0.8-2s0.6-1.5,1-2.3c0.3-0.8,0.6-1.4,0.9-1.8L425,42
		c0.3-0.5,0.7-1.1,1.1-1.6c0.5-0.6,0.9-1,1.3-1.4c-0.5-0.7-0.9-1.3-1.2-2s-0.4-1.4-0.4-2.2c0-0.9,0.2-1.7,0.5-2.5
		c0.3-0.8,0.8-1.4,1.4-2c0.6-0.6,1.4-1,2.2-1.3c0.9-0.3,1.8-0.5,2.9-0.5c1,0,2,0.2,2.8,0.5c0.9,0.3,1.6,0.8,2.2,1.3
		c0.6,0.6,1.1,1.2,1.5,2c0.4,0.8,0.5,1.6,0.5,2.5c0,1-0.2,2-0.7,2.8c-0.5,0.9-1.2,1.6-2,2.2c0.5,0.7,0.9,1.5,1.1,2.3
		c0.2,0.8,0.3,1.8,0.3,3V64H432.6z M414.3,34.5c0-0.7-0.2-1.2-0.7-1.7c-0.5-0.5-1-0.7-1.7-0.7s-1.2,0.2-1.7,0.7
		c-0.5,0.5-0.7,1-0.7,1.7c0,0.7,0.2,1.2,0.7,1.7c0.5,0.5,1,0.7,1.7,0.7s1.2-0.2,1.7-0.7C414,35.8,414.3,35.2,414.3,34.5z
		 M435.3,34.5c0-0.7-0.2-1.2-0.7-1.7c-0.5-0.5-1-0.7-1.7-0.7c-0.7,0-1.2,0.2-1.7,0.7c-0.4,0.5-0.7,1-0.7,1.7c0,0.7,0.2,1.2,0.7,1.7
		c0.4,0.5,1,0.7,1.7,0.7c0.7,0,1.2-0.2,1.7-0.7C435,35.8,435.3,35.2,435.3,34.5z"/>
	<path class="st1" d="M457.5,64h-6.1V40.9H450c-0.9,0-1.7-0.2-2.5-0.5c-0.8-0.3-1.4-0.8-2-1.3s-1-1.2-1.3-2
		c-0.3-0.8-0.5-1.6-0.5-2.5c0-0.9,0.2-1.7,0.5-2.4c0.3-0.8,0.8-1.4,1.3-2c0.6-0.6,1.3-1,2.1-1.3s1.7-0.5,2.7-0.5
		c1.2,0,2.3,0.2,3.2,0.6c0.9,0.4,1.6,0.9,2.2,1.5c0.6,0.6,1,1.4,1.2,2.2s0.4,1.7,0.4,2.6v23l13.5-6.9V28.7h6v22.7
		c1.5,0.5,2.6,1.3,3.5,2.4c0.9,1.1,1.3,2.5,1.3,4.1c0,0.9-0.2,1.7-0.5,2.5s-0.8,1.5-1.4,2.1c-0.6,0.6-1.3,1.1-2.1,1.4
		c-0.8,0.4-1.7,0.5-2.6,0.5c-1,0-1.9-0.2-2.7-0.5c-0.8-0.3-1.5-0.7-2.1-1.3c-0.6-0.5-1.1-1.2-1.4-1.9c-0.3-0.7-0.5-1.5-0.5-2.4
		L457.5,64z M452.8,34.5c0-0.7-0.2-1.2-0.7-1.7c-0.5-0.5-1-0.7-1.7-0.7s-1.2,0.2-1.7,0.7c-0.5,0.5-0.7,1-0.7,1.7
		c0,0.7,0.2,1.2,0.7,1.7c0.5,0.5,1,0.7,1.7,0.7s1.2-0.2,1.7-0.7C452.6,35.8,452.8,35.2,452.8,34.5z M477.3,57.7
		c0-0.7-0.2-1.3-0.7-1.8c-0.5-0.5-1.1-0.7-1.8-0.7c-0.7,0-1.3,0.2-1.8,0.7s-0.7,1.1-0.7,1.8c0,0.7,0.2,1.3,0.7,1.8s1.1,0.7,1.8,0.7
		c0.7,0,1.3-0.2,1.8-0.7C477,59,477.3,58.4,477.3,57.7z"/>
	<path class="st1" d="M486.5,64V48.8c0-0.9,0.1-1.8,0.4-2.6c0.3-0.8,0.7-1.6,1.2-2.2c0.6-0.7,1.3-1.2,2.2-1.6c0.9-0.4,2-0.6,3.2-0.6
		c1,0,1.9,0.2,2.7,0.5c0.8,0.3,1.5,0.8,2.1,1.3c0.6,0.6,1,1.2,1.4,2c0.3,0.8,0.5,1.6,0.5,2.4c0,0.9-0.2,1.7-0.5,2.5
		c-0.3,0.8-0.8,1.4-1.3,2c-0.6,0.6-1.2,1-2,1.3s-1.6,0.5-2.5,0.5h-1.4v4.9h14.2V40.5c0-2.5-0.7-4.4-2.2-5.6
		c-1.5-1.2-3.5-1.8-6.1-1.8c-1.2,0-2.4,0.1-3.5,0.4s-2.1,0.7-2.9,1.3c-0.8,0.6-1.5,1.3-2.1,2.2c-0.5,0.9-0.8,1.9-0.8,3h-5.9
		c0.1-1.9,0.5-3.5,1.3-5s1.9-2.6,3.3-3.6s2.9-1.7,4.7-2.2c1.8-0.5,3.6-0.7,5.6-0.7c2,0,3.9,0.2,5.7,0.7c1.8,0.5,3.3,1.2,4.6,2.2
		c1.3,1,2.4,2.2,3.1,3.7s1.1,3.3,1.1,5.3V64H486.5z M493.4,50.4c0.7,0,1.2-0.2,1.7-0.7c0.5-0.5,0.7-1,0.7-1.7c0-0.7-0.2-1.2-0.7-1.7
		c-0.5-0.4-1-0.7-1.7-0.7s-1.2,0.2-1.7,0.7c-0.5,0.4-0.7,1-0.7,1.7c0,0.7,0.2,1.2,0.7,1.7C492.2,50.2,492.7,50.4,493.4,50.4z"/>
	<path class="st1" d="M535.1,64l-17.4-18.2l3.8-3.9L535,56.5V40.9h-1.3c-0.9,0-1.7-0.2-2.5-0.5c-0.8-0.3-1.4-0.8-2-1.3s-1-1.2-1.3-2
		c-0.3-0.8-0.5-1.6-0.5-2.5c0-0.9,0.2-1.7,0.5-2.4c0.3-0.8,0.8-1.4,1.3-2c0.6-0.6,1.3-1,2.1-1.3s1.7-0.5,2.7-0.5
		c1.3,0,2.3,0.2,3.2,0.6c0.9,0.4,1.6,0.9,2.2,1.5c0.6,0.6,1,1.4,1.2,2.2c0.3,0.8,0.4,1.7,0.4,2.6V64H535.1z M536.4,34.5
		c0-0.7-0.2-1.2-0.7-1.7c-0.5-0.5-1-0.7-1.7-0.7c-0.7,0-1.2,0.2-1.7,0.7c-0.5,0.5-0.7,1-0.7,1.7c0,0.7,0.2,1.2,0.7,1.7
		c0.5,0.5,1,0.7,1.7,0.7c0.7,0,1.2-0.2,1.7-0.7C536.2,35.8,536.4,35.2,536.4,34.5z"/>
	<path class="st1" d="M572.9,64L564,53.5L555.3,64h-5.6V35.3c0-0.9,0.1-1.8,0.4-2.6c0.3-0.8,0.7-1.6,1.2-2.2
		c0.6-0.6,1.3-1.2,2.2-1.5c0.9-0.4,2-0.6,3.2-0.6c1,0,1.9,0.2,2.7,0.5s1.5,0.8,2.1,1.3c0.6,0.6,1,1.2,1.3,2c0.3,0.8,0.5,1.6,0.5,2.4
		c0,0.9-0.2,1.7-0.5,2.5c-0.3,0.8-0.8,1.4-1.3,2c-0.6,0.5-1.2,1-2,1.3c-0.8,0.3-1.6,0.5-2.5,0.5h-1.3v15.8l8.3-10.4l8.4,10.4v-28h6
		V64H572.9z M559,34.5c0-0.7-0.2-1.2-0.7-1.7c-0.5-0.5-1-0.7-1.7-0.7s-1.2,0.2-1.7,0.7c-0.5,0.5-0.7,1-0.7,1.7
		c0,0.7,0.2,1.2,0.7,1.7c0.5,0.5,1,0.7,1.7,0.7s1.2-0.2,1.7-0.7C558.7,35.8,559,35.2,559,34.5z"/>
	<path class="st1" d="M587.4,10.5c0,2.1-0.5,4-1.5,5.6s-2.4,3-4,4.1s-3.6,1.9-5.7,2.5c-2.1,0.6-4.3,0.9-6.5,0.9
		c-1.5,0-3-0.1-4.3-0.4s-2.4-0.7-3.4-1.3c-0.9-0.6-1.7-1.4-2.2-2.3c-0.5-0.9-0.8-2-0.8-3.3c0-1,0.2-1.9,0.5-2.6s0.8-1.4,1.4-1.9
		c0.6-0.5,1.3-0.9,2.1-1.1c0.8-0.2,1.6-0.4,2.5-0.4c0.8,0,1.6,0.1,2.4,0.4c0.8,0.2,1.4,0.6,2,1.1c0.6,0.5,1,1.1,1.4,1.8
		c0.3,0.7,0.5,1.5,0.5,2.5c0,0.6-0.1,1.3-0.4,1.9c-0.2,0.6-0.6,1.2-0.9,1.7c1.7,0,3.2-0.2,4.5-0.7c1.3-0.5,2.4-1.1,3.4-1.9
		c0.9-0.8,1.7-1.8,2.2-2.8c0.5-1.1,0.9-2.3,1-3.5H587.4z M567.7,16c0-0.7-0.2-1.2-0.7-1.7s-1-0.7-1.7-0.7c-0.7,0-1.2,0.2-1.7,0.7
		s-0.7,1.1-0.7,1.7c0,0.7,0.2,1.2,0.7,1.7s1,0.7,1.7,0.7c0.7,0,1.2-0.2,1.7-0.7S567.7,16.6,567.7,16z"/>
	<path class="st1" d="M609.6,64V41.7c0-1.3-0.3-2.4-0.8-3.5c-0.5-1.1-1.2-2-2.1-2.8c-0.9-0.8-1.9-1.4-3.1-1.8
		c-1.2-0.4-2.4-0.6-3.7-0.6c-0.9,0-1.8,0.1-2.6,0.3c-0.9,0.2-1.7,0.5-2.5,0.9c-0.8,0.4-1.5,0.9-2.1,1.6s-1.2,1.3-1.6,2.2l3.1,3.5V64
		h-6V42.7l-3.6-3.9c0.4-1.6,1.1-3,2.1-4.3c0.9-1.3,2.1-2.4,3.4-3.3s2.8-1.6,4.5-2.1c1.7-0.5,3.5-0.7,5.4-0.7c2.3,0,4.4,0.3,6.4,1
		c1.9,0.7,3.6,1.6,5,2.8c1.4,1.2,2.5,2.6,3.2,4.3c0.8,1.7,1.2,3.5,1.2,5.5v22H609.6z"/>
	<path class="st1" d="M635.1,64V37.6c0-1.7-0.4-3-1.2-3.8c-0.8-0.8-1.9-1.2-3.2-1.2c-0.6,0-1.2,0.1-1.8,0.4s-1.1,0.6-1.4,1
		c1,0,1.9,0.2,2.6,0.5s1.4,0.8,1.9,1.3c0.5,0.5,0.9,1.1,1.2,1.8s0.4,1.4,0.4,2.2c0,0.8-0.2,1.6-0.5,2.3c-0.3,0.7-0.7,1.3-1.3,1.8
		c-0.5,0.5-1.2,0.9-2,1.2c-0.8,0.3-1.6,0.4-2.6,0.4c-1,0-1.9-0.2-2.7-0.6c-0.8-0.4-1.5-0.9-2.1-1.6c-0.6-0.7-1-1.5-1.3-2.4
		c-0.3-0.9-0.5-1.9-0.5-2.9c0-1.4,0.3-2.7,0.8-3.9c0.5-1.2,1.2-2.2,2.1-3c0.9-0.9,2-1.5,3.2-2s2.5-0.7,3.9-0.7
		c1.5,0,2.8,0.2,4.1,0.6c1.3,0.4,2.4,1,3.3,1.8c0.9,0.8,1.6,1.8,2.2,3c0.5,1.2,0.8,2.6,0.8,4.2v21.3h6.2v-17c0-1.8-0.3-3.1-0.9-4.2
		c-0.6-1-1.7-1.8-3.4-2.4l10.3-9.7l4.1,3.4l-6.7,6.2c1.7,1.2,2.6,3.4,2.6,6.4V64H635.1z M629.5,39.7c0-0.7-0.2-1.2-0.7-1.6
		c-0.4-0.4-1-0.6-1.7-0.6s-1.2,0.2-1.7,0.6c-0.4,0.4-0.7,1-0.7,1.6c0,0.7,0.2,1.2,0.7,1.7c0.4,0.4,1,0.6,1.7,0.6s1.2-0.2,1.7-0.6
		C629.3,40.9,629.5,40.4,629.5,39.7z"/>
	<path class="st1" d="M647.5,6h5.8v19.2c-1.8-0.8-3.6-1.6-5.7-2.3c-2-0.7-4.1-1.3-6.3-1.8c-2.2-0.5-4.4-0.9-6.6-1.2
		s-4.5-0.4-6.7-0.4c-1.1,0-2.2,0-3.2,0.1c-1,0-2.1,0.2-3.1,0.3c1.5-3.7,3.5-6.6,6.1-8.5c2.6-1.9,5.8-2.9,9.5-2.9c2.1,0,4,0.3,5.7,1
		c1.7,0.6,3.2,1.6,4.6,2.8V6z M630.9,16c1.4,0,2.7,0.1,4,0.2c1.3,0.1,2.6,0.3,4,0.6c1.3,0.3,2.7,0.6,4,0.9c1.4,0.4,2.8,0.8,4.2,1.3
		c-0.4-0.8-1-1.6-1.6-2.3c-0.6-0.8-1.4-1.4-2.3-2c-0.9-0.6-1.8-1-2.8-1.4s-2.2-0.5-3.4-0.5c-1.9,0-3.5,0.3-4.8,0.9s-2.4,1.4-3.2,2.3
		H630.9z"/>
</g>
<g class="st0">
	<path class="st1" d="M3.8,118.9h2.5v17.5c0.2-0.1,0.5-0.2,0.7-0.2c0.3,0,0.5,0,0.8,0c0.6,0,1.1,0.1,1.6,0.3
		c0.5,0.2,0.9,0.5,1.3,0.9c0.4,0.4,0.7,0.8,0.9,1.3c0.2,0.5,0.3,1,0.3,1.6c0,0.6-0.1,1.1-0.3,1.6c-0.2,0.5-0.5,0.9-0.9,1.3
		c-0.4,0.4-0.8,0.7-1.3,0.9c-0.5,0.2-1,0.3-1.6,0.3c-0.6,0-1.1-0.1-1.6-0.3c-0.5-0.2-0.9-0.5-1.3-0.9c-0.4-0.4-0.7-0.8-0.9-1.3
		c-0.2-0.5-0.3-1-0.3-1.6V118.9z M7.9,142.1c0.5,0,1-0.2,1.3-0.6s0.5-0.8,0.5-1.4c0-0.5-0.2-1-0.5-1.3c-0.4-0.4-0.8-0.5-1.3-0.5
		s-1,0.2-1.3,0.5c-0.3,0.4-0.5,0.8-0.5,1.3c0,0.5,0.2,1,0.5,1.4C6.9,141.9,7.3,142.1,7.9,142.1z"/>
	<path class="st1" d="M19.3,144v-17.5c-0.2,0.1-0.5,0.2-0.7,0.2c-0.3,0-0.5,0-0.8,0c-0.6,0-1.1-0.1-1.6-0.3
		c-0.5-0.2-0.9-0.5-1.3-0.9c-0.4-0.4-0.7-0.8-0.9-1.3c-0.2-0.5-0.3-1-0.3-1.6c0-0.6,0.1-1.1,0.3-1.6c0.2-0.5,0.5-0.9,0.9-1.3
		c0.4-0.4,0.8-0.7,1.3-0.9c0.5-0.2,1-0.3,1.6-0.3c0.6,0,1.1,0.1,1.6,0.3c0.5,0.2,0.9,0.5,1.3,0.9c0.4,0.4,0.7,0.8,0.9,1.3
		c0.2,0.5,0.3,1,0.3,1.6v19.1h11.8v-34.9h2.5V144H19.3z M17.8,124.5c0.5,0,1-0.2,1.3-0.5c0.3-0.4,0.5-0.8,0.5-1.4s-0.2-1-0.5-1.3
		c-0.3-0.4-0.8-0.5-1.3-0.5c-0.5,0-1,0.2-1.4,0.5c-0.4,0.4-0.5,0.8-0.5,1.3s0.2,1,0.5,1.4C16.8,124.4,17.2,124.5,17.8,124.5z"/>
	<path class="st1" d="M18.9,114c-0.6,0-1.2-0.1-1.8-0.4c-0.6-0.2-1-0.6-1.5-1.1c-0.4-0.5-0.7-1-1-1.7c-0.2-0.7-0.4-1.5-0.4-2.3
		c0-0.7,0.1-1.4,0.4-2c0.3-0.6,0.6-1.2,1.1-1.6c0.5-0.5,1.1-0.8,1.8-1.1c0.7-0.3,1.5-0.4,2.5-0.4h5.8c0.9,0,1.6-0.2,2.1-0.5
		c0.5-0.3,0.9-0.8,1.3-1.4l1.9,1.3c-0.5,1-1.2,1.7-2,2.1c-0.8,0.4-1.9,0.6-3.2,0.6h-5.8c-1.2,0-2.1,0.3-2.6,0.8
		c-0.5,0.6-0.8,1.3-0.8,2.3c0,1,0.1,1.7,0.4,2.2c0.3,0.5,0.7,0.8,1.2,1l2.8-3.2l1.3,1.6c0.4,0.4,0.7,0.8,1,1
		c0.3,0.3,0.6,0.4,0.9,0.5c0,0,0-0.1,0-0.2c0-0.1,0-0.2,0-0.2c0-1,0.3-1.7,0.9-2.2c0.6-0.5,1.3-0.8,2.2-0.8c0.4,0,0.9,0.1,1.2,0.2
		c0.4,0.1,0.7,0.4,1,0.6c0.3,0.3,0.5,0.6,0.6,1c0.2,0.4,0.2,0.8,0.2,1.2c0,0.4-0.1,0.8-0.2,1.1c-0.1,0.4-0.4,0.7-0.7,1
		c-0.3,0.3-0.7,0.5-1.1,0.7c-0.5,0.2-1,0.3-1.6,0.3c-1.3,0-2.4-0.2-3.3-0.6c-0.9-0.4-1.6-1.1-2.3-2L18.9,114z M27.2,112.6
		c0.9,0,1.3-0.5,1.3-1.5c0-0.4-0.1-0.7-0.3-1c-0.2-0.3-0.5-0.4-1-0.4c-0.5,0-0.8,0.1-1,0.4c-0.2,0.3-0.3,0.6-0.3,1
		C25.9,112.1,26.3,112.6,27.2,112.6z"/>
	<path class="st1" d="M57.5,140l-8.7,4h-2.7v-17.5c-0.2,0.1-0.5,0.2-0.7,0.2c-0.3,0-0.5,0-0.8,0c-0.6,0-1.1-0.1-1.6-0.3
		c-0.5-0.2-0.9-0.5-1.3-0.9c-0.4-0.4-0.7-0.8-0.9-1.3c-0.2-0.5-0.3-1-0.3-1.6c0-0.6,0.1-1.1,0.3-1.6c0.2-0.5,0.5-0.9,0.9-1.3
		c0.4-0.4,0.8-0.7,1.3-0.9c0.5-0.2,1-0.3,1.6-0.3c0.6,0,1.1,0.1,1.6,0.3c0.5,0.2,0.9,0.5,1.3,0.9c0.4,0.4,0.7,0.8,0.9,1.3
		c0.2,0.5,0.3,1,0.3,1.6v19l11.5-5.1v-17.7h2.5v17.9c0.8,0.3,1.4,0.8,1.9,1.4c0.5,0.7,0.7,1.4,0.7,2.3c0,0.6-0.1,1.1-0.3,1.6
		c-0.2,0.5-0.5,0.9-0.8,1.2c-0.3,0.4-0.8,0.6-1.2,0.8c-0.5,0.2-1,0.3-1.5,0.3c-0.6,0-1.1-0.1-1.5-0.3c-0.5-0.2-0.9-0.4-1.2-0.8
		c-0.3-0.3-0.6-0.7-0.8-1.2c-0.2-0.5-0.3-1-0.3-1.5V140z M44.6,124.6c0.5,0,1-0.2,1.3-0.6s0.5-0.8,0.5-1.4c0-0.5-0.2-1-0.5-1.4
		s-0.8-0.5-1.3-0.5c-0.5,0-1,0.2-1.4,0.5s-0.5,0.8-0.5,1.4c0,0.5,0.2,1,0.5,1.4S44.1,124.6,44.6,124.6z M61.4,142.2
		c0.5,0,0.9-0.2,1.2-0.5c0.3-0.3,0.5-0.7,0.5-1.2c0-0.5-0.2-0.9-0.5-1.2c-0.3-0.3-0.7-0.5-1.2-0.5c-0.5,0-0.9,0.2-1.2,0.5
		c-0.3,0.3-0.5,0.7-0.5,1.2c0,0.5,0.2,0.9,0.5,1.2C60.5,142,60.9,142.2,61.4,142.2z"/>
	<path class="st1" d="M87.3,144v-20.5c0-0.8-0.2-1.4-0.7-1.9c-0.4-0.5-1.1-0.7-1.8-0.7c-0.6,0-1.1,0.2-1.5,0.5
		c-0.4,0.3-0.7,0.7-0.9,1.3L75.3,144h-2.4v-17.5c-0.2,0.1-0.5,0.2-0.7,0.2c-0.3,0-0.5,0-0.8,0c-0.6,0-1.1-0.1-1.6-0.3
		c-0.5-0.2-0.9-0.5-1.3-0.9c-0.4-0.4-0.7-0.8-0.9-1.3c-0.2-0.5-0.3-1-0.3-1.6c0-0.6,0.1-1.1,0.3-1.6c0.2-0.5,0.5-0.9,0.9-1.3
		c0.4-0.4,0.8-0.7,1.3-0.9c0.5-0.2,1-0.3,1.6-0.3c0.6,0,1.1,0.1,1.6,0.3c0.5,0.2,0.9,0.5,1.3,0.9c0.4,0.4,0.7,0.8,0.9,1.3
		c0.2,0.5,0.3,1,0.3,1.6V137c0.8-2.4,1.6-4.9,2.4-7.3c0.8-2.4,1.6-4.9,2.4-7.3c0.4-1.4,1-2.3,1.7-2.9c0.7-0.6,1.7-0.9,2.9-0.9
		c0.7,0,1.4,0.1,2.1,0.4c0.6,0.2,1.2,0.6,1.6,1c0.4,0.4,0.8,0.9,1,1.5c0.2,0.6,0.4,1.3,0.4,2V144H87.3z M71.4,124.6
		c0.5,0,1-0.2,1.3-0.6s0.5-0.8,0.5-1.4c0-0.5-0.2-1-0.5-1.4s-0.8-0.5-1.3-0.5c-0.5,0-1,0.2-1.4,0.5s-0.5,0.8-0.5,1.4
		c0,0.5,0.2,1,0.5,1.4S70.8,124.6,71.4,124.6z"/>
	<path class="st1" d="M87.8,113.8c-1.7-0.6-3.3-1.1-4.8-1.5c-1.5-0.4-2.9-0.7-4.2-0.9c-1.3-0.2-2.5-0.4-3.6-0.4
		c-1.1-0.1-2.1-0.1-3.1-0.2c-0.5,0-0.8,0-1.2,0s-0.6,0-0.8,0c-0.2,0-0.4,0-0.6,0c-0.2,0-0.4,0-0.6,0.1c0.4-1.1,1-2.2,1.6-3.1
		c0.7-0.9,1.4-1.7,2.3-2.3c0.9-0.6,1.8-1.1,2.9-1.4c1.1-0.3,2.2-0.5,3.4-0.5c3.3,0,6,1.3,8.1,4v-6h2.4v12.8L87.8,113.8z M87.2,111.4
		c-0.9-1.9-1.9-3.3-3.2-4.2c-1.3-0.9-2.8-1.4-4.8-1.4c-0.7,0-1.5,0.1-2.2,0.2c-0.7,0.1-1.3,0.3-1.9,0.6c-0.6,0.3-1.1,0.6-1.6,1
		c-0.5,0.4-0.9,0.8-1.2,1.3c1.3,0,2.6,0,3.8,0.1c1.2,0.1,2.4,0.2,3.6,0.4c1.2,0.2,2.4,0.5,3.6,0.8C84.5,110.5,85.8,110.9,87.2,111.4
		z"/>
	<path class="st1" d="M87.4,99.5V92h2.4v7.5H87.4z"/>
	<path class="st1" d="M112.3,144v-9.9c0-0.7-0.1-1.3-0.4-1.9c-0.3-0.6-0.7-1.1-1.3-1.6s-1.3-0.8-2.1-1.1c-0.8-0.3-1.8-0.4-2.9-0.4
		c-1,0-1.8,0.1-2.6,0.4c-0.7,0.3-1.4,0.6-1.9,1.1c-0.5,0.5-0.9,1-1.1,1.7c-0.3,0.7-0.4,1.4-0.4,2.2v1.9c0.2-0.1,0.5-0.2,0.7-0.2
		c0.2,0,0.5,0,0.8,0c0.6,0,1.1,0.1,1.6,0.3c0.5,0.2,0.9,0.5,1.3,0.9c0.4,0.4,0.7,0.8,0.9,1.3c0.2,0.5,0.3,1,0.3,1.6
		c0,0.6-0.1,1.1-0.3,1.6c-0.2,0.5-0.5,0.9-0.9,1.3c-0.4,0.4-0.8,0.7-1.3,0.9c-0.5,0.2-1,0.3-1.6,0.3c-0.6,0-1.1-0.1-1.6-0.3
		c-0.5-0.2-0.9-0.5-1.3-0.9c-0.4-0.4-0.6-0.8-0.8-1.3c-0.2-0.5-0.3-1-0.3-1.6v-5.8c0-1.1,0.2-2.1,0.6-3c0.4-0.9,1-1.7,1.8-2.4
		c0.8-0.7,1.7-1.2,2.7-1.6c1-0.4,2.2-0.6,3.5-0.6c1.5,0,2.8,0.2,3.9,0.7c1,0.4,2,1.1,2.8,1.9v-3.5c0-0.7-0.2-1.4-0.5-2
		c-0.3-0.6-0.8-1.2-1.3-1.6c-0.6-0.5-1.3-0.8-2.2-1.1c-0.9-0.3-1.8-0.4-3-0.4c-1.4,0-2.5,0.1-3.4,0.4s-1.7,0.7-2.3,1.2s-1,1-1.3,1.6
		c-0.3,0.6-0.5,1.2-0.5,1.9h-2.4c0-1,0.3-1.9,0.8-2.8c0.5-0.9,1.1-1.7,2-2.3c0.8-0.7,1.9-1.2,3.1-1.6c1.2-0.4,2.6-0.6,4.1-0.6
		c1.1,0,2.1,0.1,3,0.3c0.9,0.2,1.8,0.5,2.5,0.9l3.7-3.7l1.8,1.6l-3.5,3.3c1.4,1.3,2.1,2.9,2.1,5v18H112.3z M101.1,142.1
		c0.5,0,1-0.2,1.4-0.6s0.5-0.8,0.5-1.4c0-0.5-0.2-1-0.5-1.3c-0.4-0.4-0.8-0.5-1.4-0.5s-1,0.2-1.3,0.5c-0.4,0.4-0.5,0.8-0.5,1.3
		c0,0.5,0.2,1,0.5,1.4C100.1,141.9,100.5,142.1,101.1,142.1z"/>
	<path class="st1" d="M117.6,110.2c0,0.6-0.1,1.1-0.3,1.5c-0.2,0.5-0.5,0.9-0.8,1.2s-0.8,0.6-1.2,0.8s-1,0.3-1.7,0.3
		c-0.6,0-1.2-0.1-1.7-0.3s-0.9-0.5-1.2-0.8s-0.6-0.7-0.8-1.2c-0.2-0.5-0.3-1-0.3-1.5c0-0.5,0.1-1,0.3-1.5c0.2-0.5,0.5-0.9,0.8-1.2
		c0.3-0.4,0.8-0.6,1.2-0.8c0.5-0.2,1-0.3,1.6-0.3c0.6,0,1.1,0.1,1.6,0.3s0.9,0.5,1.3,0.8c0.4,0.3,0.6,0.7,0.8,1.2
		C117.5,109.1,117.6,109.6,117.6,110.2z M113.6,111.9c0.6,0,1.1-0.2,1.3-0.5c0.3-0.4,0.4-0.8,0.4-1.2c0-0.5-0.1-0.9-0.4-1.2
		c-0.3-0.3-0.7-0.5-1.3-0.5c-0.5,0-1,0.2-1.2,0.5c-0.3,0.3-0.4,0.7-0.4,1.2c0,0.5,0.1,0.9,0.4,1.2
		C112.7,111.8,113.1,111.9,113.6,111.9z"/>
	<path class="st1" d="M133.4,144v-17.2c0-0.8-0.1-1.6-0.3-2.3c-0.2-0.7-0.5-1.4-1-1.9c-0.5-0.5-1-1-1.8-1.3
		c-0.7-0.3-1.6-0.5-2.6-0.5c-0.9,0-1.8,0.1-2.4,0.4c-0.7,0.3-1.2,0.6-1.7,1.1c-0.5,0.5-0.8,1-1.1,1.6c-0.3,0.6-0.4,1.3-0.5,2h-2.5
		c0.1-1.1,0.3-2.1,0.7-3c0.4-0.9,0.9-1.7,1.6-2.3c0.7-0.7,1.5-1.2,2.5-1.5c1-0.4,2.1-0.5,3.5-0.5c1.4,0,2.7,0.2,3.7,0.6
		c1,0.4,1.9,1,2.5,1.7c0.7,0.7,1.1,1.6,1.5,2.6c0.3,1,0.5,2.1,0.5,3.3V144H133.4z"/>
	<path class="st1" d="M159.9,144v-13.7c0-1.9-0.5-2.9-1.4-2.9c-0.6,0-1.3,0.7-2.1,2.1l-8.1,14.4h-2.3v-17.5
		c-0.2,0.1-0.5,0.2-0.7,0.2c-0.3,0-0.5,0-0.8,0c-0.6,0-1.1-0.1-1.6-0.3c-0.5-0.2-0.9-0.5-1.3-0.9c-0.4-0.4-0.7-0.8-0.9-1.3
		c-0.2-0.5-0.3-1-0.3-1.6c0-0.6,0.1-1.1,0.3-1.6c0.2-0.5,0.5-0.9,0.9-1.3c0.4-0.4,0.8-0.7,1.3-0.9c0.5-0.2,1-0.3,1.6-0.3
		c0.6,0,1.1,0.1,1.6,0.3c0.5,0.2,0.9,0.5,1.3,0.9c0.4,0.4,0.7,0.8,0.9,1.3c0.2,0.5,0.3,1,0.3,1.6v13.9c0,0.2,0,0.5,0,0.8
		c0,0.3,0,0.6,0,1c0,0.3,0,0.6-0.1,0.9c0,0.3-0.1,0.5-0.1,0.6l1-2.1l5.1-9.3c0.3-0.5,0.6-1,0.9-1.4c0.3-0.5,0.7-0.8,1.1-1
		c-0.9-0.8-1.4-1.9-1.4-3.2c0-0.6,0.1-1.1,0.3-1.6c0.2-0.5,0.5-0.9,0.9-1.3c0.4-0.4,0.8-0.7,1.3-0.9c0.5-0.2,1.1-0.3,1.6-0.3
		s1.1,0.1,1.7,0.3c0.5,0.2,1,0.5,1.4,0.9c0.4,0.4,0.7,0.8,0.9,1.3c0.2,0.5,0.3,1,0.3,1.6c0,1.6-0.7,2.8-2.1,3.6
		c0.4,0.4,0.6,0.9,0.8,1.7c0.2,0.7,0.2,1.5,0.2,2.4V144H159.9z M144.4,124.5c0.5,0,1-0.2,1.3-0.5c0.3-0.4,0.5-0.8,0.5-1.4
		s-0.2-1-0.5-1.3c-0.3-0.4-0.8-0.5-1.3-0.5c-0.5,0-1,0.2-1.4,0.5c-0.4,0.4-0.5,0.8-0.5,1.3s0.2,1,0.5,1.4
		C143.4,124.4,143.9,124.5,144.4,124.5z M159.2,124.8c0.6,0,1.1-0.2,1.5-0.6c0.4-0.4,0.6-0.9,0.6-1.5c0-0.6-0.2-1.1-0.6-1.5
		c-0.4-0.4-0.9-0.6-1.5-0.6c-0.6,0-1.1,0.2-1.5,0.6c-0.4,0.4-0.6,0.9-0.6,1.5c0,0.6,0.2,1.1,0.6,1.5S158.6,124.8,159.2,124.8z"/>
	<path class="st1" d="M177.1,128.6h-9.9v-1.5c0-1.2,0.2-2.2,0.6-3.3c0.4-1,0.9-1.9,1.7-2.7c0.7-0.8,1.7-1.4,2.8-1.9
		c1.1-0.5,2.4-0.7,3.8-0.7c1.2,0,2.3,0.2,3.4,0.6c1,0.4,1.9,0.9,2.7,1.6c0.8,0.7,1.3,1.5,1.8,2.5c0.4,1,0.6,2,0.6,3.2H182
		c0-0.8-0.1-1.6-0.4-2.3c-0.3-0.7-0.7-1.3-1.2-1.8c-0.5-0.5-1.2-0.9-1.9-1.2c-0.8-0.3-1.6-0.4-2.6-0.4c-0.9,0-1.8,0.1-2.5,0.4
		c-0.7,0.3-1.4,0.7-1.9,1.2c-0.5,0.5-0.9,1.1-1.2,1.8c-0.3,0.7-0.4,1.5-0.4,2.3h9.8v13.7c0,0.6-0.1,1.1-0.3,1.6
		c-0.2,0.5-0.5,0.9-0.9,1.3c-0.4,0.4-0.8,0.7-1.3,0.9s-1,0.3-1.6,0.3c-0.6,0-1.1-0.1-1.6-0.3s-0.9-0.5-1.3-0.9
		c-0.4-0.4-0.7-0.8-0.9-1.3c-0.2-0.5-0.3-1-0.3-1.6c0-0.6,0.1-1.1,0.3-1.6c0.2-0.5,0.5-0.9,0.9-1.3c0.4-0.4,0.8-0.7,1.3-0.9
		c0.5-0.2,1-0.3,1.6-0.3c0.6,0,1.1,0.1,1.5,0.2V128.6z M175.5,142.1c0.5,0,1-0.2,1.4-0.6s0.5-0.8,0.5-1.4c0-0.5-0.2-1-0.5-1.3
		c-0.4-0.4-0.8-0.5-1.4-0.5s-1,0.2-1.3,0.5c-0.4,0.4-0.5,0.8-0.5,1.3c0,0.5,0.2,1,0.5,1.4C174.5,141.9,175,142.1,175.5,142.1z"/>
	<path class="st1" d="M188.9,106.6c-0.2,1.3-0.6,2.4-1.2,3.4c-0.5,1-1.3,1.9-2.1,2.6c-0.9,0.7-2,1.3-3.3,1.6s-2.8,0.6-4.6,0.6
		c-1.2,0-2.3-0.1-3.3-0.3c-1-0.2-1.9-0.5-2.7-0.9c-0.7-0.4-1.3-0.9-1.8-1.5c-0.4-0.6-0.6-1.4-0.6-2.2c0-0.7,0.1-1.2,0.4-1.7
		c0.2-0.5,0.5-0.9,0.9-1.2c0.4-0.3,0.8-0.6,1.3-0.7c0.5-0.2,1-0.2,1.5-0.2s1,0.1,1.4,0.2s0.9,0.4,1.2,0.7c0.4,0.3,0.6,0.7,0.9,1.1
		c0.2,0.5,0.3,1,0.3,1.6c0,0.7-0.2,1.3-0.5,1.8c-0.3,0.5-0.6,0.8-1,1c0.2,0.1,0.5,0.2,0.8,0.2c0.3,0.1,0.7,0.1,1.1,0.1
		c1.4,0,2.6-0.1,3.6-0.4c1-0.3,1.9-0.7,2.6-1.3c0.7-0.5,1.3-1.2,1.6-2c0.4-0.8,0.6-1.6,0.8-2.6H188.9z M173.3,111.7
		c0.5,0,1-0.2,1.3-0.5c0.4-0.4,0.5-0.8,0.5-1.3s-0.2-1-0.6-1.3c-0.4-0.4-0.8-0.5-1.4-0.5s-1,0.2-1.3,0.5c-0.3,0.3-0.5,0.8-0.5,1.3
		s0.2,1,0.6,1.3C172.3,111.6,172.8,111.7,173.3,111.7z"/>
	<path class="st1" d="M192.7,144v-17.5c-0.2,0.1-0.5,0.2-0.7,0.2c-0.3,0-0.5,0-0.8,0c-0.6,0-1.1-0.1-1.6-0.3
		c-0.5-0.2-0.9-0.5-1.3-0.9c-0.4-0.4-0.7-0.8-0.9-1.3c-0.2-0.5-0.3-1-0.3-1.6c0-0.6,0.1-1.1,0.3-1.6c0.2-0.5,0.5-0.9,0.9-1.3
		c0.4-0.4,0.8-0.7,1.3-0.9c0.5-0.2,1-0.3,1.6-0.3c0.6,0,1.1,0.1,1.6,0.3c0.5,0.2,0.9,0.5,1.3,0.9c0.4,0.4,0.7,0.8,0.9,1.3
		c0.2,0.5,0.3,1,0.3,1.6v19.1h11.8v-22.9h2.5V144H192.7z M191.2,124.5c0.5,0,1-0.2,1.3-0.5c0.3-0.4,0.5-0.8,0.5-1.4s-0.2-1-0.5-1.3
		c-0.3-0.4-0.8-0.5-1.3-0.5c-0.5,0-1,0.2-1.4,0.5c-0.4,0.4-0.5,0.8-0.5,1.3s0.2,1,0.5,1.4C190.2,124.4,190.7,124.5,191.2,124.5z"/>
	<path class="st1" d="M233.5,144v-15.7c0-1.1-0.2-2.1-0.5-3.1c-0.3-0.9-0.8-1.7-1.4-2.4c-0.6-0.7-1.4-1.2-2.3-1.5
		c-0.9-0.4-2-0.5-3.3-0.5s-2.4,0.2-3.3,0.5c-0.9,0.4-1.7,0.9-2.3,1.5c-0.6,0.7-1.1,1.5-1.4,2.4c-0.3,0.9-0.5,2-0.5,3.1v12.8l6.8-7
		c-0.4,0-0.8-0.1-1.1-0.3c-0.4-0.2-0.7-0.4-1-0.7c-0.3-0.3-0.5-0.7-0.7-1.1c-0.2-0.4-0.3-0.9-0.3-1.4c0-0.6,0.1-1.1,0.3-1.6
		s0.5-0.9,0.8-1.3c0.3-0.4,0.8-0.6,1.3-0.8c0.5-0.2,1-0.3,1.6-0.3c0.6,0,1.1,0.1,1.6,0.3c0.5,0.2,0.9,0.5,1.3,0.9
		c0.3,0.4,0.6,0.8,0.8,1.3c0.2,0.5,0.3,1,0.3,1.6c0,0.5-0.1,1-0.3,1.6c-0.2,0.5-0.5,1-0.9,1.3l-10,10.5h-2.8v-15.6
		c0-1.5,0.2-2.9,0.7-4.1c0.4-1.2,1.1-2.2,2-3.1c0.9-0.9,1.9-1.5,3.1-2c1.2-0.5,2.6-0.7,4.2-0.7c1.6,0,3,0.2,4.2,0.7
		c1.2,0.5,2.3,1.1,3.1,2c0.9,0.9,1.5,1.9,2,3.1c0.5,1.2,0.7,2.6,0.7,4.1V144H233.5z M226.1,132.3c0.5,0,1-0.2,1.3-0.5
		c0.4-0.4,0.5-0.8,0.5-1.3c0-0.5-0.2-1-0.5-1.3c-0.4-0.4-0.8-0.5-1.3-0.5s-1,0.2-1.4,0.5c-0.4,0.4-0.5,0.8-0.5,1.3
		c0,0.5,0.2,1,0.5,1.3C225.2,132.1,225.6,132.3,226.1,132.3z"/>
	<path class="st1" d="M227.6,157.8v-4c-0.2,0.1-0.4,0.2-0.6,0.2c-0.3,0-0.5,0.1-0.8,0.1c-0.6,0-1.1-0.1-1.6-0.3s-0.9-0.5-1.2-0.8
		c-0.3-0.3-0.5-0.7-0.7-1.2c-0.2-0.4-0.2-0.9-0.2-1.4c0-1.1,0.3-1.9,1-2.6c0.6-0.7,1.5-1,2.7-1c1.2,0,2.2,0.3,2.8,1
		c0.6,0.7,0.9,1.5,0.9,2.7v5.4h3c0.2,0,0.4-0.1,0.6-0.2c0.2-0.1,0.2-0.3,0.2-0.5V147h2.3v8.2c0,0.7-0.2,1.4-0.7,1.9
		c-0.5,0.5-1.2,0.8-2.2,0.8H227.6z M227.8,150.4c0-0.5-0.1-0.8-0.4-1.1c-0.3-0.3-0.7-0.5-1.3-0.5c-0.5,0-0.9,0.2-1.2,0.5
		c-0.3,0.3-0.4,0.7-0.4,1.1c0,0.5,0.1,0.8,0.4,1.1c0.3,0.3,0.7,0.5,1.2,0.5c0.5,0,0.9-0.2,1.2-0.5
		C227.7,151.2,227.8,150.8,227.8,150.4z"/>
	<path class="st1" d="M258.5,144v-9.9c0-0.7-0.1-1.3-0.4-1.9c-0.3-0.6-0.7-1.1-1.3-1.6s-1.3-0.8-2.1-1.1c-0.8-0.3-1.8-0.4-2.9-0.4
		c-1,0-1.8,0.1-2.6,0.4c-0.7,0.3-1.4,0.6-1.9,1.1c-0.5,0.5-0.9,1-1.1,1.7c-0.3,0.7-0.4,1.4-0.4,2.2v1.9c0.2-0.1,0.5-0.2,0.7-0.2
		c0.2,0,0.5,0,0.8,0c0.6,0,1.1,0.1,1.6,0.3c0.5,0.2,0.9,0.5,1.3,0.9c0.4,0.4,0.7,0.8,0.9,1.3c0.2,0.5,0.3,1,0.3,1.6
		c0,0.6-0.1,1.1-0.3,1.6c-0.2,0.5-0.5,0.9-0.9,1.3c-0.4,0.4-0.8,0.7-1.3,0.9c-0.5,0.2-1,0.3-1.6,0.3c-0.6,0-1.1-0.1-1.6-0.3
		c-0.5-0.2-0.9-0.5-1.3-0.9c-0.4-0.4-0.6-0.8-0.8-1.3c-0.2-0.5-0.3-1-0.3-1.6v-5.8c0-1.1,0.2-2.1,0.6-3c0.4-0.9,1-1.7,1.8-2.4
		c0.8-0.7,1.7-1.2,2.7-1.6c1-0.4,2.2-0.6,3.5-0.6c1.5,0,2.8,0.2,3.9,0.7c1,0.4,2,1.1,2.8,1.9v-3.5c0-0.7-0.2-1.4-0.5-2
		c-0.3-0.6-0.8-1.2-1.3-1.6c-0.6-0.5-1.3-0.8-2.2-1.1c-0.9-0.3-1.8-0.4-3-0.4c-1.4,0-2.5,0.1-3.4,0.4s-1.7,0.7-2.3,1.2s-1,1-1.3,1.6
		c-0.3,0.6-0.5,1.2-0.5,1.9h-2.4c0-1,0.3-1.9,0.8-2.8c0.5-0.9,1.1-1.7,2-2.3c0.8-0.7,1.9-1.2,3.1-1.6c1.2-0.4,2.6-0.6,4.1-0.6
		c1.1,0,2.1,0.1,3,0.3c0.9,0.2,1.8,0.5,2.5,0.9l3.7-3.7l1.8,1.6l-3.5,3.3c1.4,1.3,2.1,2.9,2.1,5v18H258.5z M247.3,142.1
		c0.5,0,1-0.2,1.4-0.6s0.5-0.8,0.5-1.4c0-0.5-0.2-1-0.5-1.3c-0.4-0.4-0.8-0.5-1.4-0.5s-1,0.2-1.3,0.5c-0.4,0.4-0.5,0.8-0.5,1.3
		c0,0.5,0.2,1,0.5,1.4C246.3,141.9,246.8,142.1,247.3,142.1z"/>
	<path class="st1" d="M267.1,106.6c-0.2,1.3-0.6,2.4-1.2,3.4c-0.5,1-1.3,1.9-2.1,2.6c-0.9,0.7-2,1.3-3.3,1.6s-2.8,0.6-4.6,0.6
		c-1.2,0-2.3-0.1-3.3-0.3c-1-0.2-1.9-0.5-2.7-0.9c-0.7-0.4-1.3-0.9-1.8-1.5c-0.4-0.6-0.6-1.4-0.6-2.2c0-0.7,0.1-1.2,0.4-1.7
		c0.2-0.5,0.5-0.9,0.9-1.2c0.4-0.3,0.8-0.6,1.3-0.7c0.5-0.2,1-0.2,1.5-0.2s1,0.1,1.4,0.2s0.9,0.4,1.2,0.7c0.4,0.3,0.6,0.7,0.9,1.1
		c0.2,0.5,0.3,1,0.3,1.6c0,0.7-0.2,1.3-0.5,1.8c-0.3,0.5-0.6,0.8-1,1c0.2,0.1,0.5,0.2,0.8,0.2c0.3,0.1,0.7,0.1,1.1,0.1
		c1.4,0,2.6-0.1,3.6-0.4c1-0.3,1.9-0.7,2.6-1.3c0.7-0.5,1.3-1.2,1.6-2c0.4-0.8,0.6-1.6,0.8-2.6H267.1z M251.5,111.7
		c0.5,0,1-0.2,1.3-0.5c0.4-0.4,0.5-0.8,0.5-1.3s-0.2-1-0.6-1.3c-0.4-0.4-0.8-0.5-1.4-0.5s-1,0.2-1.3,0.5c-0.3,0.3-0.5,0.8-0.5,1.3
		s0.2,1,0.6,1.3C250.5,111.6,251,111.7,251.5,111.7z"/>
	<path class="st1" d="M285,144v-16.2c0-1.8-0.3-3.3-0.9-4.5c-0.6-1.2-1.7-2-3.1-2.4l-3.5,2.5l-3.4-2.5c-1.4,0.4-2.4,1.2-3.1,2.4
		c-0.6,1.2-1,2.7-1,4.5v13.4l6.8-6.6c-0.4,0-0.8-0.1-1.2-0.3c-0.4-0.2-0.7-0.4-1-0.7s-0.5-0.6-0.7-1.1c-0.2-0.4-0.3-0.9-0.3-1.4
		c0-0.6,0.1-1.1,0.3-1.6s0.5-0.9,0.8-1.3c0.3-0.4,0.8-0.6,1.3-0.8c0.5-0.2,1-0.3,1.6-0.3c0.6,0,1.1,0.1,1.6,0.3
		c0.5,0.2,0.9,0.5,1.3,0.9c0.3,0.4,0.6,0.8,0.8,1.3c0.2,0.5,0.3,1,0.3,1.6c0,0.6-0.1,1.1-0.3,1.7s-0.5,1-0.9,1.4l-10,9.9h-2.8v-16.1
		c0-1.2,0.1-2.3,0.4-3.4c0.3-1,0.7-2,1.3-2.8c0.6-0.8,1.3-1.5,2.1-2c0.8-0.5,1.8-0.9,2.9-1.2l3.2,2.4l3.2-2.4
		c1.1,0.2,2.1,0.6,2.9,1.2c0.8,0.6,1.5,1.2,2.1,2c0.6,0.8,1,1.7,1.3,2.8c0.3,1,0.4,2.2,0.4,3.4V144H285z M277.6,132.8
		c0.5,0,1-0.2,1.3-0.5c0.4-0.4,0.5-0.8,0.5-1.3c0-0.5-0.2-1-0.5-1.3c-0.4-0.4-0.8-0.5-1.3-0.5s-1,0.2-1.4,0.5
		c-0.4,0.4-0.5,0.8-0.5,1.3c0,0.5,0.2,1,0.5,1.3C276.6,132.6,277,132.8,277.6,132.8z"/>
	<path class="st1" d="M306.2,126.3c0-0.8-0.1-1.6-0.4-2.3c-0.3-0.7-0.6-1.3-1.1-1.8c-0.5-0.5-1.1-0.9-1.9-1.1
		c-0.7-0.3-1.6-0.4-2.6-0.4c-1,0-1.8,0.2-2.6,0.5c-0.7,0.3-1.4,0.8-1.9,1.3c-0.5,0.6-0.9,1.2-1.2,2c-0.3,0.8-0.4,1.6-0.4,2.5h-2.5
		c0-1.2,0.2-2.3,0.6-3.3c0.4-1,0.9-1.9,1.7-2.7c0.7-0.8,1.6-1.4,2.7-1.8s2.2-0.7,3.6-0.7c1.4,0,2.7,0.2,3.7,0.5
		c1.1,0.4,1.9,0.9,2.7,1.5c0.7,0.7,1.3,1.5,1.6,2.4c0.4,1,0.5,2,0.5,3.2v13.9c0,0.6-0.1,1.1-0.3,1.6c-0.2,0.5-0.5,0.9-0.9,1.3
		c-0.4,0.4-0.8,0.7-1.3,0.9c-0.5,0.2-1,0.3-1.6,0.3s-1.1-0.1-1.6-0.3c-0.5-0.2-0.9-0.5-1.3-0.9c-0.4-0.4-0.7-0.8-0.9-1.3
		c-0.2-0.5-0.3-1-0.3-1.6c0-0.6,0.1-1.1,0.3-1.6c0.2-0.5,0.5-0.9,0.9-1.3c0.4-0.4,0.8-0.7,1.3-0.9c0.5-0.2,1-0.3,1.6-0.3
		c0.3,0,0.6,0,0.8,0c0.3,0,0.5,0.1,0.8,0.2V126.3z M304.7,142.1c0.5,0,1-0.2,1.4-0.6c0.4-0.4,0.5-0.8,0.5-1.4c0-0.5-0.2-1-0.5-1.3
		c-0.4-0.4-0.8-0.5-1.4-0.5s-1,0.2-1.4,0.5c-0.4,0.4-0.6,0.8-0.6,1.3c0,0.5,0.2,1,0.6,1.4S304.1,142.1,304.7,142.1z"/>
	<path class="st1" d="M304.1,106.8c0.4,0.3,0.8,0.7,1,1.1c0.3,0.4,0.4,1,0.4,1.7c0,1.1-0.3,2-1,2.6c-0.7,0.6-1.6,1-2.8,1
		c-0.6,0-1.1-0.1-1.5-0.3c-0.4-0.2-0.8-0.5-1.1-0.8c-0.3-0.3-0.5-0.7-0.7-1.2c-0.2-0.5-0.2-0.9-0.2-1.5c0-0.8,0.2-1.5,0.7-2.1
		c0.4-0.6,1-1.1,1.8-1.5l8.4-4l1.1,2.1L304.1,106.8z M301.8,111.2c0.5,0,0.9-0.2,1.2-0.5c0.3-0.3,0.4-0.7,0.4-1.2
		c0-0.5-0.1-0.8-0.4-1.2c-0.3-0.3-0.7-0.5-1.3-0.5c-0.5,0-0.9,0.2-1.2,0.5c-0.3,0.3-0.4,0.7-0.4,1.2c0,0.5,0.1,0.9,0.4,1.2
		C300.8,111.1,301.2,111.2,301.8,111.2z"/>
	<path class="st1" d="M333.1,144v-20.5c0-0.8-0.2-1.4-0.7-1.9c-0.4-0.5-1.1-0.7-1.8-0.7c-0.6,0-1.1,0.2-1.5,0.5
		c-0.4,0.3-0.7,0.7-0.9,1.3l-7.1,21.4h-2.4v-17.5c-0.2,0.1-0.5,0.2-0.7,0.2c-0.3,0-0.5,0-0.8,0c-0.6,0-1.1-0.1-1.6-0.3
		c-0.5-0.2-0.9-0.5-1.3-0.9c-0.4-0.4-0.7-0.8-0.9-1.3c-0.2-0.5-0.3-1-0.3-1.6c0-0.6,0.1-1.1,0.3-1.6c0.2-0.5,0.5-0.9,0.9-1.3
		c0.4-0.4,0.8-0.7,1.3-0.9c0.5-0.2,1-0.3,1.6-0.3c0.6,0,1.1,0.1,1.6,0.3c0.5,0.2,0.9,0.5,1.3,0.9c0.4,0.4,0.7,0.8,0.9,1.3
		c0.2,0.5,0.3,1,0.3,1.6V137c0.8-2.4,1.6-4.9,2.4-7.3c0.8-2.4,1.6-4.9,2.4-7.3c0.4-1.4,1-2.3,1.7-2.9c0.7-0.6,1.7-0.9,2.9-0.9
		c0.7,0,1.4,0.1,2.1,0.4c0.6,0.2,1.2,0.6,1.6,1c0.4,0.4,0.8,0.9,1,1.5c0.2,0.6,0.4,1.3,0.4,2V144H333.1z M317.2,124.6
		c0.5,0,1-0.2,1.3-0.6s0.5-0.8,0.5-1.4c0-0.5-0.2-1-0.5-1.4s-0.8-0.5-1.3-0.5c-0.5,0-1,0.2-1.4,0.5s-0.5,0.8-0.5,1.4
		c0,0.5,0.2,1,0.5,1.4S316.7,124.6,317.2,124.6z"/>
	<path class="st1" d="M333.6,113.8c-1.7-0.6-3.3-1.1-4.8-1.5c-1.5-0.4-2.9-0.7-4.2-0.9c-1.3-0.2-2.5-0.4-3.6-0.4
		c-1.1-0.1-2.1-0.1-3.1-0.2c-0.5,0-0.8,0-1.2,0s-0.6,0-0.8,0c-0.2,0-0.4,0-0.6,0c-0.2,0-0.4,0-0.6,0.1c0.4-1.1,1-2.2,1.6-3.1
		c0.7-0.9,1.4-1.7,2.3-2.3c0.9-0.6,1.8-1.1,2.9-1.4c1.1-0.3,2.2-0.5,3.4-0.5c3.3,0,6,1.3,8.1,4v-6h2.4v12.8L333.6,113.8z
		 M333.1,111.4c-0.9-1.9-1.9-3.3-3.2-4.2c-1.3-0.9-2.8-1.4-4.8-1.4c-0.7,0-1.5,0.1-2.2,0.2c-0.7,0.1-1.3,0.3-1.9,0.6
		c-0.6,0.3-1.1,0.6-1.6,1c-0.5,0.4-0.9,0.8-1.2,1.3c1.3,0,2.6,0,3.8,0.1c1.2,0.1,2.4,0.2,3.6,0.4c1.2,0.2,2.4,0.5,3.6,0.8
		C330.4,110.5,331.7,110.9,333.1,111.4z"/>
	<path class="st1" d="M333.3,99.5V92h2.4v7.5H333.3z"/>
	<path class="st1" d="M359.6,144l-10.7-4.6v0.8c0,0.6-0.1,1.1-0.3,1.6c-0.2,0.5-0.5,0.9-0.9,1.3c-0.4,0.4-0.8,0.7-1.3,0.9
		c-0.5,0.2-1,0.3-1.6,0.3c-0.6,0-1.1-0.1-1.6-0.3c-0.5-0.2-0.9-0.5-1.3-0.9c-0.4-0.4-0.7-0.8-0.9-1.3c-0.2-0.5-0.3-1-0.3-1.6
		c0-0.6,0.1-1.1,0.3-1.6c0.2-0.5,0.5-0.9,0.9-1.3c0.4-0.4,0.8-0.7,1.3-0.9c0.5-0.2,1-0.3,1.6-0.3c0.3,0,0.6,0,0.8,0
		c0.3,0,0.5,0.1,0.7,0.2v-9.9c-0.2,0.1-0.5,0.2-0.7,0.2c-0.3,0-0.5,0-0.8,0c-0.6,0-1.1-0.1-1.6-0.3c-0.5-0.2-0.9-0.5-1.3-0.9
		c-0.4-0.4-0.7-0.8-0.9-1.3c-0.2-0.5-0.3-1-0.3-1.6c0-0.6,0.1-1.1,0.3-1.6c0.2-0.5,0.5-0.9,0.9-1.3c0.4-0.4,0.8-0.7,1.3-0.9
		c0.5-0.2,1-0.3,1.6-0.3c0.6,0,1.1,0.1,1.6,0.3c0.5,0.2,0.9,0.5,1.3,0.9c0.4,0.4,0.7,0.8,0.9,1.3c0.2,0.5,0.3,1,0.3,1.6v14.5
		l10.6,4.4v-22.7h2.5V144H359.6z M344.8,124.5c0.5,0,1-0.2,1.3-0.5c0.4-0.4,0.5-0.8,0.5-1.4s-0.2-1-0.5-1.3
		c-0.4-0.4-0.8-0.5-1.3-0.5s-1,0.2-1.4,0.5c-0.4,0.4-0.5,0.8-0.5,1.3s0.2,1,0.5,1.4C343.9,124.4,344.3,124.5,344.8,124.5z
		 M344.8,142.1c0.5,0,1-0.2,1.3-0.6c0.4-0.4,0.5-0.8,0.5-1.4c0-0.5-0.2-1-0.5-1.3c-0.4-0.4-0.8-0.5-1.3-0.5s-1,0.2-1.4,0.5
		c-0.4,0.4-0.5,0.8-0.5,1.3c0,0.5,0.2,1,0.5,1.4C343.9,141.9,344.3,142.1,344.8,142.1z"/>
	<path class="st1" d="M380.8,144v-17.2c0-0.8-0.1-1.6-0.3-2.3c-0.2-0.7-0.5-1.4-1-1.9c-0.5-0.5-1-1-1.8-1.3
		c-0.7-0.3-1.6-0.5-2.6-0.5c-0.9,0-1.8,0.1-2.4,0.4c-0.7,0.3-1.2,0.6-1.7,1.1c-0.5,0.5-0.8,1-1.1,1.6c-0.3,0.6-0.4,1.3-0.5,2h-2.5
		c0.1-1.1,0.3-2.1,0.7-3c0.4-0.9,0.9-1.7,1.6-2.3c0.7-0.7,1.5-1.2,2.5-1.5c1-0.4,2.1-0.5,3.5-0.5c1.4,0,2.7,0.2,3.7,0.6
		c1,0.4,1.9,1,2.5,1.7c0.7,0.7,1.1,1.6,1.5,2.6c0.3,1,0.5,2.1,0.5,3.3V144H380.8z"/>
	<path class="st1" d="M406,144v-16.1c0-1.1-0.2-2-0.6-2.9c-0.4-0.9-0.9-1.6-1.6-2.2c-0.7-0.6-1.5-1.1-2.4-1.4
		c-0.9-0.3-1.9-0.5-3-0.5c-1.7,0-3.1,0.4-4.4,1.2c-1.2,0.8-2.2,1.9-2.8,3.2l2.3,2.7V144h-2.5v-15.5l-2.5-2.9c0.3-1.1,0.7-2,1.3-2.9
		c0.6-0.9,1.3-1.6,2.2-2.2c0.9-0.6,1.8-1.1,2.9-1.4c1.1-0.3,2.3-0.5,3.6-0.5c1.5,0,2.9,0.2,4.2,0.7c1.3,0.5,2.3,1.1,3.2,2
		c0.9,0.8,1.6,1.8,2.1,3s0.7,2.5,0.7,3.9V144H406z"/>
	<path class="st1" d="M406.5,113.8c-1.7-0.6-3.3-1.1-4.8-1.5c-1.5-0.4-2.9-0.7-4.2-0.9c-1.3-0.2-2.5-0.4-3.6-0.5
		c-1.1-0.1-2.1-0.1-3.1-0.1c-0.5,0-0.8,0-1.2,0c-0.3,0-0.6,0-0.8,0c-0.2,0-0.4,0-0.6,0c-0.2,0-0.4,0-0.6,0.1c0.4-1.1,1-2.2,1.6-3.1
		c0.7-0.9,1.4-1.7,2.3-2.3c0.9-0.6,1.8-1.1,2.9-1.4c1.1-0.3,2.2-0.5,3.4-0.5c1.5,0,2.8,0.3,4.1,0.8c1.2,0.5,2.3,1.3,3.2,2.2
		c0.9,1,1.6,2.1,2.2,3.4c0.6,1.3,0.9,2.8,1,4.4L406.5,113.8z M405.9,111.4c-0.9-1.9-1.9-3.3-3.2-4.2c-1.3-0.9-2.8-1.4-4.8-1.4
		c-0.7,0-1.5,0.1-2.2,0.2c-0.7,0.1-1.3,0.3-1.9,0.6c-0.6,0.3-1.1,0.6-1.6,1c-0.5,0.4-0.9,0.8-1.2,1.3c1.3,0,2.6,0,3.8,0.1
		c1.2,0.1,2.4,0.2,3.6,0.4c1.2,0.2,2.4,0.5,3.6,0.8C403.2,110.5,404.5,110.9,405.9,111.4z"/>
	<path class="st1" d="M429.8,140l-8.7,4h-2.7v-17.5c-0.2,0.1-0.5,0.2-0.7,0.2c-0.3,0-0.5,0-0.8,0c-0.6,0-1.1-0.1-1.6-0.3
		c-0.5-0.2-0.9-0.5-1.3-0.9c-0.4-0.4-0.7-0.8-0.9-1.3c-0.2-0.5-0.3-1-0.3-1.6c0-0.6,0.1-1.1,0.3-1.6c0.2-0.5,0.5-0.9,0.9-1.3
		c0.4-0.4,0.8-0.7,1.3-0.9c0.5-0.2,1-0.3,1.6-0.3c0.6,0,1.1,0.1,1.6,0.3c0.5,0.2,0.9,0.5,1.3,0.9c0.4,0.4,0.7,0.8,0.9,1.3
		c0.2,0.5,0.3,1,0.3,1.6v19l11.5-5.1v-17.7h2.5v17.9c0.8,0.3,1.4,0.8,1.9,1.4c0.5,0.7,0.7,1.4,0.7,2.3c0,0.6-0.1,1.1-0.3,1.6
		c-0.2,0.5-0.5,0.9-0.8,1.2c-0.3,0.4-0.8,0.6-1.2,0.8c-0.5,0.2-1,0.3-1.5,0.3c-0.6,0-1.1-0.1-1.5-0.3c-0.5-0.2-0.9-0.4-1.2-0.8
		c-0.3-0.3-0.6-0.7-0.8-1.2c-0.2-0.5-0.3-1-0.3-1.5V140z M417,124.6c0.5,0,1-0.2,1.3-0.6s0.5-0.8,0.5-1.4c0-0.5-0.2-1-0.5-1.4
		s-0.8-0.5-1.3-0.5c-0.5,0-1,0.2-1.4,0.5c-0.4,0.4-0.5,0.8-0.5,1.4c0,0.5,0.2,1,0.5,1.4C415.9,124.4,416.4,124.6,417,124.6z
		 M433.8,142.2c0.5,0,0.9-0.2,1.2-0.5c0.3-0.3,0.5-0.7,0.5-1.2c0-0.5-0.2-0.9-0.5-1.2c-0.3-0.3-0.7-0.5-1.2-0.5
		c-0.5,0-0.9,0.2-1.2,0.5c-0.3,0.3-0.5,0.7-0.5,1.2c0,0.5,0.2,0.9,0.5,1.2C432.9,142,433.3,142.2,433.8,142.2z"/>
	<path class="st1" d="M456.6,140l-8.7,4h-2.7v-17.5c-0.2,0.1-0.5,0.2-0.7,0.2c-0.3,0-0.5,0-0.8,0c-0.6,0-1.1-0.1-1.6-0.3
		c-0.5-0.2-0.9-0.5-1.3-0.9c-0.4-0.4-0.7-0.8-0.9-1.3c-0.2-0.5-0.3-1-0.3-1.6c0-0.6,0.1-1.1,0.3-1.6c0.2-0.5,0.5-0.9,0.9-1.3
		c0.4-0.4,0.8-0.7,1.3-0.9c0.5-0.2,1-0.3,1.6-0.3c0.6,0,1.1,0.1,1.6,0.3c0.5,0.2,0.9,0.5,1.3,0.9c0.4,0.4,0.7,0.8,0.9,1.3
		c0.2,0.5,0.3,1,0.3,1.6v19l11.5-5.1v-17.7h2.5v17.9c0.8,0.3,1.4,0.8,1.9,1.4c0.5,0.7,0.7,1.4,0.7,2.3c0,0.6-0.1,1.1-0.3,1.6
		c-0.2,0.5-0.5,0.9-0.8,1.2c-0.3,0.4-0.8,0.6-1.2,0.8c-0.5,0.2-1,0.3-1.5,0.3c-0.6,0-1.1-0.1-1.5-0.3c-0.5-0.2-0.9-0.4-1.2-0.8
		c-0.3-0.3-0.6-0.7-0.8-1.2c-0.2-0.5-0.3-1-0.3-1.5V140z M443.7,124.6c0.5,0,1-0.2,1.3-0.6s0.5-0.8,0.5-1.4c0-0.5-0.2-1-0.5-1.4
		s-0.8-0.5-1.3-0.5c-0.5,0-1,0.2-1.4,0.5c-0.4,0.4-0.5,0.8-0.5,1.4c0,0.5,0.2,1,0.5,1.4C442.7,124.4,443.2,124.6,443.7,124.6z
		 M460.5,142.2c0.5,0,0.9-0.2,1.2-0.5c0.3-0.3,0.5-0.7,0.5-1.2c0-0.5-0.2-0.9-0.5-1.2c-0.3-0.3-0.7-0.5-1.2-0.5
		c-0.5,0-0.9,0.2-1.2,0.5c-0.3,0.3-0.5,0.7-0.5,1.2c0,0.5,0.2,0.9,0.5,1.2C459.6,142,460,142.2,460.5,142.2z"/>
	<path class="st1" d="M464.8,110.2c0,0.6-0.1,1.1-0.3,1.5c-0.2,0.5-0.5,0.9-0.8,1.2s-0.8,0.6-1.2,0.8s-1,0.3-1.7,0.3
		c-0.6,0-1.2-0.1-1.7-0.3s-0.9-0.5-1.2-0.8s-0.6-0.7-0.8-1.2c-0.2-0.5-0.3-1-0.3-1.5c0-0.5,0.1-1,0.3-1.5c0.2-0.5,0.5-0.9,0.8-1.2
		c0.3-0.4,0.8-0.6,1.2-0.8c0.5-0.2,1-0.3,1.6-0.3c0.6,0,1.1,0.1,1.6,0.3s0.9,0.5,1.3,0.8s0.6,0.7,0.8,1.2
		C464.7,109.1,464.8,109.6,464.8,110.2z M460.8,111.9c0.6,0,1.1-0.2,1.3-0.5c0.3-0.4,0.4-0.8,0.4-1.2c0-0.5-0.1-0.9-0.4-1.2
		c-0.3-0.3-0.7-0.5-1.3-0.5c-0.5,0-1,0.2-1.2,0.5c-0.3,0.3-0.4,0.7-0.4,1.2c0,0.5,0.1,0.9,0.4,1.2
		C459.9,111.8,460.3,111.9,460.8,111.9z"/>
	<path class="st1" d="M453.8,97.7c0.4-0.3,0.7-0.7,1-1c0.3-0.3,0.5-0.7,0.7-1.1h-0.8c-0.6,0-1-0.1-1.5-0.3c-0.4-0.2-0.8-0.5-1-0.8
		c-0.3-0.3-0.5-0.7-0.6-1.1c-0.1-0.4-0.2-0.8-0.2-1.3c0-1.1,0.3-1.9,0.9-2.6c0.6-0.7,1.5-1,2.6-1c0.7,0,1.2,0.1,1.7,0.3
		c0.5,0.2,0.8,0.5,1.1,0.8c0.3,0.3,0.5,0.8,0.6,1.2c0.1,0.5,0.2,1,0.2,1.5c0,0.9-0.2,1.8-0.5,2.7c-0.4,0.9-0.8,1.7-1.3,2.3
		c1.1-0.1,2.1-0.4,3.1-0.8c0.9-0.4,1.7-1,2.4-1.7c0.7-0.7,1.2-1.6,1.5-2.5s0.5-2.1,0.5-3.2h2.4c0,1.8-0.3,3.3-1,4.6
		c-0.6,1.3-1.5,2.4-2.6,3.2c-1.1,0.9-2.3,1.5-3.7,1.9c-1.4,0.4-2.8,0.6-4.3,0.6c-0.4,0-0.6,0-0.7,0c-0.1,0-0.3,0-0.4,0V97.7z
		 M454.9,93.7c0.5,0,0.9-0.2,1.2-0.5c0.3-0.3,0.5-0.7,0.5-1.2c0-0.5-0.1-0.9-0.4-1.2c-0.3-0.3-0.7-0.5-1.2-0.5s-1,0.2-1.3,0.5
		c-0.3,0.4-0.5,0.8-0.5,1.2c0,0.5,0.2,0.9,0.5,1.2C454.1,93.6,454.5,93.7,454.9,93.7z"/>
	<path class="st1" d="M480.7,144v-17.2c0-0.8-0.1-1.6-0.3-2.3c-0.2-0.7-0.5-1.4-1-1.9c-0.5-0.5-1-1-1.8-1.3
		c-0.7-0.3-1.6-0.5-2.6-0.5c-0.9,0-1.8,0.1-2.4,0.4c-0.7,0.3-1.2,0.6-1.7,1.1c-0.5,0.5-0.8,1-1.1,1.6c-0.3,0.6-0.4,1.3-0.5,2h-2.5
		c0.1-1.1,0.3-2.1,0.7-3c0.4-0.9,0.9-1.7,1.6-2.3c0.7-0.7,1.5-1.2,2.5-1.5c1-0.4,2.1-0.5,3.5-0.5c1.4,0,2.7,0.2,3.7,0.6
		c1,0.4,1.9,1,2.5,1.7c0.7,0.7,1.1,1.6,1.5,2.6c0.3,1,0.5,2.1,0.5,3.3V144H480.7z"/>
	<path class="st1" d="M493.2,144v-17.5c-0.2,0.1-0.5,0.2-0.7,0.2c-0.3,0-0.5,0-0.8,0c-0.6,0-1.1-0.1-1.6-0.3
		c-0.5-0.2-0.9-0.5-1.3-0.9c-0.4-0.4-0.7-0.8-0.9-1.3c-0.2-0.5-0.3-1-0.3-1.6c0-0.6,0.1-1.1,0.3-1.6c0.2-0.5,0.5-0.9,0.9-1.3
		c0.4-0.4,0.8-0.7,1.3-0.9c0.5-0.2,1-0.3,1.6-0.3c0.6,0,1.1,0.1,1.6,0.3c0.5,0.2,0.9,0.5,1.3,0.9c0.4,0.4,0.7,0.8,0.9,1.3
		c0.2,0.5,0.3,1,0.3,1.6v19.1h11.8v-22.9h2.5V144H493.2z M491.6,124.5c0.5,0,1-0.2,1.3-0.5c0.3-0.4,0.5-0.8,0.5-1.4s-0.2-1-0.5-1.3
		c-0.3-0.4-0.8-0.5-1.3-0.5c-0.5,0-1,0.2-1.4,0.5c-0.4,0.4-0.5,0.8-0.5,1.3s0.2,1,0.5,1.4C490.6,124.4,491.1,124.5,491.6,124.5z"/>
	<path class="st1" d="M524.7,128.6h-9.9v-1.5c0-1.2,0.2-2.2,0.6-3.3c0.4-1,0.9-1.9,1.7-2.7s1.7-1.4,2.8-1.9c1.1-0.5,2.4-0.7,3.8-0.7
		c1.2,0,2.3,0.2,3.4,0.6c1,0.4,1.9,0.9,2.7,1.6c0.8,0.7,1.3,1.5,1.8,2.5c0.4,1,0.6,2,0.6,3.2h-2.5c0-0.8-0.1-1.6-0.4-2.3
		c-0.3-0.7-0.7-1.3-1.2-1.8c-0.5-0.5-1.2-0.9-1.9-1.2c-0.8-0.3-1.6-0.4-2.6-0.4c-0.9,0-1.8,0.1-2.5,0.4c-0.7,0.3-1.4,0.7-1.9,1.2
		c-0.5,0.5-0.9,1.1-1.2,1.8c-0.3,0.7-0.4,1.5-0.4,2.3h9.8v13.7c0,0.6-0.1,1.1-0.3,1.6c-0.2,0.5-0.5,0.9-0.9,1.3
		c-0.4,0.4-0.8,0.7-1.3,0.9s-1,0.3-1.6,0.3c-0.6,0-1.1-0.1-1.6-0.3s-0.9-0.5-1.3-0.9c-0.4-0.4-0.7-0.8-0.9-1.3
		c-0.2-0.5-0.3-1-0.3-1.6c0-0.6,0.1-1.1,0.3-1.6c0.2-0.5,0.5-0.9,0.9-1.3c0.4-0.4,0.8-0.7,1.3-0.9c0.5-0.2,1-0.3,1.6-0.3
		c0.6,0,1.1,0.1,1.5,0.2V128.6z M523.1,142.1c0.5,0,1-0.2,1.4-0.6c0.4-0.4,0.5-0.8,0.5-1.4c0-0.5-0.2-1-0.5-1.3
		c-0.4-0.4-0.8-0.5-1.4-0.5s-1,0.2-1.3,0.5c-0.3,0.4-0.5,0.8-0.5,1.3c0,0.5,0.2,1,0.5,1.4S522.6,142.1,523.1,142.1z"/>
	<path class="st1" d="M528.3,113.8c-1.7-0.6-3.3-1.1-4.8-1.5c-1.5-0.4-2.9-0.7-4.2-0.9c-1.3-0.2-2.5-0.4-3.6-0.5
		c-1.1-0.1-2.1-0.1-3.1-0.1c-0.5,0-0.8,0-1.2,0c-0.3,0-0.6,0-0.8,0c-0.2,0-0.4,0-0.6,0c-0.2,0-0.4,0-0.6,0.1c0.4-1.1,1-2.2,1.6-3.1
		c0.7-0.9,1.4-1.7,2.3-2.3c0.9-0.6,1.8-1.1,2.9-1.4c1.1-0.3,2.2-0.5,3.4-0.5c1.5,0,2.8,0.3,4.1,0.8c1.2,0.5,2.3,1.3,3.2,2.2
		c0.9,1,1.6,2.1,2.2,3.4c0.6,1.3,0.9,2.8,1,4.4L528.3,113.8z M527.8,111.4c-0.9-1.9-1.9-3.3-3.2-4.2c-1.3-0.9-2.8-1.4-4.8-1.4
		c-0.7,0-1.5,0.1-2.2,0.2c-0.7,0.1-1.3,0.3-1.9,0.6c-0.6,0.3-1.1,0.6-1.6,1c-0.5,0.4-0.9,0.8-1.2,1.3c1.3,0,2.6,0,3.8,0.1
		c1.2,0.1,2.4,0.2,3.6,0.4c1.2,0.2,2.4,0.5,3.6,0.8C525.1,110.5,526.4,110.9,527.8,111.4z"/>
	<path class="st1" d="M537.7,118.9h2.5v17.5c0.2-0.1,0.5-0.2,0.7-0.2c0.3,0,0.5,0,0.8,0c0.6,0,1.1,0.1,1.6,0.3
		c0.5,0.2,0.9,0.5,1.3,0.9c0.4,0.4,0.7,0.8,0.9,1.3c0.2,0.5,0.3,1,0.3,1.6c0,0.6-0.1,1.1-0.3,1.6c-0.2,0.5-0.5,0.9-0.9,1.3
		c-0.4,0.4-0.8,0.7-1.3,0.9c-0.5,0.2-1,0.3-1.6,0.3c-0.6,0-1.1-0.1-1.6-0.3s-0.9-0.5-1.3-0.9c-0.4-0.4-0.7-0.8-0.9-1.3
		c-0.2-0.5-0.3-1-0.3-1.6V118.9z M541.8,142.1c0.5,0,1-0.2,1.3-0.6s0.5-0.8,0.5-1.4c0-0.5-0.2-1-0.5-1.3c-0.4-0.4-0.8-0.5-1.3-0.5
		c-0.5,0-1,0.2-1.3,0.5c-0.3,0.4-0.5,0.8-0.5,1.3c0,0.5,0.2,1,0.5,1.4C540.8,141.9,541.2,142.1,541.8,142.1z"/>
	<path class="st1" d="M562,126.3c0-0.8-0.1-1.6-0.4-2.3c-0.3-0.7-0.6-1.3-1.1-1.8s-1.1-0.9-1.9-1.1c-0.7-0.3-1.6-0.4-2.6-0.4
		c-1,0-1.8,0.2-2.6,0.5c-0.7,0.3-1.4,0.8-1.9,1.3c-0.5,0.6-0.9,1.2-1.2,2c-0.3,0.8-0.4,1.6-0.4,2.5h-2.5c0-1.2,0.2-2.3,0.6-3.3
		c0.4-1,0.9-1.9,1.7-2.7c0.7-0.8,1.6-1.4,2.7-1.8c1.1-0.4,2.2-0.7,3.6-0.7c1.4,0,2.7,0.2,3.7,0.5c1.1,0.4,1.9,0.9,2.7,1.5
		c0.7,0.7,1.3,1.5,1.6,2.4c0.4,1,0.5,2,0.5,3.2v13.9c0,0.6-0.1,1.1-0.3,1.6c-0.2,0.5-0.5,0.9-0.9,1.3c-0.4,0.4-0.8,0.7-1.3,0.9
		c-0.5,0.2-1,0.3-1.6,0.3c-0.6,0-1.1-0.1-1.6-0.3s-0.9-0.5-1.3-0.9c-0.4-0.4-0.7-0.8-0.9-1.3c-0.2-0.5-0.3-1-0.3-1.6
		c0-0.6,0.1-1.1,0.3-1.6c0.2-0.5,0.5-0.9,0.9-1.3c0.4-0.4,0.8-0.7,1.3-0.9c0.5-0.2,1-0.3,1.6-0.3c0.3,0,0.6,0,0.8,0
		c0.3,0,0.5,0.1,0.8,0.2V126.3z M560.4,142.1c0.5,0,1-0.2,1.4-0.6c0.4-0.4,0.5-0.8,0.5-1.4c0-0.5-0.2-1-0.5-1.3
		c-0.4-0.4-0.8-0.5-1.4-0.5c-0.5,0-1,0.2-1.4,0.5c-0.4,0.4-0.6,0.8-0.6,1.3c0,0.5,0.2,1,0.6,1.4S559.8,142.1,560.4,142.1z"/>
	<path class="st1" d="M595.5,140.3l-6.6,3.7h-2.3v-16.1c0-1.1-0.2-2.1-0.6-3c-0.4-0.9-0.9-1.6-1.6-2.2c-0.7-0.6-1.4-1.1-2.3-1.4
		c-0.9-0.3-1.9-0.5-2.9-0.5c-1.6,0-3,0.4-4.2,1.2c-1.2,0.8-2,1.9-2.7,3.2l2.3,2.7v8.5c0.2-0.1,0.5-0.2,0.7-0.2c0.3,0,0.5,0,0.8,0
		c0.6,0,1.1,0.1,1.6,0.3c0.5,0.2,0.9,0.5,1.3,0.9c0.4,0.4,0.7,0.8,0.9,1.3c0.2,0.5,0.3,1,0.3,1.6c0,0.6-0.1,1.1-0.3,1.6
		c-0.2,0.5-0.5,0.9-0.9,1.3c-0.4,0.4-0.8,0.7-1.3,0.9s-1,0.3-1.6,0.3s-1.1-0.1-1.6-0.3c-0.5-0.2-0.9-0.5-1.3-0.9
		c-0.4-0.4-0.7-0.8-0.9-1.3c-0.2-0.5-0.3-1-0.3-1.6v-11.7l-2.5-2.9c0.3-1.1,0.7-2,1.2-2.9c0.6-0.9,1.2-1.6,2.1-2.2
		c0.8-0.6,1.8-1.1,2.8-1.4c1.1-0.3,2.2-0.5,3.5-0.5c1.5,0,2.9,0.2,4.1,0.7s2.3,1.1,3.1,1.9c0.9,0.8,1.5,1.8,2,3
		c0.5,1.2,0.7,2.5,0.7,4v13.2l9.1-4.8v-17.7h2.5v17.9c0.8,0.3,1.4,0.8,1.9,1.4c0.5,0.7,0.7,1.4,0.7,2.3c0,0.6-0.1,1.1-0.3,1.5
		s-0.5,0.9-0.8,1.2s-0.8,0.6-1.2,0.8s-1,0.3-1.5,0.3s-1.1-0.1-1.5-0.3c-0.5-0.2-0.9-0.4-1.2-0.8c-0.3-0.3-0.6-0.7-0.8-1.2
		c-0.2-0.5-0.3-1-0.3-1.5V140.3z M576.2,142.1c0.5,0,1-0.2,1.4-0.6c0.4-0.4,0.5-0.8,0.5-1.4c0-0.5-0.2-1-0.5-1.3
		c-0.4-0.4-0.8-0.5-1.4-0.5s-1,0.2-1.3,0.5c-0.4,0.4-0.5,0.8-0.5,1.3c0,0.5,0.2,1,0.5,1.4C575.2,141.9,575.7,142.1,576.2,142.1z
		 M599.4,142.1c0.5,0,0.9-0.2,1.2-0.5c0.3-0.3,0.5-0.7,0.5-1.2c0-0.5-0.2-0.9-0.5-1.2c-0.3-0.3-0.7-0.5-1.2-0.5
		c-0.5,0-0.9,0.2-1.2,0.5c-0.3,0.3-0.5,0.7-0.5,1.2c0,0.5,0.2,0.9,0.5,1.2C598.5,142,598.9,142.1,599.4,142.1z"/>
</g>
<g class="st0">
	<path class="st1" d="M11.1,208.6H1.2v-1.5c0-1.2,0.2-2.2,0.6-3.3c0.4-1,0.9-1.9,1.7-2.7c0.7-0.8,1.7-1.4,2.8-1.9
		c1.1-0.5,2.4-0.7,3.8-0.7c1.2,0,2.3,0.2,3.4,0.6c1,0.4,1.9,0.9,2.7,1.6c0.8,0.7,1.3,1.5,1.8,2.5c0.4,1,0.6,2,0.6,3.2h-2.5
		c0-0.8-0.1-1.6-0.4-2.3c-0.3-0.7-0.7-1.3-1.2-1.8c-0.5-0.5-1.2-0.9-1.9-1.2c-0.8-0.3-1.6-0.4-2.6-0.4c-0.9,0-1.8,0.1-2.5,0.4
		c-0.7,0.3-1.4,0.7-1.9,1.2c-0.5,0.5-0.9,1.1-1.2,1.8c-0.3,0.7-0.4,1.5-0.4,2.3h9.8v13.7c0,0.6-0.1,1.1-0.3,1.6
		c-0.2,0.5-0.5,0.9-0.9,1.3c-0.4,0.4-0.8,0.7-1.3,0.9s-1,0.3-1.6,0.3c-0.6,0-1.1-0.1-1.6-0.3s-0.9-0.5-1.3-0.9
		c-0.4-0.4-0.7-0.8-0.9-1.3c-0.2-0.5-0.3-1-0.3-1.6c0-0.6,0.1-1.1,0.3-1.6c0.2-0.5,0.5-0.9,0.9-1.3c0.4-0.4,0.8-0.7,1.3-0.9
		c0.5-0.2,1-0.3,1.6-0.3c0.6,0,1.1,0.1,1.5,0.2V208.6z M9.6,222.1c0.5,0,1-0.2,1.4-0.6s0.5-0.8,0.5-1.4c0-0.5-0.2-1-0.5-1.3
		c-0.4-0.4-0.8-0.5-1.4-0.5s-1,0.2-1.3,0.5c-0.4,0.4-0.5,0.8-0.5,1.3c0,0.5,0.2,1,0.5,1.4C8.6,221.9,9.1,222.1,9.6,222.1z"/>
	<path class="st1" d="M24.6,224v-12.3c0-0.6,0.1-1.1,0.3-1.6c0.2-0.5,0.5-0.9,0.9-1.3c0.4-0.4,0.8-0.6,1.3-0.8
		c0.5-0.2,1-0.3,1.6-0.3c0.6,0,1.1,0.1,1.6,0.3s0.9,0.5,1.3,0.8c0.3,0.4,0.6,0.8,0.8,1.3c0.2,0.5,0.3,1,0.3,1.6
		c0,0.6-0.1,1.1-0.3,1.6c-0.2,0.5-0.5,0.9-0.8,1.3c-0.4,0.3-0.8,0.6-1.3,0.8c-0.5,0.2-1,0.3-1.6,0.3c-0.3,0-0.6,0-0.8-0.1
		c-0.3,0-0.5-0.1-0.7-0.2v6.3h11.4v-14.5c0-1-0.2-1.9-0.5-2.7c-0.4-0.8-0.8-1.5-1.5-2c-0.6-0.6-1.4-1-2.3-1.3
		c-0.9-0.3-1.9-0.4-2.9-0.4c-0.9,0-1.8,0.1-2.5,0.4c-0.8,0.3-1.4,0.6-2,1.1c-0.6,0.5-1.1,1-1.4,1.6c-0.4,0.6-0.6,1.3-0.7,2h-2.7
		c0.2-1.1,0.5-2.1,1.1-3c0.5-0.9,1.2-1.7,2-2.3c0.8-0.6,1.8-1.1,2.8-1.5c1.1-0.4,2.2-0.5,3.4-0.5c1.4,0,2.7,0.2,3.9,0.6
		c1.2,0.4,2.2,0.9,3.1,1.7c0.9,0.7,1.5,1.6,2,2.7c0.5,1.1,0.7,2.3,0.7,3.7V224H24.6z M30.5,211.7c0-0.5-0.2-1-0.5-1.3
		c-0.3-0.3-0.8-0.5-1.3-0.5s-1,0.2-1.3,0.5c-0.3,0.4-0.5,0.8-0.5,1.3s0.2,1,0.5,1.3s0.8,0.5,1.3,0.5s1-0.2,1.3-0.5
		S30.5,212.3,30.5,211.7z"/>
	<path class="st1" d="M51,224v-17.5c-0.2,0.1-0.5,0.2-0.7,0.2c-0.3,0-0.5,0-0.8,0c-0.6,0-1.1-0.1-1.6-0.3c-0.5-0.2-0.9-0.5-1.3-0.9
		c-0.4-0.4-0.7-0.8-0.9-1.3c-0.2-0.5-0.3-1-0.3-1.6c0-0.6,0.1-1.1,0.3-1.6c0.2-0.5,0.5-0.9,0.9-1.3c0.4-0.4,0.8-0.7,1.3-0.9
		c0.5-0.2,1-0.3,1.6-0.3c0.6,0,1.1,0.1,1.6,0.3c0.5,0.2,0.9,0.5,1.3,0.9c0.4,0.4,0.7,0.8,0.9,1.3c0.2,0.5,0.3,1,0.3,1.6v19.1h11.8
		v-22.9h2.5V224H51z M49.5,204.5c0.5,0,1-0.2,1.3-0.5c0.3-0.4,0.5-0.8,0.5-1.4s-0.2-1-0.5-1.3c-0.3-0.4-0.8-0.5-1.3-0.5
		c-0.5,0-1,0.2-1.4,0.5c-0.4,0.4-0.5,0.8-0.5,1.3s0.2,1,0.5,1.4C48.5,204.4,48.9,204.5,49.5,204.5z"/>
	<path class="st1" d="M91.5,235v-27.3c0-0.9-0.1-1.7-0.2-2.4s-0.3-1.3-0.6-1.8c-0.3-0.5-0.6-1-1-1.3c-0.4-0.4-1-0.7-1.6-1l-3.4,2.2
		l-3.5-2.3c-1,0.2-1.8,0.7-2.4,1.4c-0.6,0.7-0.9,1.8-1,3.1c0.2-0.2,0.5-0.3,0.8-0.4c0.4-0.1,0.7-0.1,0.9-0.1c0.6,0,1.2,0.1,1.7,0.3
		s0.9,0.5,1.3,0.8c0.4,0.3,0.6,0.7,0.8,1.2c0.2,0.5,0.3,0.9,0.3,1.5c0,0.6-0.1,1.1-0.3,1.6c-0.2,0.5-0.5,0.9-0.8,1.3
		c-0.4,0.4-0.8,0.6-1.3,0.9c-0.5,0.2-1.1,0.3-1.7,0.3c-0.7,0-1.4-0.2-1.9-0.5c-0.6-0.3-1-0.8-1.4-1.4c-0.4-0.6-0.7-1.2-0.9-2
		c-0.2-0.7-0.3-1.5-0.3-2.4c0-1.2,0.2-2.2,0.5-3.1c0.3-0.9,0.8-1.7,1.3-2.4c0.6-0.7,1.2-1.2,2-1.7c0.8-0.4,1.6-0.7,2.5-0.9l3.4,2.4
		l3.5-2.4c1.1,0.4,2,0.8,2.7,1.4c0.7,0.5,1.3,1.1,1.8,1.8c0.5,0.7,0.8,1.6,1,2.5c0.2,1,0.3,2.1,0.3,3.4V235H91.5z M81.3,209
		c0-0.5-0.1-0.9-0.4-1.2c-0.3-0.4-0.7-0.5-1.3-0.5c-0.5,0-0.9,0.2-1.2,0.5c-0.3,0.4-0.5,0.8-0.5,1.2c0,0.5,0.2,0.9,0.5,1.2
		c0.3,0.3,0.7,0.5,1.2,0.5c0.5,0,1-0.2,1.3-0.5C81.1,209.9,81.3,209.5,81.3,209z"/>
	<path class="st1" d="M117.9,224v-13.7c0-1.9-0.5-2.9-1.4-2.9c-0.6,0-1.3,0.7-2.1,2.1l-8.1,14.4H104v-17.5c-0.2,0.1-0.5,0.2-0.7,0.2
		c-0.3,0-0.5,0-0.8,0c-0.6,0-1.1-0.1-1.6-0.3c-0.5-0.2-0.9-0.5-1.3-0.9c-0.4-0.4-0.7-0.8-0.9-1.3c-0.2-0.5-0.3-1-0.3-1.6
		c0-0.6,0.1-1.1,0.3-1.6c0.2-0.5,0.5-0.9,0.9-1.3c0.4-0.4,0.8-0.7,1.3-0.9c0.5-0.2,1-0.3,1.6-0.3c0.6,0,1.1,0.1,1.6,0.3
		c0.5,0.2,0.9,0.5,1.3,0.9c0.4,0.4,0.7,0.8,0.9,1.3c0.2,0.5,0.3,1,0.3,1.6v13.9c0,0.2,0,0.5,0,0.8c0,0.3,0,0.6,0,1
		c0,0.3,0,0.6-0.1,0.9c0,0.3-0.1,0.5-0.1,0.6l1-2.1l5.1-9.3c0.3-0.5,0.6-1,0.9-1.4c0.3-0.5,0.7-0.8,1.1-1c-0.9-0.8-1.4-1.9-1.4-3.2
		c0-0.6,0.1-1.1,0.3-1.6c0.2-0.5,0.5-0.9,0.9-1.3c0.4-0.4,0.8-0.7,1.3-0.9c0.5-0.2,1.1-0.3,1.6-0.3s1.1,0.1,1.7,0.3
		c0.5,0.2,1,0.5,1.4,0.9c0.4,0.4,0.7,0.8,0.9,1.3c0.2,0.5,0.3,1,0.3,1.6c0,1.6-0.7,2.8-2.1,3.6c0.4,0.4,0.6,0.9,0.8,1.7
		c0.2,0.7,0.2,1.5,0.2,2.4V224H117.9z M102.4,204.5c0.5,0,1-0.2,1.3-0.5c0.3-0.4,0.5-0.8,0.5-1.4s-0.2-1-0.5-1.3
		c-0.3-0.4-0.8-0.5-1.3-0.5c-0.5,0-1,0.2-1.4,0.5c-0.4,0.4-0.5,0.8-0.5,1.3s0.2,1,0.5,1.4C101.4,204.4,101.9,204.5,102.4,204.5z
		 M117.2,204.8c0.6,0,1.1-0.2,1.5-0.6c0.4-0.4,0.6-0.9,0.6-1.5c0-0.6-0.2-1.1-0.6-1.5c-0.4-0.4-0.9-0.6-1.5-0.6
		c-0.6,0-1.1,0.2-1.5,0.6c-0.4,0.4-0.6,0.9-0.6,1.5c0,0.6,0.2,1.1,0.6,1.5S116.6,204.8,117.2,204.8z"/>
	<path class="st1" d="M141.8,220l-8.7,4h-2.7v-17.5c-0.2,0.1-0.5,0.2-0.7,0.2c-0.3,0-0.5,0-0.8,0c-0.6,0-1.1-0.1-1.6-0.3
		c-0.5-0.2-0.9-0.5-1.3-0.9c-0.4-0.4-0.7-0.8-0.9-1.3c-0.2-0.5-0.3-1-0.3-1.6c0-0.6,0.1-1.1,0.3-1.6c0.2-0.5,0.5-0.9,0.9-1.3
		c0.4-0.4,0.8-0.7,1.3-0.9c0.5-0.2,1-0.3,1.6-0.3c0.6,0,1.1,0.1,1.6,0.3c0.5,0.2,0.9,0.5,1.3,0.9c0.4,0.4,0.7,0.8,0.9,1.3
		c0.2,0.5,0.3,1,0.3,1.6v19l11.5-5.1v-17.7h2.5v17.9c0.8,0.3,1.4,0.8,1.9,1.4c0.5,0.7,0.7,1.4,0.7,2.3c0,0.6-0.1,1.1-0.3,1.6
		c-0.2,0.5-0.5,0.9-0.8,1.2c-0.3,0.4-0.8,0.6-1.2,0.8c-0.5,0.2-1,0.3-1.5,0.3c-0.6,0-1.1-0.1-1.5-0.3c-0.5-0.2-0.9-0.4-1.2-0.8
		c-0.3-0.3-0.6-0.7-0.8-1.2c-0.2-0.5-0.3-1-0.3-1.5V220z M128.9,204.6c0.5,0,1-0.2,1.3-0.6s0.5-0.8,0.5-1.4c0-0.5-0.2-1-0.5-1.4
		s-0.8-0.5-1.3-0.5c-0.5,0-1,0.2-1.4,0.5s-0.5,0.8-0.5,1.4c0,0.5,0.2,1,0.5,1.4S128.3,204.6,128.9,204.6z M145.7,222.2
		c0.5,0,0.9-0.2,1.2-0.5c0.3-0.3,0.5-0.7,0.5-1.2c0-0.5-0.2-0.9-0.5-1.2c-0.3-0.3-0.7-0.5-1.2-0.5c-0.5,0-0.9,0.2-1.2,0.5
		c-0.3,0.3-0.5,0.7-0.5,1.2c0,0.5,0.2,0.9,0.5,1.2C144.8,222,145.2,222.2,145.7,222.2z"/>
	<path class="st1" d="M154.9,224v-12.3c0-0.6,0.1-1.1,0.3-1.6c0.2-0.5,0.5-0.9,0.9-1.3c0.4-0.4,0.8-0.6,1.3-0.8
		c0.5-0.2,1-0.3,1.6-0.3c0.6,0,1.1,0.1,1.6,0.3s0.9,0.5,1.3,0.8c0.3,0.4,0.6,0.8,0.8,1.3c0.2,0.5,0.3,1,0.3,1.6
		c0,0.6-0.1,1.1-0.3,1.6c-0.2,0.5-0.5,0.9-0.8,1.3c-0.4,0.3-0.8,0.6-1.3,0.8c-0.5,0.2-1,0.3-1.6,0.3c-0.3,0-0.6,0-0.8-0.1
		c-0.3,0-0.5-0.1-0.7-0.2v6.3h11.4v-14.5c0-1-0.2-1.9-0.5-2.7c-0.4-0.8-0.8-1.5-1.5-2c-0.6-0.6-1.4-1-2.3-1.3
		c-0.9-0.3-1.9-0.4-2.9-0.4c-0.9,0-1.8,0.1-2.5,0.4c-0.8,0.3-1.4,0.6-2,1.1c-0.6,0.5-1.1,1-1.4,1.6c-0.4,0.6-0.6,1.3-0.7,2h-2.7
		c0.2-1.1,0.5-2.1,1.1-3c0.5-0.9,1.2-1.7,2-2.3c0.8-0.6,1.8-1.1,2.8-1.5c1.1-0.4,2.2-0.5,3.4-0.5c1.4,0,2.7,0.2,3.9,0.6
		c1.2,0.4,2.2,0.9,3.1,1.7c0.9,0.7,1.5,1.6,2,2.7c0.5,1.1,0.7,2.3,0.7,3.7V224H154.9z M160.8,211.7c0-0.5-0.2-1-0.5-1.3
		c-0.3-0.3-0.8-0.5-1.3-0.5s-1,0.2-1.3,0.5c-0.3,0.4-0.5,0.8-0.5,1.3s0.2,1,0.5,1.3s0.8,0.5,1.3,0.5s1-0.2,1.3-0.5
		S160.8,212.3,160.8,211.7z"/>
	<path class="st1" d="M187.7,224l-11.8-13.1l1.7-1.7l10.5,11.5v-14.3c-0.2,0.1-0.5,0.2-0.7,0.2s-0.5,0-0.8,0c-0.6,0-1.1-0.1-1.6-0.3
		c-0.5-0.2-0.9-0.5-1.3-0.9c-0.4-0.4-0.7-0.8-0.9-1.3c-0.2-0.5-0.3-1-0.3-1.6c0-0.6,0.1-1.1,0.3-1.6c0.2-0.5,0.5-0.9,0.9-1.3
		c0.4-0.4,0.8-0.7,1.3-0.9c0.5-0.2,1-0.3,1.6-0.3s1.1,0.1,1.6,0.3c0.5,0.2,0.9,0.5,1.3,0.9c0.4,0.4,0.7,0.8,0.9,1.3
		c0.2,0.5,0.3,1,0.3,1.6V224H187.7z M186.5,204.6c0.5,0,1-0.2,1.3-0.6c0.3-0.4,0.5-0.8,0.5-1.4c0-0.5-0.2-1-0.5-1.4
		c-0.4-0.4-0.8-0.5-1.3-0.5s-1,0.2-1.4,0.5s-0.5,0.8-0.5,1.4c0,0.5,0.2,1,0.5,1.4S186,204.6,186.5,204.6z"/>
	<path class="st1" d="M213.8,224l-6.9-8.1l-6.7,8.1h-2.6v-21.4c0-0.6,0.1-1.1,0.3-1.6c0.2-0.5,0.5-0.9,0.9-1.3
		c0.4-0.4,0.8-0.7,1.3-0.9c0.5-0.2,1-0.3,1.6-0.3c0.6,0,1.1,0.1,1.6,0.3c0.5,0.2,0.9,0.5,1.3,0.9c0.4,0.4,0.7,0.8,0.9,1.3
		c0.2,0.5,0.3,1,0.3,1.6c0,0.6-0.1,1.1-0.3,1.6c-0.2,0.5-0.5,0.9-0.9,1.3c-0.4,0.4-0.8,0.7-1.3,0.9c-0.5,0.2-1,0.3-1.6,0.3
		c-0.3,0-0.6,0-0.9,0c-0.3,0-0.5-0.1-0.7-0.2v14.3l6.8-8.2l6.9,8v-21.8h2.5V224H213.8z M201.7,204.5c0.5,0,1-0.2,1.3-0.5
		c0.3-0.4,0.5-0.8,0.5-1.4s-0.2-1-0.5-1.3c-0.4-0.4-0.8-0.5-1.3-0.5s-1,0.2-1.4,0.5c-0.4,0.4-0.6,0.8-0.6,1.3s0.2,1,0.6,1.4
		C200.7,204.4,201.1,204.5,201.7,204.5z"/>
	<path class="st1" d="M222.4,186.6c-0.2,1.3-0.6,2.4-1.2,3.4c-0.5,1-1.3,1.9-2.1,2.6c-0.9,0.7-2,1.3-3.3,1.6s-2.8,0.6-4.6,0.6
		c-1.2,0-2.3-0.1-3.3-0.3c-1-0.2-1.9-0.5-2.7-0.9c-0.7-0.4-1.3-0.9-1.8-1.5c-0.4-0.6-0.6-1.4-0.6-2.2c0-0.7,0.1-1.2,0.4-1.7
		c0.2-0.5,0.5-0.9,0.9-1.2c0.4-0.3,0.8-0.6,1.3-0.7c0.5-0.2,1-0.2,1.5-0.2s1,0.1,1.4,0.2s0.9,0.4,1.2,0.7c0.4,0.3,0.6,0.7,0.9,1.1
		c0.2,0.5,0.3,1,0.3,1.6c0,0.7-0.2,1.3-0.5,1.8c-0.3,0.5-0.6,0.8-1,1c0.2,0.1,0.5,0.2,0.8,0.2c0.3,0.1,0.7,0.1,1.1,0.1
		c1.4,0,2.6-0.1,3.6-0.4c1-0.3,1.9-0.7,2.6-1.3c0.7-0.5,1.3-1.2,1.6-2c0.4-0.8,0.6-1.6,0.8-2.6H222.4z M206.9,191.7
		c0.5,0,1-0.2,1.3-0.5c0.4-0.4,0.5-0.8,0.5-1.3s-0.2-1-0.6-1.3c-0.4-0.4-0.8-0.5-1.4-0.5s-1,0.2-1.3,0.5c-0.3,0.3-0.5,0.8-0.5,1.3
		s0.2,1,0.6,1.3C205.9,191.6,206.3,191.7,206.9,191.7z"/>
	<path class="st1" d="M239,224v-16.1c0-1.1-0.2-2-0.6-2.9c-0.4-0.9-0.9-1.6-1.6-2.2c-0.7-0.6-1.5-1.1-2.4-1.4
		c-0.9-0.3-1.9-0.5-3-0.5c-1.7,0-3.1,0.4-4.4,1.2c-1.2,0.8-2.2,1.9-2.8,3.2l2.3,2.7V224h-2.5v-15.5l-2.5-2.9c0.3-1.1,0.7-2,1.3-2.9
		c0.6-0.9,1.3-1.6,2.2-2.2c0.9-0.6,1.8-1.1,2.9-1.4c1.1-0.3,2.3-0.5,3.6-0.5c1.5,0,2.9,0.2,4.2,0.7c1.3,0.5,2.3,1.1,3.2,2
		c0.9,0.8,1.6,1.8,2.1,3s0.7,2.5,0.7,3.9V224H239z"/>
	<path class="st1" d="M255.4,224v-19.9c0-1.2-0.3-2.1-0.8-2.7c-0.5-0.6-1.4-0.9-2.6-0.9c-0.8,0-1.4,0.2-1.9,0.5
		c-0.5,0.3-0.8,0.8-1,1.4c0.1,0,0.2-0.1,0.5-0.1c0.2,0,0.4,0,0.6,0c0.6,0,1.2,0.1,1.6,0.3c0.5,0.2,0.9,0.5,1.2,0.8
		c0.3,0.3,0.6,0.7,0.7,1.2c0.2,0.5,0.2,0.9,0.2,1.5c0,0.6-0.1,1.1-0.3,1.5c-0.2,0.5-0.4,0.9-0.8,1.2c-0.3,0.3-0.7,0.6-1.2,0.8
		c-0.5,0.2-1,0.3-1.5,0.3c-0.6,0-1.2-0.1-1.7-0.4c-0.5-0.2-0.9-0.6-1.3-1c-0.4-0.4-0.6-0.9-0.8-1.5c-0.2-0.6-0.3-1.2-0.3-1.9
		c0-0.9,0.1-1.8,0.4-2.6c0.3-0.8,0.7-1.5,1.2-2.1c0.5-0.6,1.2-1,1.9-1.3c0.7-0.3,1.6-0.5,2.5-0.5c0.8,0,1.6,0.1,2.3,0.4
		c0.7,0.2,1.3,0.6,1.8,1.1c0.5,0.5,0.9,1,1.2,1.7c0.3,0.7,0.4,1.5,0.4,2.4v17.6h5.3v-13.5c0-0.7-0.1-1.3-0.2-1.8
		c-0.1-0.5-0.3-1-0.6-1.3c-0.3-0.4-0.6-0.7-1-1c-0.4-0.3-0.9-0.5-1.4-0.8l6.6-7.2l1.8,1.6l-4.9,5.3c0.7,0.5,1.3,1.2,1.7,1.9
		c0.4,0.8,0.6,1.8,0.6,3v16H255.4z M250.2,207.9c0.5,0,0.9-0.2,1.2-0.5c0.3-0.4,0.5-0.8,0.5-1.3c0-0.5-0.2-1-0.5-1.3
		c-0.3-0.3-0.7-0.5-1.3-0.5c-0.6,0-1,0.2-1.3,0.5s-0.5,0.8-0.5,1.3c0,0.5,0.2,1,0.5,1.3C249.2,207.7,249.7,207.9,250.2,207.9z"/>
	<path class="st1" d="M263.7,193.8c-1.7-0.6-3.3-1.1-4.8-1.5c-1.5-0.4-2.9-0.7-4.2-0.9c-1.3-0.2-2.5-0.4-3.6-0.4
		c-1.1-0.1-2.1-0.1-3.1-0.2c-0.5,0-0.8,0-1.2,0s-0.6,0-0.8,0c-0.2,0-0.4,0-0.6,0c-0.2,0-0.4,0-0.6,0.1c0.4-1.1,1-2.2,1.6-3.1
		c0.7-0.9,1.4-1.7,2.3-2.3c0.9-0.6,1.8-1.1,2.9-1.4c1.1-0.3,2.2-0.5,3.4-0.5c3.3,0,6,1.3,8.1,4v-6h2.4v12.8L263.7,193.8z
		 M263.2,191.4c-0.9-1.9-1.9-3.3-3.2-4.2c-1.3-0.9-2.8-1.4-4.8-1.4c-0.7,0-1.5,0.1-2.2,0.2c-0.7,0.1-1.3,0.3-1.9,0.6
		c-0.6,0.3-1.1,0.6-1.6,1c-0.5,0.4-0.9,0.8-1.2,1.3c1.3,0,2.6,0,3.8,0.1c1.2,0.1,2.4,0.2,3.6,0.4c1.2,0.2,2.4,0.5,3.6,0.8
		C260.5,190.5,261.8,190.9,263.2,191.4z"/>
	<path class="st1" d="M286,198.9h2.5v17.5c0.2-0.1,0.5-0.2,0.7-0.2c0.3,0,0.5,0,0.8,0c0.6,0,1.1,0.1,1.6,0.3
		c0.5,0.2,0.9,0.5,1.3,0.9c0.4,0.4,0.7,0.8,0.9,1.3c0.2,0.5,0.3,1,0.3,1.6c0,0.6-0.1,1.1-0.3,1.6c-0.2,0.5-0.5,0.9-0.9,1.3
		c-0.4,0.4-0.8,0.7-1.3,0.9c-0.5,0.2-1,0.3-1.6,0.3c-0.6,0-1.1-0.1-1.6-0.3c-0.5-0.2-0.9-0.5-1.3-0.9c-0.4-0.4-0.7-0.8-0.9-1.3
		c-0.2-0.5-0.3-1-0.3-1.6V198.9z M290.1,222.1c0.5,0,1-0.2,1.3-0.6s0.5-0.8,0.5-1.4c0-0.5-0.2-1-0.5-1.3c-0.4-0.4-0.8-0.5-1.3-0.5
		s-1,0.2-1.3,0.5c-0.3,0.4-0.5,0.8-0.5,1.3c0,0.5,0.2,1,0.5,1.4C289.1,221.9,289.6,222.1,290.1,222.1z"/>
	<path class="st1" d="M301.5,224v-17.5c-0.2,0.1-0.5,0.2-0.7,0.2c-0.3,0-0.5,0-0.8,0c-0.6,0-1.1-0.1-1.6-0.3
		c-0.5-0.2-0.9-0.5-1.3-0.9c-0.4-0.4-0.7-0.8-0.9-1.3c-0.2-0.5-0.3-1-0.3-1.6c0-0.6,0.1-1.1,0.3-1.6c0.2-0.5,0.5-0.9,0.9-1.3
		c0.4-0.4,0.8-0.7,1.3-0.9c0.5-0.2,1-0.3,1.6-0.3c0.6,0,1.1,0.1,1.6,0.3c0.5,0.2,0.9,0.5,1.3,0.9c0.4,0.4,0.7,0.8,0.9,1.3
		c0.2,0.5,0.3,1,0.3,1.6v19.1h11.8v-34.9h2.5V224H301.5z M300,204.5c0.5,0,1-0.2,1.3-0.5c0.3-0.4,0.5-0.8,0.5-1.4s-0.2-1-0.5-1.3
		c-0.3-0.4-0.8-0.5-1.3-0.5c-0.5,0-1,0.2-1.4,0.5c-0.4,0.4-0.5,0.8-0.5,1.3s0.2,1,0.5,1.4C299,204.4,299.5,204.5,300,204.5z"/>
	<path class="st1" d="M301.1,194c-0.6,0-1.2-0.1-1.8-0.4c-0.6-0.2-1-0.6-1.5-1.1c-0.4-0.5-0.7-1-1-1.7c-0.2-0.7-0.4-1.5-0.4-2.3
		c0-0.7,0.1-1.4,0.4-2c0.3-0.6,0.6-1.2,1.1-1.6c0.5-0.5,1.1-0.8,1.8-1.1c0.7-0.3,1.5-0.4,2.5-0.4h5.8c0.9,0,1.6-0.2,2.1-0.5
		c0.5-0.3,0.9-0.8,1.3-1.4l1.9,1.3c-0.5,1-1.2,1.7-2,2.1c-0.8,0.4-1.9,0.6-3.2,0.6h-5.8c-1.2,0-2.1,0.3-2.6,0.8
		c-0.5,0.6-0.8,1.3-0.8,2.3c0,1,0.1,1.7,0.4,2.2c0.3,0.5,0.7,0.8,1.2,1l2.8-3.2l1.3,1.6c0.4,0.4,0.7,0.8,1,1
		c0.3,0.3,0.6,0.4,0.9,0.5c0,0,0-0.1,0-0.2c0-0.1,0-0.2,0-0.2c0-1,0.3-1.7,0.9-2.2c0.6-0.5,1.3-0.8,2.2-0.8c0.4,0,0.9,0.1,1.2,0.2
		c0.4,0.1,0.7,0.4,1,0.6c0.3,0.3,0.5,0.6,0.6,1c0.2,0.4,0.2,0.8,0.2,1.2c0,0.4-0.1,0.8-0.2,1.1c-0.1,0.4-0.4,0.7-0.7,1
		c-0.3,0.3-0.7,0.5-1.1,0.7c-0.5,0.2-1,0.3-1.6,0.3c-1.3,0-2.4-0.2-3.3-0.6c-0.9-0.4-1.6-1.1-2.3-2L301.1,194z M309.5,192.6
		c0.9,0,1.3-0.5,1.3-1.5c0-0.4-0.1-0.7-0.3-1c-0.2-0.3-0.5-0.4-1-0.4c-0.5,0-0.8,0.1-1,0.4c-0.2,0.3-0.3,0.6-0.3,1
		C308.1,192.1,308.6,192.6,309.5,192.6z"/>
	<path class="st1" d="M339.7,220l-8.7,4h-2.7v-17.5c-0.2,0.1-0.5,0.2-0.7,0.2c-0.3,0-0.5,0-0.8,0c-0.6,0-1.1-0.1-1.6-0.3
		c-0.5-0.2-0.9-0.5-1.3-0.9c-0.4-0.4-0.7-0.8-0.9-1.3c-0.2-0.5-0.3-1-0.3-1.6c0-0.6,0.1-1.1,0.3-1.6c0.2-0.5,0.5-0.9,0.9-1.3
		c0.4-0.4,0.8-0.7,1.3-0.9c0.5-0.2,1-0.3,1.6-0.3c0.6,0,1.1,0.1,1.6,0.3c0.5,0.2,0.9,0.5,1.3,0.9c0.4,0.4,0.7,0.8,0.9,1.3
		c0.2,0.5,0.3,1,0.3,1.6v19l11.5-5.1v-17.7h2.5v17.9c0.8,0.3,1.4,0.8,1.9,1.4c0.5,0.7,0.7,1.4,0.7,2.3c0,0.6-0.1,1.1-0.3,1.6
		c-0.2,0.5-0.5,0.9-0.8,1.2c-0.3,0.4-0.8,0.6-1.2,0.8c-0.5,0.2-1,0.3-1.5,0.3c-0.6,0-1.1-0.1-1.5-0.3s-0.9-0.4-1.2-0.8
		c-0.3-0.3-0.6-0.7-0.8-1.2c-0.2-0.5-0.3-1-0.3-1.5V220z M326.8,204.6c0.5,0,1-0.2,1.3-0.6s0.5-0.8,0.5-1.4c0-0.5-0.2-1-0.5-1.4
		s-0.8-0.5-1.3-0.5c-0.5,0-1,0.2-1.4,0.5s-0.5,0.8-0.5,1.4c0,0.5,0.2,1,0.5,1.4S326.3,204.6,326.8,204.6z M343.7,222.2
		c0.5,0,0.9-0.2,1.2-0.5c0.3-0.3,0.5-0.7,0.5-1.2c0-0.5-0.2-0.9-0.5-1.2c-0.3-0.3-0.7-0.5-1.2-0.5c-0.5,0-0.9,0.2-1.2,0.5
		c-0.3,0.3-0.5,0.7-0.5,1.2c0,0.5,0.2,0.9,0.5,1.2C342.8,222,343.2,222.2,343.7,222.2z"/>
	<path class="st1" d="M369.5,224v-20.5c0-0.8-0.2-1.4-0.7-1.9c-0.4-0.5-1.1-0.7-1.8-0.7c-0.6,0-1.1,0.2-1.5,0.5
		c-0.4,0.3-0.7,0.7-0.9,1.3l-7.1,21.4h-2.4v-17.5c-0.2,0.1-0.5,0.2-0.7,0.2s-0.5,0-0.8,0c-0.6,0-1.1-0.1-1.6-0.3
		c-0.5-0.2-0.9-0.5-1.3-0.9c-0.4-0.4-0.7-0.8-0.9-1.3c-0.2-0.5-0.3-1-0.3-1.6c0-0.6,0.1-1.1,0.3-1.6c0.2-0.5,0.5-0.9,0.9-1.3
		c0.4-0.4,0.8-0.7,1.3-0.9c0.5-0.2,1-0.3,1.6-0.3c0.6,0,1.1,0.1,1.6,0.3c0.5,0.2,0.9,0.5,1.3,0.9c0.4,0.4,0.7,0.8,0.9,1.3
		c0.2,0.5,0.3,1,0.3,1.6V217c0.8-2.4,1.6-4.9,2.4-7.3c0.8-2.4,1.6-4.9,2.4-7.3c0.4-1.4,1-2.3,1.7-2.9c0.7-0.6,1.7-0.9,2.9-0.9
		c0.7,0,1.4,0.1,2.1,0.4c0.6,0.2,1.2,0.6,1.6,1c0.4,0.4,0.8,0.9,1,1.5c0.2,0.6,0.4,1.3,0.4,2V224H369.5z M353.6,204.6
		c0.5,0,1-0.2,1.3-0.6s0.5-0.8,0.5-1.4c0-0.5-0.2-1-0.5-1.4s-0.8-0.5-1.3-0.5c-0.5,0-1,0.2-1.4,0.5c-0.4,0.4-0.5,0.8-0.5,1.4
		c0,0.5,0.2,1,0.5,1.4C352.6,204.4,353.1,204.6,353.6,204.6z"/>
	<path class="st1" d="M369.8,238.4v-4.9c-0.2,0.1-0.4,0.2-0.6,0.2c-0.2,0-0.5,0.1-0.8,0.1c-0.6,0-1.1-0.1-1.6-0.3
		c-0.5-0.2-0.9-0.5-1.2-0.8c-0.3-0.3-0.6-0.7-0.8-1.2c-0.2-0.4-0.3-0.9-0.3-1.4c0-1.1,0.3-2,1-2.6s1.6-1,2.8-1c1.2,0,2.1,0.3,2.7,1
		c0.6,0.7,1,1.6,1,2.7v8.3H369.8z M368.3,231.8c0.5,0,0.9-0.2,1.2-0.5c0.3-0.3,0.4-0.7,0.4-1.1c0-0.5-0.1-0.8-0.4-1.1
		c-0.2-0.3-0.7-0.5-1.2-0.5c-0.5,0-0.9,0.2-1.2,0.5c-0.3,0.3-0.4,0.7-0.4,1.1c0,0.5,0.1,0.8,0.4,1.1
		C367.4,231.6,367.8,231.8,368.3,231.8z"/>
	<path class="st1" d="M369.4,193.8v-9h2.6v9H369.4z"/>
	<path class="st1" d="M388.4,224l-11.8-13.1l1.7-1.7l10.5,11.5v-14.3c-0.2,0.1-0.5,0.2-0.7,0.2c-0.3,0-0.5,0-0.8,0
		c-0.6,0-1.1-0.1-1.6-0.3c-0.5-0.2-0.9-0.5-1.3-0.9c-0.4-0.4-0.7-0.8-0.9-1.3c-0.2-0.5-0.3-1-0.3-1.6c0-0.6,0.1-1.1,0.3-1.6
		c0.2-0.5,0.5-0.9,0.9-1.3c0.4-0.4,0.8-0.7,1.3-0.9c0.5-0.2,1-0.3,1.6-0.3c0.6,0,1.1,0.1,1.6,0.3c0.5,0.2,0.9,0.5,1.3,0.9
		c0.4,0.4,0.7,0.8,0.9,1.3c0.2,0.5,0.3,1,0.3,1.6V224H388.4z M387.2,204.6c0.5,0,1-0.2,1.3-0.6c0.3-0.4,0.5-0.8,0.5-1.4
		c0-0.5-0.2-1-0.5-1.4c-0.4-0.4-0.8-0.5-1.3-0.5s-1,0.2-1.4,0.5c-0.4,0.4-0.5,0.8-0.5,1.4c0,0.5,0.2,1,0.5,1.4
		C386.2,204.4,386.7,204.6,387.2,204.6z"/>
	<path class="st1" d="M414,224v-16.1c0-1.1-0.2-2-0.6-2.9c-0.4-0.9-0.9-1.6-1.6-2.2c-0.7-0.6-1.5-1.1-2.4-1.4
		c-0.9-0.3-1.9-0.5-3-0.5c-1.7,0-3.1,0.4-4.4,1.2c-1.2,0.8-2.2,1.9-2.8,3.2l2.3,2.7V224h-2.5v-15.5l-2.5-2.9c0.3-1.1,0.7-2,1.3-2.9
		c0.6-0.9,1.3-1.6,2.2-2.2c0.9-0.6,1.8-1.1,2.9-1.4c1.1-0.3,2.3-0.5,3.6-0.5c1.5,0,2.9,0.2,4.2,0.7c1.3,0.5,2.3,1.1,3.2,2
		c0.9,0.8,1.6,1.8,2.1,3s0.7,2.5,0.7,3.9V224H414z"/>
	<path class="st1" d="M435.3,206.3c0-0.8-0.1-1.6-0.4-2.3s-0.6-1.3-1.1-1.8c-0.5-0.5-1.1-0.9-1.9-1.1c-0.7-0.3-1.6-0.4-2.6-0.4
		c-1,0-1.8,0.2-2.6,0.5c-0.7,0.3-1.4,0.8-1.9,1.3c-0.5,0.6-0.9,1.2-1.2,2c-0.3,0.8-0.4,1.6-0.4,2.5h-2.5c0-1.2,0.2-2.3,0.6-3.3
		c0.4-1,0.9-1.9,1.7-2.7c0.7-0.8,1.6-1.4,2.7-1.8c1.1-0.4,2.2-0.7,3.6-0.7c1.4,0,2.7,0.2,3.7,0.5c1.1,0.4,1.9,0.9,2.7,1.5
		c0.7,0.7,1.3,1.5,1.6,2.4c0.4,1,0.5,2,0.5,3.2v13.9c0,0.6-0.1,1.1-0.3,1.6c-0.2,0.5-0.5,0.9-0.9,1.3c-0.4,0.4-0.8,0.7-1.3,0.9
		s-1,0.3-1.6,0.3c-0.6,0-1.1-0.1-1.6-0.3c-0.5-0.2-0.9-0.5-1.3-0.9c-0.4-0.4-0.7-0.8-0.9-1.3c-0.2-0.5-0.3-1-0.3-1.6
		c0-0.6,0.1-1.1,0.3-1.6c0.2-0.5,0.5-0.9,0.9-1.3c0.4-0.4,0.8-0.7,1.3-0.9c0.5-0.2,1-0.3,1.6-0.3c0.3,0,0.6,0,0.8,0
		c0.3,0,0.5,0.1,0.8,0.2V206.3z M433.7,222.1c0.5,0,1-0.2,1.4-0.6c0.4-0.4,0.5-0.8,0.5-1.4c0-0.5-0.2-1-0.5-1.3
		c-0.4-0.4-0.8-0.5-1.4-0.5c-0.5,0-1,0.2-1.4,0.5c-0.4,0.4-0.6,0.8-0.6,1.3c0,0.5,0.2,1,0.6,1.4S433.2,222.1,433.7,222.1z"/>
	<path class="st1" d="M441,183.1c0,1.7-0.4,3.3-1.1,4.6c-0.7,1.3-1.7,2.5-2.9,3.4c-1.2,0.9-2.6,1.6-4.2,2.1c-1.6,0.5-3.3,0.7-5,0.7
		c-0.4,0-0.7,0-0.9,0c-0.3,0-0.5,0-0.6,0v-1.6c0.5-0.2,0.9-0.6,1.3-1c0.4-0.4,0.6-0.8,0.8-1.3c-0.1,0-0.3,0-0.4,0
		c-0.1,0-0.3,0-0.4,0c-0.6,0-1.2-0.1-1.6-0.3c-0.5-0.2-0.8-0.4-1.1-0.8c-0.3-0.3-0.5-0.7-0.7-1.1c-0.1-0.4-0.2-0.9-0.2-1.4
		c0-0.5,0.1-1,0.3-1.5c0.2-0.4,0.5-0.8,0.8-1.2c0.3-0.3,0.7-0.6,1.2-0.8c0.5-0.2,0.9-0.3,1.5-0.3c0.6,0,1.2,0.1,1.7,0.3
		c0.5,0.2,0.9,0.5,1.2,0.9c0.3,0.4,0.6,0.8,0.7,1.3c0.2,0.5,0.2,1.1,0.2,1.7c0,1-0.2,2-0.7,2.8c-0.5,0.9-1,1.6-1.7,2.2
		c1.4-0.1,2.6-0.3,3.8-0.8s2.2-1,3.1-1.8c0.9-0.8,1.6-1.7,2.1-2.7c0.5-1.1,0.8-2.3,0.8-3.6H441z M429.3,186.5c0-0.5-0.2-1-0.5-1.3
		s-0.8-0.5-1.3-0.5c-0.5,0-1,0.2-1.3,0.5s-0.5,0.8-0.5,1.3c0,0.6,0.2,1,0.5,1.3c0.3,0.3,0.8,0.5,1.3,0.5c0.6,0,1-0.2,1.3-0.5
		S429.3,187,429.3,186.5z"/>
	<path class="st1" d="M456.5,224v-17.2c0-0.8-0.1-1.6-0.3-2.3c-0.2-0.7-0.5-1.4-1-1.9c-0.5-0.5-1-1-1.8-1.3
		c-0.7-0.3-1.6-0.5-2.6-0.5c-0.9,0-1.8,0.1-2.4,0.4c-0.7,0.3-1.2,0.6-1.7,1.1c-0.5,0.5-0.8,1-1.1,1.6c-0.3,0.6-0.4,1.3-0.5,2h-2.5
		c0.1-1.1,0.3-2.1,0.7-3c0.4-0.9,0.9-1.7,1.6-2.3c0.7-0.7,1.5-1.2,2.5-1.5c1-0.4,2.1-0.5,3.5-0.5c1.4,0,2.7,0.2,3.7,0.6
		c1,0.4,1.9,1,2.5,1.7c0.7,0.7,1.1,1.6,1.5,2.6c0.3,1,0.5,2.1,0.5,3.3V224H456.5z"/>
	<path class="st1" d="M475.3,224l-11.8-13.1l1.7-1.7l10.5,11.5v-14.3c-0.2,0.1-0.5,0.2-0.7,0.2c-0.3,0-0.5,0-0.8,0
		c-0.6,0-1.1-0.1-1.6-0.3c-0.5-0.2-0.9-0.5-1.3-0.9c-0.4-0.4-0.7-0.8-0.9-1.3c-0.2-0.5-0.3-1-0.3-1.6c0-0.6,0.1-1.1,0.3-1.6
		c0.2-0.5,0.5-0.9,0.9-1.3c0.4-0.4,0.8-0.7,1.3-0.9c0.5-0.2,1-0.3,1.6-0.3c0.6,0,1.1,0.1,1.6,0.3c0.5,0.2,0.9,0.5,1.3,0.9
		c0.4,0.4,0.7,0.8,0.9,1.3c0.2,0.5,0.3,1,0.3,1.6V224H475.3z M474.2,204.6c0.5,0,1-0.2,1.3-0.6s0.5-0.8,0.5-1.4c0-0.5-0.2-1-0.5-1.4
		s-0.8-0.5-1.3-0.5s-1,0.2-1.4,0.5c-0.4,0.4-0.5,0.8-0.5,1.4c0,0.5,0.2,1,0.5,1.4C473.2,204.4,473.6,204.6,474.2,204.6z"/>
	<path class="st1" d="M485.6,198.9h2.5v17.5c0.2-0.1,0.5-0.2,0.7-0.2c0.3,0,0.5,0,0.8,0c0.6,0,1.1,0.1,1.6,0.3
		c0.5,0.2,0.9,0.5,1.3,0.9c0.4,0.4,0.7,0.8,0.9,1.3c0.2,0.5,0.3,1,0.3,1.6c0,0.6-0.1,1.1-0.3,1.6c-0.2,0.5-0.5,0.9-0.9,1.3
		c-0.4,0.4-0.8,0.7-1.3,0.9c-0.5,0.2-1,0.3-1.6,0.3c-0.6,0-1.1-0.1-1.6-0.3s-0.9-0.5-1.3-0.9c-0.4-0.4-0.7-0.8-0.9-1.3
		c-0.2-0.5-0.3-1-0.3-1.6V198.9z M489.7,222.1c0.5,0,1-0.2,1.3-0.6s0.5-0.8,0.5-1.4c0-0.5-0.2-1-0.5-1.3c-0.4-0.4-0.8-0.5-1.3-0.5
		c-0.5,0-1,0.2-1.3,0.5c-0.3,0.4-0.5,0.8-0.5,1.3c0,0.5,0.2,1,0.5,1.4C488.7,221.9,489.1,222.1,489.7,222.1z M496,198.9h2.5v17.5
		c0.2-0.1,0.5-0.2,0.7-0.2c0.3,0,0.5,0,0.8,0c0.6,0,1.1,0.1,1.6,0.3c0.5,0.2,0.9,0.5,1.3,0.9c0.4,0.4,0.7,0.8,0.9,1.3
		c0.2,0.5,0.3,1,0.3,1.6c0,0.6-0.1,1.1-0.3,1.6c-0.2,0.5-0.5,0.9-0.9,1.3c-0.4,0.4-0.8,0.7-1.3,0.9s-1,0.3-1.6,0.3
		c-0.6,0-1.1-0.1-1.6-0.3c-0.5-0.2-0.9-0.5-1.3-0.9c-0.4-0.4-0.7-0.8-0.9-1.3c-0.2-0.5-0.3-1-0.3-1.6V198.9z M500.1,222.1
		c0.5,0,1-0.2,1.3-0.6c0.4-0.4,0.5-0.8,0.5-1.4c0-0.5-0.2-1-0.5-1.3c-0.4-0.4-0.8-0.5-1.3-0.5c-0.6,0-1,0.2-1.4,0.5
		c-0.4,0.4-0.5,0.8-0.5,1.3c0,0.5,0.2,1,0.5,1.4C499.1,221.9,499.6,222.1,500.1,222.1z"/>
	<path class="st1" d="M524,224v-9.9c0-0.7-0.1-1.3-0.4-1.9c-0.3-0.6-0.7-1.1-1.3-1.6s-1.3-0.8-2.1-1.1s-1.8-0.4-2.9-0.4
		c-1,0-1.8,0.1-2.6,0.4c-0.7,0.3-1.4,0.6-1.9,1.1c-0.5,0.5-0.9,1-1.1,1.7c-0.3,0.7-0.4,1.4-0.4,2.2v1.9c0.2-0.1,0.5-0.2,0.7-0.2
		c0.2,0,0.5,0,0.8,0c0.6,0,1.1,0.1,1.6,0.3c0.5,0.2,0.9,0.5,1.3,0.9c0.4,0.4,0.7,0.8,0.9,1.3c0.2,0.5,0.3,1,0.3,1.6
		c0,0.6-0.1,1.1-0.3,1.6c-0.2,0.5-0.5,0.9-0.9,1.3c-0.4,0.4-0.8,0.7-1.3,0.9s-1,0.3-1.6,0.3s-1.1-0.1-1.6-0.3
		c-0.5-0.2-0.9-0.5-1.3-0.9c-0.4-0.4-0.6-0.8-0.8-1.3c-0.2-0.5-0.3-1-0.3-1.6v-5.8c0-1.1,0.2-2.1,0.6-3c0.4-0.9,1-1.7,1.8-2.4
		c0.8-0.7,1.7-1.2,2.7-1.6c1.1-0.4,2.2-0.6,3.5-0.6c1.5,0,2.8,0.2,3.9,0.7c1,0.4,2,1.1,2.8,1.9v-3.5c0-0.7-0.2-1.4-0.5-2
		c-0.3-0.6-0.8-1.2-1.3-1.6c-0.6-0.5-1.3-0.8-2.2-1.1c-0.9-0.3-1.8-0.4-3-0.4c-1.4,0-2.5,0.1-3.4,0.4s-1.7,0.7-2.3,1.2s-1,1-1.3,1.6
		c-0.3,0.6-0.5,1.2-0.6,1.9h-2.4c0-1,0.3-1.9,0.8-2.8c0.5-0.9,1.1-1.7,2-2.3c0.8-0.7,1.9-1.2,3.1-1.6c1.2-0.4,2.6-0.6,4.1-0.6
		c1.4,0,2.7,0.2,3.9,0.5c1.2,0.4,2.2,0.9,3,1.5s1.5,1.4,1.9,2.4c0.5,0.9,0.7,1.9,0.7,3.1v18H524z M512.8,222.1c0.5,0,1-0.2,1.4-0.6
		c0.4-0.4,0.5-0.8,0.5-1.4c0-0.5-0.2-1-0.5-1.3c-0.4-0.4-0.8-0.5-1.4-0.5s-1,0.2-1.3,0.5c-0.3,0.4-0.5,0.8-0.5,1.3
		c0,0.5,0.2,1,0.5,1.4S512.3,222.1,512.8,222.1z"/>
	<path class="st1" d="M548.2,199.1c-0.5,2.7-1.6,4.7-3.4,6c-1.7,1.3-3.9,2-6.6,2c-2.1,0-3.7-0.4-4.9-1.2c-1.1-0.8-1.7-1.9-1.7-3.3
		c0-0.5,0.1-1,0.3-1.5c0.2-0.5,0.5-0.9,0.8-1.2s0.8-0.6,1.2-0.8s1-0.3,1.7-0.3c0.6,0,1.1,0.1,1.6,0.3c0.5,0.2,0.9,0.5,1.2,0.8
		c0.3,0.4,0.6,0.8,0.8,1.3c0.2,0.5,0.3,1,0.3,1.6c0,0.8-0.2,1.5-0.5,1.9c1.9-0.2,3.4-0.8,4.5-1.7c1-0.9,1.8-2.2,2.3-4H548.2z
		 M548.2,214.9c-0.5,2.7-1.6,4.7-3.4,6c-1.7,1.3-3.9,2-6.6,2c-2.1,0-3.7-0.4-4.9-1.2c-1.1-0.8-1.7-1.9-1.7-3.3c0-0.5,0.1-1,0.3-1.5
		c0.2-0.5,0.5-0.9,0.8-1.2c0.3-0.3,0.8-0.6,1.2-0.8s1-0.3,1.7-0.3c0.6,0,1.1,0.1,1.6,0.3c0.5,0.2,0.9,0.5,1.2,0.8
		c0.3,0.4,0.6,0.8,0.8,1.3c0.2,0.5,0.3,1,0.3,1.5c0,0.9-0.2,1.5-0.5,2c1-0.1,1.8-0.3,2.5-0.6s1.4-0.6,1.9-1.1c0.5-0.5,1-1,1.4-1.7
		c0.4-0.7,0.7-1.4,0.9-2.3H548.2z M537.4,202.8c0-0.5-0.2-0.9-0.5-1.2c-0.3-0.3-0.7-0.5-1.2-0.5c-0.5,0-0.9,0.2-1.2,0.5
		c-0.3,0.3-0.5,0.7-0.5,1.2c0,0.5,0.2,0.9,0.5,1.2c0.3,0.3,0.7,0.5,1.2,0.5c0.5,0,0.9-0.2,1.2-0.5
		C537.2,203.7,537.4,203.3,537.4,202.8z M537.4,218.6c0-0.5-0.2-0.9-0.5-1.2c-0.3-0.3-0.7-0.5-1.2-0.5c-0.5,0-0.9,0.2-1.2,0.5
		c-0.3,0.3-0.5,0.7-0.5,1.2c0,0.5,0.2,0.9,0.5,1.2c0.3,0.3,0.7,0.5,1.2,0.5c0.5,0,0.9-0.2,1.2-0.5
		C537.2,219.5,537.4,219.1,537.4,218.6z"/>
	<path class="st1" d="M571.7,224l-10.7-4.6v0.8c0,0.6-0.1,1.1-0.3,1.6c-0.2,0.5-0.5,0.9-0.9,1.3c-0.4,0.4-0.8,0.7-1.3,0.9
		s-1,0.3-1.6,0.3c-0.6,0-1.1-0.1-1.6-0.3s-0.9-0.5-1.3-0.9c-0.4-0.4-0.7-0.8-0.9-1.3c-0.2-0.5-0.3-1-0.3-1.6c0-0.6,0.1-1.1,0.3-1.6
		c0.2-0.5,0.5-0.9,0.9-1.3c0.4-0.4,0.8-0.7,1.3-0.9c0.5-0.2,1-0.3,1.6-0.3c0.3,0,0.6,0,0.8,0c0.3,0,0.5,0.1,0.7,0.2v-9.9
		c-0.2,0.1-0.5,0.2-0.7,0.2c-0.3,0-0.5,0-0.8,0c-0.6,0-1.1-0.1-1.6-0.3c-0.5-0.2-0.9-0.5-1.3-0.9c-0.4-0.4-0.7-0.8-0.9-1.3
		c-0.2-0.5-0.3-1-0.3-1.6c0-0.6,0.1-1.1,0.3-1.6c0.2-0.5,0.5-0.9,0.9-1.3c0.4-0.4,0.8-0.7,1.3-0.9c0.5-0.2,1-0.3,1.6-0.3
		c0.6,0,1.1,0.1,1.6,0.3c0.5,0.2,0.9,0.5,1.3,0.9c0.4,0.4,0.7,0.8,0.9,1.3c0.2,0.5,0.3,1,0.3,1.6v14.5l10.6,4.4v-22.7h2.5V224H571.7
		z M556.9,204.5c0.5,0,1-0.2,1.3-0.5c0.4-0.4,0.5-0.8,0.5-1.4s-0.2-1-0.5-1.3c-0.4-0.4-0.8-0.5-1.3-0.5s-1,0.2-1.4,0.5
		c-0.4,0.4-0.5,0.8-0.5,1.3s0.2,1,0.5,1.4C555.9,204.4,556.4,204.5,556.9,204.5z M556.9,222.1c0.5,0,1-0.2,1.3-0.6s0.5-0.8,0.5-1.4
		c0-0.5-0.2-1-0.5-1.3c-0.4-0.4-0.8-0.5-1.3-0.5s-1,0.2-1.4,0.5c-0.4,0.4-0.5,0.8-0.5,1.3c0,0.5,0.2,1,0.5,1.4
		C555.9,221.9,556.4,222.1,556.9,222.1z"/>
	<path class="st1" d="M572.2,193.8c-1.7-0.6-3.3-1.1-4.8-1.5c-1.5-0.4-2.9-0.7-4.2-0.9c-1.3-0.2-2.5-0.4-3.6-0.4
		c-1.1-0.1-2.1-0.1-3.1-0.2c-0.5,0-0.8,0-1.2,0c-0.3,0-0.6,0-0.8,0c-0.2,0-0.4,0-0.6,0c-0.2,0-0.4,0-0.6,0.1c0.4-1.1,1-2.2,1.6-3.1
		c0.7-0.9,1.4-1.7,2.3-2.3c0.9-0.6,1.8-1.1,2.9-1.4c1.1-0.3,2.2-0.5,3.4-0.5c3.3,0,6,1.3,8.1,4v-6h2.4v12.8L572.2,193.8z
		 M571.6,191.4c-0.9-1.9-1.9-3.3-3.2-4.2c-1.3-0.9-2.8-1.4-4.8-1.4c-0.7,0-1.5,0.1-2.2,0.2c-0.7,0.1-1.3,0.3-1.9,0.6
		c-0.6,0.3-1.1,0.6-1.6,1c-0.5,0.4-0.9,0.8-1.2,1.3c1.3,0,2.6,0,3.8,0.1c1.2,0.1,2.4,0.2,3.6,0.4c1.2,0.2,2.4,0.5,3.6,0.8
		C568.9,190.5,570.2,190.9,571.6,191.4z"/>
	<path class="st1" d="M583.6,194.9c0-0.3-0.1-0.5-0.2-0.6c-0.1-0.1-0.3-0.3-0.7-0.5l-5.8-3c0-1.1,0.2-2.1,0.6-3s0.9-1.7,1.6-2.4
		c0.7-0.7,1.5-1.2,2.4-1.6c0.9-0.4,2-0.6,3.1-0.6c1.1,0,2.1,0.2,3.1,0.5c0.9,0.4,1.7,0.9,2.4,1.5s1.2,1.4,1.6,2.3
		c0.4,0.9,0.6,1.8,0.6,2.8H590c0-0.8-0.1-1.5-0.4-2.1c-0.3-0.6-0.7-1.1-1.1-1.6c-0.5-0.4-1-0.8-1.7-1c-0.7-0.2-1.4-0.3-2.1-0.3
		c-0.7,0-1.4,0.1-2,0.3c-0.6,0.2-1.1,0.5-1.6,0.9c-0.5,0.4-0.8,0.8-1.1,1.4c-0.3,0.5-0.5,1.1-0.6,1.7l5.6,2.9c0.5,0.2,0.8,0.5,1,0.8
		c0.2,0.3,0.2,0.7,0.2,1v22.1c0.2-0.1,0.5-0.2,0.7-0.2c0.3,0,0.6,0,0.9,0c0.6,0,1.1,0.1,1.6,0.3c0.5,0.2,0.9,0.5,1.3,0.9
		c0.4,0.4,0.7,0.8,0.9,1.3c0.2,0.5,0.3,1,0.3,1.6c0,0.6-0.1,1.1-0.3,1.6c-0.2,0.5-0.5,0.9-0.9,1.3c-0.4,0.4-0.8,0.7-1.3,0.9
		c-0.5,0.2-1,0.3-1.6,0.3c-0.6,0-1.1-0.1-1.6-0.3c-0.5-0.2-0.9-0.5-1.3-0.9c-0.4-0.4-0.7-0.8-0.9-1.3c-0.2-0.5-0.3-1-0.3-1.6V194.9z
		 M587.7,222.1c0.5,0,1-0.2,1.3-0.6c0.3-0.4,0.5-0.8,0.5-1.4c0-0.5-0.2-1-0.5-1.3c-0.4-0.4-0.8-0.5-1.3-0.5c-0.6,0-1,0.2-1.4,0.5
		c-0.4,0.4-0.5,0.8-0.5,1.3c0,0.5,0.2,1,0.5,1.4C586.7,221.9,587.2,222.1,587.7,222.1z"/>
	<path class="st1" d="M599.1,224v-17.5c-0.2,0.1-0.5,0.2-0.7,0.2c-0.3,0-0.5,0-0.8,0c-0.6,0-1.1-0.1-1.6-0.3
		c-0.5-0.2-0.9-0.5-1.3-0.9c-0.4-0.4-0.7-0.8-0.9-1.3c-0.2-0.5-0.3-1-0.3-1.6c0-0.6,0.1-1.1,0.3-1.6c0.2-0.5,0.5-0.9,0.9-1.3
		c0.4-0.4,0.8-0.7,1.3-0.9c0.5-0.2,1-0.3,1.6-0.3c0.6,0,1.1,0.1,1.6,0.3c0.5,0.2,0.9,0.5,1.3,0.9c0.4,0.4,0.7,0.8,0.9,1.3
		c0.2,0.5,0.3,1,0.3,1.6v19.1h11.8v-34.9h2.5V224H599.1z M597.6,204.5c0.5,0,1-0.2,1.3-0.5c0.3-0.4,0.5-0.8,0.5-1.4s-0.2-1-0.5-1.3
		c-0.3-0.4-0.8-0.5-1.3-0.5c-0.5,0-1,0.2-1.4,0.5c-0.4,0.4-0.5,0.8-0.5,1.3s0.2,1,0.5,1.4C596.6,204.4,597,204.5,597.6,204.5z"/>
	<path class="st1" d="M606.7,193.8v-9h2.5v9H606.7z"/>
	<path class="st1" d="M632.3,224l-11.8-13.1l1.7-1.7l10.5,11.5v-14.3c-0.2,0.1-0.5,0.2-0.7,0.2c-0.3,0-0.5,0-0.8,0
		c-0.6,0-1.1-0.1-1.6-0.3c-0.5-0.2-0.9-0.5-1.3-0.9c-0.4-0.4-0.7-0.8-0.9-1.3c-0.2-0.5-0.3-1-0.3-1.6c0-0.6,0.1-1.1,0.3-1.6
		c0.2-0.5,0.5-0.9,0.9-1.3c0.4-0.4,0.8-0.7,1.3-0.9c0.5-0.2,1-0.3,1.6-0.3c0.6,0,1.1,0.1,1.6,0.3c0.5,0.2,0.9,0.5,1.3,0.9
		c0.4,0.4,0.7,0.8,0.9,1.3c0.2,0.5,0.3,1,0.3,1.6V224H632.3z M631.2,204.6c0.5,0,1-0.2,1.3-0.6c0.4-0.4,0.5-0.8,0.5-1.4
		c0-0.5-0.2-1-0.5-1.4c-0.3-0.4-0.8-0.5-1.3-0.5s-1,0.2-1.4,0.5c-0.4,0.4-0.5,0.8-0.5,1.4c0,0.5,0.2,1,0.5,1.4
		C630.2,204.4,630.6,204.6,631.2,204.6z"/>
</g>
<g class="st0">
	<path class="st1" d="M18.9,304v-9.9c0-0.7-0.1-1.3-0.4-1.9c-0.3-0.6-0.7-1.1-1.3-1.6s-1.3-0.8-2.1-1.1c-0.8-0.3-1.8-0.4-2.9-0.4
		c-1,0-1.8,0.1-2.6,0.4c-0.7,0.3-1.4,0.6-1.9,1.1c-0.5,0.5-0.9,1-1.1,1.7c-0.3,0.7-0.4,1.4-0.4,2.2v1.9c0.2-0.1,0.5-0.2,0.7-0.2
		c0.2,0,0.5,0,0.8,0c0.6,0,1.1,0.1,1.6,0.3c0.5,0.2,0.9,0.5,1.3,0.9c0.4,0.4,0.7,0.8,0.9,1.3c0.2,0.5,0.3,1,0.3,1.6
		c0,0.6-0.1,1.1-0.3,1.6c-0.2,0.5-0.5,0.9-0.9,1.3c-0.4,0.4-0.8,0.7-1.3,0.9c-0.5,0.2-1,0.3-1.6,0.3c-0.6,0-1.1-0.1-1.6-0.3
		c-0.5-0.2-0.9-0.5-1.3-0.9c-0.4-0.4-0.6-0.8-0.8-1.3c-0.2-0.5-0.3-1-0.3-1.6v-5.8c0-1.1,0.2-2.1,0.6-3c0.4-0.9,1-1.7,1.8-2.4
		c0.8-0.7,1.7-1.2,2.7-1.6c1-0.4,2.2-0.6,3.5-0.6c1.5,0,2.8,0.2,3.9,0.7c1,0.4,2,1.1,2.8,1.9v-3.5c0-0.7-0.2-1.4-0.5-2
		c-0.3-0.6-0.8-1.2-1.3-1.6c-0.6-0.5-1.3-0.8-2.2-1.1c-0.9-0.3-1.8-0.4-3-0.4c-1.4,0-2.5,0.1-3.4,0.4s-1.7,0.7-2.3,1.2s-1,1-1.3,1.6
		c-0.3,0.6-0.5,1.2-0.5,1.9H2.1c0-1,0.3-1.9,0.8-2.8c0.5-0.9,1.1-1.7,2-2.3c0.8-0.7,1.9-1.2,3.1-1.6c1.2-0.4,2.6-0.6,4.1-0.6
		c1.1,0,2.1,0.1,3,0.3c0.9,0.2,1.8,0.5,2.5,0.9l3.7-3.7l1.8,1.6l-3.5,3.3c1.4,1.3,2.1,2.9,2.1,5v18H18.9z M7.7,302.1
		c0.5,0,1-0.2,1.4-0.6s0.5-0.8,0.5-1.4c0-0.5-0.2-1-0.5-1.3c-0.4-0.4-0.8-0.5-1.4-0.5s-1,0.2-1.3,0.5c-0.4,0.4-0.5,0.8-0.5,1.3
		c0,0.5,0.2,1,0.5,1.4C6.8,301.9,7.2,302.1,7.7,302.1z"/>
	<path class="st1" d="M27.6,266.6c-0.2,1.3-0.6,2.4-1.2,3.4c-0.5,1-1.3,1.9-2.1,2.6c-0.9,0.7-2,1.3-3.3,1.6s-2.8,0.6-4.6,0.6
		c-1.2,0-2.3-0.1-3.3-0.3c-1-0.2-1.9-0.5-2.7-0.9c-0.7-0.4-1.3-0.9-1.8-1.5c-0.4-0.6-0.6-1.4-0.6-2.2c0-0.7,0.1-1.2,0.4-1.7
		c0.2-0.5,0.5-0.9,0.9-1.2c0.4-0.3,0.8-0.6,1.3-0.7c0.5-0.2,1-0.2,1.5-0.2s1,0.1,1.4,0.2s0.9,0.4,1.2,0.7c0.4,0.3,0.6,0.7,0.9,1.1
		c0.2,0.5,0.3,1,0.3,1.6c0,0.7-0.2,1.3-0.5,1.8c-0.3,0.5-0.6,0.8-1,1c0.2,0.1,0.5,0.2,0.8,0.2c0.3,0.1,0.7,0.1,1.1,0.1
		c1.4,0,2.6-0.1,3.6-0.4c1-0.3,1.9-0.7,2.6-1.3c0.7-0.5,1.3-1.2,1.6-2c0.4-0.8,0.6-1.6,0.8-2.6H27.6z M12,271.7c0.5,0,1-0.2,1.3-0.5
		c0.4-0.4,0.5-0.8,0.5-1.3s-0.2-1-0.6-1.3c-0.4-0.4-0.8-0.5-1.4-0.5s-1,0.2-1.3,0.5c-0.3,0.3-0.5,0.8-0.5,1.3s0.2,1,0.6,1.3
		C11,271.6,11.5,271.7,12,271.7z"/>
	<path class="st1" d="M45.4,304v-16.2c0-1.8-0.3-3.3-0.9-4.5c-0.6-1.2-1.7-2-3.1-2.4l-3.5,2.5l-3.4-2.5c-1.4,0.4-2.4,1.2-3.1,2.4
		c-0.6,1.2-1,2.7-1,4.5v13.4l6.8-6.6c-0.4,0-0.8-0.1-1.2-0.3c-0.4-0.2-0.7-0.4-1-0.7s-0.5-0.6-0.7-1.1c-0.2-0.4-0.3-0.9-0.3-1.4
		c0-0.6,0.1-1.1,0.3-1.6s0.5-0.9,0.8-1.3c0.3-0.4,0.8-0.6,1.3-0.8c0.5-0.2,1-0.3,1.6-0.3c0.6,0,1.1,0.1,1.6,0.3
		c0.5,0.2,0.9,0.5,1.3,0.9c0.3,0.4,0.6,0.8,0.8,1.3c0.2,0.5,0.3,1,0.3,1.6c0,0.6-0.1,1.1-0.3,1.7s-0.5,1-0.9,1.4l-10,9.9h-2.8v-16.1
		c0-1.2,0.1-2.3,0.4-3.4c0.3-1,0.7-2,1.3-2.8c0.6-0.8,1.3-1.5,2.1-2c0.8-0.5,1.8-0.9,2.9-1.2l3.2,2.4l3.2-2.4
		c1.1,0.2,2.1,0.6,2.9,1.2c0.8,0.6,1.5,1.2,2.1,2c0.6,0.8,1,1.7,1.3,2.8c0.3,1,0.4,2.2,0.4,3.4V304H45.4z M38,292.8
		c0.5,0,1-0.2,1.3-0.5c0.4-0.4,0.5-0.8,0.5-1.3c0-0.5-0.2-1-0.5-1.3c-0.4-0.4-0.8-0.5-1.3-0.5s-1,0.2-1.4,0.5
		c-0.4,0.4-0.5,0.8-0.5,1.3c0,0.5,0.2,1,0.5,1.3C37,292.6,37.5,292.8,38,292.8z"/>
	<path class="st1" d="M66.7,286.3c0-0.8-0.1-1.6-0.4-2.3c-0.3-0.7-0.6-1.3-1.1-1.8c-0.5-0.5-1.1-0.9-1.9-1.1
		c-0.7-0.3-1.6-0.4-2.6-0.4c-1,0-1.8,0.2-2.6,0.5c-0.7,0.3-1.4,0.8-1.9,1.3c-0.5,0.6-0.9,1.2-1.2,2c-0.3,0.8-0.4,1.6-0.4,2.5h-2.5
		c0-1.2,0.2-2.3,0.6-3.3c0.4-1,0.9-1.9,1.7-2.7c0.7-0.8,1.6-1.4,2.7-1.8s2.2-0.7,3.6-0.7c1.4,0,2.7,0.2,3.7,0.5
		c1.1,0.4,1.9,0.9,2.7,1.5c0.7,0.7,1.3,1.5,1.6,2.4c0.4,1,0.5,2,0.5,3.2v13.9c0,0.6-0.1,1.1-0.3,1.6c-0.2,0.5-0.5,0.9-0.9,1.3
		c-0.4,0.4-0.8,0.7-1.3,0.9c-0.5,0.2-1,0.3-1.6,0.3s-1.1-0.1-1.6-0.3c-0.5-0.2-0.9-0.5-1.3-0.9c-0.4-0.4-0.7-0.8-0.9-1.3
		c-0.2-0.5-0.3-1-0.3-1.6c0-0.6,0.1-1.1,0.3-1.6c0.2-0.5,0.5-0.9,0.9-1.3c0.4-0.4,0.8-0.7,1.3-0.9c0.5-0.2,1-0.3,1.6-0.3
		c0.3,0,0.6,0,0.8,0c0.3,0,0.5,0.1,0.8,0.2V286.3z M65.1,302.1c0.5,0,1-0.2,1.4-0.6c0.4-0.4,0.5-0.8,0.5-1.4c0-0.5-0.2-1-0.5-1.3
		c-0.4-0.4-0.8-0.5-1.4-0.5s-1,0.2-1.4,0.5c-0.4,0.4-0.6,0.8-0.6,1.3c0,0.5,0.2,1,0.6,1.4S64.6,302.1,65.1,302.1z"/>
	<path class="st1" d="M64.5,266.8c0.4,0.3,0.8,0.7,1,1.1c0.3,0.4,0.4,1,0.4,1.7c0,1.1-0.3,2-1,2.6c-0.7,0.6-1.6,1-2.8,1
		c-0.6,0-1.1-0.1-1.5-0.3c-0.4-0.2-0.8-0.5-1.1-0.8c-0.3-0.3-0.5-0.7-0.7-1.2c-0.2-0.5-0.2-0.9-0.2-1.5c0-0.8,0.2-1.5,0.7-2.1
		c0.4-0.6,1-1.1,1.8-1.5l8.4-4l1.1,2.1L64.5,266.8z M62.2,271.2c0.5,0,0.9-0.2,1.2-0.5c0.3-0.3,0.4-0.7,0.4-1.2
		c0-0.5-0.1-0.8-0.4-1.2c-0.3-0.3-0.7-0.5-1.3-0.5c-0.5,0-0.9,0.2-1.2,0.5c-0.3,0.3-0.4,0.7-0.4,1.2c0,0.5,0.1,0.9,0.4,1.2
		C61.3,271.1,61.7,271.2,62.2,271.2z"/>
</g>
</svg>
