<?xml version="1.0" encoding="utf-8"?>
<!-- Generator: Adobe Illustrator 24.2.3, SVG Export Plug-In . SVG Version: 6.00 Build 0)  -->
<svg version="1.1" id="Layer_1" xmlns="http://www.w3.org/2000/svg" xmlns:xlink="http://www.w3.org/1999/xlink" x="0px" y="0px"
	 viewBox="0 0 668 307" style="enable-background:new 0 0 668 307;" xml:space="preserve">
<style type="text/css">
	.st0{enable-background:new    ;}
	.st1{fill:#F8EFD7;}
</style>
<g class="st0">
	<path class="st1" d="M5.8,20.9h2.5v17.5c0.2-0.1,0.5-0.2,0.7-0.2c0.3,0,0.5,0,0.8,0c0.6,0,1.1,0.1,1.6,0.3c0.5,0.2,0.9,0.5,1.3,0.9
		c0.4,0.4,0.7,0.8,0.9,1.3c0.2,0.5,0.3,1,0.3,1.6c0,0.6-0.1,1.1-0.3,1.6c-0.2,0.5-0.5,0.9-0.9,1.3c-0.4,0.4-0.8,0.7-1.3,0.9
		c-0.5,0.2-1,0.3-1.6,0.3c-0.6,0-1.1-0.1-1.6-0.3c-0.5-0.2-0.9-0.5-1.3-0.9c-0.4-0.4-0.7-0.8-0.9-1.3c-0.2-0.5-0.3-1-0.3-1.6V20.9z
		 M9.9,44.1c0.5,0,1-0.2,1.3-0.6s0.5-0.8,0.5-1.4c0-0.5-0.2-1-0.5-1.3c-0.4-0.4-0.8-0.5-1.3-0.5s-1,0.2-1.3,0.5
		C8.2,41.2,8,41.7,8,42.2c0,0.5,0.2,1,0.5,1.4C8.9,43.9,9.3,44.1,9.9,44.1z"/>
	<path class="st1" d="M37.4,46l-6.7-20L24,46h-2.7V28.5c-0.2,0.1-0.5,0.2-0.7,0.2c-0.3,0-0.5,0-0.8,0c-0.6,0-1.1-0.1-1.6-0.3
		c-0.5-0.2-0.9-0.5-1.3-0.9c-0.4-0.4-0.7-0.8-0.9-1.3c-0.2-0.5-0.3-1-0.3-1.6c0-0.6,0.1-1.1,0.3-1.6c0.2-0.5,0.5-0.9,0.9-1.3
		c0.4-0.4,0.8-0.7,1.3-0.9c0.5-0.2,1-0.3,1.6-0.3c0.6,0,1.1,0.1,1.6,0.3c0.5,0.2,0.9,0.5,1.3,0.9c0.4,0.4,0.7,0.8,0.9,1.3
		c0.2,0.5,0.3,1,0.3,1.6v12.4l-0.3,4.1l0.9-4l5.2-14.4h2L37,37.2l0.9,4l-0.3-4.1V20.8h2.5V46H37.4z M19.8,26.5c0.5,0,1-0.2,1.3-0.5
		c0.3-0.4,0.5-0.8,0.5-1.4s-0.2-1-0.5-1.3c-0.3-0.4-0.8-0.5-1.3-0.5c-0.5,0-1,0.2-1.4,0.5c-0.4,0.4-0.5,0.8-0.5,1.3s0.2,1,0.5,1.4
		C18.8,26.4,19.2,26.5,19.8,26.5z"/>
	<path class="st1" d="M54.7,30.6h-9.9v-1.5c0-1.2,0.2-2.2,0.6-3.3c0.4-1,0.9-1.9,1.7-2.7c0.7-0.8,1.7-1.4,2.8-1.9
		c1.1-0.5,2.4-0.7,3.8-0.7c1.2,0,2.3,0.2,3.4,0.6c1,0.4,1.9,0.9,2.7,1.6c0.8,0.7,1.3,1.5,1.8,2.5c0.4,1,0.6,2,0.6,3.2h-2.5
		c0-0.8-0.1-1.6-0.4-2.3c-0.3-0.7-0.7-1.3-1.2-1.8c-0.5-0.5-1.2-0.9-1.9-1.2c-0.8-0.3-1.6-0.4-2.6-0.4c-0.9,0-1.8,0.1-2.5,0.4
		c-0.7,0.3-1.4,0.7-1.9,1.2c-0.5,0.5-0.9,1.1-1.2,1.8c-0.3,0.7-0.4,1.5-0.4,2.3h9.8v13.7c0,0.6-0.1,1.1-0.3,1.6
		c-0.2,0.5-0.5,0.9-0.9,1.3c-0.4,0.4-0.8,0.7-1.3,0.9s-1,0.3-1.6,0.3c-0.6,0-1.1-0.1-1.6-0.3s-0.9-0.5-1.3-0.9
		c-0.4-0.4-0.7-0.8-0.9-1.3c-0.2-0.5-0.3-1-0.3-1.6c0-0.6,0.1-1.1,0.3-1.6c0.2-0.5,0.5-0.9,0.9-1.3c0.4-0.4,0.8-0.7,1.3-0.9
		c0.5-0.2,1-0.3,1.6-0.3c0.6,0,1.1,0.1,1.5,0.2V30.6z M53.2,44.1c0.5,0,1-0.2,1.4-0.6s0.5-0.8,0.5-1.4c0-0.5-0.2-1-0.5-1.3
		c-0.4-0.4-0.8-0.5-1.4-0.5s-1,0.2-1.3,0.5c-0.4,0.4-0.5,0.8-0.5,1.3c0,0.5,0.2,1,0.5,1.4C52.2,43.9,52.6,44.1,53.2,44.1z"/>
	<path class="st1" d="M79.1,46V28.8c0-0.8-0.1-1.6-0.3-2.3c-0.2-0.7-0.5-1.4-1-1.9c-0.5-0.5-1-1-1.8-1.3c-0.7-0.3-1.6-0.5-2.6-0.5
		c-0.9,0-1.8,0.1-2.4,0.4c-0.7,0.3-1.2,0.6-1.7,1.1c-0.5,0.5-0.8,1-1.1,1.6c-0.3,0.6-0.4,1.3-0.5,2h-2.5c0.1-1.1,0.3-2.1,0.7-3
		c0.4-0.9,0.9-1.7,1.6-2.3c0.7-0.7,1.5-1.2,2.5-1.5c1-0.4,2.1-0.5,3.5-0.5c1.4,0,2.7,0.2,3.7,0.6c1,0.4,1.9,1,2.5,1.7
		c0.7,0.7,1.1,1.6,1.5,2.6c0.3,1,0.5,2.1,0.5,3.3V46H79.1z"/>
	<path class="st1" d="M103.2,21.1c-0.5,2.7-1.6,4.7-3.4,6c-1.7,1.3-3.9,2-6.6,2c-2.1,0-3.7-0.4-4.9-1.2s-1.7-1.9-1.7-3.3
		c0-0.5,0.1-1,0.3-1.5c0.2-0.5,0.5-0.9,0.8-1.2s0.8-0.6,1.2-0.8s1-0.3,1.7-0.3c0.6,0,1.1,0.1,1.6,0.3c0.5,0.2,0.9,0.5,1.2,0.8
		c0.3,0.4,0.6,0.8,0.8,1.3c0.2,0.5,0.3,1,0.3,1.6c0,0.8-0.2,1.5-0.5,1.9c1.9-0.2,3.4-0.8,4.5-1.7s1.8-2.2,2.3-4H103.2z M103.2,36.9
		c-0.5,2.7-1.6,4.7-3.4,6c-1.7,1.3-3.9,2-6.6,2c-2.1,0-3.7-0.4-4.9-1.2s-1.7-1.9-1.7-3.3c0-0.5,0.1-1,0.3-1.5
		c0.2-0.5,0.5-0.9,0.8-1.2c0.3-0.3,0.8-0.6,1.2-0.8s1-0.3,1.7-0.3c0.6,0,1.1,0.1,1.6,0.3c0.5,0.2,0.9,0.5,1.2,0.8
		c0.3,0.4,0.6,0.8,0.8,1.3c0.2,0.5,0.3,1,0.3,1.5c0,0.9-0.2,1.5-0.5,2c1-0.1,1.8-0.3,2.5-0.6s1.4-0.6,1.9-1.1c0.5-0.5,1-1,1.4-1.7
		c0.4-0.7,0.7-1.4,0.9-2.3H103.2z M92.4,24.8c0-0.5-0.2-0.9-0.5-1.2c-0.3-0.3-0.7-0.5-1.2-0.5c-0.5,0-0.9,0.2-1.2,0.5
		C89.2,24,89,24.4,89,24.8c0,0.5,0.2,0.9,0.5,1.2c0.3,0.3,0.7,0.5,1.2,0.5c0.5,0,0.9-0.2,1.2-0.5C92.2,25.7,92.4,25.3,92.4,24.8z
		 M92.4,40.6c0-0.5-0.2-0.9-0.5-1.2c-0.3-0.3-0.7-0.5-1.2-0.5c-0.5,0-0.9,0.2-1.2,0.5c-0.3,0.3-0.5,0.7-0.5,1.2
		c0,0.5,0.2,0.9,0.5,1.2c0.3,0.3,0.7,0.5,1.2,0.5c0.5,0,0.9-0.2,1.2-0.5C92.2,41.5,92.4,41.1,92.4,40.6z"/>
	<path class="st1" d="M121.5,28.3c0-0.8-0.1-1.6-0.4-2.3c-0.3-0.7-0.6-1.3-1.1-1.8c-0.5-0.5-1.1-0.9-1.9-1.1
		c-0.7-0.3-1.6-0.4-2.6-0.4c-1,0-1.8,0.2-2.6,0.5c-0.7,0.3-1.4,0.8-1.9,1.3c-0.5,0.6-0.9,1.2-1.2,2c-0.3,0.8-0.4,1.6-0.4,2.5H107
		c0-1.2,0.2-2.3,0.6-3.3c0.4-1,0.9-1.9,1.7-2.7c0.7-0.8,1.6-1.4,2.7-1.8s2.2-0.7,3.6-0.7c1.4,0,2.7,0.2,3.7,0.5
		c1.1,0.4,1.9,0.9,2.7,1.5c0.7,0.7,1.3,1.5,1.6,2.4c0.4,1,0.5,2,0.5,3.2v13.9c0,0.6-0.1,1.1-0.3,1.6c-0.2,0.5-0.5,0.9-0.9,1.3
		c-0.4,0.4-0.8,0.7-1.3,0.9c-0.5,0.2-1,0.3-1.6,0.3s-1.1-0.1-1.6-0.3c-0.5-0.2-0.9-0.5-1.3-0.9c-0.4-0.4-0.7-0.8-0.9-1.3
		c-0.2-0.5-0.3-1-0.3-1.6c0-0.6,0.1-1.1,0.3-1.6c0.2-0.5,0.5-0.9,0.9-1.3c0.4-0.4,0.8-0.7,1.3-0.9c0.5-0.2,1-0.3,1.6-0.3
		c0.3,0,0.6,0,0.8,0c0.3,0,0.5,0.1,0.8,0.2V28.3z M119.9,44.1c0.5,0,1-0.2,1.4-0.6c0.4-0.4,0.5-0.8,0.5-1.4c0-0.5-0.2-1-0.5-1.3
		c-0.4-0.4-0.8-0.5-1.4-0.5s-1,0.2-1.4,0.5c-0.4,0.4-0.6,0.8-0.6,1.3c0,0.5,0.2,1,0.6,1.4S119.4,44.1,119.9,44.1z"/>
	<path class="st1" d="M121.4,15.8v-9h2.6v9H121.4z"/>
	<path class="st1" d="M142.7,46V28.8c0-0.8-0.1-1.6-0.3-2.3c-0.2-0.7-0.5-1.4-1-1.9c-0.5-0.5-1-1-1.8-1.3c-0.7-0.3-1.6-0.5-2.6-0.5
		c-0.9,0-1.8,0.1-2.4,0.4c-0.7,0.3-1.2,0.6-1.7,1.1c-0.5,0.5-0.8,1-1.1,1.6c-0.3,0.6-0.4,1.3-0.5,2h-2.5c0.1-1.1,0.3-2.1,0.7-3
		c0.4-0.9,0.9-1.7,1.6-2.3c0.7-0.7,1.5-1.2,2.5-1.5c1-0.4,2.1-0.5,3.5-0.5c1.4,0,2.7,0.2,3.7,0.6c1,0.4,1.9,1,2.5,1.7
		c0.7,0.7,1.1,1.6,1.5,2.6c0.3,1,0.5,2.1,0.5,3.3V46H142.7z"/>
	<path class="st1" d="M169.2,46V32.3c0-1.9-0.5-2.9-1.4-2.9c-0.6,0-1.3,0.7-2.1,2.1L157.5,46h-2.3V28.5c-0.2,0.1-0.5,0.2-0.7,0.2
		c-0.3,0-0.5,0-0.8,0c-0.6,0-1.1-0.1-1.6-0.3c-0.5-0.2-0.9-0.5-1.3-0.9c-0.4-0.4-0.7-0.8-0.9-1.3c-0.2-0.5-0.3-1-0.3-1.6
		c0-0.6,0.1-1.1,0.3-1.6c0.2-0.5,0.5-0.9,0.9-1.3c0.4-0.4,0.8-0.7,1.3-0.9c0.5-0.2,1-0.3,1.6-0.3c0.6,0,1.1,0.1,1.6,0.3
		c0.5,0.2,0.9,0.5,1.3,0.9c0.4,0.4,0.7,0.8,0.9,1.3c0.2,0.5,0.3,1,0.3,1.6v13.9c0,0.2,0,0.5,0,0.8c0,0.3,0,0.6,0,1
		c0,0.3,0,0.6-0.1,0.9c0,0.3-0.1,0.5-0.1,0.6l1-2.1l5.1-9.3c0.3-0.5,0.6-1,0.9-1.4c0.3-0.5,0.7-0.8,1.1-1c-0.9-0.8-1.4-1.9-1.4-3.2
		c0-0.6,0.1-1.1,0.3-1.6c0.2-0.5,0.5-0.9,0.9-1.3c0.4-0.4,0.8-0.7,1.3-0.9c0.5-0.2,1.1-0.3,1.6-0.3s1.1,0.1,1.7,0.3
		c0.5,0.2,1,0.5,1.4,0.9c0.4,0.4,0.7,0.8,0.9,1.3c0.2,0.5,0.3,1,0.3,1.6c0,1.6-0.7,2.8-2.1,3.6c0.4,0.4,0.6,0.9,0.8,1.7
		c0.2,0.7,0.2,1.5,0.2,2.4V46H169.2z M153.7,26.5c0.5,0,1-0.2,1.3-0.5c0.3-0.4,0.5-0.8,0.5-1.4s-0.2-1-0.5-1.3
		c-0.3-0.4-0.8-0.5-1.3-0.5c-0.5,0-1,0.2-1.4,0.5c-0.4,0.4-0.5,0.8-0.5,1.3s0.2,1,0.5,1.4C152.7,26.4,153.1,26.5,153.7,26.5z
		 M168.4,26.8c0.6,0,1.1-0.2,1.5-0.6c0.4-0.4,0.6-0.9,0.6-1.5c0-0.6-0.2-1.1-0.6-1.5c-0.4-0.4-0.9-0.6-1.5-0.6
		c-0.6,0-1.1,0.2-1.5,0.6c-0.4,0.4-0.6,0.9-0.6,1.5c0,0.6,0.2,1.1,0.6,1.5S167.8,26.8,168.4,26.8z"/>
	<path class="st1" d="M169,15.8v-9h2.6v9H169z"/>
	<path class="st1" d="M190.3,46V28.8c0-0.8-0.1-1.6-0.3-2.3c-0.2-0.7-0.5-1.4-1-1.9c-0.5-0.5-1-1-1.8-1.3c-0.7-0.3-1.6-0.5-2.6-0.5
		c-0.9,0-1.8,0.1-2.4,0.4c-0.7,0.3-1.2,0.6-1.7,1.1c-0.5,0.5-0.8,1-1.1,1.6c-0.3,0.6-0.4,1.3-0.5,2h-2.5c0.1-1.1,0.3-2.1,0.7-3
		c0.4-0.9,0.9-1.7,1.6-2.3c0.7-0.7,1.5-1.2,2.5-1.5c1-0.4,2.1-0.5,3.5-0.5c1.4,0,2.7,0.2,3.7,0.6c1,0.4,1.9,1,2.5,1.7
		c0.7,0.7,1.1,1.6,1.5,2.6c0.3,1,0.5,2.1,0.5,3.3V46H190.3z"/>
	<path class="st1" d="M209.2,46l-11.8-13.1l1.7-1.7l10.5,11.5V28.5c-0.2,0.1-0.5,0.2-0.7,0.2s-0.5,0-0.8,0c-0.6,0-1.1-0.1-1.6-0.3
		c-0.5-0.2-0.9-0.5-1.3-0.9c-0.4-0.4-0.7-0.8-0.9-1.3c-0.2-0.5-0.3-1-0.3-1.6c0-0.6,0.1-1.1,0.3-1.6c0.2-0.5,0.5-0.9,0.9-1.3
		c0.4-0.4,0.8-0.7,1.3-0.9c0.5-0.2,1-0.3,1.6-0.3s1.1,0.1,1.6,0.3c0.5,0.2,0.9,0.5,1.3,0.9c0.4,0.4,0.7,0.8,0.9,1.3
		c0.2,0.5,0.3,1,0.3,1.6V46H209.2z M208,26.6c0.5,0,1-0.2,1.3-0.6c0.3-0.4,0.5-0.8,0.5-1.4c0-0.5-0.2-1-0.5-1.4
		c-0.4-0.4-0.8-0.5-1.3-0.5s-1,0.2-1.4,0.5s-0.5,0.8-0.5,1.4c0,0.5,0.2,1,0.5,1.4S207.5,26.6,208,26.6z"/>
	<path class="st1" d="M230.8,46l-2.5-10.7c-0.3,0.2-0.6,0.3-0.9,0.4c-0.3,0.1-0.6,0.1-1,0.1c-0.6,0-1.1-0.1-1.6-0.3
		c-0.5-0.2-0.9-0.4-1.2-0.8c-0.3-0.3-0.6-0.7-0.8-1.2c-0.2-0.4-0.3-0.9-0.3-1.5c0-0.6,0.1-1.1,0.3-1.5c0.2-0.5,0.4-0.9,0.8-1.2
		c0.3-0.3,0.7-0.6,1.2-0.8s1-0.3,1.6-0.3c1.1,0,2,0.3,2.6,0.8c0.6,0.6,1,1.3,1.3,2.3l1.4,6.5c0,0.1,0.1,0.4,0.1,0.8
		c0.1,0.4,0.1,0.8,0.2,1.2c0.1,0.4,0.1,0.9,0.2,1.3c0.1,0.4,0.1,0.7,0.1,0.9h0c0-0.3,0-0.8,0-1.3c0-0.6,0.1-1.1,0.2-1.6
		c0.3-1.7,0.5-3.2,0.6-4.4c0.2-1.2,0.3-2.1,0.4-2.9c0.1-0.8,0.2-1.3,0.2-1.7c0-0.4,0.1-0.6,0.1-0.7c0-1-0.1-1.9-0.4-2.7
		c-0.3-0.8-0.7-1.6-1.3-2.2c-0.6-0.6-1.3-1.1-2.3-1.5c-0.9-0.4-2-0.5-3.3-0.5c-0.9,0-1.7,0.1-2.5,0.4c-0.8,0.3-1.4,0.6-2,1.1
		c-0.6,0.5-1.1,1-1.4,1.6c-0.4,0.6-0.6,1.3-0.7,2h-2.7c0.1-1.1,0.5-2.2,1-3.1c0.6-0.9,1.3-1.7,2.1-2.3c0.9-0.6,1.8-1.1,2.9-1.5
		c1.1-0.3,2.2-0.5,3.4-0.5c1.5,0,2.9,0.2,4.1,0.6c1.2,0.4,2.2,1.1,3,1.9c0.8,0.8,1.5,1.8,1.9,2.9c0.4,1.1,0.7,2.4,0.7,3.9
		c0,0.1,0,0.3,0,0.5s-0.1,0.6-0.1,1.1c-0.1,0.5-0.2,1.1-0.3,1.9c-0.1,0.8-0.3,1.7-0.5,2.9c-0.2,1.2-0.4,2.5-0.7,4.2
		c-0.3,1.6-0.6,3.5-1,5.6H230.8z M226.3,33.9c0.5,0,0.9-0.2,1.3-0.5s0.5-0.8,0.5-1.2s-0.2-0.9-0.5-1.3c-0.3-0.4-0.7-0.6-1.3-0.6
		c-0.6,0-1,0.2-1.3,0.6c-0.3,0.4-0.4,0.8-0.4,1.3s0.1,0.9,0.4,1.2S225.7,33.9,226.3,33.9z"/>
	<path class="st1" d="M254.9,46V28.8c0-0.8-0.1-1.6-0.3-2.3c-0.2-0.7-0.5-1.4-1-1.9c-0.5-0.5-1-1-1.8-1.3c-0.7-0.3-1.6-0.5-2.6-0.5
		c-0.9,0-1.8,0.1-2.4,0.4c-0.7,0.3-1.2,0.6-1.7,1.1c-0.5,0.5-0.8,1-1.1,1.6c-0.3,0.6-0.4,1.3-0.5,2h-2.5c0.1-1.1,0.3-2.1,0.7-3
		c0.4-0.9,0.9-1.7,1.6-2.3c0.7-0.7,1.5-1.2,2.5-1.5c1-0.4,2.1-0.5,3.5-0.5c1.4,0,2.7,0.2,3.7,0.6c1,0.4,1.9,1,2.5,1.7
		c0.7,0.7,1.1,1.6,1.5,2.6c0.3,1,0.5,2.1,0.5,3.3V46H254.9z"/>
	<path class="st1" d="M280.1,46V29.9c0-1.1-0.2-2-0.6-2.9c-0.4-0.9-0.9-1.6-1.6-2.2c-0.7-0.6-1.5-1.1-2.4-1.4
		c-0.9-0.3-1.9-0.5-3-0.5c-1.7,0-3.1,0.4-4.4,1.2c-1.2,0.8-2.2,1.9-2.8,3.2l2.3,2.7V46H265V30.5l-2.5-2.9c0.3-1.1,0.7-2,1.3-2.9
		c0.6-0.9,1.3-1.6,2.2-2.2c0.9-0.6,1.8-1.1,2.9-1.4c1.1-0.3,2.3-0.5,3.6-0.5c1.5,0,2.9,0.2,4.2,0.7c1.3,0.5,2.3,1.1,3.2,2
		c0.9,0.8,1.6,1.8,2.1,3s0.7,2.5,0.7,3.9V46H280.1z"/>
	<path class="st1" d="M305.2,46V29.9c0-1.1-0.2-2-0.6-2.9c-0.4-0.9-0.9-1.6-1.6-2.2c-0.7-0.6-1.5-1.1-2.4-1.4
		c-0.9-0.3-1.9-0.5-3-0.5c-1.7,0-3.1,0.4-4.4,1.2c-1.2,0.8-2.2,1.9-2.8,3.2l2.3,2.7V46h-2.5V30.5l-2.5-2.9c0.3-1.1,0.7-2,1.3-2.9
		c0.6-0.9,1.3-1.6,2.2-2.2c0.9-0.6,1.8-1.1,2.9-1.4c1.1-0.3,2.3-0.5,3.6-0.5c1.5,0,2.9,0.2,4.2,0.7c1.3,0.5,2.3,1.1,3.2,2
		c0.9,0.8,1.6,1.8,2.1,3s0.7,2.5,0.7,3.9V46H305.2z"/>
	<path class="st1" d="M322.4,30.6h-9.9v-1.5c0-1.2,0.2-2.2,0.6-3.3c0.4-1,0.9-1.9,1.7-2.7c0.7-0.8,1.7-1.4,2.8-1.9
		c1.1-0.5,2.4-0.7,3.8-0.7c1.2,0,2.3,0.2,3.4,0.6c1,0.4,1.9,0.9,2.7,1.6c0.8,0.7,1.3,1.5,1.8,2.5c0.4,1,0.6,2,0.6,3.2h-2.5
		c0-0.8-0.1-1.6-0.4-2.3c-0.3-0.7-0.7-1.3-1.2-1.8c-0.5-0.5-1.2-0.9-1.9-1.2c-0.8-0.3-1.6-0.4-2.6-0.4c-0.9,0-1.8,0.1-2.5,0.4
		c-0.7,0.3-1.4,0.7-1.9,1.2c-0.5,0.5-0.9,1.1-1.2,1.8c-0.3,0.7-0.4,1.5-0.4,2.3h9.8v13.7c0,0.6-0.1,1.1-0.3,1.6
		c-0.2,0.5-0.5,0.9-0.9,1.3c-0.4,0.4-0.8,0.7-1.3,0.9s-1,0.3-1.6,0.3c-0.6,0-1.1-0.1-1.6-0.3s-0.9-0.5-1.3-0.9
		c-0.4-0.4-0.7-0.8-0.9-1.3c-0.2-0.5-0.3-1-0.3-1.6c0-0.6,0.1-1.1,0.3-1.6c0.2-0.5,0.5-0.9,0.9-1.3c0.4-0.4,0.8-0.7,1.3-0.9
		c0.5-0.2,1-0.3,1.6-0.3c0.6,0,1.1,0.1,1.5,0.2V30.6z M320.9,44.1c0.5,0,1-0.2,1.4-0.6s0.5-0.8,0.5-1.4c0-0.5-0.2-1-0.5-1.3
		c-0.4-0.4-0.8-0.5-1.4-0.5s-1,0.2-1.3,0.5c-0.4,0.4-0.5,0.8-0.5,1.3c0,0.5,0.2,1,0.5,1.4C319.9,43.9,320.4,44.1,320.9,44.1z"/>
	<path class="st1" d="M325.9,60.4v-4.9c-0.2,0.1-0.4,0.2-0.6,0.2c-0.2,0-0.5,0.1-0.8,0.1c-0.6,0-1.1-0.1-1.6-0.3
		c-0.5-0.2-0.9-0.5-1.2-0.8c-0.3-0.3-0.6-0.7-0.8-1.2c-0.2-0.4-0.3-0.9-0.3-1.4c0-1.1,0.3-2,1-2.6c0.7-0.7,1.6-1,2.8-1
		c1.2,0,2.1,0.3,2.7,1c0.6,0.7,1,1.6,1,2.7v8.3H325.9z M324.4,53.8c0.5,0,0.9-0.2,1.2-0.5c0.3-0.3,0.4-0.7,0.4-1.1
		c0-0.5-0.1-0.8-0.4-1.1c-0.2-0.3-0.7-0.5-1.2-0.5c-0.5,0-0.9,0.2-1.2,0.5c-0.3,0.3-0.4,0.7-0.4,1.1c0,0.5,0.1,0.8,0.4,1.1
		C323.5,53.6,323.9,53.8,324.4,53.8z"/>
	<path class="st1" d="M344.5,46l-11.8-13.1l1.7-1.7l10.5,11.5V28.5c-0.2,0.1-0.5,0.2-0.7,0.2c-0.3,0-0.5,0-0.8,0
		c-0.6,0-1.1-0.1-1.6-0.3c-0.5-0.2-0.9-0.5-1.3-0.9c-0.4-0.4-0.7-0.8-0.9-1.3c-0.2-0.5-0.3-1-0.3-1.6c0-0.6,0.1-1.1,0.3-1.6
		c0.2-0.5,0.5-0.9,0.9-1.3c0.4-0.4,0.8-0.7,1.3-0.9c0.5-0.2,1-0.3,1.6-0.3c0.6,0,1.1,0.1,1.6,0.3c0.5,0.2,0.9,0.5,1.3,0.9
		c0.4,0.4,0.7,0.8,0.9,1.3c0.2,0.5,0.3,1,0.3,1.6V46H344.5z M343.3,26.6c0.5,0,1-0.2,1.3-0.6c0.3-0.4,0.5-0.8,0.5-1.4
		c0-0.5-0.2-1-0.5-1.4c-0.4-0.4-0.8-0.5-1.3-0.5s-1,0.2-1.4,0.5c-0.4,0.4-0.5,0.8-0.5,1.4c0,0.5,0.2,1,0.5,1.4
		C342.3,26.4,342.8,26.6,343.3,26.6z"/>
	<path class="st1" d="M354.7,20.9h2.5v17.5c0.2-0.1,0.5-0.2,0.7-0.2c0.3,0,0.5,0,0.8,0c0.6,0,1.1,0.1,1.6,0.3
		c0.5,0.2,0.9,0.5,1.3,0.9c0.4,0.4,0.7,0.8,0.9,1.3c0.2,0.5,0.3,1,0.3,1.6c0,0.6-0.1,1.1-0.3,1.6c-0.2,0.5-0.5,0.9-0.9,1.3
		c-0.4,0.4-0.8,0.7-1.3,0.9s-1,0.3-1.6,0.3s-1.1-0.1-1.6-0.3c-0.5-0.2-0.9-0.5-1.3-0.9c-0.4-0.4-0.7-0.8-0.9-1.3
		c-0.2-0.5-0.3-1-0.3-1.6V20.9z M358.8,44.1c0.5,0,1-0.2,1.3-0.6s0.5-0.8,0.5-1.4c0-0.5-0.2-1-0.5-1.3c-0.4-0.4-0.8-0.5-1.3-0.5
		c-0.5,0-1,0.2-1.3,0.5c-0.3,0.4-0.5,0.8-0.5,1.3c0,0.5,0.2,1,0.5,1.4S358.3,44.1,358.8,44.1z"/>
	<path class="st1" d="M384.6,46V25.5c0-0.8-0.2-1.4-0.7-1.9c-0.4-0.5-1.1-0.7-1.8-0.7c-0.6,0-1.1,0.2-1.5,0.5
		c-0.4,0.3-0.7,0.7-0.9,1.3L372.6,46h-2.4V28.5c-0.2,0.1-0.5,0.2-0.7,0.2s-0.5,0-0.8,0c-0.6,0-1.1-0.1-1.6-0.3
		c-0.5-0.2-0.9-0.5-1.3-0.9c-0.4-0.4-0.7-0.8-0.9-1.3c-0.2-0.5-0.3-1-0.3-1.6c0-0.6,0.1-1.1,0.3-1.6c0.2-0.5,0.5-0.9,0.9-1.3
		c0.4-0.4,0.8-0.7,1.3-0.9c0.5-0.2,1-0.3,1.6-0.3c0.6,0,1.1,0.1,1.6,0.3c0.5,0.2,0.9,0.5,1.3,0.9c0.4,0.4,0.7,0.8,0.9,1.3
		c0.2,0.5,0.3,1,0.3,1.6V39c0.8-2.4,1.6-4.9,2.4-7.3c0.8-2.4,1.6-4.9,2.4-7.3c0.4-1.4,1-2.3,1.7-2.9c0.7-0.6,1.7-0.9,2.9-0.9
		c0.7,0,1.4,0.1,2.1,0.4c0.6,0.2,1.2,0.6,1.6,1c0.4,0.4,0.8,0.9,1,1.5c0.2,0.6,0.4,1.3,0.4,2V46H384.6z M368.7,26.6
		c0.5,0,1-0.2,1.3-0.6s0.5-0.8,0.5-1.4c0-0.5-0.2-1-0.5-1.4s-0.8-0.5-1.3-0.5c-0.5,0-1,0.2-1.4,0.5c-0.4,0.4-0.5,0.8-0.5,1.4
		c0,0.5,0.2,1,0.5,1.4C367.7,26.4,368.2,26.6,368.7,26.6z"/>
	<path class="st1" d="M413.3,46l-6.7-20l-6.7,20h-2.7V28.5c-0.2,0.1-0.5,0.2-0.7,0.2c-0.3,0-0.5,0-0.8,0c-0.6,0-1.1-0.1-1.6-0.3
		c-0.5-0.2-0.9-0.5-1.3-0.9c-0.4-0.4-0.7-0.8-0.9-1.3c-0.2-0.5-0.3-1-0.3-1.6c0-0.6,0.1-1.1,0.3-1.6c0.2-0.5,0.5-0.9,0.9-1.3
		c0.4-0.4,0.8-0.7,1.3-0.9c0.5-0.2,1-0.3,1.6-0.3c0.6,0,1.1,0.1,1.6,0.3c0.5,0.2,0.9,0.5,1.3,0.9c0.4,0.4,0.7,0.8,0.9,1.3
		c0.2,0.5,0.3,1,0.3,1.6v12.4l-0.3,4.1l0.9-4l5.2-14.4h2l5.3,14.4l0.9,4l-0.3-4.1V20.8h2.5V46H413.3z M395.6,26.5
		c0.5,0,1-0.2,1.3-0.5c0.3-0.4,0.5-0.8,0.5-1.4s-0.2-1-0.5-1.3c-0.3-0.4-0.8-0.5-1.3-0.5c-0.5,0-1,0.2-1.4,0.5
		c-0.4,0.4-0.5,0.8-0.5,1.3s0.2,1,0.5,1.4C394.6,26.4,395.1,26.5,395.6,26.5z"/>
	<path class="st1" d="M437.4,46V25.4c0-0.7-0.1-1.2-0.2-1.5c-0.2-0.3-0.6-0.5-1.2-0.6c-0.7,2.1-1.8,3.6-3.1,4.6
		c-1.3,1-2.8,1.5-4.5,1.5c-1,0-1.8-0.1-2.6-0.3c-0.8-0.2-1.4-0.5-1.9-1c-0.5-0.4-0.9-0.9-1.2-1.5c-0.3-0.6-0.4-1.2-0.4-1.9
		c0-0.6,0.1-1.1,0.3-1.6c0.2-0.5,0.5-0.9,0.8-1.3c0.4-0.4,0.8-0.7,1.3-0.9c0.5-0.2,1-0.3,1.6-0.3c0.6,0,1.1,0.1,1.6,0.3
		c0.5,0.2,0.9,0.5,1.3,0.9c0.4,0.4,0.6,0.8,0.8,1.3s0.3,1,0.3,1.6c0,0.9-0.3,1.7-0.9,2.5c1.2-0.4,2.3-1,3.1-2c0.8-1,1.4-2.3,1.6-4
		h1.5c1.3,0,2.3,0.3,3,1c0.8,0.7,1.1,1.6,1.1,3V46H437.4z M428.2,24.8c0-0.5-0.2-1-0.5-1.4c-0.4-0.4-0.8-0.6-1.3-0.6s-1,0.2-1.3,0.6
		c-0.3,0.4-0.5,0.8-0.5,1.4s0.2,1,0.5,1.3c0.3,0.3,0.8,0.5,1.3,0.5s1-0.2,1.3-0.5C428,25.8,428.2,25.3,428.2,24.8z"/>
	<path class="st1" d="M447.4,20.9h2.5v17.5c0.2-0.1,0.5-0.2,0.7-0.2c0.3,0,0.5,0,0.8,0c0.6,0,1.1,0.1,1.6,0.3
		c0.5,0.2,0.9,0.5,1.3,0.9c0.4,0.4,0.7,0.8,0.9,1.3c0.2,0.5,0.3,1,0.3,1.6c0,0.6-0.1,1.1-0.3,1.6c-0.2,0.5-0.5,0.9-0.9,1.3
		c-0.4,0.4-0.8,0.7-1.3,0.9c-0.5,0.2-1,0.3-1.6,0.3c-0.6,0-1.1-0.1-1.6-0.3s-0.9-0.5-1.3-0.9c-0.4-0.4-0.7-0.8-0.9-1.3
		c-0.2-0.5-0.3-1-0.3-1.6V20.9z M451.5,44.1c0.5,0,1-0.2,1.3-0.6s0.5-0.8,0.5-1.4c0-0.5-0.2-1-0.5-1.3c-0.4-0.4-0.8-0.5-1.3-0.5
		c-0.5,0-1,0.2-1.3,0.5c-0.3,0.4-0.5,0.8-0.5,1.3c0,0.5,0.2,1,0.5,1.4C450.5,43.9,450.9,44.1,451.5,44.1z"/>
	<path class="st1" d="M479,46l-6.7-20l-6.7,20h-2.7V28.5c-0.2,0.1-0.5,0.2-0.7,0.2c-0.3,0-0.5,0-0.8,0c-0.6,0-1.1-0.1-1.6-0.3
		c-0.5-0.2-0.9-0.5-1.3-0.9c-0.4-0.4-0.7-0.8-0.9-1.3c-0.2-0.5-0.3-1-0.3-1.6c0-0.6,0.1-1.1,0.3-1.6c0.2-0.5,0.5-0.9,0.9-1.3
		c0.4-0.4,0.8-0.7,1.3-0.9c0.5-0.2,1-0.3,1.6-0.3c0.6,0,1.1,0.1,1.6,0.3c0.5,0.2,0.9,0.5,1.3,0.9c0.4,0.4,0.7,0.8,0.9,1.3
		c0.2,0.5,0.3,1,0.3,1.6v12.4l-0.3,4.1l0.9-4l5.2-14.4h2l5.3,14.4l0.9,4l-0.3-4.1V20.8h2.5V46H479z M461.4,26.5c0.5,0,1-0.2,1.3-0.5
		c0.3-0.4,0.5-0.8,0.5-1.4s-0.2-1-0.5-1.3c-0.3-0.4-0.8-0.5-1.3-0.5c-0.5,0-1,0.2-1.4,0.5c-0.4,0.4-0.5,0.8-0.5,1.3s0.2,1,0.5,1.4
		C460.4,26.4,460.8,26.5,461.4,26.5z"/>
	<path class="st1" d="M479.6,15.8c-1.7-0.6-3.3-1.1-4.8-1.5c-1.5-0.4-2.9-0.7-4.2-0.9c-1.3-0.2-2.5-0.4-3.6-0.4
		c-1.1-0.1-2.1-0.1-3.1-0.2c-0.5,0-0.8,0-1.2,0c-0.3,0-0.6,0-0.8,0c-0.2,0-0.4,0-0.6,0c-0.2,0-0.4,0-0.6,0.1c0.4-1.1,1-2.2,1.6-3.1
		c0.7-0.9,1.4-1.7,2.3-2.3c0.9-0.6,1.8-1.1,2.9-1.4c1.1-0.3,2.2-0.5,3.4-0.5c3.3,0,6,1.3,8.1,4v-6h2.4v12.8L479.6,15.8z M479.1,13.4
		c-0.9-1.9-1.9-3.3-3.2-4.2c-1.3-0.9-2.8-1.4-4.8-1.4c-0.7,0-1.5,0.1-2.2,0.2c-0.7,0.1-1.3,0.3-1.9,0.6c-0.6,0.3-1.1,0.6-1.6,1
		c-0.5,0.4-0.9,0.8-1.2,1.3c1.3,0,2.6,0,3.8,0.1c1.2,0.1,2.4,0.2,3.6,0.4s2.4,0.5,3.6,0.8C476.4,12.5,477.7,12.9,479.1,13.4z"/>
	<path class="st1" d="M488.5,46v-7.6c0-2.8,1.1-4.5,3.2-5.3c-1.5-0.4-2.7-1.1-3.5-2.2c-0.8-1.1-1.2-2.4-1.2-4c0-0.9,0.2-1.8,0.5-2.5
		c0.3-0.8,0.8-1.4,1.4-2c0.6-0.6,1.3-1,2.1-1.3c0.8-0.3,1.7-0.5,2.6-0.5c1.3,0,2.4,0.3,3.1,1c0.8,0.7,1.2,1.6,1.2,2.7
		c0,0.6-0.1,1.1-0.3,1.6c-0.2,0.5-0.4,0.9-0.8,1.2c-0.3,0.4-0.7,0.6-1.2,0.8c-0.5,0.2-1,0.3-1.7,0.3c-1,0-1.8-0.3-2.5-0.8
		c-0.7-0.5-1.2-1.3-1.4-2.4c-0.2,0.3-0.3,0.6-0.3,1s-0.1,0.7-0.1,1.1c0,0.7,0.1,1.3,0.3,1.9c0.2,0.5,0.5,1,0.9,1.4
		c0.4,0.4,1,0.7,1.7,0.9c0.7,0.2,1.6,0.3,2.6,0.3h2.4v2.5h-2.7c-1.2,0-2.1,0.3-2.8,1c-0.6,0.7-0.9,1.8-0.9,3.3v5.3h12.2V20.8h2.5V46
		H488.5z M495.8,24.4c0-0.5-0.2-0.9-0.5-1.3c-0.4-0.4-0.8-0.6-1.3-0.6c-0.6,0-1,0.2-1.4,0.5c-0.3,0.3-0.5,0.8-0.5,1.4
		c0,0.5,0.2,1,0.5,1.3c0.3,0.3,0.8,0.5,1.3,0.5c0.5,0,0.9-0.2,1.3-0.5C495.6,25.4,495.8,25,495.8,24.4z"/>
	<path class="st1" d="M522.2,46l-11.8-13.1l1.7-1.7l10.5,11.5V28.5c-0.2,0.1-0.5,0.2-0.7,0.2c-0.3,0-0.5,0-0.8,0
		c-0.6,0-1.1-0.1-1.6-0.3c-0.5-0.2-0.9-0.5-1.3-0.9c-0.4-0.4-0.7-0.8-0.9-1.3c-0.2-0.5-0.3-1-0.3-1.6c0-0.6,0.1-1.1,0.3-1.6
		c0.2-0.5,0.5-0.9,0.9-1.3c0.4-0.4,0.8-0.7,1.3-0.9c0.5-0.2,1-0.3,1.6-0.3c0.6,0,1.1,0.1,1.6,0.3c0.5,0.2,0.9,0.5,1.3,0.9
		c0.4,0.4,0.7,0.8,0.9,1.3c0.2,0.5,0.3,1,0.3,1.6V46H522.2z M521,26.6c0.5,0,1-0.2,1.3-0.6c0.3-0.4,0.5-0.8,0.5-1.4
		c0-0.5-0.2-1-0.5-1.4c-0.4-0.4-0.8-0.5-1.3-0.5s-1,0.2-1.4,0.5c-0.4,0.4-0.5,0.8-0.5,1.4c0,0.5,0.2,1,0.5,1.4
		C520,26.4,520.5,26.6,521,26.6z"/>
	<path class="st1" d="M532.4,20.9h2.5v17.5c0.2-0.1,0.5-0.2,0.7-0.2c0.3,0,0.5,0,0.8,0c0.6,0,1.1,0.1,1.6,0.3
		c0.5,0.2,0.9,0.5,1.3,0.9c0.4,0.4,0.7,0.8,0.9,1.3c0.2,0.5,0.3,1,0.3,1.6c0,0.6-0.1,1.1-0.3,1.6c-0.2,0.5-0.5,0.9-0.9,1.3
		c-0.4,0.4-0.8,0.7-1.3,0.9s-1,0.3-1.6,0.3s-1.1-0.1-1.6-0.3c-0.5-0.2-0.9-0.5-1.3-0.9c-0.4-0.4-0.7-0.8-0.9-1.3
		c-0.2-0.5-0.3-1-0.3-1.6V20.9z M536.5,44.1c0.5,0,1-0.2,1.3-0.6s0.5-0.8,0.5-1.4c0-0.5-0.2-1-0.5-1.3c-0.4-0.4-0.8-0.5-1.3-0.5
		c-0.5,0-1,0.2-1.3,0.5c-0.3,0.4-0.5,0.8-0.5,1.3c0,0.5,0.2,1,0.5,1.4S536,44.1,536.5,44.1z M542.9,20.9h2.5v17.5
		c0.2-0.1,0.5-0.2,0.7-0.2c0.3,0,0.5,0,0.8,0c0.6,0,1.1,0.1,1.6,0.3c0.5,0.2,0.9,0.5,1.3,0.9c0.4,0.4,0.7,0.8,0.9,1.3
		c0.2,0.5,0.3,1,0.3,1.6c0,0.6-0.1,1.1-0.3,1.6c-0.2,0.5-0.5,0.9-0.9,1.3c-0.4,0.4-0.8,0.7-1.3,0.9s-1,0.3-1.6,0.3
		c-0.6,0-1.1-0.1-1.6-0.3c-0.5-0.2-0.9-0.5-1.3-0.9c-0.4-0.4-0.7-0.8-0.9-1.3c-0.2-0.5-0.3-1-0.3-1.6V20.9z M547,44.1
		c0.5,0,1-0.2,1.3-0.6s0.5-0.8,0.5-1.4c0-0.5-0.2-1-0.5-1.3c-0.4-0.4-0.8-0.5-1.3-0.5c-0.6,0-1,0.2-1.4,0.5
		c-0.3,0.4-0.5,0.8-0.5,1.3c0,0.5,0.2,1,0.5,1.4S546.4,44.1,547,44.1z"/>
	<path class="st1" d="M572.4,46V30.3c0-1.1-0.2-2.1-0.5-3.1c-0.3-0.9-0.8-1.7-1.4-2.4c-0.6-0.7-1.4-1.2-2.3-1.5
		c-0.9-0.4-2-0.5-3.3-0.5c-1.3,0-2.4,0.2-3.3,0.5c-0.9,0.4-1.7,0.9-2.3,1.5c-0.6,0.7-1.1,1.5-1.4,2.4c-0.3,0.9-0.5,2-0.5,3.1v10.4
		l3.8-8.7c0.5-1.2,1.1-2.1,1.8-2.7c0.7-0.6,1.5-0.9,2.5-0.9c0.6,0,1.1,0.1,1.6,0.3c0.5,0.2,0.9,0.5,1.2,0.8c0.3,0.4,0.6,0.8,0.8,1.2
		c0.2,0.5,0.3,1,0.3,1.5c0,0.5-0.1,1-0.3,1.5c-0.2,0.5-0.4,0.9-0.7,1.2c-0.3,0.3-0.7,0.6-1.2,0.8c-0.5,0.2-1,0.3-1.6,0.3
		c-0.6,0-1.2-0.1-1.7-0.4c-0.5-0.3-0.9-0.6-1.2-1L557.5,46H555V30.4c0-1.5,0.2-2.9,0.7-4.1c0.4-1.2,1.1-2.2,2-3.1
		c0.9-0.9,1.9-1.5,3.1-2c1.2-0.5,2.6-0.7,4.2-0.7c1.6,0,3,0.2,4.2,0.7c1.2,0.5,2.3,1.1,3.1,2c0.9,0.9,1.5,1.9,2,3.1
		c0.5,1.2,0.7,2.6,0.7,4.1V46H572.4z M567.4,32.3c0-0.5-0.2-1-0.5-1.4c-0.3-0.4-0.8-0.6-1.4-0.6c-0.6,0-1.1,0.2-1.4,0.6
		c-0.3,0.4-0.5,0.9-0.5,1.4c0,0.5,0.2,0.9,0.5,1.3c0.3,0.4,0.8,0.5,1.4,0.5c0.6,0,1.1-0.2,1.4-0.5C567.3,33.3,567.4,32.9,567.4,32.3
		z"/>
	<path class="st1" d="M572.3,15.8v-9h2.6v9H572.3z"/>
</g>
<g class="st0">
	<path class="st1" d="M18.4,126V91.1l-9.9,4.1V90l11.3-5.2h5.1V126H18.4z"/>
	<path class="st1" d="M37.6,126c0-2.6,0.3-4.8,1-6.7c0.7-1.9,1.7-3.6,2.9-5c1.3-1.5,2.8-2.8,4.6-4c1.8-1.2,3.8-2.4,6-3.7
		c1.1-0.6,2.2-1.3,3.2-1.9s1.8-1.3,2.6-2c0.7-0.7,1.3-1.5,1.7-2.4c0.4-0.9,0.6-2,0.6-3.2c0-1.1-0.2-2.1-0.5-3
		c-0.3-0.9-0.8-1.7-1.5-2.3c-0.6-0.6-1.4-1.1-2.3-1.5s-1.9-0.5-2.9-0.5c-1.2,0-2.2,0.2-3.2,0.5c-1,0.3-1.8,0.8-2.5,1.5
		c-0.7,0.7-1.2,1.6-1.6,2.7c-0.4,1.1-0.6,2.5-0.6,4.2h-6.8c0-2.1,0.3-4,1-5.7c0.7-1.7,1.6-3.1,2.9-4.3c1.3-1.2,2.8-2.1,4.6-2.8
		c1.8-0.6,3.9-1,6.2-1s4.3,0.3,6.1,1c1.7,0.7,3.1,1.5,4.3,2.7c1.1,1.1,2,2.4,2.5,3.8c0.6,1.4,0.8,2.9,0.8,4.5c0,2-0.4,3.8-1.2,5.3
		c-0.8,1.5-1.8,2.9-3,4.2c-1.2,1.2-2.6,2.3-4.2,3.2c-1.5,0.9-3,1.8-4.5,2.6c-0.9,0.5-1.9,1-2.8,1.6c-0.9,0.6-1.8,1.2-2.6,1.9
		c-0.8,0.7-1.5,1.5-2.2,2.4c-0.6,0.9-1.1,1.9-1.4,2.9h21.6v5.2H37.6z"/>
	<path class="st1" d="M85.7,84.7c2.7,0,4.9,0.5,6.8,1.6c1.9,1,3.4,2.5,4.7,4.4c1.2,1.9,2.1,4.1,2.7,6.7c0.6,2.6,0.9,5.4,0.9,8.4
		c0,3-0.3,5.8-0.9,8.4c-0.6,2.6-1.5,4.8-2.7,6.7c-1.2,1.9-2.8,3.3-4.7,4.4c-1.9,1-4.2,1.6-6.8,1.6s-4.9-0.5-6.8-1.6
		c-1.9-1-3.4-2.5-4.7-4.4c-1.2-1.9-2.1-4.1-2.7-6.7c-0.6-2.6-0.9-5.4-0.9-8.4c0-3,0.3-5.8,0.9-8.4c0.6-2.6,1.5-4.8,2.7-6.7
		c1.2-1.9,2.8-3.3,4.7-4.4C80.8,85.3,83.1,84.7,85.7,84.7z M85.7,89.6c-2.8,0-4.9,1.4-6.4,4.1s-2.2,6.7-2.2,12
		c0,5.3,0.7,9.3,2.2,12.1s3.6,4.1,6.4,4.1s4.9-1.4,6.4-4.1s2.2-6.8,2.2-12.1c0-5.3-0.7-9.3-2.2-12S88.5,89.6,85.7,89.6z"/>
	<path class="st1" d="M146.9,126v-22.3c0-1.3-0.3-2.4-0.8-3.5c-0.5-1.1-1.2-2-2.1-2.8c-0.9-0.8-1.9-1.4-3.1-1.8
		c-1.2-0.4-2.4-0.6-3.7-0.6c-0.9,0-1.8,0.1-2.6,0.3c-0.9,0.2-1.7,0.5-2.5,0.9c-0.8,0.4-1.5,0.9-2.1,1.6c-0.6,0.6-1.2,1.3-1.6,2.2
		l3.1,3.5V126h-6v-21.3l-3.6-3.9c0.4-1.6,1.1-3,2.1-4.3c0.9-1.3,2.1-2.4,3.4-3.3c1.3-0.9,2.8-1.6,4.5-2.1c1.7-0.5,3.5-0.7,5.4-0.7
		c2.3,0,4.4,0.3,6.4,1c1.9,0.7,3.6,1.6,5,2.8c1.4,1.2,2.5,2.6,3.2,4.3c0.8,1.7,1.2,3.5,1.2,5.5v22H146.9z"/>
	<path class="st1" d="M152.8,87.3c-1.8-0.8-3.6-1.6-5.7-2.3c-2-0.7-4.1-1.3-6.3-1.8c-2.2-0.5-4.4-0.9-6.6-1.2
		c-2.3-0.3-4.5-0.4-6.7-0.4c-1.1,0-2.2,0-3.2,0.1c-1,0-2.1,0.2-3.1,0.3c1.5-3.7,3.5-6.6,6.1-8.5c2.6-1.9,5.8-2.9,9.5-2.9
		c2.3,0,4.4,0.4,6.3,1.2c1.9,0.8,3.5,2,4.9,3.4c1.4,1.5,2.5,3.2,3.3,5.3C152.1,82.6,152.6,84.8,152.8,87.3z M130.4,78
		c1.4,0,2.7,0.1,4,0.2c1.3,0.1,2.6,0.3,4,0.6c1.3,0.3,2.7,0.6,4,0.9c1.4,0.4,2.8,0.8,4.2,1.3c-0.4-0.8-1-1.6-1.6-2.3s-1.4-1.4-2.3-2
		c-0.9-0.6-1.8-1-2.8-1.4c-1-0.4-2.2-0.5-3.4-0.5c-1.9,0-3.5,0.3-4.8,0.9s-2.4,1.4-3.2,2.3H130.4z"/>
	<path class="st1" d="M172.1,113.9c0.9,0,1.7,0.2,2.5,0.5c0.8,0.3,1.4,0.8,2,1.3c0.6,0.6,1,1.2,1.3,2c0.3,0.8,0.5,1.6,0.5,2.5
		c0,0.9-0.2,1.7-0.5,2.4c-0.3,0.8-0.8,1.4-1.3,2c-0.6,0.6-1.3,1-2.1,1.3c-0.8,0.3-1.7,0.5-2.7,0.5c-1.3,0-2.3-0.2-3.2-0.6
		c-0.9-0.4-1.6-0.9-2.2-1.6c-0.6-0.7-1-1.4-1.2-2.2c-0.3-0.8-0.4-1.7-0.4-2.6V85.8c0-0.3-0.2-0.6-0.5-0.7l-9.6-4.2
		c0-1.7,0.3-3.2,1-4.6s1.5-2.5,2.6-3.5s2.4-1.7,3.8-2.2c1.4-0.5,3-0.8,4.5-0.8c1.7,0,3.2,0.2,4.7,0.6c1.5,0.4,2.8,1.1,3.9,1.9
		c1.1,0.8,2,1.9,2.6,3.1s1,2.7,1,4.3H173c0-1-0.2-1.8-0.6-2.5c-0.4-0.7-0.9-1.2-1.5-1.6c-0.6-0.4-1.3-0.7-2.1-0.9
		c-0.8-0.2-1.5-0.3-2.3-0.3c-1.6,0-2.9,0.4-4,1.3c-1.1,0.8-1.8,1.9-2.1,3.1l8.5,3.8c0.5,0.3,1,0.6,1.3,1c0.3,0.4,0.5,1,0.5,1.7v28.6
		H172.1z M174.1,120.3c0-0.7-0.2-1.3-0.7-1.7c-0.5-0.5-1-0.7-1.7-0.7c-0.7,0-1.2,0.2-1.7,0.7c-0.5,0.5-0.7,1-0.7,1.7
		c0,0.7,0.2,1.2,0.7,1.7c0.5,0.5,1,0.7,1.7,0.7c0.7,0,1.3-0.2,1.7-0.7C173.8,121.5,174.1,121,174.1,120.3z"/>
	<path class="st1" d="M204.9,126v-13.9c0-0.8-0.2-1.5-0.6-2.2c-0.4-0.7-1-1.3-1.7-1.7c-0.7-0.5-1.6-0.9-2.6-1.1s-2.1-0.4-3.2-0.4
		c-1.3,0-2.4,0.1-3.3,0.4c-0.9,0.3-1.6,0.7-2.2,1.2c-0.6,0.5-1,1.1-1.2,1.8c-0.3,0.7-0.4,1.5-0.4,2.3v1.5h1.4c0.9,0,1.7,0.2,2.5,0.5
		c0.8,0.3,1.4,0.8,2,1.3c0.6,0.6,1,1.2,1.3,2c0.3,0.8,0.5,1.6,0.5,2.5c0,0.9-0.2,1.7-0.5,2.4c-0.3,0.8-0.8,1.4-1.4,2s-1.3,1-2.1,1.3
		c-0.8,0.3-1.7,0.5-2.7,0.5c-1.3,0-2.3-0.2-3.2-0.6s-1.6-0.9-2.2-1.6c-0.6-0.6-1-1.4-1.2-2.2c-0.3-0.8-0.4-1.7-0.4-2.6v-7.1
		c0-1.5,0.3-2.9,1-4.2c0.6-1.3,1.5-2.4,2.6-3.3c1.1-0.9,2.5-1.6,4.1-2.2c1.6-0.5,3.3-0.8,5.1-0.8c1.9,0,3.6,0.3,5.1,0.8
		c1.4,0.5,2.6,1.3,3.3,2.4v-4.2c0-0.8-0.2-1.5-0.6-2.2c-0.4-0.7-0.9-1.3-1.7-1.8c-0.7-0.5-1.6-0.9-2.6-1.2c-1-0.3-2.2-0.4-3.5-0.4
		c-1.6,0-2.9,0.2-4.1,0.5c-1.1,0.3-2.1,0.7-2.8,1.3s-1.3,1.2-1.7,1.9c-0.4,0.7-0.6,1.5-0.7,2.4h-5.9c0.1-1.4,0.5-2.8,1.1-4
		s1.6-2.4,2.8-3.4c1.2-1,2.8-1.8,4.6-2.4c1.8-0.6,4-0.9,6.4-0.9c2.2,0,4.2,0.3,5.9,0.8c1.8,0.5,3.3,1.2,4.6,2.1c1.3,0.9,2.3,2,3,3.3
		c0.7,1.3,1,2.7,1,4.3V126H204.9z M193,120.2c0-0.7-0.2-1.2-0.7-1.7c-0.5-0.5-1-0.7-1.7-0.7c-0.7,0-1.2,0.2-1.7,0.7
		c-0.5,0.5-0.7,1-0.7,1.7c0,0.7,0.2,1.2,0.7,1.7c0.5,0.5,1,0.7,1.7,0.7c0.7,0,1.2-0.2,1.7-0.7C192.8,121.4,193,120.9,193,120.2z"/>
	<path class="st1" d="M227.3,113.9c0.9,0,1.7,0.2,2.5,0.5c0.8,0.3,1.4,0.8,2,1.3c0.6,0.6,1,1.2,1.3,2c0.3,0.8,0.5,1.6,0.5,2.5
		c0,0.9-0.2,1.7-0.5,2.4c-0.3,0.8-0.8,1.4-1.4,2c-0.6,0.6-1.3,1-2.1,1.3c-0.8,0.3-1.7,0.5-2.7,0.5c-1.3,0-2.3-0.2-3.2-0.6
		c-0.9-0.4-1.6-0.9-2.2-1.6c-0.6-0.7-1-1.4-1.2-2.2c-0.3-0.8-0.4-1.7-0.4-2.6V90.7h5.9v23.2H227.3z M229.3,120.3
		c0-0.7-0.2-1.3-0.7-1.7c-0.5-0.5-1-0.7-1.7-0.7c-0.7,0-1.2,0.2-1.7,0.7c-0.5,0.5-0.7,1-0.7,1.7c0,0.7,0.2,1.2,0.7,1.7
		c0.5,0.5,1,0.7,1.7,0.7c0.7,0,1.2-0.2,1.7-0.7C229.1,121.5,229.3,121,229.3,120.3z"/>
	<path class="st1" d="M262.7,126l-12.1-5.6c0,0.8-0.2,1.6-0.5,2.4c-0.3,0.7-0.8,1.4-1.4,1.9s-1.3,1-2.1,1.3
		c-0.8,0.3-1.7,0.5-2.7,0.5c-0.9,0-1.8-0.2-2.6-0.5c-0.8-0.4-1.5-0.8-2.1-1.4c-0.6-0.6-1.1-1.3-1.4-2.1s-0.5-1.7-0.5-2.5
		c0-0.9,0.2-1.8,0.5-2.6c0.4-0.8,0.8-1.5,1.5-2.2s1.3-1.1,2.1-1.5c0.8-0.4,1.7-0.5,2.6-0.5h0.8v-10.3h-1.3c-0.9,0-1.7-0.2-2.5-0.5
		c-0.8-0.3-1.4-0.8-2-1.3c-0.6-0.5-1-1.2-1.3-2c-0.3-0.8-0.5-1.6-0.5-2.5c0-0.9,0.2-1.7,0.5-2.4c0.3-0.8,0.8-1.4,1.4-2
		c0.6-0.6,1.3-1,2.1-1.3c0.8-0.3,1.7-0.5,2.7-0.5c1.2,0,2.3,0.2,3.2,0.6c0.9,0.4,1.6,0.9,2.1,1.5c0.6,0.6,1,1.4,1.2,2.2
		c0.3,0.8,0.4,1.7,0.4,2.6v18.1l12,5.5V90.7h6V126H262.7z M246.2,96.5c0-0.7-0.2-1.2-0.7-1.7c-0.5-0.5-1-0.7-1.7-0.7
		c-0.7,0-1.2,0.2-1.7,0.7c-0.5,0.5-0.7,1-0.7,1.7c0,0.7,0.2,1.2,0.7,1.7c0.5,0.5,1,0.7,1.7,0.7c0.7,0,1.2-0.2,1.7-0.7
		C246,97.8,246.2,97.2,246.2,96.5z M246.6,119.7c0-0.7-0.2-1.3-0.7-1.8c-0.5-0.5-1.1-0.7-1.8-0.7c-0.7,0-1.3,0.2-1.8,0.7
		c-0.5,0.5-0.7,1.1-0.7,1.8c0,0.7,0.2,1.3,0.7,1.8c0.5,0.5,1.1,0.7,1.8,0.7c0.7,0,1.3-0.2,1.8-0.7
		C246.4,121,246.6,120.4,246.6,119.7z"/>
	<path class="st1" d="M301.3,126v-22.2c0-1.1-0.1-2.1-0.2-3c-0.1-0.9-0.4-1.8-0.7-2.5c-0.3-0.7-0.7-1.4-1.2-1.9
		c-0.5-0.5-1.2-0.9-1.9-1.2l-5.2,3.6l-5.1-3.6c-0.8,0.3-1.4,0.7-1.9,1.2c-0.5,0.5-1,1.2-1.3,1.9c-0.3,0.7-0.6,1.6-0.7,2.5
		c-0.1,0.9-0.2,1.9-0.2,3v15.8l6.7-6.1c-1.1-0.4-1.9-1.1-2.5-2.1c-0.6-1-0.9-2-0.9-3.1c0-0.8,0.1-1.6,0.4-2.3
		c0.3-0.7,0.7-1.3,1.2-1.8c0.5-0.5,1.1-0.9,1.9-1.2c0.7-0.3,1.5-0.4,2.3-0.4c0.9,0,1.7,0.1,2.4,0.4c0.7,0.3,1.3,0.7,1.9,1.2
		c0.5,0.5,0.9,1.1,1.2,1.8c0.3,0.7,0.4,1.5,0.4,2.3c0,0.7-0.1,1.3-0.3,1.9c-0.2,0.6-0.4,1.1-0.7,1.6s-0.6,0.9-0.9,1.3
		c-0.3,0.4-0.6,0.7-0.9,1l-12.6,12h-5.7v-22c0-1.7,0.2-3.2,0.6-4.8c0.4-1.5,1-2.9,1.8-4.1c0.8-1.2,1.9-2.2,3.2-3.1
		c1.3-0.9,2.9-1.5,4.7-1.8l5,4l5.2-4c1.8,0.3,3.3,0.9,4.6,1.8s2.3,1.9,3.1,3.1c0.8,1.2,1.4,2.6,1.8,4.1c0.4,1.5,0.6,3.1,0.6,4.8v22
		H301.3z M294.1,108.2c0-0.6-0.2-1.1-0.6-1.6c-0.4-0.4-1-0.6-1.6-0.6c-0.7,0-1.2,0.2-1.6,0.6c-0.4,0.4-0.6,1-0.6,1.6
		s0.2,1.1,0.6,1.6c0.4,0.4,0.9,0.6,1.6,0.6c0.7,0,1.2-0.2,1.6-0.6C293.9,109.4,294.1,108.8,294.1,108.2z"/>
	<path class="st1" d="M335.5,101.2c-0.3-2-1.1-3.5-2.4-4.5c-1.3-1-3-1.6-5.2-1.6c-1.3,0-2.4,0.2-3.4,0.6c-1,0.4-1.8,0.9-2.5,1.6
		c-0.7,0.7-1.2,1.5-1.6,2.5c-0.4,1-0.6,2.1-0.6,3.3h13.9v16.3c0,0.9-0.1,1.8-0.4,2.6c-0.3,0.8-0.7,1.6-1.2,2.2
		c-0.6,0.6-1.3,1.2-2.2,1.6s-1.9,0.6-3.2,0.6c-1,0-1.9-0.2-2.7-0.5c-0.8-0.3-1.5-0.8-2.1-1.3c-0.6-0.6-1-1.2-1.3-2
		c-0.3-0.8-0.5-1.6-0.5-2.4c0-0.9,0.2-1.7,0.5-2.5c0.3-0.8,0.7-1.4,1.3-2c0.6-0.6,1.2-1,2-1.3c0.8-0.3,1.6-0.5,2.5-0.5h1.3v-6.4h-14
		v-3c0-2.1,0.4-4,1.1-5.7c0.7-1.7,1.7-3.2,3-4.5c1.3-1.3,2.8-2.2,4.6-2.9c1.8-0.7,3.8-1,5.9-1c1.7,0,3.3,0.2,4.8,0.7
		c1.5,0.5,2.9,1.2,4.1,2.1c1.2,0.9,2.1,2,2.9,3.4c0.7,1.3,1.2,2.9,1.3,4.6H335.5z M329.3,120.3c0-0.7-0.2-1.3-0.7-1.7
		c-0.5-0.5-1-0.7-1.7-0.7c-0.7,0-1.2,0.2-1.7,0.7c-0.5,0.5-0.7,1-0.7,1.7c0,0.7,0.2,1.2,0.7,1.7c0.5,0.5,1,0.7,1.7,0.7
		c0.7,0,1.2-0.2,1.7-0.7C329.1,121.5,329.3,121,329.3,120.3z"/>
</g>
<g class="st0">
	<path class="st1" d="M375.1,126v-9.9c0-0.7-0.1-1.3-0.4-1.9c-0.3-0.6-0.7-1.1-1.3-1.6c-0.6-0.5-1.3-0.8-2.1-1.1s-1.8-0.4-2.9-0.4
		c-1,0-1.8,0.1-2.6,0.4c-0.7,0.3-1.4,0.6-1.9,1.1c-0.5,0.5-0.9,1-1.1,1.7c-0.3,0.7-0.4,1.4-0.4,2.2v1.9c0.2-0.1,0.5-0.2,0.7-0.2
		c0.2,0,0.5,0,0.8,0c0.6,0,1.1,0.1,1.6,0.3c0.5,0.2,0.9,0.5,1.3,0.9c0.4,0.4,0.7,0.8,0.9,1.3c0.2,0.5,0.3,1,0.3,1.6
		c0,0.6-0.1,1.1-0.3,1.6c-0.2,0.5-0.5,0.9-0.9,1.3c-0.4,0.4-0.8,0.7-1.3,0.9s-1,0.3-1.6,0.3s-1.1-0.1-1.6-0.3
		c-0.5-0.2-0.9-0.5-1.3-0.9c-0.4-0.4-0.6-0.8-0.8-1.3c-0.2-0.5-0.3-1-0.3-1.6v-5.8c0-1.1,0.2-2.1,0.6-3c0.4-0.9,1-1.7,1.8-2.4
		c0.8-0.7,1.7-1.2,2.7-1.6c1.1-0.4,2.2-0.6,3.5-0.6c1.5,0,2.8,0.2,3.9,0.7c1,0.4,2,1.1,2.8,1.9v-3.5c0-0.7-0.2-1.4-0.5-2
		c-0.3-0.6-0.8-1.2-1.3-1.6c-0.6-0.5-1.3-0.8-2.2-1.1c-0.9-0.3-1.8-0.4-3-0.4c-1.4,0-2.5,0.1-3.4,0.4s-1.7,0.7-2.3,1.2s-1,1-1.3,1.6
		c-0.3,0.6-0.5,1.2-0.5,1.9h-2.4c0-1,0.3-1.9,0.8-2.8c0.5-0.9,1.1-1.7,2-2.3c0.8-0.7,1.9-1.2,3.1-1.6s2.6-0.6,4.1-0.6
		c1.1,0,2.1,0.1,3,0.3c0.9,0.2,1.8,0.5,2.5,0.9l3.7-3.7l1.8,1.6l-3.5,3.3c1.4,1.3,2.1,2.9,2.1,5v18H375.1z M363.9,124.1
		c0.5,0,1-0.2,1.4-0.6c0.4-0.4,0.5-0.8,0.5-1.4c0-0.5-0.2-1-0.5-1.3c-0.4-0.4-0.8-0.5-1.4-0.5s-1,0.2-1.3,0.5
		c-0.3,0.4-0.5,0.8-0.5,1.3c0,0.5,0.2,1,0.5,1.4S363.3,124.1,363.9,124.1z"/>
	<path class="st1" d="M396.2,126v-17.2c0-0.8-0.1-1.6-0.3-2.3c-0.2-0.7-0.5-1.4-1-1.9c-0.5-0.5-1-1-1.8-1.3
		c-0.7-0.3-1.6-0.5-2.6-0.5c-0.9,0-1.8,0.1-2.4,0.4c-0.7,0.3-1.2,0.6-1.7,1.1c-0.5,0.5-0.8,1-1.1,1.6c-0.3,0.6-0.4,1.3-0.5,2h-2.5
		c0.1-1.1,0.3-2.1,0.7-3c0.4-0.9,0.9-1.7,1.6-2.3c0.7-0.7,1.5-1.2,2.5-1.5c1-0.4,2.1-0.5,3.5-0.5c1.4,0,2.7,0.2,3.7,0.6
		c1,0.4,1.9,1,2.5,1.7c0.7,0.7,1.1,1.6,1.5,2.6c0.3,1,0.5,2.1,0.5,3.3V126H396.2z"/>
	<path class="st1" d="M422.7,126l-10.7-4.6v0.8c0,0.6-0.1,1.1-0.3,1.6c-0.2,0.5-0.5,0.9-0.9,1.3c-0.4,0.4-0.8,0.7-1.3,0.9
		s-1,0.3-1.6,0.3c-0.6,0-1.1-0.1-1.6-0.3s-0.9-0.5-1.3-0.9c-0.4-0.4-0.7-0.8-0.9-1.3c-0.2-0.5-0.3-1-0.3-1.6c0-0.6,0.1-1.1,0.3-1.6
		c0.2-0.5,0.5-0.9,0.9-1.3c0.4-0.4,0.8-0.7,1.3-0.9c0.5-0.2,1-0.3,1.6-0.3c0.3,0,0.6,0,0.8,0c0.3,0,0.5,0.1,0.7,0.2v-9.9
		c-0.2,0.1-0.5,0.2-0.7,0.2c-0.3,0-0.5,0-0.8,0c-0.6,0-1.1-0.1-1.6-0.3c-0.5-0.2-0.9-0.5-1.3-0.9c-0.4-0.4-0.7-0.8-0.9-1.3
		c-0.2-0.5-0.3-1-0.3-1.6c0-0.6,0.1-1.1,0.3-1.6c0.2-0.5,0.5-0.9,0.9-1.3c0.4-0.4,0.8-0.7,1.3-0.9c0.5-0.2,1-0.3,1.6-0.3
		c0.6,0,1.1,0.1,1.6,0.3c0.5,0.2,0.9,0.5,1.3,0.9c0.4,0.4,0.7,0.8,0.9,1.3c0.2,0.5,0.3,1,0.3,1.6v14.5l10.6,4.4v-22.7h2.5V126H422.7
		z M407.9,106.5c0.5,0,1-0.2,1.3-0.5c0.4-0.4,0.5-0.8,0.5-1.4s-0.2-1-0.5-1.3c-0.4-0.4-0.8-0.5-1.3-0.5s-1,0.2-1.4,0.5
		c-0.4,0.4-0.5,0.8-0.5,1.3s0.2,1,0.5,1.4C406.9,106.4,407.4,106.5,407.9,106.5z M407.9,124.1c0.5,0,1-0.2,1.3-0.6s0.5-0.8,0.5-1.4
		c0-0.5-0.2-1-0.5-1.3c-0.4-0.4-0.8-0.5-1.3-0.5s-1,0.2-1.4,0.5c-0.4,0.4-0.5,0.8-0.5,1.3c0,0.5,0.2,1,0.5,1.4
		C406.9,123.9,407.4,124.1,407.9,124.1z"/>
	<path class="st1" d="M443.9,126v-17.2c0-0.8-0.1-1.6-0.3-2.3c-0.2-0.7-0.5-1.4-1-1.9c-0.5-0.5-1-1-1.8-1.3
		c-0.7-0.3-1.6-0.5-2.6-0.5c-0.9,0-1.8,0.1-2.4,0.4c-0.7,0.3-1.2,0.6-1.7,1.1c-0.5,0.5-0.8,1-1.1,1.6c-0.3,0.6-0.4,1.3-0.5,2h-2.5
		c0.1-1.1,0.3-2.1,0.7-3c0.4-0.9,0.9-1.7,1.6-2.3c0.7-0.7,1.5-1.2,2.5-1.5c1-0.4,2.1-0.5,3.5-0.5c1.4,0,2.7,0.2,3.7,0.6
		c1,0.4,1.9,1,2.5,1.7c0.7,0.7,1.1,1.6,1.5,2.6c0.3,1,0.5,2.1,0.5,3.3V126H443.9z"/>
	<path class="st1" d="M461,110.6h-9.9v-1.5c0-1.2,0.2-2.2,0.6-3.3c0.4-1,0.9-1.9,1.7-2.7c0.7-0.8,1.7-1.4,2.8-1.9
		c1.1-0.5,2.4-0.7,3.8-0.7c1.2,0,2.3,0.2,3.4,0.6c1,0.4,1.9,0.9,2.7,1.6c0.8,0.7,1.3,1.5,1.8,2.5c0.4,1,0.6,2,0.6,3.2H466
		c0-0.8-0.1-1.6-0.4-2.3c-0.3-0.7-0.7-1.3-1.2-1.8c-0.5-0.5-1.2-0.9-1.9-1.2c-0.8-0.3-1.6-0.4-2.6-0.4s-1.8,0.1-2.5,0.4
		c-0.7,0.3-1.4,0.7-1.9,1.2c-0.5,0.5-0.9,1.1-1.2,1.8c-0.3,0.7-0.4,1.5-0.4,2.3h9.8v13.7c0,0.6-0.1,1.1-0.3,1.6
		c-0.2,0.5-0.5,0.9-0.9,1.3c-0.4,0.4-0.8,0.7-1.3,0.9s-1,0.3-1.6,0.3c-0.6,0-1.1-0.1-1.6-0.3s-0.9-0.5-1.3-0.9
		c-0.4-0.4-0.7-0.8-0.9-1.3c-0.2-0.5-0.3-1-0.3-1.6c0-0.6,0.1-1.1,0.3-1.6c0.2-0.5,0.5-0.9,0.9-1.3c0.4-0.4,0.8-0.7,1.3-0.9
		c0.5-0.2,1-0.3,1.6-0.3c0.6,0,1.1,0.1,1.5,0.2V110.6z M459.5,124.1c0.5,0,1-0.2,1.4-0.6c0.4-0.4,0.5-0.8,0.5-1.4
		c0-0.5-0.2-1-0.5-1.3c-0.4-0.4-0.8-0.5-1.4-0.5s-1,0.2-1.3,0.5c-0.4,0.4-0.5,0.8-0.5,1.3c0,0.5,0.2,1,0.5,1.4
		C458.5,123.9,459,124.1,459.5,124.1z"/>
	<path class="st1" d="M489.4,126v-16.1c0-1-0.2-1.9-0.6-2.8c-0.4-0.9-1-1.6-1.7-2.3c-0.7-0.6-1.5-1.1-2.4-1.5
		c-0.9-0.4-1.9-0.5-3-0.5c-1.7,0-3.1,0.4-4.4,1.2c-1.2,0.8-2.2,1.9-2.8,3.2l2.3,2.7v8.5c0.2-0.1,0.5-0.2,0.7-0.2c0.3,0,0.5,0,0.8,0
		c0.6,0,1.1,0.1,1.6,0.3c0.5,0.2,0.9,0.5,1.3,0.9c0.4,0.4,0.7,0.8,0.9,1.3c0.2,0.5,0.3,1,0.3,1.6c0,0.6-0.1,1.1-0.3,1.6
		c-0.2,0.5-0.5,0.9-0.9,1.3c-0.4,0.4-0.8,0.7-1.3,0.9c-0.5,0.2-1,0.3-1.6,0.3c-0.6,0-1.1-0.1-1.6-0.3s-0.9-0.5-1.3-0.9
		c-0.4-0.4-0.7-0.8-0.9-1.3c-0.2-0.5-0.3-1-0.3-1.6v-11.7l-2.5-2.9c0.3-1.1,0.7-2,1.3-2.9c0.6-0.9,1.3-1.6,2.2-2.2
		c0.9-0.6,1.8-1.1,2.9-1.4c1.1-0.3,2.3-0.5,3.6-0.5c1.5,0,2.9,0.2,4.1,0.7c1.2,0.5,2.3,1.1,3.2,2c0.9,0.8,1.6,1.9,2.1,3
		c0.5,1.2,0.7,2.4,0.7,3.8V126H489.4z M478.4,124.1c0.5,0,1-0.2,1.4-0.6c0.4-0.4,0.5-0.8,0.5-1.4c0-0.5-0.2-1-0.5-1.3
		c-0.4-0.4-0.8-0.5-1.4-0.5s-1,0.2-1.3,0.5c-0.4,0.4-0.5,0.8-0.5,1.3c0,0.5,0.2,1,0.5,1.4S477.9,124.1,478.4,124.1z"/>
	<path class="st1" d="M499.2,100.9h2.5v17.5c0.2-0.1,0.5-0.2,0.7-0.2c0.3,0,0.5,0,0.8,0c0.6,0,1.1,0.1,1.6,0.3
		c0.5,0.2,0.9,0.5,1.3,0.9c0.4,0.4,0.7,0.8,0.9,1.3c0.2,0.5,0.3,1,0.3,1.6c0,0.6-0.1,1.1-0.3,1.6c-0.2,0.5-0.5,0.9-0.9,1.3
		c-0.4,0.4-0.8,0.7-1.3,0.9s-1,0.3-1.6,0.3s-1.1-0.1-1.6-0.3c-0.5-0.2-0.9-0.5-1.3-0.9c-0.4-0.4-0.7-0.8-0.9-1.3
		c-0.2-0.5-0.3-1-0.3-1.6V100.9z M503.3,124.1c0.5,0,1-0.2,1.3-0.6s0.5-0.8,0.5-1.4c0-0.5-0.2-1-0.5-1.3c-0.4-0.4-0.8-0.5-1.3-0.5
		c-0.5,0-1,0.2-1.3,0.5c-0.3,0.4-0.5,0.8-0.5,1.3c0,0.5,0.2,1,0.5,1.4S502.8,124.1,503.3,124.1z"/>
	<path class="st1" d="M528.7,126v-15.7c0-1.1-0.2-2.1-0.5-3.1s-0.8-1.7-1.4-2.4c-0.6-0.7-1.4-1.2-2.3-1.5c-0.9-0.4-2-0.5-3.3-0.5
		s-2.4,0.2-3.3,0.5c-0.9,0.4-1.7,0.9-2.3,1.5c-0.6,0.7-1.1,1.5-1.4,2.4s-0.5,2-0.5,3.1v12.8l6.8-7c-0.4,0-0.8-0.1-1.1-0.3
		c-0.4-0.2-0.7-0.4-1-0.7c-0.3-0.3-0.5-0.7-0.7-1.1c-0.2-0.4-0.3-0.9-0.3-1.4c0-0.6,0.1-1.1,0.3-1.6s0.5-0.9,0.8-1.3
		c0.3-0.4,0.8-0.6,1.3-0.8c0.5-0.2,1-0.3,1.6-0.3s1.1,0.1,1.6,0.3c0.5,0.2,0.9,0.5,1.3,0.9c0.3,0.4,0.6,0.8,0.8,1.3
		c0.2,0.5,0.3,1,0.3,1.6c0,0.5-0.1,1-0.3,1.6c-0.2,0.5-0.5,1-0.9,1.3l-10,10.5h-2.8v-15.6c0-1.5,0.2-2.9,0.7-4.1
		c0.4-1.2,1.1-2.2,2-3.1c0.9-0.9,1.9-1.5,3.1-2c1.2-0.5,2.6-0.7,4.2-0.7c1.6,0,3,0.2,4.2,0.7c1.2,0.5,2.3,1.1,3.1,2
		c0.9,0.9,1.5,1.9,2,3.1c0.5,1.2,0.7,2.6,0.7,4.1V126H528.7z M521.3,114.3c0.5,0,1-0.2,1.3-0.5c0.4-0.4,0.5-0.8,0.5-1.3
		c0-0.5-0.2-1-0.5-1.3c-0.4-0.4-0.8-0.5-1.3-0.5s-1,0.2-1.4,0.5c-0.4,0.4-0.5,0.8-0.5,1.3c0,0.5,0.2,1,0.5,1.3
		C520.3,114.1,520.8,114.3,521.3,114.3z"/>
	<path class="st1" d="M529.2,95.8c-1.7-0.6-3.3-1.1-4.8-1.5c-1.5-0.4-2.9-0.7-4.2-0.9c-1.3-0.2-2.5-0.4-3.6-0.5
		c-1.1-0.1-2.1-0.1-3.1-0.1c-0.5,0-0.8,0-1.2,0c-0.3,0-0.6,0-0.8,0c-0.2,0-0.4,0-0.6,0c-0.2,0-0.4,0-0.6,0.1c0.4-1.1,1-2.2,1.6-3.1
		c0.7-0.9,1.4-1.7,2.3-2.3c0.9-0.6,1.8-1.1,2.9-1.4c1.1-0.3,2.2-0.5,3.4-0.5c1.5,0,2.8,0.3,4.1,0.8c1.2,0.5,2.3,1.3,3.2,2.2
		c0.9,1,1.6,2.1,2.2,3.4c0.6,1.3,0.9,2.8,1,4.4L529.2,95.8z M528.6,93.4c-0.9-1.9-1.9-3.3-3.2-4.2c-1.3-0.9-2.8-1.4-4.8-1.4
		c-0.7,0-1.5,0.1-2.2,0.2c-0.7,0.1-1.3,0.3-1.9,0.6c-0.6,0.3-1.1,0.6-1.6,1c-0.5,0.4-0.9,0.8-1.2,1.3c1.3,0,2.6,0,3.8,0.1
		c1.2,0.1,2.4,0.2,3.6,0.4c1.2,0.2,2.4,0.5,3.6,0.8C525.9,92.5,527.2,92.9,528.6,93.4z"/>
	<path class="st1" d="M552.6,122l-8.7,4h-2.7v-17.5c-0.2,0.1-0.5,0.2-0.7,0.2c-0.3,0-0.5,0-0.8,0c-0.6,0-1.1-0.1-1.6-0.3
		c-0.5-0.2-0.9-0.5-1.3-0.9c-0.4-0.4-0.7-0.8-0.9-1.3c-0.2-0.5-0.3-1-0.3-1.6c0-0.6,0.1-1.1,0.3-1.6c0.2-0.5,0.5-0.9,0.9-1.3
		c0.4-0.4,0.8-0.7,1.3-0.9c0.5-0.2,1-0.3,1.6-0.3c0.6,0,1.1,0.1,1.6,0.3c0.5,0.2,0.9,0.5,1.3,0.9c0.4,0.4,0.7,0.8,0.9,1.3
		c0.2,0.5,0.3,1,0.3,1.6v19l11.5-5.1v-17.7h2.5v17.9c0.8,0.3,1.4,0.8,1.9,1.4c0.5,0.7,0.7,1.4,0.7,2.3c0,0.6-0.1,1.1-0.3,1.6
		c-0.2,0.5-0.5,0.9-0.8,1.2c-0.3,0.4-0.8,0.6-1.2,0.8c-0.5,0.2-1,0.3-1.5,0.3c-0.6,0-1.1-0.1-1.5-0.3c-0.5-0.2-0.9-0.4-1.2-0.8
		c-0.3-0.3-0.6-0.7-0.8-1.2c-0.2-0.5-0.3-1-0.3-1.5V122z M539.7,106.6c0.5,0,1-0.2,1.3-0.6s0.5-0.8,0.5-1.4c0-0.5-0.2-1-0.5-1.4
		s-0.8-0.5-1.3-0.5c-0.5,0-1,0.2-1.4,0.5c-0.4,0.4-0.5,0.8-0.5,1.4c0,0.5,0.2,1,0.5,1.4C538.7,106.4,539.1,106.6,539.7,106.6z
		 M556.5,124.2c0.5,0,0.9-0.2,1.2-0.5c0.3-0.3,0.5-0.7,0.5-1.2c0-0.5-0.2-0.9-0.5-1.2c-0.3-0.3-0.7-0.5-1.2-0.5
		c-0.5,0-0.9,0.2-1.2,0.5c-0.3,0.3-0.5,0.7-0.5,1.2c0,0.5,0.2,0.9,0.5,1.2C555.6,124,556,124.2,556.5,124.2z"/>
	<path class="st1" d="M582.3,126v-20.5c0-0.8-0.2-1.4-0.7-1.9c-0.4-0.5-1.1-0.7-1.8-0.7c-0.6,0-1.1,0.2-1.5,0.5
		c-0.4,0.3-0.7,0.7-0.9,1.3l-7.1,21.4H568v-17.5c-0.2,0.1-0.5,0.2-0.7,0.2c-0.3,0-0.5,0-0.8,0c-0.6,0-1.1-0.1-1.6-0.3
		c-0.5-0.2-0.9-0.5-1.3-0.9c-0.4-0.4-0.7-0.8-0.9-1.3c-0.2-0.5-0.3-1-0.3-1.6c0-0.6,0.1-1.1,0.3-1.6c0.2-0.5,0.5-0.9,0.9-1.3
		c0.4-0.4,0.8-0.7,1.3-0.9c0.5-0.2,1-0.3,1.6-0.3c0.6,0,1.1,0.1,1.6,0.3c0.5,0.2,0.9,0.5,1.3,0.9c0.4,0.4,0.7,0.8,0.9,1.3
		c0.2,0.5,0.3,1,0.3,1.6V119c0.8-2.4,1.5-4.9,2.4-7.3c0.8-2.4,1.6-4.9,2.4-7.3c0.4-1.4,1-2.3,1.7-2.9c0.7-0.6,1.7-0.9,2.9-0.9
		c0.7,0,1.4,0.1,2.1,0.4c0.6,0.2,1.2,0.6,1.6,1c0.4,0.4,0.8,0.9,1,1.5c0.2,0.6,0.4,1.3,0.4,2V126H582.3z M566.4,106.6
		c0.5,0,1-0.2,1.3-0.6s0.5-0.8,0.5-1.4c0-0.5-0.2-1-0.5-1.4s-0.8-0.5-1.3-0.5c-0.5,0-1,0.2-1.4,0.5c-0.4,0.4-0.5,0.8-0.5,1.4
		c0,0.5,0.2,1,0.5,1.4C565.4,106.4,565.9,106.6,566.4,106.6z"/>
	<path class="st1" d="M603.5,126v-17.2c0-0.8-0.1-1.6-0.3-2.3c-0.2-0.7-0.5-1.4-1-1.9c-0.5-0.5-1-1-1.8-1.3
		c-0.7-0.3-1.6-0.5-2.6-0.5c-0.9,0-1.8,0.1-2.4,0.4c-0.7,0.3-1.2,0.6-1.7,1.1c-0.5,0.5-0.8,1-1.1,1.6c-0.3,0.6-0.4,1.3-0.5,2h-2.5
		c0.1-1.1,0.3-2.1,0.7-3c0.4-0.9,0.9-1.7,1.6-2.3c0.7-0.7,1.5-1.2,2.5-1.5c1-0.4,2.1-0.5,3.5-0.5c1.4,0,2.7,0.2,3.7,0.6
		c1,0.4,1.9,1,2.5,1.7c0.7,0.7,1.1,1.6,1.5,2.6c0.3,1,0.5,2.1,0.5,3.3V126H603.5z"/>
	<path class="st1" d="M622.4,126l-11.8-13.1l1.7-1.7l10.5,11.5v-14.3c-0.2,0.1-0.5,0.2-0.7,0.2c-0.3,0-0.5,0-0.8,0
		c-0.6,0-1.1-0.1-1.6-0.3c-0.5-0.2-0.9-0.5-1.3-0.9c-0.4-0.4-0.7-0.8-0.9-1.3c-0.2-0.5-0.3-1-0.3-1.6c0-0.6,0.1-1.1,0.3-1.6
		c0.2-0.5,0.5-0.9,0.9-1.3c0.4-0.4,0.8-0.7,1.3-0.9c0.5-0.2,1-0.3,1.6-0.3c0.6,0,1.1,0.1,1.6,0.3c0.5,0.2,0.9,0.5,1.3,0.9
		c0.4,0.4,0.7,0.8,0.9,1.3c0.2,0.5,0.3,1,0.3,1.6V126H622.4z M621.2,106.6c0.5,0,1-0.2,1.3-0.6c0.3-0.4,0.5-0.8,0.5-1.4
		c0-0.5-0.2-1-0.5-1.4c-0.4-0.4-0.8-0.5-1.3-0.5s-1,0.2-1.4,0.5c-0.4,0.4-0.5,0.8-0.5,1.4c0,0.5,0.2,1,0.5,1.4
		C620.2,106.4,620.7,106.6,621.2,106.6z"/>
</g>
<g class="st0">
	<path class="st1" d="M10.3,169.2l-3.4,4.3H5.1l-4.6-8.2H3l3.2,5.9l4.5-5.9h2.1v33c0.2-0.1,0.5-0.2,0.7-0.2c0.3,0,0.5,0,0.8,0
		c0.6,0,1.1,0.1,1.6,0.3c0.5,0.2,0.9,0.5,1.3,0.9c0.4,0.4,0.7,0.8,0.9,1.3c0.2,0.5,0.3,1,0.3,1.6c0,0.6-0.1,1.1-0.3,1.6
		c-0.2,0.5-0.5,0.9-0.9,1.3c-0.4,0.4-0.8,0.7-1.3,0.9c-0.5,0.2-1,0.3-1.6,0.3s-1.1-0.1-1.6-0.3s-0.9-0.5-1.3-0.9
		c-0.4-0.4-0.7-0.8-0.9-1.3c-0.2-0.5-0.3-1-0.3-1.6V169.2z M14.4,204.1c0.5,0,1-0.2,1.4-0.6s0.5-0.8,0.5-1.4c0-0.5-0.2-1-0.5-1.3
		c-0.4-0.4-0.8-0.5-1.4-0.5c-0.6,0-1,0.2-1.4,0.5c-0.4,0.4-0.5,0.8-0.5,1.3c0,0.5,0.2,1,0.5,1.4C13.4,203.9,13.8,204.1,14.4,204.1z"
		/>
	<path class="st1" d="M25.9,206v-17.5c-0.2,0.1-0.5,0.2-0.7,0.2c-0.3,0-0.5,0-0.8,0c-0.6,0-1.1-0.1-1.6-0.3
		c-0.5-0.2-0.9-0.5-1.3-0.9c-0.4-0.4-0.7-0.8-0.9-1.3c-0.2-0.5-0.3-1-0.3-1.6c0-0.6,0.1-1.1,0.3-1.6c0.2-0.5,0.5-0.9,0.9-1.3
		c0.4-0.4,0.8-0.7,1.3-0.9c0.5-0.2,1-0.3,1.6-0.3c0.6,0,1.1,0.1,1.6,0.3c0.5,0.2,0.9,0.5,1.3,0.9c0.4,0.4,0.7,0.8,0.9,1.3
		c0.2,0.5,0.3,1,0.3,1.6v19.1h11.8v-34.9h2.5V206H25.9z M24.3,186.5c0.5,0,1-0.2,1.3-0.5c0.3-0.4,0.5-0.8,0.5-1.4s-0.2-1-0.5-1.3
		c-0.3-0.4-0.8-0.5-1.3-0.5c-0.5,0-1,0.2-1.4,0.5c-0.4,0.4-0.5,0.8-0.5,1.3s0.2,1,0.5,1.4C23.3,186.4,23.8,186.5,24.3,186.5z"/>
	<path class="st1" d="M54.5,169.2l-3.4,4.3h-1.8l-4.6-8.2h2.5l3.2,5.9l4.5-5.9h2.1v33c0.2-0.1,0.5-0.2,0.7-0.2c0.3,0,0.5,0,0.8,0
		c0.6,0,1.1,0.1,1.6,0.3c0.5,0.2,0.9,0.5,1.3,0.9c0.4,0.4,0.7,0.8,0.9,1.3c0.2,0.5,0.3,1,0.3,1.6c0,0.6-0.1,1.1-0.3,1.6
		c-0.2,0.5-0.5,0.9-0.9,1.3c-0.4,0.4-0.8,0.7-1.3,0.9c-0.5,0.2-1,0.3-1.6,0.3s-1.1-0.1-1.6-0.3s-0.9-0.5-1.3-0.9
		c-0.4-0.4-0.7-0.8-0.9-1.3c-0.2-0.5-0.3-1-0.3-1.6V169.2z M58.6,204.1c0.5,0,1-0.2,1.4-0.6s0.5-0.8,0.5-1.4c0-0.5-0.2-1-0.5-1.3
		c-0.4-0.4-0.8-0.5-1.4-0.5c-0.6,0-1,0.2-1.4,0.5c-0.4,0.4-0.5,0.8-0.5,1.3c0,0.5,0.2,1,0.5,1.4C57.6,203.9,58.1,204.1,58.6,204.1z"
		/>
	<path class="st1" d="M84,206v-15.7c0-1.1-0.2-2.1-0.5-3.1c-0.3-0.9-0.8-1.7-1.4-2.4c-0.6-0.7-1.4-1.2-2.3-1.5
		c-0.9-0.4-2-0.5-3.3-0.5s-2.4,0.2-3.3,0.5c-0.9,0.4-1.7,0.9-2.3,1.5c-0.6,0.7-1.1,1.5-1.4,2.4c-0.3,0.9-0.5,2-0.5,3.1v12.8l6.8-7
		c-0.4,0-0.8-0.1-1.1-0.3c-0.4-0.2-0.7-0.4-1-0.7c-0.3-0.3-0.5-0.7-0.7-1.1c-0.2-0.4-0.3-0.9-0.3-1.4c0-0.6,0.1-1.1,0.3-1.6
		s0.5-0.9,0.8-1.3c0.3-0.4,0.8-0.6,1.3-0.8c0.5-0.2,1-0.3,1.6-0.3c0.6,0,1.1,0.1,1.6,0.3c0.5,0.2,0.9,0.5,1.3,0.9
		c0.3,0.4,0.6,0.8,0.8,1.3c0.2,0.5,0.3,1,0.3,1.6c0,0.5-0.1,1-0.3,1.6c-0.2,0.5-0.5,1-0.9,1.3l-10,10.5h-2.8v-15.6
		c0-1.5,0.2-2.9,0.7-4.1c0.4-1.2,1.1-2.2,2-3.1c0.9-0.9,1.9-1.5,3.1-2c1.2-0.5,2.6-0.7,4.2-0.7c1.6,0,3,0.2,4.2,0.7
		c1.2,0.5,2.3,1.1,3.1,2c0.9,0.9,1.5,1.9,2,3.1c0.5,1.2,0.7,2.6,0.7,4.1V206H84z M76.6,194.3c0.5,0,1-0.2,1.3-0.5
		c0.4-0.4,0.5-0.8,0.5-1.3c0-0.5-0.2-1-0.5-1.3c-0.4-0.4-0.8-0.5-1.3-0.5s-1,0.2-1.4,0.5c-0.4,0.4-0.5,0.8-0.5,1.3
		c0,0.5,0.2,1,0.5,1.3C75.6,194.1,76.1,194.3,76.6,194.3z"/>
	<path class="st1" d="M89.7,165.1c0,1.7-0.4,3.3-1.1,4.6c-0.7,1.3-1.7,2.5-2.9,3.4c-1.2,0.9-2.6,1.6-4.2,2.1c-1.6,0.5-3.3,0.7-5,0.7
		c-0.4,0-0.7,0-0.9,0c-0.3,0-0.5,0-0.6,0v-1.6c0.5-0.2,0.9-0.6,1.3-1s0.6-0.8,0.8-1.3c-0.1,0-0.3,0-0.4,0c-0.1,0-0.3,0-0.4,0
		c-0.6,0-1.2-0.1-1.6-0.3c-0.5-0.2-0.8-0.4-1.1-0.8c-0.3-0.3-0.5-0.7-0.7-1.1c-0.1-0.4-0.2-0.9-0.2-1.4c0-0.5,0.1-1,0.3-1.5
		c0.2-0.4,0.5-0.8,0.8-1.2c0.3-0.3,0.7-0.6,1.2-0.8c0.5-0.2,0.9-0.3,1.5-0.3c0.6,0,1.2,0.1,1.7,0.3c0.5,0.2,0.9,0.5,1.2,0.9
		c0.3,0.4,0.6,0.8,0.7,1.3c0.2,0.5,0.2,1.1,0.2,1.7c0,1-0.2,2-0.7,2.8c-0.5,0.9-1,1.6-1.7,2.2c1.4-0.1,2.6-0.3,3.8-0.8
		c1.2-0.4,2.2-1,3.1-1.8c0.9-0.8,1.6-1.7,2.1-2.7c0.5-1.1,0.8-2.3,0.8-3.6H89.7z M78,168.5c0-0.5-0.2-1-0.5-1.3s-0.8-0.5-1.3-0.5
		c-0.5,0-1,0.2-1.3,0.5s-0.5,0.8-0.5,1.3c0,0.6,0.2,1,0.5,1.3c0.3,0.3,0.8,0.5,1.3,0.5c0.6,0,1-0.2,1.3-0.5S78,169,78,168.5z"/>
	<path class="st1" d="M102.9,206L91,192.9l1.7-1.7l10.5,11.5v-14.3c-0.2,0.1-0.5,0.2-0.7,0.2s-0.5,0-0.8,0c-0.6,0-1.1-0.1-1.6-0.3
		c-0.5-0.2-0.9-0.5-1.3-0.9c-0.4-0.4-0.7-0.8-0.9-1.3c-0.2-0.5-0.3-1-0.3-1.6c0-0.6,0.1-1.1,0.3-1.6c0.2-0.5,0.5-0.9,0.9-1.3
		c0.4-0.4,0.8-0.7,1.3-0.9c0.5-0.2,1-0.3,1.6-0.3s1.1,0.1,1.6,0.3c0.5,0.2,0.9,0.5,1.3,0.9c0.4,0.4,0.7,0.8,0.9,1.3
		c0.2,0.5,0.3,1,0.3,1.6V206H102.9z M101.7,186.6c0.5,0,1-0.2,1.3-0.6c0.3-0.4,0.5-0.8,0.5-1.4c0-0.5-0.2-1-0.5-1.4
		c-0.4-0.4-0.8-0.5-1.3-0.5s-1,0.2-1.4,0.5s-0.5,0.8-0.5,1.4c0,0.5,0.2,1,0.5,1.4S101.2,186.6,101.7,186.6z"/>
	<path class="st1" d="M103.2,175.8v-9h2.6v9H103.2z"/>
	<path class="st1" d="M124.5,206v-17.2c0-0.8-0.1-1.6-0.3-2.3c-0.2-0.7-0.5-1.4-1-1.9c-0.5-0.5-1-1-1.8-1.3
		c-0.7-0.3-1.6-0.5-2.6-0.5c-0.9,0-1.8,0.1-2.4,0.4c-0.7,0.3-1.2,0.6-1.7,1.1c-0.5,0.5-0.8,1-1.1,1.6c-0.3,0.6-0.4,1.3-0.5,2h-2.5
		c0.1-1.1,0.3-2.1,0.7-3c0.4-0.9,0.9-1.7,1.6-2.3c0.7-0.7,1.5-1.2,2.5-1.5c1-0.4,2.1-0.5,3.5-0.5c1.4,0,2.7,0.2,3.7,0.6
		c1,0.4,1.9,1,2.5,1.7c0.7,0.7,1.1,1.6,1.5,2.6c0.3,1,0.5,2.1,0.5,3.3V206H124.5z"/>
	<path class="st1" d="M133.9,206v-7.6c0-2.8,1.1-4.5,3.2-5.3c-1.5-0.4-2.7-1.1-3.5-2.2c-0.8-1.1-1.2-2.4-1.2-4
		c0-0.9,0.2-1.8,0.5-2.5c0.3-0.8,0.8-1.4,1.4-2c0.6-0.6,1.3-1,2.1-1.3c0.8-0.3,1.7-0.5,2.6-0.5c1.3,0,2.4,0.3,3.1,1
		c0.8,0.7,1.2,1.6,1.2,2.7c0,0.6-0.1,1.1-0.3,1.6c-0.2,0.5-0.4,0.9-0.8,1.2c-0.3,0.4-0.7,0.6-1.2,0.8c-0.5,0.2-1,0.3-1.7,0.3
		c-1,0-1.8-0.3-2.5-0.8c-0.7-0.5-1.2-1.3-1.4-2.4c-0.2,0.3-0.3,0.6-0.3,1c-0.1,0.3-0.1,0.7-0.1,1.1c0,0.7,0.1,1.3,0.3,1.9
		c0.2,0.5,0.5,1,0.9,1.4c0.4,0.4,1,0.7,1.7,0.9c0.7,0.2,1.6,0.3,2.6,0.3h2.4v2.5h-2.7c-1.2,0-2.1,0.3-2.8,1
		c-0.6,0.7-0.9,1.8-0.9,3.3v5.3h12.2v-22.9h2.5V206H133.9z M141.1,184.4c0-0.5-0.2-0.9-0.5-1.3c-0.4-0.4-0.8-0.6-1.3-0.6
		c-0.6,0-1,0.2-1.4,0.5c-0.3,0.3-0.5,0.8-0.5,1.4c0,0.5,0.2,1,0.5,1.3c0.3,0.3,0.8,0.5,1.3,0.5c0.5,0,0.9-0.2,1.3-0.5
		C140.9,185.4,141.1,185,141.1,184.4z"/>
	<path class="st1" d="M175.7,171.3c0-1.3-0.3-2.3-1-3c-0.7-0.7-1.7-1.1-3-1.1c-0.7,0-1.4,0.2-2,0.7c-0.6,0.5-1,1.1-1.2,2
		c0.2-0.2,0.5-0.4,0.9-0.6c0.3-0.2,0.7-0.2,1.2-0.2c0.6,0,1.1,0.1,1.6,0.3s0.9,0.5,1.2,0.8c0.3,0.3,0.6,0.7,0.8,1.2
		c0.2,0.5,0.3,0.9,0.3,1.5c0,1.1-0.3,2-1,2.6c-0.7,0.7-1.6,1-2.8,1c-0.7,0-1.4-0.1-1.9-0.4c-0.6-0.3-1-0.7-1.4-1.2s-0.7-1.1-0.9-1.7
		c-0.2-0.7-0.3-1.3-0.3-2.1c0-0.8,0.2-1.6,0.5-2.4c0.3-0.7,0.7-1.3,1.3-1.9c0.5-0.5,1.2-0.9,1.9-1.2c0.8-0.3,1.6-0.5,2.4-0.5
		c0.9,0,1.8,0.2,2.5,0.5c0.7,0.3,1.4,0.7,1.9,1.3s0.9,1.2,1.2,1.9c0.3,0.7,0.4,1.5,0.4,2.4v27.2c0.2-0.1,0.5-0.2,0.7-0.2
		c0.3,0,0.5,0,0.8,0c0.6,0,1.1,0.1,1.6,0.3c0.5,0.2,0.9,0.5,1.3,0.9c0.4,0.4,0.7,0.8,0.9,1.3c0.2,0.5,0.3,1,0.3,1.6
		c0,0.6-0.1,1.1-0.3,1.6c-0.2,0.5-0.5,0.9-0.9,1.3c-0.4,0.4-0.8,0.7-1.3,0.9c-0.5,0.2-1,0.3-1.6,0.3c-0.6,0-1.1-0.1-1.6-0.3
		c-0.5-0.2-0.9-0.5-1.3-0.9c-0.4-0.4-0.7-0.8-0.9-1.3c-0.2-0.5-0.3-1-0.3-1.6V171.3z M170.7,174.6c0.5,0,0.9-0.2,1.2-0.5
		c0.3-0.4,0.5-0.8,0.5-1.3c0-0.5-0.1-0.9-0.4-1.2c-0.3-0.4-0.7-0.5-1.3-0.5c-0.5,0-0.9,0.2-1.2,0.5c-0.3,0.4-0.4,0.8-0.4,1.2
		c0,0.5,0.1,0.9,0.4,1.3C169.8,174.4,170.2,174.6,170.7,174.6z M181.7,202.2c0-0.5-0.2-1-0.6-1.3c-0.4-0.4-0.8-0.5-1.4-0.5
		s-1,0.2-1.3,0.5c-0.4,0.4-0.5,0.8-0.5,1.3c0,0.5,0.2,1,0.5,1.4c0.4,0.4,0.8,0.6,1.3,0.6s1-0.2,1.4-0.6S181.7,202.7,181.7,202.2z"/>
	<path class="st1" d="M195.2,206v-19.9c0-1.2-0.3-2.1-0.8-2.7c-0.5-0.6-1.4-0.9-2.6-0.9c-0.8,0-1.4,0.2-1.9,0.5
		c-0.5,0.3-0.8,0.8-1,1.4c0.1,0,0.2-0.1,0.5-0.1c0.2,0,0.4,0,0.6,0c0.6,0,1.2,0.1,1.6,0.3c0.5,0.2,0.9,0.5,1.2,0.8
		c0.3,0.3,0.6,0.7,0.7,1.2c0.2,0.5,0.2,0.9,0.2,1.5c0,0.6-0.1,1.1-0.3,1.5c-0.2,0.5-0.4,0.9-0.8,1.2c-0.3,0.3-0.7,0.6-1.2,0.8
		c-0.5,0.2-1,0.3-1.5,0.3c-0.6,0-1.2-0.1-1.7-0.4c-0.5-0.2-0.9-0.6-1.3-1c-0.4-0.4-0.6-0.9-0.8-1.5c-0.2-0.6-0.3-1.2-0.3-1.9
		c0-0.9,0.1-1.8,0.4-2.6c0.3-0.8,0.7-1.5,1.2-2.1c0.5-0.6,1.2-1,1.9-1.3c0.7-0.3,1.6-0.5,2.5-0.5c0.8,0,1.6,0.1,2.3,0.4
		c0.7,0.2,1.3,0.6,1.8,1.1c0.5,0.5,0.9,1,1.2,1.7c0.3,0.7,0.4,1.5,0.4,2.4v17.6h5.3v-13.5c0-0.7-0.1-1.3-0.2-1.8
		c-0.1-0.5-0.3-1-0.6-1.3c-0.3-0.4-0.6-0.7-1-1c-0.4-0.3-0.9-0.5-1.4-0.8l6.6-7.2l1.8,1.6l-4.9,5.3c0.7,0.5,1.3,1.2,1.7,1.9
		c0.4,0.8,0.6,1.8,0.6,3v16H195.2z M190,189.9c0.5,0,0.9-0.2,1.2-0.5c0.3-0.4,0.5-0.8,0.5-1.3c0-0.5-0.2-1-0.5-1.3
		c-0.3-0.3-0.7-0.5-1.3-0.5c-0.6,0-1,0.2-1.3,0.5s-0.5,0.8-0.5,1.3c0,0.5,0.2,1,0.5,1.3C189,189.7,189.4,189.9,190,189.9z"/>
	<path class="st1" d="M208.7,165.1c0,1.7-0.4,3.3-1.1,4.6c-0.7,1.3-1.7,2.5-2.9,3.4c-1.2,0.9-2.6,1.6-4.2,2.1
		c-1.6,0.5-3.3,0.7-5,0.7c-0.4,0-0.7,0-0.9,0c-0.3,0-0.5,0-0.6,0v-1.6c0.5-0.2,0.9-0.6,1.3-1s0.6-0.8,0.8-1.3c-0.1,0-0.3,0-0.4,0
		c-0.1,0-0.3,0-0.4,0c-0.6,0-1.2-0.1-1.6-0.3c-0.5-0.2-0.8-0.4-1.1-0.8c-0.3-0.3-0.5-0.7-0.7-1.1c-0.1-0.4-0.2-0.9-0.2-1.4
		c0-0.5,0.1-1,0.3-1.5c0.2-0.4,0.5-0.8,0.8-1.2c0.3-0.3,0.7-0.6,1.2-0.8c0.5-0.2,0.9-0.3,1.5-0.3c0.6,0,1.2,0.1,1.7,0.3
		c0.5,0.2,0.9,0.5,1.2,0.9c0.3,0.4,0.6,0.8,0.7,1.3c0.2,0.5,0.2,1.1,0.2,1.7c0,1-0.2,2-0.7,2.8c-0.5,0.9-1,1.6-1.7,2.2
		c1.4-0.1,2.6-0.3,3.8-0.8c1.2-0.4,2.2-1,3.1-1.8c0.9-0.8,1.6-1.7,2.1-2.7c0.5-1.1,0.8-2.3,0.8-3.6H208.7z M197,168.5
		c0-0.5-0.2-1-0.5-1.3s-0.8-0.5-1.3-0.5c-0.5,0-1,0.2-1.3,0.5s-0.5,0.8-0.5,1.3c0,0.6,0.2,1,0.5,1.3c0.3,0.3,0.8,0.5,1.3,0.5
		c0.6,0,1-0.2,1.3-0.5S197,169,197,168.5z"/>
	<path class="st1" d="M212.8,180.9h2.5v17.5c0.2-0.1,0.5-0.2,0.7-0.2c0.3,0,0.5,0,0.8,0c0.6,0,1.1,0.1,1.6,0.3
		c0.5,0.2,0.9,0.5,1.3,0.9c0.4,0.4,0.7,0.8,0.9,1.3c0.2,0.5,0.3,1,0.3,1.6c0,0.6-0.1,1.1-0.3,1.6c-0.2,0.5-0.5,0.9-0.9,1.3
		c-0.4,0.4-0.8,0.7-1.3,0.9c-0.5,0.2-1,0.3-1.6,0.3c-0.6,0-1.1-0.1-1.6-0.3c-0.5-0.2-0.9-0.5-1.3-0.9c-0.4-0.4-0.7-0.8-0.9-1.3
		c-0.2-0.5-0.3-1-0.3-1.6V180.9z M216.9,204.1c0.5,0,1-0.2,1.3-0.6s0.5-0.8,0.5-1.4c0-0.5-0.2-1-0.5-1.3c-0.4-0.4-0.8-0.5-1.3-0.5
		s-1,0.2-1.3,0.5c-0.3,0.4-0.5,0.8-0.5,1.3c0,0.5,0.2,1,0.5,1.4C216,203.9,216.4,204.1,216.9,204.1z"/>
	<path class="st1" d="M237.2,188.3c0-0.8-0.1-1.6-0.4-2.3c-0.3-0.7-0.6-1.3-1.1-1.8c-0.5-0.5-1.1-0.9-1.9-1.1
		c-0.7-0.3-1.6-0.4-2.6-0.4c-1,0-1.8,0.2-2.6,0.5c-0.7,0.3-1.4,0.8-1.9,1.3c-0.5,0.6-0.9,1.2-1.2,2c-0.3,0.8-0.4,1.6-0.4,2.5h-2.5
		c0-1.2,0.2-2.3,0.6-3.3c0.4-1,0.9-1.9,1.7-2.7c0.7-0.8,1.6-1.4,2.7-1.8s2.2-0.7,3.6-0.7c1.4,0,2.7,0.2,3.7,0.5
		c1.1,0.4,1.9,0.9,2.7,1.5c0.7,0.7,1.3,1.5,1.6,2.4c0.4,1,0.5,2,0.5,3.2v13.9c0,0.6-0.1,1.1-0.3,1.6c-0.2,0.5-0.5,0.9-0.9,1.3
		c-0.4,0.4-0.8,0.7-1.3,0.9c-0.5,0.2-1,0.3-1.6,0.3s-1.1-0.1-1.6-0.3c-0.5-0.2-0.9-0.5-1.3-0.9c-0.4-0.4-0.7-0.8-0.9-1.3
		c-0.2-0.5-0.3-1-0.3-1.6c0-0.6,0.1-1.1,0.3-1.6c0.2-0.5,0.5-0.9,0.9-1.3c0.4-0.4,0.8-0.7,1.3-0.9c0.5-0.2,1-0.3,1.6-0.3
		c0.3,0,0.6,0,0.8,0c0.3,0,0.5,0.1,0.8,0.2V188.3z M235.6,204.1c0.5,0,1-0.2,1.4-0.6c0.4-0.4,0.5-0.8,0.5-1.4c0-0.5-0.2-1-0.5-1.3
		c-0.4-0.4-0.8-0.5-1.4-0.5s-1,0.2-1.4,0.5c-0.4,0.4-0.6,0.8-0.6,1.3c0,0.5,0.2,1,0.6,1.4S235,204.1,235.6,204.1z"/>
	<path class="st1" d="M262.1,206v-9.9c0-0.7-0.1-1.3-0.4-1.9c-0.3-0.6-0.7-1.1-1.3-1.6c-0.6-0.5-1.3-0.8-2.1-1.1
		c-0.8-0.3-1.8-0.4-2.9-0.4c-1,0-1.8,0.1-2.6,0.4c-0.7,0.3-1.4,0.6-1.9,1.1c-0.5,0.5-0.9,1-1.1,1.7c-0.3,0.7-0.4,1.4-0.4,2.2v1.9
		c0.2-0.1,0.5-0.2,0.7-0.2c0.2,0,0.5,0,0.8,0c0.6,0,1.1,0.1,1.6,0.3c0.5,0.2,0.9,0.5,1.3,0.9c0.4,0.4,0.7,0.8,0.9,1.3
		c0.2,0.5,0.3,1,0.3,1.6c0,0.6-0.1,1.1-0.3,1.6c-0.2,0.5-0.5,0.9-0.9,1.3c-0.4,0.4-0.8,0.7-1.3,0.9c-0.5,0.2-1,0.3-1.6,0.3
		c-0.6,0-1.1-0.1-1.6-0.3c-0.5-0.2-0.9-0.5-1.3-0.9c-0.4-0.4-0.6-0.8-0.8-1.3c-0.2-0.5-0.3-1-0.3-1.6v-5.8c0-1.1,0.2-2.1,0.6-3
		c0.4-0.9,1-1.7,1.8-2.4c0.8-0.7,1.7-1.2,2.7-1.6c1-0.4,2.2-0.6,3.5-0.6c1.5,0,2.8,0.2,3.9,0.7c1,0.4,2,1.1,2.8,1.9v-3.5
		c0-0.7-0.2-1.4-0.5-2c-0.3-0.6-0.8-1.2-1.3-1.6c-0.6-0.5-1.3-0.8-2.2-1.1c-0.9-0.3-1.8-0.4-3-0.4c-1.4,0-2.5,0.1-3.4,0.4
		s-1.7,0.7-2.3,1.2s-1,1-1.3,1.6c-0.3,0.6-0.5,1.2-0.6,1.9h-2.4c0-1,0.3-1.9,0.8-2.8c0.5-0.9,1.1-1.7,2-2.3c0.8-0.7,1.9-1.2,3.1-1.6
		c1.2-0.4,2.6-0.6,4.1-0.6c1.4,0,2.7,0.2,3.9,0.5c1.2,0.4,2.2,0.9,3,1.5s1.5,1.4,1.9,2.4c0.5,0.9,0.7,1.9,0.7,3.1v18H262.1z
		 M250.9,204.1c0.5,0,1-0.2,1.4-0.6s0.5-0.8,0.5-1.4c0-0.5-0.2-1-0.5-1.3c-0.4-0.4-0.8-0.5-1.4-0.5s-1,0.2-1.3,0.5
		c-0.4,0.4-0.5,0.8-0.5,1.3c0,0.5,0.2,1,0.5,1.4C249.9,203.9,250.4,204.1,250.9,204.1z"/>
	<path class="st1" d="M283.3,206v-17.2c0-0.8-0.1-1.6-0.3-2.3c-0.2-0.7-0.5-1.4-1-1.9c-0.5-0.5-1-1-1.8-1.3
		c-0.7-0.3-1.6-0.5-2.6-0.5c-0.9,0-1.8,0.1-2.4,0.4c-0.7,0.3-1.2,0.6-1.7,1.1c-0.5,0.5-0.8,1-1.1,1.6c-0.3,0.6-0.4,1.3-0.5,2h-2.5
		c0.1-1.1,0.3-2.1,0.7-3c0.4-0.9,0.9-1.7,1.6-2.3c0.7-0.7,1.5-1.2,2.5-1.5c1-0.4,2.1-0.5,3.5-0.5c1.4,0,2.7,0.2,3.7,0.6
		c1,0.4,1.9,1,2.5,1.7c0.7,0.7,1.1,1.6,1.5,2.6c0.3,1,0.5,2.1,0.5,3.3V206H283.3z"/>
	<path class="st1" d="M297.5,171.3c0-1.3-0.3-2.3-1-3c-0.7-0.7-1.7-1.1-3-1.1c-0.7,0-1.4,0.2-2,0.7c-0.6,0.5-1,1.1-1.2,2
		c0.2-0.2,0.5-0.4,0.9-0.6c0.3-0.2,0.7-0.2,1.2-0.2c0.6,0,1.1,0.1,1.6,0.3s0.9,0.5,1.2,0.8c0.3,0.3,0.6,0.7,0.8,1.2
		c0.2,0.5,0.3,0.9,0.3,1.5c0,1.1-0.3,2-1,2.6c-0.7,0.7-1.6,1-2.8,1c-0.7,0-1.4-0.1-1.9-0.4c-0.6-0.3-1-0.7-1.4-1.2s-0.7-1.1-0.9-1.7
		c-0.2-0.7-0.3-1.3-0.3-2.1c0-0.8,0.2-1.6,0.5-2.4c0.3-0.7,0.7-1.3,1.3-1.9c0.5-0.5,1.2-0.9,1.9-1.2c0.8-0.3,1.6-0.5,2.4-0.5
		c0.9,0,1.8,0.2,2.5,0.5c0.7,0.3,1.4,0.7,1.9,1.3s0.9,1.2,1.2,1.9c0.3,0.7,0.4,1.5,0.4,2.4v27.2c0.2-0.1,0.5-0.2,0.7-0.2
		c0.3,0,0.5,0,0.8,0c0.6,0,1.1,0.1,1.6,0.3c0.5,0.2,0.9,0.5,1.3,0.9c0.4,0.4,0.7,0.8,0.9,1.3c0.2,0.5,0.3,1,0.3,1.6
		c0,0.6-0.1,1.1-0.3,1.6c-0.2,0.5-0.5,0.9-0.9,1.3c-0.4,0.4-0.8,0.7-1.3,0.9c-0.5,0.2-1,0.3-1.6,0.3c-0.6,0-1.1-0.1-1.6-0.3
		c-0.5-0.2-0.9-0.5-1.3-0.9c-0.4-0.4-0.7-0.8-0.9-1.3c-0.2-0.5-0.3-1-0.3-1.6V171.3z M292.4,174.6c0.5,0,0.9-0.2,1.2-0.5
		c0.3-0.4,0.5-0.8,0.5-1.3c0-0.5-0.1-0.9-0.4-1.2c-0.3-0.4-0.7-0.5-1.3-0.5c-0.5,0-0.9,0.2-1.2,0.5c-0.3,0.4-0.4,0.8-0.4,1.2
		c0,0.5,0.1,0.9,0.4,1.3C291.5,174.4,291.9,174.6,292.4,174.6z M303.5,202.2c0-0.5-0.2-1-0.6-1.3c-0.4-0.4-0.8-0.5-1.4-0.5
		s-1,0.2-1.3,0.5c-0.4,0.4-0.5,0.8-0.5,1.3c0,0.5,0.2,1,0.5,1.4c0.4,0.4,0.8,0.6,1.3,0.6s1-0.2,1.4-0.6S303.5,202.7,303.5,202.2z"/>
	<path class="st1" d="M324.4,202l-8.7,4H313v-17.5c-0.2,0.1-0.5,0.2-0.7,0.2c-0.3,0-0.5,0-0.8,0c-0.6,0-1.1-0.1-1.6-0.3
		c-0.5-0.2-0.9-0.5-1.3-0.9c-0.4-0.4-0.7-0.8-0.9-1.3c-0.2-0.5-0.3-1-0.3-1.6c0-0.6,0.1-1.1,0.3-1.6c0.2-0.5,0.5-0.9,0.9-1.3
		c0.4-0.4,0.8-0.7,1.3-0.9c0.5-0.2,1-0.3,1.6-0.3c0.6,0,1.1,0.1,1.6,0.3c0.5,0.2,0.9,0.5,1.3,0.9c0.4,0.4,0.7,0.8,0.9,1.3
		c0.2,0.5,0.3,1,0.3,1.6v19l11.5-5.1v-17.7h2.5v17.9c0.8,0.3,1.4,0.8,1.9,1.4c0.5,0.7,0.7,1.4,0.7,2.3c0,0.6-0.1,1.1-0.3,1.6
		c-0.2,0.5-0.5,0.9-0.8,1.2c-0.3,0.4-0.8,0.6-1.2,0.8c-0.5,0.2-1,0.3-1.5,0.3c-0.6,0-1.1-0.1-1.5-0.3c-0.5-0.2-0.9-0.4-1.2-0.8
		c-0.3-0.3-0.6-0.7-0.8-1.2c-0.2-0.5-0.3-1-0.3-1.5V202z M311.5,186.6c0.5,0,1-0.2,1.3-0.6s0.5-0.8,0.5-1.4c0-0.5-0.2-1-0.5-1.4
		s-0.8-0.5-1.3-0.5c-0.5,0-1,0.2-1.4,0.5s-0.5,0.8-0.5,1.4c0,0.5,0.2,1,0.5,1.4S311,186.6,311.5,186.6z M328.3,204.2
		c0.5,0,0.9-0.2,1.2-0.5c0.3-0.3,0.5-0.7,0.5-1.2c0-0.5-0.2-0.9-0.5-1.2c-0.3-0.3-0.7-0.5-1.2-0.5c-0.5,0-0.9,0.2-1.2,0.5
		c-0.3,0.3-0.5,0.7-0.5,1.2c0,0.5,0.2,0.9,0.5,1.2C327.4,204,327.8,204.2,328.3,204.2z"/>
	<path class="st1" d="M352.5,206v-16.1c0-1.1-0.2-2-0.6-2.9c-0.4-0.9-0.9-1.6-1.6-2.2c-0.7-0.6-1.5-1.1-2.4-1.4
		c-0.9-0.3-1.9-0.5-3-0.5c-1.7,0-3.1,0.4-4.4,1.2c-1.2,0.8-2.2,1.9-2.8,3.2l2.3,2.7V206h-2.5v-15.5l-2.5-2.9c0.3-1.1,0.7-2,1.3-2.9
		c0.6-0.9,1.3-1.6,2.2-2.2c0.9-0.6,1.8-1.1,2.9-1.4c1.1-0.3,2.3-0.5,3.6-0.5c1.5,0,2.9,0.2,4.2,0.7c1.3,0.5,2.3,1.1,3.2,2
		c0.9,0.8,1.6,1.8,2.1,3s0.7,2.5,0.7,3.9V206H352.5z"/>
	<path class="st1" d="M373.7,206v-17.2c0-0.8-0.1-1.6-0.3-2.3c-0.2-0.7-0.5-1.4-1-1.9c-0.5-0.5-1-1-1.8-1.3
		c-0.7-0.3-1.6-0.5-2.6-0.5c-0.9,0-1.8,0.1-2.4,0.4c-0.7,0.3-1.2,0.6-1.7,1.1c-0.5,0.5-0.8,1-1.1,1.6c-0.3,0.6-0.4,1.3-0.5,2h-2.5
		c0.1-1.1,0.3-2.1,0.7-3c0.4-0.9,0.9-1.7,1.6-2.3c0.7-0.7,1.5-1.2,2.5-1.5c1-0.4,2.1-0.5,3.5-0.5c1.4,0,2.7,0.2,3.7,0.6
		c1,0.4,1.9,1,2.5,1.7c0.7,0.7,1.1,1.6,1.5,2.6c0.3,1,0.5,2.1,0.5,3.3V206H373.7z"/>
	<path class="st1" d="M390.8,190.6h-9.9v-1.5c0-1.2,0.2-2.2,0.6-3.3c0.4-1,0.9-1.9,1.7-2.7s1.7-1.4,2.8-1.9c1.1-0.5,2.4-0.7,3.8-0.7
		c1.2,0,2.3,0.2,3.4,0.6c1,0.4,1.9,0.9,2.7,1.6c0.8,0.7,1.3,1.5,1.8,2.5c0.4,1,0.6,2,0.6,3.2h-2.5c0-0.8-0.1-1.6-0.4-2.3
		c-0.3-0.7-0.7-1.3-1.2-1.8c-0.5-0.5-1.2-0.9-1.9-1.2c-0.8-0.3-1.6-0.4-2.6-0.4c-0.9,0-1.8,0.1-2.5,0.4c-0.7,0.3-1.4,0.7-1.9,1.2
		c-0.5,0.5-0.9,1.1-1.2,1.8c-0.3,0.7-0.4,1.5-0.4,2.3h9.8v13.7c0,0.6-0.1,1.1-0.3,1.6c-0.2,0.5-0.5,0.9-0.9,1.3
		c-0.4,0.4-0.8,0.7-1.3,0.9s-1,0.3-1.6,0.3c-0.6,0-1.1-0.1-1.6-0.3s-0.9-0.5-1.3-0.9c-0.4-0.4-0.7-0.8-0.9-1.3
		c-0.2-0.5-0.3-1-0.3-1.6c0-0.6,0.1-1.1,0.3-1.6c0.2-0.5,0.5-0.9,0.9-1.3c0.4-0.4,0.8-0.7,1.3-0.9c0.5-0.2,1-0.3,1.6-0.3
		c0.6,0,1.1,0.1,1.5,0.2V190.6z M389.3,204.1c0.5,0,1-0.2,1.4-0.6c0.4-0.4,0.5-0.8,0.5-1.4c0-0.5-0.2-1-0.5-1.3
		c-0.4-0.4-0.8-0.5-1.4-0.5s-1,0.2-1.3,0.5c-0.3,0.4-0.5,0.8-0.5,1.3c0,0.5,0.2,1,0.5,1.4S388.7,204.1,389.3,204.1z"/>
	<path class="st1" d="M403.8,180.9h2.5v17.5c0.2-0.1,0.5-0.2,0.7-0.2c0.3,0,0.5,0,0.8,0c0.6,0,1.1,0.1,1.6,0.3
		c0.5,0.2,0.9,0.5,1.3,0.9c0.4,0.4,0.7,0.8,0.9,1.3c0.2,0.5,0.3,1,0.3,1.6c0,0.6-0.1,1.1-0.3,1.6c-0.2,0.5-0.5,0.9-0.9,1.3
		c-0.4,0.4-0.8,0.7-1.3,0.9c-0.5,0.2-1,0.3-1.6,0.3c-0.6,0-1.1-0.1-1.6-0.3s-0.9-0.5-1.3-0.9c-0.4-0.4-0.7-0.8-0.9-1.3
		c-0.2-0.5-0.3-1-0.3-1.6V180.9z M407.9,204.1c0.5,0,1-0.2,1.3-0.6s0.5-0.8,0.5-1.4c0-0.5-0.2-1-0.5-1.3c-0.4-0.4-0.8-0.5-1.3-0.5
		c-0.5,0-1,0.2-1.3,0.5c-0.3,0.4-0.5,0.8-0.5,1.3c0,0.5,0.2,1,0.5,1.4C406.9,203.9,407.4,204.1,407.9,204.1z"/>
	<path class="st1" d="M433.3,206v-15.7c0-1.1-0.2-2.1-0.5-3.1c-0.3-0.9-0.8-1.7-1.4-2.4c-0.6-0.7-1.4-1.2-2.3-1.5
		c-0.9-0.4-2-0.5-3.3-0.5s-2.4,0.2-3.3,0.5c-0.9,0.4-1.7,0.9-2.3,1.5c-0.6,0.7-1.1,1.5-1.4,2.4c-0.3,0.9-0.5,2-0.5,3.1v12.8l6.8-7
		c-0.4,0-0.8-0.1-1.1-0.3c-0.4-0.2-0.7-0.4-1-0.7c-0.3-0.3-0.5-0.7-0.7-1.1c-0.2-0.4-0.3-0.9-0.3-1.4c0-0.6,0.1-1.1,0.3-1.6
		s0.5-0.9,0.8-1.3c0.3-0.4,0.8-0.6,1.3-0.8c0.5-0.2,1-0.3,1.6-0.3c0.6,0,1.1,0.1,1.6,0.3c0.5,0.2,0.9,0.5,1.3,0.9
		c0.3,0.4,0.6,0.8,0.8,1.3s0.3,1,0.3,1.6c0,0.5-0.1,1-0.3,1.6c-0.2,0.5-0.5,1-0.9,1.3l-10,10.5h-2.8v-15.6c0-1.5,0.2-2.9,0.7-4.1
		c0.4-1.2,1.1-2.2,2-3.1c0.9-0.9,1.9-1.5,3.1-2c1.2-0.5,2.6-0.7,4.2-0.7c1.6,0,3,0.2,4.2,0.7c1.2,0.5,2.3,1.1,3.1,2
		c0.9,0.9,1.5,1.9,2,3.1c0.5,1.2,0.7,2.6,0.7,4.1V206H433.3z M425.9,194.3c0.5,0,1-0.2,1.3-0.5c0.4-0.4,0.5-0.8,0.5-1.3
		c0-0.5-0.2-1-0.5-1.3c-0.4-0.4-0.8-0.5-1.3-0.5s-1,0.2-1.4,0.5c-0.4,0.4-0.5,0.8-0.5,1.3c0,0.5,0.2,1,0.5,1.3
		C424.9,194.1,425.4,194.3,425.9,194.3z"/>
	<path class="st1" d="M433.8,175.8c-1.7-0.6-3.3-1.1-4.8-1.5s-2.9-0.7-4.2-0.9c-1.3-0.2-2.5-0.4-3.6-0.5c-1.1-0.1-2.1-0.1-3.1-0.1
		c-0.5,0-0.8,0-1.2,0c-0.3,0-0.6,0-0.8,0c-0.2,0-0.4,0-0.6,0c-0.2,0-0.4,0-0.6,0.1c0.4-1.1,1-2.2,1.6-3.1c0.7-0.9,1.4-1.7,2.3-2.3
		c0.9-0.6,1.8-1.1,2.9-1.4c1.1-0.3,2.2-0.5,3.4-0.5c1.5,0,2.8,0.3,4.1,0.8c1.2,0.5,2.3,1.3,3.2,2.2c0.9,1,1.6,2.1,2.2,3.4
		c0.6,1.3,0.9,2.8,1,4.4L433.8,175.8z M433.2,173.4c-0.9-1.9-1.9-3.3-3.2-4.2c-1.3-0.9-2.8-1.4-4.8-1.4c-0.7,0-1.5,0.1-2.2,0.2
		c-0.7,0.1-1.3,0.3-1.9,0.6c-0.6,0.3-1.1,0.6-1.6,1c-0.5,0.4-0.9,0.8-1.2,1.3c1.3,0,2.6,0,3.8,0.1c1.2,0.1,2.4,0.2,3.6,0.4
		s2.4,0.5,3.6,0.8C430.5,172.5,431.8,172.9,433.2,173.4z"/>
	<path class="st1" d="M457.2,202l-8.7,4h-2.7v-17.5c-0.2,0.1-0.5,0.2-0.7,0.2s-0.5,0-0.8,0c-0.6,0-1.1-0.1-1.6-0.3
		c-0.5-0.2-0.9-0.5-1.3-0.9c-0.4-0.4-0.7-0.8-0.9-1.3c-0.2-0.5-0.3-1-0.3-1.6c0-0.6,0.1-1.1,0.3-1.6c0.2-0.5,0.5-0.9,0.9-1.3
		c0.4-0.4,0.8-0.7,1.3-0.9c0.5-0.2,1-0.3,1.6-0.3c0.6,0,1.1,0.1,1.6,0.3c0.5,0.2,0.9,0.5,1.3,0.9c0.4,0.4,0.7,0.8,0.9,1.3
		c0.2,0.5,0.3,1,0.3,1.6v19l11.5-5.1v-17.7h2.5v17.9c0.8,0.3,1.4,0.8,1.9,1.4c0.5,0.7,0.7,1.4,0.7,2.3c0,0.6-0.1,1.1-0.3,1.6
		c-0.2,0.5-0.5,0.9-0.8,1.2c-0.3,0.4-0.8,0.6-1.2,0.8c-0.5,0.2-1,0.3-1.5,0.3c-0.6,0-1.1-0.1-1.5-0.3s-0.9-0.4-1.2-0.8
		c-0.3-0.3-0.6-0.7-0.8-1.2c-0.2-0.5-0.3-1-0.3-1.5V202z M444.3,186.6c0.5,0,1-0.2,1.3-0.6s0.5-0.8,0.5-1.4c0-0.5-0.2-1-0.5-1.4
		s-0.8-0.5-1.3-0.5c-0.5,0-1,0.2-1.4,0.5c-0.4,0.4-0.5,0.8-0.5,1.4c0,0.5,0.2,1,0.5,1.4C443.3,186.4,443.7,186.6,444.3,186.6z
		 M461.1,204.2c0.5,0,0.9-0.2,1.2-0.5c0.3-0.3,0.5-0.7,0.5-1.2c0-0.5-0.2-0.9-0.5-1.2c-0.3-0.3-0.7-0.5-1.2-0.5
		c-0.5,0-0.9,0.2-1.2,0.5c-0.3,0.3-0.5,0.7-0.5,1.2c0,0.5,0.2,0.9,0.5,1.2C460.2,204,460.6,204.2,461.1,204.2z"/>
	<path class="st1" d="M486.9,206v-20.5c0-0.8-0.2-1.4-0.7-1.9c-0.4-0.5-1.1-0.7-1.8-0.7c-0.6,0-1.1,0.2-1.5,0.5
		c-0.4,0.3-0.7,0.7-0.9,1.3l-7.1,21.4h-2.4v-17.5c-0.2,0.1-0.5,0.2-0.7,0.2s-0.5,0-0.8,0c-0.6,0-1.1-0.1-1.6-0.3
		c-0.5-0.2-0.9-0.5-1.3-0.9c-0.4-0.4-0.7-0.8-0.9-1.3c-0.2-0.5-0.3-1-0.3-1.6c0-0.6,0.1-1.1,0.3-1.6c0.2-0.5,0.5-0.9,0.9-1.3
		c0.4-0.4,0.8-0.7,1.3-0.9c0.5-0.2,1-0.3,1.6-0.3c0.6,0,1.1,0.1,1.6,0.3c0.5,0.2,0.9,0.5,1.3,0.9c0.4,0.4,0.7,0.8,0.9,1.3
		c0.2,0.5,0.3,1,0.3,1.6V199c0.8-2.4,1.6-4.9,2.4-7.3c0.8-2.4,1.6-4.9,2.4-7.3c0.4-1.4,1-2.3,1.7-2.9c0.7-0.6,1.7-0.9,2.9-0.9
		c0.7,0,1.4,0.1,2.1,0.4c0.6,0.2,1.2,0.6,1.6,1c0.4,0.4,0.8,0.9,1,1.5c0.2,0.6,0.4,1.3,0.4,2V206H486.9z M471,186.6
		c0.5,0,1-0.2,1.3-0.6s0.5-0.8,0.5-1.4c0-0.5-0.2-1-0.5-1.4s-0.8-0.5-1.3-0.5c-0.5,0-1,0.2-1.4,0.5c-0.4,0.4-0.5,0.8-0.5,1.4
		c0,0.5,0.2,1,0.5,1.4C470,186.4,470.5,186.6,471,186.6z"/>
	<path class="st1" d="M508.1,206v-17.2c0-0.8-0.1-1.6-0.3-2.3c-0.2-0.7-0.5-1.4-1-1.9c-0.5-0.5-1-1-1.8-1.3
		c-0.7-0.3-1.6-0.5-2.6-0.5c-0.9,0-1.8,0.1-2.4,0.4c-0.7,0.3-1.2,0.6-1.7,1.1c-0.5,0.5-0.8,1-1.1,1.6c-0.3,0.6-0.4,1.3-0.5,2h-2.5
		c0.1-1.1,0.3-2.1,0.7-3c0.4-0.9,0.9-1.7,1.6-2.3c0.7-0.7,1.5-1.2,2.5-1.5c1-0.4,2.1-0.5,3.5-0.5c1.4,0,2.7,0.2,3.7,0.6
		c1,0.4,1.9,1,2.5,1.7c0.7,0.7,1.1,1.6,1.5,2.6c0.3,1,0.5,2.1,0.5,3.3V206H508.1z"/>
	<path class="st1" d="M527,206l-11.8-13.1l1.7-1.7l10.5,11.5v-14.3c-0.2,0.1-0.5,0.2-0.7,0.2c-0.3,0-0.5,0-0.8,0
		c-0.6,0-1.1-0.1-1.6-0.3c-0.5-0.2-0.9-0.5-1.3-0.9c-0.4-0.4-0.7-0.8-0.9-1.3c-0.2-0.5-0.3-1-0.3-1.6c0-0.6,0.1-1.1,0.3-1.6
		c0.2-0.5,0.5-0.9,0.9-1.3c0.4-0.4,0.8-0.7,1.3-0.9c0.5-0.2,1-0.3,1.6-0.3c0.6,0,1.1,0.1,1.6,0.3c0.5,0.2,0.9,0.5,1.3,0.9
		c0.4,0.4,0.7,0.8,0.9,1.3c0.2,0.5,0.3,1,0.3,1.6V206H527z M525.8,186.6c0.5,0,1-0.2,1.3-0.6s0.5-0.8,0.5-1.4c0-0.5-0.2-1-0.5-1.4
		s-0.8-0.5-1.3-0.5s-1,0.2-1.4,0.5c-0.4,0.4-0.5,0.8-0.5,1.4c0,0.5,0.2,1,0.5,1.4C524.8,186.4,525.3,186.6,525.8,186.6z"/>
	<path class="st1" d="M551.3,202l-8.7,4h-2.7v-17.5c-0.2,0.1-0.5,0.2-0.7,0.2c-0.3,0-0.5,0-0.8,0c-0.6,0-1.1-0.1-1.6-0.3
		c-0.5-0.2-0.9-0.5-1.3-0.9c-0.4-0.4-0.7-0.8-0.9-1.3c-0.2-0.5-0.3-1-0.3-1.6c0-0.6,0.1-1.1,0.3-1.6c0.2-0.5,0.5-0.9,0.9-1.3
		c0.4-0.4,0.8-0.7,1.3-0.9c0.5-0.2,1-0.3,1.6-0.3c0.6,0,1.1,0.1,1.6,0.3c0.5,0.2,0.9,0.5,1.3,0.9c0.4,0.4,0.7,0.8,0.9,1.3
		c0.2,0.5,0.3,1,0.3,1.6v19l11.5-5.1v-17.7h2.5v17.9c0.8,0.3,1.4,0.8,1.9,1.4c0.5,0.7,0.7,1.4,0.7,2.3c0,0.6-0.1,1.1-0.3,1.6
		c-0.2,0.5-0.5,0.9-0.8,1.2c-0.3,0.4-0.8,0.6-1.2,0.8c-0.5,0.2-1,0.3-1.5,0.3c-0.6,0-1.1-0.1-1.5-0.3c-0.5-0.2-0.9-0.4-1.2-0.8
		c-0.3-0.3-0.6-0.7-0.8-1.2c-0.2-0.5-0.3-1-0.3-1.5V202z M538.4,186.6c0.5,0,1-0.2,1.3-0.6s0.5-0.8,0.5-1.4c0-0.5-0.2-1-0.5-1.4
		s-0.8-0.5-1.3-0.5c-0.5,0-1,0.2-1.4,0.5c-0.4,0.4-0.5,0.8-0.5,1.4c0,0.5,0.2,1,0.5,1.4C537.4,186.4,537.8,186.6,538.4,186.6z
		 M555.2,204.2c0.5,0,0.9-0.2,1.2-0.5c0.3-0.3,0.5-0.7,0.5-1.2c0-0.5-0.2-0.9-0.5-1.2c-0.3-0.3-0.7-0.5-1.2-0.5
		c-0.5,0-0.9,0.2-1.2,0.5c-0.3,0.3-0.5,0.7-0.5,1.2c0,0.5,0.2,0.9,0.5,1.2C554.3,204,554.7,204.2,555.2,204.2z"/>
	<path class="st1" d="M559.9,165.1c0,1.7-0.4,3.3-1.1,4.6c-0.7,1.3-1.7,2.5-2.9,3.4c-1.2,0.9-2.6,1.6-4.2,2.1
		c-1.6,0.5-3.3,0.7-5,0.7c-0.4,0-0.7,0-0.9,0c-0.3,0-0.5,0-0.6,0v-1.6c0.5-0.2,0.9-0.6,1.3-1c0.4-0.4,0.6-0.8,0.8-1.3
		c-0.1,0-0.3,0-0.4,0c-0.1,0-0.3,0-0.4,0c-0.6,0-1.2-0.1-1.6-0.3c-0.5-0.2-0.8-0.4-1.1-0.8c-0.3-0.3-0.5-0.7-0.7-1.1
		c-0.1-0.4-0.2-0.9-0.2-1.4c0-0.5,0.1-1,0.3-1.5c0.2-0.4,0.5-0.8,0.8-1.2c0.3-0.3,0.7-0.6,1.2-0.8c0.5-0.2,0.9-0.3,1.5-0.3
		c0.6,0,1.2,0.1,1.7,0.3c0.5,0.2,0.9,0.5,1.2,0.9c0.3,0.4,0.6,0.8,0.7,1.3c0.2,0.5,0.2,1.1,0.2,1.7c0,1-0.2,2-0.7,2.8
		c-0.5,0.9-1,1.6-1.7,2.2c1.4-0.1,2.6-0.3,3.8-0.8c1.2-0.4,2.2-1,3.1-1.8c0.9-0.8,1.6-1.7,2.1-2.7c0.5-1.1,0.8-2.3,0.8-3.6H559.9z
		 M548.2,168.5c0-0.5-0.2-1-0.5-1.3s-0.8-0.5-1.3-0.5c-0.5,0-1,0.2-1.3,0.5s-0.5,0.8-0.5,1.3c0,0.6,0.2,1,0.5,1.3
		c0.3,0.3,0.8,0.5,1.3,0.5c0.6,0,1-0.2,1.3-0.5S548.2,169,548.2,168.5z"/>
	<path class="st1" d="M564.4,206v-12.3c0-0.6,0.1-1.1,0.3-1.6c0.2-0.5,0.5-0.9,0.9-1.3c0.4-0.4,0.8-0.6,1.3-0.8s1-0.3,1.6-0.3
		c0.6,0,1.1,0.1,1.6,0.3s0.9,0.5,1.3,0.8c0.3,0.4,0.6,0.8,0.8,1.3c0.2,0.5,0.3,1,0.3,1.6c0,0.6-0.1,1.1-0.3,1.6s-0.5,0.9-0.8,1.3
		c-0.3,0.3-0.8,0.6-1.3,0.8c-0.5,0.2-1,0.3-1.6,0.3c-0.3,0-0.6,0-0.8-0.1c-0.3,0-0.5-0.1-0.7-0.2v6.3h11.4v-14.5
		c0-1-0.2-1.9-0.5-2.7c-0.4-0.8-0.8-1.5-1.5-2c-0.6-0.6-1.4-1-2.3-1.3s-1.9-0.4-2.9-0.4c-0.9,0-1.8,0.1-2.5,0.4
		c-0.8,0.3-1.4,0.6-2,1.1c-0.6,0.5-1.1,1-1.4,1.6c-0.4,0.6-0.6,1.3-0.7,2h-2.7c0.2-1.1,0.5-2.1,1.1-3c0.5-0.9,1.2-1.7,2-2.3
		c0.8-0.6,1.8-1.1,2.8-1.5c1.1-0.4,2.2-0.5,3.4-0.5c1.4,0,2.7,0.2,3.9,0.6c1.2,0.4,2.2,0.9,3.1,1.7c0.9,0.7,1.5,1.6,2,2.7
		c0.5,1.1,0.7,2.3,0.7,3.7V206H564.4z M570.3,193.7c0-0.5-0.2-1-0.5-1.3c-0.3-0.3-0.8-0.5-1.3-0.5s-1,0.2-1.3,0.5
		c-0.3,0.4-0.5,0.8-0.5,1.3s0.2,1,0.5,1.3s0.8,0.5,1.3,0.5s1-0.2,1.3-0.5S570.3,194.3,570.3,193.7z"/>
	<path class="st1" d="M587.7,206v-7.6c0-2.8,1.1-4.5,3.2-5.3c-1.5-0.4-2.7-1.1-3.5-2.2c-0.8-1.1-1.2-2.4-1.2-4
		c0-0.9,0.2-1.8,0.5-2.5c0.3-0.8,0.8-1.4,1.4-2c0.6-0.6,1.3-1,2.1-1.3c0.8-0.3,1.7-0.5,2.6-0.5c1.3,0,2.4,0.3,3.1,1
		c0.8,0.7,1.2,1.6,1.2,2.7c0,0.6-0.1,1.1-0.3,1.6c-0.2,0.5-0.4,0.9-0.8,1.2c-0.3,0.4-0.7,0.6-1.2,0.8c-0.5,0.2-1,0.3-1.7,0.3
		c-1,0-1.8-0.3-2.5-0.8c-0.7-0.5-1.2-1.3-1.4-2.4c-0.2,0.3-0.3,0.6-0.3,1c-0.1,0.3-0.1,0.7-0.1,1.1c0,0.7,0.1,1.3,0.3,1.9
		c0.2,0.5,0.5,1,0.9,1.4c0.4,0.4,1,0.7,1.7,0.9s1.6,0.3,2.6,0.3h2.4v2.5H594c-1.2,0-2.1,0.3-2.8,1c-0.6,0.7-0.9,1.8-0.9,3.3v5.3
		h12.2v-22.9h2.5V206H587.7z M595,184.4c0-0.5-0.2-0.9-0.5-1.3c-0.4-0.4-0.8-0.6-1.3-0.6c-0.6,0-1,0.2-1.4,0.5
		c-0.3,0.3-0.5,0.8-0.5,1.4c0,0.5,0.2,1,0.5,1.3s0.8,0.5,1.3,0.5c0.5,0,0.9-0.2,1.3-0.5S595,185,595,184.4z"/>
</g>
<g class="st0">
	<path class="st1" d="M5.8,260.9h2.5v17.5c0.2-0.1,0.5-0.2,0.7-0.2c0.3,0,0.5,0,0.8,0c0.6,0,1.1,0.1,1.6,0.3
		c0.5,0.2,0.9,0.5,1.3,0.9c0.4,0.4,0.7,0.8,0.9,1.3c0.2,0.5,0.3,1,0.3,1.6c0,0.6-0.1,1.1-0.3,1.6c-0.2,0.5-0.5,0.9-0.9,1.3
		c-0.4,0.4-0.8,0.7-1.3,0.9c-0.5,0.2-1,0.3-1.6,0.3c-0.6,0-1.1-0.1-1.6-0.3c-0.5-0.2-0.9-0.5-1.3-0.9c-0.4-0.4-0.7-0.8-0.9-1.3
		c-0.2-0.5-0.3-1-0.3-1.6V260.9z M9.9,284.1c0.5,0,1-0.2,1.3-0.6s0.5-0.8,0.5-1.4c0-0.5-0.2-1-0.5-1.3c-0.4-0.4-0.8-0.5-1.3-0.5
		s-1,0.2-1.3,0.5c-0.3,0.4-0.5,0.8-0.5,1.3c0,0.5,0.2,1,0.5,1.4C8.9,283.9,9.3,284.1,9.9,284.1z"/>
	<path class="st1" d="M35.3,286v-13.7c0-1.9-0.5-2.9-1.4-2.9c-0.6,0-1.3,0.7-2.1,2.1L23.6,286h-2.3v-17.5c-0.2,0.1-0.5,0.2-0.7,0.2
		c-0.3,0-0.5,0-0.8,0c-0.6,0-1.1-0.1-1.6-0.3c-0.5-0.2-0.9-0.5-1.3-0.9c-0.4-0.4-0.7-0.8-0.9-1.3c-0.2-0.5-0.3-1-0.3-1.6
		c0-0.6,0.1-1.1,0.3-1.6c0.2-0.5,0.5-0.9,0.9-1.3c0.4-0.4,0.8-0.7,1.3-0.9c0.5-0.2,1-0.3,1.6-0.3c0.6,0,1.1,0.1,1.6,0.3
		c0.5,0.2,0.9,0.5,1.3,0.9c0.4,0.4,0.7,0.8,0.9,1.3c0.2,0.5,0.3,1,0.3,1.6v13.9c0,0.2,0,0.5,0,0.8c0,0.3,0,0.6,0,1
		c0,0.3,0,0.6-0.1,0.9c0,0.3-0.1,0.5-0.1,0.6l1-2.1l5.1-9.3c0.3-0.5,0.6-1,0.9-1.4c0.3-0.5,0.7-0.8,1.1-1c-0.9-0.8-1.4-1.9-1.4-3.2
		c0-0.6,0.1-1.1,0.3-1.6c0.2-0.5,0.5-0.9,0.9-1.3c0.4-0.4,0.8-0.7,1.3-0.9c0.5-0.2,1.1-0.3,1.6-0.3s1.1,0.1,1.7,0.3
		c0.5,0.2,1,0.5,1.4,0.9c0.4,0.4,0.7,0.8,0.9,1.3c0.2,0.5,0.3,1,0.3,1.6c0,1.6-0.7,2.8-2.1,3.6c0.4,0.4,0.6,0.9,0.8,1.7
		c0.2,0.7,0.2,1.5,0.2,2.4V286H35.3z M19.8,266.5c0.5,0,1-0.2,1.3-0.5c0.3-0.4,0.5-0.8,0.5-1.4s-0.2-1-0.5-1.3
		c-0.3-0.4-0.8-0.5-1.3-0.5c-0.5,0-1,0.2-1.4,0.5c-0.4,0.4-0.5,0.8-0.5,1.3s0.2,1,0.5,1.4C18.8,266.4,19.2,266.5,19.8,266.5z
		 M34.5,266.8c0.6,0,1.1-0.2,1.5-0.6c0.4-0.4,0.6-0.9,0.6-1.5c0-0.6-0.2-1.1-0.6-1.5c-0.4-0.4-0.9-0.6-1.5-0.6
		c-0.6,0-1.1,0.2-1.5,0.6c-0.4,0.4-0.6,0.9-0.6,1.5c0,0.6,0.2,1.1,0.6,1.5S33.9,266.8,34.5,266.8z"/>
	<path class="st1" d="M61.7,286L51,281.4v0.8c0,0.6-0.1,1.1-0.3,1.6c-0.2,0.5-0.5,0.9-0.9,1.3c-0.4,0.4-0.8,0.7-1.3,0.9
		c-0.5,0.2-1,0.3-1.6,0.3c-0.6,0-1.1-0.1-1.6-0.3c-0.5-0.2-0.9-0.5-1.3-0.9c-0.4-0.4-0.7-0.8-0.9-1.3c-0.2-0.5-0.3-1-0.3-1.6
		c0-0.6,0.1-1.1,0.3-1.6c0.2-0.5,0.5-0.9,0.9-1.3c0.4-0.4,0.8-0.7,1.3-0.9c0.5-0.2,1-0.3,1.6-0.3c0.3,0,0.6,0,0.8,0
		c0.3,0,0.5,0.1,0.7,0.2v-9.9c-0.2,0.1-0.5,0.2-0.7,0.2c-0.3,0-0.5,0-0.8,0c-0.6,0-1.1-0.1-1.6-0.3c-0.5-0.2-0.9-0.5-1.3-0.9
		c-0.4-0.4-0.7-0.8-0.9-1.3c-0.2-0.5-0.3-1-0.3-1.6c0-0.6,0.1-1.1,0.3-1.6c0.2-0.5,0.5-0.9,0.9-1.3c0.4-0.4,0.8-0.7,1.3-0.9
		c0.5-0.2,1-0.3,1.6-0.3c0.6,0,1.1,0.1,1.6,0.3c0.5,0.2,0.9,0.5,1.3,0.9c0.4,0.4,0.7,0.8,0.9,1.3c0.2,0.5,0.3,1,0.3,1.6v14.5
		l10.6,4.4v-22.7h2.5V286H61.7z M46.9,266.5c0.5,0,1-0.2,1.3-0.5c0.4-0.4,0.5-0.8,0.5-1.4s-0.2-1-0.5-1.3c-0.4-0.4-0.8-0.5-1.3-0.5
		s-1,0.2-1.4,0.5c-0.4,0.4-0.5,0.8-0.5,1.3s0.2,1,0.5,1.4C46,266.4,46.4,266.5,46.9,266.5z M46.9,284.1c0.5,0,1-0.2,1.3-0.6
		c0.4-0.4,0.5-0.8,0.5-1.4c0-0.5-0.2-1-0.5-1.3c-0.4-0.4-0.8-0.5-1.3-0.5s-1,0.2-1.4,0.5c-0.4,0.4-0.5,0.8-0.5,1.3
		c0,0.5,0.2,1,0.5,1.4S46.4,284.1,46.9,284.1z"/>
	<path class="st1" d="M82.9,286v-17.2c0-0.8-0.1-1.6-0.3-2.3c-0.2-0.7-0.5-1.4-1-1.9c-0.5-0.5-1-1-1.8-1.3c-0.7-0.3-1.6-0.5-2.6-0.5
		c-0.9,0-1.8,0.1-2.4,0.4c-0.7,0.3-1.2,0.6-1.7,1.1c-0.5,0.5-0.8,1-1.1,1.6c-0.3,0.6-0.4,1.3-0.5,2h-2.5c0.1-1.1,0.3-2.1,0.7-3
		c0.4-0.9,0.9-1.7,1.6-2.3c0.7-0.7,1.5-1.2,2.5-1.5c1-0.4,2.1-0.5,3.5-0.5c1.4,0,2.7,0.2,3.7,0.6c1,0.4,1.9,1,2.5,1.7
		c0.7,0.7,1.1,1.6,1.5,2.6c0.3,1,0.5,2.1,0.5,3.3V286H82.9z"/>
	<path class="st1" d="M107.1,261.1c-0.5,2.7-1.6,4.7-3.4,6c-1.7,1.3-3.9,2-6.6,2c-2.1,0-3.7-0.4-4.9-1.2s-1.7-1.9-1.7-3.3
		c0-0.5,0.1-1,0.3-1.5c0.2-0.5,0.5-0.9,0.8-1.2s0.8-0.6,1.2-0.8s1-0.3,1.7-0.3c0.6,0,1.1,0.1,1.6,0.3c0.5,0.2,0.9,0.5,1.2,0.8
		c0.3,0.4,0.6,0.8,0.8,1.3c0.2,0.5,0.3,1,0.3,1.6c0,0.8-0.2,1.5-0.5,1.9c1.9-0.2,3.4-0.8,4.5-1.7s1.8-2.2,2.3-4H107.1z M107.1,276.9
		c-0.5,2.7-1.6,4.7-3.4,6c-1.7,1.3-3.9,2-6.6,2c-2.1,0-3.7-0.4-4.9-1.2s-1.7-1.9-1.7-3.3c0-0.5,0.1-1,0.3-1.5
		c0.2-0.5,0.5-0.9,0.8-1.2c0.3-0.3,0.8-0.6,1.2-0.8s1-0.3,1.7-0.3c0.6,0,1.1,0.1,1.6,0.3c0.5,0.2,0.9,0.5,1.2,0.8
		c0.3,0.4,0.6,0.8,0.8,1.3c0.2,0.5,0.3,1,0.3,1.5c0,0.9-0.2,1.5-0.5,2c1-0.1,1.8-0.3,2.5-0.6s1.4-0.6,1.9-1.1c0.5-0.5,1-1,1.4-1.7
		c0.4-0.7,0.7-1.4,0.9-2.3H107.1z M96.2,264.8c0-0.5-0.2-0.9-0.5-1.2c-0.3-0.3-0.7-0.5-1.2-0.5c-0.5,0-0.9,0.2-1.2,0.5
		c-0.3,0.3-0.5,0.7-0.5,1.2c0,0.5,0.2,0.9,0.5,1.2c0.3,0.3,0.7,0.5,1.2,0.5c0.5,0,0.9-0.2,1.2-0.5C96,265.7,96.2,265.3,96.2,264.8z
		 M96.2,280.6c0-0.5-0.2-0.9-0.5-1.2c-0.3-0.3-0.7-0.5-1.2-0.5c-0.5,0-0.9,0.2-1.2,0.5c-0.3,0.3-0.5,0.7-0.5,1.2
		c0,0.5,0.2,0.9,0.5,1.2c0.3,0.3,0.7,0.5,1.2,0.5c0.5,0,0.9-0.2,1.2-0.5C96,281.5,96.2,281.1,96.2,280.6z"/>
	<path class="st1" d="M129.2,286v-16.1c0-1.1-0.2-2-0.6-2.9c-0.4-0.9-0.9-1.6-1.6-2.2c-0.7-0.6-1.5-1.1-2.4-1.4
		c-0.9-0.3-1.9-0.5-3-0.5c-1.7,0-3.1,0.4-4.4,1.2c-1.2,0.8-2.2,1.9-2.8,3.2l2.3,2.7V286h-2.5v-15.5l-2.5-2.9c0.3-1.1,0.7-2,1.3-2.9
		c0.6-0.9,1.3-1.6,2.2-2.2c0.9-0.6,1.8-1.1,2.9-1.4c1.1-0.3,2.3-0.5,3.6-0.5c1.5,0,2.9,0.2,4.2,0.7c1.3,0.5,2.3,1.1,3.2,2
		c0.9,0.8,1.6,1.8,2.1,3s0.7,2.5,0.7,3.9V286H129.2z"/>
	<path class="st1" d="M137.9,248.6c-0.2,1.3-0.6,2.4-1.2,3.4c-0.5,1-1.3,1.9-2.1,2.6c-0.9,0.7-2,1.3-3.3,1.6s-2.8,0.6-4.6,0.6
		c-1.2,0-2.3-0.1-3.3-0.3c-1-0.2-1.9-0.5-2.7-0.9c-0.7-0.4-1.3-0.9-1.8-1.5c-0.4-0.6-0.6-1.4-0.6-2.2c0-0.7,0.1-1.2,0.4-1.7
		c0.2-0.5,0.5-0.9,0.9-1.2c0.4-0.3,0.8-0.6,1.3-0.7c0.5-0.2,1-0.2,1.5-0.2s1,0.1,1.4,0.2s0.9,0.4,1.2,0.7c0.4,0.3,0.6,0.7,0.9,1.1
		c0.2,0.5,0.3,1,0.3,1.6c0,0.7-0.2,1.3-0.5,1.8c-0.3,0.5-0.6,0.8-1,1c0.2,0.1,0.5,0.2,0.8,0.2c0.3,0.1,0.7,0.1,1.1,0.1
		c1.4,0,2.6-0.1,3.6-0.4c1-0.3,1.9-0.7,2.6-1.3c0.7-0.5,1.3-1.2,1.6-2c0.4-0.8,0.6-1.6,0.8-2.6H137.9z M122.3,253.7
		c0.5,0,1-0.2,1.3-0.5c0.4-0.4,0.5-0.8,0.5-1.3s-0.2-1-0.6-1.3c-0.4-0.4-0.8-0.5-1.4-0.5s-1,0.2-1.3,0.5c-0.3,0.3-0.5,0.8-0.5,1.3
		s0.2,1,0.6,1.3C121.3,253.6,121.8,253.7,122.3,253.7z"/>
	<path class="st1" d="M141.7,286v-17.5c-0.2,0.1-0.5,0.2-0.7,0.2c-0.3,0-0.5,0-0.8,0c-0.6,0-1.1-0.1-1.6-0.3
		c-0.5-0.2-0.9-0.5-1.3-0.9c-0.4-0.4-0.7-0.8-0.9-1.3c-0.2-0.5-0.3-1-0.3-1.6c0-0.6,0.1-1.1,0.3-1.6c0.2-0.5,0.5-0.9,0.9-1.3
		c0.4-0.4,0.8-0.7,1.3-0.9c0.5-0.2,1-0.3,1.6-0.3c0.6,0,1.1,0.1,1.6,0.3c0.5,0.2,0.9,0.5,1.3,0.9c0.4,0.4,0.7,0.8,0.9,1.3
		c0.2,0.5,0.3,1,0.3,1.6v19.1h11.8v-22.9h2.5V286H141.7z M140.2,266.5c0.5,0,1-0.2,1.3-0.5c0.3-0.4,0.5-0.8,0.5-1.4s-0.2-1-0.5-1.3
		c-0.3-0.4-0.8-0.5-1.3-0.5c-0.5,0-1,0.2-1.4,0.5c-0.4,0.4-0.5,0.8-0.5,1.3s0.2,1,0.5,1.4C139.2,266.4,139.7,266.5,140.2,266.5z"/>
	<path class="st1" d="M181.2,286v-16.1c0-1.1-0.2-2-0.6-2.9c-0.4-0.9-0.9-1.6-1.6-2.2c-0.7-0.6-1.5-1.1-2.4-1.4
		c-0.9-0.3-1.9-0.5-3-0.5c-1.7,0-3.1,0.4-4.4,1.2c-1.2,0.8-2.2,1.9-2.8,3.2l2.3,2.7V286h-2.5v-15.5l-2.5-2.9c0.3-1.1,0.7-2,1.3-2.9
		c0.6-0.9,1.3-1.6,2.2-2.2c0.9-0.6,1.8-1.1,2.9-1.4c1.1-0.3,2.3-0.5,3.6-0.5c1.5,0,2.9,0.2,4.2,0.7c1.3,0.5,2.3,1.1,3.2,2
		c0.9,0.8,1.6,1.8,2.1,3s0.7,2.5,0.7,3.9V286H181.2z"/>
	<path class="st1" d="M202.4,286v-17.2c0-0.8-0.1-1.6-0.3-2.3c-0.2-0.7-0.5-1.4-1-1.9c-0.5-0.5-1-1-1.8-1.3
		c-0.7-0.3-1.6-0.5-2.6-0.5c-0.9,0-1.8,0.1-2.4,0.4c-0.7,0.3-1.2,0.6-1.7,1.1c-0.5,0.5-0.8,1-1.1,1.6c-0.3,0.6-0.4,1.3-0.5,2h-2.5
		c0.1-1.1,0.3-2.1,0.7-3c0.4-0.9,0.9-1.7,1.6-2.3c0.7-0.7,1.5-1.2,2.5-1.5c1-0.4,2.1-0.5,3.5-0.5c1.4,0,2.7,0.2,3.7,0.6
		c1,0.4,1.9,1,2.5,1.7c0.7,0.7,1.1,1.6,1.5,2.6c0.3,1,0.5,2.1,0.5,3.3V286H202.4z"/>
	<path class="st1" d="M219.6,270.6h-9.9v-1.5c0-1.2,0.2-2.2,0.6-3.3c0.4-1,0.9-1.9,1.7-2.7c0.7-0.8,1.7-1.4,2.8-1.9
		c1.1-0.5,2.4-0.7,3.8-0.7c1.2,0,2.3,0.2,3.4,0.6c1,0.4,1.9,0.9,2.7,1.6c0.8,0.7,1.3,1.5,1.8,2.5c0.4,1,0.6,2,0.6,3.2h-2.5
		c0-0.8-0.1-1.6-0.4-2.3c-0.3-0.7-0.7-1.3-1.2-1.8c-0.5-0.5-1.2-0.9-1.9-1.2c-0.8-0.3-1.6-0.4-2.6-0.4c-0.9,0-1.8,0.1-2.5,0.4
		c-0.7,0.3-1.4,0.7-1.9,1.2c-0.5,0.5-0.9,1.1-1.2,1.8c-0.3,0.7-0.4,1.5-0.4,2.3h9.8v13.7c0,0.6-0.1,1.1-0.3,1.6
		c-0.2,0.5-0.5,0.9-0.9,1.3c-0.4,0.4-0.8,0.7-1.3,0.9s-1,0.3-1.6,0.3c-0.6,0-1.1-0.1-1.6-0.3s-0.9-0.5-1.3-0.9
		c-0.4-0.4-0.7-0.8-0.9-1.3c-0.2-0.5-0.3-1-0.3-1.6c0-0.6,0.1-1.1,0.3-1.6c0.2-0.5,0.5-0.9,0.9-1.3c0.4-0.4,0.8-0.7,1.3-0.9
		c0.5-0.2,1-0.3,1.6-0.3c0.6,0,1.1,0.1,1.5,0.2V270.6z M218.1,284.1c0.5,0,1-0.2,1.4-0.6s0.5-0.8,0.5-1.4c0-0.5-0.2-1-0.5-1.3
		c-0.4-0.4-0.8-0.5-1.4-0.5s-1,0.2-1.3,0.5c-0.4,0.4-0.5,0.8-0.5,1.3c0,0.5,0.2,1,0.5,1.4C217.1,283.9,217.5,284.1,218.1,284.1z"/>
	<path class="st1" d="M237.1,249.2l-3.4,4.3h-1.8l-4.6-8.2h2.5l3.2,5.9l4.5-5.9h2.1v33c0.2-0.1,0.5-0.2,0.7-0.2c0.3,0,0.5,0,0.8,0
		c0.6,0,1.1,0.1,1.6,0.3c0.5,0.2,0.9,0.5,1.3,0.9c0.4,0.4,0.7,0.8,0.9,1.3c0.2,0.5,0.3,1,0.3,1.6c0,0.6-0.1,1.1-0.3,1.6
		c-0.2,0.5-0.5,0.9-0.9,1.3c-0.4,0.4-0.8,0.7-1.3,0.9c-0.5,0.2-1,0.3-1.6,0.3s-1.1-0.1-1.6-0.3s-0.9-0.5-1.3-0.9
		c-0.4-0.4-0.7-0.8-0.9-1.3c-0.2-0.5-0.3-1-0.3-1.6V249.2z M241.2,284.1c0.5,0,1-0.2,1.4-0.6s0.5-0.8,0.5-1.4c0-0.5-0.2-1-0.5-1.3
		c-0.4-0.4-0.8-0.5-1.4-0.5c-0.6,0-1,0.2-1.4,0.5c-0.4,0.4-0.5,0.8-0.5,1.3c0,0.5,0.2,1,0.5,1.4
		C240.2,283.9,240.7,284.1,241.2,284.1z"/>
	<path class="st1" d="M252.7,286v-17.5c-0.2,0.1-0.5,0.2-0.7,0.2c-0.3,0-0.5,0-0.8,0c-0.6,0-1.1-0.1-1.6-0.3
		c-0.5-0.2-0.9-0.5-1.3-0.9c-0.4-0.4-0.7-0.8-0.9-1.3c-0.2-0.5-0.3-1-0.3-1.6c0-0.6,0.1-1.1,0.3-1.6c0.2-0.5,0.5-0.9,0.9-1.3
		c0.4-0.4,0.8-0.7,1.3-0.9c0.5-0.2,1-0.3,1.6-0.3c0.6,0,1.1,0.1,1.6,0.3c0.5,0.2,0.9,0.5,1.3,0.9c0.4,0.4,0.7,0.8,0.9,1.3
		c0.2,0.5,0.3,1,0.3,1.6v19.1H267v-34.9h2.5V286H252.7z M251.2,266.5c0.5,0,1-0.2,1.3-0.5c0.3-0.4,0.5-0.8,0.5-1.4s-0.2-1-0.5-1.3
		c-0.3-0.4-0.8-0.5-1.3-0.5c-0.5,0-1,0.2-1.4,0.5c-0.4,0.4-0.5,0.8-0.5,1.3s0.2,1,0.5,1.4C250.2,266.4,250.6,266.5,251.2,266.5z"/>
	<path class="st1" d="M295.6,286l-6.7-20l-6.7,20h-2.7v-17.5c-0.2,0.1-0.5,0.2-0.7,0.2c-0.3,0-0.5,0-0.8,0c-0.6,0-1.1-0.1-1.6-0.3
		c-0.5-0.2-0.9-0.5-1.3-0.9c-0.4-0.4-0.7-0.8-0.9-1.3c-0.2-0.5-0.3-1-0.3-1.6c0-0.6,0.1-1.1,0.3-1.6c0.2-0.5,0.5-0.9,0.9-1.3
		c0.4-0.4,0.8-0.7,1.3-0.9c0.5-0.2,1-0.3,1.6-0.3c0.6,0,1.1,0.1,1.6,0.3c0.5,0.2,0.9,0.5,1.3,0.9c0.4,0.4,0.7,0.8,0.9,1.3
		c0.2,0.5,0.3,1,0.3,1.6v12.4l-0.3,4.1l0.9-4l5.2-14.4h2l5.3,14.4l0.9,4l-0.3-4.1v-16.3h2.5V286H295.6z M278,266.5
		c0.5,0,1-0.2,1.3-0.5c0.3-0.4,0.5-0.8,0.5-1.4s-0.2-1-0.5-1.3c-0.3-0.4-0.8-0.5-1.3-0.5c-0.5,0-1,0.2-1.4,0.5
		c-0.4,0.4-0.5,0.8-0.5,1.3s0.2,1,0.5,1.4C277,266.4,277.4,266.5,278,266.5z"/>
	<path class="st1" d="M304.4,248.6c-0.2,1.3-0.6,2.4-1.2,3.4c-0.5,1-1.3,1.9-2.1,2.6c-0.9,0.7-2,1.3-3.3,1.6s-2.8,0.6-4.6,0.6
		c-1.2,0-2.3-0.1-3.3-0.3c-1-0.2-1.9-0.5-2.7-0.9c-0.7-0.4-1.3-0.9-1.8-1.5c-0.4-0.6-0.6-1.4-0.6-2.2c0-0.7,0.1-1.2,0.4-1.7
		c0.2-0.5,0.5-0.9,0.9-1.2c0.4-0.3,0.8-0.6,1.3-0.7c0.5-0.2,1-0.2,1.5-0.2s1,0.1,1.4,0.2s0.9,0.4,1.2,0.7c0.4,0.3,0.6,0.7,0.9,1.1
		c0.2,0.5,0.3,1,0.3,1.6c0,0.7-0.2,1.3-0.5,1.8c-0.3,0.5-0.6,0.8-1,1c0.2,0.1,0.5,0.2,0.8,0.2c0.3,0.1,0.7,0.1,1.1,0.1
		c1.4,0,2.6-0.1,3.6-0.4c1-0.3,1.9-0.7,2.6-1.3c0.7-0.5,1.3-1.2,1.6-2c0.4-0.8,0.6-1.6,0.8-2.6H304.4z M288.8,253.7
		c0.5,0,1-0.2,1.3-0.5c0.4-0.4,0.5-0.8,0.5-1.3s-0.2-1-0.6-1.3c-0.4-0.4-0.8-0.5-1.4-0.5s-1,0.2-1.3,0.5c-0.3,0.3-0.5,0.8-0.5,1.3
		s0.2,1,0.6,1.3C287.8,253.6,288.3,253.7,288.8,253.7z"/>
	<path class="st1" d="M320.9,286v-16.1c0-1.1-0.2-2-0.6-2.9c-0.4-0.9-0.9-1.6-1.6-2.2c-0.7-0.6-1.5-1.1-2.4-1.4
		c-0.9-0.3-1.9-0.5-3-0.5c-1.7,0-3.1,0.4-4.4,1.2c-1.2,0.8-2.2,1.9-2.8,3.2l2.3,2.7V286h-2.5v-15.5l-2.5-2.9c0.3-1.1,0.7-2,1.3-2.9
		c0.6-0.9,1.3-1.6,2.2-2.2c0.9-0.6,1.8-1.1,2.9-1.4c1.1-0.3,2.3-0.5,3.6-0.5c1.5,0,2.9,0.2,4.2,0.7c1.3,0.5,2.3,1.1,3.2,2
		c0.9,0.8,1.6,1.8,2.1,3s0.7,2.5,0.7,3.9V286H320.9z"/>
	<path class="st1" d="M346.6,286l-6.9-8.1L333,286h-2.6v-21.4c0-0.6,0.1-1.1,0.3-1.6c0.2-0.5,0.5-0.9,0.9-1.3
		c0.4-0.4,0.8-0.7,1.3-0.9c0.5-0.2,1-0.3,1.6-0.3c0.6,0,1.1,0.1,1.6,0.3c0.5,0.2,0.9,0.5,1.3,0.9c0.4,0.4,0.7,0.8,0.9,1.3
		c0.2,0.5,0.3,1,0.3,1.6c0,0.6-0.1,1.1-0.3,1.6c-0.2,0.5-0.5,0.9-0.9,1.3c-0.4,0.4-0.8,0.7-1.3,0.9c-0.5,0.2-1,0.3-1.6,0.3
		c-0.3,0-0.6,0-0.9,0c-0.3,0-0.5-0.1-0.7-0.2v14.3l6.8-8.2l6.9,8v-21.8h2.5V286H346.6z M334.5,266.5c0.5,0,1-0.2,1.3-0.5
		c0.3-0.4,0.5-0.8,0.5-1.4s-0.2-1-0.5-1.3c-0.4-0.4-0.8-0.5-1.3-0.5s-1,0.2-1.4,0.5c-0.4,0.4-0.6,0.8-0.6,1.3s0.2,1,0.6,1.4
		C333.5,266.4,334,266.5,334.5,266.5z"/>
	<path class="st1" d="M346.6,255.8v-9h2.6v9H346.6z"/>
	<path class="st1" d="M356.9,286v-12.3c0-0.6,0.1-1.1,0.3-1.6c0.2-0.5,0.5-0.9,0.9-1.3c0.4-0.4,0.8-0.6,1.3-0.8s1-0.3,1.6-0.3
		c0.6,0,1.1,0.1,1.6,0.3s0.9,0.5,1.3,0.8c0.3,0.4,0.6,0.8,0.8,1.3c0.2,0.5,0.3,1,0.3,1.6c0,0.6-0.1,1.1-0.3,1.6s-0.5,0.9-0.8,1.3
		c-0.3,0.3-0.8,0.6-1.3,0.8c-0.5,0.2-1,0.3-1.6,0.3c-0.3,0-0.6,0-0.8-0.1c-0.3,0-0.5-0.1-0.7-0.2v6.3h11.4v-14.5
		c0-1-0.2-1.9-0.5-2.7c-0.4-0.8-0.8-1.5-1.5-2c-0.6-0.6-1.4-1-2.3-1.3s-1.9-0.4-2.9-0.4c-0.9,0-1.8,0.1-2.5,0.4
		c-0.8,0.3-1.4,0.6-2,1.1c-0.6,0.5-1.1,1-1.4,1.6c-0.4,0.6-0.6,1.3-0.7,2h-2.7c0.2-1.1,0.5-2.1,1.1-3c0.5-0.9,1.2-1.7,2-2.3
		c0.8-0.6,1.8-1.1,2.8-1.5c1.1-0.4,2.2-0.5,3.4-0.5c1.4,0,2.7,0.2,3.9,0.6c1.2,0.4,2.2,0.9,3.1,1.7c0.9,0.7,1.5,1.6,2,2.7
		c0.5,1.1,0.7,2.3,0.7,3.7V286H356.9z M362.8,273.7c0-0.5-0.2-1-0.5-1.3c-0.3-0.3-0.8-0.5-1.3-0.5s-1,0.2-1.3,0.5
		c-0.3,0.4-0.5,0.8-0.5,1.3s0.2,1,0.5,1.3s0.8,0.5,1.3,0.5s1-0.2,1.3-0.5S362.8,274.3,362.8,273.7z"/>
	<path class="st1" d="M394.7,282l-8.7,4h-2.7v-17.5c-0.2,0.1-0.5,0.2-0.7,0.2c-0.3,0-0.5,0-0.8,0c-0.6,0-1.1-0.1-1.6-0.3
		c-0.5-0.2-0.9-0.5-1.3-0.9c-0.4-0.4-0.7-0.8-0.9-1.3c-0.2-0.5-0.3-1-0.3-1.6c0-0.6,0.1-1.1,0.3-1.6c0.2-0.5,0.5-0.9,0.9-1.3
		c0.4-0.4,0.8-0.7,1.3-0.9c0.5-0.2,1-0.3,1.6-0.3c0.6,0,1.1,0.1,1.6,0.3c0.5,0.2,0.9,0.5,1.3,0.9c0.4,0.4,0.7,0.8,0.9,1.3
		c0.2,0.5,0.3,1,0.3,1.6v19l11.5-5.1v-17.7h2.5v17.9c0.8,0.3,1.4,0.8,1.9,1.4c0.5,0.7,0.7,1.4,0.7,2.3c0,0.6-0.1,1.1-0.3,1.6
		c-0.2,0.5-0.5,0.9-0.8,1.2c-0.3,0.4-0.8,0.6-1.2,0.8c-0.5,0.2-1,0.3-1.5,0.3c-0.6,0-1.1-0.1-1.5-0.3c-0.5-0.2-0.9-0.4-1.2-0.8
		c-0.3-0.3-0.6-0.7-0.8-1.2c-0.2-0.5-0.3-1-0.3-1.5V282z M381.8,266.6c0.5,0,1-0.2,1.3-0.6s0.5-0.8,0.5-1.4c0-0.5-0.2-1-0.5-1.4
		s-0.8-0.5-1.3-0.5c-0.5,0-1,0.2-1.4,0.5c-0.4,0.4-0.5,0.8-0.5,1.4c0,0.5,0.2,1,0.5,1.4C380.8,266.4,381.2,266.6,381.8,266.6z
		 M398.6,284.2c0.5,0,0.9-0.2,1.2-0.5c0.3-0.3,0.5-0.7,0.5-1.2c0-0.5-0.2-0.9-0.5-1.2c-0.3-0.3-0.7-0.5-1.2-0.5
		c-0.5,0-0.9,0.2-1.2,0.5c-0.3,0.3-0.5,0.7-0.5,1.2c0,0.5,0.2,0.9,0.5,1.2C397.7,284,398.1,284.2,398.6,284.2z"/>
	<path class="st1" d="M411.7,251.3c0-1.3-0.3-2.3-1-3c-0.7-0.7-1.7-1.1-3-1.1c-0.7,0-1.4,0.2-2,0.7c-0.6,0.5-1,1.1-1.2,2
		c0.2-0.2,0.5-0.4,0.9-0.6c0.3-0.2,0.7-0.2,1.2-0.2c0.6,0,1.1,0.1,1.6,0.3c0.5,0.2,0.9,0.5,1.2,0.8c0.3,0.3,0.6,0.7,0.8,1.2
		c0.2,0.5,0.3,0.9,0.3,1.5c0,1.1-0.3,2-1,2.6c-0.7,0.7-1.6,1-2.8,1c-0.7,0-1.4-0.1-1.9-0.4c-0.6-0.3-1-0.7-1.4-1.2s-0.7-1.1-0.9-1.7
		c-0.2-0.7-0.3-1.3-0.3-2.1c0-0.8,0.2-1.6,0.5-2.4c0.3-0.7,0.7-1.3,1.3-1.9c0.5-0.5,1.2-0.9,1.9-1.2c0.8-0.3,1.6-0.5,2.4-0.5
		c0.9,0,1.8,0.2,2.5,0.5c0.7,0.3,1.4,0.7,1.9,1.3s0.9,1.2,1.2,1.9c0.3,0.7,0.4,1.5,0.4,2.4v27.2c0.2-0.1,0.5-0.2,0.7-0.2
		c0.3,0,0.5,0,0.8,0c0.6,0,1.1,0.1,1.6,0.3c0.5,0.2,0.9,0.5,1.3,0.9c0.4,0.4,0.7,0.8,0.9,1.3c0.2,0.5,0.3,1,0.3,1.6
		c0,0.6-0.1,1.1-0.3,1.6c-0.2,0.5-0.5,0.9-0.9,1.3c-0.4,0.4-0.8,0.7-1.3,0.9c-0.5,0.2-1,0.3-1.6,0.3c-0.6,0-1.1-0.1-1.6-0.3
		c-0.5-0.2-0.9-0.5-1.3-0.9c-0.4-0.4-0.7-0.8-0.9-1.3c-0.2-0.5-0.3-1-0.3-1.6V251.3z M406.7,254.6c0.5,0,0.9-0.2,1.2-0.5
		c0.3-0.4,0.5-0.8,0.5-1.3c0-0.5-0.1-0.9-0.4-1.2c-0.3-0.4-0.7-0.5-1.3-0.5c-0.5,0-0.9,0.2-1.2,0.5c-0.3,0.4-0.4,0.8-0.4,1.2
		c0,0.5,0.1,0.9,0.4,1.3C405.8,254.4,406.2,254.6,406.7,254.6z M417.7,282.2c0-0.5-0.2-1-0.6-1.3c-0.4-0.4-0.8-0.5-1.4-0.5
		c-0.5,0-1,0.2-1.3,0.5c-0.4,0.4-0.5,0.8-0.5,1.3c0,0.5,0.2,1,0.5,1.4s0.8,0.6,1.3,0.6c0.5,0,1-0.2,1.4-0.6
		C417.6,283.2,417.7,282.7,417.7,282.2z"/>
	<path class="st1" d="M438.7,282l-8.7,4h-2.7v-17.5c-0.2,0.1-0.5,0.2-0.7,0.2s-0.5,0-0.8,0c-0.6,0-1.1-0.1-1.6-0.3
		c-0.5-0.2-0.9-0.5-1.3-0.9c-0.4-0.4-0.7-0.8-0.9-1.3c-0.2-0.5-0.3-1-0.3-1.6c0-0.6,0.1-1.1,0.3-1.6c0.2-0.5,0.5-0.9,0.9-1.3
		c0.4-0.4,0.8-0.7,1.3-0.9c0.5-0.2,1-0.3,1.6-0.3c0.6,0,1.1,0.1,1.6,0.3c0.5,0.2,0.9,0.5,1.3,0.9c0.4,0.4,0.7,0.8,0.9,1.3
		c0.2,0.5,0.3,1,0.3,1.6v19l11.5-5.1v-17.7h2.5v17.9c0.8,0.3,1.4,0.8,1.9,1.4c0.5,0.7,0.7,1.4,0.7,2.3c0,0.6-0.1,1.1-0.3,1.6
		c-0.2,0.5-0.5,0.9-0.8,1.2c-0.3,0.4-0.8,0.6-1.2,0.8c-0.5,0.2-1,0.3-1.5,0.3c-0.6,0-1.1-0.1-1.5-0.3s-0.9-0.4-1.2-0.8
		c-0.3-0.3-0.6-0.7-0.8-1.2c-0.2-0.5-0.3-1-0.3-1.5V282z M425.8,266.6c0.5,0,1-0.2,1.3-0.6s0.5-0.8,0.5-1.4c0-0.5-0.2-1-0.5-1.4
		s-0.8-0.5-1.3-0.5c-0.5,0-1,0.2-1.4,0.5c-0.4,0.4-0.5,0.8-0.5,1.4c0,0.5,0.2,1,0.5,1.4C424.8,266.4,425.2,266.6,425.8,266.6z
		 M442.6,284.2c0.5,0,0.9-0.2,1.2-0.5c0.3-0.3,0.5-0.7,0.5-1.2c0-0.5-0.2-0.9-0.5-1.2c-0.3-0.3-0.7-0.5-1.2-0.5
		c-0.5,0-0.9,0.2-1.2,0.5c-0.3,0.3-0.5,0.7-0.5,1.2c0,0.5,0.2,0.9,0.5,1.2C441.7,284,442.1,284.2,442.6,284.2z"/>
	<path class="st1" d="M458,286v-19.9c0-1.2-0.3-2.1-0.8-2.7s-1.4-0.9-2.6-0.9c-0.8,0-1.4,0.2-1.9,0.5c-0.5,0.3-0.8,0.8-1,1.4
		c0.1,0,0.2-0.1,0.5-0.1c0.2,0,0.4,0,0.6,0c0.6,0,1.2,0.1,1.6,0.3c0.5,0.2,0.9,0.5,1.2,0.8c0.3,0.3,0.6,0.7,0.7,1.2
		c0.2,0.5,0.2,0.9,0.2,1.5c0,0.6-0.1,1.1-0.3,1.5c-0.2,0.5-0.4,0.9-0.8,1.2c-0.3,0.3-0.7,0.6-1.2,0.8c-0.5,0.2-1,0.3-1.5,0.3
		c-0.6,0-1.2-0.1-1.7-0.4c-0.5-0.2-0.9-0.6-1.3-1c-0.4-0.4-0.6-0.9-0.8-1.5c-0.2-0.6-0.3-1.2-0.3-1.9c0-0.9,0.1-1.8,0.4-2.6
		c0.3-0.8,0.7-1.5,1.2-2.1c0.5-0.6,1.2-1,1.9-1.3c0.7-0.3,1.6-0.5,2.5-0.5c0.8,0,1.6,0.1,2.3,0.4c0.7,0.2,1.3,0.6,1.8,1.1
		c0.5,0.5,0.9,1,1.2,1.7c0.3,0.7,0.4,1.5,0.4,2.4v17.6h5.3v-13.5c0-0.7-0.1-1.3-0.2-1.8c-0.1-0.5-0.3-1-0.6-1.3
		c-0.3-0.4-0.6-0.7-1-1c-0.4-0.3-0.9-0.5-1.4-0.8l6.6-7.2l1.8,1.6l-4.9,5.3c0.7,0.5,1.3,1.2,1.7,1.9c0.4,0.8,0.6,1.8,0.6,3v16H458z
		 M452.7,269.9c0.5,0,0.9-0.2,1.2-0.5c0.3-0.4,0.5-0.8,0.5-1.3c0-0.5-0.2-1-0.5-1.3c-0.3-0.3-0.7-0.5-1.3-0.5c-0.6,0-1,0.2-1.3,0.5
		s-0.5,0.8-0.5,1.3c0,0.5,0.2,1,0.5,1.3C451.8,269.7,452.2,269.9,452.7,269.9z"/>
	<path class="st1" d="M465.7,255.8v-9h2.6v9H465.7z"/>
	<path class="st1" d="M487.1,268.3c0-0.8-0.1-1.6-0.4-2.3c-0.3-0.7-0.6-1.3-1.1-1.8s-1.1-0.9-1.9-1.1c-0.7-0.3-1.6-0.4-2.6-0.4
		c-1,0-1.8,0.2-2.6,0.5c-0.7,0.3-1.4,0.8-1.9,1.3c-0.5,0.6-0.9,1.2-1.2,2c-0.3,0.8-0.4,1.6-0.4,2.5h-2.5c0-1.2,0.2-2.3,0.6-3.3
		c0.4-1,0.9-1.9,1.7-2.7c0.7-0.8,1.6-1.4,2.7-1.8c1.1-0.4,2.2-0.7,3.6-0.7c1.4,0,2.7,0.2,3.7,0.5c1.1,0.4,1.9,0.9,2.7,1.5
		c0.7,0.7,1.3,1.5,1.6,2.4c0.4,1,0.5,2,0.5,3.2v13.9c0,0.6-0.1,1.1-0.3,1.6c-0.2,0.5-0.5,0.9-0.9,1.3c-0.4,0.4-0.8,0.7-1.3,0.9
		c-0.5,0.2-1,0.3-1.6,0.3c-0.6,0-1.1-0.1-1.6-0.3s-0.9-0.5-1.3-0.9c-0.4-0.4-0.7-0.8-0.9-1.3c-0.2-0.5-0.3-1-0.3-1.6
		c0-0.6,0.1-1.1,0.3-1.6c0.2-0.5,0.5-0.9,0.9-1.3c0.4-0.4,0.8-0.7,1.3-0.9c0.5-0.2,1-0.3,1.6-0.3c0.3,0,0.6,0,0.8,0
		c0.3,0,0.5,0.1,0.8,0.2V268.3z M485.5,284.1c0.5,0,1-0.2,1.4-0.6c0.4-0.4,0.5-0.8,0.5-1.4c0-0.5-0.2-1-0.5-1.3
		c-0.4-0.4-0.8-0.5-1.4-0.5c-0.5,0-1,0.2-1.4,0.5c-0.4,0.4-0.6,0.8-0.6,1.3c0,0.5,0.2,1,0.6,1.4S484.9,284.1,485.5,284.1z"/>
	<path class="st1" d="M506,286l-11.8-13.1l1.7-1.7l10.5,11.5v-14.3c-0.2,0.1-0.5,0.2-0.7,0.2c-0.3,0-0.5,0-0.8,0
		c-0.6,0-1.1-0.1-1.6-0.3c-0.5-0.2-0.9-0.5-1.3-0.9c-0.4-0.4-0.7-0.8-0.9-1.3c-0.2-0.5-0.3-1-0.3-1.6c0-0.6,0.1-1.1,0.3-1.6
		c0.2-0.5,0.5-0.9,0.9-1.3c0.4-0.4,0.8-0.7,1.3-0.9c0.5-0.2,1-0.3,1.6-0.3c0.6,0,1.1,0.1,1.6,0.3c0.5,0.2,0.9,0.5,1.3,0.9
		c0.4,0.4,0.7,0.8,0.9,1.3c0.2,0.5,0.3,1,0.3,1.6V286H506z M504.8,266.6c0.5,0,1-0.2,1.3-0.6s0.5-0.8,0.5-1.4c0-0.5-0.2-1-0.5-1.4
		s-0.8-0.5-1.3-0.5s-1,0.2-1.4,0.5c-0.4,0.4-0.5,0.8-0.5,1.4c0,0.5,0.2,1,0.5,1.4C503.8,266.4,504.2,266.6,504.8,266.6z"/>
	<path class="st1" d="M516.2,260.9h2.5v17.5c0.2-0.1,0.5-0.2,0.7-0.2c0.3,0,0.5,0,0.8,0c0.6,0,1.1,0.1,1.6,0.3
		c0.5,0.2,0.9,0.5,1.3,0.9c0.4,0.4,0.7,0.8,0.9,1.3c0.2,0.5,0.3,1,0.3,1.6c0,0.6-0.1,1.1-0.3,1.6c-0.2,0.5-0.5,0.9-0.9,1.3
		c-0.4,0.4-0.8,0.7-1.3,0.9c-0.5,0.2-1,0.3-1.6,0.3c-0.6,0-1.1-0.1-1.6-0.3s-0.9-0.5-1.3-0.9c-0.4-0.4-0.7-0.8-0.9-1.3
		c-0.2-0.5-0.3-1-0.3-1.6V260.9z M520.3,284.1c0.5,0,1-0.2,1.3-0.6s0.5-0.8,0.5-1.4c0-0.5-0.2-1-0.5-1.3c-0.4-0.4-0.8-0.5-1.3-0.5
		c-0.5,0-1,0.2-1.3,0.5c-0.3,0.4-0.5,0.8-0.5,1.3c0,0.5,0.2,1,0.5,1.4C519.3,283.9,519.7,284.1,520.3,284.1z"/>
	<path class="st1" d="M540.5,268.3c0-0.8-0.1-1.6-0.4-2.3c-0.3-0.7-0.6-1.3-1.1-1.8s-1.1-0.9-1.9-1.1c-0.7-0.3-1.6-0.4-2.6-0.4
		c-1,0-1.8,0.2-2.6,0.5c-0.7,0.3-1.4,0.8-1.9,1.3c-0.5,0.6-0.9,1.2-1.2,2c-0.3,0.8-0.4,1.6-0.4,2.5H526c0-1.2,0.2-2.3,0.6-3.3
		c0.4-1,0.9-1.9,1.7-2.7c0.7-0.8,1.6-1.4,2.7-1.8c1.1-0.4,2.2-0.7,3.6-0.7c1.4,0,2.7,0.2,3.7,0.5c1.1,0.4,1.9,0.9,2.7,1.5
		c0.7,0.7,1.3,1.5,1.6,2.4c0.4,1,0.5,2,0.5,3.2v13.9c0,0.6-0.1,1.1-0.3,1.6c-0.2,0.5-0.5,0.9-0.9,1.3c-0.4,0.4-0.8,0.7-1.3,0.9
		c-0.5,0.2-1,0.3-1.6,0.3c-0.6,0-1.1-0.1-1.6-0.3s-0.9-0.5-1.3-0.9c-0.4-0.4-0.7-0.8-0.9-1.3c-0.2-0.5-0.3-1-0.3-1.6
		c0-0.6,0.1-1.1,0.3-1.6c0.2-0.5,0.5-0.9,0.9-1.3c0.4-0.4,0.8-0.7,1.3-0.9c0.5-0.2,1-0.3,1.6-0.3c0.3,0,0.6,0,0.8,0
		c0.3,0,0.5,0.1,0.8,0.2V268.3z M538.9,284.1c0.5,0,1-0.2,1.4-0.6c0.4-0.4,0.5-0.8,0.5-1.4c0-0.5-0.2-1-0.5-1.3
		c-0.4-0.4-0.8-0.5-1.4-0.5c-0.5,0-1,0.2-1.4,0.5c-0.4,0.4-0.6,0.8-0.6,1.3c0,0.5,0.2,1,0.6,1.4S538.4,284.1,538.9,284.1z"/>
	<path class="st1" d="M565.5,286v-9.9c0-0.7-0.1-1.3-0.4-1.9c-0.3-0.6-0.7-1.1-1.3-1.6c-0.6-0.5-1.3-0.8-2.1-1.1
		c-0.8-0.3-1.8-0.4-2.9-0.4c-1,0-1.8,0.1-2.6,0.4c-0.7,0.3-1.4,0.6-1.9,1.1c-0.5,0.5-0.9,1-1.1,1.7c-0.3,0.7-0.4,1.4-0.4,2.2v1.9
		c0.2-0.1,0.5-0.2,0.7-0.2c0.2,0,0.5,0,0.8,0c0.6,0,1.1,0.1,1.6,0.3c0.5,0.2,0.9,0.5,1.3,0.9c0.4,0.4,0.7,0.8,0.9,1.3
		c0.2,0.5,0.3,1,0.3,1.6c0,0.6-0.1,1.1-0.3,1.6c-0.2,0.5-0.5,0.9-0.9,1.3c-0.4,0.4-0.8,0.7-1.3,0.9c-0.5,0.2-1,0.3-1.6,0.3
		c-0.6,0-1.1-0.1-1.6-0.3s-0.9-0.5-1.3-0.9c-0.4-0.4-0.6-0.8-0.8-1.3c-0.2-0.5-0.3-1-0.3-1.6v-5.8c0-1.1,0.2-2.1,0.6-3
		c0.4-0.9,1-1.7,1.8-2.4c0.8-0.7,1.7-1.2,2.7-1.6c1-0.4,2.2-0.6,3.5-0.6c1.5,0,2.8,0.2,3.9,0.7c1,0.4,2,1.1,2.8,1.9v-3.5
		c0-0.7-0.2-1.4-0.5-2c-0.3-0.6-0.8-1.2-1.3-1.6c-0.6-0.5-1.3-0.8-2.2-1.1c-0.9-0.3-1.8-0.4-3-0.4c-1.4,0-2.5,0.1-3.4,0.4
		s-1.7,0.7-2.3,1.2s-1,1-1.3,1.6c-0.3,0.6-0.5,1.2-0.6,1.9h-2.4c0-1,0.3-1.9,0.8-2.8c0.5-0.9,1.1-1.7,2-2.3c0.8-0.7,1.9-1.2,3.1-1.6
		s2.6-0.6,4.1-0.6c1.4,0,2.7,0.2,3.9,0.5c1.2,0.4,2.2,0.9,3,1.5s1.5,1.4,1.9,2.4c0.5,0.9,0.7,1.9,0.7,3.1v18H565.5z M554.2,284.1
		c0.5,0,1-0.2,1.4-0.6c0.4-0.4,0.5-0.8,0.5-1.4c0-0.5-0.2-1-0.5-1.3c-0.4-0.4-0.8-0.5-1.4-0.5s-1,0.2-1.3,0.5
		c-0.4,0.4-0.5,0.8-0.5,1.3c0,0.5,0.2,1,0.5,1.4C553.3,283.9,553.7,284.1,554.2,284.1z"/>
	<path class="st1" d="M586.7,286v-17.2c0-0.8-0.1-1.6-0.3-2.3c-0.2-0.7-0.5-1.4-1-1.9c-0.5-0.5-1-1-1.8-1.3
		c-0.7-0.3-1.6-0.5-2.6-0.5c-0.9,0-1.8,0.1-2.4,0.4c-0.7,0.3-1.2,0.6-1.7,1.1c-0.5,0.5-0.8,1-1.1,1.6c-0.3,0.6-0.4,1.3-0.5,2h-2.5
		c0.1-1.1,0.3-2.1,0.7-3c0.4-0.9,0.9-1.7,1.6-2.3c0.7-0.7,1.5-1.2,2.5-1.5c1-0.4,2.1-0.5,3.5-0.5c1.4,0,2.7,0.2,3.7,0.6
		c1,0.4,1.9,1,2.5,1.7c0.7,0.7,1.1,1.6,1.5,2.6c0.3,1,0.5,2.1,0.5,3.3V286H586.7z"/>
</g>
</svg>
