<?xml version="1.0" encoding="utf-8"?>
<!-- Generator: Adobe Illustrator 24.2.3, SVG Export Plug-In . SVG Version: 6.00 Build 0)  -->
<svg version="1.1" id="Layer_1" xmlns="http://www.w3.org/2000/svg" xmlns:xlink="http://www.w3.org/1999/xlink" x="0px" y="0px"
	 viewBox="0 0 666 260" style="enable-background:new 0 0 666 260;" xml:space="preserve">
<style type="text/css">
	.st0{enable-background:new    ;}
	.st1{fill:#F8EFD7;}
</style>
<g class="st0">
	<path class="st1" d="M3.8,38.9h2.5v17.5c0.2-0.1,0.5-0.2,0.7-0.2c0.3,0,0.5,0,0.8,0c0.6,0,1.1,0.1,1.6,0.3c0.5,0.2,0.9,0.5,1.3,0.9
		c0.4,0.4,0.7,0.8,0.9,1.3c0.2,0.5,0.3,1,0.3,1.6c0,0.6-0.1,1.1-0.3,1.6c-0.2,0.5-0.5,0.9-0.9,1.3c-0.4,0.4-0.8,0.7-1.3,0.9
		c-0.5,0.2-1,0.3-1.6,0.3c-0.6,0-1.1-0.1-1.6-0.3c-0.5-0.2-0.9-0.5-1.3-0.9c-0.4-0.4-0.7-0.8-0.9-1.3c-0.2-0.5-0.3-1-0.3-1.6V38.9z
		 M7.9,62.1c0.5,0,1-0.2,1.3-0.6s0.5-0.8,0.5-1.4c0-0.5-0.2-1-0.5-1.3c-0.4-0.4-0.8-0.5-1.3-0.5s-1,0.2-1.3,0.5
		C6.2,59.2,6,59.7,6,60.2c0,0.5,0.2,1,0.5,1.4C6.9,61.9,7.3,62.1,7.9,62.1z"/>
	<path class="st1" d="M35.4,64l-6.7-20L22,64h-2.7V46.5c-0.2,0.1-0.5,0.2-0.7,0.2c-0.3,0-0.5,0-0.8,0c-0.6,0-1.1-0.1-1.6-0.3
		c-0.5-0.2-0.9-0.5-1.3-0.9c-0.4-0.4-0.7-0.8-0.9-1.3c-0.2-0.5-0.3-1-0.3-1.6c0-0.6,0.1-1.1,0.3-1.6c0.2-0.5,0.5-0.9,0.9-1.3
		c0.4-0.4,0.8-0.7,1.3-0.9c0.5-0.2,1-0.3,1.6-0.3c0.6,0,1.1,0.1,1.6,0.3c0.5,0.2,0.9,0.5,1.3,0.9c0.4,0.4,0.7,0.8,0.9,1.3
		c0.2,0.5,0.3,1,0.3,1.6v12.4l-0.3,4.1l0.9-4l5.2-14.4h2L35,55.2l0.9,4l-0.3-4.1V38.8h2.5V64H35.4z M17.8,44.5c0.5,0,1-0.2,1.3-0.5
		c0.3-0.4,0.5-0.8,0.5-1.4s-0.2-1-0.5-1.3c-0.3-0.4-0.8-0.5-1.3-0.5c-0.5,0-1,0.2-1.4,0.5c-0.4,0.4-0.5,0.8-0.5,1.3s0.2,1,0.5,1.4
		C16.8,44.4,17.2,44.5,17.8,44.5z"/>
	<path class="st1" d="M52.7,48.6h-9.9v-1.5c0-1.2,0.2-2.2,0.6-3.3c0.4-1,0.9-1.9,1.7-2.7c0.7-0.8,1.7-1.4,2.8-1.9
		c1.1-0.5,2.4-0.7,3.8-0.7c1.2,0,2.3,0.2,3.4,0.6c1,0.4,1.9,0.9,2.7,1.6c0.8,0.7,1.3,1.5,1.8,2.5c0.4,1,0.6,2,0.6,3.2h-2.5
		c0-0.8-0.1-1.6-0.4-2.3c-0.3-0.7-0.7-1.3-1.2-1.8c-0.5-0.5-1.2-0.9-1.9-1.2c-0.8-0.3-1.6-0.4-2.6-0.4c-0.9,0-1.8,0.1-2.5,0.4
		c-0.7,0.3-1.4,0.7-1.9,1.2c-0.5,0.5-0.9,1.1-1.2,1.8c-0.3,0.7-0.4,1.5-0.4,2.3h9.8v13.7c0,0.6-0.1,1.1-0.3,1.6
		c-0.2,0.5-0.5,0.9-0.9,1.3c-0.4,0.4-0.8,0.7-1.3,0.9s-1,0.3-1.6,0.3c-0.6,0-1.1-0.1-1.6-0.3s-0.9-0.5-1.3-0.9
		c-0.4-0.4-0.7-0.8-0.9-1.3c-0.2-0.5-0.3-1-0.3-1.6c0-0.6,0.1-1.1,0.3-1.6c0.2-0.5,0.5-0.9,0.9-1.3c0.4-0.4,0.8-0.7,1.3-0.9
		c0.5-0.2,1-0.3,1.6-0.3c0.6,0,1.1,0.1,1.5,0.2V48.6z M51.2,62.1c0.5,0,1-0.2,1.4-0.6s0.5-0.8,0.5-1.4c0-0.5-0.2-1-0.5-1.3
		c-0.4-0.4-0.8-0.5-1.4-0.5s-1,0.2-1.3,0.5c-0.4,0.4-0.5,0.8-0.5,1.3c0,0.5,0.2,1,0.5,1.4C50.2,61.9,50.6,62.1,51.2,62.1z"/>
	<path class="st1" d="M77.1,64V46.8c0-0.8-0.1-1.6-0.3-2.3c-0.2-0.7-0.5-1.4-1-1.9c-0.5-0.5-1-1-1.8-1.3c-0.7-0.3-1.6-0.5-2.6-0.5
		c-0.9,0-1.8,0.1-2.4,0.4c-0.7,0.3-1.2,0.6-1.7,1.1c-0.5,0.5-0.8,1-1.1,1.6c-0.3,0.6-0.4,1.3-0.5,2h-2.5c0.1-1.1,0.3-2.1,0.7-3
		c0.4-0.9,0.9-1.7,1.6-2.3c0.7-0.7,1.5-1.2,2.5-1.5c1-0.4,2.1-0.5,3.5-0.5c1.4,0,2.7,0.2,3.7,0.6c1,0.4,1.9,1,2.5,1.7
		c0.7,0.7,1.1,1.6,1.5,2.6c0.3,1,0.5,2.1,0.5,3.3V64H77.1z"/>
	<path class="st1" d="M101.2,39.1c-0.5,2.7-1.6,4.7-3.4,6c-1.7,1.3-3.9,2-6.6,2c-2.1,0-3.7-0.4-4.9-1.2s-1.7-1.9-1.7-3.3
		c0-0.5,0.1-1,0.3-1.5c0.2-0.5,0.5-0.9,0.8-1.2s0.8-0.6,1.2-0.8s1-0.3,1.7-0.3c0.6,0,1.1,0.1,1.6,0.3c0.5,0.2,0.9,0.5,1.2,0.8
		c0.3,0.4,0.6,0.8,0.8,1.3c0.2,0.5,0.3,1,0.3,1.6c0,0.8-0.2,1.5-0.5,1.9c1.9-0.2,3.4-0.8,4.5-1.7s1.8-2.2,2.3-4H101.2z M101.2,54.9
		c-0.5,2.7-1.6,4.7-3.4,6c-1.7,1.3-3.9,2-6.6,2c-2.1,0-3.7-0.4-4.9-1.2s-1.7-1.9-1.7-3.3c0-0.5,0.1-1,0.3-1.5
		c0.2-0.5,0.5-0.9,0.8-1.2c0.3-0.3,0.8-0.6,1.2-0.8s1-0.3,1.7-0.3c0.6,0,1.1,0.1,1.6,0.3c0.5,0.2,0.9,0.5,1.2,0.8
		c0.3,0.4,0.6,0.8,0.8,1.3c0.2,0.5,0.3,1,0.3,1.5c0,0.9-0.2,1.5-0.5,2c1-0.1,1.8-0.3,2.5-0.6s1.4-0.6,1.9-1.1c0.5-0.5,1-1,1.4-1.7
		c0.4-0.7,0.7-1.4,0.9-2.3H101.2z M90.4,42.8c0-0.5-0.2-0.9-0.5-1.2c-0.3-0.3-0.7-0.5-1.2-0.5c-0.5,0-0.9,0.2-1.2,0.5
		C87.2,42,87,42.4,87,42.8c0,0.5,0.2,0.9,0.5,1.2c0.3,0.3,0.7,0.5,1.2,0.5c0.5,0,0.9-0.2,1.2-0.5C90.2,43.7,90.4,43.3,90.4,42.8z
		 M90.4,58.6c0-0.5-0.2-0.9-0.5-1.2c-0.3-0.3-0.7-0.5-1.2-0.5c-0.5,0-0.9,0.2-1.2,0.5c-0.3,0.3-0.5,0.7-0.5,1.2
		c0,0.5,0.2,0.9,0.5,1.2c0.3,0.3,0.7,0.5,1.2,0.5c0.5,0,0.9-0.2,1.2-0.5C90.2,59.5,90.4,59.1,90.4,58.6z"/>
	<path class="st1" d="M119.5,46.3c0-0.8-0.1-1.6-0.4-2.3c-0.3-0.7-0.6-1.3-1.1-1.8c-0.5-0.5-1.1-0.9-1.9-1.1
		c-0.7-0.3-1.6-0.4-2.6-0.4c-1,0-1.8,0.2-2.6,0.5c-0.7,0.3-1.4,0.8-1.9,1.3c-0.5,0.6-0.9,1.2-1.2,2c-0.3,0.8-0.4,1.6-0.4,2.5H105
		c0-1.2,0.2-2.3,0.6-3.3c0.4-1,0.9-1.9,1.7-2.7c0.7-0.8,1.6-1.4,2.7-1.8s2.2-0.7,3.6-0.7c1.4,0,2.7,0.2,3.7,0.5
		c1.1,0.4,1.9,0.9,2.7,1.5c0.7,0.7,1.3,1.5,1.6,2.4c0.4,1,0.5,2,0.5,3.2v13.9c0,0.6-0.1,1.1-0.3,1.6c-0.2,0.5-0.5,0.9-0.9,1.3
		c-0.4,0.4-0.8,0.7-1.3,0.9c-0.5,0.2-1,0.3-1.6,0.3s-1.1-0.1-1.6-0.3c-0.5-0.2-0.9-0.5-1.3-0.9c-0.4-0.4-0.7-0.8-0.9-1.3
		c-0.2-0.5-0.3-1-0.3-1.6c0-0.6,0.1-1.1,0.3-1.6c0.2-0.5,0.5-0.9,0.9-1.3c0.4-0.4,0.8-0.7,1.3-0.9c0.5-0.2,1-0.3,1.6-0.3
		c0.3,0,0.6,0,0.8,0c0.3,0,0.5,0.1,0.8,0.2V46.3z M117.9,62.1c0.5,0,1-0.2,1.4-0.6c0.4-0.4,0.5-0.8,0.5-1.4c0-0.5-0.2-1-0.5-1.3
		c-0.4-0.4-0.8-0.5-1.4-0.5s-1,0.2-1.4,0.5c-0.4,0.4-0.6,0.8-0.6,1.3c0,0.5,0.2,1,0.6,1.4S117.4,62.1,117.9,62.1z"/>
	<path class="st1" d="M119.4,33.8v-9h2.6v9H119.4z"/>
	<path class="st1" d="M140.7,64V46.8c0-0.8-0.1-1.6-0.3-2.3c-0.2-0.7-0.5-1.4-1-1.9c-0.5-0.5-1-1-1.8-1.3c-0.7-0.3-1.6-0.5-2.6-0.5
		c-0.9,0-1.8,0.1-2.4,0.4c-0.7,0.3-1.2,0.6-1.7,1.1c-0.5,0.5-0.8,1-1.1,1.6c-0.3,0.6-0.4,1.3-0.5,2h-2.5c0.1-1.1,0.3-2.1,0.7-3
		c0.4-0.9,0.9-1.7,1.6-2.3c0.7-0.7,1.5-1.2,2.5-1.5c1-0.4,2.1-0.5,3.5-0.5c1.4,0,2.7,0.2,3.7,0.6c1,0.4,1.9,1,2.5,1.7
		c0.7,0.7,1.1,1.6,1.5,2.6c0.3,1,0.5,2.1,0.5,3.3V64H140.7z"/>
	<path class="st1" d="M167.2,64l-10.7-4.6v0.8c0,0.6-0.1,1.1-0.3,1.6c-0.2,0.5-0.5,0.9-0.9,1.3c-0.4,0.4-0.8,0.7-1.3,0.9
		c-0.5,0.2-1,0.3-1.6,0.3c-0.6,0-1.1-0.1-1.6-0.3c-0.5-0.2-0.9-0.5-1.3-0.9c-0.4-0.4-0.7-0.8-0.9-1.3c-0.2-0.5-0.3-1-0.3-1.6
		c0-0.6,0.1-1.1,0.3-1.6c0.2-0.5,0.5-0.9,0.9-1.3c0.4-0.4,0.8-0.7,1.3-0.9c0.5-0.2,1-0.3,1.6-0.3c0.3,0,0.6,0,0.8,0
		c0.3,0,0.5,0.1,0.7,0.2v-9.9c-0.2,0.1-0.5,0.2-0.7,0.2c-0.3,0-0.5,0-0.8,0c-0.6,0-1.1-0.1-1.6-0.3c-0.5-0.2-0.9-0.5-1.3-0.9
		c-0.4-0.4-0.7-0.8-0.9-1.3c-0.2-0.5-0.3-1-0.3-1.6c0-0.6,0.1-1.1,0.3-1.6c0.2-0.5,0.5-0.9,0.9-1.3c0.4-0.4,0.8-0.7,1.3-0.9
		c0.5-0.2,1-0.3,1.6-0.3c0.6,0,1.1,0.1,1.6,0.3c0.5,0.2,0.9,0.5,1.3,0.9c0.4,0.4,0.7,0.8,0.9,1.3c0.2,0.5,0.3,1,0.3,1.6v14.5
		l10.6,4.4V38.8h2.5V64H167.2z M152.4,44.5c0.5,0,1-0.2,1.3-0.5c0.4-0.4,0.5-0.8,0.5-1.4s-0.2-1-0.5-1.3c-0.4-0.4-0.8-0.5-1.3-0.5
		s-1,0.2-1.4,0.5c-0.4,0.4-0.5,0.8-0.5,1.3s0.2,1,0.5,1.4C151.4,44.4,151.9,44.5,152.4,44.5z M152.4,62.1c0.5,0,1-0.2,1.3-0.6
		c0.4-0.4,0.5-0.8,0.5-1.4c0-0.5-0.2-1-0.5-1.3c-0.4-0.4-0.8-0.5-1.3-0.5s-1,0.2-1.4,0.5c-0.4,0.4-0.5,0.8-0.5,1.3
		c0,0.5,0.2,1,0.5,1.4S151.9,62.1,152.4,62.1z"/>
	<path class="st1" d="M167.7,33.8c-1.7-0.6-3.3-1.1-4.8-1.5c-1.5-0.4-2.9-0.7-4.2-0.9c-1.3-0.2-2.5-0.4-3.6-0.4
		c-1.1-0.1-2.1-0.1-3.1-0.2c-0.5,0-0.8,0-1.2,0s-0.6,0-0.8,0c-0.2,0-0.4,0-0.6,0c-0.2,0-0.4,0-0.6,0.1c0.4-1.1,1-2.2,1.6-3.1
		c0.7-0.9,1.4-1.7,2.3-2.3c0.9-0.6,1.8-1.1,2.9-1.4c1.1-0.3,2.2-0.5,3.4-0.5c3.3,0,6,1.3,8.1,4v-6h2.4v12.8L167.7,33.8z M167.1,31.4
		c-0.9-1.9-1.9-3.3-3.2-4.2c-1.3-0.9-2.8-1.4-4.8-1.4c-0.7,0-1.5,0.1-2.2,0.2c-0.7,0.1-1.3,0.3-1.9,0.6c-0.6,0.3-1.1,0.6-1.6,1
		c-0.5,0.4-0.9,0.8-1.2,1.3c1.3,0,2.6,0,3.8,0.1c1.2,0.1,2.4,0.2,3.6,0.4c1.2,0.2,2.4,0.5,3.6,0.8C164.4,30.5,165.7,30.9,167.1,31.4
		z"/>
</g>
<g class="st0">
	<path class="st1" d="M213.2,64l-8.9-10.5L195.6,64H190V35.3c0-0.9,0.1-1.8,0.4-2.6c0.3-0.8,0.7-1.6,1.2-2.2
		c0.6-0.6,1.3-1.2,2.2-1.5c0.9-0.4,2-0.6,3.2-0.6c1,0,1.9,0.2,2.7,0.5s1.5,0.8,2.1,1.3c0.6,0.6,1,1.2,1.3,2c0.3,0.8,0.5,1.6,0.5,2.4
		c0,0.9-0.2,1.7-0.5,2.5c-0.3,0.8-0.8,1.4-1.3,2c-0.6,0.5-1.2,1-2,1.3c-0.8,0.3-1.6,0.5-2.5,0.5H196v15.8l8.3-10.4l8.4,10.4v-28h6
		V64H213.2z M199.3,34.5c0-0.7-0.2-1.2-0.7-1.7c-0.5-0.5-1-0.7-1.7-0.7c-0.7,0-1.2,0.2-1.7,0.7c-0.5,0.5-0.7,1-0.7,1.7
		c0,0.7,0.2,1.2,0.7,1.7c0.5,0.5,1,0.7,1.7,0.7c0.7,0,1.2-0.2,1.7-0.7C199,35.8,199.3,35.2,199.3,34.5z"/>
	<path class="st1" d="M243.8,64V40.2c0-1-0.1-1.9-0.4-2.8c-0.3-0.9-0.6-1.6-1.2-2.3c-0.5-0.6-1.3-1.1-2.1-1.5
		c-0.9-0.4-1.9-0.6-3.1-0.6c-1.1,0-2,0.2-2.8,0.5s-1.4,0.8-2,1.4c-0.5,0.6-1,1.3-1.3,2.2c-0.3,0.8-0.5,1.8-0.7,2.7h-6
		c0.2-1.7,0.5-3.2,1.1-4.6c0.6-1.4,1.4-2.6,2.5-3.7c1-1,2.3-1.8,3.8-2.4c1.5-0.6,3.3-0.9,5.3-0.9c2.3,0,4.2,0.3,5.9,0.9
		c1.6,0.6,2.9,1.4,4,2.4c1,1,1.8,2.3,2.2,3.7c0.5,1.4,0.7,3,0.7,4.7V64H243.8z"/>
	<path class="st1" d="M266.2,51.9c0.9,0,1.7,0.2,2.5,0.5c0.8,0.3,1.4,0.8,2,1.3c0.6,0.6,1,1.2,1.3,2c0.3,0.8,0.5,1.6,0.5,2.5
		c0,0.9-0.2,1.7-0.5,2.4c-0.3,0.8-0.8,1.4-1.4,2c-0.6,0.6-1.3,1-2.1,1.3c-0.8,0.3-1.7,0.5-2.7,0.5c-1.3,0-2.3-0.2-3.2-0.6
		c-0.9-0.4-1.6-0.9-2.2-1.6c-0.6-0.7-1-1.4-1.2-2.2c-0.3-0.8-0.4-1.7-0.4-2.6V28.7h5.9v23.2H266.2z M268.2,58.3
		c0-0.7-0.2-1.3-0.7-1.7c-0.5-0.5-1-0.7-1.7-0.7c-0.7,0-1.2,0.2-1.7,0.7c-0.5,0.5-0.7,1-0.7,1.7c0,0.7,0.2,1.2,0.7,1.7
		c0.5,0.5,1,0.7,1.7,0.7c0.7,0,1.2-0.2,1.7-0.7C268,59.5,268.2,59,268.2,58.3z"/>
	<path class="st1" d="M301.1,64V42.1c0-1.4-0.2-2.6-0.6-3.7c-0.4-1.1-1-2.1-1.8-2.9c-0.8-0.8-1.7-1.4-2.9-1.8
		c-1.2-0.4-2.5-0.6-4-0.6c-1.5,0-2.8,0.2-3.9,0.6c-1.1,0.4-2.1,1-2.9,1.8c-0.8,0.8-1.4,1.8-1.8,2.9c-0.4,1.1-0.6,2.4-0.6,3.7v15.4
		l6.7-6.1c-1.1-0.4-1.9-1.1-2.5-2.1c-0.6-1-0.9-2-0.9-3.1c0-0.8,0.1-1.6,0.4-2.3c0.3-0.7,0.7-1.3,1.2-1.8c0.5-0.5,1.1-0.9,1.9-1.2
		c0.7-0.3,1.5-0.4,2.3-0.4c0.9,0,1.7,0.1,2.4,0.4c0.7,0.3,1.3,0.7,1.9,1.2c0.5,0.5,0.9,1.1,1.2,1.8c0.3,0.7,0.4,1.5,0.4,2.3
		c0,0.7-0.1,1.3-0.3,1.9c-0.2,0.6-0.4,1.1-0.7,1.6s-0.6,0.9-0.9,1.3c-0.3,0.4-0.6,0.7-0.9,1l-12.6,12h-5.7V42.3
		c0-2.1,0.4-3.9,1.1-5.6c0.7-1.7,1.7-3.2,3-4.4c1.3-1.2,2.9-2.2,4.8-2.9c1.9-0.7,4-1,6.3-1c2.3,0,4.4,0.3,6.3,1
		c1.9,0.7,3.5,1.6,4.8,2.9c1.3,1.2,2.4,2.7,3.1,4.4s1.1,3.6,1.1,5.6V64H301.1z M294,46.2c0-0.6-0.2-1.1-0.6-1.6
		c-0.4-0.4-1-0.6-1.6-0.6c-0.7,0-1.2,0.2-1.6,0.6c-0.4,0.4-0.6,1-0.6,1.6s0.2,1.1,0.6,1.6c0.4,0.4,0.9,0.6,1.6,0.6
		c0.7,0,1.2-0.2,1.6-0.6C293.8,47.4,294,46.8,294,46.2z"/>
	<path class="st1" d="M301.3,6h5.8v19.2c-1.8-0.8-3.6-1.6-5.7-2.3c-2-0.7-4.1-1.3-6.3-1.8c-2.2-0.5-4.4-0.9-6.6-1.2
		c-2.3-0.3-4.5-0.4-6.7-0.4c-1.1,0-2.2,0-3.2,0.1c-1,0-2.1,0.2-3.1,0.3c1.5-3.7,3.5-6.6,6.1-8.5c2.6-1.9,5.8-2.9,9.5-2.9
		c2.1,0,4,0.3,5.7,1c1.7,0.6,3.2,1.6,4.6,2.8V6z M284.7,16c1.4,0,2.7,0.1,4,0.2c1.3,0.1,2.6,0.3,4,0.6c1.3,0.3,2.7,0.6,4,0.9
		c1.4,0.4,2.8,0.8,4.2,1.3c-0.4-0.8-1-1.6-1.6-2.3c-0.6-0.8-1.4-1.4-2.3-2c-0.9-0.6-1.8-1-2.8-1.4c-1-0.4-2.2-0.5-3.4-0.5
		c-1.9,0-3.5,0.3-4.8,0.9s-2.4,1.4-3.2,2.3H284.7z"/>
	<path class="st1" d="M315.8,64V53.4c0-1.7,0.4-3.1,1.1-4.1c0.7-1.1,1.7-1.8,2.8-2.3c-1.8-0.8-3.2-2-4.1-3.6c-1-1.6-1.5-3.6-1.5-6.1
		c0-1.2,0.2-2.3,0.7-3.4c0.4-1.1,1-2,1.8-2.8c0.8-0.8,1.7-1.5,2.7-2c1-0.5,2.1-0.7,3.3-0.7c1.1,0,2.1,0.2,2.9,0.5
		c0.9,0.3,1.6,0.8,2.2,1.3c0.6,0.5,1,1.2,1.4,1.9c0.3,0.8,0.5,1.6,0.5,2.4c0,0.9-0.2,1.7-0.5,2.4c-0.3,0.7-0.8,1.4-1.3,1.9
		c-0.6,0.5-1.2,1-2,1.3c-0.8,0.3-1.5,0.5-2.4,0.5c-0.7,0-1.3-0.1-2-0.4c-0.7-0.2-1.2-0.6-1.7-0.9c0.1,1.6,0.6,2.8,1.6,3.5
		c1,0.7,2.2,1.1,3.7,1.1h5.8v5h-5.1c-1.2,0-2.2,0.4-2.9,1.1c-0.7,0.8-1,1.9-1,3.5v5.9h14.7V28.7h6V64H315.8z M325.6,34.5
		c0-0.7-0.2-1.2-0.7-1.7c-0.5-0.5-1-0.7-1.7-0.7c-0.7,0-1.2,0.2-1.7,0.7c-0.5,0.5-0.7,1-0.7,1.7c0,0.7,0.2,1.2,0.7,1.7
		c0.5,0.5,1,0.7,1.7,0.7c0.7,0,1.3-0.2,1.7-0.7C325.4,35.8,325.6,35.2,325.6,34.5z"/>
	<path class="st1" d="M367.7,39.6c0-2-0.6-3.6-1.8-4.8c-1.2-1.2-3-1.8-5.5-1.8c-1.1,0-2.1,0.2-3,0.6c-0.9,0.4-1.6,1-2.2,1.8
		c-0.6,0.8-1.1,1.6-1.4,2.7c-0.3,1-0.5,2.2-0.5,3.4h-5.9c0-1.8,0.3-3.5,0.9-5.1c0.6-1.6,1.4-3,2.6-4.2c1.1-1.2,2.5-2.1,4.1-2.8
		c1.6-0.7,3.4-1,5.5-1c2.2,0,4.1,0.3,5.8,0.8c1.6,0.5,3,1.3,4.1,2.2c1.1,1,1.9,2.1,2.5,3.5c0.6,1.4,0.8,2.9,0.8,4.6V57
		c0,0.9-0.1,1.8-0.4,2.6s-0.7,1.6-1.2,2.2c-0.6,0.7-1.3,1.2-2.1,1.6c-0.9,0.4-1.9,0.6-3.2,0.6c-1,0-1.9-0.2-2.7-0.5
		c-0.8-0.3-1.5-0.8-2.1-1.3c-0.6-0.6-1-1.2-1.3-2s-0.5-1.6-0.5-2.4c0-0.9,0.2-1.7,0.5-2.5s0.8-1.4,1.3-2c0.6-0.6,1.2-1,2-1.3
		c0.8-0.3,1.6-0.5,2.5-0.5h1.3V39.6z M369.2,57.8c0-0.7-0.2-1.3-0.7-1.7c-0.5-0.5-1-0.7-1.7-0.7s-1.2,0.2-1.7,0.7
		c-0.5,0.5-0.7,1-0.7,1.7c0,0.7,0.2,1.2,0.7,1.7c0.5,0.5,1,0.7,1.7,0.7s1.2-0.2,1.7-0.7C369,59.1,369.2,58.5,369.2,57.8z"/>
	<path class="st1" d="M406.2,64V42.1c0-1.4-0.2-2.6-0.6-3.7c-0.4-1.1-1-2.1-1.8-2.9c-0.8-0.8-1.7-1.4-2.9-1.8
		c-1.2-0.4-2.5-0.6-4-0.6c-1.5,0-2.8,0.2-3.9,0.6c-1.1,0.4-2.1,1-2.9,1.8c-0.8,0.8-1.4,1.8-1.8,2.9c-0.4,1.1-0.6,2.4-0.6,3.7v15.4
		l6.7-6.1c-1.1-0.4-1.9-1.1-2.5-2.1s-0.9-2-0.9-3.1c0-0.8,0.1-1.6,0.4-2.3c0.3-0.7,0.7-1.3,1.2-1.8c0.5-0.5,1.1-0.9,1.9-1.2
		c0.7-0.3,1.5-0.4,2.3-0.4c0.9,0,1.7,0.1,2.4,0.4c0.7,0.3,1.3,0.7,1.9,1.2c0.5,0.5,0.9,1.1,1.2,1.8c0.3,0.7,0.4,1.5,0.4,2.3
		c0,0.7-0.1,1.3-0.3,1.9c-0.2,0.6-0.4,1.1-0.7,1.6s-0.6,0.9-0.9,1.3c-0.3,0.4-0.6,0.7-0.9,1l-12.6,12h-5.7V42.3
		c0-2.1,0.4-3.9,1.1-5.6s1.7-3.2,3-4.4c1.3-1.2,2.9-2.2,4.8-2.9s4-1,6.3-1c2.3,0,4.4,0.3,6.3,1s3.5,1.6,4.8,2.9
		c1.3,1.2,2.4,2.7,3.1,4.4s1.1,3.6,1.1,5.6V64H406.2z M399.1,46.2c0-0.6-0.2-1.1-0.6-1.6c-0.4-0.4-1-0.6-1.6-0.6
		c-0.7,0-1.2,0.2-1.6,0.6c-0.4,0.4-0.6,1-0.6,1.6s0.2,1.1,0.6,1.6c0.4,0.4,0.9,0.6,1.6,0.6c0.7,0,1.2-0.2,1.6-0.6
		C398.9,47.4,399.1,46.8,399.1,46.2z"/>
	<path class="st1" d="M437.3,64V40.2c0-1-0.1-1.9-0.4-2.8c-0.3-0.9-0.6-1.6-1.2-2.3c-0.5-0.6-1.3-1.1-2.1-1.5
		c-0.9-0.4-1.9-0.6-3.1-0.6c-1.1,0-2,0.2-2.8,0.5c-0.8,0.3-1.4,0.8-2,1.4s-1,1.3-1.3,2.2c-0.3,0.8-0.5,1.8-0.7,2.7h-6
		c0.2-1.7,0.5-3.2,1.1-4.6c0.6-1.4,1.4-2.6,2.5-3.7s2.3-1.8,3.8-2.4c1.5-0.6,3.3-0.9,5.3-0.9c2.3,0,4.2,0.3,5.9,0.9
		c1.6,0.6,2.9,1.4,4,2.4c1,1,1.8,2.3,2.2,3.7c0.5,1.4,0.7,3,0.7,4.7V64H437.3z"/>
	<path class="st1" d="M452,64V53.4c0-1.7,0.4-3.1,1.1-4.1c0.7-1.1,1.7-1.8,2.8-2.3c-1.8-0.8-3.2-2-4.1-3.6c-1-1.6-1.5-3.6-1.5-6.1
		c0-1.2,0.2-2.3,0.7-3.4c0.4-1.1,1-2,1.8-2.8c0.8-0.8,1.7-1.5,2.7-2c1-0.5,2.1-0.7,3.3-0.7c1.1,0,2.1,0.2,2.9,0.5
		c0.9,0.3,1.6,0.8,2.2,1.3s1,1.2,1.4,1.9s0.5,1.6,0.5,2.4c0,0.9-0.2,1.7-0.5,2.4s-0.8,1.4-1.3,1.9c-0.6,0.5-1.2,1-2,1.3
		c-0.8,0.3-1.5,0.5-2.4,0.5c-0.7,0-1.3-0.1-2-0.4c-0.7-0.2-1.2-0.6-1.7-0.9c0.1,1.6,0.6,2.8,1.6,3.5c1,0.7,2.2,1.1,3.7,1.1h5.8v5
		H462c-1.2,0-2.2,0.4-2.9,1.1s-1,1.9-1,3.5v5.9h14.7V28.7h6V64H452z M461.8,34.5c0-0.7-0.2-1.2-0.7-1.7c-0.5-0.5-1-0.7-1.7-0.7
		c-0.7,0-1.2,0.2-1.7,0.7c-0.5,0.5-0.7,1-0.7,1.7c0,0.7,0.2,1.2,0.7,1.7c0.5,0.5,1,0.7,1.7,0.7c0.7,0,1.3-0.2,1.7-0.7
		C461.6,35.8,461.8,35.2,461.8,34.5z"/>
</g>
<g class="st0">
	<path class="st1" d="M511.7,64l-2.5-10.7c-0.3,0.2-0.6,0.3-0.9,0.4c-0.3,0.1-0.6,0.1-1,0.1c-0.6,0-1.1-0.1-1.6-0.3
		c-0.5-0.2-0.9-0.4-1.2-0.8c-0.3-0.3-0.6-0.7-0.8-1.2c-0.2-0.4-0.3-0.9-0.3-1.5c0-0.6,0.1-1.1,0.3-1.5c0.2-0.5,0.4-0.9,0.8-1.2
		s0.7-0.6,1.2-0.8c0.5-0.2,1-0.3,1.5-0.3c1.1,0,2,0.3,2.6,0.8c0.6,0.6,1,1.3,1.3,2.3l1.4,6.5c0,0.1,0.1,0.4,0.1,0.8s0.1,0.8,0.2,1.2
		s0.1,0.9,0.2,1.3c0.1,0.4,0.1,0.7,0.1,0.9h0c0-0.3,0-0.8,0-1.3c0-0.6,0.1-1.1,0.2-1.6c0.3-1.7,0.5-3.2,0.6-4.4
		c0.2-1.2,0.3-2.1,0.4-2.9c0.1-0.8,0.2-1.3,0.2-1.7c0-0.4,0.1-0.6,0.1-0.7c0-1-0.1-1.9-0.4-2.7c-0.3-0.8-0.7-1.6-1.3-2.2
		c-0.6-0.6-1.3-1.1-2.3-1.5c-0.9-0.4-2-0.5-3.3-0.5c-0.9,0-1.7,0.1-2.5,0.4c-0.8,0.3-1.4,0.6-2,1.1c-0.6,0.5-1.1,1-1.4,1.6
		c-0.4,0.6-0.6,1.3-0.7,2h-2.7c0.1-1.1,0.5-2.2,1-3.1c0.6-0.9,1.3-1.7,2.1-2.3c0.9-0.6,1.8-1.1,2.9-1.5c1.1-0.3,2.2-0.5,3.4-0.5
		c1.5,0,2.9,0.2,4.1,0.6c1.2,0.4,2.2,1.1,3,1.9c0.8,0.8,1.5,1.8,1.9,2.9c0.4,1.1,0.7,2.4,0.7,3.9c0,0.1,0,0.3,0,0.5
		c0,0.2-0.1,0.6-0.1,1.1c-0.1,0.5-0.2,1.1-0.3,1.9c-0.1,0.8-0.3,1.7-0.5,2.9c-0.2,1.2-0.4,2.5-0.7,4.2c-0.3,1.6-0.6,3.5-1,5.6H511.7
		z M507.2,51.9c0.5,0,0.9-0.2,1.3-0.5c0.3-0.3,0.5-0.8,0.5-1.2s-0.2-0.9-0.5-1.3c-0.3-0.4-0.7-0.6-1.3-0.6c-0.6,0-1,0.2-1.3,0.6
		c-0.3,0.4-0.4,0.8-0.4,1.3s0.1,0.9,0.4,1.2S506.6,51.9,507.2,51.9z"/>
	<path class="st1" d="M514.8,78.4v-4.9c-0.2,0.1-0.4,0.2-0.6,0.2c-0.2,0-0.5,0.1-0.8,0.1c-0.6,0-1.1-0.1-1.6-0.3s-0.9-0.5-1.2-0.8
		c-0.3-0.3-0.6-0.7-0.8-1.2s-0.3-0.9-0.3-1.4c0-1.1,0.3-2,1-2.6c0.7-0.7,1.6-1,2.8-1c1.2,0,2.1,0.3,2.7,1c0.6,0.7,1,1.6,1,2.7v8.3
		H514.8z M513.4,71.8c0.5,0,0.9-0.2,1.2-0.5c0.3-0.3,0.4-0.7,0.4-1.1c0-0.5-0.1-0.8-0.4-1.1c-0.2-0.3-0.7-0.5-1.2-0.5
		c-0.5,0-0.9,0.2-1.2,0.5c-0.3,0.3-0.4,0.7-0.4,1.1c0,0.5,0.1,0.8,0.4,1.1C512.5,71.6,512.9,71.8,513.4,71.8z"/>
	<path class="st1" d="M541.1,64V48.3c0-1.1-0.2-2.1-0.5-3.1c-0.3-0.9-0.8-1.7-1.4-2.4c-0.6-0.7-1.4-1.2-2.3-1.5
		c-0.9-0.4-2-0.5-3.3-0.5s-2.4,0.2-3.3,0.5c-0.9,0.4-1.7,0.9-2.3,1.5c-0.6,0.7-1.1,1.5-1.4,2.4c-0.3,0.9-0.5,2-0.5,3.1v12.8l6.8-7
		c-0.4,0-0.8-0.1-1.1-0.3c-0.4-0.2-0.7-0.4-1-0.7c-0.3-0.3-0.5-0.7-0.7-1.1c-0.2-0.4-0.3-0.9-0.3-1.4c0-0.6,0.1-1.1,0.3-1.6
		s0.5-0.9,0.8-1.3c0.3-0.4,0.8-0.6,1.3-0.8c0.5-0.2,1-0.3,1.6-0.3c0.6,0,1.1,0.1,1.6,0.3c0.5,0.2,0.9,0.5,1.3,0.9
		c0.3,0.4,0.6,0.8,0.8,1.3s0.3,1,0.3,1.6c0,0.5-0.1,1-0.3,1.6c-0.2,0.5-0.5,1-0.9,1.3l-10,10.5h-2.8V48.4c0-1.5,0.2-2.9,0.7-4.1
		c0.4-1.2,1.1-2.2,2-3.1c0.9-0.9,1.9-1.5,3.1-2c1.2-0.5,2.6-0.7,4.2-0.7c1.6,0,3,0.2,4.2,0.7c1.2,0.5,2.3,1.1,3.1,2
		c0.9,0.9,1.5,1.9,2,3.1c0.5,1.2,0.7,2.6,0.7,4.1V64H541.1z M533.7,52.3c0.5,0,1-0.2,1.3-0.5c0.4-0.4,0.5-0.8,0.5-1.3
		c0-0.5-0.2-1-0.5-1.3c-0.4-0.4-0.8-0.5-1.3-0.5s-1,0.2-1.4,0.5c-0.4,0.4-0.5,0.8-0.5,1.3c0,0.5,0.2,1,0.5,1.3
		C532.7,52.1,533.1,52.3,533.7,52.3z"/>
	<path class="st1" d="M557.5,64V44.1c0-1.2-0.3-2.1-0.8-2.7s-1.4-0.9-2.6-0.9c-0.8,0-1.4,0.2-1.9,0.5c-0.5,0.3-0.8,0.8-1,1.4
		c0.1,0,0.2-0.1,0.5-0.1c0.2,0,0.4,0,0.6,0c0.6,0,1.2,0.1,1.6,0.3c0.5,0.2,0.9,0.5,1.2,0.8c0.3,0.3,0.6,0.7,0.7,1.2
		c0.2,0.5,0.2,0.9,0.2,1.5c0,0.6-0.1,1.1-0.3,1.5c-0.2,0.5-0.4,0.9-0.8,1.2c-0.3,0.3-0.7,0.6-1.2,0.8c-0.5,0.2-1,0.3-1.5,0.3
		c-0.6,0-1.2-0.1-1.7-0.4c-0.5-0.2-0.9-0.6-1.3-1c-0.4-0.4-0.6-0.9-0.8-1.5c-0.2-0.6-0.3-1.2-0.3-1.9c0-0.9,0.1-1.8,0.4-2.6
		c0.3-0.8,0.7-1.5,1.2-2.1c0.5-0.6,1.2-1,1.9-1.3c0.7-0.3,1.6-0.5,2.5-0.5c0.8,0,1.6,0.1,2.3,0.4c0.7,0.2,1.3,0.6,1.8,1.1
		c0.5,0.5,0.9,1,1.2,1.7c0.3,0.7,0.4,1.5,0.4,2.4v17.6h5.3V48.2c0-0.7-0.1-1.3-0.2-1.8c-0.1-0.5-0.3-1-0.6-1.3c-0.3-0.4-0.6-0.7-1-1
		c-0.4-0.3-0.9-0.5-1.4-0.8l6.6-7.2l1.8,1.6l-4.9,5.3c0.7,0.5,1.3,1.2,1.7,1.9c0.4,0.8,0.6,1.8,0.6,3v16H557.5z M552.2,47.9
		c0.5,0,0.9-0.2,1.2-0.5c0.3-0.4,0.5-0.8,0.5-1.3c0-0.5-0.2-1-0.5-1.3c-0.3-0.3-0.7-0.5-1.3-0.5c-0.6,0-1,0.2-1.3,0.5
		s-0.5,0.8-0.5,1.3c0,0.5,0.2,1,0.5,1.3C551.3,47.7,551.7,47.9,552.2,47.9z"/>
	<path class="st1" d="M591.8,64l-10.7-4.6v0.8c0,0.6-0.1,1.1-0.3,1.6c-0.2,0.5-0.5,0.9-0.9,1.3c-0.4,0.4-0.8,0.7-1.3,0.9
		s-1,0.3-1.6,0.3c-0.6,0-1.1-0.1-1.6-0.3s-0.9-0.5-1.3-0.9c-0.4-0.4-0.7-0.8-0.9-1.3c-0.2-0.5-0.3-1-0.3-1.6c0-0.6,0.1-1.1,0.3-1.6
		c0.2-0.5,0.5-0.9,0.9-1.3c0.4-0.4,0.8-0.7,1.3-0.9c0.5-0.2,1-0.3,1.6-0.3c0.3,0,0.6,0,0.8,0c0.3,0,0.5,0.1,0.7,0.2v-9.9
		c-0.2,0.1-0.5,0.2-0.7,0.2c-0.3,0-0.5,0-0.8,0c-0.6,0-1.1-0.1-1.6-0.3c-0.5-0.2-0.9-0.5-1.3-0.9c-0.4-0.4-0.7-0.8-0.9-1.3
		c-0.2-0.5-0.3-1-0.3-1.6c0-0.6,0.1-1.1,0.3-1.6c0.2-0.5,0.5-0.9,0.9-1.3c0.4-0.4,0.8-0.7,1.3-0.9c0.5-0.2,1-0.3,1.6-0.3
		c0.6,0,1.1,0.1,1.6,0.3c0.5,0.2,0.9,0.5,1.3,0.9c0.4,0.4,0.7,0.8,0.9,1.3c0.2,0.5,0.3,1,0.3,1.6v14.5l10.6,4.4V38.8h2.5V64H591.8z
		 M577,44.5c0.5,0,1-0.2,1.3-0.5c0.4-0.4,0.5-0.8,0.5-1.4s-0.2-1-0.5-1.3c-0.4-0.4-0.8-0.5-1.3-0.5s-1,0.2-1.4,0.5
		c-0.4,0.4-0.5,0.8-0.5,1.3s0.2,1,0.5,1.4C576,44.4,576.4,44.5,577,44.5z M577,62.1c0.5,0,1-0.2,1.3-0.6s0.5-0.8,0.5-1.4
		c0-0.5-0.2-1-0.5-1.3c-0.4-0.4-0.8-0.5-1.3-0.5s-1,0.2-1.4,0.5c-0.4,0.4-0.5,0.8-0.5,1.3c0,0.5,0.2,1,0.5,1.4
		C576,61.9,576.4,62.1,577,62.1z"/>
	<path class="st1" d="M613,46.3c0-0.8-0.1-1.6-0.4-2.3c-0.3-0.7-0.6-1.3-1.1-1.8s-1.1-0.9-1.9-1.1c-0.7-0.3-1.6-0.4-2.6-0.4
		c-1,0-1.8,0.2-2.6,0.5c-0.7,0.3-1.4,0.8-1.9,1.3c-0.5,0.6-0.9,1.2-1.2,2c-0.3,0.8-0.4,1.6-0.4,2.5h-2.5c0-1.2,0.2-2.3,0.6-3.3
		c0.4-1,0.9-1.9,1.7-2.7c0.7-0.8,1.6-1.4,2.7-1.8c1.1-0.4,2.2-0.7,3.6-0.7c1.4,0,2.7,0.2,3.7,0.5c1.1,0.4,1.9,0.9,2.7,1.5
		c0.7,0.7,1.3,1.5,1.6,2.4c0.4,1,0.5,2,0.5,3.2v13.9c0,0.6-0.1,1.1-0.3,1.6c-0.2,0.5-0.5,0.9-0.9,1.3c-0.4,0.4-0.8,0.7-1.3,0.9
		c-0.5,0.2-1,0.3-1.6,0.3c-0.6,0-1.1-0.1-1.6-0.3s-0.9-0.5-1.3-0.9c-0.4-0.4-0.7-0.8-0.9-1.3c-0.2-0.5-0.3-1-0.3-1.6
		c0-0.6,0.1-1.1,0.3-1.6c0.2-0.5,0.5-0.9,0.9-1.3c0.4-0.4,0.8-0.7,1.3-0.9c0.5-0.2,1-0.3,1.6-0.3c0.3,0,0.6,0,0.8,0
		c0.3,0,0.5,0.1,0.8,0.2V46.3z M611.4,62.1c0.5,0,1-0.2,1.4-0.6c0.4-0.4,0.5-0.8,0.5-1.4c0-0.5-0.2-1-0.5-1.3
		c-0.4-0.4-0.8-0.5-1.4-0.5c-0.5,0-1,0.2-1.4,0.5c-0.4,0.4-0.6,0.8-0.6,1.3c0,0.5,0.2,1,0.6,1.4S610.9,62.1,611.4,62.1z"/>
	<path class="st1" d="M613.5,33.8c-1.7-0.6-3.3-1.1-4.8-1.5c-1.5-0.4-2.9-0.7-4.2-0.9c-1.3-0.2-2.5-0.4-3.6-0.5
		c-1.1-0.1-2.1-0.1-3.1-0.1c-0.5,0-0.8,0-1.2,0c-0.3,0-0.6,0-0.8,0c-0.2,0-0.4,0-0.6,0c-0.2,0-0.4,0-0.6,0.1c0.4-1.1,1-2.2,1.6-3.1
		c0.7-0.9,1.4-1.7,2.3-2.3c0.9-0.6,1.8-1.1,2.9-1.4c1.1-0.3,2.2-0.5,3.4-0.5c1.5,0,2.8,0.3,4.1,0.8c1.2,0.5,2.3,1.3,3.2,2.2
		c0.9,1,1.6,2.1,2.2,3.4c0.6,1.3,0.9,2.8,1,4.4L613.5,33.8z M612.9,31.4c-0.9-1.9-1.9-3.3-3.2-4.2c-1.3-0.9-2.8-1.4-4.8-1.4
		c-0.7,0-1.5,0.1-2.2,0.2c-0.7,0.1-1.3,0.3-1.9,0.6c-0.6,0.3-1.1,0.6-1.6,1c-0.5,0.4-0.9,0.8-1.2,1.3c1.3,0,2.6,0,3.8,0.1
		c1.2,0.1,2.4,0.2,3.6,0.4c1.2,0.2,2.4,0.5,3.6,0.8C610.3,30.5,611.6,30.9,612.9,31.4z"/>
	<path class="st1" d="M634.3,46.3c0-0.8-0.1-1.6-0.4-2.3c-0.3-0.7-0.6-1.3-1.1-1.8s-1.1-0.9-1.9-1.1c-0.7-0.3-1.6-0.4-2.6-0.4
		c-1,0-1.8,0.2-2.6,0.5c-0.7,0.3-1.4,0.8-1.9,1.3c-0.5,0.6-0.9,1.2-1.2,2c-0.3,0.8-0.4,1.6-0.4,2.5h-2.5c0-1.2,0.2-2.3,0.6-3.3
		c0.4-1,0.9-1.9,1.7-2.7c0.7-0.8,1.6-1.4,2.7-1.8c1.1-0.4,2.2-0.7,3.6-0.7c1.4,0,2.7,0.2,3.7,0.5c1.1,0.4,1.9,0.9,2.7,1.5
		c0.7,0.7,1.3,1.5,1.6,2.4c0.4,1,0.5,2,0.5,3.2v13.9c0,0.6-0.1,1.1-0.3,1.6c-0.2,0.5-0.5,0.9-0.9,1.3c-0.4,0.4-0.8,0.7-1.3,0.9
		c-0.5,0.2-1,0.3-1.6,0.3c-0.6,0-1.1-0.1-1.6-0.3s-0.9-0.5-1.3-0.9c-0.4-0.4-0.7-0.8-0.9-1.3c-0.2-0.5-0.3-1-0.3-1.6
		c0-0.6,0.1-1.1,0.3-1.6c0.2-0.5,0.5-0.9,0.9-1.3c0.4-0.4,0.8-0.7,1.3-0.9c0.5-0.2,1-0.3,1.6-0.3c0.3,0,0.6,0,0.8,0
		c0.3,0,0.5,0.1,0.8,0.2V46.3z M632.7,62.1c0.5,0,1-0.2,1.4-0.6c0.4-0.4,0.5-0.8,0.5-1.4c0-0.5-0.2-1-0.5-1.3
		c-0.4-0.4-0.8-0.5-1.4-0.5c-0.5,0-1,0.2-1.4,0.5c-0.4,0.4-0.6,0.8-0.6,1.3c0,0.5,0.2,1,0.6,1.4S632.2,62.1,632.7,62.1z"/>
</g>
<g class="st0">
	<path class="st1" d="M18.9,144v-9.9c0-0.7-0.1-1.3-0.4-1.9c-0.3-0.6-0.7-1.1-1.3-1.6c-0.6-0.5-1.3-0.8-2.1-1.1
		c-0.8-0.3-1.8-0.4-2.9-0.4c-1,0-1.8,0.1-2.6,0.4c-0.7,0.3-1.4,0.6-1.9,1.1c-0.5,0.5-0.9,1-1.1,1.7c-0.3,0.7-0.4,1.4-0.4,2.2v1.9
		c0.2-0.1,0.5-0.2,0.7-0.2c0.2,0,0.5,0,0.8,0c0.6,0,1.1,0.1,1.6,0.3c0.5,0.2,0.9,0.5,1.3,0.9c0.4,0.4,0.7,0.8,0.9,1.3
		c0.2,0.5,0.3,1,0.3,1.6c0,0.6-0.1,1.1-0.3,1.6c-0.2,0.5-0.5,0.9-0.9,1.3c-0.4,0.4-0.8,0.7-1.3,0.9c-0.5,0.2-1,0.3-1.6,0.3
		c-0.6,0-1.1-0.1-1.6-0.3c-0.5-0.2-0.9-0.5-1.3-0.9c-0.4-0.4-0.6-0.8-0.8-1.3c-0.2-0.5-0.3-1-0.3-1.6v-5.8c0-1.1,0.2-2.1,0.6-3
		c0.4-0.9,1-1.7,1.8-2.4c0.8-0.7,1.7-1.2,2.7-1.6c1-0.4,2.2-0.6,3.5-0.6c1.5,0,2.8,0.2,3.9,0.7c1,0.4,2,1.1,2.8,1.9v-3.5
		c0-0.7-0.2-1.4-0.5-2c-0.3-0.6-0.8-1.2-1.3-1.6c-0.6-0.5-1.3-0.8-2.2-1.1c-0.9-0.3-1.8-0.4-3-0.4c-1.4,0-2.5,0.1-3.4,0.4
		s-1.7,0.7-2.3,1.2s-1,1-1.3,1.6c-0.3,0.6-0.5,1.2-0.6,1.9H2.1c0-1,0.3-1.9,0.8-2.8c0.5-0.9,1.1-1.7,2-2.3c0.8-0.7,1.9-1.2,3.1-1.6
		c1.2-0.4,2.6-0.6,4.1-0.6c1.4,0,2.7,0.2,3.9,0.5c1.2,0.4,2.2,0.9,3,1.5s1.5,1.4,1.9,2.4c0.5,0.9,0.7,1.9,0.7,3.1v18H18.9z
		 M7.7,142.1c0.5,0,1-0.2,1.4-0.6s0.5-0.8,0.5-1.4c0-0.5-0.2-1-0.5-1.3c-0.4-0.4-0.8-0.5-1.4-0.5s-1,0.2-1.3,0.5
		c-0.4,0.4-0.5,0.8-0.5,1.3c0,0.5,0.2,1,0.5,1.4C6.7,141.9,7.2,142.1,7.7,142.1z"/>
	<path class="st1" d="M40.1,144v-17.2c0-0.8-0.1-1.6-0.3-2.3c-0.2-0.7-0.5-1.4-1-1.9c-0.5-0.5-1-1-1.8-1.3c-0.7-0.3-1.6-0.5-2.6-0.5
		c-0.9,0-1.8,0.1-2.4,0.4c-0.7,0.3-1.2,0.6-1.7,1.1c-0.5,0.5-0.8,1-1.1,1.6c-0.3,0.6-0.4,1.3-0.5,2h-2.5c0.1-1.1,0.3-2.1,0.7-3
		c0.4-0.9,0.9-1.7,1.6-2.3c0.7-0.7,1.5-1.2,2.5-1.5c1-0.4,2.1-0.5,3.5-0.5c1.4,0,2.7,0.2,3.7,0.6c1,0.4,1.9,1,2.5,1.7
		c0.7,0.7,1.1,1.6,1.5,2.6c0.3,1,0.5,2.1,0.5,3.3V144H40.1z"/>
	<path class="st1" d="M64,140l-8.7,4h-2.7v-17.5c-0.2,0.1-0.5,0.2-0.7,0.2c-0.3,0-0.5,0-0.8,0c-0.6,0-1.1-0.1-1.6-0.3
		c-0.5-0.2-0.9-0.5-1.3-0.9c-0.4-0.4-0.7-0.8-0.9-1.3c-0.2-0.5-0.3-1-0.3-1.6c0-0.6,0.1-1.1,0.3-1.6c0.2-0.5,0.5-0.9,0.9-1.3
		c0.4-0.4,0.8-0.7,1.3-0.9c0.5-0.2,1-0.3,1.6-0.3c0.6,0,1.1,0.1,1.6,0.3c0.5,0.2,0.9,0.5,1.3,0.9c0.4,0.4,0.7,0.8,0.9,1.3
		c0.2,0.5,0.3,1,0.3,1.6v19l11.5-5.1v-17.7h2.5v17.9c0.8,0.3,1.4,0.8,1.9,1.4c0.5,0.7,0.7,1.4,0.7,2.3c0,0.6-0.1,1.1-0.3,1.6
		c-0.2,0.5-0.5,0.9-0.8,1.2c-0.3,0.4-0.8,0.6-1.2,0.8c-0.5,0.2-1,0.3-1.5,0.3c-0.6,0-1.1-0.1-1.5-0.3c-0.5-0.2-0.9-0.4-1.2-0.8
		c-0.3-0.3-0.6-0.7-0.8-1.2c-0.2-0.5-0.3-1-0.3-1.5V140z M51.1,124.6c0.5,0,1-0.2,1.3-0.6s0.5-0.8,0.5-1.4c0-0.5-0.2-1-0.5-1.4
		s-0.8-0.5-1.3-0.5c-0.5,0-1,0.2-1.4,0.5s-0.5,0.8-0.5,1.4c0,0.5,0.2,1,0.5,1.4S50.6,124.6,51.1,124.6z M67.9,142.2
		c0.5,0,0.9-0.2,1.2-0.5c0.3-0.3,0.5-0.7,0.5-1.2c0-0.5-0.2-0.9-0.5-1.2c-0.3-0.3-0.7-0.5-1.2-0.5c-0.5,0-0.9,0.2-1.2,0.5
		c-0.3,0.3-0.5,0.7-0.5,1.2c0,0.5,0.2,0.9,0.5,1.2C67,142,67.4,142.2,67.9,142.2z"/>
	<path class="st1" d="M93.4,144v-13.7c0-1.9-0.5-2.9-1.4-2.9c-0.6,0-1.3,0.7-2.1,2.1L81.7,144h-2.3v-17.5c-0.2,0.1-0.5,0.2-0.7,0.2
		c-0.3,0-0.5,0-0.8,0c-0.6,0-1.1-0.1-1.6-0.3c-0.5-0.2-0.9-0.5-1.3-0.9c-0.4-0.4-0.7-0.8-0.9-1.3c-0.2-0.5-0.3-1-0.3-1.6
		c0-0.6,0.1-1.1,0.3-1.6c0.2-0.5,0.5-0.9,0.9-1.3c0.4-0.4,0.8-0.7,1.3-0.9c0.5-0.2,1-0.3,1.6-0.3c0.6,0,1.1,0.1,1.6,0.3
		c0.5,0.2,0.9,0.5,1.3,0.9c0.4,0.4,0.7,0.8,0.9,1.3c0.2,0.5,0.3,1,0.3,1.6v13.9c0,0.2,0,0.5,0,0.8c0,0.3,0,0.6,0,1
		c0,0.3,0,0.6-0.1,0.9c0,0.3-0.1,0.5-0.1,0.6l1-2.1l5.1-9.3c0.3-0.5,0.6-1,0.9-1.4c0.3-0.5,0.7-0.8,1.1-1c-0.9-0.8-1.4-1.9-1.4-3.2
		c0-0.6,0.1-1.1,0.3-1.6c0.2-0.5,0.5-0.9,0.9-1.3c0.4-0.4,0.8-0.7,1.3-0.9c0.5-0.2,1.1-0.3,1.6-0.3s1.1,0.1,1.7,0.3
		c0.5,0.2,1,0.5,1.4,0.9c0.4,0.4,0.7,0.8,0.9,1.3c0.2,0.5,0.3,1,0.3,1.6c0,1.6-0.7,2.8-2.1,3.6c0.4,0.4,0.6,0.9,0.8,1.7
		c0.2,0.7,0.2,1.5,0.2,2.4V144H93.4z M77.9,124.5c0.5,0,1-0.2,1.3-0.5c0.3-0.4,0.5-0.8,0.5-1.4s-0.2-1-0.5-1.3
		c-0.3-0.4-0.8-0.5-1.3-0.5c-0.5,0-1,0.2-1.4,0.5c-0.4,0.4-0.5,0.8-0.5,1.3s0.2,1,0.5,1.4C76.9,124.4,77.3,124.5,77.9,124.5z
		 M92.6,124.8c0.6,0,1.1-0.2,1.5-0.6c0.4-0.4,0.6-0.9,0.6-1.5c0-0.6-0.2-1.1-0.6-1.5c-0.4-0.4-0.9-0.6-1.5-0.6
		c-0.6,0-1.1,0.2-1.5,0.6c-0.4,0.4-0.6,0.9-0.6,1.5c0,0.6,0.2,1.1,0.6,1.5S92,124.8,92.6,124.8z"/>
	<path class="st1" d="M93.8,113.8c-1.7-0.6-3.3-1.1-4.8-1.5c-1.5-0.4-2.9-0.7-4.2-0.9c-1.3-0.2-2.5-0.4-3.6-0.5
		c-1.1-0.1-2.1-0.1-3.1-0.1c-0.5,0-0.8,0-1.2,0s-0.6,0-0.8,0c-0.2,0-0.4,0-0.6,0c-0.2,0-0.4,0-0.6,0.1c0.4-1.1,1-2.2,1.6-3.1
		c0.7-0.9,1.4-1.7,2.3-2.3c0.9-0.6,1.8-1.1,2.9-1.4c1.1-0.3,2.2-0.5,3.4-0.5c1.5,0,2.8,0.3,4.1,0.8c1.2,0.5,2.3,1.3,3.2,2.2
		c0.9,1,1.6,2.1,2.2,3.4c0.6,1.3,0.9,2.8,1,4.4L93.8,113.8z M93.2,111.4c-0.9-1.9-1.9-3.3-3.2-4.2c-1.3-0.9-2.8-1.4-4.8-1.4
		c-0.7,0-1.5,0.1-2.2,0.2c-0.7,0.1-1.3,0.3-1.9,0.6c-0.6,0.3-1.1,0.6-1.6,1c-0.5,0.4-0.9,0.8-1.2,1.3c1.3,0,2.6,0,3.8,0.1
		c1.2,0.1,2.4,0.2,3.6,0.4c1.2,0.2,2.4,0.5,3.6,0.8C90.6,110.5,91.9,110.9,93.2,111.4z"/>
	<path class="st1" d="M117.2,140l-8.7,4h-2.7v-17.5c-0.2,0.1-0.5,0.2-0.7,0.2c-0.3,0-0.5,0-0.8,0c-0.6,0-1.1-0.1-1.6-0.3
		c-0.5-0.2-0.9-0.5-1.3-0.9c-0.4-0.4-0.7-0.8-0.9-1.3c-0.2-0.5-0.3-1-0.3-1.6c0-0.6,0.1-1.1,0.3-1.6c0.2-0.5,0.5-0.9,0.9-1.3
		c0.4-0.4,0.8-0.7,1.3-0.9c0.5-0.2,1-0.3,1.6-0.3c0.6,0,1.1,0.1,1.6,0.3c0.5,0.2,0.9,0.5,1.3,0.9c0.4,0.4,0.7,0.8,0.9,1.3
		c0.2,0.5,0.3,1,0.3,1.6v19l11.5-5.1v-17.7h2.5v17.9c0.8,0.3,1.4,0.8,1.9,1.4c0.5,0.7,0.7,1.4,0.7,2.3c0,0.6-0.1,1.1-0.3,1.6
		c-0.2,0.5-0.5,0.9-0.8,1.2c-0.3,0.4-0.8,0.6-1.2,0.8c-0.5,0.2-1,0.3-1.5,0.3c-0.6,0-1.1-0.1-1.5-0.3c-0.5-0.2-0.9-0.4-1.2-0.8
		c-0.3-0.3-0.6-0.7-0.8-1.2c-0.2-0.5-0.3-1-0.3-1.5V140z M104.3,124.6c0.5,0,1-0.2,1.3-0.6s0.5-0.8,0.5-1.4c0-0.5-0.2-1-0.5-1.4
		s-0.8-0.5-1.3-0.5c-0.5,0-1,0.2-1.4,0.5s-0.5,0.8-0.5,1.4c0,0.5,0.2,1,0.5,1.4S103.8,124.6,104.3,124.6z M121.1,142.2
		c0.5,0,0.9-0.2,1.2-0.5c0.3-0.3,0.5-0.7,0.5-1.2c0-0.5-0.2-0.9-0.5-1.2c-0.3-0.3-0.7-0.5-1.2-0.5c-0.5,0-0.9,0.2-1.2,0.5
		c-0.3,0.3-0.5,0.7-0.5,1.2c0,0.5,0.2,0.9,0.5,1.2C120.2,142,120.6,142.2,121.1,142.2z"/>
	<path class="st1" d="M147,144v-20.5c0-0.8-0.2-1.4-0.7-1.9c-0.4-0.5-1.1-0.7-1.8-0.7c-0.6,0-1.1,0.2-1.5,0.5
		c-0.4,0.3-0.7,0.7-0.9,1.3L135,144h-2.4v-17.5c-0.2,0.1-0.5,0.2-0.7,0.2c-0.3,0-0.5,0-0.8,0c-0.6,0-1.1-0.1-1.6-0.3
		c-0.5-0.2-0.9-0.5-1.3-0.9c-0.4-0.4-0.7-0.8-0.9-1.3c-0.2-0.5-0.3-1-0.3-1.6c0-0.6,0.1-1.1,0.3-1.6c0.2-0.5,0.5-0.9,0.9-1.3
		c0.4-0.4,0.8-0.7,1.3-0.9c0.5-0.2,1-0.3,1.6-0.3c0.6,0,1.1,0.1,1.6,0.3c0.5,0.2,0.9,0.5,1.3,0.9c0.4,0.4,0.7,0.8,0.9,1.3
		c0.2,0.5,0.3,1,0.3,1.6V137c0.8-2.4,1.6-4.9,2.4-7.3c0.8-2.4,1.6-4.9,2.4-7.3c0.4-1.4,1-2.3,1.7-2.9c0.7-0.6,1.7-0.9,2.9-0.9
		c0.7,0,1.4,0.1,2.1,0.4c0.6,0.2,1.2,0.6,1.6,1c0.4,0.4,0.8,0.9,1,1.5c0.2,0.6,0.4,1.3,0.4,2V144H147z M131.1,124.6
		c0.5,0,1-0.2,1.3-0.6s0.5-0.8,0.5-1.4c0-0.5-0.2-1-0.5-1.4s-0.8-0.5-1.3-0.5c-0.5,0-1,0.2-1.4,0.5s-0.5,0.8-0.5,1.4
		c0,0.5,0.2,1,0.5,1.4S130.5,124.6,131.1,124.6z"/>
	<path class="st1" d="M147.5,113.8c-1.7-0.6-3.3-1.1-4.8-1.5c-1.5-0.4-2.9-0.7-4.2-0.9c-1.3-0.2-2.5-0.4-3.6-0.4
		c-1.1-0.1-2.1-0.1-3.1-0.2c-0.5,0-0.8,0-1.2,0s-0.6,0-0.8,0c-0.2,0-0.4,0-0.6,0c-0.2,0-0.4,0-0.6,0.1c0.4-1.1,1-2.2,1.6-3.1
		c0.7-0.9,1.4-1.7,2.3-2.3c0.9-0.6,1.8-1.1,2.9-1.4c1.1-0.3,2.2-0.5,3.4-0.5c3.3,0,6,1.3,8.1,4v-6h2.4v12.8L147.5,113.8z
		 M146.9,111.4c-0.9-1.9-1.9-3.3-3.2-4.2c-1.3-0.9-2.8-1.4-4.8-1.4c-0.7,0-1.5,0.1-2.2,0.2c-0.7,0.1-1.3,0.3-1.9,0.6
		c-0.6,0.3-1.1,0.6-1.6,1c-0.5,0.4-0.9,0.8-1.2,1.3c1.3,0,2.6,0,3.8,0.1c1.2,0.1,2.4,0.2,3.6,0.4c1.2,0.2,2.4,0.5,3.6,0.8
		C144.2,110.5,145.5,110.9,146.9,111.4z"/>
	<path class="st1" d="M147.1,99.5V92h2.4v7.5H147.1z"/>
	<path class="st1" d="M156.4,144v-7.6c0-2.8,1.1-4.5,3.2-5.3c-1.5-0.4-2.7-1.1-3.5-2.2c-0.8-1.1-1.2-2.4-1.2-4
		c0-0.9,0.2-1.8,0.5-2.5c0.3-0.8,0.8-1.4,1.4-2c0.6-0.6,1.3-1,2.1-1.3c0.8-0.3,1.7-0.5,2.6-0.5c1.3,0,2.4,0.3,3.1,1
		c0.8,0.7,1.2,1.6,1.2,2.7c0,0.6-0.1,1.1-0.3,1.6c-0.2,0.5-0.4,0.9-0.8,1.2c-0.3,0.4-0.7,0.6-1.2,0.8c-0.5,0.2-1,0.3-1.7,0.3
		c-1,0-1.8-0.3-2.5-0.8c-0.7-0.5-1.2-1.3-1.4-2.4c-0.2,0.3-0.3,0.6-0.3,1c-0.1,0.3-0.1,0.7-0.1,1.1c0,0.7,0.1,1.3,0.3,1.9
		c0.2,0.5,0.5,1,0.9,1.4c0.4,0.4,1,0.7,1.7,0.9c0.7,0.2,1.6,0.3,2.6,0.3h2.4v2.5h-2.7c-1.2,0-2.1,0.3-2.8,1
		c-0.6,0.7-0.9,1.8-0.9,3.3v5.3h12.2v-22.9h2.5V144H156.4z M163.7,122.4c0-0.5-0.2-0.9-0.5-1.3c-0.4-0.4-0.8-0.6-1.3-0.6
		c-0.6,0-1,0.2-1.4,0.5c-0.3,0.3-0.5,0.8-0.5,1.4c0,0.5,0.2,1,0.5,1.3c0.3,0.3,0.8,0.5,1.3,0.5c0.5,0,0.9-0.2,1.3-0.5
		C163.5,123.4,163.7,123,163.7,122.4z"/>
	<path class="st1" d="M171.7,113.8c-1.7-0.6-3.3-1.1-4.8-1.5c-1.5-0.4-2.9-0.7-4.2-0.9c-1.3-0.2-2.5-0.4-3.6-0.4
		c-1.1-0.1-2.1-0.1-3.1-0.2c-0.5,0-0.8,0-1.2,0s-0.6,0-0.8,0c-0.2,0-0.4,0-0.6,0c-0.2,0-0.4,0-0.6,0.1c0.4-1.1,1-2.2,1.6-3.1
		c0.7-0.9,1.4-1.7,2.3-2.3c0.9-0.6,1.8-1.1,2.9-1.4c1.1-0.3,2.2-0.5,3.4-0.5c0.4,0,0.8,0,1.1,0c0.3,0,0.6,0,0.8,0.1s0.5,0.1,0.7,0.2
		c0.2,0.1,0.5,0.2,0.8,0.3v-2.6h2.5v3.9c0.4,0.3,0.7,0.6,1.1,0.9s0.7,0.7,1.1,1.2v-6h2.4v12.8L171.7,113.8z M171.1,111.4
		c-0.9-1.9-1.9-3.3-3.2-4.2c-1.3-0.9-2.8-1.4-4.8-1.4c-0.7,0-1.5,0.1-2.2,0.2c-0.7,0.1-1.3,0.3-1.9,0.6c-0.6,0.3-1.1,0.6-1.6,1
		c-0.5,0.4-0.9,0.8-1.2,1.3c1.3,0,2.6,0,3.8,0.1c1.2,0.1,2.4,0.2,3.6,0.4c1.2,0.2,2.4,0.5,3.6,0.8
		C168.4,110.5,169.7,110.9,171.1,111.4z"/>
	<path class="st1" d="M171.3,99.5V92h2.4v7.5H171.3z"/>
	<path class="st1" d="M195,140l-8.7,4h-2.7v-17.5c-0.2,0.1-0.5,0.2-0.7,0.2c-0.3,0-0.5,0-0.8,0c-0.6,0-1.1-0.1-1.6-0.3
		c-0.5-0.2-0.9-0.5-1.3-0.9c-0.4-0.4-0.7-0.8-0.9-1.3c-0.2-0.5-0.3-1-0.3-1.6c0-0.6,0.1-1.1,0.3-1.6c0.2-0.5,0.5-0.9,0.9-1.3
		c0.4-0.4,0.8-0.7,1.3-0.9c0.5-0.2,1-0.3,1.6-0.3c0.6,0,1.1,0.1,1.6,0.3c0.5,0.2,0.9,0.5,1.3,0.9c0.4,0.4,0.7,0.8,0.9,1.3
		c0.2,0.5,0.3,1,0.3,1.6v19l11.5-5.1v-17.7h2.5v17.9c0.8,0.3,1.4,0.8,1.9,1.4c0.5,0.7,0.7,1.4,0.7,2.3c0,0.6-0.1,1.1-0.3,1.6
		c-0.2,0.5-0.5,0.9-0.8,1.2c-0.3,0.4-0.8,0.6-1.2,0.8c-0.5,0.2-1,0.3-1.5,0.3c-0.6,0-1.1-0.1-1.5-0.3c-0.5-0.2-0.9-0.4-1.2-0.8
		c-0.3-0.3-0.6-0.7-0.8-1.2c-0.2-0.5-0.3-1-0.3-1.5V140z M182.1,124.6c0.5,0,1-0.2,1.3-0.6s0.5-0.8,0.5-1.4c0-0.5-0.2-1-0.5-1.4
		s-0.8-0.5-1.3-0.5c-0.5,0-1,0.2-1.4,0.5s-0.5,0.8-0.5,1.4c0,0.5,0.2,1,0.5,1.4S181.6,124.6,182.1,124.6z M199,142.2
		c0.5,0,0.9-0.2,1.2-0.5c0.3-0.3,0.5-0.7,0.5-1.2c0-0.5-0.2-0.9-0.5-1.2c-0.3-0.3-0.7-0.5-1.2-0.5c-0.5,0-0.9,0.2-1.2,0.5
		c-0.3,0.3-0.5,0.7-0.5,1.2c0,0.5,0.2,0.9,0.5,1.2C198.1,142,198.5,142.2,199,142.2z"/>
	<path class="st1" d="M214.4,144v-19.9c0-1.2-0.3-2.1-0.8-2.7c-0.5-0.6-1.4-0.9-2.6-0.9c-0.8,0-1.4,0.2-1.9,0.5
		c-0.5,0.3-0.8,0.8-1,1.4c0.1,0,0.2-0.1,0.5-0.1c0.2,0,0.4,0,0.6,0c0.6,0,1.2,0.1,1.6,0.3c0.5,0.2,0.9,0.5,1.2,0.8
		c0.3,0.3,0.6,0.7,0.7,1.2c0.2,0.5,0.2,0.9,0.2,1.5c0,0.6-0.1,1.1-0.3,1.5c-0.2,0.5-0.4,0.9-0.8,1.2c-0.3,0.3-0.7,0.6-1.2,0.8
		c-0.5,0.2-1,0.3-1.5,0.3c-0.6,0-1.2-0.1-1.7-0.4c-0.5-0.2-0.9-0.6-1.3-1c-0.3-0.4-0.6-0.9-0.8-1.5c-0.2-0.6-0.3-1.2-0.3-1.9
		c0-0.9,0.1-1.8,0.4-2.6c0.3-0.8,0.7-1.5,1.2-2.1c0.5-0.6,1.2-1,1.9-1.3c0.7-0.3,1.6-0.5,2.5-0.5c0.8,0,1.6,0.1,2.3,0.4
		c0.7,0.2,1.3,0.6,1.8,1.1c0.5,0.5,0.9,1,1.2,1.7c0.3,0.7,0.4,1.5,0.4,2.4v17.6h5.3v-22.9h2.5V144H214.4z M209.1,127.9
		c0.5,0,0.9-0.2,1.2-0.5c0.3-0.4,0.5-0.8,0.5-1.3c0-0.5-0.2-1-0.5-1.3c-0.3-0.3-0.7-0.5-1.3-0.5c-0.5,0-1,0.2-1.3,0.5
		s-0.5,0.8-0.5,1.3c0,0.5,0.2,1,0.5,1.3C208.1,127.7,208.6,127.9,209.1,127.9z"/>
	<path class="st1" d="M232.4,144v-12.3c0-0.6,0.1-1.1,0.3-1.6c0.2-0.5,0.5-0.9,0.9-1.3c0.4-0.4,0.8-0.6,1.3-0.8
		c0.5-0.2,1-0.3,1.6-0.3c0.6,0,1.1,0.1,1.6,0.3c0.5,0.2,0.9,0.5,1.3,0.8c0.3,0.4,0.6,0.8,0.8,1.3c0.2,0.5,0.3,1,0.3,1.6
		c0,0.6-0.1,1.1-0.3,1.6c-0.2,0.5-0.5,0.9-0.8,1.3c-0.4,0.3-0.8,0.6-1.3,0.8c-0.5,0.2-1,0.3-1.6,0.3c-0.3,0-0.6,0-0.8-0.1
		c-0.3,0-0.5-0.1-0.7-0.2v6.3h11.4v-14.5c0-1-0.2-1.9-0.5-2.7c-0.4-0.8-0.8-1.5-1.5-2c-0.6-0.6-1.4-1-2.3-1.3
		c-0.9-0.3-1.9-0.4-2.9-0.4c-0.9,0-1.8,0.1-2.5,0.4c-0.8,0.3-1.4,0.6-2,1.1c-0.6,0.5-1.1,1-1.4,1.6c-0.4,0.6-0.6,1.3-0.7,2h-2.7
		c0.2-1.1,0.5-2.1,1.1-3c0.5-0.9,1.2-1.7,2-2.3c0.8-0.6,1.8-1.1,2.8-1.5c1.1-0.4,2.2-0.5,3.4-0.5c1.4,0,2.7,0.2,3.9,0.6
		c1.2,0.4,2.2,0.9,3.1,1.7c0.9,0.7,1.5,1.6,2,2.7c0.5,1.1,0.7,2.3,0.7,3.7V144H232.4z M238.3,131.7c0-0.5-0.2-1-0.5-1.3
		c-0.3-0.3-0.8-0.5-1.3-0.5s-1,0.2-1.3,0.5c-0.3,0.4-0.5,0.8-0.5,1.3s0.2,1,0.5,1.3s0.8,0.5,1.3,0.5s1-0.2,1.3-0.5
		S238.3,132.3,238.3,131.7z"/>
	<path class="st1" d="M265.2,144l-11.8-13.1l1.7-1.7l10.5,11.5v-14.3c-0.2,0.1-0.5,0.2-0.7,0.2s-0.5,0-0.8,0c-0.6,0-1.1-0.1-1.6-0.3
		c-0.5-0.2-0.9-0.5-1.3-0.9c-0.4-0.4-0.7-0.8-0.9-1.3c-0.2-0.5-0.3-1-0.3-1.6c0-0.6,0.1-1.1,0.3-1.6c0.2-0.5,0.5-0.9,0.9-1.3
		c0.4-0.4,0.8-0.7,1.3-0.9c0.5-0.2,1-0.3,1.6-0.3s1.1,0.1,1.6,0.3c0.5,0.2,0.9,0.5,1.3,0.9c0.4,0.4,0.7,0.8,0.9,1.3
		c0.2,0.5,0.3,1,0.3,1.6V144H265.2z M264,124.6c0.5,0,1-0.2,1.3-0.6c0.3-0.4,0.5-0.8,0.5-1.4c0-0.5-0.2-1-0.5-1.4
		c-0.4-0.4-0.8-0.5-1.3-0.5s-1,0.2-1.4,0.5s-0.5,0.8-0.5,1.4c0,0.5,0.2,1,0.5,1.4S263.5,124.6,264,124.6z"/>
	<path class="st1" d="M292.1,144l-10.7-4.6v0.8c0,0.6-0.1,1.1-0.3,1.6c-0.2,0.5-0.5,0.9-0.9,1.3c-0.4,0.4-0.8,0.7-1.3,0.9
		c-0.5,0.2-1,0.3-1.6,0.3c-0.6,0-1.1-0.1-1.6-0.3c-0.5-0.2-0.9-0.5-1.3-0.9c-0.4-0.4-0.7-0.8-0.9-1.3c-0.2-0.5-0.3-1-0.3-1.6
		c0-0.6,0.1-1.1,0.3-1.6c0.2-0.5,0.5-0.9,0.9-1.3c0.4-0.4,0.8-0.7,1.3-0.9c0.5-0.2,1-0.3,1.6-0.3c0.3,0,0.6,0,0.8,0
		c0.3,0,0.5,0.1,0.7,0.2v-9.9c-0.2,0.1-0.5,0.2-0.7,0.2c-0.3,0-0.5,0-0.8,0c-0.6,0-1.1-0.1-1.6-0.3c-0.5-0.2-0.9-0.5-1.3-0.9
		c-0.4-0.4-0.7-0.8-0.9-1.3c-0.2-0.5-0.3-1-0.3-1.6c0-0.6,0.1-1.1,0.3-1.6c0.2-0.5,0.5-0.9,0.9-1.3c0.4-0.4,0.8-0.7,1.3-0.9
		c0.5-0.2,1-0.3,1.6-0.3c0.6,0,1.1,0.1,1.6,0.3c0.5,0.2,0.9,0.5,1.3,0.9c0.4,0.4,0.7,0.8,0.9,1.3c0.2,0.5,0.3,1,0.3,1.6v14.5
		l10.6,4.4v-22.7h2.5V144H292.1z M277.3,124.5c0.5,0,1-0.2,1.3-0.5c0.4-0.4,0.5-0.8,0.5-1.4s-0.2-1-0.5-1.3
		c-0.4-0.4-0.8-0.5-1.3-0.5s-1,0.2-1.4,0.5c-0.4,0.4-0.5,0.8-0.5,1.3s0.2,1,0.5,1.4C276.3,124.4,276.8,124.5,277.3,124.5z
		 M277.3,142.1c0.5,0,1-0.2,1.3-0.6c0.4-0.4,0.5-0.8,0.5-1.4c0-0.5-0.2-1-0.5-1.3c-0.4-0.4-0.8-0.5-1.3-0.5s-1,0.2-1.4,0.5
		c-0.4,0.4-0.5,0.8-0.5,1.3c0,0.5,0.2,1,0.5,1.4S276.8,142.1,277.3,142.1z"/>
	<path class="st1" d="M313.3,144v-17.2c0-0.8-0.1-1.6-0.3-2.3c-0.2-0.7-0.5-1.4-1-1.9c-0.5-0.5-1-1-1.8-1.3
		c-0.7-0.3-1.6-0.5-2.6-0.5c-0.9,0-1.8,0.1-2.4,0.4c-0.7,0.3-1.2,0.6-1.7,1.1c-0.5,0.5-0.8,1-1.1,1.6c-0.3,0.6-0.4,1.3-0.5,2h-2.5
		c0.1-1.1,0.3-2.1,0.7-3c0.4-0.9,0.9-1.7,1.6-2.3c0.7-0.7,1.5-1.2,2.5-1.5c1-0.4,2.1-0.5,3.5-0.5c1.4,0,2.7,0.2,3.7,0.6
		c1,0.4,1.9,1,2.5,1.7c0.7,0.7,1.1,1.6,1.5,2.6c0.3,1,0.5,2.1,0.5,3.3V144H313.3z"/>
	<path class="st1" d="M334.5,144l-2.5-10.7c-0.3,0.2-0.6,0.3-0.9,0.4c-0.3,0.1-0.6,0.1-1,0.1c-0.6,0-1.1-0.1-1.6-0.3
		c-0.5-0.2-0.9-0.4-1.2-0.8c-0.3-0.3-0.6-0.7-0.8-1.2c-0.2-0.4-0.3-0.9-0.3-1.5c0-0.6,0.1-1.1,0.3-1.5c0.2-0.5,0.4-0.9,0.8-1.2
		c0.3-0.3,0.7-0.6,1.2-0.8s1-0.3,1.6-0.3c1.1,0,2,0.3,2.6,0.8c0.6,0.6,1,1.3,1.3,2.3l1.4,6.5c0,0.1,0.1,0.4,0.1,0.8s0.1,0.8,0.2,1.2
		s0.1,0.9,0.2,1.3c0.1,0.4,0.1,0.7,0.1,0.9h0c0-0.3,0-0.8,0-1.3c0-0.6,0.1-1.1,0.2-1.6c0.3-1.7,0.5-3.2,0.6-4.4
		c0.2-1.2,0.3-2.1,0.4-2.9c0.1-0.8,0.2-1.3,0.2-1.7c0-0.4,0.1-0.6,0.1-0.7c0-1-0.1-1.9-0.4-2.7c-0.3-0.8-0.7-1.6-1.3-2.2
		c-0.6-0.6-1.3-1.1-2.3-1.5c-0.9-0.4-2-0.5-3.3-0.5c-0.9,0-1.7,0.1-2.5,0.4c-0.8,0.3-1.4,0.6-2,1.1c-0.6,0.5-1.1,1-1.4,1.6
		c-0.4,0.6-0.6,1.3-0.7,2h-2.7c0.1-1.1,0.5-2.2,1-3.1c0.6-0.9,1.3-1.7,2.1-2.3c0.9-0.6,1.8-1.1,2.9-1.5c1.1-0.3,2.2-0.5,3.4-0.5
		c1.5,0,2.9,0.2,4.1,0.6c1.2,0.4,2.2,1.1,3,1.9c0.8,0.8,1.5,1.8,1.9,2.9c0.4,1.1,0.7,2.4,0.7,3.9c0,0.1,0,0.3,0,0.5
		c0,0.2-0.1,0.6-0.1,1.1c-0.1,0.5-0.2,1.1-0.3,1.9c-0.1,0.8-0.3,1.7-0.5,2.9c-0.2,1.2-0.4,2.5-0.7,4.2c-0.3,1.6-0.6,3.5-1,5.6H334.5
		z M330,131.9c0.5,0,0.9-0.2,1.3-0.5s0.5-0.8,0.5-1.2s-0.2-0.9-0.5-1.3c-0.3-0.4-0.7-0.6-1.3-0.6c-0.6,0-1,0.2-1.3,0.6
		c-0.3,0.4-0.4,0.8-0.4,1.3s0.1,0.9,0.4,1.2S329.4,131.9,330,131.9z"/>
	<path class="st1" d="M358.5,144v-17.2c0-0.8-0.1-1.6-0.3-2.3c-0.2-0.7-0.5-1.4-1-1.9c-0.5-0.5-1-1-1.8-1.3
		c-0.7-0.3-1.6-0.5-2.6-0.5c-0.9,0-1.8,0.1-2.4,0.4c-0.7,0.3-1.2,0.6-1.7,1.1c-0.5,0.5-0.8,1-1.1,1.6c-0.3,0.6-0.4,1.3-0.5,2h-2.5
		c0.1-1.1,0.3-2.1,0.7-3c0.4-0.9,0.9-1.7,1.6-2.3c0.7-0.7,1.5-1.2,2.5-1.5c1-0.4,2.1-0.5,3.5-0.5c1.4,0,2.7,0.2,3.7,0.6
		c1,0.4,1.9,1,2.5,1.7c0.7,0.7,1.1,1.6,1.5,2.6c0.3,1,0.5,2.1,0.5,3.3V144H358.5z"/>
	<path class="st1" d="M383.7,144v-16.1c0-1.1-0.2-2-0.6-2.9c-0.4-0.9-0.9-1.6-1.6-2.2c-0.7-0.6-1.5-1.1-2.4-1.4
		c-0.9-0.3-1.9-0.5-3-0.5c-1.7,0-3.1,0.4-4.4,1.2c-1.2,0.8-2.2,1.9-2.8,3.2l2.3,2.7V144h-2.5v-15.5l-2.5-2.9c0.3-1.1,0.7-2,1.3-2.9
		c0.6-0.9,1.3-1.6,2.2-2.2c0.9-0.6,1.8-1.1,2.9-1.4c1.1-0.3,2.3-0.5,3.6-0.5c1.5,0,2.9,0.2,4.2,0.7c1.3,0.5,2.3,1.1,3.2,2
		c0.9,0.8,1.6,1.8,2.1,3s0.7,2.5,0.7,3.9V144H383.7z"/>
	<path class="st1" d="M410.2,144v-13.7c0-1.9-0.5-2.9-1.4-2.9c-0.6,0-1.3,0.7-2.1,2.1l-8.1,14.4h-2.3v-17.5
		c-0.2,0.1-0.5,0.2-0.7,0.2c-0.3,0-0.5,0-0.8,0c-0.6,0-1.1-0.1-1.6-0.3c-0.5-0.2-0.9-0.5-1.3-0.9c-0.4-0.4-0.7-0.8-0.9-1.3
		c-0.2-0.5-0.3-1-0.3-1.6c0-0.6,0.1-1.1,0.3-1.6c0.2-0.5,0.5-0.9,0.9-1.3c0.4-0.4,0.8-0.7,1.3-0.9c0.5-0.2,1-0.3,1.6-0.3
		c0.6,0,1.1,0.1,1.6,0.3c0.5,0.2,0.9,0.5,1.3,0.9c0.4,0.4,0.7,0.8,0.9,1.3c0.2,0.5,0.3,1,0.3,1.6v13.9c0,0.2,0,0.5,0,0.8
		c0,0.3,0,0.6,0,1c0,0.3,0,0.6-0.1,0.9c0,0.3-0.1,0.5-0.1,0.6l1-2.1l5.1-9.3c0.3-0.5,0.6-1,0.9-1.4c0.3-0.5,0.7-0.8,1.1-1
		c-1-0.8-1.4-1.9-1.4-3.2c0-0.6,0.1-1.1,0.3-1.6c0.2-0.5,0.5-0.9,0.9-1.3c0.4-0.4,0.8-0.7,1.3-0.9c0.5-0.2,1.1-0.3,1.6-0.3
		s1.1,0.1,1.7,0.3c0.5,0.2,1,0.5,1.4,0.9c0.4,0.4,0.7,0.8,0.9,1.3c0.2,0.5,0.3,1,0.3,1.6c0,1.6-0.7,2.8-2.1,3.6
		c0.4,0.4,0.6,0.9,0.8,1.7c0.2,0.7,0.2,1.5,0.2,2.4V144H410.2z M394.7,124.5c0.5,0,1-0.2,1.3-0.5c0.3-0.4,0.5-0.8,0.5-1.4
		s-0.2-1-0.5-1.3c-0.3-0.4-0.8-0.5-1.3-0.5c-0.5,0-1,0.2-1.4,0.5c-0.4,0.4-0.5,0.8-0.5,1.3s0.2,1,0.5,1.4
		C393.7,124.4,394.2,124.5,394.7,124.5z M409.5,124.8c0.6,0,1.1-0.2,1.5-0.6c0.4-0.4,0.6-0.9,0.6-1.5c0-0.6-0.2-1.1-0.6-1.5
		c-0.4-0.4-0.9-0.6-1.5-0.6c-0.6,0-1.1,0.2-1.5,0.6c-0.4,0.4-0.6,0.9-0.6,1.5c0,0.6,0.2,1.1,0.6,1.5S408.9,124.8,409.5,124.8z"/>
	<path class="st1" d="M434,140l-8.7,4h-2.7v-17.5c-0.2,0.1-0.5,0.2-0.7,0.2c-0.3,0-0.5,0-0.8,0c-0.6,0-1.1-0.1-1.6-0.3
		c-0.5-0.2-0.9-0.5-1.3-0.9c-0.4-0.4-0.7-0.8-0.9-1.3c-0.2-0.5-0.3-1-0.3-1.6c0-0.6,0.1-1.1,0.3-1.6c0.2-0.5,0.5-0.9,0.9-1.3
		c0.4-0.4,0.8-0.7,1.3-0.9c0.5-0.2,1-0.3,1.6-0.3c0.6,0,1.1,0.1,1.6,0.3c0.5,0.2,0.9,0.5,1.3,0.9c0.4,0.4,0.7,0.8,0.9,1.3
		c0.2,0.5,0.3,1,0.3,1.6v19l11.5-5.1v-17.7h2.5v17.9c0.8,0.3,1.4,0.8,1.9,1.4c0.5,0.7,0.7,1.4,0.7,2.3c0,0.6-0.1,1.1-0.3,1.6
		c-0.2,0.5-0.5,0.9-0.8,1.2c-0.3,0.4-0.8,0.6-1.2,0.8c-0.5,0.2-1,0.3-1.5,0.3c-0.6,0-1.1-0.1-1.5-0.3c-0.5-0.2-0.9-0.4-1.2-0.8
		c-0.3-0.3-0.6-0.7-0.8-1.2c-0.2-0.5-0.3-1-0.3-1.5V140z M421.2,124.6c0.5,0,1-0.2,1.3-0.6s0.5-0.8,0.5-1.4c0-0.5-0.2-1-0.5-1.4
		s-0.8-0.5-1.3-0.5c-0.5,0-1,0.2-1.4,0.5c-0.4,0.4-0.5,0.8-0.5,1.4c0,0.5,0.2,1,0.5,1.4C420.1,124.4,420.6,124.6,421.2,124.6z
		 M438,142.2c0.5,0,0.9-0.2,1.2-0.5c0.3-0.3,0.5-0.7,0.5-1.2c0-0.5-0.2-0.9-0.5-1.2c-0.3-0.3-0.7-0.5-1.2-0.5
		c-0.5,0-0.9,0.2-1.2,0.5c-0.3,0.3-0.5,0.7-0.5,1.2c0,0.5,0.2,0.9,0.5,1.2C437.1,142,437.5,142.2,438,142.2z"/>
	<path class="st1" d="M442.7,103.1c0,1.7-0.4,3.3-1.1,4.6c-0.7,1.3-1.7,2.5-2.9,3.4c-1.2,0.9-2.6,1.6-4.2,2.1
		c-1.6,0.5-3.3,0.7-5,0.7c-0.4,0-0.7,0-0.9,0c-0.3,0-0.5,0-0.6,0v-1.6c0.5-0.2,0.9-0.6,1.3-1c0.4-0.4,0.6-0.8,0.8-1.3
		c-0.1,0-0.3,0-0.4,0c-0.1,0-0.3,0-0.4,0c-0.6,0-1.2-0.1-1.6-0.3c-0.5-0.2-0.8-0.4-1.1-0.8c-0.3-0.3-0.5-0.7-0.7-1.1
		c-0.1-0.4-0.2-0.9-0.2-1.4c0-0.5,0.1-1,0.3-1.5c0.2-0.4,0.5-0.8,0.8-1.2c0.3-0.3,0.7-0.6,1.2-0.8c0.5-0.2,0.9-0.3,1.5-0.3
		c0.6,0,1.2,0.1,1.7,0.3c0.5,0.2,0.9,0.5,1.2,0.9c0.3,0.4,0.6,0.8,0.7,1.3c0.2,0.5,0.2,1.1,0.2,1.7c0,1-0.2,2-0.7,2.8
		c-0.5,0.9-1,1.6-1.7,2.2c1.4-0.1,2.6-0.3,3.8-0.8c1.2-0.4,2.2-1,3.1-1.8c0.9-0.8,1.6-1.7,2.1-2.7c0.5-1.1,0.8-2.3,0.8-3.6H442.7z
		 M430.9,106.5c0-0.5-0.2-1-0.5-1.3s-0.8-0.5-1.3-0.5c-0.5,0-1,0.2-1.3,0.5s-0.5,0.8-0.5,1.3c0,0.6,0.2,1,0.5,1.3
		c0.3,0.3,0.8,0.5,1.3,0.5c0.6,0,1-0.2,1.3-0.5S430.9,107,430.9,106.5z"/>
	<path class="st1" d="M458.1,144v-17.2c0-0.8-0.1-1.6-0.3-2.3c-0.2-0.7-0.5-1.4-1-1.9c-0.5-0.5-1-1-1.8-1.3
		c-0.7-0.3-1.6-0.5-2.6-0.5c-0.9,0-1.8,0.1-2.4,0.4c-0.7,0.3-1.2,0.6-1.7,1.1c-0.5,0.5-0.8,1-1.1,1.6c-0.3,0.6-0.4,1.3-0.5,2h-2.5
		c0.1-1.1,0.3-2.1,0.7-3c0.4-0.9,0.9-1.7,1.6-2.3c0.7-0.7,1.5-1.2,2.5-1.5c1-0.4,2.1-0.5,3.5-0.5c1.4,0,2.7,0.2,3.7,0.6
		c1,0.4,1.9,1,2.5,1.7c0.7,0.7,1.1,1.6,1.5,2.6c0.3,1,0.5,2.1,0.5,3.3V144H458.1z"/>
	<path class="st1" d="M483.8,144l-6.9-8.1l-6.7,8.1h-2.6v-21.4c0-0.6,0.1-1.1,0.3-1.6c0.2-0.5,0.5-0.9,0.9-1.3
		c0.4-0.4,0.8-0.7,1.3-0.9c0.5-0.2,1-0.3,1.6-0.3c0.6,0,1.1,0.1,1.6,0.3c0.5,0.2,0.9,0.5,1.3,0.9c0.4,0.4,0.7,0.8,0.9,1.3
		c0.2,0.5,0.3,1,0.3,1.6c0,0.6-0.1,1.1-0.3,1.6c-0.2,0.5-0.5,0.9-0.9,1.3c-0.4,0.4-0.8,0.7-1.3,0.9c-0.5,0.2-1,0.3-1.6,0.3
		c-0.3,0-0.6,0-0.9,0c-0.3,0-0.5-0.1-0.7-0.2v14.3l6.8-8.2l6.9,8v-21.8h2.5V144H483.8z M471.7,124.5c0.5,0,1-0.2,1.3-0.5
		c0.3-0.4,0.5-0.8,0.5-1.4s-0.2-1-0.5-1.3c-0.4-0.4-0.8-0.5-1.3-0.5s-1,0.2-1.4,0.5c-0.4,0.4-0.6,0.8-0.6,1.3s0.2,1,0.6,1.4
		C470.7,124.4,471.1,124.5,471.7,124.5z"/>
	<path class="st1" d="M505,144v-17.2c0-0.8-0.1-1.6-0.3-2.3c-0.2-0.7-0.5-1.4-1-1.9c-0.5-0.5-1-1-1.8-1.3c-0.7-0.3-1.6-0.5-2.6-0.5
		c-0.9,0-1.8,0.1-2.4,0.4c-0.7,0.3-1.2,0.6-1.7,1.1c-0.5,0.5-0.8,1-1.1,1.6c-0.3,0.6-0.4,1.3-0.5,2H491c0.1-1.1,0.3-2.1,0.7-3
		c0.4-0.9,0.9-1.7,1.6-2.3c0.7-0.7,1.5-1.2,2.5-1.5c1-0.4,2.1-0.5,3.5-0.5c1.4,0,2.7,0.2,3.7,0.6c1,0.4,1.9,1,2.5,1.7
		c0.7,0.7,1.1,1.6,1.5,2.6c0.3,1,0.5,2.1,0.5,3.3V144H505z"/>
	<path class="st1" d="M527.7,118.9h2.5v17.5c0.2-0.1,0.5-0.2,0.7-0.2c0.3,0,0.5,0,0.8,0c0.6,0,1.1,0.1,1.6,0.3
		c0.5,0.2,0.9,0.5,1.3,0.9c0.4,0.4,0.7,0.8,0.9,1.3c0.2,0.5,0.3,1,0.3,1.6c0,0.6-0.1,1.1-0.3,1.6c-0.2,0.5-0.5,0.9-0.9,1.3
		c-0.4,0.4-0.8,0.7-1.3,0.9s-1,0.3-1.6,0.3s-1.1-0.1-1.6-0.3c-0.5-0.2-0.9-0.5-1.3-0.9c-0.4-0.4-0.7-0.8-0.9-1.3
		c-0.2-0.5-0.3-1-0.3-1.6V118.9z M531.8,142.1c0.5,0,1-0.2,1.3-0.6s0.5-0.8,0.5-1.4c0-0.5-0.2-1-0.5-1.3c-0.4-0.4-0.8-0.5-1.3-0.5
		c-0.5,0-1,0.2-1.3,0.5c-0.3,0.4-0.5,0.8-0.5,1.3c0,0.5,0.2,1,0.5,1.4S531.3,142.1,531.8,142.1z M538.2,118.9h2.5v17.5
		c0.2-0.1,0.5-0.2,0.7-0.2c0.3,0,0.5,0,0.8,0c0.6,0,1.1,0.1,1.6,0.3c0.5,0.2,0.9,0.5,1.3,0.9c0.4,0.4,0.7,0.8,0.9,1.3
		c0.2,0.5,0.3,1,0.3,1.6c0,0.6-0.1,1.1-0.3,1.6c-0.2,0.5-0.5,0.9-0.9,1.3c-0.4,0.4-0.8,0.7-1.3,0.9s-1,0.3-1.6,0.3
		c-0.6,0-1.1-0.1-1.6-0.3c-0.5-0.2-0.9-0.5-1.3-0.9c-0.4-0.4-0.7-0.8-0.9-1.3c-0.2-0.5-0.3-1-0.3-1.6V118.9z M542.3,142.1
		c0.5,0,1-0.2,1.3-0.6s0.5-0.8,0.5-1.4c0-0.5-0.2-1-0.5-1.3c-0.4-0.4-0.8-0.5-1.3-0.5c-0.6,0-1,0.2-1.4,0.5
		c-0.3,0.4-0.5,0.8-0.5,1.3c0,0.5,0.2,1,0.5,1.4S541.7,142.1,542.3,142.1z"/>
	<path class="st1" d="M566.2,144v-9.9c0-0.7-0.1-1.3-0.4-1.9c-0.3-0.6-0.7-1.1-1.3-1.6c-0.6-0.5-1.3-0.8-2.1-1.1
		c-0.8-0.3-1.8-0.4-2.9-0.4c-1,0-1.8,0.1-2.6,0.4c-0.7,0.3-1.4,0.6-1.9,1.1c-0.5,0.5-0.9,1-1.1,1.7c-0.3,0.7-0.4,1.4-0.4,2.2v1.9
		c0.2-0.1,0.5-0.2,0.7-0.2c0.2,0,0.5,0,0.8,0c0.6,0,1.1,0.1,1.6,0.3c0.5,0.2,0.9,0.5,1.3,0.9c0.4,0.4,0.7,0.8,0.9,1.3
		c0.2,0.5,0.3,1,0.3,1.6c0,0.6-0.1,1.1-0.3,1.6c-0.2,0.5-0.5,0.9-0.9,1.3c-0.4,0.4-0.8,0.7-1.3,0.9c-0.5,0.2-1,0.3-1.6,0.3
		c-0.6,0-1.1-0.1-1.6-0.3s-0.9-0.5-1.3-0.9c-0.4-0.4-0.6-0.8-0.8-1.3c-0.2-0.5-0.3-1-0.3-1.6v-5.8c0-1.1,0.2-2.1,0.6-3
		c0.4-0.9,1-1.7,1.8-2.4c0.8-0.7,1.7-1.2,2.7-1.6c1-0.4,2.2-0.6,3.5-0.6c1.5,0,2.8,0.2,3.9,0.7c1,0.4,2,1.1,2.8,1.9v-3.5
		c0-0.7-0.2-1.4-0.5-2c-0.3-0.6-0.8-1.2-1.3-1.6c-0.6-0.5-1.3-0.8-2.2-1.1c-0.9-0.3-1.8-0.4-3-0.4c-1.4,0-2.5,0.1-3.4,0.4
		s-1.7,0.7-2.3,1.2s-1,1-1.3,1.6c-0.3,0.6-0.5,1.2-0.6,1.9h-2.4c0-1,0.3-1.9,0.8-2.8c0.5-0.9,1.1-1.7,2-2.3c0.8-0.7,1.9-1.2,3.1-1.6
		s2.6-0.6,4.1-0.6c1.4,0,2.7,0.2,3.9,0.5c1.2,0.4,2.2,0.9,3,1.5s1.5,1.4,1.9,2.4c0.5,0.9,0.7,1.9,0.7,3.1v18H566.2z M555,142.1
		c0.5,0,1-0.2,1.4-0.6c0.4-0.4,0.5-0.8,0.5-1.4c0-0.5-0.2-1-0.5-1.3c-0.4-0.4-0.8-0.5-1.4-0.5s-1,0.2-1.3,0.5
		c-0.4,0.4-0.5,0.8-0.5,1.3c0,0.5,0.2,1,0.5,1.4C554,141.9,554.4,142.1,555,142.1z"/>
	<path class="st1" d="M590.4,119.1c-0.5,2.7-1.6,4.7-3.4,6s-3.9,2-6.6,2c-2.1,0-3.7-0.4-4.9-1.2c-1.1-0.8-1.7-1.9-1.7-3.3
		c0-0.5,0.1-1,0.3-1.5c0.2-0.5,0.5-0.9,0.8-1.2s0.8-0.6,1.2-0.8s1-0.3,1.7-0.3c0.6,0,1.1,0.1,1.6,0.3c0.5,0.2,0.9,0.5,1.2,0.8
		c0.3,0.4,0.6,0.8,0.8,1.3s0.3,1,0.3,1.6c0,0.8-0.2,1.5-0.5,1.9c1.9-0.2,3.4-0.8,4.5-1.7c1.1-0.9,1.8-2.2,2.3-4H590.4z M590.4,134.9
		c-0.5,2.7-1.6,4.7-3.4,6s-3.9,2-6.6,2c-2.1,0-3.7-0.4-4.9-1.2c-1.1-0.8-1.7-1.9-1.7-3.3c0-0.5,0.1-1,0.3-1.5
		c0.2-0.5,0.5-0.9,0.8-1.2c0.3-0.3,0.8-0.6,1.2-0.8s1-0.3,1.7-0.3c0.6,0,1.1,0.1,1.6,0.3c0.5,0.2,0.9,0.5,1.2,0.8
		c0.3,0.4,0.6,0.8,0.8,1.3c0.2,0.5,0.3,1,0.3,1.5c0,0.9-0.2,1.5-0.5,2c1-0.1,1.8-0.3,2.5-0.6s1.4-0.6,1.9-1.1s1-1,1.4-1.7
		c0.4-0.7,0.7-1.4,0.9-2.3H590.4z M579.5,122.8c0-0.5-0.2-0.9-0.5-1.2c-0.3-0.3-0.7-0.5-1.2-0.5s-0.9,0.2-1.2,0.5
		c-0.3,0.3-0.5,0.7-0.5,1.2c0,0.5,0.2,0.9,0.5,1.2c0.3,0.3,0.7,0.5,1.2,0.5s0.9-0.2,1.2-0.5C579.3,123.7,579.5,123.3,579.5,122.8z
		 M579.5,138.6c0-0.5-0.2-0.9-0.5-1.2c-0.3-0.3-0.7-0.5-1.2-0.5s-0.9,0.2-1.2,0.5c-0.3,0.3-0.5,0.7-0.5,1.2c0,0.5,0.2,0.9,0.5,1.2
		c0.3,0.3,0.7,0.5,1.2,0.5s0.9-0.2,1.2-0.5C579.3,139.5,579.5,139.1,579.5,138.6z"/>
	<path class="st1" d="M596.8,144v-7.6c0-2.8,1.1-4.5,3.2-5.3c-1.5-0.4-2.7-1.1-3.5-2.2c-0.8-1.1-1.2-2.4-1.2-4
		c0-0.9,0.2-1.8,0.5-2.5c0.3-0.8,0.8-1.4,1.4-2c0.6-0.6,1.3-1,2.1-1.3c0.8-0.3,1.7-0.5,2.6-0.5c1.3,0,2.4,0.3,3.1,1
		c0.8,0.7,1.2,1.6,1.2,2.7c0,0.6-0.1,1.1-0.3,1.6c-0.2,0.5-0.4,0.9-0.8,1.2c-0.3,0.4-0.7,0.6-1.2,0.8c-0.5,0.2-1,0.3-1.7,0.3
		c-1,0-1.8-0.3-2.5-0.8c-0.7-0.5-1.2-1.3-1.4-2.4c-0.2,0.3-0.3,0.6-0.3,1c-0.1,0.3-0.1,0.7-0.1,1.1c0,0.7,0.1,1.3,0.3,1.9
		c0.2,0.5,0.5,1,0.9,1.4c0.4,0.4,1,0.7,1.7,0.9c0.7,0.2,1.6,0.3,2.6,0.3h2.4v2.5h-2.7c-1.2,0-2.1,0.3-2.8,1
		c-0.6,0.7-0.9,1.8-0.9,3.3v5.3h12.2v-22.9h2.5V144H596.8z M604.1,122.4c0-0.5-0.2-0.9-0.5-1.3c-0.4-0.4-0.8-0.6-1.3-0.6
		c-0.6,0-1,0.2-1.4,0.5c-0.3,0.3-0.5,0.8-0.5,1.4c0,0.5,0.2,1,0.5,1.3c0.4,0.3,0.8,0.5,1.3,0.5c0.5,0,0.9-0.2,1.3-0.5
		C603.9,123.4,604.1,123,604.1,122.4z"/>
	<path class="st1" d="M620.2,106.6c-0.2,1.3-0.6,2.4-1.2,3.4c-0.5,1-1.3,1.9-2.1,2.6c-0.9,0.7-2,1.3-3.3,1.6
		c-1.3,0.4-2.8,0.6-4.6,0.6c-1.2,0-2.3-0.1-3.3-0.3c-1-0.2-1.9-0.5-2.7-0.9c-0.7-0.4-1.3-0.9-1.8-1.5c-0.4-0.6-0.6-1.4-0.6-2.2
		c0-0.7,0.1-1.2,0.4-1.7c0.2-0.5,0.5-0.9,0.9-1.2c0.4-0.3,0.8-0.6,1.3-0.7c0.5-0.2,1-0.2,1.5-0.2s1,0.1,1.4,0.2
		c0.5,0.1,0.9,0.4,1.2,0.7c0.4,0.3,0.6,0.7,0.9,1.1c0.2,0.5,0.3,1,0.3,1.6c0,0.7-0.2,1.3-0.5,1.8c-0.3,0.5-0.6,0.8-1,1
		c0.2,0.1,0.5,0.2,0.8,0.2c0.3,0.1,0.7,0.1,1.1,0.1c1.4,0,2.6-0.1,3.6-0.4c1-0.3,1.9-0.7,2.6-1.3c0.7-0.5,1.3-1.2,1.6-2
		c0.4-0.8,0.6-1.6,0.8-2.6H620.2z M604.6,111.7c0.5,0,1-0.2,1.3-0.5c0.4-0.4,0.5-0.8,0.5-1.3s-0.2-1-0.6-1.3
		c-0.4-0.4-0.8-0.5-1.4-0.5s-1,0.2-1.3,0.5c-0.3,0.3-0.5,0.8-0.5,1.3s0.2,1,0.6,1.3C603.6,111.6,604.1,111.7,604.6,111.7z"/>
	<path class="st1" d="M630.4,144l-11.8-13.1l1.7-1.7l10.5,11.5v-14.3c-0.2,0.1-0.5,0.2-0.7,0.2c-0.3,0-0.5,0-0.8,0
		c-0.6,0-1.1-0.1-1.6-0.3c-0.5-0.2-0.9-0.5-1.3-0.9c-0.4-0.4-0.7-0.8-0.9-1.3c-0.2-0.5-0.3-1-0.3-1.6c0-0.6,0.1-1.1,0.3-1.6
		c0.2-0.5,0.5-0.9,0.9-1.3c0.4-0.4,0.8-0.7,1.3-0.9c0.5-0.2,1-0.3,1.6-0.3c0.6,0,1.1,0.1,1.6,0.3c0.5,0.2,0.9,0.5,1.3,0.9
		c0.4,0.4,0.7,0.8,0.9,1.3c0.2,0.5,0.3,1,0.3,1.6V144H630.4z M629.3,124.6c0.5,0,1-0.2,1.3-0.6c0.4-0.4,0.5-0.8,0.5-1.4
		c0-0.5-0.2-1-0.5-1.4c-0.3-0.4-0.8-0.5-1.3-0.5s-1,0.2-1.4,0.5c-0.4,0.4-0.5,0.8-0.5,1.4c0,0.5,0.2,1,0.5,1.4
		C628.3,124.4,628.7,124.6,629.3,124.6z"/>
</g>
<g class="st0">
	<path class="st1" d="M3.8,198.9h2.5v17.5c0.2-0.1,0.5-0.2,0.7-0.2c0.3,0,0.5,0,0.8,0c0.6,0,1.1,0.1,1.6,0.3
		c0.5,0.2,0.9,0.5,1.3,0.9c0.4,0.4,0.7,0.8,0.9,1.3c0.2,0.5,0.3,1,0.3,1.6c0,0.6-0.1,1.1-0.3,1.6c-0.2,0.5-0.5,0.9-0.9,1.3
		c-0.4,0.4-0.8,0.7-1.3,0.9c-0.5,0.2-1,0.3-1.6,0.3c-0.6,0-1.1-0.1-1.6-0.3c-0.5-0.2-0.9-0.5-1.3-0.9c-0.4-0.4-0.7-0.8-0.9-1.3
		c-0.2-0.5-0.3-1-0.3-1.6V198.9z M7.9,222.1c0.5,0,1-0.2,1.3-0.6s0.5-0.8,0.5-1.4c0-0.5-0.2-1-0.5-1.3c-0.4-0.4-0.8-0.5-1.3-0.5
		s-1,0.2-1.3,0.5c-0.3,0.4-0.5,0.8-0.5,1.3c0,0.5,0.2,1,0.5,1.4C6.9,221.9,7.3,222.1,7.9,222.1z"/>
	<path class="st1" d="M19.3,224v-17.5c-0.2,0.1-0.5,0.2-0.7,0.2c-0.3,0-0.5,0-0.8,0c-0.6,0-1.1-0.1-1.6-0.3
		c-0.5-0.2-0.9-0.5-1.3-0.9c-0.4-0.4-0.7-0.8-0.9-1.3c-0.2-0.5-0.3-1-0.3-1.6c0-0.6,0.1-1.1,0.3-1.6c0.2-0.5,0.5-0.9,0.9-1.3
		c0.4-0.4,0.8-0.7,1.3-0.9c0.5-0.2,1-0.3,1.6-0.3c0.6,0,1.1,0.1,1.6,0.3c0.5,0.2,0.9,0.5,1.3,0.9c0.4,0.4,0.7,0.8,0.9,1.3
		c0.2,0.5,0.3,1,0.3,1.6v19.1h11.8v-34.9h2.5V224H19.3z M17.8,204.5c0.5,0,1-0.2,1.3-0.5c0.3-0.4,0.5-0.8,0.5-1.4s-0.2-1-0.5-1.3
		c-0.3-0.4-0.8-0.5-1.3-0.5c-0.5,0-1,0.2-1.4,0.5c-0.4,0.4-0.5,0.8-0.5,1.3s0.2,1,0.5,1.4C16.8,204.4,17.2,204.5,17.8,204.5z"/>
	<path class="st1" d="M18.9,194c-0.6,0-1.2-0.1-1.8-0.4c-0.6-0.2-1-0.6-1.5-1.1c-0.4-0.5-0.7-1-1-1.7c-0.2-0.7-0.4-1.5-0.4-2.3
		c0-0.7,0.1-1.4,0.4-2c0.3-0.6,0.6-1.2,1.1-1.6c0.5-0.5,1.1-0.8,1.8-1.1c0.7-0.3,1.5-0.4,2.5-0.4h5.8c0.9,0,1.6-0.2,2.1-0.5
		c0.5-0.3,0.9-0.8,1.3-1.4l1.9,1.3c-0.5,1-1.2,1.7-2,2.1c-0.8,0.4-1.9,0.6-3.2,0.6h-5.8c-1.2,0-2.1,0.3-2.6,0.8
		c-0.5,0.6-0.8,1.3-0.8,2.3c0,1,0.1,1.7,0.4,2.2c0.3,0.5,0.7,0.8,1.2,1l2.8-3.2l1.3,1.6c0.4,0.4,0.7,0.8,1,1
		c0.3,0.3,0.6,0.4,0.9,0.5c0,0,0-0.1,0-0.2c0-0.1,0-0.2,0-0.2c0-1,0.3-1.7,0.9-2.2c0.6-0.5,1.3-0.8,2.2-0.8c0.4,0,0.9,0.1,1.2,0.2
		c0.4,0.1,0.7,0.4,1,0.6c0.3,0.3,0.5,0.6,0.6,1c0.2,0.4,0.2,0.8,0.2,1.2c0,0.4-0.1,0.8-0.2,1.1c-0.1,0.4-0.4,0.7-0.7,1
		c-0.3,0.3-0.7,0.5-1.1,0.7c-0.5,0.2-1,0.3-1.6,0.3c-1.3,0-2.4-0.2-3.3-0.6c-0.9-0.4-1.6-1.1-2.3-2L18.9,194z M27.2,192.6
		c0.9,0,1.3-0.5,1.3-1.5c0-0.4-0.1-0.7-0.3-1c-0.2-0.3-0.5-0.4-1-0.4c-0.5,0-0.8,0.1-1,0.4c-0.2,0.3-0.3,0.6-0.3,1
		C25.9,192.1,26.3,192.6,27.2,192.6z"/>
	<path class="st1" d="M57.5,220l-8.7,4h-2.7v-17.5c-0.2,0.1-0.5,0.2-0.7,0.2c-0.3,0-0.5,0-0.8,0c-0.6,0-1.1-0.1-1.6-0.3
		c-0.5-0.2-0.9-0.5-1.3-0.9c-0.4-0.4-0.7-0.8-0.9-1.3c-0.2-0.5-0.3-1-0.3-1.6c0-0.6,0.1-1.1,0.3-1.6c0.2-0.5,0.5-0.9,0.9-1.3
		c0.4-0.4,0.8-0.7,1.3-0.9c0.5-0.2,1-0.3,1.6-0.3c0.6,0,1.1,0.1,1.6,0.3c0.5,0.2,0.9,0.5,1.3,0.9c0.4,0.4,0.7,0.8,0.9,1.3
		c0.2,0.5,0.3,1,0.3,1.6v19l11.5-5.1v-17.7h2.5v17.9c0.8,0.3,1.4,0.8,1.9,1.4c0.5,0.7,0.7,1.4,0.7,2.3c0,0.6-0.1,1.1-0.3,1.6
		c-0.2,0.5-0.5,0.9-0.8,1.2c-0.3,0.4-0.8,0.6-1.2,0.8c-0.5,0.2-1,0.3-1.5,0.3c-0.6,0-1.1-0.1-1.5-0.3c-0.5-0.2-0.9-0.4-1.2-0.8
		c-0.3-0.3-0.6-0.7-0.8-1.2c-0.2-0.5-0.3-1-0.3-1.5V220z M44.6,204.6c0.5,0,1-0.2,1.3-0.6s0.5-0.8,0.5-1.4c0-0.5-0.2-1-0.5-1.4
		s-0.8-0.5-1.3-0.5c-0.5,0-1,0.2-1.4,0.5s-0.5,0.8-0.5,1.4c0,0.5,0.2,1,0.5,1.4S44.1,204.6,44.6,204.6z M61.4,222.2
		c0.5,0,0.9-0.2,1.2-0.5c0.3-0.3,0.5-0.7,0.5-1.2c0-0.5-0.2-0.9-0.5-1.2c-0.3-0.3-0.7-0.5-1.2-0.5c-0.5,0-0.9,0.2-1.2,0.5
		c-0.3,0.3-0.5,0.7-0.5,1.2c0,0.5,0.2,0.9,0.5,1.2C60.5,222,60.9,222.2,61.4,222.2z"/>
	<path class="st1" d="M81.6,224l-2.5-10.7c-0.3,0.2-0.6,0.3-0.9,0.4c-0.3,0.1-0.6,0.1-1,0.1c-0.6,0-1.1-0.1-1.6-0.3
		c-0.5-0.2-0.9-0.4-1.2-0.8c-0.3-0.3-0.6-0.7-0.8-1.2c-0.2-0.4-0.3-0.9-0.3-1.5c0-0.6,0.1-1.1,0.3-1.5c0.2-0.5,0.4-0.9,0.8-1.2
		c0.3-0.3,0.7-0.6,1.2-0.8s1-0.3,1.6-0.3c1.1,0,2,0.3,2.6,0.8c0.6,0.6,1,1.3,1.3,2.3l1.4,6.5c0,0.1,0.1,0.4,0.1,0.8
		c0.1,0.4,0.1,0.8,0.2,1.2c0.1,0.4,0.1,0.9,0.2,1.3c0.1,0.4,0.1,0.7,0.1,0.9h0c0-0.3,0-0.8,0-1.3c0-0.6,0.1-1.1,0.2-1.6
		c0.3-1.7,0.5-3.2,0.6-4.4c0.2-1.2,0.3-2.1,0.4-2.9c0.1-0.8,0.2-1.3,0.2-1.7c0-0.4,0.1-0.6,0.1-0.7c0-1-0.1-1.9-0.4-2.7
		c-0.3-0.8-0.7-1.6-1.3-2.2c-0.6-0.6-1.3-1.1-2.3-1.5c-0.9-0.4-2-0.5-3.3-0.5c-0.9,0-1.7,0.1-2.5,0.4c-0.8,0.3-1.4,0.6-2,1.1
		c-0.6,0.5-1.1,1-1.4,1.6c-0.4,0.6-0.6,1.3-0.7,2H68c0.1-1.1,0.5-2.2,1-3.1c0.6-0.9,1.3-1.7,2.1-2.3c0.9-0.6,1.8-1.1,2.9-1.5
		c1.1-0.3,2.2-0.5,3.4-0.5c1.5,0,2.9,0.2,4.1,0.6c1.2,0.4,2.2,1.1,3,1.9c0.8,0.8,1.5,1.8,1.9,2.9c0.4,1.1,0.7,2.4,0.7,3.9
		c0,0.1,0,0.3,0,0.5s-0.1,0.6-0.1,1.1c-0.1,0.5-0.2,1.1-0.3,1.9c-0.1,0.8-0.3,1.7-0.5,2.9c-0.2,1.2-0.4,2.5-0.7,4.2
		c-0.3,1.6-0.6,3.5-1,5.6H81.6z M77.1,211.9c0.5,0,0.9-0.2,1.3-0.5s0.5-0.8,0.5-1.2s-0.2-0.9-0.5-1.3c-0.3-0.4-0.7-0.6-1.3-0.6
		c-0.6,0-1,0.2-1.3,0.6c-0.3,0.4-0.4,0.8-0.4,1.3s0.1,0.9,0.4,1.2S76.5,211.9,77.1,211.9z"/>
	<path class="st1" d="M84.7,238.4v-4.9c-0.2,0.1-0.4,0.2-0.6,0.2c-0.2,0-0.5,0.1-0.8,0.1c-0.6,0-1.1-0.1-1.6-0.3
		c-0.5-0.2-0.9-0.5-1.2-0.8c-0.3-0.3-0.6-0.7-0.8-1.2c-0.2-0.4-0.3-0.9-0.3-1.4c0-1.1,0.3-2,1-2.6c0.7-0.7,1.6-1,2.8-1
		c1.2,0,2.1,0.3,2.7,1c0.6,0.7,1,1.6,1,2.7v8.3H84.7z M83.3,231.8c0.5,0,0.9-0.2,1.2-0.5c0.3-0.3,0.4-0.7,0.4-1.1
		c0-0.5-0.1-0.8-0.4-1.1c-0.2-0.3-0.7-0.5-1.2-0.5c-0.5,0-0.9,0.2-1.2,0.5c-0.3,0.3-0.4,0.7-0.4,1.1c0,0.5,0.1,0.8,0.4,1.1
		C82.4,231.6,82.8,231.8,83.3,231.8z"/>
	<path class="st1" d="M111,224v-15.7c0-1.1-0.2-2.1-0.5-3.1c-0.3-0.9-0.8-1.7-1.4-2.4c-0.6-0.7-1.4-1.2-2.3-1.5
		c-0.9-0.4-2-0.5-3.3-0.5s-2.4,0.2-3.3,0.5c-0.9,0.4-1.7,0.9-2.3,1.5c-0.6,0.7-1.1,1.5-1.4,2.4c-0.3,0.9-0.5,2-0.5,3.1v12.8l6.8-7
		c-0.4,0-0.8-0.1-1.1-0.3c-0.4-0.2-0.7-0.4-1-0.7c-0.3-0.3-0.5-0.7-0.7-1.1c-0.2-0.4-0.3-0.9-0.3-1.4c0-0.6,0.1-1.1,0.3-1.6
		s0.5-0.9,0.8-1.3c0.3-0.4,0.8-0.6,1.3-0.8c0.5-0.2,1-0.3,1.6-0.3c0.6,0,1.1,0.1,1.6,0.3c0.5,0.2,0.9,0.5,1.3,0.9
		c0.3,0.4,0.6,0.8,0.8,1.3c0.2,0.5,0.3,1,0.3,1.6c0,0.5-0.1,1-0.3,1.6c-0.2,0.5-0.5,1-0.9,1.3l-10,10.5h-2.8v-15.6
		c0-1.5,0.2-2.9,0.7-4.1c0.4-1.2,1.1-2.2,2-3.1c0.9-0.9,1.9-1.5,3.1-2c1.2-0.5,2.6-0.7,4.2-0.7c1.6,0,3,0.2,4.2,0.7
		c1.2,0.5,2.3,1.1,3.1,2c0.9,0.9,1.5,1.9,2,3.1c0.5,1.2,0.7,2.6,0.7,4.1V224H111z M103.6,212.3c0.5,0,1-0.2,1.3-0.5
		c0.4-0.4,0.5-0.8,0.5-1.3c0-0.5-0.2-1-0.5-1.3c-0.4-0.4-0.8-0.5-1.3-0.5s-1,0.2-1.4,0.5c-0.4,0.4-0.5,0.8-0.5,1.3
		c0,0.5,0.2,1,0.5,1.3C102.6,212.1,103.1,212.3,103.6,212.3z"/>
	<path class="st1" d="M137.8,224v-20.5c0-0.8-0.2-1.4-0.7-1.9c-0.4-0.5-1.1-0.7-1.8-0.7c-0.6,0-1.1,0.2-1.5,0.5
		c-0.4,0.3-0.7,0.7-0.9,1.3l-7.1,21.4h-2.4v-17.5c-0.2,0.1-0.5,0.2-0.7,0.2c-0.3,0-0.5,0-0.8,0c-0.6,0-1.1-0.1-1.6-0.3
		c-0.5-0.2-0.9-0.5-1.3-0.9c-0.4-0.4-0.7-0.8-0.9-1.3c-0.2-0.5-0.3-1-0.3-1.6c0-0.6,0.1-1.1,0.3-1.6c0.2-0.5,0.5-0.9,0.9-1.3
		c0.4-0.4,0.8-0.7,1.3-0.9c0.5-0.2,1-0.3,1.6-0.3c0.6,0,1.1,0.1,1.6,0.3c0.5,0.2,0.9,0.5,1.3,0.9c0.4,0.4,0.7,0.8,0.9,1.3
		c0.2,0.5,0.3,1,0.3,1.6V217c0.8-2.4,1.6-4.9,2.4-7.3c0.8-2.4,1.6-4.9,2.4-7.3c0.4-1.4,1-2.3,1.7-2.9c0.7-0.6,1.7-0.9,2.9-0.9
		c0.7,0,1.4,0.1,2.1,0.4c0.6,0.2,1.2,0.6,1.6,1c0.4,0.4,0.8,0.9,1,1.5c0.2,0.6,0.4,1.3,0.4,2V224H137.8z M121.9,204.6
		c0.5,0,1-0.2,1.3-0.6s0.5-0.8,0.5-1.4c0-0.5-0.2-1-0.5-1.4s-0.8-0.5-1.3-0.5c-0.5,0-1,0.2-1.4,0.5s-0.5,0.8-0.5,1.4
		c0,0.5,0.2,1,0.5,1.4S121.4,204.6,121.9,204.6z"/>
	<path class="st1" d="M138.4,193.8c-1.7-0.6-3.3-1.1-4.8-1.5c-1.5-0.4-2.9-0.7-4.2-0.9c-1.3-0.2-2.5-0.4-3.6-0.4
		c-1.1-0.1-2.1-0.1-3.1-0.2c-0.5,0-0.8,0-1.2,0s-0.6,0-0.8,0c-0.2,0-0.4,0-0.6,0c-0.2,0-0.4,0-0.6,0.1c0.4-1.1,1-2.2,1.6-3.1
		c0.7-0.9,1.4-1.7,2.3-2.3c0.9-0.6,1.8-1.1,2.9-1.4c1.1-0.3,2.2-0.5,3.4-0.5c3.3,0,6,1.3,8.1,4v-6h2.4v12.8L138.4,193.8z
		 M137.8,191.4c-0.9-1.9-1.9-3.3-3.2-4.2c-1.3-0.9-2.8-1.4-4.8-1.4c-0.7,0-1.5,0.1-2.2,0.2c-0.7,0.1-1.3,0.3-1.9,0.6
		c-0.6,0.3-1.1,0.6-1.6,1c-0.5,0.4-0.9,0.8-1.2,1.3c1.3,0,2.6,0,3.8,0.1c1.2,0.1,2.4,0.2,3.6,0.4c1.2,0.2,2.4,0.5,3.6,0.8
		C135.1,190.5,136.4,190.9,137.8,191.4z"/>
	<path class="st1" d="M138,179.5V172h2.4v7.5H138z"/>
	<path class="st1" d="M163,224v-16.1c0-1.1-0.2-2-0.6-2.9c-0.4-0.9-0.9-1.6-1.6-2.2c-0.7-0.6-1.5-1.1-2.4-1.4
		c-0.9-0.3-1.9-0.5-3-0.5c-1.7,0-3.1,0.4-4.4,1.2c-1.2,0.8-2.2,1.9-2.8,3.2l2.3,2.7V224H148v-15.5l-2.5-2.9c0.3-1.1,0.7-2,1.3-2.9
		c0.6-0.9,1.3-1.6,2.2-2.2c0.9-0.6,1.8-1.1,2.9-1.4c1.1-0.3,2.3-0.5,3.6-0.5c1.5,0,2.9,0.2,4.2,0.7c1.3,0.5,2.3,1.1,3.2,2
		c0.9,0.8,1.6,1.8,2.1,3s0.7,2.5,0.7,3.9V224H163z"/>
	<path class="st1" d="M184.4,206.3c0-0.8-0.1-1.6-0.4-2.3c-0.3-0.7-0.6-1.3-1.1-1.8c-0.5-0.5-1.1-0.9-1.9-1.1
		c-0.7-0.3-1.6-0.4-2.6-0.4c-1,0-1.8,0.2-2.6,0.5c-0.7,0.3-1.4,0.8-1.9,1.3c-0.5,0.6-0.9,1.2-1.2,2c-0.3,0.8-0.4,1.6-0.4,2.5h-2.5
		c0-1.2,0.2-2.3,0.6-3.3c0.4-1,0.9-1.9,1.7-2.7c0.7-0.8,1.6-1.4,2.7-1.8s2.2-0.7,3.6-0.7c1.4,0,2.7,0.2,3.7,0.5
		c1.1,0.4,1.9,0.9,2.7,1.5c0.7,0.7,1.3,1.5,1.6,2.4c0.4,1,0.5,2,0.5,3.2v13.9c0,0.6-0.1,1.1-0.3,1.6c-0.2,0.5-0.5,0.9-0.9,1.3
		c-0.4,0.4-0.8,0.7-1.3,0.9c-0.5,0.2-1,0.3-1.6,0.3s-1.1-0.1-1.6-0.3c-0.5-0.2-0.9-0.5-1.3-0.9c-0.4-0.4-0.7-0.8-0.9-1.3
		c-0.2-0.5-0.3-1-0.3-1.6c0-0.6,0.1-1.1,0.3-1.6c0.2-0.5,0.5-0.9,0.9-1.3c0.4-0.4,0.8-0.7,1.3-0.9c0.5-0.2,1-0.3,1.6-0.3
		c0.3,0,0.6,0,0.8,0c0.3,0,0.5,0.1,0.8,0.2V206.3z M182.8,222.1c0.5,0,1-0.2,1.4-0.6c0.4-0.4,0.5-0.8,0.5-1.4c0-0.5-0.2-1-0.5-1.3
		c-0.4-0.4-0.8-0.5-1.4-0.5s-1,0.2-1.4,0.5c-0.4,0.4-0.6,0.8-0.6,1.3c0,0.5,0.2,1,0.6,1.4S182.2,222.1,182.8,222.1z"/>
	<path class="st1" d="M190.1,183.1c0,1.7-0.4,3.3-1.1,4.6c-0.7,1.3-1.7,2.5-2.9,3.4c-1.2,0.9-2.6,1.6-4.2,2.1
		c-1.6,0.5-3.3,0.7-5,0.7c-0.4,0-0.7,0-0.9,0c-0.3,0-0.5,0-0.6,0v-1.6c0.5-0.2,0.9-0.6,1.3-1s0.6-0.8,0.8-1.3c-0.1,0-0.3,0-0.4,0
		c-0.1,0-0.3,0-0.4,0c-0.6,0-1.2-0.1-1.6-0.3c-0.5-0.2-0.8-0.4-1.1-0.8c-0.3-0.3-0.5-0.7-0.7-1.1c-0.1-0.4-0.2-0.9-0.2-1.4
		c0-0.5,0.1-1,0.3-1.5c0.2-0.4,0.5-0.8,0.8-1.2c0.3-0.3,0.7-0.6,1.2-0.8c0.5-0.2,0.9-0.3,1.5-0.3c0.6,0,1.2,0.1,1.7,0.3
		c0.5,0.2,0.9,0.5,1.2,0.9c0.3,0.4,0.6,0.8,0.7,1.3c0.2,0.5,0.2,1.1,0.2,1.7c0,1-0.2,2-0.7,2.8c-0.5,0.9-1,1.6-1.7,2.2
		c1.4-0.1,2.6-0.3,3.8-0.8c1.2-0.4,2.2-1,3.1-1.8c0.9-0.8,1.6-1.7,2.1-2.7c0.5-1.1,0.8-2.3,0.8-3.6H190.1z M178.3,186.5
		c0-0.5-0.2-1-0.5-1.3s-0.8-0.5-1.3-0.5c-0.5,0-1,0.2-1.3,0.5s-0.5,0.8-0.5,1.3c0,0.6,0.2,1,0.5,1.3c0.3,0.3,0.8,0.5,1.3,0.5
		c0.6,0,1-0.2,1.3-0.5S178.3,187,178.3,186.5z"/>
	<path class="st1" d="M205.5,224v-17.2c0-0.8-0.1-1.6-0.3-2.3c-0.2-0.7-0.5-1.4-1-1.9c-0.5-0.5-1-1-1.8-1.3
		c-0.7-0.3-1.6-0.5-2.6-0.5c-0.9,0-1.8,0.1-2.4,0.4c-0.7,0.3-1.2,0.6-1.7,1.1c-0.5,0.5-0.8,1-1.1,1.6c-0.3,0.6-0.4,1.3-0.5,2h-2.5
		c0.1-1.1,0.3-2.1,0.7-3c0.4-0.9,0.9-1.7,1.6-2.3c0.7-0.7,1.5-1.2,2.5-1.5c1-0.4,2.1-0.5,3.5-0.5c1.4,0,2.7,0.2,3.7,0.6
		c1,0.4,1.9,1,2.5,1.7c0.7,0.7,1.1,1.6,1.5,2.6c0.3,1,0.5,2.1,0.5,3.3V224H205.5z"/>
	<path class="st1" d="M224.4,224l-11.8-13.1l1.7-1.7l10.5,11.5v-14.3c-0.2,0.1-0.5,0.2-0.7,0.2s-0.5,0-0.8,0c-0.6,0-1.1-0.1-1.6-0.3
		c-0.5-0.2-0.9-0.5-1.3-0.9c-0.4-0.4-0.7-0.8-0.9-1.3c-0.2-0.5-0.3-1-0.3-1.6c0-0.6,0.1-1.1,0.3-1.6c0.2-0.5,0.5-0.9,0.9-1.3
		c0.4-0.4,0.8-0.7,1.3-0.9c0.5-0.2,1-0.3,1.6-0.3s1.1,0.1,1.6,0.3c0.5,0.2,0.9,0.5,1.3,0.9c0.4,0.4,0.7,0.8,0.9,1.3
		c0.2,0.5,0.3,1,0.3,1.6V224H224.4z M223.2,204.6c0.5,0,1-0.2,1.3-0.6c0.3-0.4,0.5-0.8,0.5-1.4c0-0.5-0.2-1-0.5-1.4
		c-0.4-0.4-0.8-0.5-1.3-0.5s-1,0.2-1.4,0.5s-0.5,0.8-0.5,1.4c0,0.5,0.2,1,0.5,1.4S222.7,204.6,223.2,204.6z"/>
	<path class="st1" d="M234.6,198.9h2.5v17.5c0.2-0.1,0.5-0.2,0.7-0.2c0.3,0,0.5,0,0.8,0c0.6,0,1.1,0.1,1.6,0.3
		c0.5,0.2,0.9,0.5,1.3,0.9c0.4,0.4,0.7,0.8,0.9,1.3c0.2,0.5,0.3,1,0.3,1.6c0,0.6-0.1,1.1-0.3,1.6c-0.2,0.5-0.5,0.9-0.9,1.3
		c-0.4,0.4-0.8,0.7-1.3,0.9c-0.5,0.2-1,0.3-1.6,0.3c-0.6,0-1.1-0.1-1.6-0.3c-0.5-0.2-0.9-0.5-1.3-0.9c-0.4-0.4-0.7-0.8-0.9-1.3
		c-0.2-0.5-0.3-1-0.3-1.6V198.9z M238.7,222.1c0.5,0,1-0.2,1.3-0.6s0.5-0.8,0.5-1.4c0-0.5-0.2-1-0.5-1.3c-0.4-0.4-0.8-0.5-1.3-0.5
		s-1,0.2-1.3,0.5c-0.3,0.4-0.5,0.8-0.5,1.3c0,0.5,0.2,1,0.5,1.4C237.7,221.9,238.2,222.1,238.7,222.1z M245.1,198.9h2.5v17.5
		c0.2-0.1,0.5-0.2,0.7-0.2c0.3,0,0.5,0,0.8,0c0.6,0,1.1,0.1,1.6,0.3c0.5,0.2,0.9,0.5,1.3,0.9c0.4,0.4,0.7,0.8,0.9,1.3
		c0.2,0.5,0.3,1,0.3,1.6c0,0.6-0.1,1.1-0.3,1.6c-0.2,0.5-0.5,0.9-0.9,1.3c-0.4,0.4-0.8,0.7-1.3,0.9s-1,0.3-1.6,0.3s-1.1-0.1-1.6-0.3
		s-0.9-0.5-1.3-0.9c-0.4-0.4-0.7-0.8-0.9-1.3c-0.2-0.5-0.3-1-0.3-1.6V198.9z M249.2,222.1c0.5,0,1-0.2,1.3-0.6
		c0.4-0.4,0.5-0.8,0.5-1.4c0-0.5-0.2-1-0.5-1.3c-0.4-0.4-0.8-0.5-1.3-0.5c-0.6,0-1,0.2-1.4,0.5c-0.4,0.4-0.5,0.8-0.5,1.3
		c0,0.5,0.2,1,0.5,1.4C248.2,221.9,248.6,222.1,249.2,222.1z"/>
	<path class="st1" d="M273.1,224v-9.9c0-0.7-0.1-1.3-0.4-1.9c-0.3-0.6-0.7-1.1-1.3-1.6c-0.6-0.5-1.3-0.8-2.1-1.1
		c-0.8-0.3-1.8-0.4-2.9-0.4c-1,0-1.8,0.1-2.6,0.4c-0.7,0.3-1.4,0.6-1.9,1.1c-0.5,0.5-0.9,1-1.1,1.7c-0.3,0.7-0.4,1.4-0.4,2.2v1.9
		c0.2-0.1,0.5-0.2,0.7-0.2c0.2,0,0.5,0,0.8,0c0.6,0,1.1,0.1,1.6,0.3c0.5,0.2,0.9,0.5,1.3,0.9c0.4,0.4,0.7,0.8,0.9,1.3
		c0.2,0.5,0.3,1,0.3,1.6c0,0.6-0.1,1.1-0.3,1.6c-0.2,0.5-0.5,0.9-0.9,1.3c-0.4,0.4-0.8,0.7-1.3,0.9c-0.5,0.2-1,0.3-1.6,0.3
		c-0.6,0-1.1-0.1-1.6-0.3c-0.5-0.2-0.9-0.5-1.3-0.9c-0.4-0.4-0.6-0.8-0.8-1.3c-0.2-0.5-0.3-1-0.3-1.6v-5.8c0-1.1,0.2-2.1,0.6-3
		c0.4-0.9,1-1.7,1.8-2.4c0.8-0.7,1.7-1.2,2.7-1.6c1-0.4,2.2-0.6,3.5-0.6c1.5,0,2.8,0.2,3.9,0.7c1,0.4,2,1.1,2.8,1.9v-3.5
		c0-0.7-0.2-1.4-0.5-2c-0.3-0.6-0.8-1.2-1.3-1.6c-0.6-0.5-1.3-0.8-2.2-1.1c-0.9-0.3-1.8-0.4-3-0.4c-1.4,0-2.5,0.1-3.4,0.4
		s-1.7,0.7-2.3,1.2s-1,1-1.3,1.6c-0.3,0.6-0.5,1.2-0.6,1.9h-2.4c0-1,0.3-1.9,0.8-2.8c0.5-0.9,1.1-1.7,2-2.3c0.8-0.7,1.9-1.2,3.1-1.6
		c1.2-0.4,2.6-0.6,4.1-0.6c1.4,0,2.7,0.2,3.9,0.5c1.2,0.4,2.2,0.9,3,1.5s1.5,1.4,1.9,2.4c0.5,0.9,0.7,1.9,0.7,3.1v18H273.1z
		 M261.9,222.1c0.5,0,1-0.2,1.4-0.6s0.5-0.8,0.5-1.4c0-0.5-0.2-1-0.5-1.3c-0.4-0.4-0.8-0.5-1.4-0.5s-1,0.2-1.3,0.5
		c-0.4,0.4-0.5,0.8-0.5,1.3c0,0.5,0.2,1,0.5,1.4C260.9,221.9,261.3,222.1,261.9,222.1z"/>
	<path class="st1" d="M297.3,199.1c-0.5,2.7-1.6,4.7-3.4,6c-1.7,1.3-3.9,2-6.6,2c-2.1,0-3.7-0.4-4.9-1.2s-1.7-1.9-1.7-3.3
		c0-0.5,0.1-1,0.3-1.5c0.2-0.5,0.5-0.9,0.8-1.2s0.8-0.6,1.2-0.8s1-0.3,1.7-0.3c0.6,0,1.1,0.1,1.6,0.3c0.5,0.2,0.9,0.5,1.2,0.8
		c0.3,0.4,0.6,0.8,0.8,1.3c0.2,0.5,0.3,1,0.3,1.6c0,0.8-0.2,1.5-0.5,1.9c1.9-0.2,3.4-0.8,4.5-1.7s1.8-2.2,2.3-4H297.3z M297.3,214.9
		c-0.5,2.7-1.6,4.7-3.4,6c-1.7,1.3-3.9,2-6.6,2c-2.1,0-3.7-0.4-4.9-1.2s-1.7-1.9-1.7-3.3c0-0.5,0.1-1,0.3-1.5
		c0.2-0.5,0.5-0.9,0.8-1.2c0.3-0.3,0.8-0.6,1.2-0.8s1-0.3,1.7-0.3c0.6,0,1.1,0.1,1.6,0.3c0.5,0.2,0.9,0.5,1.2,0.8
		c0.3,0.4,0.6,0.8,0.8,1.3c0.2,0.5,0.3,1,0.3,1.5c0,0.9-0.2,1.5-0.5,2c1-0.1,1.8-0.3,2.5-0.6s1.4-0.6,1.9-1.1c0.5-0.5,1-1,1.4-1.7
		c0.4-0.7,0.7-1.4,0.9-2.3H297.3z M286.4,202.8c0-0.5-0.2-0.9-0.5-1.2c-0.3-0.3-0.7-0.5-1.2-0.5c-0.5,0-0.9,0.2-1.2,0.5
		c-0.3,0.3-0.5,0.7-0.5,1.2c0,0.5,0.2,0.9,0.5,1.2c0.3,0.3,0.7,0.5,1.2,0.5c0.5,0,0.9-0.2,1.2-0.5
		C286.2,203.7,286.4,203.3,286.4,202.8z M286.4,218.6c0-0.5-0.2-0.9-0.5-1.2c-0.3-0.3-0.7-0.5-1.2-0.5c-0.5,0-0.9,0.2-1.2,0.5
		c-0.3,0.3-0.5,0.7-0.5,1.2c0,0.5,0.2,0.9,0.5,1.2c0.3,0.3,0.7,0.5,1.2,0.5c0.5,0,0.9-0.2,1.2-0.5
		C286.2,219.5,286.4,219.1,286.4,218.6z"/>
	<path class="st1" d="M319.3,224v-9.9c0-0.7-0.1-1.3-0.4-1.9c-0.3-0.6-0.7-1.1-1.3-1.6s-1.3-0.8-2.1-1.1c-0.8-0.3-1.8-0.4-2.9-0.4
		c-1,0-1.8,0.1-2.6,0.4c-0.7,0.3-1.4,0.6-1.9,1.1c-0.5,0.5-0.9,1-1.1,1.7c-0.3,0.7-0.4,1.4-0.4,2.2v1.9c0.2-0.1,0.5-0.2,0.7-0.2
		c0.2,0,0.5,0,0.8,0c0.6,0,1.1,0.1,1.6,0.3c0.5,0.2,0.9,0.5,1.3,0.9c0.4,0.4,0.7,0.8,0.9,1.3c0.2,0.5,0.3,1,0.3,1.6
		c0,0.6-0.1,1.1-0.3,1.6c-0.2,0.5-0.5,0.9-0.9,1.3c-0.4,0.4-0.8,0.7-1.3,0.9c-0.5,0.2-1,0.3-1.6,0.3c-0.6,0-1.1-0.1-1.6-0.3
		c-0.5-0.2-0.9-0.5-1.3-0.9c-0.4-0.4-0.6-0.8-0.8-1.3c-0.2-0.5-0.3-1-0.3-1.6v-5.8c0-1.1,0.2-2.1,0.6-3c0.4-0.9,1-1.7,1.8-2.4
		c0.8-0.7,1.7-1.2,2.7-1.6c1-0.4,2.2-0.6,3.5-0.6c1.5,0,2.8,0.2,3.9,0.7c1,0.4,2,1.1,2.8,1.9v-3.5c0-0.7-0.2-1.4-0.5-2
		c-0.3-0.6-0.8-1.2-1.3-1.6c-0.6-0.5-1.3-0.8-2.2-1.1c-0.9-0.3-1.8-0.4-3-0.4c-1.4,0-2.5,0.1-3.4,0.4s-1.7,0.7-2.3,1.2s-1,1-1.3,1.6
		c-0.3,0.6-0.5,1.2-0.5,1.9h-2.4c0-1,0.3-1.9,0.8-2.8c0.5-0.9,1.1-1.7,2-2.3c0.8-0.7,1.9-1.2,3.1-1.6c1.2-0.4,2.6-0.6,4.1-0.6
		c1.1,0,2.1,0.1,3,0.3c0.9,0.2,1.8,0.5,2.5,0.9l3.7-3.7l1.8,1.6l-3.5,3.3c1.4,1.3,2.1,2.9,2.1,5v18H319.3z M308.1,222.1
		c0.5,0,1-0.2,1.4-0.6s0.5-0.8,0.5-1.4c0-0.5-0.2-1-0.5-1.3c-0.4-0.4-0.8-0.5-1.4-0.5s-1,0.2-1.3,0.5c-0.4,0.4-0.5,0.8-0.5,1.3
		c0,0.5,0.2,1,0.5,1.4C307.1,221.9,307.5,222.1,308.1,222.1z"/>
	<path class="st1" d="M313.4,237.8v-4c-0.2,0.1-0.4,0.2-0.6,0.2c-0.3,0-0.5,0.1-0.8,0.1c-0.6,0-1.1-0.1-1.6-0.3s-0.9-0.5-1.2-0.8
		c-0.3-0.3-0.5-0.7-0.7-1.2c-0.2-0.4-0.2-0.9-0.2-1.4c0-1.1,0.3-1.9,1-2.6c0.6-0.7,1.5-1,2.7-1c1.2,0,2.2,0.3,2.8,1
		c0.6,0.7,0.9,1.5,0.9,2.7v5.4h3c0.2,0,0.4-0.1,0.6-0.2c0.2-0.1,0.2-0.3,0.2-0.5V227h2.3v8.2c0,0.7-0.2,1.4-0.7,1.9
		c-0.5,0.5-1.2,0.8-2.2,0.8H313.4z M313.5,230.4c0-0.5-0.1-0.8-0.4-1.1c-0.3-0.3-0.7-0.5-1.3-0.5c-0.5,0-0.9,0.2-1.2,0.5
		c-0.3,0.3-0.4,0.7-0.4,1.1c0,0.5,0.1,0.8,0.4,1.1c0.3,0.3,0.7,0.5,1.2,0.5c0.5,0,0.9-0.2,1.2-0.5
		C313.4,231.2,313.5,230.8,313.5,230.4z"/>
	<path class="st1" d="M338.1,224l-11.8-13.1l1.7-1.7l10.5,11.5v-14.3c-0.2,0.1-0.5,0.2-0.7,0.2c-0.3,0-0.5,0-0.8,0
		c-0.6,0-1.1-0.1-1.6-0.3c-0.5-0.2-0.9-0.5-1.3-0.9c-0.4-0.4-0.7-0.8-0.9-1.3c-0.2-0.5-0.3-1-0.3-1.6c0-0.6,0.1-1.1,0.3-1.6
		c0.2-0.5,0.5-0.9,0.9-1.3c0.4-0.4,0.8-0.7,1.3-0.9c0.5-0.2,1-0.3,1.6-0.3c0.6,0,1.1,0.1,1.6,0.3c0.5,0.2,0.9,0.5,1.3,0.9
		c0.4,0.4,0.7,0.8,0.9,1.3c0.2,0.5,0.3,1,0.3,1.6V224H338.1z M337,204.6c0.5,0,1-0.2,1.3-0.6s0.5-0.8,0.5-1.4c0-0.5-0.2-1-0.5-1.4
		s-0.8-0.5-1.3-0.5s-1,0.2-1.4,0.5c-0.4,0.4-0.5,0.8-0.5,1.4c0,0.5,0.2,1,0.5,1.4C336,204.4,336.4,204.6,337,204.6z"/>
	<path class="st1" d="M365.4,224v-20.5c0-0.8-0.2-1.4-0.7-1.9c-0.4-0.5-1.1-0.7-1.8-0.7c-0.6,0-1.1,0.2-1.5,0.5
		c-0.4,0.3-0.7,0.7-0.9,1.3l-7.1,21.4H351v-17.5c-0.2,0.1-0.5,0.2-0.7,0.2c-0.3,0-0.5,0-0.8,0c-0.6,0-1.1-0.1-1.6-0.3
		c-0.5-0.2-0.9-0.5-1.3-0.9c-0.4-0.4-0.7-0.8-0.9-1.3c-0.2-0.5-0.3-1-0.3-1.6c0-0.6,0.1-1.1,0.3-1.6c0.2-0.5,0.5-0.9,0.9-1.3
		c0.4-0.4,0.8-0.7,1.3-0.9c0.5-0.2,1-0.3,1.6-0.3c0.6,0,1.1,0.1,1.6,0.3c0.5,0.2,0.9,0.5,1.3,0.9c0.4,0.4,0.7,0.8,0.9,1.3
		c0.2,0.5,0.3,1,0.3,1.6V217c0.8-2.4,1.5-4.9,2.4-7.3c0.8-2.4,1.6-4.9,2.4-7.3c0.4-1.4,1-2.3,1.7-2.9c0.7-0.6,1.7-0.9,2.9-0.9
		c0.7,0,1.4,0.1,2.1,0.4c0.6,0.2,1.2,0.6,1.6,1c0.4,0.4,0.8,0.9,1,1.5c0.2,0.6,0.4,1.3,0.4,2V224H365.4z M349.5,204.6
		c0.5,0,1-0.2,1.3-0.6s0.5-0.8,0.5-1.4c0-0.5-0.2-1-0.5-1.4s-0.8-0.5-1.3-0.5c-0.5,0-1,0.2-1.4,0.5c-0.4,0.4-0.5,0.8-0.5,1.4
		c0,0.5,0.2,1,0.5,1.4C348.5,204.4,349,204.6,349.5,204.6z"/>
	<path class="st1" d="M365.9,193.8c-1.7-0.6-3.3-1.1-4.8-1.5c-1.5-0.4-2.9-0.7-4.2-0.9c-1.3-0.2-2.5-0.4-3.6-0.4
		c-1.1-0.1-2.1-0.1-3.1-0.2c-0.5,0-0.8,0-1.2,0c-0.3,0-0.6,0-0.8,0c-0.2,0-0.4,0-0.6,0c-0.2,0-0.4,0-0.6,0.1c0.4-1.1,1-2.2,1.6-3.1
		c0.7-0.9,1.4-1.7,2.3-2.3c0.9-0.6,1.8-1.1,2.9-1.4c1.1-0.3,2.2-0.5,3.4-0.5c3.3,0,6,1.3,8.1,4v-6h2.4v12.8L365.9,193.8z
		 M365.4,191.4c-0.9-1.9-1.9-3.3-3.2-4.2c-1.3-0.9-2.8-1.4-4.8-1.4c-0.7,0-1.5,0.1-2.2,0.2c-0.7,0.1-1.3,0.3-1.9,0.6
		c-0.6,0.3-1.1,0.6-1.6,1c-0.5,0.4-0.9,0.8-1.2,1.3c1.3,0,2.6,0,3.8,0.1c1.2,0.1,2.4,0.2,3.6,0.4c1.2,0.2,2.4,0.5,3.6,0.8
		C362.7,190.5,364,190.9,365.4,191.4z"/>
	<path class="st1" d="M365.6,179.5V172h2.4v7.5H365.6z"/>
	<path class="st1" d="M390.4,224v-9.9c0-0.7-0.1-1.3-0.4-1.9c-0.3-0.6-0.7-1.1-1.3-1.6c-0.6-0.5-1.3-0.8-2.1-1.1s-1.8-0.4-2.9-0.4
		c-1,0-1.8,0.1-2.6,0.4c-0.7,0.3-1.4,0.6-1.9,1.1c-0.5,0.5-0.9,1-1.1,1.7c-0.3,0.7-0.4,1.4-0.4,2.2v1.9c0.2-0.1,0.5-0.2,0.7-0.2
		c0.2,0,0.5,0,0.8,0c0.6,0,1.1,0.1,1.6,0.3c0.5,0.2,0.9,0.5,1.3,0.9c0.4,0.4,0.7,0.8,0.9,1.3c0.2,0.5,0.3,1,0.3,1.6
		c0,0.6-0.1,1.1-0.3,1.6c-0.2,0.5-0.5,0.9-0.9,1.3c-0.4,0.4-0.8,0.7-1.3,0.9s-1,0.3-1.6,0.3s-1.1-0.1-1.6-0.3
		c-0.5-0.2-0.9-0.5-1.3-0.9c-0.4-0.4-0.6-0.8-0.8-1.3c-0.2-0.5-0.3-1-0.3-1.6v-5.8c0-1.1,0.2-2.1,0.6-3c0.4-0.9,1-1.7,1.8-2.4
		c0.8-0.7,1.7-1.2,2.7-1.6c1.1-0.4,2.2-0.6,3.5-0.6c1.5,0,2.8,0.2,3.9,0.7c1,0.4,2,1.1,2.8,1.9v-3.5c0-0.7-0.2-1.4-0.5-2
		c-0.3-0.6-0.8-1.2-1.3-1.6c-0.6-0.5-1.3-0.8-2.2-1.1c-0.9-0.3-1.8-0.4-3-0.4c-1.4,0-2.5,0.1-3.4,0.4s-1.7,0.7-2.3,1.2s-1,1-1.3,1.6
		c-0.3,0.6-0.5,1.2-0.5,1.9h-2.4c0-1,0.3-1.9,0.8-2.8c0.5-0.9,1.1-1.7,2-2.3c0.8-0.7,1.9-1.2,3.1-1.6s2.6-0.6,4.1-0.6
		c1.1,0,2.1,0.1,3,0.3c0.9,0.2,1.8,0.5,2.5,0.9l3.7-3.7l1.8,1.6l-3.5,3.3c1.4,1.3,2.1,2.9,2.1,5v18H390.4z M379.2,222.1
		c0.5,0,1-0.2,1.4-0.6c0.4-0.4,0.5-0.8,0.5-1.4c0-0.5-0.2-1-0.5-1.3c-0.4-0.4-0.8-0.5-1.4-0.5s-1,0.2-1.3,0.5
		c-0.3,0.4-0.5,0.8-0.5,1.3c0,0.5,0.2,1,0.5,1.4S378.7,222.1,379.2,222.1z"/>
	<path class="st1" d="M390.6,238.4v-4.9c-0.2,0.1-0.4,0.2-0.6,0.2c-0.2,0-0.5,0.1-0.8,0.1c-0.6,0-1.1-0.1-1.6-0.3
		c-0.5-0.2-0.9-0.5-1.2-0.8c-0.3-0.3-0.6-0.7-0.8-1.2c-0.2-0.4-0.3-0.9-0.3-1.4c0-1.1,0.3-2,1-2.6s1.6-1,2.8-1c1.2,0,2.1,0.3,2.7,1
		c0.6,0.7,1,1.6,1,2.7v8.3H390.6z M389.2,231.8c0.5,0,0.9-0.2,1.2-0.5c0.3-0.3,0.4-0.7,0.4-1.1c0-0.5-0.1-0.8-0.4-1.1
		c-0.2-0.3-0.7-0.5-1.2-0.5c-0.5,0-0.9,0.2-1.2,0.5c-0.3,0.3-0.4,0.7-0.4,1.1c0,0.5,0.1,0.8,0.4,1.1
		C388.3,231.6,388.7,231.8,389.2,231.8z"/>
	<path class="st1" d="M416.9,224v-15.7c0-1.1-0.2-2.1-0.5-3.1s-0.8-1.7-1.4-2.4c-0.6-0.7-1.4-1.2-2.3-1.5c-0.9-0.4-2-0.5-3.3-0.5
		s-2.4,0.2-3.3,0.5c-0.9,0.4-1.7,0.9-2.3,1.5c-0.6,0.7-1.1,1.5-1.4,2.4s-0.5,2-0.5,3.1v12.8l6.8-7c-0.4,0-0.8-0.1-1.1-0.3
		c-0.4-0.2-0.7-0.4-1-0.7c-0.3-0.3-0.5-0.7-0.7-1.1c-0.2-0.4-0.3-0.9-0.3-1.4c0-0.6,0.1-1.1,0.3-1.6s0.5-0.9,0.8-1.3
		c0.3-0.4,0.8-0.6,1.3-0.8c0.5-0.2,1-0.3,1.6-0.3s1.1,0.1,1.6,0.3c0.5,0.2,0.9,0.5,1.3,0.9c0.3,0.4,0.6,0.8,0.8,1.3
		c0.2,0.5,0.3,1,0.3,1.6c0,0.5-0.1,1-0.3,1.6c-0.2,0.5-0.5,1-0.9,1.3l-10,10.5h-2.8v-15.6c0-1.5,0.2-2.9,0.7-4.1
		c0.4-1.2,1.1-2.2,2-3.1c0.9-0.9,1.9-1.5,3.1-2c1.2-0.5,2.6-0.7,4.2-0.7c1.6,0,3,0.2,4.2,0.7c1.2,0.5,2.3,1.1,3.1,2
		c0.9,0.9,1.5,1.9,2,3.1c0.5,1.2,0.7,2.6,0.7,4.1V224H416.9z M409.5,212.3c0.5,0,1-0.2,1.3-0.5c0.4-0.4,0.5-0.8,0.5-1.3
		c0-0.5-0.2-1-0.5-1.3c-0.4-0.4-0.8-0.5-1.3-0.5s-1,0.2-1.4,0.5c-0.4,0.4-0.5,0.8-0.5,1.3c0,0.5,0.2,1,0.5,1.3
		C408.5,212.1,409,212.3,409.5,212.3z"/>
	<path class="st1" d="M433.3,224v-19.9c0-1.2-0.3-2.1-0.8-2.7c-0.5-0.6-1.4-0.9-2.6-0.9c-0.8,0-1.4,0.2-1.9,0.5
		c-0.5,0.3-0.8,0.8-1,1.4c0.1,0,0.2-0.1,0.5-0.1c0.2,0,0.4,0,0.6,0c0.6,0,1.2,0.1,1.6,0.3c0.5,0.2,0.9,0.5,1.2,0.8
		c0.3,0.3,0.6,0.7,0.7,1.2c0.2,0.5,0.2,0.9,0.2,1.5c0,0.6-0.1,1.1-0.3,1.5c-0.2,0.5-0.4,0.9-0.8,1.2c-0.3,0.3-0.7,0.6-1.2,0.8
		c-0.5,0.2-1,0.3-1.5,0.3c-0.6,0-1.2-0.1-1.7-0.4c-0.5-0.2-0.9-0.6-1.3-1c-0.3-0.4-0.6-0.9-0.8-1.5c-0.2-0.6-0.3-1.2-0.3-1.9
		c0-0.9,0.1-1.8,0.4-2.6c0.3-0.8,0.7-1.5,1.2-2.1c0.5-0.6,1.2-1,1.9-1.3c0.7-0.3,1.6-0.5,2.5-0.5c0.8,0,1.6,0.1,2.3,0.4
		c0.7,0.2,1.3,0.6,1.8,1.1c0.5,0.5,0.9,1,1.2,1.7c0.3,0.7,0.4,1.5,0.4,2.4v17.6h5.3v-22.9h2.5V224H433.3z M428,207.9
		c0.5,0,0.9-0.2,1.2-0.5c0.3-0.4,0.5-0.8,0.5-1.3c0-0.5-0.2-1-0.5-1.3s-0.7-0.5-1.3-0.5c-0.5,0-1,0.2-1.3,0.5
		c-0.3,0.3-0.5,0.8-0.5,1.3c0,0.5,0.2,1,0.5,1.3C427.1,207.7,427.5,207.9,428,207.9z"/>
	<path class="st1" d="M451.4,224v-12.3c0-0.6,0.1-1.1,0.3-1.6c0.2-0.5,0.5-0.9,0.9-1.3c0.4-0.4,0.8-0.6,1.3-0.8
		c0.5-0.2,1-0.3,1.6-0.3s1.1,0.1,1.6,0.3s0.9,0.5,1.3,0.8c0.3,0.4,0.6,0.8,0.8,1.3c0.2,0.5,0.3,1,0.3,1.6c0,0.6-0.1,1.1-0.3,1.6
		c-0.2,0.5-0.5,0.9-0.8,1.3c-0.4,0.3-0.8,0.6-1.3,0.8c-0.5,0.2-1,0.3-1.6,0.3c-0.3,0-0.6,0-0.8-0.1c-0.3,0-0.5-0.1-0.7-0.2v6.3h11.4
		v-14.5c0-1-0.2-1.9-0.5-2.7c-0.3-0.8-0.8-1.5-1.5-2c-0.6-0.6-1.4-1-2.3-1.3c-0.9-0.3-1.9-0.4-2.9-0.4c-0.9,0-1.8,0.1-2.5,0.4
		c-0.8,0.3-1.4,0.6-2,1.1c-0.6,0.5-1.1,1-1.4,1.6c-0.4,0.6-0.6,1.3-0.7,2h-2.7c0.2-1.1,0.5-2.1,1.1-3c0.5-0.9,1.2-1.7,2-2.3
		c0.8-0.6,1.8-1.1,2.8-1.5c1.1-0.4,2.2-0.5,3.4-0.5c1.4,0,2.7,0.2,3.9,0.6c1.2,0.4,2.2,0.9,3.1,1.7c0.9,0.7,1.5,1.6,2,2.7
		s0.7,2.3,0.7,3.7V224H451.4z M457.3,211.7c0-0.5-0.2-1-0.5-1.3c-0.3-0.3-0.8-0.5-1.3-0.5s-1,0.2-1.3,0.5c-0.3,0.4-0.5,0.8-0.5,1.3
		s0.2,1,0.5,1.3s0.8,0.5,1.3,0.5s1-0.2,1.3-0.5S457.3,212.3,457.3,211.7z"/>
	<path class="st1" d="M484.2,224l-11.8-13.1l1.7-1.7l10.5,11.5v-14.3c-0.2,0.1-0.5,0.2-0.7,0.2c-0.3,0-0.5,0-0.8,0
		c-0.6,0-1.1-0.1-1.6-0.3c-0.5-0.2-0.9-0.5-1.3-0.9c-0.4-0.4-0.7-0.8-0.9-1.3c-0.2-0.5-0.3-1-0.3-1.6c0-0.6,0.1-1.1,0.3-1.6
		c0.2-0.5,0.5-0.9,0.9-1.3c0.4-0.4,0.8-0.7,1.3-0.9c0.5-0.2,1-0.3,1.6-0.3c0.6,0,1.1,0.1,1.6,0.3c0.5,0.2,0.9,0.5,1.3,0.9
		c0.4,0.4,0.7,0.8,0.9,1.3c0.2,0.5,0.3,1,0.3,1.6V224H484.2z M483,204.6c0.5,0,1-0.2,1.3-0.6c0.3-0.4,0.5-0.8,0.5-1.4
		c0-0.5-0.2-1-0.5-1.4c-0.4-0.4-0.8-0.5-1.3-0.5s-1,0.2-1.4,0.5c-0.4,0.4-0.5,0.8-0.5,1.4c0,0.5,0.2,1,0.5,1.4
		C482,204.4,482.4,204.6,483,204.6z"/>
	<path class="st1" d="M494.8,224v-12.3c0-0.6,0.1-1.1,0.3-1.6c0.2-0.5,0.5-0.9,0.9-1.3c0.4-0.4,0.8-0.6,1.3-0.8
		c0.5-0.2,1-0.3,1.6-0.3s1.1,0.1,1.6,0.3s0.9,0.5,1.3,0.8c0.3,0.4,0.6,0.8,0.8,1.3c0.2,0.5,0.3,1,0.3,1.6c0,0.6-0.1,1.1-0.3,1.6
		c-0.2,0.5-0.5,0.9-0.8,1.3c-0.4,0.3-0.8,0.6-1.3,0.8c-0.5,0.2-1,0.3-1.6,0.3c-0.3,0-0.6,0-0.8-0.1c-0.3,0-0.5-0.1-0.7-0.2v6.3h11.4
		v-14.5c0-1-0.2-1.9-0.5-2.7c-0.3-0.8-0.8-1.5-1.5-2c-0.6-0.6-1.4-1-2.3-1.3c-0.9-0.3-1.9-0.4-2.9-0.4c-0.9,0-1.8,0.1-2.5,0.4
		c-0.8,0.3-1.4,0.6-2,1.1c-0.6,0.5-1.1,1-1.4,1.6c-0.4,0.6-0.6,1.3-0.7,2h-2.7c0.2-1.1,0.5-2.1,1.1-3c0.5-0.9,1.2-1.7,2-2.3
		c0.8-0.6,1.8-1.1,2.8-1.5c1.1-0.4,2.2-0.5,3.4-0.5c1.4,0,2.7,0.2,3.9,0.6c1.2,0.4,2.2,0.9,3.1,1.7c0.9,0.7,1.5,1.6,2,2.7
		s0.7,2.3,0.7,3.7V224H494.8z M500.7,211.7c0-0.5-0.2-1-0.5-1.3c-0.3-0.3-0.8-0.5-1.3-0.5s-1,0.2-1.3,0.5c-0.3,0.4-0.5,0.8-0.5,1.3
		s0.2,1,0.5,1.3s0.8,0.5,1.3,0.5s1-0.2,1.3-0.5S500.7,212.3,500.7,211.7z"/>
	<path class="st1" d="M509,238.4v-4.9c-0.2,0.1-0.4,0.2-0.6,0.2c-0.2,0-0.5,0.1-0.8,0.1c-0.6,0-1.1-0.1-1.6-0.3
		c-0.5-0.2-0.9-0.5-1.2-0.8c-0.3-0.3-0.6-0.7-0.8-1.2c-0.2-0.4-0.3-0.9-0.3-1.4c0-1.1,0.3-2,1-2.6s1.6-1,2.8-1c1.2,0,2.1,0.3,2.7,1
		c0.6,0.7,1,1.6,1,2.7v8.3H509z M507.5,231.8c0.5,0,0.9-0.2,1.2-0.5c0.3-0.3,0.4-0.7,0.4-1.1c0-0.5-0.1-0.8-0.4-1.1
		c-0.2-0.3-0.7-0.5-1.2-0.5c-0.5,0-0.9,0.2-1.2,0.5c-0.3,0.3-0.4,0.7-0.4,1.1c0,0.5,0.1,0.8,0.4,1.1
		C506.6,231.6,507,231.8,507.5,231.8z"/>
	<path class="st1" d="M535.6,224v-20.5c0-0.8-0.2-1.4-0.7-1.9c-0.4-0.5-1.1-0.7-1.8-0.7c-0.6,0-1.1,0.2-1.5,0.5
		c-0.4,0.3-0.7,0.7-0.9,1.3l-7.1,21.4h-2.4v-17.5c-0.2,0.1-0.5,0.2-0.7,0.2s-0.5,0-0.8,0c-0.6,0-1.1-0.1-1.6-0.3
		c-0.5-0.2-0.9-0.5-1.3-0.9c-0.4-0.4-0.7-0.8-0.9-1.3c-0.2-0.5-0.3-1-0.3-1.6c0-0.6,0.1-1.1,0.3-1.6c0.2-0.5,0.5-0.9,0.9-1.3
		c0.4-0.4,0.8-0.7,1.3-0.9c0.5-0.2,1-0.3,1.6-0.3c0.6,0,1.1,0.1,1.6,0.3c0.5,0.2,0.9,0.5,1.3,0.9c0.4,0.4,0.7,0.8,0.9,1.3
		c0.2,0.5,0.3,1,0.3,1.6V217c0.8-2.4,1.6-4.9,2.4-7.3c0.8-2.4,1.6-4.9,2.4-7.3c0.4-1.4,1-2.3,1.7-2.9c0.7-0.6,1.7-0.9,2.9-0.9
		c0.7,0,1.4,0.1,2.1,0.4c0.6,0.2,1.2,0.6,1.6,1c0.4,0.4,0.8,0.9,1,1.5c0.2,0.6,0.4,1.3,0.4,2V224H535.6z M519.7,204.6
		c0.5,0,1-0.2,1.3-0.6s0.5-0.8,0.5-1.4c0-0.5-0.2-1-0.5-1.4s-0.8-0.5-1.3-0.5c-0.5,0-1,0.2-1.4,0.5c-0.4,0.4-0.5,0.8-0.5,1.4
		c0,0.5,0.2,1,0.5,1.4C518.7,204.4,519.2,204.6,519.7,204.6z"/>
	<path class="st1" d="M545,224v-7.6c0-2.8,1.1-4.5,3.2-5.3c-1.5-0.4-2.7-1.1-3.5-2.2c-0.8-1.1-1.2-2.4-1.2-4c0-0.9,0.2-1.8,0.5-2.5
		c0.3-0.8,0.8-1.4,1.4-2c0.6-0.6,1.3-1,2.1-1.3c0.8-0.3,1.7-0.5,2.6-0.5c1.3,0,2.4,0.3,3.1,1c0.8,0.7,1.2,1.6,1.2,2.7
		c0,0.6-0.1,1.1-0.3,1.6c-0.2,0.5-0.4,0.9-0.8,1.2c-0.3,0.4-0.7,0.6-1.2,0.8c-0.5,0.2-1,0.3-1.7,0.3c-1,0-1.8-0.3-2.5-0.8
		c-0.7-0.5-1.2-1.3-1.4-2.4c-0.2,0.3-0.3,0.6-0.3,1s-0.1,0.7-0.1,1.1c0,0.7,0.1,1.3,0.3,1.9c0.2,0.5,0.5,1,0.9,1.4
		c0.4,0.4,1,0.7,1.7,0.9c0.7,0.2,1.6,0.3,2.6,0.3h2.4v2.5h-2.7c-1.2,0-2.1,0.3-2.8,1c-0.6,0.7-0.9,1.8-0.9,3.3v5.3h12.2v-22.9h2.5
		V224H545z M552.3,202.4c0-0.5-0.2-0.9-0.5-1.3c-0.4-0.4-0.8-0.6-1.3-0.6c-0.6,0-1,0.2-1.4,0.5c-0.3,0.3-0.5,0.8-0.5,1.4
		c0,0.5,0.2,1,0.5,1.3c0.3,0.3,0.8,0.5,1.3,0.5c0.5,0,0.9-0.2,1.3-0.5C552.1,203.4,552.3,203,552.3,202.4z"/>
	<path class="st1" d="M581,224v-17.2c0-0.8-0.1-1.6-0.3-2.3c-0.2-0.7-0.5-1.4-1-1.9c-0.5-0.5-1-1-1.8-1.3c-0.7-0.3-1.6-0.5-2.6-0.5
		c-0.9,0-1.8,0.1-2.4,0.4c-0.7,0.3-1.2,0.6-1.7,1.1c-0.5,0.5-0.8,1-1.1,1.6c-0.3,0.6-0.4,1.3-0.5,2H567c0.1-1.1,0.3-2.1,0.7-3
		c0.4-0.9,0.9-1.7,1.6-2.3c0.7-0.7,1.5-1.2,2.5-1.5c1-0.4,2.1-0.5,3.5-0.5c1.4,0,2.7,0.2,3.7,0.6c1,0.4,1.9,1,2.5,1.7
		c0.7,0.7,1.1,1.6,1.5,2.6c0.3,1,0.5,2.1,0.5,3.3V224H581z"/>
	<path class="st1" d="M604.8,220l-8.7,4h-2.7v-17.5c-0.2,0.1-0.5,0.2-0.7,0.2c-0.3,0-0.5,0-0.8,0c-0.6,0-1.1-0.1-1.6-0.3
		c-0.5-0.2-0.9-0.5-1.3-0.9c-0.4-0.4-0.7-0.8-0.9-1.3c-0.2-0.5-0.3-1-0.3-1.6c0-0.6,0.1-1.1,0.3-1.6c0.2-0.5,0.5-0.9,0.9-1.3
		c0.4-0.4,0.8-0.7,1.3-0.9c0.5-0.2,1-0.3,1.6-0.3c0.6,0,1.1,0.1,1.6,0.3c0.5,0.2,0.9,0.5,1.3,0.9c0.4,0.4,0.7,0.8,0.9,1.3
		c0.2,0.5,0.3,1,0.3,1.6v19l11.5-5.1v-17.7h2.5v17.9c0.8,0.3,1.4,0.8,1.9,1.4c0.5,0.7,0.7,1.4,0.7,2.3c0,0.6-0.1,1.1-0.3,1.6
		c-0.2,0.5-0.5,0.9-0.8,1.2c-0.4,0.4-0.8,0.6-1.2,0.8c-0.5,0.2-1,0.3-1.5,0.3c-0.6,0-1.1-0.1-1.5-0.3s-0.9-0.4-1.2-0.8
		c-0.3-0.3-0.6-0.7-0.8-1.2c-0.2-0.5-0.3-1-0.3-1.5V220z M592,204.6c0.5,0,1-0.2,1.3-0.6s0.5-0.8,0.5-1.4c0-0.5-0.2-1-0.5-1.4
		s-0.8-0.5-1.3-0.5c-0.5,0-1,0.2-1.4,0.5c-0.4,0.4-0.5,0.8-0.5,1.4c0,0.5,0.2,1,0.5,1.4C590.9,204.4,591.4,204.6,592,204.6z
		 M608.8,222.2c0.5,0,0.9-0.2,1.2-0.5c0.3-0.3,0.5-0.7,0.5-1.2c0-0.5-0.2-0.9-0.5-1.2c-0.3-0.3-0.7-0.5-1.2-0.5
		c-0.5,0-0.9,0.2-1.2,0.5c-0.3,0.3-0.5,0.7-0.5,1.2c0,0.5,0.2,0.9,0.5,1.2C607.9,222,608.3,222.2,608.8,222.2z"/>
</g>
</svg>
