<?xml version="1.0" encoding="utf-8"?>
<!-- Generator: Adobe Illustrator 24.2.3, SVG Export Plug-In . SVG Version: 6.00 Build 0)  -->
<svg version="1.1" id="Layer_1" xmlns="http://www.w3.org/2000/svg" xmlns:xlink="http://www.w3.org/1999/xlink" x="0px" y="0px"
	 viewBox="0 0 777 224" style="enable-background:new 0 0 777 224;" xml:space="preserve">
<style type="text/css">
	.st0{enable-background:new    ;}
	.st1{fill:#F8EFD7;}
</style>
<g class="st0">
	<path class="st1" d="M10.1,47.9c-0.1-0.3,0-0.6,0.2-0.8l5-3.4c0.5-0.2,0.7-0.1,0.7,0.2v9.8v22.4c0.1,0.5,0.1,1,0,1.6
		s-0.2,1-0.4,1.3c-0.1,0.8,0.2,1.3,1,1.5c0.8,0.2,1.6,0.1,2.4,0c0.3-0.1,0.7-0.2,1-0.2c0.3,0,0.3,0.2,0,0.6l-3.6,3.7
		c-0.2,0.2-0.4,0.3-0.7,0.4C15.4,85,15.2,85,15,85c-0.6,0-1.2-0.1-2-0.4c-0.7-0.3-1.3-0.6-1.9-1c-0.5-0.4-1-1-1.3-1.6
		c-0.3-0.6-0.4-1.3-0.2-2c0.1-0.5,0.2-1.1,0.4-1.8c0.1-0.7,0.1-1.3,0-1.8V47.9z M22.4,47.9c-0.1-0.3,0-0.6,0.2-0.8l5-3.4
		c0.5-0.2,0.7-0.1,0.7,0.2v9.8v22.4c0.1,0.5,0,1-0.1,1.6c-0.1,0.6-0.2,1-0.3,1.3c-0.1,0.8,0.2,1.3,1,1.5c0.8,0.2,1.6,0.1,2.4,0
		c0.3-0.1,0.7-0.2,1-0.2c0.3,0,0.3,0.2,0,0.6l-3.6,3.7c-0.2,0.2-0.4,0.3-0.7,0.4C27.7,85,27.5,85,27.3,85c-0.6,0-1.2-0.1-2-0.4
		c-0.7-0.3-1.3-0.6-1.9-1c-0.5-0.4-1-1-1.3-1.6c-0.3-0.6-0.4-1.3-0.2-2c0.1-0.5,0.2-1.1,0.4-1.8c0.1-0.7,0.1-1.3,0.1-1.8V47.9z"/>
	<path class="st1" d="M37.5,63.7c0-1-0.2-2-0.8-3s-1-2-1.5-3c-0.5-1-0.8-1.9-1-2.8s0-1.9,0.7-2.9l5.4-7.9c0.2-0.3,0.6-0.4,1.1-0.4
		c0.5,0,1.1,0.1,1.8,0.3c0.6,0.2,1.3,0.6,1.9,1c0.6,0.5,1.1,1,1.5,1.7l2.4-3.1h5.2c3.7,0,5.6,2.1,5.8,6.4V78c0,0.7-0.2,1.3-0.7,1.7
		l-4.3,5c-0.3,0.3-0.5,0.4-0.6,0.2c-0.2-0.2-0.2-0.4-0.2-0.8V52c-0.1-0.9-0.4-1.6-0.9-2c-0.5-0.4-1.2-0.5-2.1-0.5H47l-2.1,2.3
		c2.1-0.5,3.9-0.7,5.2-0.5c1.4,0.2,2.2,0.8,2.5,2c0.5,1.5,0.4,2.9-0.2,4.1c-0.6,1.2-1.4,2.4-2.5,3.6c-1.1,1.2-2.2,2.3-3.4,3.3
		c-1.2,1.1-2.2,2.2-3.1,3.3v11.8c0,0.3-0.1,0.5-0.3,0.7l-5,4.7c-0.3,0.3-0.6,0.2-0.7-0.2V63.7z M44.7,51.9c-0.3-0.2-0.6-0.5-1-0.9
		c-0.4-0.4-0.9-0.7-1.3-1c-0.4-0.3-0.9-0.5-1.3-0.6c-0.4-0.2-0.8-0.2-1.1,0c-0.5,0.3-1,0.9-1.5,1.8c-0.5,0.9-0.5,1.8-0.1,2.5
		c0.4,0.8,0.9,1.6,1.6,2.4s1.4,1.6,2.1,2.5c0.7,0.9,1.2,1.9,1.3,3c0.5-0.3,1-0.7,1.5-1c0.5-0.3,1-0.6,1.5-1c0.9-0.7,1.7-1.3,2.3-2
		c0.6-0.7,0.9-1.2,0.9-1.7c0-0.4-0.5-0.6-1.5-0.5c-0.9,0-2.5,0.5-4.7,1.2c-0.3,0.1-0.4,0.1-0.5,0c-0.1-0.2,0-0.5,0.1-0.8l0.9-3.5
		l0.1-0.3L44.7,51.9z"/>
	<path class="st1" d="M54.4,25.1l4.9-4.7c0.4-0.3,0.6-0.2,0.7,0.1v10.1c0,0.3-0.1,0.6-0.3,0.8l-4.8,4.7c-0.5,0.2-0.7,0.1-0.8-0.2
		V25.8C54.1,25.5,54.2,25.2,54.4,25.1z"/>
	<path class="st1" d="M70.9,76l4,4.8c0.7-0.1,0.9,0,0.8,0.2c-0.1,0.2-0.5,0.4-1,0.7l-4.3,3.2c-0.3,0.1-0.5,0.1-0.7,0l-4-4.9
		c-1,0.2-0.9-0.1,0.2-0.8l4.2-3.2C70.3,75.9,70.6,75.9,70.9,76z"/>
	<path class="st1" d="M85.1,76l4,4.8c0.7-0.1,0.9,0,0.8,0.2c-0.1,0.2-0.5,0.4-1,0.7l-4.3,3.2c-0.3,0.1-0.5,0.1-0.7,0l-4-4.9
		c-1,0.2-0.9-0.1,0.2-0.8l4.2-3.2C84.5,75.9,84.8,75.9,85.1,76z"/>
	<path class="st1" d="M99.3,76l4,4.8c0.7-0.1,0.9,0,0.8,0.2c-0.1,0.2-0.5,0.4-1,0.7l-4.3,3.2c-0.3,0.1-0.5,0.1-0.7,0l-4-4.9
		c-1,0.2-0.9-0.1,0.2-0.8l4.2-3.2C98.7,75.9,99,75.9,99.3,76z"/>
	<path class="st1" d="M147.2,34.3l4.8-4.7c0.4-0.3,0.7-0.3,0.8,0.2v47.4c-0.1,0.5-0.3,1-0.7,1.5l-6.5,5.4c-0.3,0.2-0.5,0.4-0.6,0.5
		c-0.2,0.1-0.5,0.2-1,0.2c-2.4,0.3-4.5,0.2-6.4-0.3c-1.8-0.6-3.3-1.5-4.5-2.7c-1.2-1.2-2-2.6-2.5-4.3c-0.5-1.7-0.6-3.4-0.3-5.2
		l3.2-22c-0.1-0.4-0.3-0.7-0.7-1c-0.4-0.2-0.9-0.4-1.4-0.5c-0.5-0.1-1.1-0.1-1.6-0.1c-0.6,0-1,0.1-1.4,0.2c-0.3,0.1-0.7,0.2-1,0.1
		c-0.3-0.1-0.3-0.3,0-0.7l2.9-4.3c0.1-0.3,0.3-0.4,0.6-0.5c0.3,0,0.5,0,0.8,0c0.8,0,1.6,0.1,2.4,0.3s1.5,0.5,2.2,1
		c0.7,0.4,1.2,1,1.5,1.8c0.3,0.8,0.5,1.7,0.4,2.9l-1.8,21.5c-0.1,1.3,0,2.5,0.4,3.6c0.4,1.1,1,2,1.7,2.9c0.7,0.8,1.6,1.5,2.6,2
		c1,0.5,2,0.8,3,0.9c1.3,0.1,2.3-0.4,2.8-1.6V35C146.9,34.7,147,34.5,147.2,34.3z"/>
	<path class="st1" d="M154.1,37.6h-8.6L143,38c-2.1,0.1-3.7-0.5-4.9-1.6c-1.2-1.1-1.9-2.3-1.9-3.6c0-0.3,0-0.5,0-0.8
		c0-0.2,0.2-0.5,0.5-0.6l3.6-3.6c0.4-0.3,0.6-0.3,0.6,0c0,0.3-0.1,0.7-0.2,1c-0.2,0.7-0.1,1.5,0.3,2.2c0.4,0.7,1.1,1.1,2,1.2
		l2.7-0.5h13.7c0.3,0.1,0.4,0.3,0.2,0.8l-4.7,4.8C154.7,37.5,154.4,37.6,154.1,37.6z"/>
	<path class="st1" d="M160.9,59c-0.1-1.7-0.4-3.1-0.9-4.2c-0.5-1.1-1.5-1.7-3-1.8c-0.7-0.1-0.9-0.4-0.5-0.9l7-8.1
		c0.2-0.3,0.5-0.4,0.9-0.4h11.8c1,0,2,0.1,3.1,0.4c1.1,0.2,2,0.6,2.7,1c0.7,0.5,1.2,1.1,1.5,1.8c0.3,0.8,0.2,1.7-0.3,2.7
		c-0.7,1.3-1.2,3-1.6,5s-0.7,4.1-0.9,6.3c-0.2,2.2-0.1,4.5,0.1,6.8c0.2,2.3,0.7,4.3,1.3,6.2c0.6,1.8,1.5,3.4,2.7,4.6
		c1.1,1.2,2.6,1.9,4.3,2.1c1.2,0.1,2.1-0.4,2.7-1.6v-27v-2.6c0-0.3,0.1-0.6,0.3-0.8l4.9-4.7c0.4-0.2,0.6-0.1,0.7,0.2v33.4
		c0,0.3-0.1,0.6-0.2,0.8c-0.1,0.2-0.3,0.4-0.5,0.6l-6.5,5.5c-0.3,0.2-0.5,0.3-0.6,0.4c-0.1,0.1-0.4,0.2-0.9,0.3
		c-3.6,0.5-6.4,0-8.4-1.5c-2-1.5-3.4-3.6-4.3-6.2c-0.9-2.6-1.3-5.3-1.2-8.3c0-3,0.3-5.7,0.8-8.2c0.3-1.4,0.6-2.8,0.9-4.2
		c0.3-1.4,0.8-2.9,1.3-4.5c0.3-0.9,0.2-1.6,0-2c-0.3-0.4-0.8-0.6-1.5-0.6h-14.1l-0.7,0.8c2.2,0.7,3.6,1.7,4.1,3
		c0.6,1.3,0.9,3,0.9,4.9v17.4l-0.3,2.6c0,0.5,0.2,0.9,0.7,1.2c0.5,0.3,1,0.6,1.6,0.8c0.6,0.2,1.2,0.3,1.9,0.4c0.6,0.1,1.1,0,1.5-0.1
		c0.3-0.1,0.7-0.2,1-0.2c0.3,0,0.3,0.2,0,0.6l-3.6,3.7c-0.3,0.3-0.9,0.4-1.9,0.5c-1,0-2-0.2-3.1-0.6c-1.1-0.4-2.1-1.1-2.9-2.1
		c-0.8-1-1.2-2.3-1.2-4l0.5-2.5V59z M180.3,87.3h16.9c0.4,0.1,0.5,0.3,0.2,0.8l-4.7,4.8c-0.2,0.2-0.4,0.3-0.7,0.3h-16.9
		c-0.4-0.1-0.5-0.4-0.2-0.7l4.7-4.9C179.8,87.4,180,87.3,180.3,87.3z"/>
	<path class="st1" d="M213.1,80.4c0,0.3-0.1,0.5-0.3,0.7c-0.1,0.1-0.5,0.4-1.1,0.8c-0.6,0.4-1.2,0.8-1.9,1.3
		c-0.6,0.5-1.2,0.9-1.8,1.2c-0.6,0.4-0.9,0.5-1,0.5c-0.3,0.2-0.5,0.1-0.5-0.2c-1.5-2.3-2.5-4.8-2.8-7.2c-0.4-2.5-0.4-4.9,0-7.2
		l3.4-19.7c0-0.5-0.2-0.8-0.6-1c-0.4-0.2-0.9-0.4-1.4-0.5c-0.5-0.1-1.1-0.1-1.6-0.1c-0.6,0-1,0.1-1.5,0.1c-0.3,0.1-0.7,0.2-1,0.1
		c-0.3-0.1-0.3-0.3,0-0.6l3.4-4.4c0.3-0.3,0.7-0.5,1.4-0.5c0.7,0,1.5,0.1,2.3,0.3c0.8,0.2,1.5,0.5,2.1,1c0.6,0.5,1.1,1.1,1.5,1.9
		c0.3,0.8,0.4,1.7,0.3,2.8L209.8,66c-0.1,0.7-0.2,1.5-0.2,2.3c0,0.9,0.1,1.8,0.2,2.6c0.1,0.8,0.2,1.6,0.4,2.3
		c0.2,0.7,0.5,1.2,0.8,1.3l6.2-19.8v-0.1c0-0.1,0-0.2,0.1-0.3c0-0.1,0.1-0.2,0.1-0.3l2.8-3c0.1-0.3,0.5-0.4,1.1-0.4
		c1.3,0.5,2.6,1.4,3.8,2.7c1.2,1.3,1.8,2.7,1.9,4v20.7c-0.1,0.8-0.4,1.4-0.7,1.7l-4.2,5c-0.3,0.3-0.5,0.4-0.7,0.2
		c-0.2-0.2-0.3-0.4-0.3-0.6V57.7l-0.3-1.1L213.1,80.4z M223.9,49.6h-8.6c-0.3-0.1-0.4-0.3-0.2-0.8l4.7-4.8c0.2-0.2,0.4-0.3,0.7-0.3
		h8.6c0.3,0.1,0.4,0.3,0.2,0.7l-4.7,4.9C224.4,49.5,224.2,49.6,223.9,49.6z"/>
	<path class="st1" d="M240.7,49.5h-8.5c-0.6-0.1-0.7-0.4-0.4-0.9l3.6-4.6c0.3-0.3,0.6-0.4,0.9-0.4h9.4c0.6,0,0.9,0.3,0.9,0.8v34.9
		c0,0.3-0.1,0.6-0.3,0.8l-4.9,4.7c-0.4,0.2-0.6,0.1-0.7-0.2V49.5z"/>
	<path class="st1" d="M254.7,59c-0.1-1.7-0.4-3.1-0.9-4.2c-0.5-1.1-1.4-1.7-2.9-1.8c-0.7-0.1-0.8-0.4-0.5-0.9l7-8.1
		c0.3-0.3,0.6-0.4,0.9-0.4h17.9c0.6,0,0.9,0.3,0.9,0.8v33.5c0,0.3,0,0.6,0,0.8c0,0.2-0.2,0.4-0.4,0.6l-4.5,5.4
		c-0.3,0.3-0.5,0.4-0.7,0.2c-0.2-0.2-0.3-0.4-0.3-0.7V49.4h-14.9l-0.7,0.8c1.1,0.3,2,0.8,2.6,1.5c0.6,0.6,1.1,1.3,1.5,2
		c0.3,0.7,0.6,1.5,0.7,2.3s0.2,1.5,0.3,2.1v21c0,0.4-0.1,0.6-0.3,0.7l-4.8,5c-0.2,0.1-0.4,0.2-0.6,0c-0.2-0.1-0.3-0.2-0.3-0.4V59z"
		/>
	<path class="st1" d="M278.4,24.7l-2.4,3c-0.2,0.3-0.4,0.4-0.6,0.5c-0.2,0-0.4,0-0.5,0h-7.7h-2.9c-0.5,0-1.1,0-1.8,0.1
		c-0.7,0.1-1.2,0.2-1.6,0.5c-0.3,0.1-0.6,0.4-0.9,0.9c-0.3,0.4-0.2,0.9,0.2,1.5c0.4,0.6,0.9,1.1,1.5,1.5c0.6,0.4,1.2,0.8,1.9,0.9
		c0.7,0.2,1.1,0.2,1.3,0c0.3-0.3,0.7-0.8,1.1-1.3c0.4-0.5,0.7-1.1,1-1.6c0.2-0.3,0.4-0.3,0.6,0c0,0.1,0,0.1,0,0.1
		c0,0,0.1,0.1,0.1,0.2c0.4,0.7,0.9,1.3,1.4,1.8c0.6,0.5,1.1,0.9,1.6,1.2c0.5,0.3,1,0.4,1.5,0.3c0.5,0,0.8-0.3,1-0.8
		c0.1-0.5-0.2-1-0.9-1.5c-0.7-0.5-1.4-0.7-2-0.6c-0.3,0-0.5,0-0.4,0c0.1,0,0.2-0.1,0.3-0.2l2-1.9c0.1-0.1,0.2-0.2,0.3-0.2
		c0.1,0,0.2,0,0.3-0.1c0.5-0.1,0.9,0,1.4,0.2c0.5,0.2,0.9,0.4,1.2,0.7c0.3,0.3,0.6,0.6,0.9,0.9c0.2,0.3,0.4,0.6,0.4,0.9
		c0,0.4-0.2,0.8-0.6,1.2l-4.3,3.9c-1,0.9-2.1,1.1-3.4,0.4c-1.3-0.7-2.3-1.6-3-2.7l-1.8,2.3c-0.3,0.4-0.7,0.6-1.2,0.6
		c-0.6,0-1.2-0.1-1.8-0.4c-0.6-0.3-1.3-0.7-1.9-1.2c-0.6-0.5-1.1-1-1.5-1.5c-0.4-0.5-0.6-1.1-0.6-1.8c0-0.7,0.2-1.3,0.8-1.9l4.1-4.5
		c0.4-0.5,0.9-0.9,1.5-1.2c0.6-0.4,1.3-0.5,2.1-0.5h2.2h11C278.6,24.3,278.7,24.4,278.4,24.7z"/>
	<path class="st1" d="M283,47.9c-0.1-0.3,0-0.6,0.2-0.8l5-3.4c0.5-0.2,0.7-0.1,0.7,0.2v9.8V76c0.1,0.5,0.1,1,0,1.6
		c-0.1,0.6-0.2,1.1-0.4,1.4c-0.1,0.8,0.2,1.3,1,1.5c0.8,0.2,1.6,0.1,2.4,0c0.3-0.1,0.7-0.2,1-0.2c0.3,0,0.3,0.2,0,0.6l-3.6,3.7
		c-0.2,0.2-0.4,0.3-0.7,0.4s-0.5,0.1-0.7,0.1c-0.6,0-1.2-0.1-2-0.4c-0.7-0.3-1.3-0.6-1.9-1c-0.5-0.4-1-1-1.3-1.6
		c-0.3-0.6-0.4-1.3-0.2-2c0.1-0.5,0.2-1.2,0.3-1.9c0.1-0.7,0.1-1.3,0.1-1.8V47.9z"/>
	<path class="st1" d="M319.4,48.5l5-4.7c0.5-0.3,0.7-0.3,0.7,0.2v35.4c0.1,0.3,0,0.5-0.2,0.7l-6.1,4.7c-0.5,0.3-0.7,0.2-0.7-0.2
		L312,54.8l-5.1,24.3l-4.5,5.5c-0.5,0.5-1,0.5-1.5-0.2c-0.6-0.7-1.1-1.5-1.6-2.5c-0.6-1.2-1.1-2.7-1.4-4.4c-0.3-1.7-0.3-3.6,0-5.5
		l3.1-21.6c0-0.4-0.2-0.7-0.6-1c-0.4-0.2-0.9-0.4-1.4-0.5c-0.5-0.1-1.1-0.1-1.6-0.1c-0.6,0-1,0.1-1.4,0.2c-0.3,0.1-0.7,0.2-1,0.1
		c-0.3-0.1-0.3-0.3,0-0.7l2.9-4.3c0.2-0.3,0.4-0.4,0.7-0.4c0.3,0,0.5-0.1,0.8-0.1c0.8,0,1.6,0.1,2.4,0.4c0.8,0.2,1.5,0.6,2.2,1
		c0.7,0.5,1.2,1.1,1.5,1.8c0.3,0.7,0.5,1.6,0.4,2.7l-1.8,19.4c-0.1,0.4-0.1,0.8-0.1,1.1c0,0.4,0,0.8,0,1.2l5.6-23.3
		c0-0.1,0.2-0.3,0.5-0.7c0.3-0.4,0.7-0.8,1.2-1.2c0.4-0.4,0.8-0.8,1.2-1.2c0.4-0.4,0.6-0.6,0.8-0.8c0.1-0.2,0.3-0.3,0.5-0.4
		c0.2-0.1,0.3,0.1,0.4,0.4l5.3,27.2v-22C319.1,48.9,319.2,48.7,319.4,48.5z"/>
	<path class="st1" d="M324.6,32.5l-3.3,3.2c-0.2,0.1-0.4,0-0.7-0.3c0-0.1-0.1-0.3-0.2-0.4c-0.6-1.1-1.6-2.2-3.1-3.2s-3-1.8-4.6-2.4
		c-1.6-0.6-3.1-0.9-4.5-1c-1.4-0.1-2.2,0.2-2.4,0.9c-0.1,0.4-0.1,0.8,0.2,1.2c0.3,0.4,0.7,0.9,1.2,1.2c0.5,0.4,1,0.7,1.6,1
		c0.6,0.3,1.1,0.4,1.5,0.4c0.4,0.1,0.6,0.1,0.5,0.2c-0.1,0.1-0.2,0.2-0.3,0.3l-3,2.2c-0.3,0.2-0.7,0.3-1,0.2c-1.1-0.1-2-0.3-2.7-0.6
		c-0.7-0.4-1.3-0.8-1.8-1.3s-0.9-1-1.1-1.6c-0.2-0.5-0.4-1-0.4-1.4c0-0.6,0.2-1.1,0.7-1.4l6.8-5c0.9-0.6,2.1-0.8,3.8-0.6
		c1.7,0.2,3.4,0.7,5.1,1.4c1.7,0.7,3.3,1.6,4.8,2.7c1.5,1,2.5,2,3,3c0.3,0.4,0.4,0.7,0.3,0.8C324.9,32.2,324.8,32.3,324.6,32.5z"/>
	<path class="st1" d="M319.4,8.5l4.9-4.7c0.4-0.3,0.6-0.2,0.7,0.1V14c0,0.3-0.1,0.6-0.3,0.8l-4.8,4.7c-0.5,0.2-0.7,0.1-0.8-0.2V9.2
		C319.1,8.9,319.2,8.6,319.4,8.5z"/>
	<path class="st1" d="M349.1,48.5l4.9-4.7c0.5-0.3,0.7-0.3,0.7,0.2v35.3c0,0.4-0.1,0.6-0.3,0.7l-4.2,4.1l-0.6,0.6
		c-0.5,0.3-0.7,0.3-0.8-0.1c-0.2-1.1-0.7-2.3-1.6-3.6c-0.9-1.3-1.8-2.4-2.9-3.3c-1-1-2-1.7-3-2.3c-0.9-0.6-1.5-0.7-1.8-0.4l-0.5,0.4
		v5.4c0.1,0.3,0,0.5-0.3,0.8l-5,3.3c-0.4,0.3-0.7,0.3-0.8-0.2c-0.3-1.4-0.6-2.7-1-4c-0.4-1.3-1.1-2.3-2-3.1
		c-0.5-0.3-0.4-0.7,0.2-1.1l2.8-1.6v-23c0-0.5,0-0.9,0.1-1.2c0.1-0.3,0.2-0.7,0.4-1c0.1-0.8-0.2-1.3-1-1.5c-0.8-0.2-1.6-0.2-2.4,0.1
		c-0.3,0.1-0.7,0.1-1,0.1c-0.3,0-0.3-0.1,0-0.5l3.6-3.7c0.3-0.3,0.8-0.5,1.4-0.5s1.2,0.1,1.9,0.4c0.7,0.3,1.3,0.6,1.9,1
		c0.5,0.4,1,1,1.2,1.5c0.3,0.6,0.4,1.3,0.1,2c-0.3,0.9-0.4,1.9-0.4,3l0.2,20l1.4-0.7c1.1-0.7,2-1,2.9-0.9c0.8,0.1,1.6,0.3,2.2,0.8
		c0.6,0.5,1.2,1,1.8,1.7c0.5,0.6,1,1.2,1.5,1.6V49.2C348.8,48.9,348.9,48.7,349.1,48.5z"/>
	<path class="st1" d="M378.8,48.5l4.9-4.7c0.5-0.3,0.7-0.3,0.7,0.2v35.3c0,0.4-0.1,0.6-0.3,0.7l-4.2,4.1l-0.6,0.6
		c-0.5,0.3-0.7,0.3-0.8-0.1c-0.2-1.1-0.7-2.3-1.6-3.6c-0.9-1.3-1.8-2.4-2.9-3.3c-1-1-2-1.7-3-2.3c-0.9-0.6-1.5-0.7-1.8-0.4l-0.5,0.4
		v5.4c0.1,0.3,0,0.5-0.3,0.8l-5,3.3c-0.4,0.3-0.7,0.3-0.8-0.2c-0.3-1.4-0.6-2.7-1-4c-0.4-1.3-1.1-2.3-2-3.1
		c-0.5-0.3-0.4-0.7,0.2-1.1l2.8-1.6v-23c0-0.5,0-0.9,0.1-1.2c0.1-0.3,0.2-0.7,0.4-1c0.1-0.8-0.2-1.3-1-1.5c-0.8-0.2-1.6-0.2-2.4,0.1
		c-0.3,0.1-0.7,0.1-1,0.1c-0.3,0-0.3-0.1,0-0.5l3.6-3.7c0.3-0.3,0.8-0.5,1.4-0.5s1.2,0.1,1.9,0.4c0.7,0.3,1.3,0.6,1.9,1
		c0.5,0.4,1,1,1.2,1.5c0.3,0.6,0.4,1.3,0.1,2c-0.3,0.9-0.4,1.9-0.4,3l0.2,20l1.4-0.7c1.1-0.7,2-1,2.9-0.9c0.8,0.1,1.6,0.3,2.2,0.8
		c0.6,0.5,1.2,1,1.8,1.7c0.5,0.6,1,1.2,1.5,1.6V49.2C378.5,48.9,378.6,48.7,378.8,48.5z"/>
	<path class="st1" d="M398.3,49.5h-8.5c-0.6-0.1-0.7-0.4-0.4-0.9L393,44c0.3-0.3,0.6-0.4,0.9-0.4h9.4c0.6,0,0.9,0.3,0.9,0.8v34.9
		c0,0.3-0.1,0.6-0.3,0.8l-4.9,4.7c-0.4,0.2-0.6,0.1-0.7-0.2V49.5z"/>
	<path class="st1" d="M412.3,59c-0.1-1.7-0.4-3.1-0.9-4.2c-0.5-1.1-1.4-1.7-2.9-1.8c-0.7-0.1-0.8-0.4-0.5-0.9l7-8.1
		c0.3-0.3,0.6-0.4,0.9-0.4h17.9c0.6,0,0.9,0.3,0.9,0.8v33.5c0,0.3,0,0.6,0,0.8c0,0.2-0.2,0.4-0.4,0.6l-4.5,5.4
		c-0.3,0.3-0.5,0.4-0.7,0.2c-0.2-0.2-0.3-0.4-0.3-0.7V49.4h-14.9l-0.7,0.8c1.1,0.3,2,0.8,2.6,1.5c0.6,0.6,1.1,1.3,1.5,2
		c0.3,0.7,0.6,1.5,0.7,2.3s0.2,1.5,0.3,2.1v21c0,0.4-0.1,0.6-0.3,0.7l-4.8,5c-0.2,0.1-0.4,0.2-0.6,0c-0.2-0.1-0.3-0.2-0.3-0.4V59z"
		/>
	<path class="st1" d="M455.3,48.5l4.9-4.7c0.4-0.3,0.6-0.2,0.7,0.1v33.4c0,0.5-0.2,1-0.7,1.5l-6.5,5.4c-0.3,0.2-0.5,0.3-0.6,0.4
		c-0.1,0.1-0.4,0.2-0.9,0.3c-2.3,0.3-4.3,0-6-0.9c-1.6-0.9-2.9-2.1-3.9-3.8c-0.9-1.6-1.5-3.4-1.8-5.3c-0.2-2-0.1-3.9,0.5-5.7
		l6.2-18.9c0.1-0.1,0-0.3-0.2-0.5c-0.2-0.2-0.5-0.3-0.8-0.5c-0.3-0.2-0.7-0.3-1-0.4c-0.3-0.1-0.5-0.1-0.7-0.1v5.4
		c0,0.3-0.1,0.5-0.3,0.7l-4.2,4.7c-0.5,0.2-0.7,0.1-0.8-0.2V49.4c0-0.3,0.1-0.5,0.3-0.7l3.9-4.6c0.1-0.3,0.3-0.4,0.6-0.4
		c0.3,0,0.5-0.1,0.8-0.1c0.8,0,1.7,0.1,2.7,0.4c1,0.2,1.8,0.6,2.6,1c0.8,0.5,1.4,1.1,1.8,1.8c0.4,0.7,0.5,1.6,0.2,2.7l-4.9,18.4
		c-0.3,1.3-0.4,2.6-0.2,4c0.1,1.4,0.4,2.8,0.8,4c0.4,1.2,1,2.3,1.8,3.1c0.8,0.8,1.7,1.3,2.8,1.4c1.2,0.2,2.1-0.3,2.7-1.6V49.2
		C455,48.9,455.1,48.6,455.3,48.5z"/>
	<path class="st1" d="M460.4,33.2l-3.3,3.1c-0.1,0.1-0.2,0.2-0.3,0.2c-0.1,0-0.2-0.2-0.3-0.5l-0.2-0.4c-0.6-1.1-1.7-2.2-3.2-3.1
		c-1.5-1-3-1.8-4.6-2.4c-1.6-0.6-3.1-0.9-4.5-1c-1.4-0.1-2.2,0.2-2.5,0.9c-0.1,0.3,0,0.7,0.2,1.2s0.7,0.8,1.2,1.2
		c0.5,0.4,1,0.7,1.6,1c0.6,0.3,1.1,0.4,1.5,0.5c0.4,0.1,0.6,0.1,0.5,0.1c-0.1,0-0.2,0.1-0.3,0.2l-3,2.2c-0.3,0.2-0.7,0.3-1,0.3
		c-1.1-0.1-2-0.3-2.7-0.6c-0.7-0.4-1.3-0.8-1.8-1.3s-0.9-1-1.1-1.5c-0.2-0.5-0.4-1-0.4-1.4c0-0.5,0.2-1,0.7-1.5l6.8-4.9
		c0.7-0.5,1.6-0.8,2.8-0.8c1.2,0,2.4,0.2,3.8,0.7c0-0.1,0-0.2,0.1-0.3c0-0.3,0.1-0.6,0.4-0.9l3.7-3.4c0.7-0.5,1.3-0.6,2-0.5
		c0.6,0.2,1.2,0.5,1.8,1.1c0.6,0.5,1,1.1,1.5,1.8c0.4,0.7,0.7,1.3,0.9,2c0.1,0.5,0.2,0.8,0.1,1.1c-0.1,0.3-0.2,0.5-0.5,0.7l-2.4,2.1
		c1.4,1,2.3,1.9,2.7,2.8c0.3,0.4,0.4,0.7,0.3,0.8C460.7,32.8,460.6,33,460.4,33.2z M457.4,27c0.1-0.5-0.1-1-0.4-1.5
		c-0.3-0.5-0.7-1-1.1-1.4c-0.4-0.4-0.9-0.6-1.3-0.7s-0.8,0.2-1.1,0.7c-0.1,0.5,0.1,1,0.4,1.6s0.7,1,1.1,1.4c0.4,0.4,0.9,0.6,1.3,0.7
		C456.8,27.8,457.1,27.5,457.4,27z"/>
	<path class="st1" d="M455.9,13.5c1.9,0,3.3,0,4.1,0c0.8,0,1.5,0,2,0c0.6,0,1.2,0,2,0c0.8,0,2.2,0,4.2,0c0.4,0,0.4,0.2,0.1,0.7
		l-4.7,4.8c-0.2,0.2-0.4,0.3-0.7,0.3c-2,0-3.4,0-4.2,0c-0.8,0-1.5,0-2,0c-0.5,0-1.2,0-2-0.1c-0.8,0-2.2,0-4.2,0
		c-0.2,0-0.3-0.1-0.3-0.2H450v-4.3c-0.1-0.5,0-0.9,0-1.2c0.1-0.3,0.2-0.7,0.4-1c0.1-0.8-0.2-1.3-1-1.4c-0.8-0.2-1.6-0.2-2.3,0
		c-0.4,0.1-0.8,0.2-1,0.2s-0.3-0.2,0-0.6l3.6-3.7c0.3-0.3,0.8-0.5,1.4-0.5c0.6,0,1.2,0.1,2,0.4c0.7,0.3,1.3,0.6,1.9,1
		c0.5,0.4,0.9,1,1.2,1.6c0.3,0.6,0.3,1.3,0.1,2c-0.1,0.3-0.2,0.6-0.2,0.9C456,12.9,456,13.2,455.9,13.5z"/>
	<path class="st1" d="M491.8,79.3c0.3,0.3,0.5,0.6,0.5,0.8c0,0.2-0.2,0.4-0.3,0.5l-3.6,4c-0.2,0.2-0.4,0.4-0.5,0.5
		c-0.1,0.1-0.4,0-0.7-0.5c-0.5-0.6-1.1-1.2-1.8-1.8c-0.7-0.6-1.5-1.2-2.3-1.7c-0.8-0.5-1.7-0.8-2.7-0.8c-0.9-0.1-1.9,0.1-2.9,0.5
		c-0.7,0.3-1.6,0.9-2.6,1.5c-1,0.7-2.2,1.6-3.5,2.7c-0.2,0.1-0.5,0-0.8-0.2c-0.4-0.3-0.8-0.7-1.2-1.2c-0.4-0.5-0.8-0.9-1.1-1.4
		c-0.3-0.5-0.5-0.9-0.6-1.2c-0.5-1.2-0.7-2.5-0.8-4c-0.1-1.5,0-3,0.3-4.5l3.1-21.9c0-0.5-0.2-0.8-0.6-1c-0.4-0.2-0.9-0.4-1.4-0.5
		c-0.5-0.1-1.1-0.1-1.7-0.1c-0.6,0-1,0.1-1.5,0.2c-0.3,0.1-0.7,0.2-1,0.1c-0.3-0.1-0.3-0.3,0-0.6l2.9-4.4c0.2-0.3,0.4-0.4,0.7-0.4
		c0.3,0,0.5-0.1,0.8-0.1c0.8,0,1.6,0.1,2.4,0.3c0.8,0.2,1.5,0.5,2.1,1c0.6,0.5,1.1,1.1,1.5,1.8c0.4,0.8,0.5,1.7,0.5,2.8l-1.8,21.6
		c-0.2,2.1-0.2,3.9-0.2,5.5c0.1,1.6,0.7,2.8,1.9,3.5c0.5-0.3,1.1-0.7,1.9-1.2c0.8-0.5,1.6-1.1,2.5-1.6c0.8-0.5,1.6-0.9,2.4-1.2
		c0.8-0.3,1.4-0.4,1.9-0.2V49.1c0-0.3,0.1-0.5,0.3-0.7l4.9-4.7c0.4-0.2,0.6-0.1,0.7,0.2v27c0,0.3-0.1,0.6-0.3,0.8l-4.4,4.2
		c1.3,0.1,2.5,0.5,3.7,1.1S490.8,78.4,491.8,79.3z"/>
	<path class="st1" d="M517,47.9c-0.1-0.3,0-0.6,0.2-0.8l5-3.4c0.5-0.2,0.7-0.1,0.7,0.2v9.8V76c0.1,0.5,0.1,1,0,1.6
		c-0.1,0.6-0.2,1.1-0.3,1.4c-0.1,0.8,0.2,1.3,1,1.5c0.8,0.2,1.6,0.1,2.4,0c0.3-0.1,0.7-0.2,1-0.2c0.3,0,0.3,0.2,0,0.6l-3.6,3.7
		c-0.2,0.2-0.4,0.3-0.7,0.4s-0.5,0.1-0.7,0.1c-0.6,0-1.2-0.1-2-0.4c-0.7-0.3-1.3-0.6-1.9-1c-0.5-0.4-1-1-1.3-1.6
		c-0.3-0.6-0.4-1.3-0.2-2c0.1-0.5,0.2-1.2,0.3-1.9s0.1-1.3,0.1-1.8V47.9z"/>
	<path class="st1" d="M553.4,48.5l5-4.7c0.5-0.3,0.7-0.3,0.7,0.2v35.4c0.1,0.3,0,0.5-0.2,0.7l-6.1,4.7c-0.5,0.3-0.7,0.2-0.7-0.2
		L546,54.8l-5.1,24.3l-4.5,5.5c-0.5,0.5-1,0.5-1.5-0.2c-0.6-0.7-1.1-1.5-1.6-2.5c-0.6-1.2-1.1-2.7-1.4-4.4c-0.3-1.7-0.3-3.6,0-5.5
		l3.1-21.6c0-0.4-0.2-0.7-0.6-1c-0.4-0.2-0.9-0.4-1.4-0.5c-0.5-0.1-1.1-0.1-1.6-0.1c-0.6,0-1,0.1-1.5,0.2c-0.3,0.1-0.7,0.2-1,0.1
		c-0.3-0.1-0.3-0.3,0-0.7l2.9-4.3c0.2-0.3,0.4-0.4,0.7-0.4c0.3,0,0.5-0.1,0.8-0.1c0.8,0,1.6,0.1,2.4,0.4c0.8,0.2,1.5,0.6,2.2,1
		c0.7,0.5,1.2,1.1,1.5,1.8c0.3,0.7,0.5,1.6,0.4,2.7l-1.8,19.4c-0.1,0.4-0.1,0.8-0.1,1.1c0,0.4,0,0.8,0,1.2l5.6-23.3
		c0-0.1,0.2-0.3,0.5-0.7c0.3-0.4,0.7-0.8,1.2-1.2c0.4-0.4,0.8-0.8,1.2-1.2c0.4-0.4,0.6-0.6,0.8-0.8c0.1-0.2,0.3-0.3,0.5-0.4
		c0.2-0.1,0.3,0.1,0.4,0.4l5.3,27.2v-22C553.1,48.9,553.2,48.7,553.4,48.5z"/>
	<path class="st1" d="M564.5,77.6l3.5-2.5c0.5-0.5,0.9-0.6,1.1-0.4s0.5,0.6,0.9,1.1c0.7,0.9,1.6,1.7,2.6,2.4c1,0.7,2,1.1,3,1.4
		c1,0.3,1.8,0.3,2.6,0.2c0.8-0.1,1.3-0.5,1.6-1.2V61.7c0-1-0.7-1.9-2-2.8c-1.3-0.9-2.9-1.6-4.6-2.2c-1.8-0.6-3.5-1.1-5.2-1.5
		c-1.7-0.4-3-0.6-3.7-0.7c-0.7,0-0.9-0.3-0.5-0.9l7.9-9.6c0.3-0.3,0.6-0.4,0.9-0.4H589c0.6,0.1,0.8,0.4,0.5,0.9l-3.7,4.6
		c-0.3,0.3-0.6,0.4-0.9,0.4h-14.4l-0.5,0.8c1.3,0.1,2.8,0.4,4.6,0.9c1.8,0.5,3.5,1,5.2,1.6c1.6,0.6,3,1.4,4.2,2.2
		c1.2,0.9,1.8,1.8,1.8,2.7v19.3c0,0.3-0.1,0.6-0.2,0.8c-0.1,0.2-0.3,0.4-0.5,0.6l-6.5,5.5c-0.3,0.2-0.5,0.3-0.6,0.4
		c-0.1,0.1-0.4,0.2-0.9,0.3c-2.9,0.5-5.5,0.2-7.6-1c-2.2-1.2-3.9-2.9-5.2-5.1c-0.1-0.3-0.2-0.5-0.1-0.6
		C564.2,77.8,564.4,77.7,564.5,77.6z"/>
	<path class="st1" d="M599.7,49.5h-8.5c-0.6-0.1-0.7-0.4-0.4-0.9l3.6-4.6c0.3-0.3,0.6-0.4,0.9-0.4h9.4c0.6,0,0.9,0.3,0.9,0.8v34.9
		c0,0.3-0.1,0.6-0.3,0.8l-4.9,4.7c-0.4,0.2-0.6,0.1-0.7-0.2V49.5z"/>
	<path class="st1" d="M623.4,56.3h-2.5l-2.5,0.5c-2,0-3.6-0.6-4.9-1.7c-1.3-1.1-1.9-2.3-1.9-3.5c0-0.7,0.2-1.2,0.5-1.5l3.7-3.6
		c0.4-0.3,0.6-0.2,0.5,0c0,0.3-0.1,0.6-0.2,1c-0.2,0.8-0.1,1.5,0.3,2.2s1.1,1.1,2,1.2l2.7-0.4h7.6c0.4,0,0.4,0.2,0.1,0.7l-4.7,4.9
		C624,56.4,623.7,56.4,623.4,56.3z M623.4,76.6h-2.5l-2.5,0.5c-2,0-3.6-0.6-4.9-1.7c-1.3-1.1-1.9-2.3-1.9-3.6c0-0.2,0-0.4,0.1-0.7
		c0.1-0.3,0.2-0.5,0.4-0.7l3.7-3.6c0.4-0.3,0.6-0.3,0.5,0c0,0.3-0.1,0.7-0.2,1c-0.2,0.8-0.1,1.5,0.3,2.2c0.4,0.7,1.1,1.1,2,1.2
		l2.7-0.5h7.6c0.4,0.1,0.4,0.3,0.1,0.8l-4.7,4.8C624,76.6,623.7,76.7,623.4,76.6z"/>
</g>
<g class="st0">
	<path class="st1" d="M144.4,169.3c0.3,0.3,0.5,0.6,0.5,0.8c0,0.2-0.2,0.4-0.4,0.5l-3.6,4c-0.2,0.2-0.4,0.4-0.5,0.5
		c-0.1,0.1-0.4,0-0.7-0.5c-0.5-0.6-1.1-1.2-1.8-1.8c-0.7-0.6-1.5-1.2-2.3-1.7c-0.8-0.5-1.7-0.8-2.6-0.8c-0.9-0.1-1.9,0.1-2.9,0.5
		c-0.7,0.3-1.6,0.9-2.6,1.5c-1,0.7-2.2,1.6-3.5,2.7c-0.2,0.1-0.5,0-0.9-0.2c-0.4-0.3-0.8-0.7-1.1-1.2c-0.4-0.5-0.8-0.9-1.1-1.4
		c-0.3-0.5-0.5-0.9-0.6-1.2c-0.5-1.2-0.7-2.5-0.8-4c-0.1-1.5,0-3,0.3-4.5l3.1-21.9c0-0.5-0.2-0.8-0.6-1c-0.4-0.2-0.9-0.4-1.4-0.5
		c-0.5-0.1-1.1-0.1-1.6-0.1c-0.6,0-1,0.1-1.5,0.2c-0.3,0.1-0.7,0.2-1,0.1c-0.3-0.1-0.3-0.3,0-0.6l2.9-4.4c0.2-0.3,0.4-0.4,0.7-0.4
		c0.3,0,0.5-0.1,0.8-0.1c0.8,0,1.6,0.1,2.4,0.3c0.8,0.2,1.5,0.5,2.1,1c0.6,0.5,1.1,1.1,1.5,1.8c0.4,0.8,0.5,1.7,0.5,2.8l-1.8,21.6
		c-0.2,2.1-0.2,3.9-0.1,5.5c0.1,1.6,0.7,2.8,1.9,3.5c0.5-0.3,1.1-0.7,1.9-1.2c0.8-0.5,1.6-1.1,2.5-1.6c0.8-0.5,1.6-0.9,2.4-1.2
		c0.8-0.3,1.4-0.4,1.9-0.2v-26.8c0-0.3,0.1-0.5,0.3-0.7l4.9-4.7c0.4-0.2,0.6-0.1,0.7,0.2v27c0,0.3-0.1,0.6-0.3,0.8l-4.4,4.2
		c1.3,0.1,2.5,0.5,3.7,1.1C142.3,167.6,143.4,168.4,144.4,169.3z"/>
	<path class="st1" d="M144.7,127.6h-8.6l-2.5,0.4c-2.1,0.1-3.7-0.5-5-1.6c-1.2-1.1-1.8-2.3-1.8-3.6c0-0.3,0-0.5,0-0.8
		c0-0.2,0.2-0.5,0.5-0.6l3.6-3.6c0.4-0.3,0.6-0.3,0.6,0c0,0.3-0.1,0.7-0.2,1c-0.2,0.7-0.1,1.5,0.3,2.2s1.1,1.1,2,1.2l2.7-0.5H150
		c0.3,0.1,0.4,0.3,0.2,0.8l-4.7,4.8C145.3,127.5,145,127.6,144.7,127.6z"/>
	<path class="st1" d="M150.2,149c-0.1-1.7-0.4-3.1-0.9-4.2c-0.5-1.1-1.4-1.7-2.9-1.8c-0.7-0.1-0.8-0.4-0.5-0.9l7-8.1
		c0.3-0.3,0.6-0.4,0.9-0.4h17.9c0.6,0,0.9,0.3,0.9,0.8v33.5c0,0.3,0,0.6,0,0.8c0,0.2-0.2,0.4-0.4,0.6l-4.5,5.4
		c-0.3,0.3-0.5,0.4-0.7,0.2c-0.2-0.2-0.3-0.4-0.3-0.7v-34.8h-14.9l-0.7,0.8c1.1,0.3,2,0.8,2.6,1.5c0.6,0.6,1.1,1.3,1.5,2
		c0.3,0.7,0.6,1.5,0.7,2.3s0.2,1.5,0.3,2.1v21c0,0.4-0.1,0.6-0.3,0.7l-4.8,5c-0.2,0.1-0.4,0.2-0.6,0c-0.2-0.1-0.3-0.2-0.3-0.4V149z"
		/>
	<path class="st1" d="M182.9,174.1l-0.7,0.6l-0.4,0.2c-0.4,0.1-0.6,0-0.6-0.3c-0.7-1.9-1.2-3.6-1.7-5.1c-0.5-1.5-0.8-2.9-1-4.2
		c-0.2-1.3-0.3-2.7-0.2-4.2c0-1.4,0.2-3.1,0.5-5c0.3-1.9,0.7-4.1,1.2-6.6c0.6-2.5,1.2-5.5,1.9-9.1c0.1-0.5-0.1-0.8-0.4-1.1
		c-0.4-0.2-0.8-0.4-1.4-0.5c-0.6-0.1-1.2-0.1-1.8,0c-0.6,0.1-1.1,0.1-1.5,0.2c-0.3,0.1-0.7,0.2-1,0.1c-0.3-0.1-0.3-0.3,0-0.7
		l3.4-4.4c0.1-0.2,0.3-0.3,0.6-0.3c0.3,0,0.5-0.1,0.8-0.1c0.7,0,1.5,0.1,2.3,0.3c0.8,0.2,1.5,0.5,2.2,1c0.6,0.5,1.1,1.1,1.5,1.9
		c0.4,0.8,0.4,1.8,0.2,2.9l-2.4,15.7c-0.1,1.1-0.1,2.1,0,3c0.1,1,0.2,1.8,0.4,2.5c0.2,0.7,0.4,1.3,0.6,1.8c0.2,0.4,0.3,0.6,0.3,0.5
		l5.6-23.9c0-0.3,0.1-0.5,0.3-0.7l3.4-4.5c0.2-0.5,0.6-0.6,1.1-0.5c0.7,0.1,1.3,0.4,2,0.9c0.6,0.5,1.2,1,1.8,1.7
		c0.5,0.7,1,1.4,1.4,2.1c0.4,0.7,0.5,1.4,0.5,2.1v27.3c-0.1,0.7-0.3,1.3-0.7,1.7l-4.2,5.1c-0.3,0.3-0.5,0.4-0.7,0.2
		c-0.2-0.2-0.3-0.4-0.3-0.8v-0.6v-32.8l-0.3-0.8l-6.8,28.5L182.9,174.1z"/>
	<path class="st1" d="M195.8,115.1l4.9-4.7c0.4-0.3,0.6-0.2,0.7,0.1v10.1c0,0.3-0.1,0.6-0.3,0.8l-4.8,4.7c-0.5,0.2-0.7,0.1-0.8-0.2
		v-10.1C195.5,115.5,195.6,115.2,195.8,115.1z"/>
	<path class="st1" d="M207.3,164.3V147c0.1-0.3,0.1-0.6,0.2-0.8s0.2-0.4,0.4-0.6l3.9-3.1c0.3-0.3,0.6-0.4,0.7-0.4
		c0.1,0,0.4,0,0.7-0.1c0.9,0,2.2,0.2,3.7,0.5c1.5,0.3,2.9,0.9,4.2,1.8c0.5,0.3,0.6,0.6,0.5,0.8c-0.1,0.2-0.2,0.4-0.5,0.5l-2.8,2.9
		c-0.2,0.2-0.4,0.2-0.5,0c-0.1-0.2-0.3-0.4-0.8-0.6c-0.4-0.3-0.8-0.5-1.3-0.8c-0.5-0.3-0.9-0.4-1.3-0.5c-0.4-0.1-0.7-0.1-1,0
		c-0.3,0.1-0.4,0.5-0.4,1.1V163c0.1,1.4,0.7,2.7,1.7,3.8s2.1,1.9,3.3,2.5c1.2,0.6,2.4,0.8,3.5,0.8c1.1,0,1.9-0.5,2.2-1.2v-29.4
		h-14.4c-0.7,0-0.8-0.3-0.4-0.9l3.6-4.6c0.2-0.2,0.5-0.3,0.9-0.3h15.2c0.7-0.1,1,0.1,1,0.7v33c0,0.6-0.2,1.1-0.6,1.5l-6.6,5.4
		c-0.3,0.2-0.6,0.3-0.7,0.5c-0.1,0.1-0.4,0.2-0.9,0.2c-1.7,0.2-3.4,0.1-5-0.4c-1.6-0.4-3-1.1-4.3-2c-1.3-0.9-2.3-2.1-3.1-3.5
		C207.8,167.6,207.4,166,207.3,164.3z"/>
	<path class="st1" d="M255.8,141.2v26.2c0,0.5-0.2,1-0.7,1.5l-5.8,5.4c-0.3,0.3-0.6,0.4-1,0.5c-0.4,0.1-0.8,0.1-1.2,0.2
		c-1.9,0.1-3.6-0.1-5.2-0.7c-1.6-0.6-3-1.5-4.2-2.6c-1.2-1.1-2-2.5-2.5-4c-0.5-1.5-0.6-3.2-0.2-4.9l3.6-17.4
		c0.1-0.3,0.3-0.9,0.6-1.6c0.3-0.7,0.7-1.4,1.1-2c0.4-0.6,0.7-0.9,0.9-1.1c0.3-0.2,0.4,0.1,0.3,0.8l-1.9,21.4
		c-0.1,1.3,0.4,2.5,1.2,3.7c0.9,1.2,2,2.2,3.2,2.9c1.2,0.7,2.4,1.1,3.5,1.1c1.2,0,2-0.6,2.5-1.7v-27.2c-0.1-0.5-0.1-0.9,0-1.2
		s0.2-0.6,0.4-1c0.1-0.8-0.2-1.3-1-1.5c-0.8-0.2-1.6-0.1-2.3,0c-0.4,0.1-0.8,0.2-1,0.2s-0.3-0.2,0-0.6l3.6-3.7
		c0.2-0.2,0.4-0.3,0.6-0.3c0.2,0,0.5-0.1,0.8-0.1c0.6,0.1,1.2,0.2,2,0.5c0.7,0.2,1.3,0.6,1.9,1c0.5,0.4,0.9,1,1.2,1.5
		c0.3,0.6,0.4,1.3,0.1,2c-0.1,0.4-0.2,0.8-0.3,1.2c-0.1,0.4-0.1,0.8-0.1,1.3V141.2z"/>
	<path class="st1" d="M261.7,137.9c-0.1-0.3,0-0.6,0.2-0.8l5-3.4c0.5-0.2,0.7-0.1,0.7,0.2v9.8V166c0.1,0.5,0.1,1,0,1.6
		c-0.1,0.6-0.2,1.1-0.4,1.4c-0.1,0.8,0.2,1.3,1,1.5c0.8,0.2,1.6,0.1,2.4,0c0.3-0.1,0.7-0.2,1-0.2c0.3,0,0.3,0.2,0,0.6l-3.6,3.7
		c-0.2,0.2-0.4,0.3-0.7,0.4s-0.5,0.1-0.7,0.1c-0.6,0-1.2-0.1-2-0.4c-0.7-0.3-1.3-0.6-1.9-1c-0.5-0.4-1-1-1.3-1.6
		c-0.3-0.6-0.4-1.3-0.2-2c0.1-0.5,0.2-1.2,0.3-1.9c0.1-0.7,0.1-1.3,0.1-1.8V137.9z"/>
	<path class="st1" d="M279.2,174.1l-0.7,0.6l-0.4,0.2c-0.4,0.1-0.6,0-0.6-0.3c-0.7-1.9-1.2-3.6-1.7-5.1c-0.5-1.5-0.8-2.9-1-4.2
		c-0.2-1.3-0.3-2.7-0.2-4.2c0-1.4,0.2-3.1,0.5-5c0.3-1.9,0.7-4.1,1.2-6.6c0.6-2.5,1.2-5.5,1.9-9.1c0.1-0.5-0.1-0.8-0.4-1.1
		c-0.4-0.2-0.8-0.4-1.4-0.5c-0.6-0.1-1.2-0.1-1.8,0c-0.6,0.1-1.1,0.1-1.5,0.2c-0.3,0.1-0.7,0.2-1,0.1c-0.3-0.1-0.3-0.3,0-0.7
		l3.4-4.4c0.1-0.2,0.3-0.3,0.6-0.3c0.3,0,0.5-0.1,0.8-0.1c0.7,0,1.5,0.1,2.3,0.3c0.8,0.2,1.5,0.5,2.2,1c0.6,0.5,1.1,1.1,1.5,1.9
		c0.4,0.8,0.4,1.8,0.2,2.9l-2.4,15.7c-0.1,1.1-0.1,2.1,0,3c0.1,1,0.2,1.8,0.4,2.5c0.2,0.7,0.4,1.3,0.6,1.8c0.2,0.4,0.3,0.6,0.3,0.5
		l5.6-23.9c0-0.3,0.1-0.5,0.3-0.7l3.4-4.5c0.2-0.5,0.6-0.6,1.1-0.5c0.7,0.1,1.3,0.4,2,0.9c0.6,0.5,1.2,1,1.8,1.7
		c0.5,0.7,1,1.4,1.4,2.1c0.4,0.7,0.5,1.4,0.5,2.1v27.3c-0.1,0.7-0.3,1.3-0.7,1.7l-4.2,5.1c-0.3,0.3-0.5,0.4-0.7,0.2
		c-0.2-0.2-0.3-0.4-0.3-0.8v-0.6v-32.8l-0.3-0.8l-6.8,28.5L279.2,174.1z"/>
	<path class="st1" d="M291.4,126.6c-0.6-1.1-1.6-2.2-2.9-3.2c-1.3-1-2.7-1.8-4.1-2.4c-1.4-0.6-2.7-0.9-3.9-1
		c-1.2-0.1-1.9,0.2-2.2,0.9c-0.1,0.4,0,0.8,0.2,1.2s0.7,0.8,1.2,1.2c0.5,0.4,1,0.7,1.6,1c0.6,0.3,1.1,0.4,1.6,0.5
		c0.5,0,0.6,0,0.5,0.1c-0.1,0.1-0.2,0.2-0.4,0.3l-2.9,2.2c-0.3,0.2-0.7,0.3-1.1,0.3c-2.1-0.2-3.6-0.9-4.5-2c-0.9-1.2-1.4-2.2-1.4-3
		c0-0.3,0.1-0.6,0.2-0.8c0.1-0.2,0.3-0.4,0.5-0.6l6.7-5c0.6-0.4,1.4-0.6,2.2-0.7c0.9,0,1.9,0.1,2.9,0.3c1,0.3,2,0.7,3.1,1.2
		c1.1,0.5,2.1,1.1,3,1.8v-1.9c0-0.3,0.1-0.6,0.3-0.8l4.9-4.7c0.5-0.2,0.7-0.1,0.7,0.2v9.8v0.3c0,0.3-0.1,0.6-0.3,0.8l-4.8,4.7
		C292.1,127.8,291.7,127.5,291.4,126.6z"/>
	<path class="st1" d="M292.1,98.5l4.9-4.7c0.4-0.3,0.6-0.2,0.7,0.1V104c0,0.3-0.1,0.6-0.3,0.8l-4.8,4.7c-0.5,0.2-0.7,0.1-0.8-0.2
		V99.2C291.8,98.9,291.9,98.6,292.1,98.5z"/>
	<path class="st1" d="M310.9,134.2c0.3-0.3,0.6-0.4,0.7-0.5c0.1-0.1,0.4-0.1,0.8-0.1c0.9,0,2.1,0.3,3.5,0.9c1.4,0.6,2.7,1.3,3.9,2.2
		c0.4,0.3,0.5,0.6,0.4,0.8c-0.1,0.2-0.3,0.3-0.5,0.5l-2.7,2.9c-0.3,0.2-0.4,0.3-0.5,0.4c-0.1,0.1-0.4,0-0.8-0.3
		c-1.3-0.9-2.5-1.5-3.6-2s-2-0.5-2.6,0.1c-0.6,0.5-0.9,1.2-0.8,2c0.1,0.8,0.3,1.6,0.8,2.2c0.5,0.7,1,1.3,1.7,1.7
		c0.7,0.4,1.3,0.5,2,0.4c0.2,0,0.3,0,0.4-0.1l1-1c0.2-0.2,0.4-0.3,0.6-0.3c0.2,0.1,0.3,0.3,0.3,0.6c0,0.3-0.2,1.1-0.6,2.4
		c-0.4,1.2-1,3.1-1.9,5.6c-0.9,2.5-2,6-3.5,10.4c0.1,1.4,0.7,2.7,1.7,3.8s2.1,1.9,3.4,2.5c1.2,0.6,2.4,0.8,3.5,0.8
		c1.1,0,1.8-0.5,2.1-1.2v-29.4c0-0.3,0.1-0.6,0.3-0.7l4.9-4.7c0.5-0.3,0.7-0.3,0.7,0.1v27.1v6.1c0,0.3-0.1,0.6-0.2,0.8
		c-0.1,0.2-0.3,0.4-0.5,0.6l-6.5,5.5c-0.3,0.2-0.5,0.3-0.6,0.5c-0.2,0.1-0.5,0.2-1,0.2c-1.7,0.2-3.4,0.1-5-0.4c-1.6-0.4-3-1.1-4.2-2
		c-1.2-0.9-2.2-2.1-3-3.5c-0.8-1.4-1.2-3-1.3-4.7l7-14.6c-0.7,0.2-1.4,0.2-2.2,0.1c-1.1-0.2-2.2-0.7-3.2-1.5s-1.8-1.7-2.3-2.8
		c-0.5-1.1-0.8-2.1-0.7-3.2c0.1-1,0.7-1.9,1.8-2.6L310.9,134.2z"/>
	<path class="st1" d="M331.9,167.6l3.7-1.9c0.3-0.2,0.6-0.4,0.8-0.5c0.2-0.1,0.3,0,0.4,0.3l0.2,0.4c0.6,1.1,1.4,1.9,2.4,2.6
		c1,0.7,2.1,1.1,3.2,1.4c1.1,0.3,2,0.3,2.9,0c0.9-0.2,1.5-0.7,1.8-1.5v-29.2h-15.6c-0.7,0-0.9-0.3-0.5-0.9l3.6-4.5
		c0.3-0.3,0.6-0.4,1-0.4h16.4c0.5-0.1,0.9,0.2,1,0.8v32.7c0,0.5-0.2,1-0.7,1.5L346,174c-1,0.8-2.2,1.1-3.7,1
		c-1.5-0.1-2.9-0.5-4.4-1.2c-1.4-0.7-2.7-1.5-3.9-2.5c-1.2-1-2-1.9-2.4-2.8c-0.2-0.4-0.2-0.6-0.1-0.7
		C331.6,167.8,331.8,167.7,331.9,167.6z"/>
	<path class="st1" d="M373.9,138.5l4.9-4.7c0.4-0.3,0.6-0.2,0.7,0.1v33.4c0,0.5-0.2,1-0.7,1.5l-6.5,5.4c-0.3,0.2-0.5,0.3-0.6,0.4
		c-0.1,0.1-0.4,0.2-0.9,0.3c-2.3,0.3-4.3,0-6-0.9c-1.6-0.9-2.9-2.1-3.9-3.8c-0.9-1.6-1.5-3.4-1.8-5.3c-0.2-2-0.1-3.9,0.5-5.7
		l6.2-18.9c0.1-0.1,0-0.3-0.2-0.5c-0.2-0.2-0.5-0.3-0.9-0.5c-0.3-0.2-0.6-0.3-1-0.4c-0.3-0.1-0.5-0.1-0.6-0.1v5.4
		c0,0.3-0.1,0.5-0.3,0.7l-4.2,4.7c-0.5,0.2-0.7,0.1-0.8-0.2v-10.2c0-0.3,0.1-0.5,0.3-0.7l3.9-4.6c0.1-0.3,0.3-0.4,0.6-0.4
		c0.3,0,0.5-0.1,0.8-0.1c0.8,0,1.7,0.1,2.7,0.4c1,0.2,1.8,0.6,2.6,1c0.8,0.5,1.4,1.1,1.8,1.8c0.4,0.7,0.5,1.6,0.2,2.7l-4.9,18.4
		c-0.3,1.3-0.4,2.6-0.2,4c0.1,1.4,0.4,2.8,0.8,4c0.4,1.2,1,2.3,1.8,3.1c0.8,0.8,1.7,1.3,2.8,1.4c1.2,0.2,2.1-0.3,2.7-1.6v-29.6
		C373.6,138.9,373.7,138.6,373.9,138.5z"/>
	<path class="st1" d="M393.3,139.5h-8.5c-0.6-0.1-0.7-0.4-0.4-0.9l3.6-4.6c0.3-0.3,0.6-0.4,0.9-0.4h9.4c0.6,0,0.9,0.3,0.9,0.8v34.9
		c0,0.3-0.1,0.6-0.3,0.8l-4.9,4.7c-0.4,0.2-0.6,0.1-0.7-0.2V139.5z"/>
	<path class="st1" d="M407,153.7c0-1.1-0.2-2.1-0.8-3.1s-1-2-1.5-2.9c-0.5-1-0.8-1.9-1-2.9c-0.2-0.9,0-1.9,0.7-2.9l5.4-7.9
		c0.3-0.3,0.6-0.4,0.9-0.4h13.1c3.7,0,5.6,2.2,5.7,6.5v27.8c0,0.7-0.2,1.3-0.6,1.7l-4.4,5.1c-0.3,0.3-0.5,0.4-0.7,0.2
		c-0.2-0.2-0.2-0.4-0.2-0.8V142c-0.1-1.7-1-2.6-2.9-2.6h-11.6l-1.1,1.9c-0.5,0.9-0.5,1.8-0.2,2.5c0.4,0.8,0.9,1.5,1.6,2.3
		c0.7,0.8,1.4,1.6,2.1,2.4c0.7,0.9,1.2,1.8,1.4,2.9c0.5-0.3,0.9-0.6,1.4-0.9c0.5-0.3,0.9-0.6,1.3-0.9c0.9-0.7,1.7-1.4,2.4-2
		c0.7-0.7,1-1.2,1-1.7c0-0.4-0.5-0.6-1.5-0.5c-0.9,0-2.5,0.5-4.7,1.2c-0.3,0.1-0.5,0.1-0.5,0c-0.1-0.2,0-0.4,0.2-0.8l0.9-3.6
		c0-0.2,0-0.3,0-0.3c0,0,0.2-0.1,0.7-0.2c2.2-0.5,4-0.7,5.3-0.5c1.4,0.2,2.2,0.8,2.7,2c0.5,1.5,0.4,2.8-0.2,4
		c-0.6,1.2-1.4,2.4-2.4,3.5c-1,1.1-2.2,2.2-3.4,3.2c-1.2,1.1-2.2,2.1-3,3.2v12.1c0,0.4-0.1,0.6-0.3,0.7l-4.9,4.7
		c-0.5,0.3-0.7,0.3-0.8-0.1V153.7z"/>
	<path class="st1" d="M437.3,161.7v-9.3c0-1.1-0.2-2-0.8-2.9c-0.5-0.8-1-1.6-1.5-2.5c-0.5-0.8-0.8-1.6-1-2.4s0-1.7,0.7-2.7l5.3-8
		c0.2-0.3,0.5-0.4,1-0.4h13c3.7,0,5.6,2.2,5.7,6.5v27.8c0,0.7-0.2,1.2-0.7,1.7l-4.2,5.1c-0.3,0.3-0.5,0.4-0.7,0.2
		c-0.2-0.2-0.3-0.4-0.3-0.8V142c0-0.9-0.3-1.6-0.8-2c-0.5-0.4-1.2-0.6-2.1-0.6h-11.6l-1.2,1.9c-0.3,0.7-0.4,1.2-0.3,1.8
		c0.1,0.5,0.4,1,0.7,1.5c0.3,0.5,0.8,0.9,1.3,1.3c0.5,0.4,1,0.9,1.5,1.4c0.9-1.7,2.2-3.1,3.9-4.4c0.3-0.1,0.5-0.2,0.6-0.2
		c0.1,0,0.3-0.1,0.7-0.1c1.5-0.1,2.8,0.6,3.7,2.1c0.9,1.5,1.8,3.7,2.5,6.5c0.1,0.5,0.2,0.8,0,1c-0.1,0.1-0.2,0.2-0.3,0.3l-3.1,2.7
		c-0.3,0.3-0.6,0.5-0.8,0.6c-0.2,0.1-0.3,0-0.3-0.3c-0.5-2.9-1-4.9-1.5-6.2c-0.5-1.3-1-1.9-1.4-2c-0.4-0.1-0.8,0.3-1.2,1.1
		c-0.4,0.8-0.7,1.9-0.9,3.1v11.5c0,0.6,0,1.3,0,2.1c0,0.8,0,2.3,0,4.4c0,0.3-0.1,0.6-0.3,0.8l-4.9,4.7c-0.5,0.3-0.7,0.2-0.7-0.2
		v-12.5V161.7z"/>
	<path class="st1" d="M465.6,167.6l3.7-1.9c0.3-0.2,0.6-0.4,0.8-0.5c0.2-0.1,0.3,0,0.4,0.3l0.2,0.4c0.6,1.1,1.4,1.9,2.5,2.6
		c1,0.7,2.1,1.1,3.2,1.4c1.1,0.3,2,0.3,2.9,0c0.9-0.2,1.5-0.7,1.8-1.5v-29.2h-15.6c-0.7,0-0.9-0.3-0.5-0.9l3.6-4.5
		c0.3-0.3,0.6-0.4,1-0.4h16.4c0.5-0.1,0.9,0.2,1,0.8v32.7c0,0.5-0.2,1-0.7,1.5l-6.5,5.4c-1,0.8-2.2,1.1-3.7,1
		c-1.5-0.1-2.9-0.5-4.3-1.2c-1.4-0.7-2.7-1.5-3.9-2.5c-1.2-1-2-1.9-2.4-2.8c-0.2-0.4-0.2-0.6-0.1-0.7
		C465.3,167.8,465.5,167.7,465.6,167.6z"/>
	<path class="st1" d="M500.8,139.5h-8.5c-0.6-0.1-0.7-0.4-0.4-0.9l3.6-4.6c0.3-0.3,0.6-0.4,0.9-0.4h9.4c0.6,0,0.9,0.3,0.9,0.8v34.9
		c0,0.3-0.1,0.6-0.3,0.8l-4.9,4.7c-0.4,0.2-0.6,0.1-0.7-0.2V139.5z"/>
	<path class="st1" d="M530.8,138.5l4.9-4.7c0.5-0.3,0.7-0.3,0.7,0.2v35.3c0,0.4-0.1,0.6-0.3,0.7l-4.2,4.1l-0.6,0.6
		c-0.5,0.3-0.7,0.3-0.8-0.1c-0.2-1.1-0.7-2.3-1.6-3.6c-0.9-1.3-1.8-2.4-2.9-3.3c-1-1-2-1.7-3-2.3c-0.9-0.6-1.5-0.7-1.8-0.4l-0.5,0.4
		v5.4c0.1,0.3,0,0.5-0.3,0.8l-5,3.3c-0.4,0.3-0.7,0.3-0.8-0.2c-0.3-1.4-0.6-2.7-1-4c-0.4-1.3-1.1-2.3-2-3.1
		c-0.5-0.3-0.4-0.7,0.2-1.1l2.8-1.6v-23c0-0.5,0-0.9,0.1-1.2c0.1-0.3,0.2-0.7,0.4-1c0.1-0.8-0.2-1.3-1-1.5c-0.8-0.2-1.6-0.2-2.4,0.1
		c-0.3,0.1-0.7,0.1-1,0.1c-0.3,0-0.3-0.1,0-0.5l3.6-3.7c0.3-0.3,0.8-0.5,1.4-0.5c0.6,0,1.2,0.1,2,0.4c0.7,0.3,1.3,0.6,1.8,1
		c0.5,0.4,1,1,1.2,1.5c0.3,0.6,0.4,1.3,0.2,2c-0.3,0.9-0.4,1.9-0.4,3l0.2,20l1.4-0.7c1.1-0.7,2-1,2.8-0.9c0.8,0.1,1.6,0.3,2.2,0.8
		c0.6,0.5,1.2,1,1.8,1.7c0.5,0.6,1,1.2,1.5,1.6v-24.9C530.5,138.9,530.6,138.7,530.8,138.5z"/>
	<path class="st1" d="M541.9,167.6l3.5-2.5c0.5-0.5,0.9-0.6,1.1-0.4s0.5,0.6,0.9,1.1c0.7,0.9,1.6,1.7,2.6,2.4c1,0.7,2,1.1,3,1.4
		c1,0.3,1.8,0.3,2.6,0.2c0.8-0.1,1.3-0.5,1.6-1.2v-16.9c0-1-0.7-1.9-2-2.8c-1.3-0.9-2.9-1.6-4.6-2.2c-1.8-0.6-3.5-1.1-5.2-1.5
		c-1.7-0.4-3-0.6-3.7-0.7c-0.7,0-0.9-0.3-0.5-0.9l7.9-9.6c0.3-0.3,0.6-0.4,0.9-0.4h16.4c0.6,0.1,0.8,0.4,0.5,0.9l-3.7,4.6
		c-0.3,0.3-0.6,0.4-0.9,0.4h-14.4l-0.5,0.8c1.3,0.1,2.8,0.4,4.6,0.9c1.8,0.5,3.5,1,5.2,1.6c1.6,0.6,3,1.4,4.2,2.2
		c1.2,0.9,1.8,1.8,1.8,2.7v19.3c0,0.3-0.1,0.6-0.2,0.8c-0.1,0.2-0.3,0.4-0.5,0.6L556,174c-0.3,0.2-0.5,0.3-0.6,0.4
		c-0.1,0.1-0.4,0.2-0.9,0.3c-2.9,0.5-5.5,0.2-7.6-1c-2.2-1.2-3.9-2.9-5.2-5.1c-0.1-0.3-0.2-0.5-0.1-0.6
		C541.7,167.8,541.8,167.7,541.9,167.6z"/>
	<path class="st1" d="M565.8,127.6h-8.6l-2.5,0.4c-2.1,0.1-3.7-0.5-5-1.6c-1.2-1.1-1.8-2.3-1.8-3.6c0-0.3,0-0.5,0-0.8
		c0-0.2,0.2-0.5,0.5-0.6l3.6-3.6c0.4-0.3,0.6-0.3,0.6,0c0,0.3-0.1,0.7-0.2,1c-0.2,0.7-0.1,1.5,0.3,2.2c0.4,0.7,1.1,1.1,2,1.2
		l2.7-0.5h13.7c0.3,0.1,0.4,0.3,0.2,0.8l-4.7,4.8C566.4,127.5,566.1,127.6,565.8,127.6z"/>
	<path class="st1" d="M586.3,138.4l4.9-4.6c0.4-0.3,0.6-0.2,0.7,0.1v33.3c0,0.3-0.1,0.6-0.2,0.8c-0.1,0.2-0.3,0.4-0.5,0.7l-6.5,5.4
		c-0.3,0.2-0.5,0.3-0.6,0.4c-0.1,0.1-0.5,0.2-1,0.3c-2.3,0.3-4.4,0.2-6.2-0.4c-1.8-0.6-3.3-1.5-4.5-2.8c-1.2-1.2-2.1-2.7-2.6-4.4
		s-0.6-3.5-0.3-5.2l3.1-21.6c0.1-0.4-0.1-0.7-0.5-1c-0.4-0.2-0.9-0.4-1.4-0.5c-0.5-0.1-1.1-0.1-1.7-0.1c-0.6,0-1.1,0.1-1.5,0.2
		c-0.4,0.1-0.8,0.2-1,0.1c-0.3-0.1-0.3-0.3,0-0.7l2.9-4.3c0.1-0.3,0.3-0.4,0.6-0.4c0.3,0,0.5-0.1,0.8-0.1c0.8,0,1.6,0.1,2.5,0.3
		c0.8,0.2,1.6,0.5,2.2,1c0.6,0.5,1.1,1.1,1.5,1.8c0.4,0.8,0.5,1.7,0.5,2.8l-1.8,21.1c-0.1,1.3,0,2.6,0.4,3.7c0.4,1.1,1,2.1,1.7,3
		c0.7,0.8,1.5,1.5,2.5,2.1c1,0.6,2,0.9,3.1,1c1.3,0.1,2.2-0.4,2.7-1.6v-29.5C586,138.9,586.1,138.6,586.3,138.4z"/>
	<path class="st1" d="M610,146.6c0-0.1,0.1-0.3,0.4-0.7c0.3-0.4,0.6-0.8,0.9-1.3c0.4-0.5,0.7-0.9,1-1.3c0.3-0.4,0.5-0.8,0.6-1
		c0.1-0.2,0.3-0.3,0.5-0.4c0.2-0.1,0.3,0.1,0.3,0.4l5.1,14v-17.1c-0.1-0.3-0.1-0.5,0.2-0.8l5-4.6c0.5-0.3,0.7-0.3,0.7,0.1v35.4
		c0.1,0.3,0,0.5-0.3,0.7l-4.9,4.7c-0.5,0.3-0.7,0.3-0.8-0.1l-6.5-21.3l-4.5,17.7l-5,3.7c-0.1,0.1-0.3,0.2-0.5,0.3
		c-0.2,0.1-0.4-0.1-0.5-0.4c-0.4-0.5-0.9-1.2-1.4-2.2c-0.5-1-0.9-2.2-1.3-3.5c-0.4-1.3-0.7-2.7-1-4.1c-0.2-1.4-0.2-2.8,0-4.2
		l3.1-21.8c0.1-0.5,0.3-0.9,0.7-1.4c0.4-0.4,0.9-0.8,1.4-1.2c0.5-0.4,1.1-0.8,1.6-1.1c0.5-0.4,1-0.7,1.4-0.9
		c0.3-0.3,0.6-0.4,0.9-0.4c0.3,0,0.6-0.1,1-0.1c0.9,0,2.1,0.3,3.4,0.8c1.3,0.5,2.6,1.3,3.9,2.2c0.5,0.3,0.8,0.6,0.6,0.8
		c-0.1,0.2-0.2,0.4-0.5,0.6l-2.3,2.9c-0.2,0.2-0.3,0.3-0.4,0.4c-0.1,0-0.3-0.1-0.8-0.4c-0.7-0.4-1.5-0.8-2.2-1.2
		c-0.8-0.4-1.5-0.7-2.1-0.9c-0.6-0.2-1.2-0.3-1.6-0.3c-0.4,0-0.7,0.2-0.7,0.7l-1.3,19.4c-0.1,1.5,0,2.7,0.5,3.6
		c0.5,0.9,0.8,1.6,0.9,1.9L610,146.6z"/>
	<path class="st1" d="M624.1,122.5l-3.3,3.2c-0.2,0.1-0.4,0-0.7-0.3c0-0.1-0.1-0.3-0.2-0.4c-0.6-1.1-1.7-2.2-3.2-3.2s-3-1.8-4.6-2.4
		c-1.6-0.6-3.1-0.9-4.5-1c-1.4-0.1-2.2,0.2-2.5,0.9c-0.1,0.4,0,0.8,0.2,1.2c0.3,0.4,0.7,0.9,1.2,1.2c0.5,0.4,1,0.7,1.6,1
		c0.6,0.3,1.1,0.4,1.5,0.4c0.4,0.1,0.6,0.1,0.5,0.2c-0.1,0.1-0.2,0.2-0.3,0.3l-3,2.2c-0.3,0.2-0.7,0.3-1,0.2c-1.1-0.1-2-0.3-2.7-0.6
		c-0.7-0.4-1.3-0.8-1.8-1.3s-0.9-1-1.1-1.6c-0.2-0.5-0.4-1-0.4-1.4c0-0.6,0.2-1.1,0.7-1.4l6.8-5c0.9-0.6,2.1-0.8,3.8-0.6
		c1.7,0.2,3.4,0.7,5.1,1.4c1.7,0.7,3.3,1.6,4.8,2.7c1.5,1,2.5,2,3,3c0.3,0.4,0.4,0.7,0.3,0.8C624.4,122.2,624.3,122.3,624.1,122.5z"
		/>
	<path class="st1" d="M632.3,153.7c0-1.1-0.2-2.1-0.8-3.1s-1-2-1.5-2.9c-0.5-1-0.8-1.9-1-2.9c-0.2-0.9,0-1.9,0.7-2.9l5.4-7.9
		c0.3-0.3,0.6-0.4,0.9-0.4h13.1c3.7,0,5.6,2.2,5.7,6.5v27.8c0,0.7-0.2,1.3-0.6,1.7l-4.4,5.1c-0.3,0.3-0.5,0.4-0.6,0.2
		c-0.2-0.2-0.2-0.4-0.2-0.8V142c-0.1-1.7-1-2.6-2.9-2.6h-11.6l-1.1,1.9c-0.5,0.9-0.5,1.8-0.1,2.5c0.4,0.8,0.9,1.5,1.6,2.3
		c0.7,0.8,1.4,1.6,2.1,2.4c0.7,0.9,1.1,1.8,1.3,2.9c0.5-0.3,0.9-0.6,1.4-0.9c0.5-0.3,0.9-0.6,1.3-0.9c0.9-0.7,1.7-1.4,2.4-2
		c0.7-0.7,1-1.2,1-1.7c0-0.4-0.5-0.6-1.5-0.5c-0.9,0-2.5,0.5-4.7,1.2c-0.3,0.1-0.5,0.1-0.6,0c-0.1-0.2,0-0.4,0.2-0.8l0.9-3.6
		c0-0.2,0-0.3,0-0.3c0,0,0.2-0.1,0.6-0.2c2.2-0.5,4-0.7,5.4-0.5c1.4,0.2,2.2,0.8,2.6,2c0.5,1.5,0.4,2.8-0.1,4
		c-0.6,1.2-1.4,2.4-2.4,3.5c-1,1.1-2.2,2.2-3.4,3.2c-1.2,1.1-2.2,2.1-3.1,3.2v12.1c0,0.4-0.1,0.6-0.3,0.7l-4.9,4.7
		c-0.5,0.3-0.7,0.3-0.8-0.1V153.7z"/>
	<path class="st1" d="M675,145.4c0-0.3,0-0.8-0.1-1.4c-0.1-0.6-0.4-0.8-1.1-0.7c-0.4,0.1-0.6,0-0.6-0.3c0-0.3,0.1-0.5,0.4-0.8
		l1.6-1.9v-9.5c0-0.3,0.1-0.5,0.3-0.7l4.8-4.7c0.5-0.3,0.7-0.2,0.8,0.2v10.9c0,0.3-0.1,0.6-0.3,0.8l-4.2,4c1.2,0.1,2.2,0.6,3.2,1.5
		c0.9,0.9,1.3,2.1,1.3,3.6v20.8c-0.1,0.6-0.3,1.1-0.7,1.5l-6.5,5.5c-0.3,0.3-0.5,0.4-0.7,0.5c-0.2,0.1-0.5,0.1-1,0.2
		c-2.3,0.3-4.3,0.1-5.9-0.6c-1.6-0.6-2.9-1.5-3.8-2.8c-0.9-1.2-1.5-2.6-1.8-4.2c-0.2-1.6-0.1-3.3,0.5-5.1l6.2-22
		c-0.1-0.3-0.5-0.6-1.2-0.8c-0.7-0.2-1.2-0.4-1.6-0.5v5.2c0,0.3-0.1,0.5-0.3,0.7l-4.2,4.7c-0.3,0.3-0.6,0.2-0.7-0.2v-10.1
		c0-0.3,0.1-0.5,0.3-0.7l3.9-4.5c0.1-0.3,0.3-0.4,0.6-0.4c0.3,0,0.5-0.1,0.8-0.1c0.8,0,1.7,0.1,2.6,0.4c0.9,0.2,1.8,0.6,2.5,1
		c0.7,0.5,1.3,1.1,1.7,1.8c0.4,0.7,0.5,1.6,0.3,2.6l-4.8,21.5c-0.6,2.5-0.4,4.7,0.5,6.5c0.9,1.8,2.5,2.8,4.6,3c1.1,0,2-0.4,2.5-1.3
		V145.4z"/>
	<path class="st1" d="M686.9,164.3V147c0.1-0.3,0.1-0.6,0.2-0.8c0.1-0.2,0.2-0.4,0.3-0.6l3.9-3.1c0.3-0.3,0.6-0.4,0.7-0.4
		c0.1,0,0.4,0,0.7-0.1c0.9,0,2.2,0.2,3.7,0.5c1.5,0.3,2.9,0.9,4.2,1.8c0.5,0.3,0.7,0.6,0.5,0.8c-0.1,0.2-0.2,0.4-0.5,0.5l-2.8,2.9
		c-0.2,0.2-0.3,0.2-0.5,0c-0.1-0.2-0.3-0.4-0.8-0.6c-0.4-0.3-0.8-0.5-1.3-0.8c-0.5-0.3-0.9-0.4-1.3-0.5c-0.4-0.1-0.7-0.1-1,0
		c-0.3,0.1-0.4,0.5-0.4,1.1V163c0.1,1.4,0.7,2.7,1.7,3.8s2.1,1.9,3.3,2.5c1.2,0.6,2.4,0.8,3.5,0.8c1.1,0,1.9-0.5,2.2-1.2v-29.4
		h-14.4c-0.7,0-0.8-0.3-0.4-0.9l3.6-4.6c0.2-0.2,0.5-0.3,0.9-0.3h15.2c0.7-0.1,1,0.1,1,0.7v33c0,0.6-0.2,1.1-0.6,1.5l-6.6,5.4
		c-0.3,0.2-0.6,0.3-0.7,0.5c-0.1,0.1-0.4,0.2-0.9,0.2c-1.7,0.2-3.4,0.1-5-0.4c-1.6-0.4-3-1.1-4.3-2c-1.3-0.9-2.3-2.1-3.1-3.5
		S687,166,686.9,164.3z"/>
	<path class="st1" d="M732.4,138.4l4.9-4.6c0.4-0.3,0.6-0.2,0.7,0.1v33.3c0,0.3-0.1,0.6-0.2,0.8c-0.1,0.2-0.3,0.4-0.5,0.7l-6.5,5.4
		c-0.3,0.2-0.5,0.3-0.6,0.4c-0.1,0.1-0.5,0.2-1,0.3c-2.3,0.3-4.4,0.2-6.2-0.4c-1.8-0.6-3.3-1.5-4.5-2.8c-1.2-1.2-2-2.7-2.5-4.4
		s-0.6-3.5-0.4-5.2l3.1-21.6c0.1-0.4-0.1-0.7-0.5-1c-0.4-0.2-0.9-0.4-1.4-0.5c-0.5-0.1-1.1-0.1-1.7-0.1c-0.6,0-1.1,0.1-1.5,0.2
		c-0.4,0.1-0.8,0.2-1,0.1c-0.3-0.1-0.3-0.3,0-0.7l2.9-4.3c0.1-0.3,0.3-0.4,0.7-0.4c0.3,0,0.6-0.1,0.8-0.1c0.8,0,1.6,0.1,2.4,0.3
		c0.8,0.2,1.6,0.5,2.2,1c0.6,0.5,1.1,1.1,1.5,1.8c0.4,0.8,0.5,1.7,0.4,2.8l-1.8,21.1c-0.1,1.3,0,2.6,0.4,3.7c0.4,1.1,1,2.1,1.7,3
		c0.7,0.8,1.6,1.5,2.6,2.1c1,0.6,2,0.9,3.1,1c1.3,0.1,2.2-0.4,2.7-1.6v-29.5C732.1,138.9,732.2,138.6,732.4,138.4z"/>
</g>
</svg>
