<?xml version="1.0" encoding="utf-8"?>
<!-- Generator: Adobe Illustrator 24.2.3, SVG Export Plug-In . SVG Version: 6.00 Build 0)  -->
<svg version="1.1" id="Layer_1" xmlns="http://www.w3.org/2000/svg" xmlns:xlink="http://www.w3.org/1999/xlink" x="0px" y="0px"
	 viewBox="0 0 855.6 204" style="enable-background:new 0 0 855.6 204;" xml:space="preserve">
<style type="text/css">
	.st0{enable-background:new    ;}
	.st1{fill:#F8EFD7;}
</style>
<g class="st0">
	<path class="st1" d="M96.3,40.4c0.6,0,1.2,0.1,1.8,0.3c0.5,0.2,1,0.5,1.4,1c0.4,0.4,0.7,0.9,0.9,1.4c0.2,0.5,0.3,1.1,0.3,1.8
		c0,0.6-0.1,1.2-0.3,1.7c-0.2,0.5-0.5,1-1,1.4c-0.4,0.4-0.9,0.7-1.5,1c-0.6,0.2-1.2,0.4-2,0.4c-0.9,0-1.7-0.1-2.3-0.4
		c-0.6-0.3-1.1-0.6-1.5-1.1c-0.4-0.5-0.7-1-0.9-1.6c-0.2-0.6-0.3-1.2-0.3-1.9V15.5c0-1.3-0.3-2.2-0.8-2.7C89.7,12.2,88.9,12,88,12
		c-0.4,0-0.8,0-1,0.1c-0.3,0.1-0.5,0.2-0.7,0.4c-0.2,0.2-0.3,0.3-0.4,0.5c-0.1,0.2-0.2,0.4-0.2,0.5c1.5,0,2.6,0.4,3.3,1.2
		c0.7,0.8,1.1,1.8,1.1,3c0,0.6-0.1,1.2-0.3,1.7c-0.2,0.5-0.5,0.9-0.9,1.3c-0.4,0.4-0.9,0.7-1.4,0.9c-0.6,0.2-1.2,0.3-1.9,0.3
		c-0.7,0-1.4-0.1-2-0.4c-0.6-0.3-1.1-0.7-1.5-1.1c-0.4-0.5-0.8-1.1-1-1.7c-0.2-0.7-0.4-1.4-0.4-2.2c0-1,0.2-1.9,0.5-2.8
		c0.3-0.9,0.7-1.7,1.3-2.4c0.6-0.7,1.3-1.2,2.3-1.6c0.9-0.4,2-0.6,3.2-0.6c1.1,0,2.1,0.1,3,0.4c0.9,0.3,1.7,0.7,2.3,1.3
		c0.7,0.6,1.2,1.2,1.5,2.1c0.3,0.8,0.5,1.8,0.5,2.8v24.9H96.3z M87.2,17.7c0-0.5-0.2-0.9-0.5-1.2C86.4,16.2,86,16,85.5,16
		c-0.5,0-0.9,0.2-1.2,0.5c-0.3,0.3-0.5,0.7-0.5,1.2c0,0.5,0.2,0.9,0.5,1.2c0.3,0.3,0.7,0.5,1.2,0.5c0.5,0,0.9-0.2,1.2-0.5
		C87,18.6,87.2,18.2,87.2,17.7z M97.7,44.9c0-0.5-0.2-0.9-0.5-1.2c-0.3-0.3-0.7-0.5-1.2-0.5c-0.5,0-0.9,0.2-1.2,0.5
		c-0.3,0.3-0.5,0.7-0.5,1.2c0,0.5,0.2,0.9,0.5,1.2c0.3,0.3,0.7,0.5,1.2,0.5c0.5,0,0.9-0.2,1.2-0.5C97.5,45.8,97.7,45.4,97.7,44.9z"
		/>
	<path class="st1" d="M111.4,49H107V32.5h-0.9c-0.6,0-1.2-0.1-1.8-0.3c-0.6-0.2-1-0.5-1.4-0.9c-0.4-0.4-0.7-0.9-1-1.4
		c-0.2-0.5-0.4-1.1-0.4-1.8c0-0.6,0.1-1.2,0.3-1.7c0.2-0.5,0.5-1,1-1.4c0.4-0.4,0.9-0.7,1.5-1c0.6-0.2,1.2-0.4,2-0.4
		c0.9,0,1.6,0.1,2.3,0.4c0.6,0.3,1.2,0.6,1.6,1.1c0.4,0.5,0.7,1,0.9,1.6c0.2,0.6,0.3,1.2,0.3,1.9V45l9.6-4.9V23.8h4.3V40
		c1,0.3,1.9,0.9,2.5,1.7c0.6,0.8,0.9,1.8,0.9,2.9c0,0.6-0.1,1.2-0.4,1.8c-0.2,0.6-0.6,1.1-1,1.5c-0.4,0.4-0.9,0.8-1.5,1
		c-0.6,0.3-1.2,0.4-1.8,0.4c-0.7,0-1.3-0.1-1.9-0.3c-0.6-0.2-1.1-0.5-1.5-0.9c-0.4-0.4-0.8-0.8-1-1.4c-0.2-0.5-0.4-1.1-0.4-1.7
		L111.4,49z M108.1,28c0-0.5-0.2-0.9-0.5-1.2c-0.3-0.3-0.7-0.5-1.2-0.5c-0.5,0-0.9,0.2-1.2,0.5c-0.3,0.3-0.5,0.7-0.5,1.2
		c0,0.5,0.2,0.9,0.5,1.2c0.3,0.3,0.7,0.5,1.2,0.5c0.5,0,0.9-0.2,1.2-0.5C107.9,28.8,108.1,28.4,108.1,28z M125.5,44.5
		c0-0.5-0.2-1-0.5-1.3c-0.4-0.3-0.8-0.5-1.3-0.5c-0.5,0-0.9,0.2-1.3,0.5s-0.5,0.8-0.5,1.3c0,0.5,0.2,0.9,0.5,1.3
		c0.3,0.3,0.8,0.5,1.3,0.5c0.5,0,1-0.2,1.3-0.5C125.4,45.5,125.5,45,125.5,44.5z"/>
	<path class="st1" d="M134.6,49V32.5h-0.9c-0.6,0-1.2-0.1-1.8-0.3c-0.6-0.2-1-0.5-1.4-0.9c-0.4-0.4-0.7-0.9-1-1.4
		c-0.2-0.5-0.4-1.1-0.4-1.8c0-0.6,0.1-1.2,0.3-1.7c0.2-0.5,0.5-1,1-1.4c0.4-0.4,0.9-0.7,1.5-1c0.6-0.2,1.2-0.4,2-0.4
		c0.9,0,1.6,0.1,2.3,0.4c0.6,0.3,1.2,0.6,1.6,1.1c0.4,0.5,0.7,1,0.9,1.6c0.2,0.6,0.3,1.2,0.3,1.9v17.1h10.2V12.4h4.2V49H134.6z
		 M135.7,28c0-0.5-0.2-0.9-0.5-1.2c-0.3-0.3-0.7-0.5-1.2-0.5c-0.5,0-0.9,0.2-1.2,0.5c-0.3,0.3-0.5,0.7-0.5,1.2
		c0,0.5,0.2,0.9,0.5,1.2c0.3,0.3,0.7,0.5,1.2,0.5c0.5,0,0.9-0.2,1.2-0.5C135.5,28.8,135.7,28.4,135.7,28z"/>
	<path class="st1" d="M153.8,10.8c0,1.5-0.3,2.8-1,4c-0.7,1.2-1.5,2.1-2.6,2.9c-1.1,0.8-2.4,1.4-3.8,1.8c-1.5,0.4-3,0.6-4.6,0.6
		c-1.1,0-2.1-0.1-3.1-0.3c-0.9-0.2-1.7-0.5-2.4-1c-0.7-0.4-1.2-1-1.6-1.6c-0.4-0.7-0.6-1.5-0.6-2.4c0-0.7,0.1-1.3,0.4-1.9
		s0.6-1,1-1.3c0.4-0.4,0.9-0.6,1.5-0.8c0.6-0.2,1.2-0.3,1.8-0.3c0.6,0,1.1,0.1,1.7,0.3c0.5,0.2,1,0.4,1.4,0.8s0.7,0.8,1,1.3
		c0.2,0.5,0.4,1.1,0.4,1.8c0,0.5-0.1,0.9-0.3,1.4c-0.2,0.4-0.4,0.9-0.7,1.2c1.2,0,2.2-0.2,3.1-0.5c0.9-0.3,1.6-0.8,2.2-1.4
		c0.6-0.6,1-1.3,1.4-2c0.3-0.8,0.5-1.6,0.6-2.5H153.8z M140.3,14.7c0-0.5-0.2-0.9-0.5-1.2c-0.3-0.3-0.7-0.5-1.2-0.5
		c-0.5,0-0.9,0.2-1.2,0.5c-0.3,0.4-0.5,0.8-0.5,1.2c0,0.5,0.2,0.9,0.5,1.2c0.3,0.3,0.7,0.5,1.2,0.5c0.5,0,0.9-0.2,1.2-0.5
		C140.1,15.6,140.3,15.2,140.3,14.7z"/>
	<path class="st1" d="M170.8,49l-1.8-8.1c-0.3,0.1-0.6,0.2-1,0.2c-0.3,0.1-0.7,0.1-1.1,0.1c-0.6,0-1.1-0.1-1.6-0.3
		c-0.5-0.2-0.9-0.5-1.3-0.9c-0.4-0.4-0.7-0.8-0.9-1.3s-0.3-1-0.3-1.6c0-0.6,0.1-1.1,0.3-1.6c0.2-0.5,0.5-0.9,0.9-1.3
		c0.4-0.4,0.8-0.7,1.4-0.9c0.5-0.2,1.1-0.3,1.7-0.3c1.3,0,2.3,0.3,3.1,1c0.8,0.6,1.3,1.5,1.4,2.6l1.3,7.8c0.1-1.1,0.3-2.2,0.5-3.4
		c0.2-1.2,0.4-2.3,0.6-3.5c0.2-1.1,0.4-2.1,0.5-3.1c0.1-0.9,0.2-1.7,0.2-2.3c0-0.6-0.1-1.3-0.4-1.9s-0.7-1.2-1.2-1.7
		c-0.5-0.5-1.2-0.9-2.1-1.2c-0.8-0.3-1.8-0.5-2.9-0.5c-0.9,0-1.7,0.1-2.5,0.4c-0.7,0.3-1.4,0.6-1.9,1s-1,1-1.3,1.5s-0.5,1.2-0.5,1.9
		h-4.2c0.1-1.2,0.4-2.4,1-3.4c0.6-1,1.4-1.9,2.4-2.6c1-0.7,2.1-1.2,3.3-1.6c1.2-0.4,2.5-0.6,3.8-0.6c1.7,0,3.2,0.2,4.5,0.7
		c1.3,0.5,2.5,1.1,3.4,1.9c0.9,0.8,1.6,1.7,2.1,2.8c0.5,1.1,0.7,2.2,0.7,3.4c0,0.8-0.1,1.7-0.3,2.8c-0.2,1.1-0.4,2.3-0.8,3.7
		c-0.3,1.4-0.7,2.9-1,4.6c-0.4,1.7-0.8,3.6-1.1,5.6H170.8z M168.8,37.1c0-0.5-0.2-0.9-0.5-1.2c-0.3-0.3-0.7-0.5-1.2-0.5
		c-0.5,0-0.9,0.2-1.2,0.5c-0.3,0.3-0.5,0.7-0.5,1.2c0,0.5,0.2,0.9,0.5,1.2c0.3,0.3,0.7,0.5,1.2,0.5c0.5,0,0.9-0.2,1.2-0.5
		C168.6,37.9,168.8,37.5,168.8,37.1z"/>
	<path class="st1" d="M195.8,49l-1.8-8.1c-0.3,0.1-0.6,0.2-1,0.2c-0.3,0.1-0.7,0.1-1.1,0.1c-0.6,0-1.1-0.1-1.6-0.3
		c-0.5-0.2-0.9-0.5-1.3-0.9c-0.4-0.4-0.7-0.8-0.9-1.3s-0.3-1-0.3-1.6c0-0.6,0.1-1.1,0.3-1.6c0.2-0.5,0.5-0.9,0.9-1.3
		c0.4-0.4,0.8-0.7,1.4-0.9c0.5-0.2,1.1-0.3,1.7-0.3c1.3,0,2.3,0.3,3.1,1c0.8,0.6,1.3,1.5,1.4,2.6l1.3,7.8c0.1-1.1,0.3-2.2,0.5-3.4
		c0.2-1.2,0.4-2.3,0.6-3.5c0.2-1.1,0.4-2.1,0.5-3.1c0.1-0.9,0.2-1.7,0.2-2.3c0-0.6-0.1-1.3-0.4-1.9s-0.7-1.2-1.2-1.7
		c-0.5-0.5-1.2-0.9-2.1-1.2c-0.8-0.3-1.8-0.5-2.9-0.5c-0.9,0-1.7,0.1-2.5,0.4c-0.7,0.3-1.4,0.6-1.9,1s-1,1-1.3,1.5S187,31,187,31.7
		h-4.2c0.1-1.2,0.4-2.4,1-3.4c0.6-1,1.4-1.9,2.4-2.6c1-0.7,2.1-1.2,3.3-1.6c1.2-0.4,2.5-0.6,3.8-0.6c1.7,0,3.2,0.2,4.5,0.7
		c1.3,0.5,2.5,1.1,3.4,1.9c0.9,0.8,1.6,1.7,2.1,2.8c0.5,1.1,0.7,2.2,0.7,3.4c0,0.8-0.1,1.7-0.3,2.8c-0.2,1.1-0.4,2.3-0.8,3.7
		c-0.3,1.4-0.7,2.9-1,4.6c-0.4,1.7-0.8,3.6-1.1,5.6H195.8z M193.8,37.1c0-0.5-0.2-0.9-0.5-1.2c-0.3-0.3-0.7-0.5-1.2-0.5
		c-0.5,0-0.9,0.2-1.2,0.5c-0.3,0.3-0.5,0.7-0.5,1.2c0,0.5,0.2,0.9,0.5,1.2c0.3,0.3,0.7,0.5,1.2,0.5c0.5,0,0.9-0.2,1.2-0.5
		C193.7,37.9,193.8,37.5,193.8,37.1z"/>
	<path class="st1" d="M199.6,63.6v-4.2h-0.5c-0.7,0-1.4-0.1-1.9-0.3c-0.6-0.2-1-0.5-1.4-0.9c-0.4-0.4-0.7-0.8-0.9-1.3
		c-0.2-0.5-0.3-1-0.3-1.6c0-1.2,0.4-2.1,1.2-2.8c0.8-0.7,1.9-1.1,3.4-1.1c1.5,0,2.6,0.4,3.3,1.1c0.7,0.7,1.1,1.7,1.1,2.8v8.3H199.6z
		 M198.6,56.8c0.4,0,0.8-0.1,1-0.4c0.3-0.3,0.4-0.6,0.4-1c0-0.4-0.1-0.8-0.4-1c-0.3-0.3-0.6-0.4-1-0.4c-0.4,0-0.8,0.1-1,0.4
		c-0.3,0.3-0.4,0.6-0.4,1c0,0.4,0.1,0.8,0.4,1C197.8,56.7,198.2,56.8,198.6,56.8z"/>
	<path class="st1" d="M212.6,49V32.5h-0.9c-0.6,0-1.2-0.1-1.8-0.3c-0.6-0.2-1-0.5-1.4-0.9c-0.4-0.4-0.7-0.9-1-1.4
		c-0.2-0.5-0.4-1.1-0.4-1.8c0-0.6,0.1-1.2,0.3-1.7c0.2-0.5,0.5-1,1-1.4c0.4-0.4,0.9-0.7,1.5-1c0.6-0.2,1.2-0.4,2-0.4
		c0.9,0,1.6,0.1,2.3,0.4c0.6,0.3,1.2,0.6,1.6,1.1c0.4,0.5,0.7,1,0.9,1.6c0.2,0.6,0.3,1.2,0.3,1.9v17.1h10.2V23.8h4.2V49H212.6z
		 M213.7,28c0-0.5-0.2-0.9-0.5-1.2c-0.3-0.3-0.7-0.5-1.2-0.5c-0.5,0-0.9,0.2-1.2,0.5c-0.3,0.3-0.5,0.7-0.5,1.2
		c0,0.5,0.2,0.9,0.5,1.2c0.3,0.3,0.7,0.5,1.2,0.5c0.5,0,0.9-0.2,1.2-0.5C213.5,28.8,213.7,28.4,213.7,28z"/>
	<path class="st1" d="M237.8,10.8c0,1.5-0.4,2.8-1.1,4c-0.7,1.2-1.7,2.1-2.9,2.9c-1.2,0.8-2.5,1.4-4.1,1.8c-1.5,0.4-3.1,0.6-4.7,0.6
		c-1.1,0-2.1-0.1-3.1-0.3c-0.9-0.2-1.7-0.5-2.4-1c-0.7-0.4-1.2-1-1.6-1.6c-0.4-0.7-0.6-1.5-0.6-2.4c0-0.7,0.1-1.3,0.4-1.9
		s0.6-1,1-1.3c0.4-0.4,0.9-0.6,1.5-0.8c0.6-0.2,1.2-0.3,1.8-0.3c0.6,0,1.1,0.1,1.7,0.3c0.5,0.2,1,0.4,1.4,0.8s0.7,0.8,1,1.3
		c0.2,0.5,0.4,1.1,0.4,1.8c0,0.5-0.1,0.9-0.3,1.4c-0.2,0.4-0.4,0.9-0.7,1.2c1.2,0,2.3-0.2,3.2-0.5c0.9-0.3,1.7-0.8,2.4-1.4
		c0.7-0.6,1.2-1.3,1.6-2c0.4-0.8,0.6-1.6,0.7-2.5H237.8z M223.7,14.7c0-0.5-0.2-0.9-0.5-1.2c-0.3-0.3-0.7-0.5-1.2-0.5
		c-0.5,0-0.9,0.2-1.2,0.5c-0.3,0.4-0.5,0.8-0.5,1.2c0,0.5,0.2,0.9,0.5,1.2c0.3,0.3,0.7,0.5,1.2,0.5c0.5,0,0.9-0.2,1.2-0.5
		C223.5,15.6,223.7,15.2,223.7,14.7z"/>
	<path class="st1" d="M244.8,49h-4.4V32.5h-0.9c-0.6,0-1.2-0.1-1.8-0.3c-0.6-0.2-1-0.5-1.4-0.9c-0.4-0.4-0.7-0.9-1-1.4
		c-0.2-0.5-0.4-1.1-0.4-1.8c0-0.6,0.1-1.2,0.3-1.7c0.2-0.5,0.5-1,1-1.4c0.4-0.4,0.9-0.7,1.5-1c0.6-0.2,1.2-0.4,2-0.4
		c0.9,0,1.6,0.1,2.3,0.4c0.6,0.3,1.2,0.6,1.6,1.1c0.4,0.5,0.7,1,0.9,1.6c0.2,0.6,0.3,1.2,0.3,1.9V45l9.6-4.9V23.8h4.3V40
		c1,0.3,1.9,0.9,2.5,1.7c0.6,0.8,0.9,1.8,0.9,2.9c0,0.6-0.1,1.2-0.4,1.8c-0.2,0.6-0.6,1.1-1,1.5c-0.4,0.4-0.9,0.8-1.5,1
		c-0.6,0.3-1.2,0.4-1.8,0.4c-0.7,0-1.3-0.1-1.9-0.3c-0.6-0.2-1.1-0.5-1.5-0.9c-0.4-0.4-0.8-0.8-1-1.4c-0.2-0.5-0.4-1.1-0.4-1.7
		L244.8,49z M241.5,28c0-0.5-0.2-0.9-0.5-1.2c-0.3-0.3-0.7-0.5-1.2-0.5c-0.5,0-0.9,0.2-1.2,0.5c-0.3,0.3-0.5,0.7-0.5,1.2
		c0,0.5,0.2,0.9,0.5,1.2c0.3,0.3,0.7,0.5,1.2,0.5c0.5,0,0.9-0.2,1.2-0.5C241.4,28.8,241.5,28.4,241.5,28z M259,44.5
		c0-0.5-0.2-1-0.5-1.3c-0.4-0.3-0.8-0.5-1.3-0.5c-0.5,0-0.9,0.2-1.3,0.5s-0.5,0.8-0.5,1.3c0,0.5,0.2,0.9,0.5,1.3
		c0.3,0.3,0.8,0.5,1.3,0.5c0.5,0,1-0.2,1.3-0.5C258.8,45.5,259,45,259,44.5z"/>
	<path class="st1" d="M268,49V32.5h-0.9c-0.6,0-1.2-0.1-1.8-0.3c-0.6-0.2-1-0.5-1.4-0.9c-0.4-0.4-0.7-0.9-1-1.4
		c-0.2-0.5-0.4-1.1-0.4-1.8c0-0.6,0.1-1.2,0.3-1.7c0.2-0.5,0.5-1,1-1.4c0.4-0.4,0.9-0.7,1.5-1c0.6-0.2,1.2-0.4,2-0.4
		c0.9,0,1.6,0.1,2.3,0.4c0.6,0.3,1.2,0.6,1.6,1.1c0.4,0.5,0.7,1,0.9,1.6c0.2,0.6,0.3,1.2,0.3,1.9v17.1h10.2V12.4h4.2V49H268z
		 M269.1,28c0-0.5-0.2-0.9-0.5-1.2c-0.3-0.3-0.7-0.5-1.2-0.5c-0.5,0-0.9,0.2-1.2,0.5c-0.3,0.3-0.5,0.7-0.5,1.2
		c0,0.5,0.2,0.9,0.5,1.2c0.3,0.3,0.7,0.5,1.2,0.5c0.5,0,0.9-0.2,1.2-0.5C269,28.8,269.1,28.4,269.1,28z"/>
	<path class="st1" d="M287.2,10.8c0,1.5-0.3,2.8-1,4c-0.7,1.2-1.5,2.1-2.6,2.9c-1.1,0.8-2.4,1.4-3.8,1.8c-1.5,0.4-3,0.6-4.6,0.6
		c-1.1,0-2.1-0.1-3.1-0.3c-0.9-0.2-1.7-0.5-2.4-1c-0.7-0.4-1.2-1-1.6-1.6c-0.4-0.7-0.6-1.5-0.6-2.4c0-0.7,0.1-1.3,0.4-1.9
		s0.6-1,1-1.3c0.4-0.4,0.9-0.6,1.5-0.8c0.6-0.2,1.2-0.3,1.8-0.3c0.6,0,1.1,0.1,1.7,0.3c0.5,0.2,1,0.4,1.4,0.8s0.7,0.8,1,1.3
		c0.2,0.5,0.4,1.1,0.4,1.8c0,0.5-0.1,0.9-0.3,1.4c-0.2,0.4-0.4,0.9-0.7,1.2c1.2,0,2.2-0.2,3.1-0.5c0.9-0.3,1.6-0.8,2.2-1.4
		c0.6-0.6,1-1.3,1.4-2c0.3-0.8,0.5-1.6,0.6-2.5H287.2z M273.7,14.7c0-0.5-0.2-0.9-0.5-1.2c-0.3-0.3-0.7-0.5-1.2-0.5
		c-0.5,0-0.9,0.2-1.2,0.5c-0.3,0.4-0.5,0.8-0.5,1.2c0,0.5,0.2,0.9,0.5,1.2c0.3,0.3,0.7,0.5,1.2,0.5c0.5,0,0.9-0.2,1.2-0.5
		C273.6,15.6,273.7,15.2,273.7,14.7z"/>
	<path class="st1" d="M308.3,49V33.1c0-0.9-0.2-1.7-0.5-2.5c-0.3-0.8-0.8-1.4-1.4-2c-0.6-0.6-1.3-1-2.1-1.3
		c-0.8-0.3-1.7-0.5-2.6-0.5c-1.4,0-2.5,0.3-3.5,0.9c-1,0.6-1.8,1.5-2.3,2.6l2.2,2.4v7.5h0.9c0.6,0,1.2,0.1,1.8,0.3
		c0.5,0.2,1,0.5,1.4,1c0.4,0.4,0.7,0.9,0.9,1.4c0.2,0.5,0.3,1.1,0.3,1.8c0,0.6-0.1,1.2-0.3,1.7c-0.2,0.5-0.5,1-1,1.4
		c-0.4,0.4-0.9,0.7-1.5,1c-0.6,0.2-1.2,0.4-1.9,0.4c-0.9,0-1.7-0.1-2.3-0.4s-1.2-0.6-1.6-1.1c-0.4-0.5-0.7-1-0.9-1.6
		c-0.2-0.6-0.3-1.2-0.3-1.9V33.8l-2.5-2.8c0.3-1.1,0.8-2.1,1.4-3.1c0.6-0.9,1.3-1.7,2.2-2.3c0.9-0.6,1.9-1.1,3.1-1.5
		c1.2-0.4,2.4-0.5,3.9-0.5c1.7,0,3.2,0.2,4.5,0.7c1.3,0.5,2.5,1.1,3.4,2c0.9,0.9,1.6,1.9,2.1,3.1c0.5,1.2,0.8,2.5,0.8,3.9v12.4h7.3
		V23.8h4.3V49H308.3z M300.4,44.9c0-0.5-0.2-0.9-0.5-1.2c-0.3-0.3-0.7-0.5-1.2-0.5c-0.5,0-0.9,0.2-1.2,0.5c-0.3,0.3-0.5,0.7-0.5,1.2
		c0,0.5,0.2,0.9,0.5,1.2c0.3,0.3,0.7,0.5,1.2,0.5c0.5,0,0.9-0.2,1.2-0.5C300.2,45.8,300.4,45.4,300.4,44.9z M324.3,51.2
		c-0.1,1.4-0.3,2.6-0.7,3.8c-0.4,1.1-0.9,2.1-1.7,2.9c-0.7,0.8-1.7,1.4-2.8,1.9c-1.1,0.4-2.5,0.7-4.1,0.7c-1.1,0-2.1-0.1-3-0.4
		c-0.9-0.3-1.6-0.7-2.3-1.2c-0.6-0.5-1.1-1.1-1.4-1.8c-0.3-0.7-0.5-1.5-0.5-2.3c0-0.5,0.1-1,0.3-1.4c0.2-0.5,0.5-0.9,0.9-1.2
		c0.4-0.3,0.8-0.6,1.3-0.8c0.5-0.2,1-0.3,1.6-0.3s1.1,0.1,1.6,0.3c0.5,0.2,0.9,0.5,1.3,0.8c0.4,0.4,0.7,0.8,0.9,1.2
		c0.2,0.5,0.3,0.9,0.3,1.4c0,0.3,0,0.6-0.1,0.9c-0.1,0.3-0.2,0.6-0.3,0.9c-0.1,0.3-0.3,0.5-0.5,0.7c-0.2,0.2-0.4,0.3-0.7,0.4
		c0.9,0,1.7-0.1,2.4-0.3c0.7-0.2,1.3-0.6,1.8-1.1c0.5-0.5,0.8-1.1,1.1-1.9c0.3-0.8,0.4-1.8,0.4-2.9H324.3z M313.5,54.5
		c0-0.4-0.1-0.8-0.4-1c-0.3-0.3-0.7-0.4-1.1-0.4c-0.4,0-0.8,0.1-1,0.4c-0.3,0.3-0.4,0.6-0.4,1c0,0.4,0.1,0.8,0.4,1.1
		c0.3,0.3,0.6,0.4,1,0.4c0.4,0,0.8-0.1,1.1-0.4S313.5,55,313.5,54.5z"/>
	<path class="st1" d="M347.4,49V35.3c0-1.4-0.2-2.1-0.5-2.1c-0.1,0-0.3,0.1-0.5,0.4s-0.5,0.7-0.9,1.2L337.1,49h-3.9V32.5h-0.9
		c-0.6,0-1.2-0.1-1.8-0.3c-0.6-0.2-1-0.5-1.4-0.9c-0.4-0.4-0.7-0.9-1-1.4c-0.2-0.5-0.4-1.1-0.4-1.8c0-0.6,0.1-1.2,0.3-1.7
		c0.2-0.5,0.5-1,1-1.4c0.4-0.4,0.9-0.7,1.5-1c0.6-0.2,1.2-0.4,2-0.4c0.9,0,1.6,0.1,2.3,0.4c0.6,0.3,1.2,0.6,1.6,1.1
		c0.4,0.5,0.7,1,0.9,1.6c0.2,0.6,0.3,1.2,0.3,1.9v9.4c0,0.5,0,1-0.1,1.7c-0.1,0.6-0.1,1.3-0.2,1.9c-0.1,0.6-0.2,1.1-0.2,1.5
		c-0.1,0.4-0.1,0.7-0.1,0.7c0-0.1,0.1-0.3,0.3-0.7c0.2-0.4,0.4-0.9,0.6-1.5c0.2-0.5,0.5-1.1,0.7-1.6c0.2-0.6,0.5-1,0.6-1.3l2.9-5.2
		c0.2-0.4,0.5-0.8,0.8-1.2c0.3-0.4,0.6-0.7,0.9-1c-0.4-0.5-0.7-1-0.9-1.4c-0.2-0.5-0.3-1-0.3-1.6c0-0.6,0.1-1.2,0.4-1.8
		c0.2-0.5,0.6-1,1-1.4c0.4-0.4,1-0.7,1.6-1c0.6-0.2,1.3-0.4,2-0.4c0.7,0,1.4,0.1,2,0.4c0.6,0.2,1.1,0.6,1.6,1c0.4,0.4,0.8,0.9,1,1.4
		c0.3,0.5,0.4,1.1,0.4,1.8c0,0.7-0.2,1.4-0.5,2c-0.3,0.6-0.8,1.1-1.4,1.6c0.4,0.5,0.6,1.1,0.8,1.7c0.1,0.6,0.2,1.3,0.2,2.1V49H347.4
		z M334.3,28c0-0.5-0.2-0.9-0.5-1.2c-0.3-0.3-0.7-0.5-1.2-0.5c-0.5,0-0.9,0.2-1.2,0.5c-0.3,0.3-0.5,0.7-0.5,1.2
		c0,0.5,0.2,0.9,0.5,1.2c0.3,0.3,0.7,0.5,1.2,0.5c0.5,0,0.9-0.2,1.2-0.5C334.1,28.8,334.3,28.4,334.3,28z M349.3,28
		c0-0.5-0.2-0.9-0.5-1.2c-0.3-0.3-0.7-0.5-1.2-0.5c-0.5,0-0.9,0.2-1.2,0.5c-0.3,0.3-0.5,0.7-0.5,1.2c0,0.5,0.2,0.9,0.5,1.2
		c0.3,0.3,0.7,0.5,1.2,0.5c0.5,0,0.9-0.2,1.2-0.5C349.1,28.8,349.3,28.4,349.3,28z"/>
	<path class="st1" d="M369.6,49V32c0-0.7-0.1-1.4-0.3-2c-0.2-0.6-0.5-1.2-0.9-1.6c-0.4-0.5-0.9-0.8-1.5-1.1
		c-0.6-0.3-1.4-0.4-2.2-0.4c-0.8,0-1.4,0.1-2,0.4s-1,0.6-1.4,1c-0.4,0.4-0.7,1-0.9,1.6c-0.2,0.6-0.4,1.3-0.5,2h-4.3
		c0.1-1.2,0.4-2.3,0.8-3.3c0.4-1,1-1.9,1.8-2.6c0.7-0.7,1.7-1.3,2.7-1.7c1.1-0.4,2.3-0.6,3.8-0.6c1.6,0,3,0.2,4.2,0.6
		c1.2,0.4,2.1,1,2.8,1.7c0.7,0.7,1.3,1.6,1.6,2.7c0.3,1,0.5,2.2,0.5,3.4v17H369.6z"/>
	<path class="st1" d="M387.8,49V30.2c0-1.2-0.3-2.1-0.9-2.7c-0.6-0.6-1.3-0.9-2.3-0.9c-0.4,0-0.9,0.1-1.3,0.3
		c-0.4,0.2-0.8,0.4-1,0.7c0.7,0,1.3,0.1,1.9,0.4c0.5,0.2,1,0.5,1.4,0.9c0.4,0.4,0.6,0.8,0.8,1.3c0.2,0.5,0.3,1,0.3,1.5
		c0,0.6-0.1,1.2-0.3,1.7c-0.2,0.5-0.5,0.9-0.9,1.3c-0.4,0.4-0.9,0.7-1.4,0.9c-0.6,0.2-1.2,0.3-1.8,0.3c-0.7,0-1.4-0.1-1.9-0.4
		c-0.6-0.3-1.1-0.7-1.5-1.2c-0.4-0.5-0.7-1.1-0.9-1.7c-0.2-0.7-0.3-1.4-0.3-2.1c0-1,0.2-2,0.6-2.8c0.4-0.8,0.9-1.6,1.5-2.2
		c0.6-0.6,1.4-1.1,2.3-1.4c0.9-0.3,1.8-0.5,2.8-0.5c1,0,2,0.1,2.9,0.4c0.9,0.3,1.7,0.7,2.3,1.3c0.7,0.6,1.2,1.3,1.6,2.1
		c0.4,0.9,0.6,1.9,0.6,3v15.2h4.4V23.8h4.3V49H387.8z M383.8,31.6c0-0.5-0.2-0.9-0.5-1.2c-0.3-0.3-0.7-0.5-1.2-0.5
		c-0.5,0-0.9,0.2-1.2,0.5c-0.3,0.3-0.5,0.7-0.5,1.2c0,0.5,0.2,0.9,0.5,1.2c0.3,0.3,0.7,0.5,1.2,0.5c0.5,0,0.9-0.2,1.2-0.5
		C383.7,32.5,383.8,32.1,383.8,31.6z"/>
	<path class="st1" d="M407,49v-7.6c0-1.2,0.3-2.2,0.8-3c0.5-0.8,1.2-1.3,2-1.6c-1.3-0.6-2.3-1.4-3-2.6c-0.7-1.1-1.1-2.6-1.1-4.3
		c0-0.8,0.2-1.7,0.5-2.4c0.3-0.8,0.7-1.4,1.3-2c0.5-0.6,1.2-1.1,1.9-1.4c0.7-0.4,1.5-0.5,2.4-0.5c0.8,0,1.5,0.1,2.1,0.3
		c0.6,0.2,1.1,0.5,1.6,0.9c0.4,0.4,0.7,0.9,1,1.4c0.2,0.5,0.3,1.1,0.3,1.7c0,0.6-0.1,1.2-0.3,1.7c-0.2,0.5-0.5,1-0.9,1.4
		c-0.4,0.4-0.9,0.7-1.4,0.9c-0.5,0.2-1.1,0.3-1.7,0.3c-0.5,0-0.9-0.1-1.4-0.3c-0.5-0.2-0.9-0.4-1.2-0.7c0,1.2,0.4,2,1.1,2.5
		c0.7,0.5,1.6,0.8,2.6,0.8h4.2v3.5h-3.6c-0.9,0-1.6,0.3-2.1,0.8s-0.7,1.4-0.7,2.5v4.2h10.5V23.8h4.3V49H407z M414,28
		c0-0.5-0.2-0.9-0.5-1.2c-0.3-0.3-0.7-0.5-1.2-0.5c-0.5,0-0.9,0.2-1.2,0.5c-0.3,0.3-0.5,0.7-0.5,1.2c0,0.5,0.2,0.9,0.5,1.2
		c0.3,0.3,0.7,0.5,1.2,0.5c0.5,0,0.9-0.2,1.2-0.5C413.9,28.8,414,28.4,414,28z"/>
	<path class="st1" d="M450.3,24.1c-0.1,1.4-0.5,2.7-1.1,3.8c-0.6,1.1-1.4,2-2.4,2.8c-1,0.7-2.1,1.3-3.4,1.7
		c-1.3,0.4-2.7,0.6-4.1,0.6c-2.4,0-4.2-0.4-5.5-1.3c-1.2-0.9-1.8-2.1-1.8-3.6c0-0.6,0.1-1.1,0.3-1.6c0.2-0.5,0.5-0.9,0.9-1.3
		c0.4-0.4,0.9-0.7,1.5-0.9c0.6-0.2,1.2-0.3,2-0.3c0.7,0,1.3,0.1,1.8,0.3c0.6,0.2,1,0.4,1.5,0.7c0.4,0.3,0.7,0.7,1,1.1
		s0.4,0.9,0.4,1.5c0,0.2,0,0.4,0,0.6c0,0.2-0.1,0.5-0.2,0.7c-0.1,0.2-0.2,0.5-0.3,0.7c-0.1,0.2-0.3,0.4-0.5,0.5
		c0.7-0.1,1.4-0.3,2.1-0.6c0.7-0.3,1.3-0.7,1.8-1.3c0.5-0.5,1-1.1,1.3-1.8c0.3-0.7,0.5-1.5,0.6-2.3H450.3z M450.3,39.1
		c-0.1,1.5-0.5,2.8-1.1,3.9c-0.6,1.1-1.4,2-2.4,2.8c-1,0.7-2.1,1.3-3.4,1.7c-1.3,0.4-2.7,0.6-4.1,0.6c-2.4,0-4.2-0.4-5.5-1.3
		c-1.2-0.9-1.8-2.1-1.8-3.6c0-0.6,0.1-1.1,0.3-1.6c0.2-0.5,0.5-0.9,0.9-1.3c0.4-0.4,0.9-0.7,1.5-0.9c0.6-0.2,1.2-0.3,2-0.3
		c0.7,0,1.3,0.1,1.8,0.3c0.6,0.2,1,0.4,1.5,0.7c0.4,0.3,0.7,0.7,1,1.1s0.4,0.9,0.4,1.5c0,0.2,0,0.4,0,0.6c0,0.2-0.1,0.5-0.2,0.7
		c-0.1,0.2-0.2,0.5-0.3,0.7c-0.1,0.2-0.3,0.4-0.5,0.5c0.7-0.1,1.4-0.3,2.1-0.6c0.7-0.3,1.3-0.7,1.8-1.3c0.5-0.5,1-1.1,1.3-1.8
		c0.3-0.7,0.5-1.5,0.6-2.3H450.3z M438.1,28c0-0.4-0.1-0.8-0.4-1.1c-0.3-0.3-0.6-0.4-1.1-0.4c-0.4,0-0.8,0.1-1.1,0.4
		c-0.3,0.3-0.4,0.6-0.4,1.1c0,0.4,0.1,0.8,0.4,1c0.3,0.3,0.6,0.4,1.1,0.4c0.4,0,0.8-0.1,1.1-0.4C438,28.8,438.1,28.4,438.1,28z
		 M436.6,44.5c0.4,0,0.8-0.1,1.1-0.4c0.3-0.3,0.4-0.6,0.4-1.1c0-0.4-0.1-0.8-0.4-1.1c-0.3-0.3-0.6-0.4-1.1-0.4
		c-0.4,0-0.8,0.1-1.1,0.4c-0.3,0.3-0.4,0.6-0.4,1.1c0,0.4,0.1,0.8,0.4,1.1C435.9,44.3,436.2,44.5,436.6,44.5z"/>
	<path class="st1" d="M465.6,40.4c0.6,0,1.2,0.1,1.8,0.3c0.5,0.2,1,0.5,1.4,1c0.4,0.4,0.7,0.9,0.9,1.4c0.2,0.5,0.3,1.1,0.3,1.8
		c0,0.6-0.1,1.2-0.3,1.7c-0.2,0.5-0.5,1-1,1.4c-0.4,0.4-0.9,0.7-1.5,1c-0.6,0.2-1.2,0.4-2,0.4c-0.9,0-1.7-0.1-2.3-0.4
		s-1.1-0.6-1.5-1.1c-0.4-0.5-0.7-1-0.9-1.6c-0.2-0.6-0.3-1.2-0.3-1.9V15.5c0-1.3-0.3-2.2-0.8-2.7c-0.5-0.5-1.3-0.8-2.3-0.8
		c-0.4,0-0.8,0-1,0.1c-0.3,0.1-0.5,0.2-0.7,0.4c-0.2,0.2-0.3,0.3-0.4,0.5c-0.1,0.2-0.2,0.4-0.2,0.5c1.5,0,2.6,0.4,3.3,1.2
		c0.7,0.8,1.1,1.8,1.1,3c0,0.6-0.1,1.2-0.3,1.7c-0.2,0.5-0.5,0.9-0.9,1.3c-0.4,0.4-0.9,0.7-1.4,0.9c-0.6,0.2-1.2,0.3-1.9,0.3
		c-0.7,0-1.4-0.1-2-0.4c-0.6-0.3-1.1-0.7-1.5-1.1s-0.8-1.1-1-1.7c-0.2-0.7-0.4-1.4-0.4-2.2c0-1,0.2-1.9,0.5-2.8
		c0.3-0.9,0.7-1.7,1.3-2.4s1.3-1.2,2.3-1.6c0.9-0.4,2-0.6,3.2-0.6c1.1,0,2.1,0.1,3,0.4c0.9,0.3,1.7,0.7,2.3,1.3
		c0.7,0.6,1.2,1.2,1.5,2.1c0.3,0.8,0.5,1.8,0.5,2.8v24.9H465.6z M456.5,17.7c0-0.5-0.2-0.9-0.5-1.2c-0.3-0.3-0.7-0.5-1.2-0.5
		c-0.5,0-0.9,0.2-1.2,0.5c-0.3,0.3-0.5,0.7-0.5,1.2c0,0.5,0.2,0.9,0.5,1.2c0.3,0.3,0.7,0.5,1.2,0.5c0.5,0,0.9-0.2,1.2-0.5
		C456.4,18.6,456.5,18.2,456.5,17.7z M467,44.9c0-0.5-0.2-0.9-0.5-1.2c-0.3-0.3-0.7-0.5-1.2-0.5c-0.5,0-0.9,0.2-1.2,0.5
		c-0.3,0.3-0.5,0.7-0.5,1.2c0,0.5,0.2,0.9,0.5,1.2c0.3,0.3,0.7,0.5,1.2,0.5c0.5,0,0.9-0.2,1.2-0.5C466.8,45.8,467,45.4,467,44.9z"/>
	<path class="st1" d="M480.7,49h-4.4V32.5h-0.9c-0.6,0-1.2-0.1-1.8-0.3c-0.6-0.2-1-0.5-1.4-0.9s-0.7-0.9-1-1.4
		c-0.2-0.5-0.4-1.1-0.4-1.8c0-0.6,0.1-1.2,0.3-1.7c0.2-0.5,0.5-1,1-1.4c0.4-0.4,0.9-0.7,1.5-1c0.6-0.2,1.2-0.4,2-0.4
		c0.9,0,1.6,0.1,2.3,0.4c0.6,0.3,1.2,0.6,1.6,1.1c0.4,0.5,0.7,1,0.9,1.6c0.2,0.6,0.3,1.2,0.3,1.9V45l9.6-4.9V23.8h4.3V40
		c1,0.3,1.9,0.9,2.5,1.7c0.6,0.8,0.9,1.8,0.9,2.9c0,0.6-0.1,1.2-0.4,1.8c-0.2,0.6-0.6,1.1-1,1.5c-0.4,0.4-0.9,0.8-1.5,1
		c-0.6,0.3-1.2,0.4-1.8,0.4c-0.7,0-1.3-0.1-1.9-0.3c-0.6-0.2-1.1-0.5-1.5-0.9c-0.4-0.4-0.8-0.8-1-1.4c-0.2-0.5-0.4-1.1-0.4-1.7
		L480.7,49z M477.4,28c0-0.5-0.2-0.9-0.5-1.2c-0.3-0.3-0.7-0.5-1.2-0.5c-0.5,0-0.9,0.2-1.2,0.5c-0.3,0.3-0.5,0.7-0.5,1.2
		c0,0.5,0.2,0.9,0.5,1.2c0.3,0.3,0.7,0.5,1.2,0.5c0.5,0,0.9-0.2,1.2-0.5C477.2,28.8,477.4,28.4,477.4,28z M494.9,44.5
		c0-0.5-0.2-1-0.5-1.3c-0.4-0.3-0.8-0.5-1.3-0.5c-0.5,0-0.9,0.2-1.3,0.5s-0.5,0.8-0.5,1.3c0,0.5,0.2,0.9,0.5,1.3
		c0.3,0.3,0.8,0.5,1.3,0.5c0.5,0,1-0.2,1.3-0.5C494.7,45.5,494.9,45,494.9,44.5z"/>
	<path class="st1" d="M501.4,49V38.2c0-0.6,0.1-1.3,0.3-1.9c0.2-0.6,0.5-1.1,0.9-1.6c0.4-0.5,0.9-0.8,1.5-1.1
		c0.6-0.3,1.4-0.4,2.3-0.4c0.7,0,1.3,0.1,1.9,0.4c0.6,0.2,1.1,0.6,1.5,1c0.4,0.4,0.7,0.9,1,1.4c0.2,0.5,0.3,1.1,0.3,1.7
		c0,0.6-0.1,1.2-0.3,1.8c-0.2,0.5-0.5,1-1,1.4c-0.4,0.4-0.9,0.7-1.4,1c-0.5,0.2-1.1,0.4-1.8,0.4h-1v3.5h10.1V32.2
		c0-1.8-0.5-3.1-1.6-4c-1-0.9-2.5-1.3-4.4-1.3c-0.9,0-1.7,0.1-2.5,0.3c-0.8,0.2-1.5,0.5-2.1,0.9c-0.6,0.4-1.1,0.9-1.5,1.5
		c-0.4,0.6-0.6,1.3-0.6,2.1h-4.2c0-1.3,0.4-2.5,1-3.5s1.4-1.9,2.3-2.6s2.1-1.2,3.4-1.5c1.3-0.4,2.6-0.5,4-0.5c1.4,0,2.8,0.2,4.1,0.5
		c1.3,0.3,2.4,0.9,3.3,1.6c0.9,0.7,1.7,1.6,2.2,2.7s0.8,2.3,0.8,3.8V49H501.4z M506.4,39.3c0.5,0,0.9-0.2,1.2-0.5
		c0.3-0.3,0.5-0.7,0.5-1.2c0-0.5-0.2-0.9-0.5-1.2c-0.3-0.3-0.7-0.5-1.2-0.5c-0.5,0-0.9,0.2-1.2,0.5c-0.3,0.3-0.5,0.7-0.5,1.2
		c0,0.5,0.2,0.9,0.5,1.2C505.5,39.1,505.9,39.3,506.4,39.3z"/>
	<path class="st1" d="M516.2,63.6v-4.2h-0.5c-0.7,0-1.4-0.1-1.9-0.3c-0.6-0.2-1-0.5-1.4-0.9c-0.4-0.4-0.7-0.8-0.9-1.3
		c-0.2-0.5-0.3-1-0.3-1.6c0-1.2,0.4-2.1,1.2-2.8c0.8-0.7,1.9-1.1,3.4-1.1c1.5,0,2.6,0.4,3.3,1.1c0.7,0.7,1.1,1.7,1.1,2.8v8.3H516.2z
		 M515.2,56.8c0.4,0,0.8-0.1,1-0.4c0.3-0.3,0.4-0.6,0.4-1c0-0.4-0.1-0.8-0.4-1c-0.3-0.3-0.6-0.4-1-0.4c-0.4,0-0.8,0.1-1,0.4
		c-0.3,0.3-0.4,0.6-0.4,1c0,0.4,0.1,0.8,0.4,1C514.4,56.7,514.8,56.8,515.2,56.8z"/>
	<path class="st1" d="M544.2,49V28.9c0-0.5-0.1-1-0.4-1.3s-0.7-0.5-1.2-0.5c-0.4,0-0.7,0.1-1,0.3c-0.3,0.2-0.5,0.5-0.6,0.8L533.7,49
		h-4.5V32.5h-0.9c-0.6,0-1.2-0.1-1.8-0.3c-0.6-0.2-1-0.5-1.4-0.9s-0.7-0.9-1-1.4c-0.2-0.5-0.4-1.1-0.4-1.8c0-0.6,0.1-1.2,0.3-1.7
		c0.2-0.5,0.5-1,1-1.4c0.4-0.4,0.9-0.7,1.5-1c0.6-0.2,1.2-0.4,2-0.4c0.9,0,1.6,0.1,2.3,0.4c0.6,0.3,1.2,0.6,1.6,1.1
		c0.4,0.5,0.7,1,0.9,1.6c0.2,0.6,0.3,1.2,0.3,1.9v12.1l3.6-13c0.4-1.4,1.1-2.4,1.9-3.1c0.9-0.7,2-1,3.5-1c0.9,0,1.7,0.1,2.4,0.4
		c0.7,0.3,1.4,0.6,1.9,1.1c0.5,0.5,0.9,1,1.2,1.7c0.3,0.7,0.4,1.4,0.4,2.2V49H544.2z M530.3,28c0-0.5-0.2-0.9-0.5-1.2
		c-0.3-0.3-0.7-0.5-1.2-0.5c-0.5,0-0.9,0.2-1.2,0.5c-0.3,0.3-0.5,0.7-0.5,1.2c0,0.5,0.2,0.9,0.5,1.2c0.3,0.3,0.7,0.5,1.2,0.5
		c0.5,0,0.9-0.2,1.2-0.5C530.1,28.8,530.3,28.4,530.3,28z"/>
	<path class="st1" d="M554.7,49v-7.6c0-1.2,0.3-2.2,0.8-3c0.5-0.8,1.2-1.3,2-1.6c-1.3-0.6-2.3-1.4-3-2.6c-0.7-1.1-1-2.6-1-4.3
		c0-0.8,0.2-1.7,0.5-2.4c0.3-0.8,0.7-1.4,1.3-2s1.2-1.1,1.9-1.4c0.7-0.4,1.5-0.5,2.4-0.5c0.8,0,1.5,0.1,2.1,0.3
		c0.6,0.2,1.1,0.5,1.5,0.9c0.4,0.4,0.7,0.9,1,1.4c0.2,0.5,0.3,1.1,0.3,1.7c0,0.6-0.1,1.2-0.3,1.7c-0.2,0.5-0.5,1-0.9,1.4
		s-0.9,0.7-1.4,0.9c-0.5,0.2-1.1,0.3-1.7,0.3c-0.5,0-0.9-0.1-1.4-0.3c-0.5-0.2-0.9-0.4-1.2-0.7c0,1.2,0.4,2,1.1,2.5
		c0.7,0.5,1.6,0.8,2.6,0.8h4.2v3.5h-3.6c-0.9,0-1.6,0.3-2.1,0.8c-0.5,0.5-0.7,1.4-0.7,2.5v4.2h10.5V23.8h4.3V49H554.7z M561.7,28
		c0-0.5-0.2-0.9-0.5-1.2c-0.3-0.3-0.7-0.5-1.2-0.5c-0.5,0-0.9,0.2-1.2,0.5c-0.3,0.3-0.5,0.7-0.5,1.2c0,0.5,0.2,0.9,0.5,1.2
		c0.3,0.3,0.7,0.5,1.2,0.5c0.5,0,0.9-0.2,1.2-0.5C561.6,28.8,561.7,28.4,561.7,28z"/>
	<path class="st1" d="M591.7,49V32c0-0.7-0.1-1.4-0.3-2c-0.2-0.6-0.5-1.2-0.9-1.6c-0.4-0.5-0.9-0.8-1.5-1.1
		c-0.6-0.3-1.4-0.4-2.2-0.4c-0.8,0-1.4,0.1-2,0.4s-1,0.6-1.4,1c-0.4,0.4-0.7,1-0.9,1.6c-0.2,0.6-0.4,1.3-0.5,2h-4.3
		c0.1-1.2,0.4-2.3,0.8-3.3c0.4-1,1-1.9,1.8-2.6c0.7-0.7,1.7-1.3,2.7-1.7c1.1-0.4,2.3-0.6,3.8-0.6c1.6,0,3,0.2,4.2,0.6
		c1.2,0.4,2.1,1,2.8,1.7c0.7,0.7,1.3,1.6,1.6,2.7c0.3,1,0.5,2.2,0.5,3.4v17H591.7z"/>
	<path class="st1" d="M609.4,49H605V32.5h-0.9c-0.6,0-1.2-0.1-1.8-0.3c-0.6-0.2-1-0.5-1.4-0.9s-0.7-0.9-1-1.4
		c-0.2-0.5-0.4-1.1-0.4-1.8c0-0.6,0.1-1.2,0.3-1.7c0.2-0.5,0.5-1,1-1.4c0.4-0.4,0.9-0.7,1.5-1c0.6-0.2,1.2-0.4,2-0.4
		c0.9,0,1.6,0.1,2.3,0.4c0.6,0.3,1.2,0.6,1.6,1.1c0.4,0.5,0.7,1,0.9,1.6c0.2,0.6,0.3,1.2,0.3,1.9V45l9.6-4.9V23.8h4.3V40
		c1,0.3,1.9,0.9,2.5,1.7c0.6,0.8,0.9,1.8,0.9,2.9c0,0.6-0.1,1.2-0.4,1.8c-0.2,0.6-0.6,1.1-1,1.5c-0.4,0.4-0.9,0.8-1.5,1
		c-0.6,0.3-1.2,0.4-1.8,0.4c-0.7,0-1.3-0.1-1.9-0.3c-0.6-0.2-1.1-0.5-1.5-0.9c-0.4-0.4-0.8-0.8-1-1.4c-0.2-0.5-0.4-1.1-0.4-1.7
		L609.4,49z M606.1,28c0-0.5-0.2-0.9-0.5-1.2c-0.3-0.3-0.7-0.5-1.2-0.5c-0.5,0-0.9,0.2-1.2,0.5c-0.3,0.3-0.5,0.7-0.5,1.2
		c0,0.5,0.2,0.9,0.5,1.2c0.3,0.3,0.7,0.5,1.2,0.5c0.5,0,0.9-0.2,1.2-0.5C605.9,28.8,606.1,28.4,606.1,28z M623.6,44.5
		c0-0.5-0.2-1-0.5-1.3c-0.4-0.3-0.8-0.5-1.3-0.5c-0.5,0-0.9,0.2-1.3,0.5s-0.5,0.8-0.5,1.3c0,0.5,0.2,0.9,0.5,1.3
		c0.3,0.3,0.8,0.5,1.3,0.5c0.5,0,1-0.2,1.3-0.5C623.4,45.5,623.6,45,623.6,44.5z"/>
	<path class="st1" d="M635.3,40.4c0.6,0,1.2,0.1,1.8,0.3c0.5,0.2,1,0.5,1.4,1c0.4,0.4,0.7,0.9,1,1.4c0.2,0.5,0.3,1.1,0.3,1.8
		c0,0.6-0.1,1.2-0.3,1.7c-0.2,0.5-0.5,1-1,1.4c-0.4,0.4-0.9,0.7-1.5,1c-0.6,0.2-1.2,0.4-1.9,0.4c-0.9,0-1.7-0.1-2.3-0.4
		s-1.1-0.6-1.5-1.1c-0.4-0.5-0.7-1-0.9-1.6c-0.2-0.6-0.3-1.2-0.3-1.9V23.8h4.2v16.6H635.3z M636.7,44.9c0-0.5-0.2-0.9-0.5-1.2
		c-0.3-0.3-0.7-0.5-1.2-0.5c-0.5,0-0.9,0.2-1.2,0.5c-0.3,0.3-0.5,0.7-0.5,1.2c0,0.5,0.2,0.9,0.5,1.2c0.3,0.3,0.7,0.5,1.2,0.5
		c0.5,0,0.9-0.2,1.2-0.5C636.5,45.8,636.7,45.4,636.7,44.9z M646.7,40.4c0.7,0,1.3,0.1,1.8,0.3c0.5,0.2,1,0.5,1.4,1
		c0.4,0.4,0.7,0.9,0.9,1.4c0.2,0.5,0.3,1.1,0.3,1.8c0,0.6-0.1,1.2-0.3,1.7c-0.2,0.5-0.5,1-1,1.4c-0.4,0.4-0.9,0.7-1.5,1
		c-0.6,0.2-1.2,0.4-1.9,0.4c-0.9,0-1.6-0.1-2.3-0.4s-1.2-0.6-1.6-1.1c-0.4-0.5-0.7-1-0.9-1.6c-0.2-0.6-0.3-1.2-0.3-1.9V23.8h4.2
		v16.6H646.7z M648.1,44.9c0-0.5-0.2-0.9-0.5-1.2c-0.3-0.3-0.7-0.5-1.2-0.5c-0.5,0-0.9,0.2-1.2,0.5c-0.3,0.3-0.5,0.7-0.5,1.2
		c0,0.5,0.2,0.9,0.5,1.2c0.3,0.3,0.7,0.5,1.2,0.5c0.5,0,0.9-0.2,1.2-0.5C647.9,45.8,648.1,45.4,648.1,44.9z"/>
	<path class="st1" d="M671.6,49V35.3c0-1.4-0.2-2.1-0.5-2.1c-0.1,0-0.3,0.1-0.5,0.4s-0.5,0.7-0.9,1.2L661.3,49h-3.9V32.5h-0.9
		c-0.6,0-1.2-0.1-1.8-0.3c-0.6-0.2-1-0.5-1.4-0.9c-0.4-0.4-0.7-0.9-1-1.4c-0.2-0.5-0.4-1.1-0.4-1.8c0-0.6,0.1-1.2,0.3-1.7
		c0.2-0.5,0.5-1,1-1.4c0.4-0.4,0.9-0.7,1.5-1c0.6-0.2,1.2-0.4,2-0.4c0.9,0,1.6,0.1,2.3,0.4c0.6,0.3,1.2,0.6,1.5,1.1
		c0.4,0.5,0.7,1,0.9,1.6c0.2,0.6,0.3,1.2,0.3,1.9v9.4c0,0.5,0,1-0.1,1.7c-0.1,0.6-0.1,1.3-0.2,1.9c-0.1,0.6-0.2,1.1-0.2,1.5
		c-0.1,0.4-0.1,0.7-0.1,0.7c0-0.1,0.1-0.3,0.3-0.7c0.2-0.4,0.4-0.9,0.6-1.5c0.2-0.5,0.5-1.1,0.7-1.6c0.2-0.6,0.5-1,0.6-1.3l2.9-5.2
		c0.2-0.4,0.5-0.8,0.8-1.2c0.3-0.4,0.6-0.7,0.9-1c-0.4-0.5-0.7-1-0.9-1.4c-0.2-0.5-0.3-1-0.3-1.6c0-0.6,0.1-1.2,0.4-1.8
		c0.2-0.5,0.6-1,1-1.4c0.4-0.4,1-0.7,1.6-1c0.6-0.2,1.3-0.4,2-0.4c0.7,0,1.4,0.1,2,0.4c0.6,0.2,1.1,0.6,1.6,1c0.4,0.4,0.8,0.9,1,1.4
		c0.3,0.5,0.4,1.1,0.4,1.8c0,0.7-0.2,1.4-0.5,2c-0.3,0.6-0.8,1.1-1.4,1.6c0.4,0.5,0.6,1.1,0.8,1.7c0.1,0.6,0.2,1.3,0.2,2.1V49H671.6
		z M658.5,28c0-0.5-0.2-0.9-0.5-1.2c-0.3-0.3-0.7-0.5-1.2-0.5c-0.5,0-0.9,0.2-1.2,0.5c-0.3,0.3-0.5,0.7-0.5,1.2
		c0,0.5,0.2,0.9,0.5,1.2c0.3,0.3,0.7,0.5,1.2,0.5c0.5,0,0.9-0.2,1.2-0.5C658.3,28.8,658.5,28.4,658.5,28z M673.5,28
		c0-0.5-0.2-0.9-0.5-1.2c-0.3-0.3-0.7-0.5-1.2-0.5c-0.5,0-0.9,0.2-1.2,0.5c-0.3,0.3-0.5,0.7-0.5,1.2c0,0.5,0.2,0.9,0.5,1.2
		c0.3,0.3,0.7,0.5,1.2,0.5c0.5,0,0.9-0.2,1.2-0.5C673.3,28.8,673.5,28.4,673.5,28z"/>
	<path class="st1" d="M671.5,20.3v-9.7h4.3v9.7H671.5z"/>
	<path class="st1" d="M691.9,49l-12.4-13l2.7-2.8l9.6,10.4V32.5h-1c-0.6,0-1.2-0.1-1.8-0.3c-0.5-0.2-1-0.5-1.4-0.9s-0.7-0.9-1-1.4
		c-0.2-0.5-0.3-1.1-0.3-1.8c0-0.6,0.1-1.2,0.3-1.7c0.2-0.5,0.5-1,1-1.4c0.4-0.4,0.9-0.7,1.5-1c0.6-0.2,1.2-0.4,1.9-0.4
		c0.9,0,1.7,0.1,2.3,0.4c0.6,0.3,1.2,0.6,1.6,1.1c0.4,0.5,0.7,1,0.9,1.6c0.2,0.6,0.3,1.2,0.3,1.9V49H691.9z M692.8,28
		c0-0.5-0.2-0.9-0.5-1.2c-0.3-0.3-0.7-0.5-1.2-0.5c-0.5,0-0.9,0.2-1.2,0.5c-0.3,0.3-0.5,0.7-0.5,1.2c0,0.5,0.2,0.9,0.5,1.2
		c0.3,0.3,0.7,0.5,1.2,0.5c0.5,0,0.9-0.2,1.2-0.5C692.7,28.8,692.8,28.4,692.8,28z"/>
	<path class="st1" d="M710.1,49V30.2c0-1.2-0.3-2.1-0.9-2.7c-0.6-0.6-1.3-0.9-2.3-0.9c-0.4,0-0.9,0.1-1.3,0.3
		c-0.4,0.2-0.8,0.4-1,0.7c0.7,0,1.3,0.1,1.9,0.4c0.5,0.2,1,0.5,1.4,0.9c0.4,0.4,0.6,0.8,0.8,1.3c0.2,0.5,0.3,1,0.3,1.5
		c0,0.6-0.1,1.2-0.3,1.7c-0.2,0.5-0.5,0.9-0.9,1.3c-0.4,0.4-0.9,0.7-1.4,0.9c-0.6,0.2-1.2,0.3-1.8,0.3c-0.7,0-1.4-0.1-1.9-0.4
		c-0.6-0.3-1.1-0.7-1.5-1.2c-0.4-0.5-0.7-1.1-0.9-1.7c-0.2-0.7-0.3-1.4-0.3-2.1c0-1,0.2-2,0.6-2.8c0.4-0.8,0.9-1.6,1.5-2.2
		c0.7-0.6,1.4-1.1,2.3-1.4c0.9-0.3,1.8-0.5,2.8-0.5c1,0,2,0.1,2.9,0.4c0.9,0.3,1.7,0.7,2.3,1.3c0.7,0.6,1.2,1.3,1.6,2.1
		c0.4,0.9,0.6,1.9,0.6,3v15.2h4.4V33.5c0-1.3-0.2-2.2-0.6-3s-1.2-1.3-2.4-1.7l7.3-6.9l3,2.4l-4.8,4.4c1.2,0.9,1.9,2.4,1.9,4.6V49
		H710.1z M706.1,31.6c0-0.5-0.2-0.9-0.5-1.2c-0.3-0.3-0.7-0.5-1.2-0.5s-0.9,0.2-1.2,0.5c-0.3,0.3-0.5,0.7-0.5,1.2
		c0,0.5,0.2,0.9,0.5,1.2c0.3,0.3,0.7,0.5,1.2,0.5s0.9-0.2,1.2-0.5C705.9,32.5,706.1,32.1,706.1,31.6z"/>
	<path class="st1" d="M741,49V32c0-0.7-0.1-1.4-0.3-2c-0.2-0.6-0.5-1.2-0.9-1.6c-0.4-0.5-0.9-0.8-1.5-1.1c-0.6-0.3-1.4-0.4-2.2-0.4
		c-0.8,0-1.4,0.1-2,0.4c-0.6,0.2-1,0.6-1.4,1s-0.7,1-0.9,1.6c-0.2,0.6-0.4,1.3-0.5,2H727c0.1-1.2,0.4-2.3,0.8-3.3
		c0.4-1,1-1.9,1.8-2.6c0.7-0.7,1.7-1.3,2.7-1.7c1.1-0.4,2.3-0.6,3.8-0.6c1.6,0,3,0.2,4.2,0.6c1.2,0.4,2.1,1,2.8,1.7
		c0.7,0.7,1.3,1.6,1.6,2.7c0.3,1,0.5,2.2,0.5,3.4v17H741z"/>
	<path class="st1" d="M768.6,49V33.1c0-0.8,0-1.5-0.1-2.1c-0.1-0.7-0.3-1.3-0.5-1.8c-0.2-0.5-0.5-1-0.9-1.4
		c-0.4-0.4-0.8-0.7-1.4-0.9l-3.7,2.5l-3.7-2.5c-0.6,0.2-1,0.5-1.4,0.9c-0.4,0.4-0.7,0.8-0.9,1.4c-0.2,0.5-0.4,1.1-0.5,1.8
		c-0.1,0.7-0.1,1.4-0.1,2.1v11.3l4.8-4.4c-0.8-0.3-1.4-0.8-1.8-1.5c-0.4-0.7-0.6-1.4-0.6-2.2c0-0.6,0.1-1.1,0.3-1.6
		c0.2-0.5,0.5-0.9,0.9-1.3c0.4-0.4,0.8-0.7,1.3-0.9c0.5-0.2,1.1-0.3,1.7-0.3c0.6,0,1.2,0.1,1.7,0.3c0.5,0.2,1,0.5,1.3,0.9
		c0.4,0.4,0.7,0.8,0.9,1.3c0.2,0.5,0.3,1,0.3,1.6c0,0.5-0.1,0.9-0.2,1.4c-0.1,0.4-0.3,0.8-0.5,1.1s-0.4,0.6-0.6,0.9
		c-0.2,0.3-0.4,0.5-0.7,0.7l-9,8.6H751V33.3c0-1.2,0.1-2.3,0.4-3.4c0.3-1.1,0.7-2,1.3-2.9c0.6-0.9,1.3-1.6,2.3-2.2
		c0.9-0.6,2-1,3.3-1.3l3.6,2.9l3.7-2.9c1.3,0.2,2.4,0.7,3.3,1.3c0.9,0.6,1.6,1.3,2.2,2.2c0.6,0.9,1,1.8,1.3,2.9
		c0.3,1.1,0.4,2.2,0.4,3.5V49H768.6z M763.4,36.3c0-0.4-0.1-0.8-0.4-1.1c-0.3-0.3-0.7-0.5-1.2-0.5c-0.5,0-0.9,0.2-1.1,0.5
		c-0.3,0.3-0.4,0.7-0.4,1.1s0.1,0.8,0.4,1.1c0.3,0.3,0.7,0.5,1.1,0.5c0.5,0,0.9-0.2,1.2-0.5C763.3,37.1,763.4,36.7,763.4,36.3z"/>
	<path class="st1" d="M772.8,21.3c-1.3-0.6-2.6-1.2-4.1-1.6c-1.4-0.5-2.9-0.9-4.5-1.3c-1.5-0.4-3.1-0.6-4.7-0.8
		c-1.6-0.2-3.2-0.3-4.8-0.3c-0.8,0-1.6,0-2.3,0c-0.7,0-1.5,0.1-2.2,0.2c1-2.7,2.5-4.7,4.4-6.1c1.9-1.4,4.1-2.1,6.8-2.1
		c1.6,0,3.1,0.3,4.5,0.9c1.4,0.6,2.5,1.4,3.5,2.5c1,1.1,1.8,2.3,2.4,3.8C772.3,18,772.7,19.6,772.8,21.3z M756.8,14.7
		c1,0,1.9,0,2.9,0.1c0.9,0.1,1.9,0.2,2.8,0.4c1,0.2,1.9,0.4,2.9,0.7c1,0.3,2,0.6,3,0.9c-0.3-0.6-0.7-1.1-1.2-1.7
		c-0.5-0.5-1-1-1.6-1.4c-0.6-0.4-1.3-0.7-2-1c-0.7-0.3-1.5-0.4-2.4-0.4c-1.4,0-2.5,0.2-3.4,0.7s-1.7,1-2.3,1.7H756.8z"/>
</g>
<g class="st0">
	<path class="st1" d="M69,107.4c0.6,0,1.2,0.1,1.8,0.3c0.5,0.2,1,0.5,1.4,1c0.4,0.4,0.7,0.9,1,1.4c0.2,0.5,0.3,1.1,0.3,1.8
		c0,0.6-0.1,1.2-0.3,1.7c-0.2,0.5-0.5,1-1,1.4c-0.4,0.4-0.9,0.7-1.5,1c-0.6,0.2-1.2,0.4-1.9,0.4c-0.9,0-1.7-0.1-2.3-0.4
		c-0.6-0.3-1.1-0.6-1.5-1.1c-0.4-0.5-0.7-1-0.9-1.6c-0.2-0.6-0.3-1.2-0.3-1.9V90.8H68v16.6H69z M70.4,111.9c0-0.5-0.2-0.9-0.5-1.2
		c-0.3-0.3-0.7-0.5-1.2-0.5c-0.5,0-0.9,0.2-1.2,0.5c-0.3,0.3-0.5,0.7-0.5,1.2c0,0.5,0.2,0.9,0.5,1.2c0.3,0.3,0.7,0.5,1.2,0.5
		c0.5,0,0.9-0.2,1.2-0.5C70.2,112.8,70.4,112.4,70.4,111.9z"/>
	<path class="st1" d="M84.6,116V97.2c0-1.2-0.3-2.1-0.9-2.7c-0.6-0.6-1.3-0.9-2.3-0.9c-0.4,0-0.9,0.1-1.3,0.3
		c-0.4,0.2-0.8,0.4-1,0.7c0.7,0,1.3,0.1,1.9,0.4c0.5,0.2,1,0.5,1.4,0.9c0.4,0.4,0.6,0.8,0.8,1.3c0.2,0.5,0.3,1,0.3,1.5
		c0,0.6-0.1,1.2-0.3,1.7c-0.2,0.5-0.5,0.9-0.9,1.3c-0.4,0.4-0.9,0.7-1.4,0.9c-0.6,0.2-1.2,0.3-1.8,0.3c-0.7,0-1.4-0.1-1.9-0.4
		c-0.6-0.3-1.1-0.7-1.5-1.2c-0.4-0.5-0.7-1.1-0.9-1.7c-0.2-0.7-0.3-1.4-0.3-2.1c0-1,0.2-2,0.6-2.8c0.4-0.8,0.9-1.6,1.5-2.2
		c0.6-0.6,1.4-1.1,2.3-1.4c0.9-0.3,1.8-0.5,2.8-0.5c1,0,2,0.1,2.9,0.4c0.9,0.3,1.7,0.7,2.3,1.3c0.7,0.6,1.2,1.3,1.6,2.1
		c0.4,0.9,0.6,1.9,0.6,3v15.2h4.4V90.8h4.3V116H84.6z M80.6,98.6c0-0.5-0.2-0.9-0.5-1.2C79.8,97.2,79.4,97,79,97
		c-0.5,0-0.9,0.2-1.2,0.5c-0.3,0.3-0.5,0.7-0.5,1.2c0,0.5,0.2,0.9,0.5,1.2c0.3,0.3,0.7,0.5,1.2,0.5c0.5,0,0.9-0.2,1.2-0.5
		C80.5,99.5,80.6,99.1,80.6,98.6z"/>
	<path class="st1" d="M115.5,116V99c0-0.7-0.1-1.4-0.3-2c-0.2-0.6-0.5-1.2-0.9-1.6c-0.4-0.5-0.9-0.8-1.5-1.1
		c-0.6-0.3-1.4-0.4-2.2-0.4c-0.8,0-1.4,0.1-2,0.4s-1,0.6-1.4,1c-0.4,0.4-0.7,1-0.9,1.6c-0.2,0.6-0.4,1.3-0.5,2h-4.3
		c0.1-1.2,0.4-2.3,0.8-3.3c0.4-1,1-1.9,1.8-2.6c0.7-0.7,1.7-1.3,2.7-1.7c1.1-0.4,2.3-0.6,3.8-0.6c1.6,0,3,0.2,4.2,0.6
		c1.2,0.4,2.1,1,2.8,1.7c0.7,0.7,1.3,1.6,1.6,2.7c0.3,1,0.5,2.2,0.5,3.4v17H115.5z"/>
	<path class="st1" d="M135.9,107.4c0.6,0,1.2,0.1,1.8,0.3c0.5,0.2,1,0.5,1.4,1c0.4,0.4,0.7,0.9,0.9,1.4c0.2,0.5,0.3,1.1,0.3,1.8
		c0,0.6-0.1,1.2-0.3,1.7c-0.2,0.5-0.5,1-1,1.4c-0.4,0.4-0.9,0.7-1.5,1c-0.6,0.2-1.2,0.4-2,0.4c-0.9,0-1.7-0.1-2.3-0.4
		c-0.6-0.3-1.1-0.6-1.5-1.1c-0.4-0.5-0.7-1-0.9-1.6c-0.2-0.6-0.3-1.2-0.3-1.9V82.5c0-1.3-0.3-2.2-0.8-2.7c-0.5-0.5-1.3-0.8-2.3-0.8
		c-0.4,0-0.8,0-1,0.1c-0.3,0.1-0.5,0.2-0.7,0.4c-0.2,0.2-0.3,0.3-0.4,0.5c-0.1,0.2-0.2,0.4-0.2,0.5c1.5,0,2.6,0.4,3.3,1.2
		c0.7,0.8,1.1,1.8,1.1,3c0,0.6-0.1,1.2-0.3,1.7c-0.2,0.5-0.5,0.9-0.9,1.3c-0.4,0.4-0.9,0.7-1.4,0.9c-0.6,0.2-1.2,0.3-1.9,0.3
		c-0.7,0-1.4-0.1-2-0.4c-0.6-0.3-1.1-0.7-1.5-1.1c-0.4-0.5-0.8-1.1-1-1.7c-0.2-0.7-0.4-1.4-0.4-2.2c0-1,0.2-1.9,0.5-2.8
		c0.3-0.9,0.7-1.7,1.3-2.4c0.6-0.7,1.3-1.2,2.3-1.6c0.9-0.4,2-0.6,3.2-0.6c1.1,0,2.1,0.1,3,0.4c0.9,0.3,1.7,0.7,2.3,1.3
		c0.7,0.6,1.2,1.2,1.5,2.1c0.3,0.8,0.5,1.8,0.5,2.8v24.9H135.9z M126.8,84.7c0-0.5-0.2-0.9-0.5-1.2c-0.3-0.3-0.7-0.5-1.2-0.5
		c-0.5,0-0.9,0.2-1.2,0.5c-0.3,0.3-0.5,0.7-0.5,1.2c0,0.5,0.2,0.9,0.5,1.2c0.3,0.3,0.7,0.5,1.2,0.5c0.5,0,0.9-0.2,1.2-0.5
		C126.6,85.6,126.8,85.2,126.8,84.7z M137.2,111.9c0-0.5-0.2-0.9-0.5-1.2c-0.3-0.3-0.7-0.5-1.2-0.5c-0.5,0-0.9,0.2-1.2,0.5
		c-0.3,0.3-0.5,0.7-0.5,1.2c0,0.5,0.2,0.9,0.5,1.2c0.3,0.3,0.7,0.5,1.2,0.5c0.5,0,0.9-0.2,1.2-0.5
		C137.1,112.8,137.2,112.4,137.2,111.9z"/>
	<path class="st1" d="M160.7,116v-13.7c0-1.4-0.2-2.1-0.5-2.1c-0.1,0-0.3,0.1-0.5,0.4s-0.5,0.7-0.9,1.2l-8.3,14.1h-3.9V99.5h-0.9
		c-0.6,0-1.2-0.1-1.8-0.3c-0.6-0.2-1-0.5-1.4-0.9c-0.4-0.4-0.7-0.9-1-1.4c-0.2-0.5-0.4-1.1-0.4-1.8c0-0.6,0.1-1.2,0.3-1.7
		c0.2-0.5,0.5-1,1-1.4c0.4-0.4,0.9-0.7,1.5-1c0.6-0.2,1.2-0.4,2-0.4c0.9,0,1.6,0.1,2.3,0.4c0.6,0.3,1.2,0.6,1.6,1.1
		c0.4,0.5,0.7,1,0.9,1.6c0.2,0.6,0.3,1.2,0.3,1.9v9.4c0,0.5,0,1-0.1,1.7c-0.1,0.6-0.1,1.3-0.2,1.9c-0.1,0.6-0.2,1.1-0.2,1.5
		c-0.1,0.4-0.1,0.7-0.1,0.7c0-0.1,0.1-0.3,0.3-0.7c0.2-0.4,0.4-0.9,0.6-1.5c0.2-0.5,0.5-1.1,0.7-1.6c0.2-0.6,0.5-1,0.6-1.3l2.9-5.2
		c0.2-0.4,0.5-0.8,0.8-1.2c0.3-0.4,0.6-0.7,0.9-1c-0.4-0.5-0.7-1-0.9-1.4c-0.2-0.5-0.3-1-0.3-1.6c0-0.6,0.1-1.2,0.4-1.8
		c0.2-0.5,0.6-1,1-1.4c0.4-0.4,1-0.7,1.6-1c0.6-0.2,1.3-0.4,2-0.4c0.7,0,1.4,0.1,2,0.4c0.6,0.2,1.1,0.6,1.6,1c0.4,0.4,0.8,0.9,1,1.4
		c0.3,0.5,0.4,1.1,0.4,1.8c0,0.7-0.2,1.4-0.5,2c-0.3,0.6-0.8,1.1-1.4,1.6c0.4,0.5,0.6,1.1,0.8,1.7c0.1,0.6,0.2,1.3,0.2,2.1V116
		H160.7z M147.6,95c0-0.5-0.2-0.9-0.5-1.2c-0.3-0.3-0.7-0.5-1.2-0.5c-0.5,0-0.9,0.2-1.2,0.5c-0.3,0.3-0.5,0.7-0.5,1.2
		c0,0.5,0.2,0.9,0.5,1.2c0.3,0.3,0.7,0.5,1.2,0.5c0.5,0,0.9-0.2,1.2-0.5C147.5,95.8,147.6,95.4,147.6,95z M162.6,95
		c0-0.5-0.2-0.9-0.5-1.2c-0.3-0.3-0.7-0.5-1.2-0.5c-0.5,0-0.9,0.2-1.2,0.5c-0.3,0.3-0.5,0.7-0.5,1.2c0,0.5,0.2,0.9,0.5,1.2
		c0.3,0.3,0.7,0.5,1.2,0.5c0.5,0,0.9-0.2,1.2-0.5C162.5,95.8,162.6,95.4,162.6,95z"/>
	<path class="st1" d="M186.5,116v-15.9c0-0.9-0.2-1.7-0.5-2.5c-0.3-0.8-0.8-1.4-1.4-2c-0.6-0.6-1.3-1-2.1-1.3
		c-0.8-0.3-1.7-0.5-2.6-0.5c-1.4,0-2.5,0.3-3.5,0.9c-1,0.6-1.8,1.5-2.3,2.6l2.2,2.4v7.5h0.9c0.6,0,1.2,0.1,1.8,0.3
		c0.5,0.2,1,0.5,1.4,1c0.4,0.4,0.7,0.9,0.9,1.4c0.2,0.5,0.3,1.1,0.3,1.8c0,0.6-0.1,1.2-0.3,1.7c-0.2,0.5-0.5,1-1,1.4
		c-0.4,0.4-0.9,0.7-1.5,1c-0.6,0.2-1.2,0.4-1.9,0.4c-0.9,0-1.7-0.1-2.3-0.4s-1.2-0.6-1.6-1.1c-0.4-0.5-0.7-1-0.9-1.6
		c-0.2-0.6-0.3-1.2-0.3-1.9v-10.5l-2.5-2.8c0.3-1.1,0.8-2.1,1.4-3.1c0.6-0.9,1.3-1.7,2.2-2.3c0.9-0.6,1.9-1.1,3.1-1.5
		c1.2-0.4,2.4-0.5,3.9-0.5c1.7,0,3.2,0.2,4.5,0.7c1.3,0.5,2.5,1.1,3.4,2c0.9,0.9,1.6,1.9,2.1,3.1c0.5,1.2,0.8,2.5,0.8,3.9v12.4h7.3
		V90.8h4.3V116H186.5z M178.6,111.9c0-0.5-0.2-0.9-0.5-1.2c-0.3-0.3-0.7-0.5-1.2-0.5c-0.5,0-0.9,0.2-1.2,0.5
		c-0.3,0.3-0.5,0.7-0.5,1.2c0,0.5,0.2,0.9,0.5,1.2c0.3,0.3,0.7,0.5,1.2,0.5c0.5,0,0.9-0.2,1.2-0.5
		C178.4,112.8,178.6,112.4,178.6,111.9z M202.5,118.2c-0.1,1.4-0.3,2.6-0.7,3.8c-0.4,1.1-0.9,2.1-1.7,2.9c-0.7,0.8-1.7,1.4-2.8,1.9
		c-1.1,0.4-2.5,0.7-4.1,0.7c-1.1,0-2.1-0.1-3-0.4c-0.9-0.3-1.6-0.7-2.3-1.2c-0.6-0.5-1.1-1.1-1.4-1.8c-0.3-0.7-0.5-1.5-0.5-2.3
		c0-0.5,0.1-1,0.3-1.4c0.2-0.5,0.5-0.9,0.9-1.2c0.4-0.3,0.8-0.6,1.3-0.8c0.5-0.2,1-0.3,1.6-0.3s1.1,0.1,1.6,0.3
		c0.5,0.2,0.9,0.5,1.3,0.8c0.4,0.4,0.7,0.8,0.9,1.2c0.2,0.5,0.3,0.9,0.3,1.4c0,0.3,0,0.6-0.1,0.9c-0.1,0.3-0.2,0.6-0.3,0.9
		c-0.1,0.3-0.3,0.5-0.5,0.7c-0.2,0.2-0.4,0.3-0.7,0.4c0.9,0,1.7-0.1,2.4-0.3c0.7-0.2,1.3-0.6,1.8-1.1c0.5-0.5,0.8-1.1,1.1-1.9
		c0.3-0.8,0.4-1.8,0.4-2.9H202.5z M191.7,121.5c0-0.4-0.1-0.8-0.4-1c-0.3-0.3-0.7-0.4-1.1-0.4c-0.4,0-0.8,0.1-1,0.4
		c-0.3,0.3-0.4,0.6-0.4,1c0,0.4,0.1,0.8,0.4,1.1c0.3,0.3,0.6,0.4,1,0.4c0.4,0,0.8-0.1,1.1-0.4S191.7,122,191.7,121.5z"/>
	<path class="st1" d="M198,87.3v-9.7h4.3v9.7H198z"/>
	<path class="st1" d="M225.9,116l-8.6-4c0,0.6-0.1,1.2-0.4,1.7c-0.2,0.5-0.6,1-1,1.4s-0.9,0.7-1.5,0.9c-0.6,0.2-1.2,0.3-1.9,0.3
		c-0.6,0-1.3-0.1-1.8-0.4c-0.6-0.3-1.1-0.6-1.5-1c-0.4-0.4-0.8-0.9-1-1.5c-0.2-0.6-0.4-1.2-0.4-1.8c0-0.7,0.1-1.3,0.4-1.9
		c0.3-0.6,0.6-1.1,1-1.5s0.9-0.8,1.5-1c0.6-0.3,1.2-0.4,1.8-0.4h0.5v-7.3h-1c-0.6,0-1.2-0.1-1.8-0.3c-0.6-0.2-1-0.5-1.4-0.9
		c-0.4-0.4-0.7-0.9-1-1.4c-0.2-0.5-0.4-1.1-0.4-1.8c0-0.6,0.1-1.2,0.3-1.7c0.2-0.5,0.6-1,1-1.4c0.4-0.4,0.9-0.7,1.5-1
		c0.6-0.2,1.2-0.4,1.9-0.4c0.9,0,1.7,0.1,2.3,0.4c0.6,0.3,1.1,0.6,1.5,1.1c0.4,0.5,0.7,1,0.9,1.6c0.2,0.6,0.3,1.2,0.3,1.9v13
		l8.6,3.9V90.8h4.3V116H225.9z M214.1,95c0-0.5-0.2-0.9-0.5-1.2c-0.3-0.3-0.7-0.5-1.2-0.5c-0.5,0-0.9,0.2-1.2,0.5
		c-0.3,0.3-0.5,0.7-0.5,1.2c0,0.5,0.2,0.9,0.5,1.2c0.3,0.3,0.7,0.5,1.2,0.5c0.5,0,0.9-0.2,1.2-0.5C214,95.8,214.1,95.4,214.1,95z
		 M214.5,111.5c0-0.5-0.2-1-0.5-1.3s-0.8-0.5-1.3-0.5c-0.5,0-0.9,0.2-1.3,0.5s-0.5,0.8-0.5,1.3c0,0.5,0.2,0.9,0.5,1.3
		c0.3,0.3,0.8,0.5,1.3,0.5c0.5,0,0.9-0.2,1.3-0.5C214.3,112.5,214.5,112,214.5,111.5z"/>
	<path class="st1" d="M226.1,74.6h4.2v13.7c-1.3-0.6-2.6-1.2-4.1-1.6c-1.4-0.5-2.9-0.9-4.5-1.3c-1.5-0.4-3.1-0.6-4.7-0.8
		c-1.6-0.2-3.2-0.3-4.8-0.3c-0.8,0-1.6,0-2.3,0c-0.7,0-1.5,0.1-2.2,0.2c1-2.7,2.5-4.7,4.4-6.1c1.9-1.4,4.1-2.1,6.8-2.1
		c1.5,0,2.8,0.2,4,0.7c1.2,0.5,2.3,1.1,3.3,2V74.6z M214.2,81.7c1,0,1.9,0,2.9,0.1c0.9,0.1,1.9,0.2,2.8,0.4c1,0.2,1.9,0.4,2.9,0.7
		c1,0.3,2,0.6,3,0.9c-0.3-0.6-0.7-1.1-1.2-1.7s-1-1-1.6-1.4c-0.6-0.4-1.3-0.7-2-1c-0.7-0.3-1.5-0.4-2.4-0.4c-1.4,0-2.5,0.2-3.4,0.7
		s-1.7,1-2.3,1.7H214.2z"/>
	<path class="st1" d="M253.8,116l-8.6-4c0,0.6-0.1,1.2-0.4,1.7c-0.2,0.5-0.6,1-1,1.4s-0.9,0.7-1.5,0.9c-0.6,0.2-1.2,0.3-1.9,0.3
		c-0.6,0-1.3-0.1-1.8-0.4c-0.6-0.3-1.1-0.6-1.5-1c-0.4-0.4-0.8-0.9-1-1.5c-0.2-0.6-0.4-1.2-0.4-1.8c0-0.7,0.1-1.3,0.4-1.9
		c0.3-0.6,0.6-1.1,1-1.5s0.9-0.8,1.5-1c0.6-0.3,1.2-0.4,1.8-0.4h0.5v-7.3h-1c-0.6,0-1.2-0.1-1.8-0.3c-0.6-0.2-1-0.5-1.4-0.9
		c-0.4-0.4-0.7-0.9-1-1.4c-0.2-0.5-0.4-1.1-0.4-1.8c0-0.6,0.1-1.2,0.3-1.7c0.2-0.5,0.6-1,1-1.4c0.4-0.4,0.9-0.7,1.5-1
		c0.6-0.2,1.2-0.4,1.9-0.4c0.9,0,1.7,0.1,2.3,0.4c0.6,0.3,1.1,0.6,1.5,1.1c0.4,0.5,0.7,1,0.9,1.6c0.2,0.6,0.3,1.2,0.3,1.9v13
		l8.6,3.9V90.8h4.3V116H253.8z M242,95c0-0.5-0.2-0.9-0.5-1.2c-0.3-0.3-0.7-0.5-1.2-0.5c-0.5,0-0.9,0.2-1.2,0.5
		c-0.3,0.3-0.5,0.7-0.5,1.2c0,0.5,0.2,0.9,0.5,1.2c0.3,0.3,0.7,0.5,1.2,0.5c0.5,0,0.9-0.2,1.2-0.5C241.9,95.8,242,95.4,242,95z
		 M242.4,111.5c0-0.5-0.2-1-0.5-1.3s-0.8-0.5-1.3-0.5c-0.5,0-0.9,0.2-1.3,0.5s-0.5,0.8-0.5,1.3c0,0.5,0.2,0.9,0.5,1.3
		c0.3,0.3,0.8,0.5,1.3,0.5c0.5,0,0.9-0.2,1.3-0.5C242.2,112.5,242.4,112,242.4,111.5z"/>
	<path class="st1" d="M276,116V99c0-0.7-0.1-1.4-0.3-2c-0.2-0.6-0.5-1.2-0.9-1.6c-0.4-0.5-0.9-0.8-1.5-1.1c-0.6-0.3-1.4-0.4-2.2-0.4
		c-0.8,0-1.4,0.1-2,0.4s-1,0.6-1.4,1c-0.4,0.4-0.7,1-0.9,1.6c-0.2,0.6-0.4,1.3-0.5,2H262c0.1-1.2,0.4-2.3,0.8-3.3
		c0.4-1,1-1.9,1.8-2.6c0.7-0.7,1.7-1.3,2.7-1.7c1.1-0.4,2.3-0.6,3.8-0.6c1.6,0,3,0.2,4.2,0.6c1.2,0.4,2.1,1,2.8,1.7
		c0.7,0.7,1.3,1.6,1.6,2.7c0.3,1,0.5,2.2,0.5,3.4v17H276z"/>
	<path class="st1" d="M302.5,116v-15.9c0-0.9-0.2-1.7-0.6-2.5c-0.4-0.8-0.9-1.4-1.5-2c-0.6-0.6-1.4-1-2.2-1.3
		c-0.8-0.3-1.7-0.5-2.7-0.5c-0.6,0-1.3,0.1-1.9,0.2c-0.6,0.1-1.2,0.4-1.8,0.7c-0.5,0.3-1,0.7-1.5,1.1c-0.5,0.4-0.8,1-1.1,1.5
		l2.2,2.5V116h-4.3v-15.2l-2.6-2.8c0.3-1.1,0.8-2.1,1.5-3.1c0.7-0.9,1.5-1.7,2.4-2.3c0.9-0.6,2-1.1,3.2-1.5c1.2-0.4,2.5-0.5,3.8-0.5
		c1.7,0,3.2,0.2,4.6,0.7c1.4,0.5,2.6,1.1,3.5,2c1,0.9,1.8,1.9,2.3,3.1c0.6,1.2,0.8,2.5,0.8,3.9V116H302.5z"/>
	<path class="st1" d="M330.4,116l-8.6-4c0,0.6-0.1,1.2-0.4,1.7c-0.2,0.5-0.6,1-1,1.4s-0.9,0.7-1.5,0.9c-0.6,0.2-1.2,0.3-1.9,0.3
		c-0.6,0-1.3-0.1-1.8-0.4c-0.6-0.3-1.1-0.6-1.5-1c-0.4-0.4-0.8-0.9-1-1.5c-0.2-0.6-0.4-1.2-0.4-1.8c0-0.7,0.1-1.3,0.4-1.9
		c0.3-0.6,0.6-1.1,1-1.5s0.9-0.8,1.5-1c0.6-0.3,1.2-0.4,1.8-0.4h0.5v-7.3h-1c-0.6,0-1.2-0.1-1.8-0.3c-0.6-0.2-1-0.5-1.4-0.9
		c-0.4-0.4-0.7-0.9-1-1.4c-0.2-0.5-0.4-1.1-0.4-1.8c0-0.6,0.1-1.2,0.3-1.7c0.2-0.5,0.6-1,1-1.4c0.4-0.4,0.9-0.7,1.5-1
		c0.6-0.2,1.2-0.4,1.9-0.4c0.9,0,1.7,0.1,2.3,0.4c0.6,0.3,1.1,0.6,1.5,1.1c0.4,0.5,0.7,1,0.9,1.6c0.2,0.6,0.3,1.2,0.3,1.9v13
		l8.6,3.9V90.8h4.3V116H330.4z M318.6,95c0-0.5-0.2-0.9-0.5-1.2c-0.3-0.3-0.7-0.5-1.2-0.5c-0.5,0-0.9,0.2-1.2,0.5
		c-0.3,0.3-0.5,0.7-0.5,1.2c0,0.5,0.2,0.9,0.5,1.2c0.3,0.3,0.7,0.5,1.2,0.5c0.5,0,0.9-0.2,1.2-0.5C318.4,95.8,318.6,95.4,318.6,95z
		 M318.9,111.5c0-0.5-0.2-1-0.5-1.3s-0.8-0.5-1.3-0.5c-0.5,0-0.9,0.2-1.3,0.5s-0.5,0.8-0.5,1.3c0,0.5,0.2,0.9,0.5,1.3
		c0.3,0.3,0.8,0.5,1.3,0.5c0.5,0,0.9-0.2,1.3-0.5C318.7,112.5,318.9,112,318.9,111.5z"/>
	<path class="st1" d="M352.6,116V99c0-0.7-0.1-1.4-0.3-2c-0.2-0.6-0.5-1.2-0.9-1.6c-0.4-0.5-0.9-0.8-1.5-1.1
		c-0.6-0.3-1.4-0.4-2.2-0.4c-0.8,0-1.4,0.1-2,0.4s-1,0.6-1.4,1c-0.4,0.4-0.7,1-0.9,1.6c-0.2,0.6-0.4,1.3-0.5,2h-4.3
		c0.1-1.2,0.4-2.3,0.8-3.3c0.4-1,1-1.9,1.8-2.6c0.7-0.7,1.7-1.3,2.7-1.7c1.1-0.4,2.3-0.6,3.8-0.6c1.6,0,3,0.2,4.2,0.6
		c1.2,0.4,2.1,1,2.8,1.7c0.7,0.7,1.3,1.6,1.6,2.7c0.3,1,0.5,2.2,0.5,3.4v17H352.6z"/>
	<path class="st1" d="M363.1,116v-7.6c0-1.2,0.3-2.2,0.8-3c0.5-0.8,1.2-1.3,2-1.6c-1.3-0.6-2.3-1.4-3-2.6c-0.7-1.1-1-2.6-1-4.3
		c0-0.8,0.2-1.7,0.5-2.4c0.3-0.8,0.7-1.4,1.3-2c0.5-0.6,1.2-1.1,1.9-1.4c0.7-0.4,1.5-0.5,2.4-0.5c0.8,0,1.5,0.1,2.1,0.3
		c0.6,0.2,1.1,0.5,1.6,0.9c0.4,0.4,0.7,0.9,1,1.4c0.2,0.5,0.3,1.1,0.3,1.7c0,0.6-0.1,1.2-0.3,1.7c-0.2,0.5-0.5,1-0.9,1.4
		c-0.4,0.4-0.9,0.7-1.4,0.9c-0.5,0.2-1.1,0.3-1.7,0.3c-0.5,0-0.9-0.1-1.4-0.3c-0.5-0.2-0.9-0.4-1.2-0.7c0,1.2,0.4,2,1.1,2.5
		c0.7,0.5,1.6,0.8,2.6,0.8h4.2v3.5h-3.6c-0.9,0-1.6,0.3-2.1,0.8c-0.5,0.5-0.7,1.4-0.7,2.5v4.2h10.5V90.8h4.3V116H363.1z M370.1,95
		c0-0.5-0.2-0.9-0.5-1.2c-0.3-0.3-0.7-0.5-1.2-0.5c-0.5,0-0.9,0.2-1.2,0.5c-0.3,0.3-0.5,0.7-0.5,1.2c0,0.5,0.2,0.9,0.5,1.2
		c0.3,0.3,0.7,0.5,1.2,0.5c0.5,0,0.9-0.2,1.2-0.5C369.9,95.8,370.1,95.4,370.1,95z"/>
	<path class="st1" d="M418.7,116l-8.6-4c0,0.6-0.1,1.2-0.4,1.7c-0.2,0.5-0.6,1-1,1.4s-0.9,0.7-1.5,0.9c-0.6,0.2-1.2,0.3-1.9,0.3
		c-0.7,0-1.3-0.1-1.8-0.4c-0.6-0.3-1.1-0.6-1.5-1c-0.4-0.4-0.8-0.9-1-1.5c-0.2-0.6-0.4-1.2-0.4-1.8c0-0.7,0.1-1.3,0.4-1.9
		c0.3-0.6,0.6-1.1,1-1.5s0.9-0.8,1.5-1c0.6-0.3,1.2-0.4,1.8-0.4h0.5v-7.3h-1c-0.6,0-1.2-0.1-1.8-0.3c-0.6-0.2-1-0.5-1.4-0.9
		c-0.4-0.4-0.7-0.9-1-1.4c-0.2-0.5-0.4-1.1-0.4-1.8c0-0.6,0.1-1.2,0.3-1.7c0.2-0.5,0.6-1,1-1.4c0.4-0.4,0.9-0.7,1.5-1
		c0.6-0.2,1.2-0.4,1.9-0.4c0.9,0,1.7,0.1,2.3,0.4c0.6,0.3,1.1,0.6,1.5,1.1c0.4,0.5,0.7,1,0.9,1.6c0.2,0.6,0.3,1.2,0.3,1.9v13
		l8.6,3.9V90.8h4.3V116H418.7z M406.9,95c0-0.5-0.2-0.9-0.5-1.2c-0.3-0.3-0.7-0.5-1.2-0.5c-0.5,0-0.9,0.2-1.2,0.5
		c-0.3,0.3-0.5,0.7-0.5,1.2c0,0.5,0.2,0.9,0.5,1.2c0.3,0.3,0.7,0.5,1.2,0.5c0.5,0,0.9-0.2,1.2-0.5C406.7,95.8,406.9,95.4,406.9,95z
		 M407.2,111.5c0-0.5-0.2-1-0.5-1.3c-0.3-0.3-0.8-0.5-1.3-0.5c-0.5,0-0.9,0.2-1.3,0.5c-0.3,0.3-0.5,0.8-0.5,1.3
		c0,0.5,0.2,0.9,0.5,1.3c0.3,0.3,0.8,0.5,1.3,0.5c0.5,0,0.9-0.2,1.3-0.5C407,112.5,407.2,112,407.2,111.5z"/>
	<path class="st1" d="M418.8,74.6h4.2v13.7c-1.3-0.6-2.6-1.2-4.1-1.6c-1.4-0.5-2.9-0.9-4.5-1.3c-1.5-0.4-3.1-0.6-4.7-0.8
		c-1.6-0.2-3.2-0.3-4.8-0.3c-0.8,0-1.6,0-2.3,0c-0.7,0-1.5,0.1-2.2,0.2c1-2.7,2.5-4.7,4.4-6.1s4.1-2.1,6.8-2.1c1.5,0,2.8,0.2,4,0.7
		c1.2,0.5,2.3,1.1,3.3,2V74.6z M407,81.7c1,0,1.9,0,2.9,0.1c0.9,0.1,1.9,0.2,2.8,0.4c1,0.2,1.9,0.4,2.9,0.7c1,0.3,2,0.6,3,0.9
		c-0.3-0.6-0.7-1.1-1.2-1.7c-0.5-0.5-1-1-1.6-1.4c-0.6-0.4-1.3-0.7-2-1c-0.7-0.3-1.5-0.4-2.4-0.4c-1.4,0-2.5,0.2-3.4,0.7
		s-1.7,1-2.3,1.7H407z"/>
	<path class="st1" d="M447.1,116V95.9c0-0.5-0.1-1-0.4-1.3s-0.7-0.5-1.2-0.5c-0.4,0-0.7,0.1-1,0.3c-0.3,0.2-0.5,0.5-0.6,0.8
		l-7.3,20.8h-4.5V99.5h-0.9c-0.6,0-1.2-0.1-1.8-0.3c-0.6-0.2-1-0.5-1.4-0.9c-0.4-0.4-0.7-0.9-1-1.4c-0.2-0.5-0.4-1.1-0.4-1.8
		c0-0.6,0.1-1.2,0.3-1.7c0.2-0.5,0.5-1,1-1.4c0.4-0.4,0.9-0.7,1.5-1c0.6-0.2,1.2-0.4,2-0.4c0.9,0,1.6,0.1,2.3,0.4
		c0.6,0.3,1.2,0.6,1.6,1.1c0.4,0.5,0.7,1,0.9,1.6c0.2,0.6,0.3,1.2,0.3,1.9v12.1l3.6-13c0.4-1.4,1.1-2.4,1.9-3.1c0.9-0.7,2-1,3.5-1
		c0.9,0,1.7,0.1,2.4,0.4c0.7,0.3,1.4,0.6,1.9,1.1c0.5,0.5,0.9,1,1.2,1.7c0.3,0.7,0.4,1.4,0.4,2.2V116H447.1z M433.1,95
		c0-0.5-0.2-0.9-0.5-1.2c-0.3-0.3-0.7-0.5-1.2-0.5s-0.9,0.2-1.2,0.5c-0.3,0.3-0.5,0.7-0.5,1.2c0,0.5,0.2,0.9,0.5,1.2
		c0.3,0.3,0.7,0.5,1.2,0.5s0.9-0.2,1.2-0.5C433,95.8,433.1,95.4,433.1,95z"/>
	<path class="st1" d="M447.2,74.6h4.2v13.7c-1.3-0.6-2.6-1.2-4.1-1.6c-1.4-0.5-2.9-0.9-4.5-1.3c-1.5-0.4-3.1-0.6-4.7-0.8
		c-1.6-0.2-3.2-0.3-4.8-0.3c-0.8,0-1.6,0-2.3,0c-0.7,0-1.5,0.1-2.2,0.2c1-2.7,2.5-4.7,4.4-6.1s4.1-2.1,6.8-2.1c1.5,0,2.8,0.2,4,0.7
		c1.2,0.5,2.3,1.1,3.3,2V74.6z M435.4,81.7c1,0,1.9,0,2.9,0.1c0.9,0.1,1.9,0.2,2.8,0.4c1,0.2,1.9,0.4,2.9,0.7c1,0.3,2,0.6,3,0.9
		c-0.3-0.6-0.7-1.1-1.2-1.7c-0.5-0.5-1-1-1.6-1.4c-0.6-0.4-1.3-0.7-2-1c-0.7-0.3-1.5-0.4-2.4-0.4c-1.4,0-2.5,0.2-3.4,0.7
		s-1.7,1-2.3,1.7H435.4z"/>
	<path class="st1" d="M447.2,72.7v-8.3h4.2v8.3H447.2z"/>
	<path class="st1" d="M475,116l-8.6-4c0,0.6-0.1,1.2-0.4,1.7c-0.2,0.5-0.6,1-1,1.4s-0.9,0.7-1.5,0.9c-0.6,0.2-1.2,0.3-1.9,0.3
		c-0.6,0-1.3-0.1-1.8-0.4c-0.6-0.3-1.1-0.6-1.5-1c-0.4-0.4-0.8-0.9-1-1.5c-0.2-0.6-0.4-1.2-0.4-1.8c0-0.7,0.1-1.3,0.4-1.9
		s0.6-1.1,1-1.5s0.9-0.8,1.5-1c0.6-0.3,1.2-0.4,1.8-0.4h0.5v-7.3h-1c-0.6,0-1.2-0.1-1.8-0.3c-0.6-0.2-1-0.5-1.4-0.9s-0.7-0.9-1-1.4
		c-0.2-0.5-0.4-1.1-0.4-1.8c0-0.6,0.1-1.2,0.3-1.7c0.2-0.5,0.6-1,1-1.4c0.4-0.4,0.9-0.7,1.5-1c0.6-0.2,1.2-0.4,1.9-0.4
		c0.9,0,1.7,0.1,2.3,0.4c0.6,0.3,1.1,0.6,1.5,1.1c0.4,0.5,0.7,1,0.9,1.6c0.2,0.6,0.3,1.2,0.3,1.9v13l8.6,3.9V90.8h4.3V116H475z
		 M463.2,95c0-0.5-0.2-0.9-0.5-1.2c-0.3-0.3-0.7-0.5-1.2-0.5c-0.5,0-0.9,0.2-1.2,0.5c-0.3,0.3-0.5,0.7-0.5,1.2
		c0,0.5,0.2,0.9,0.5,1.2c0.3,0.3,0.7,0.5,1.2,0.5c0.5,0,0.9-0.2,1.2-0.5C463,95.8,463.2,95.4,463.2,95z M463.5,111.5
		c0-0.5-0.2-1-0.5-1.3c-0.3-0.3-0.8-0.5-1.3-0.5c-0.5,0-0.9,0.2-1.3,0.5c-0.3,0.3-0.5,0.8-0.5,1.3c0,0.5,0.2,0.9,0.5,1.3
		c0.3,0.3,0.8,0.5,1.3,0.5c0.5,0,0.9-0.2,1.3-0.5C463.3,112.5,463.5,112,463.5,111.5z"/>
	<path class="st1" d="M497.1,116V99c0-0.7-0.1-1.4-0.3-2c-0.2-0.6-0.5-1.2-0.9-1.6c-0.4-0.5-0.9-0.8-1.5-1.1
		c-0.6-0.3-1.4-0.4-2.2-0.4c-0.8,0-1.4,0.1-2,0.4c-0.6,0.2-1,0.6-1.4,1c-0.4,0.4-0.7,1-0.9,1.6c-0.2,0.6-0.4,1.3-0.5,2h-4.3
		c0.1-1.2,0.4-2.3,0.8-3.3c0.4-1,1-1.9,1.8-2.6s1.7-1.3,2.7-1.7c1.1-0.4,2.3-0.6,3.8-0.6c1.6,0,3,0.2,4.2,0.6c1.2,0.4,2.1,1,2.8,1.7
		c0.7,0.7,1.3,1.6,1.6,2.7c0.3,1,0.5,2.2,0.5,3.4v17H497.1z"/>
	<path class="st1" d="M518.8,116l-1.8-8.1c-0.3,0.1-0.6,0.2-1,0.2c-0.3,0.1-0.7,0.1-1.1,0.1c-0.6,0-1.1-0.1-1.6-0.3
		c-0.5-0.2-0.9-0.5-1.3-0.9c-0.4-0.4-0.7-0.8-0.9-1.3s-0.3-1-0.3-1.6c0-0.6,0.1-1.1,0.3-1.6c0.2-0.5,0.5-0.9,0.9-1.3
		c0.4-0.4,0.8-0.7,1.4-0.9c0.5-0.2,1.1-0.3,1.7-0.3c1.3,0,2.3,0.3,3.1,1c0.8,0.6,1.3,1.5,1.4,2.6l1.3,7.8c0.1-1.1,0.3-2.2,0.5-3.4
		c0.2-1.2,0.4-2.3,0.6-3.5c0.2-1.1,0.4-2.1,0.5-3.1c0.1-0.9,0.2-1.7,0.2-2.3c0-0.6-0.1-1.3-0.4-1.9c-0.3-0.6-0.7-1.2-1.2-1.7
		c-0.5-0.5-1.2-0.9-2.1-1.2c-0.8-0.3-1.8-0.5-2.9-0.5c-0.9,0-1.7,0.1-2.5,0.4c-0.7,0.3-1.4,0.6-1.9,1s-1,1-1.3,1.5
		c-0.3,0.6-0.5,1.2-0.5,1.9h-4.2c0.1-1.2,0.4-2.4,1-3.4c0.6-1,1.4-1.9,2.4-2.6c1-0.7,2.1-1.2,3.3-1.6c1.2-0.4,2.5-0.6,3.8-0.6
		c1.7,0,3.2,0.2,4.5,0.7c1.3,0.5,2.5,1.1,3.4,1.9c0.9,0.8,1.6,1.7,2.1,2.8c0.5,1.1,0.7,2.2,0.7,3.4c0,0.8-0.1,1.7-0.3,2.8
		c-0.2,1.1-0.4,2.3-0.8,3.7c-0.3,1.4-0.7,2.9-1,4.6c-0.4,1.7-0.8,3.6-1.1,5.6H518.8z M516.8,104.1c0-0.5-0.2-0.9-0.5-1.2
		c-0.3-0.3-0.7-0.5-1.2-0.5c-0.5,0-0.9,0.2-1.2,0.5c-0.3,0.3-0.5,0.7-0.5,1.2c0,0.5,0.2,0.9,0.5,1.2c0.3,0.3,0.7,0.5,1.2,0.5
		c0.5,0,0.9-0.2,1.2-0.5C516.6,104.9,516.8,104.5,516.8,104.1z"/>
	<path class="st1" d="M544.4,116V99c0-0.7-0.1-1.4-0.3-2c-0.2-0.6-0.5-1.2-0.9-1.6c-0.4-0.5-0.9-0.8-1.5-1.1
		c-0.6-0.3-1.4-0.4-2.2-0.4c-0.8,0-1.4,0.1-2,0.4c-0.6,0.2-1,0.6-1.4,1s-0.7,1-0.9,1.6c-0.2,0.6-0.4,1.3-0.5,2h-4.3
		c0.1-1.2,0.4-2.3,0.8-3.3c0.4-1,1-1.9,1.8-2.6c0.7-0.7,1.7-1.3,2.7-1.7c1.1-0.4,2.3-0.6,3.8-0.6c1.6,0,3,0.2,4.2,0.6
		c1.2,0.4,2.1,1,2.8,1.7c0.7,0.7,1.3,1.6,1.6,2.7c0.3,1,0.5,2.2,0.5,3.4v17H544.4z"/>
	<path class="st1" d="M570.9,116v-15.9c0-0.9-0.2-1.7-0.6-2.5c-0.4-0.8-0.9-1.4-1.5-2c-0.6-0.6-1.4-1-2.2-1.3
		c-0.8-0.3-1.7-0.5-2.7-0.5c-0.6,0-1.3,0.1-1.9,0.2c-0.6,0.1-1.2,0.4-1.8,0.7c-0.5,0.3-1,0.7-1.5,1.1c-0.5,0.4-0.8,1-1.1,1.5
		l2.2,2.5V116h-4.3v-15.2L553,98c0.3-1.1,0.8-2.1,1.5-3.1c0.7-0.9,1.5-1.7,2.4-2.3c0.9-0.6,2-1.1,3.2-1.5c1.2-0.4,2.5-0.5,3.8-0.5
		c1.7,0,3.2,0.2,4.6,0.7c1.4,0.5,2.6,1.1,3.5,2c1,0.9,1.8,1.9,2.3,3.1c0.6,1.2,0.8,2.5,0.8,3.9V116H570.9z"/>
	<path class="st1" d="M598.4,116v-13.7c0-1.4-0.2-2.1-0.5-2.1c-0.1,0-0.3,0.1-0.5,0.4s-0.5,0.7-0.9,1.2l-8.3,14.1h-3.9V99.5h-0.9
		c-0.6,0-1.2-0.1-1.8-0.3c-0.6-0.2-1-0.5-1.4-0.9c-0.4-0.4-0.7-0.9-1-1.4c-0.2-0.5-0.4-1.1-0.4-1.8c0-0.6,0.1-1.2,0.3-1.7
		c0.2-0.5,0.5-1,1-1.4c0.4-0.4,0.9-0.7,1.5-1c0.6-0.2,1.2-0.4,2-0.4c0.9,0,1.6,0.1,2.3,0.4c0.6,0.3,1.2,0.6,1.6,1.1
		c0.4,0.5,0.7,1,0.9,1.6c0.2,0.6,0.3,1.2,0.3,1.9v9.4c0,0.5,0,1-0.1,1.7c-0.1,0.6-0.1,1.3-0.2,1.9c-0.1,0.6-0.2,1.1-0.2,1.5
		c-0.1,0.4-0.1,0.7-0.1,0.7c0-0.1,0.1-0.3,0.3-0.7c0.2-0.4,0.4-0.9,0.6-1.5c0.2-0.5,0.5-1.1,0.7-1.6c0.2-0.6,0.5-1,0.6-1.3l2.9-5.2
		c0.2-0.4,0.5-0.8,0.8-1.2c0.3-0.4,0.6-0.7,0.9-1c-0.4-0.5-0.7-1-0.9-1.4c-0.2-0.5-0.3-1-0.3-1.6c0-0.6,0.1-1.2,0.4-1.8
		c0.2-0.5,0.6-1,1-1.4c0.4-0.4,1-0.7,1.6-1c0.6-0.2,1.3-0.4,2-0.4c0.7,0,1.4,0.1,2,0.4c0.6,0.2,1.1,0.6,1.6,1c0.4,0.4,0.8,0.9,1,1.4
		c0.3,0.5,0.4,1.1,0.4,1.8c0,0.7-0.2,1.4-0.5,2c-0.3,0.6-0.8,1.1-1.4,1.6c0.4,0.5,0.6,1.1,0.8,1.7c0.1,0.6,0.2,1.3,0.2,2.1V116
		H598.4z M585.3,95c0-0.5-0.2-0.9-0.5-1.2c-0.3-0.3-0.7-0.5-1.2-0.5s-0.9,0.2-1.2,0.5c-0.3,0.3-0.5,0.7-0.5,1.2
		c0,0.5,0.2,0.9,0.5,1.2c0.3,0.3,0.7,0.5,1.2,0.5s0.9-0.2,1.2-0.5C585.1,95.8,585.3,95.4,585.3,95z M600.3,95c0-0.5-0.2-0.9-0.5-1.2
		c-0.3-0.3-0.7-0.5-1.2-0.5c-0.5,0-0.9,0.2-1.2,0.5c-0.3,0.3-0.5,0.7-0.5,1.2c0,0.5,0.2,0.9,0.5,1.2c0.3,0.3,0.7,0.5,1.2,0.5
		c0.5,0,0.9-0.2,1.2-0.5C600.1,95.8,600.3,95.4,600.3,95z"/>
	<path class="st1" d="M624.4,116v-10c0-0.6-0.2-1.1-0.5-1.6c-0.3-0.5-0.7-0.9-1.2-1.2c-0.5-0.3-1.1-0.6-1.8-0.8
		c-0.7-0.2-1.5-0.3-2.3-0.3c-0.9,0-1.7,0.1-2.3,0.3c-0.6,0.2-1.2,0.5-1.6,0.9c-0.4,0.4-0.7,0.8-0.9,1.3c-0.2,0.5-0.3,1-0.3,1.6v1.1
		h1c0.6,0,1.2,0.1,1.8,0.3c0.5,0.2,1,0.5,1.4,1c0.4,0.4,0.7,0.9,1,1.4c0.2,0.5,0.3,1.1,0.3,1.8c0,0.6-0.1,1.2-0.3,1.7
		c-0.2,0.5-0.5,1-1,1.4c-0.4,0.4-0.9,0.7-1.5,1c-0.6,0.2-1.2,0.4-1.9,0.4c-0.9,0-1.7-0.1-2.3-0.4s-1.2-0.6-1.5-1.1
		c-0.4-0.5-0.7-1-0.9-1.6c-0.2-0.6-0.3-1.2-0.3-1.9v-5.1c0-1.1,0.2-2.1,0.7-3c0.5-0.9,1.1-1.7,1.9-2.4c0.8-0.7,1.8-1.2,2.9-1.5
		c1.1-0.4,2.3-0.5,3.7-0.5c1.4,0,2.6,0.2,3.6,0.5c1,0.4,1.8,0.9,2.4,1.7v-3c0-0.6-0.1-1.1-0.4-1.6c-0.3-0.5-0.7-0.9-1.2-1.3
		c-0.5-0.4-1.1-0.7-1.9-0.9c-0.7-0.2-1.6-0.3-2.5-0.3c-1.1,0-2.1,0.1-2.9,0.3c-0.8,0.2-1.5,0.5-2,0.9s-0.9,0.9-1.2,1.4
		c-0.3,0.5-0.5,1.1-0.5,1.7h-4.2c0.1-1,0.3-2,0.8-2.9c0.5-0.9,1.1-1.7,2-2.4c0.9-0.7,2-1.3,3.3-1.7c1.3-0.4,2.8-0.6,4.6-0.6
		c1.6,0,3,0.2,4.2,0.5c1.3,0.4,2.4,0.9,3.3,1.5c0.9,0.7,1.6,1.5,2.1,2.4s0.7,2,0.7,3.1V116H624.4z M615.9,111.8
		c0-0.5-0.2-0.9-0.5-1.2c-0.3-0.3-0.7-0.5-1.2-0.5c-0.5,0-0.9,0.2-1.2,0.5c-0.3,0.3-0.5,0.7-0.5,1.2c0,0.5,0.2,0.9,0.5,1.2
		c0.3,0.3,0.7,0.5,1.2,0.5c0.5,0,0.9-0.2,1.2-0.5C615.8,112.7,615.9,112.3,615.9,111.8z"/>
	<path class="st1" d="M646.6,116V99c0-0.7-0.1-1.4-0.3-2c-0.2-0.6-0.5-1.2-0.9-1.6c-0.4-0.5-0.9-0.8-1.5-1.1
		c-0.6-0.3-1.4-0.4-2.2-0.4c-0.8,0-1.4,0.1-2,0.4c-0.6,0.2-1,0.6-1.4,1s-0.7,1-0.9,1.6c-0.2,0.6-0.4,1.3-0.5,2h-4.3
		c0.1-1.2,0.4-2.3,0.8-3.3c0.4-1,1-1.9,1.8-2.6c0.7-0.7,1.7-1.3,2.7-1.7c1.1-0.4,2.3-0.6,3.8-0.6c1.6,0,3,0.2,4.2,0.6
		c1.2,0.4,2.1,1,2.8,1.7c0.7,0.7,1.3,1.6,1.6,2.7c0.3,1,0.5,2.2,0.5,3.4v17H646.6z"/>
	<path class="st1" d="M657.1,116v-7.6c0-1.2,0.3-2.2,0.8-3c0.5-0.8,1.2-1.3,2-1.6c-1.3-0.6-2.3-1.4-3-2.6c-0.7-1.1-1-2.6-1-4.3
		c0-0.8,0.2-1.7,0.5-2.4c0.3-0.8,0.7-1.4,1.3-2c0.5-0.6,1.2-1.1,1.9-1.4c0.7-0.4,1.5-0.5,2.4-0.5c0.8,0,1.5,0.1,2.1,0.3
		c0.6,0.2,1.1,0.5,1.5,0.9c0.4,0.4,0.7,0.9,1,1.4c0.2,0.5,0.3,1.1,0.3,1.7c0,0.6-0.1,1.2-0.3,1.7c-0.2,0.5-0.5,1-0.9,1.4
		c-0.4,0.4-0.9,0.7-1.4,0.9c-0.5,0.2-1.1,0.3-1.7,0.3c-0.5,0-0.9-0.1-1.4-0.3c-0.5-0.2-0.9-0.4-1.2-0.7c0,1.2,0.4,2,1.1,2.5
		c0.7,0.5,1.6,0.8,2.6,0.8h4.2v3.5h-3.6c-0.9,0-1.6,0.3-2.1,0.8c-0.5,0.5-0.7,1.4-0.7,2.5v4.2h10.5V90.8h4.3V116H657.1z M664.1,95
		c0-0.5-0.2-0.9-0.5-1.2c-0.3-0.3-0.7-0.5-1.2-0.5c-0.5,0-0.9,0.2-1.2,0.5c-0.3,0.3-0.5,0.7-0.5,1.2c0,0.5,0.2,0.9,0.5,1.2
		c0.3,0.3,0.7,0.5,1.2,0.5c0.5,0,0.9-0.2,1.2-0.5C663.9,95.8,664.1,95.4,664.1,95z"/>
	<path class="st1" d="M697.9,116v-10c0-0.6-0.2-1.1-0.5-1.6c-0.3-0.5-0.7-0.9-1.2-1.2c-0.5-0.3-1.1-0.6-1.8-0.8
		c-0.7-0.2-1.5-0.3-2.3-0.3c-0.9,0-1.7,0.1-2.3,0.3c-0.6,0.2-1.2,0.5-1.6,0.9c-0.4,0.4-0.7,0.8-0.9,1.3c-0.2,0.5-0.3,1-0.3,1.6v1.1
		h1c0.6,0,1.2,0.1,1.8,0.3c0.5,0.2,1,0.5,1.4,1c0.4,0.4,0.7,0.9,1,1.4c0.2,0.5,0.3,1.1,0.3,1.8c0,0.6-0.1,1.2-0.3,1.7
		c-0.2,0.5-0.5,1-1,1.4c-0.4,0.4-0.9,0.7-1.5,1c-0.6,0.2-1.2,0.4-1.9,0.4c-0.9,0-1.7-0.1-2.3-0.4s-1.2-0.6-1.5-1.1
		c-0.4-0.5-0.7-1-0.9-1.6c-0.2-0.6-0.3-1.2-0.3-1.9v-5.1c0-1.1,0.2-2.1,0.7-3c0.5-0.9,1.1-1.7,1.9-2.4c0.8-0.7,1.8-1.2,2.9-1.5
		c1.1-0.4,2.3-0.5,3.7-0.5c1.4,0,2.6,0.2,3.6,0.5c1,0.4,1.8,0.9,2.4,1.7v-3.3c0-0.6-0.2-1.1-0.5-1.6c-0.3-0.5-0.8-0.9-1.3-1.2
		c-0.6-0.3-1.2-0.6-1.9-0.8c-0.7-0.2-1.5-0.3-2.2-0.3c-1.1,0-2,0.1-2.8,0.4c-0.8,0.3-1.5,0.6-2,1c-0.6,0.4-1,0.9-1.3,1.4
		c-0.3,0.5-0.5,1.1-0.5,1.6h-4.2c0.1-1,0.3-2,0.8-2.9c0.5-0.9,1.2-1.8,2.1-2.5c0.9-0.7,2-1.3,3.3-1.7c1.3-0.4,2.8-0.6,4.5-0.6
		c1,0,1.9,0.1,2.8,0.2c0.9,0.1,1.7,0.4,2.5,0.7l3.9-3.6l2.8,2.4l-3.5,3.2c1.2,1.2,1.8,2.7,1.8,4.3V116H697.9z M689.4,111.8
		c0-0.5-0.2-0.9-0.5-1.2c-0.3-0.3-0.7-0.5-1.2-0.5c-0.5,0-0.9,0.2-1.2,0.5c-0.3,0.3-0.5,0.7-0.5,1.2c0,0.5,0.2,0.9,0.5,1.2
		c0.3,0.3,0.7,0.5,1.2,0.5c0.5,0,0.9-0.2,1.2-0.5C689.2,112.7,689.4,112.3,689.4,111.8z"/>
	<path class="st1" d="M720.1,116V99c0-0.7-0.1-1.4-0.3-2c-0.2-0.6-0.5-1.2-0.9-1.6c-0.4-0.5-0.9-0.8-1.5-1.1
		c-0.6-0.3-1.4-0.4-2.2-0.4c-0.8,0-1.4,0.1-2,0.4c-0.6,0.2-1,0.6-1.4,1c-0.4,0.4-0.7,1-0.9,1.6c-0.2,0.6-0.4,1.3-0.5,2h-4.3
		c0.1-1.2,0.4-2.3,0.8-3.3c0.4-1,1-1.9,1.8-2.6c0.7-0.7,1.7-1.3,2.7-1.7c1.1-0.4,2.3-0.6,3.8-0.6c1.6,0,3,0.2,4.2,0.6
		c1.2,0.4,2.1,1,2.8,1.7c0.7,0.7,1.3,1.6,1.6,2.7c0.3,1,0.5,2.2,0.5,3.4v17H720.1z"/>
	<path class="st1" d="M736.1,107.4c0.6,0,1.2,0.1,1.8,0.3c0.5,0.2,1,0.5,1.4,1c0.4,0.4,0.7,0.9,1,1.4c0.2,0.5,0.3,1.1,0.3,1.8
		c0,0.6-0.1,1.2-0.3,1.7c-0.2,0.5-0.5,1-1,1.4c-0.4,0.4-0.9,0.7-1.5,1c-0.6,0.2-1.2,0.4-1.9,0.4c-0.9,0-1.7-0.1-2.3-0.4
		c-0.6-0.3-1.1-0.6-1.5-1.1c-0.4-0.5-0.7-1-0.9-1.6c-0.2-0.6-0.3-1.2-0.3-1.9V90.8h4.2v16.6H736.1z M737.5,111.9
		c0-0.5-0.2-0.9-0.5-1.2c-0.3-0.3-0.7-0.5-1.2-0.5c-0.5,0-0.9,0.2-1.2,0.5c-0.3,0.3-0.5,0.7-0.5,1.2c0,0.5,0.2,0.9,0.5,1.2
		c0.3,0.3,0.7,0.5,1.2,0.5c0.5,0,0.9-0.2,1.2-0.5C737.3,112.8,737.5,112.4,737.5,111.9z"/>
	<path class="st1" d="M761,116v-13.7c0-1.4-0.2-2.1-0.5-2.1c-0.1,0-0.3,0.1-0.5,0.4s-0.5,0.7-0.9,1.2l-8.3,14.1h-3.9V99.5h-0.9
		c-0.6,0-1.2-0.1-1.8-0.3c-0.6-0.2-1-0.5-1.4-0.9c-0.4-0.4-0.7-0.9-1-1.4c-0.2-0.5-0.4-1.1-0.4-1.8c0-0.6,0.1-1.2,0.3-1.7
		c0.2-0.5,0.5-1,1-1.4c0.4-0.4,0.9-0.7,1.5-1c0.6-0.2,1.2-0.4,2-0.4c0.9,0,1.6,0.1,2.3,0.4c0.6,0.3,1.2,0.6,1.5,1.1
		c0.4,0.5,0.7,1,0.9,1.6c0.2,0.6,0.3,1.2,0.3,1.9v9.4c0,0.5,0,1-0.1,1.7c-0.1,0.6-0.1,1.3-0.2,1.9c-0.1,0.6-0.2,1.1-0.2,1.5
		c-0.1,0.4-0.1,0.7-0.1,0.7c0-0.1,0.1-0.3,0.3-0.7c0.2-0.4,0.4-0.9,0.6-1.5c0.2-0.5,0.5-1.1,0.7-1.6c0.2-0.6,0.5-1,0.6-1.3l2.9-5.2
		c0.2-0.4,0.5-0.8,0.8-1.2c0.3-0.4,0.6-0.7,0.9-1c-0.4-0.5-0.7-1-0.9-1.4c-0.2-0.5-0.3-1-0.3-1.6c0-0.6,0.1-1.2,0.4-1.8
		c0.2-0.5,0.6-1,1-1.4c0.4-0.4,1-0.7,1.6-1c0.6-0.2,1.3-0.4,2-0.4c0.7,0,1.4,0.1,2,0.4c0.6,0.2,1.1,0.6,1.6,1c0.4,0.4,0.8,0.9,1,1.4
		c0.3,0.5,0.4,1.1,0.4,1.8c0,0.7-0.2,1.4-0.5,2c-0.4,0.6-0.8,1.1-1.4,1.6c0.4,0.5,0.6,1.1,0.8,1.7c0.1,0.6,0.2,1.3,0.2,2.1V116H761z
		 M747.9,95c0-0.5-0.2-0.9-0.5-1.2c-0.3-0.3-0.7-0.5-1.2-0.5c-0.5,0-0.9,0.2-1.2,0.5c-0.3,0.3-0.5,0.7-0.5,1.2
		c0,0.5,0.2,0.9,0.5,1.2c0.3,0.3,0.7,0.5,1.2,0.5c0.5,0,0.9-0.2,1.2-0.5C747.7,95.8,747.9,95.4,747.9,95z M762.9,95
		c0-0.5-0.2-0.9-0.5-1.2c-0.3-0.3-0.7-0.5-1.2-0.5c-0.5,0-0.9,0.2-1.2,0.5c-0.3,0.3-0.5,0.7-0.5,1.2c0,0.5,0.2,0.9,0.5,1.2
		c0.3,0.3,0.7,0.5,1.2,0.5c0.5,0,0.9-0.2,1.2-0.5C762.7,95.8,762.9,95.4,762.9,95z"/>
	<path class="st1" d="M788.6,116v-15.9c0-0.8,0-1.5-0.1-2.1c-0.1-0.7-0.3-1.3-0.5-1.8c-0.2-0.5-0.5-1-0.9-1.4
		c-0.4-0.4-0.8-0.7-1.4-0.9l-3.7,2.5l-3.7-2.5c-0.6,0.2-1,0.5-1.4,0.9c-0.4,0.4-0.7,0.8-0.9,1.4c-0.2,0.5-0.4,1.1-0.5,1.8
		c-0.1,0.7-0.1,1.4-0.1,2.1v11.3l4.8-4.4c-0.8-0.3-1.4-0.8-1.8-1.5c-0.4-0.7-0.6-1.4-0.6-2.2c0-0.6,0.1-1.1,0.3-1.6
		c0.2-0.5,0.5-0.9,0.9-1.3c0.4-0.4,0.8-0.7,1.3-0.9c0.5-0.2,1.1-0.3,1.7-0.3c0.6,0,1.2,0.1,1.7,0.3c0.5,0.2,1,0.5,1.3,0.9
		c0.4,0.4,0.7,0.8,0.9,1.3c0.2,0.5,0.3,1,0.3,1.6c0,0.5-0.1,0.9-0.2,1.4c-0.1,0.4-0.3,0.8-0.5,1.1s-0.4,0.6-0.6,0.9
		c-0.2,0.3-0.4,0.5-0.7,0.7l-9,8.6h-4.1v-15.7c0-1.2,0.1-2.3,0.4-3.4c0.3-1.1,0.7-2,1.3-2.9c0.6-0.9,1.3-1.6,2.3-2.2
		c0.9-0.6,2-1,3.3-1.3l3.6,2.9l3.7-2.9c1.3,0.2,2.4,0.7,3.3,1.3c0.9,0.6,1.6,1.3,2.2,2.2c0.6,0.9,1,1.8,1.3,2.9
		c0.3,1.1,0.4,2.2,0.4,3.5V116H788.6z M783.5,103.3c0-0.4-0.1-0.8-0.4-1.1c-0.3-0.3-0.7-0.5-1.2-0.5c-0.5,0-0.9,0.2-1.1,0.5
		c-0.3,0.3-0.4,0.7-0.4,1.1s0.1,0.8,0.4,1.1c0.3,0.3,0.7,0.5,1.1,0.5c0.5,0,0.9-0.2,1.2-0.5C783.3,104.1,783.5,103.7,783.5,103.3z"
		/>
	<path class="st1" d="M789,130.6v-4.2h-0.5c-0.7,0-1.4-0.1-1.9-0.3c-0.6-0.2-1-0.5-1.4-0.9c-0.4-0.4-0.7-0.8-0.9-1.3
		c-0.2-0.5-0.3-1-0.3-1.6c0-1.2,0.4-2.1,1.2-2.8c0.8-0.7,1.9-1.1,3.4-1.1c1.5,0,2.6,0.4,3.3,1.1c0.7,0.7,1.1,1.7,1.1,2.8v8.3H789z
		 M788,123.8c0.4,0,0.8-0.1,1-0.4c0.3-0.3,0.4-0.6,0.4-1c0-0.4-0.1-0.8-0.4-1c-0.3-0.3-0.6-0.4-1-0.4c-0.4,0-0.8,0.1-1,0.4
		c-0.3,0.3-0.4,0.6-0.4,1c0,0.4,0.1,0.8,0.4,1C787.2,123.7,787.5,123.8,788,123.8z"/>
</g>
<g class="st0">
	<path class="st1" d="M14.4,174.4c0.6,0,1.2,0.1,1.8,0.3c0.5,0.2,1,0.5,1.4,1c0.4,0.4,0.7,0.9,1,1.4c0.2,0.5,0.3,1.1,0.3,1.8
		c0,0.6-0.1,1.2-0.3,1.7c-0.2,0.5-0.5,1-1,1.4c-0.4,0.4-0.9,0.7-1.5,1c-0.6,0.2-1.2,0.4-1.9,0.4c-0.9,0-1.7-0.1-2.3-0.4
		c-0.6-0.3-1.1-0.6-1.5-1.1c-0.4-0.5-0.7-1-0.9-1.6c-0.2-0.6-0.3-1.2-0.3-1.9v-20.5h4.2v16.6H14.4z M15.8,178.9
		c0-0.5-0.2-0.9-0.5-1.2c-0.3-0.3-0.7-0.5-1.2-0.5c-0.5,0-0.9,0.2-1.2,0.5c-0.3,0.3-0.5,0.7-0.5,1.2c0,0.5,0.2,0.9,0.5,1.2
		c0.3,0.3,0.7,0.5,1.2,0.5c0.5,0,0.9-0.2,1.2-0.5C15.7,179.8,15.8,179.4,15.8,178.9z M25.8,174.4c0.7,0,1.3,0.1,1.8,0.3
		c0.5,0.2,1,0.5,1.4,1c0.4,0.4,0.7,0.9,0.9,1.4c0.2,0.5,0.3,1.1,0.3,1.8c0,0.6-0.1,1.2-0.3,1.7c-0.2,0.5-0.5,1-1,1.4
		c-0.4,0.4-0.9,0.7-1.5,1c-0.6,0.2-1.2,0.4-1.9,0.4c-0.9,0-1.6-0.1-2.3-0.4s-1.2-0.6-1.6-1.1c-0.4-0.5-0.7-1-0.9-1.6
		c-0.2-0.6-0.3-1.2-0.3-1.9v-20.5h4.2v16.6H25.8z M27.2,178.9c0-0.5-0.2-0.9-0.5-1.2c-0.3-0.3-0.7-0.5-1.2-0.5
		c-0.5,0-0.9,0.2-1.2,0.5c-0.3,0.3-0.5,0.7-0.5,1.2c0,0.5,0.2,0.9,0.5,1.2c0.3,0.3,0.7,0.5,1.2,0.5c0.5,0,0.9-0.2,1.2-0.5
		C27.1,179.8,27.2,179.4,27.2,178.9z"/>
	<path class="st1" d="M49.2,183v-10c0-0.6-0.2-1.1-0.5-1.6c-0.3-0.5-0.7-0.9-1.2-1.2c-0.5-0.3-1.1-0.6-1.8-0.8s-1.5-0.3-2.3-0.3
		c-0.9,0-1.7,0.1-2.3,0.3c-0.6,0.2-1.2,0.5-1.6,0.9c-0.4,0.4-0.7,0.8-0.9,1.3c-0.2,0.5-0.3,1-0.3,1.6v1.1h1c0.6,0,1.2,0.1,1.8,0.3
		c0.5,0.2,1,0.5,1.4,1c0.4,0.4,0.7,0.9,1,1.4c0.2,0.5,0.3,1.1,0.3,1.8c0,0.6-0.1,1.2-0.3,1.7c-0.2,0.5-0.5,1-1,1.4
		c-0.4,0.4-0.9,0.7-1.5,1c-0.6,0.2-1.2,0.4-1.9,0.4c-0.9,0-1.7-0.1-2.3-0.4s-1.2-0.6-1.6-1.1c-0.4-0.5-0.7-1-0.9-1.6
		c-0.2-0.6-0.3-1.2-0.3-1.9v-5.1c0-1.1,0.2-2.1,0.7-3c0.5-0.9,1.1-1.7,1.9-2.4c0.8-0.7,1.8-1.2,2.9-1.5c1.1-0.4,2.3-0.5,3.7-0.5
		c1.4,0,2.6,0.2,3.6,0.5c1,0.4,1.8,0.9,2.4,1.7v-3c0-0.6-0.1-1.1-0.4-1.6c-0.3-0.5-0.7-0.9-1.2-1.3c-0.5-0.4-1.1-0.7-1.9-0.9
		c-0.7-0.2-1.6-0.3-2.5-0.3c-1.1,0-2.1,0.1-2.9,0.3c-0.8,0.2-1.5,0.5-2,0.9s-0.9,0.9-1.2,1.4c-0.3,0.5-0.5,1.1-0.5,1.7h-4.2
		c0.1-1,0.3-2,0.8-2.9c0.5-0.9,1.1-1.7,2-2.4c0.9-0.7,2-1.3,3.3-1.7c1.3-0.4,2.8-0.6,4.6-0.6c1.6,0,3,0.2,4.2,0.5
		c1.3,0.4,2.4,0.9,3.3,1.5c0.9,0.7,1.6,1.5,2.1,2.4c0.5,0.9,0.7,2,0.7,3.1V183H49.2z M40.7,178.8c0-0.5-0.2-0.9-0.5-1.2
		c-0.3-0.3-0.7-0.5-1.2-0.5c-0.5,0-0.9,0.2-1.2,0.5c-0.3,0.3-0.5,0.7-0.5,1.2c0,0.5,0.2,0.9,0.5,1.2c0.3,0.3,0.7,0.5,1.2,0.5
		c0.5,0,0.9-0.2,1.2-0.5C40.5,179.7,40.7,179.3,40.7,178.8z"/>
	<path class="st1" d="M77.7,158.1c-0.1,1.4-0.5,2.7-1.1,3.8c-0.6,1.1-1.4,2-2.4,2.8c-1,0.7-2.1,1.3-3.4,1.7
		c-1.3,0.4-2.7,0.6-4.1,0.6c-2.4,0-4.2-0.4-5.5-1.3c-1.2-0.9-1.8-2.1-1.8-3.6c0-0.6,0.1-1.1,0.3-1.6c0.2-0.5,0.5-0.9,0.9-1.3
		c0.4-0.4,0.9-0.7,1.5-0.9c0.6-0.2,1.2-0.3,2-0.3c0.7,0,1.3,0.1,1.8,0.3c0.6,0.2,1,0.4,1.5,0.7c0.4,0.3,0.7,0.7,1,1.1
		c0.2,0.4,0.4,0.9,0.4,1.5c0,0.2,0,0.4,0,0.6c0,0.2-0.1,0.5-0.2,0.7c-0.1,0.2-0.2,0.5-0.3,0.7c-0.1,0.2-0.3,0.4-0.5,0.5
		c0.7-0.1,1.4-0.3,2.1-0.6c0.7-0.3,1.3-0.7,1.8-1.3c0.5-0.5,1-1.1,1.3-1.8c0.3-0.7,0.5-1.5,0.6-2.3H77.7z M77.7,173.1
		c-0.1,1.5-0.5,2.8-1.1,3.9c-0.6,1.1-1.4,2-2.4,2.8c-1,0.7-2.1,1.3-3.4,1.7c-1.3,0.4-2.7,0.6-4.1,0.6c-2.4,0-4.2-0.4-5.5-1.3
		c-1.2-0.9-1.8-2.1-1.8-3.6c0-0.6,0.1-1.1,0.3-1.6c0.2-0.5,0.5-0.9,0.9-1.3c0.4-0.4,0.9-0.7,1.5-0.9c0.6-0.2,1.2-0.3,2-0.3
		c0.7,0,1.3,0.1,1.8,0.3c0.6,0.2,1,0.4,1.5,0.7c0.4,0.3,0.7,0.7,1,1.1c0.2,0.4,0.4,0.9,0.4,1.5c0,0.2,0,0.4,0,0.6
		c0,0.2-0.1,0.5-0.2,0.7c-0.1,0.2-0.2,0.5-0.3,0.7c-0.1,0.2-0.3,0.4-0.5,0.5c0.7-0.1,1.4-0.3,2.1-0.6c0.7-0.3,1.3-0.7,1.8-1.3
		c0.5-0.5,1-1.1,1.3-1.8c0.3-0.7,0.5-1.5,0.6-2.3H77.7z M65.5,162c0-0.4-0.1-0.8-0.4-1.1c-0.3-0.3-0.6-0.4-1-0.4
		c-0.4,0-0.8,0.1-1.1,0.4c-0.3,0.3-0.4,0.6-0.4,1.1c0,0.4,0.1,0.8,0.4,1c0.3,0.3,0.6,0.4,1.1,0.4c0.4,0,0.8-0.1,1-0.4
		C65.4,162.8,65.5,162.4,65.5,162z M64,178.5c0.4,0,0.8-0.1,1-0.4c0.3-0.3,0.4-0.6,0.4-1.1c0-0.4-0.1-0.8-0.4-1.1
		c-0.3-0.3-0.6-0.4-1-0.4c-0.4,0-0.8,0.1-1.1,0.4c-0.3,0.3-0.4,0.6-0.4,1.1c0,0.4,0.1,0.8,0.4,1.1C63.3,178.3,63.6,178.5,64,178.5z"
		/>
	<path class="st1" d="M98.7,183v-10c0-0.6-0.2-1.1-0.5-1.6c-0.3-0.5-0.7-0.9-1.2-1.2c-0.5-0.3-1.1-0.6-1.8-0.8s-1.5-0.3-2.3-0.3
		c-0.9,0-1.7,0.1-2.3,0.3c-0.6,0.2-1.2,0.5-1.6,0.9c-0.4,0.4-0.7,0.8-0.9,1.3c-0.2,0.5-0.3,1-0.3,1.6v1.1h1c0.6,0,1.2,0.1,1.8,0.3
		c0.5,0.2,1,0.5,1.4,1c0.4,0.4,0.7,0.9,1,1.4c0.2,0.5,0.3,1.1,0.3,1.8c0,0.6-0.1,1.2-0.3,1.7c-0.2,0.5-0.5,1-1,1.4
		c-0.4,0.4-0.9,0.7-1.5,1c-0.6,0.2-1.2,0.4-1.9,0.4c-0.9,0-1.7-0.1-2.3-0.4s-1.2-0.6-1.6-1.1c-0.4-0.5-0.7-1-0.9-1.6
		c-0.2-0.6-0.3-1.2-0.3-1.9v-5.1c0-1.1,0.2-2.1,0.7-3c0.5-0.9,1.1-1.7,1.9-2.4c0.8-0.7,1.8-1.2,2.9-1.5c1.1-0.4,2.3-0.5,3.7-0.5
		c1.4,0,2.6,0.2,3.6,0.5c1,0.4,1.8,0.9,2.4,1.7v-3.3c0-0.6-0.2-1.1-0.5-1.6c-0.3-0.5-0.8-0.9-1.3-1.2c-0.6-0.3-1.2-0.6-1.9-0.8
		c-0.7-0.2-1.5-0.3-2.2-0.3c-1.1,0-2,0.1-2.8,0.4c-0.8,0.3-1.5,0.6-2,1c-0.6,0.4-1,0.9-1.3,1.4c-0.3,0.5-0.5,1.1-0.5,1.6h-4.2
		c0.1-1,0.3-2,0.8-2.9c0.5-0.9,1.2-1.8,2.1-2.5c0.9-0.7,2-1.3,3.3-1.7c1.3-0.4,2.8-0.6,4.5-0.6c1,0,1.9,0.1,2.8,0.2s1.7,0.4,2.5,0.7
		l3.9-3.6l2.8,2.4l-3.5,3.2c1.2,1.2,1.8,2.7,1.8,4.3V183H98.7z M90.2,178.8c0-0.5-0.2-0.9-0.5-1.2c-0.3-0.3-0.7-0.5-1.2-0.5
		c-0.5,0-0.9,0.2-1.2,0.5c-0.3,0.3-0.5,0.7-0.5,1.2c0,0.5,0.2,0.9,0.5,1.2c0.3,0.3,0.7,0.5,1.2,0.5c0.5,0,0.9-0.2,1.2-0.5
		C90,179.7,90.2,179.3,90.2,178.8z"/>
	<path class="st1" d="M98.6,154.3v-9.7h4.3v9.7H98.6z"/>
	<path class="st1" d="M119,183l-12.4-13l2.7-2.8l9.6,10.4v-11.2h-1c-0.6,0-1.2-0.1-1.8-0.3c-0.5-0.2-1-0.5-1.4-0.9
		c-0.4-0.4-0.7-0.9-1-1.4c-0.2-0.5-0.3-1.1-0.3-1.8c0-0.6,0.1-1.2,0.3-1.7c0.2-0.5,0.5-1,1-1.4c0.4-0.4,0.9-0.7,1.5-1
		c0.6-0.2,1.2-0.4,1.9-0.4c0.9,0,1.7,0.1,2.3,0.4c0.6,0.3,1.2,0.6,1.6,1.1c0.4,0.5,0.7,1,0.9,1.6c0.2,0.6,0.3,1.2,0.3,1.9V183H119z
		 M119.9,162c0-0.5-0.2-0.9-0.5-1.2c-0.3-0.3-0.7-0.5-1.2-0.5c-0.5,0-0.9,0.2-1.2,0.5c-0.3,0.3-0.5,0.7-0.5,1.2
		c0,0.5,0.2,0.9,0.5,1.2c0.3,0.3,0.7,0.5,1.2,0.5c0.5,0,0.9-0.2,1.2-0.5C119.8,162.8,119.9,162.4,119.9,162z"/>
	<path class="st1" d="M146,183l-6.4-7.5l-6.2,7.5h-4v-20.5c0-0.7,0.1-1.3,0.3-1.9c0.2-0.6,0.5-1.1,0.9-1.6c0.4-0.5,0.9-0.8,1.6-1.1
		c0.6-0.3,1.4-0.4,2.3-0.4c0.7,0,1.3,0.1,1.9,0.4c0.6,0.2,1.1,0.6,1.5,1c0.4,0.4,0.7,0.9,1,1.4c0.2,0.5,0.3,1.1,0.3,1.7
		c0,0.6-0.1,1.2-0.3,1.8c-0.2,0.5-0.5,1-1,1.4c-0.4,0.4-0.9,0.7-1.4,0.9c-0.5,0.2-1.1,0.3-1.8,0.3h-1v11.3l5.9-7.4l6,7.4v-20h4.3
		V183H146z M136,162c0-0.5-0.2-0.9-0.5-1.2c-0.3-0.3-0.7-0.5-1.2-0.5c-0.5,0-0.9,0.2-1.2,0.5c-0.3,0.3-0.5,0.7-0.5,1.2
		c0,0.5,0.2,0.9,0.5,1.2c0.3,0.3,0.7,0.5,1.2,0.5c0.5,0,0.9-0.2,1.2-0.5C135.9,162.8,136,162.4,136,162z"/>
	<path class="st1" d="M171.7,183v-10c0-0.6-0.2-1.1-0.5-1.6c-0.3-0.5-0.7-0.9-1.2-1.2c-0.5-0.3-1.1-0.6-1.8-0.8s-1.5-0.3-2.3-0.3
		c-0.9,0-1.7,0.1-2.3,0.3c-0.6,0.2-1.2,0.5-1.6,0.9c-0.4,0.4-0.7,0.8-0.9,1.3c-0.2,0.5-0.3,1-0.3,1.6v1.1h1c0.6,0,1.2,0.1,1.8,0.3
		c0.5,0.2,1,0.5,1.4,1c0.4,0.4,0.7,0.9,1,1.4c0.2,0.5,0.3,1.1,0.3,1.8c0,0.6-0.1,1.2-0.3,1.7c-0.2,0.5-0.5,1-1,1.4
		c-0.4,0.4-0.9,0.7-1.5,1c-0.6,0.2-1.2,0.4-1.9,0.4c-0.9,0-1.7-0.1-2.3-0.4s-1.2-0.6-1.6-1.1c-0.4-0.5-0.7-1-0.9-1.6
		c-0.2-0.6-0.3-1.2-0.3-1.9v-5.1c0-1.1,0.2-2.1,0.7-3c0.5-0.9,1.1-1.7,1.9-2.4c0.8-0.7,1.8-1.2,2.9-1.5c1.1-0.4,2.3-0.5,3.7-0.5
		c1.4,0,2.6,0.2,3.6,0.5c1,0.4,1.8,0.9,2.4,1.7v-3c0-0.6-0.1-1.1-0.4-1.6c-0.3-0.5-0.7-0.9-1.2-1.3c-0.5-0.4-1.1-0.7-1.9-0.9
		c-0.7-0.2-1.6-0.3-2.5-0.3c-1.1,0-2.1,0.1-2.9,0.3c-0.8,0.2-1.5,0.5-2,0.9s-0.9,0.9-1.2,1.4c-0.3,0.5-0.5,1.1-0.5,1.7h-4.2
		c0.1-1,0.3-2,0.8-2.9c0.5-0.9,1.1-1.7,2-2.4c0.9-0.7,2-1.3,3.3-1.7c1.3-0.4,2.8-0.6,4.6-0.6c1.6,0,3,0.2,4.2,0.5
		c1.3,0.4,2.4,0.9,3.3,1.5c0.9,0.7,1.6,1.5,2.1,2.4c0.5,0.9,0.7,2,0.7,3.1V183H171.7z M163.2,178.8c0-0.5-0.2-0.9-0.5-1.2
		c-0.3-0.3-0.7-0.5-1.2-0.5c-0.5,0-0.9,0.2-1.2,0.5c-0.3,0.3-0.5,0.7-0.5,1.2c0,0.5,0.2,0.9,0.5,1.2c0.3,0.3,0.7,0.5,1.2,0.5
		c0.5,0,0.9-0.2,1.2-0.5C163,179.7,163.2,179.3,163.2,178.8z"/>
	<path class="st1" d="M199.3,183v-15.9c0-0.8,0-1.5-0.1-2.1c-0.1-0.7-0.3-1.3-0.5-1.8c-0.2-0.5-0.5-1-0.9-1.4
		c-0.4-0.4-0.8-0.7-1.4-0.9l-3.7,2.5L189,161c-0.6,0.2-1,0.5-1.4,0.9c-0.4,0.4-0.7,0.8-0.9,1.4c-0.2,0.5-0.4,1.1-0.5,1.8
		c-0.1,0.7-0.1,1.4-0.1,2.1v11.3l4.8-4.4c-0.8-0.3-1.4-0.8-1.8-1.5c-0.4-0.7-0.6-1.4-0.6-2.2c0-0.6,0.1-1.1,0.3-1.6
		c0.2-0.5,0.5-0.9,0.9-1.3c0.4-0.4,0.8-0.7,1.3-0.9c0.5-0.2,1.1-0.3,1.7-0.3c0.6,0,1.2,0.1,1.7,0.3c0.5,0.2,1,0.5,1.3,0.9
		c0.4,0.4,0.7,0.8,0.9,1.3c0.2,0.5,0.3,1,0.3,1.6c0,0.5-0.1,0.9-0.2,1.4c-0.1,0.4-0.3,0.8-0.5,1.1s-0.4,0.6-0.6,0.9
		c-0.2,0.3-0.4,0.5-0.7,0.7l-9,8.6h-4.1v-15.7c0-1.2,0.1-2.3,0.4-3.4s0.7-2,1.3-2.9c0.6-0.9,1.3-1.6,2.3-2.2c0.9-0.6,2-1,3.3-1.3
		l3.6,2.9l3.7-2.9c1.3,0.2,2.4,0.7,3.3,1.3c0.9,0.6,1.6,1.3,2.2,2.2c0.6,0.9,1,1.8,1.3,2.9c0.3,1.1,0.4,2.2,0.4,3.5V183H199.3z
		 M194.1,170.3c0-0.4-0.1-0.8-0.4-1.1c-0.3-0.3-0.7-0.5-1.2-0.5c-0.5,0-0.9,0.2-1.1,0.5c-0.3,0.3-0.4,0.7-0.4,1.1s0.1,0.8,0.4,1.1
		c0.3,0.3,0.7,0.5,1.1,0.5c0.5,0,0.9-0.2,1.2-0.5C194,171.1,194.1,170.7,194.1,170.3z"/>
	<path class="st1" d="M199.2,154.3v-9.7h4.3v9.7H199.2z"/>
	<path class="st1" d="M210.2,183v-10.8c0-0.6,0.1-1.3,0.3-1.9c0.2-0.6,0.5-1.1,0.9-1.6c0.4-0.5,0.9-0.8,1.6-1.1
		c0.6-0.3,1.4-0.4,2.3-0.4c0.7,0,1.3,0.1,1.9,0.4c0.6,0.2,1.1,0.6,1.5,1c0.4,0.4,0.7,0.9,1,1.4c0.2,0.5,0.3,1.1,0.3,1.7
		c0,0.6-0.1,1.2-0.3,1.8c-0.2,0.5-0.5,1-1,1.4c-0.4,0.4-0.9,0.7-1.4,1c-0.5,0.2-1.1,0.4-1.8,0.4h-1v3.5h10.1v-13.4
		c0-1.8-0.5-3.1-1.6-4c-1-0.9-2.5-1.3-4.4-1.3c-0.9,0-1.7,0.1-2.5,0.3c-0.8,0.2-1.5,0.5-2.1,0.9c-0.6,0.4-1.1,0.9-1.5,1.5
		c-0.4,0.6-0.6,1.3-0.6,2.1h-4.2c0-1.3,0.4-2.5,1-3.5c0.6-1,1.4-1.9,2.3-2.6c1-0.7,2.1-1.2,3.4-1.5c1.3-0.4,2.6-0.5,4-0.5
		c1.4,0,2.8,0.2,4.1,0.5c1.3,0.3,2.4,0.9,3.3,1.6c0.9,0.7,1.7,1.6,2.2,2.7c0.5,1.1,0.8,2.3,0.8,3.8V183H210.2z M215.1,173.3
		c0.5,0,0.9-0.2,1.2-0.5c0.3-0.3,0.5-0.7,0.5-1.2c0-0.5-0.2-0.9-0.5-1.2c-0.3-0.3-0.7-0.5-1.2-0.5c-0.5,0-0.9,0.2-1.2,0.5
		c-0.3,0.3-0.5,0.7-0.5,1.2c0,0.5,0.2,0.9,0.5,1.2C214.2,173.1,214.6,173.3,215.1,173.3z"/>
	<path class="st1" d="M236.7,183v-13.3h-3.4v-2.3c0-1.5,0.3-2.9,0.8-4.1c0.6-1.2,1.3-2.3,2.3-3.1c1-0.8,2.1-1.5,3.4-2
		c1.3-0.5,2.7-0.7,4.2-0.7c1.4,0,2.7,0.2,3.9,0.5c1.2,0.4,2.2,0.9,3.1,1.5c0.9,0.7,1.6,1.4,2.1,2.3c0.5,0.9,0.9,1.9,1,3h-4.2
		c-0.2-1.3-0.9-2.3-1.9-3c-1-0.7-2.4-1.1-4.1-1.1c-1,0-1.9,0.1-2.6,0.4c-0.8,0.3-1.4,0.7-1.9,1.2c-0.5,0.5-0.9,1.1-1.2,1.8
		c-0.3,0.7-0.5,1.5-0.5,2.4h13.9V183H236.7z M247.2,169.7H241v9.9h6.2V169.7z"/>
	<path class="st1" d="M272,165.3c-0.2-1.4-0.8-2.5-1.7-3.2c-0.9-0.7-2.2-1.1-3.7-1.1c-0.9,0-1.7,0.1-2.4,0.4
		c-0.7,0.3-1.3,0.7-1.8,1.2c-0.5,0.5-0.9,1.1-1.1,1.8c-0.3,0.7-0.4,1.5-0.4,2.4h10v11.7c0,0.7-0.1,1.3-0.3,1.9
		c-0.2,0.6-0.5,1.1-0.9,1.6c-0.4,0.5-0.9,0.8-1.6,1.1s-1.4,0.4-2.3,0.4c-0.7,0-1.4-0.1-1.9-0.4c-0.6-0.2-1.1-0.6-1.5-1
		c-0.4-0.4-0.7-0.9-1-1.4c-0.2-0.5-0.3-1.1-0.3-1.7c0-0.6,0.1-1.2,0.3-1.8c0.2-0.5,0.5-1,0.9-1.4c0.4-0.4,0.9-0.7,1.4-1
		c0.5-0.2,1.1-0.3,1.8-0.3h0.9v-4.5h-10v-2.2c0-1.5,0.3-2.8,0.8-4.1c0.5-1.2,1.2-2.3,2.1-3.2c0.9-0.9,2-1.6,3.3-2.1
		c1.3-0.5,2.7-0.7,4.2-0.7c1.2,0,2.3,0.2,3.4,0.5c1.1,0.3,2,0.8,2.9,1.5c0.8,0.7,1.5,1.5,2.1,2.4c0.5,1,0.8,2.1,0.9,3.3H272z
		 M267.6,178.9c0-0.5-0.2-0.9-0.5-1.2c-0.3-0.3-0.7-0.5-1.2-0.5c-0.5,0-0.9,0.2-1.2,0.5c-0.3,0.3-0.5,0.7-0.5,1.2
		c0,0.5,0.2,0.9,0.5,1.2c0.3,0.3,0.7,0.5,1.2,0.5c0.5,0,0.9-0.2,1.2-0.5C267.5,179.8,267.6,179.4,267.6,178.9z"/>
	<path class="st1" d="M294.2,165.3c-0.2-1.4-0.8-2.5-1.7-3.2c-0.9-0.7-2.2-1.1-3.7-1.1c-0.9,0-1.7,0.1-2.4,0.4
		c-0.7,0.3-1.3,0.7-1.8,1.2c-0.5,0.5-0.9,1.1-1.1,1.8c-0.3,0.7-0.4,1.5-0.4,2.4h10v11.7c0,0.7-0.1,1.3-0.3,1.9
		c-0.2,0.6-0.5,1.1-0.9,1.6c-0.4,0.5-0.9,0.8-1.6,1.1s-1.4,0.4-2.3,0.4c-0.7,0-1.4-0.1-1.9-0.4c-0.6-0.2-1.1-0.6-1.5-1
		c-0.4-0.4-0.7-0.9-1-1.4c-0.2-0.5-0.3-1.1-0.3-1.7c0-0.6,0.1-1.2,0.3-1.8c0.2-0.5,0.5-1,0.9-1.4c0.4-0.4,0.9-0.7,1.4-1
		c0.5-0.2,1.1-0.3,1.8-0.3h0.9v-4.5h-10v-2.2c0-1.5,0.3-2.8,0.8-4.1c0.5-1.2,1.2-2.3,2.1-3.2c0.9-0.9,2-1.6,3.3-2.1
		c1.3-0.5,2.7-0.7,4.2-0.7c1.2,0,2.3,0.2,3.4,0.5c1.1,0.3,2,0.8,2.9,1.5c0.8,0.7,1.5,1.5,2.1,2.4c0.5,1,0.8,2.1,0.9,3.3H294.2z
		 M289.8,178.9c0-0.5-0.2-0.9-0.5-1.2c-0.3-0.3-0.7-0.5-1.2-0.5c-0.5,0-0.9,0.2-1.2,0.5c-0.3,0.3-0.5,0.7-0.5,1.2
		c0,0.5,0.2,0.9,0.5,1.2c0.3,0.3,0.7,0.5,1.2,0.5c0.5,0,0.9-0.2,1.2-0.5C289.6,179.8,289.8,179.4,289.8,178.9z"/>
	<path class="st1" d="M319.8,183l-8.6-4c0,0.6-0.1,1.2-0.4,1.7c-0.2,0.5-0.6,1-1,1.4s-0.9,0.7-1.5,0.9c-0.6,0.2-1.2,0.3-1.9,0.3
		c-0.6,0-1.3-0.1-1.8-0.4c-0.6-0.3-1.1-0.6-1.5-1c-0.4-0.4-0.8-0.9-1-1.5c-0.2-0.6-0.4-1.2-0.4-1.8c0-0.7,0.1-1.3,0.4-1.9
		c0.3-0.6,0.6-1.1,1-1.5s0.9-0.8,1.5-1c0.6-0.3,1.2-0.4,1.8-0.4h0.5v-7.3h-1c-0.6,0-1.2-0.1-1.8-0.3c-0.6-0.2-1-0.5-1.4-0.9
		c-0.4-0.4-0.7-0.9-1-1.4c-0.2-0.5-0.4-1.1-0.4-1.8c0-0.6,0.1-1.2,0.3-1.7c0.2-0.5,0.6-1,1-1.4c0.4-0.4,0.9-0.7,1.5-1
		c0.6-0.2,1.2-0.4,1.9-0.4c0.9,0,1.7,0.1,2.3,0.4c0.6,0.3,1.1,0.6,1.5,1.1c0.4,0.5,0.7,1,0.9,1.6c0.2,0.6,0.3,1.2,0.3,1.9v13
		l8.6,3.9v-21.6h4.3V183H319.8z M308,162c0-0.5-0.2-0.9-0.5-1.2c-0.3-0.3-0.7-0.5-1.2-0.5c-0.5,0-0.9,0.2-1.2,0.5
		c-0.3,0.3-0.5,0.7-0.5,1.2c0,0.5,0.2,0.9,0.5,1.2c0.3,0.3,0.7,0.5,1.2,0.5c0.5,0,0.9-0.2,1.2-0.5C307.9,162.8,308,162.4,308,162z
		 M308.3,178.5c0-0.5-0.2-1-0.5-1.3s-0.8-0.5-1.3-0.5c-0.5,0-0.9,0.2-1.3,0.5s-0.5,0.8-0.5,1.3c0,0.5,0.2,0.9,0.5,1.3
		c0.3,0.3,0.8,0.5,1.3,0.5c0.5,0,0.9-0.2,1.3-0.5C308.2,179.5,308.3,179,308.3,178.5z"/>
	<path class="st1" d="M338.1,183v-18.8c0-1.2-0.3-2.1-0.9-2.7c-0.6-0.6-1.3-0.9-2.3-0.9c-0.4,0-0.9,0.1-1.3,0.3
		c-0.4,0.2-0.8,0.4-1,0.7c0.7,0,1.3,0.1,1.9,0.4c0.5,0.2,1,0.5,1.4,0.9c0.4,0.4,0.6,0.8,0.8,1.3c0.2,0.5,0.3,1,0.3,1.5
		c0,0.6-0.1,1.2-0.3,1.7c-0.2,0.5-0.5,0.9-0.9,1.3c-0.4,0.4-0.9,0.7-1.4,0.9c-0.6,0.2-1.2,0.3-1.8,0.3c-0.7,0-1.4-0.1-1.9-0.4
		c-0.6-0.3-1.1-0.7-1.5-1.2c-0.4-0.5-0.7-1.1-0.9-1.7c-0.2-0.7-0.3-1.4-0.3-2.1c0-1,0.2-2,0.6-2.8c0.4-0.8,0.9-1.6,1.5-2.2
		c0.6-0.6,1.4-1.1,2.3-1.4c0.9-0.3,1.8-0.5,2.8-0.5c1,0,2,0.1,2.9,0.4c0.9,0.3,1.7,0.7,2.3,1.3c0.7,0.6,1.2,1.3,1.6,2.1
		c0.4,0.9,0.6,1.9,0.6,3v15.2h4.4v-12.1c0-1.3-0.2-2.2-0.6-3c-0.4-0.7-1.2-1.3-2.4-1.7l7.3-6.9l3,2.4l-4.8,4.4
		c1.2,0.9,1.9,2.4,1.9,4.6V183H338.1z M334.1,165.6c0-0.5-0.2-0.9-0.5-1.2c-0.3-0.3-0.7-0.5-1.2-0.5c-0.5,0-0.9,0.2-1.2,0.5
		c-0.3,0.3-0.5,0.7-0.5,1.2c0,0.5,0.2,0.9,0.5,1.2c0.3,0.3,0.7,0.5,1.2,0.5c0.5,0,0.9-0.2,1.2-0.5
		C333.9,166.5,334.1,166.1,334.1,165.6z"/>
	<path class="st1" d="M369,183v-17c0-0.7-0.1-1.4-0.3-2c-0.2-0.6-0.5-1.2-0.9-1.6c-0.4-0.5-0.9-0.8-1.5-1.1
		c-0.6-0.3-1.4-0.4-2.2-0.4c-0.8,0-1.4,0.1-2,0.4s-1,0.6-1.4,1c-0.4,0.4-0.7,1-0.9,1.6c-0.2,0.6-0.4,1.3-0.5,2H355
		c0.1-1.2,0.4-2.3,0.8-3.3c0.4-1,1-1.9,1.8-2.6c0.7-0.7,1.7-1.3,2.7-1.7c1.1-0.4,2.3-0.6,3.8-0.6c1.6,0,3,0.2,4.2,0.6
		c1.2,0.4,2.1,1,2.8,1.7c0.7,0.7,1.3,1.6,1.6,2.7c0.3,1,0.5,2.2,0.5,3.4v17H369z"/>
	<path class="st1" d="M396.6,183v-15.9c0-0.8,0-1.5-0.1-2.1c-0.1-0.7-0.3-1.3-0.5-1.8c-0.2-0.5-0.5-1-0.9-1.4
		c-0.4-0.4-0.8-0.7-1.4-0.9l-3.7,2.5l-3.7-2.5c-0.6,0.2-1,0.5-1.4,0.9c-0.4,0.4-0.7,0.8-0.9,1.4c-0.2,0.5-0.4,1.1-0.5,1.8
		c-0.1,0.7-0.1,1.4-0.1,2.1v11.3l4.8-4.4c-0.8-0.3-1.4-0.8-1.8-1.5c-0.4-0.7-0.6-1.4-0.6-2.2c0-0.6,0.1-1.1,0.3-1.6
		c0.2-0.5,0.5-0.9,0.9-1.3c0.4-0.4,0.8-0.7,1.3-0.9c0.5-0.2,1.1-0.3,1.7-0.3c0.6,0,1.2,0.1,1.7,0.3c0.5,0.2,1,0.5,1.3,0.9
		c0.4,0.4,0.7,0.8,0.9,1.3c0.2,0.5,0.3,1,0.3,1.6c0,0.5-0.1,0.9-0.2,1.4c-0.1,0.4-0.3,0.8-0.5,1.1s-0.4,0.6-0.6,0.9
		c-0.2,0.3-0.4,0.5-0.7,0.7l-9,8.6H379v-15.7c0-1.2,0.1-2.3,0.4-3.4s0.7-2,1.3-2.9c0.6-0.9,1.3-1.6,2.3-2.2c0.9-0.6,2-1,3.3-1.3
		l3.6,2.9l3.7-2.9c1.3,0.2,2.4,0.7,3.3,1.3c0.9,0.6,1.6,1.3,2.2,2.2c0.6,0.9,1,1.8,1.3,2.9c0.3,1.1,0.4,2.2,0.4,3.5V183H396.6z
		 M391.4,170.3c0-0.4-0.1-0.8-0.4-1.1c-0.3-0.3-0.7-0.5-1.2-0.5c-0.5,0-0.9,0.2-1.1,0.5c-0.3,0.3-0.4,0.7-0.4,1.1s0.1,0.8,0.4,1.1
		c0.3,0.3,0.7,0.5,1.1,0.5c0.5,0,0.9-0.2,1.2-0.5C391.3,171.1,391.4,170.7,391.4,170.3z"/>
	<path class="st1" d="M400.8,155.3c-1.3-0.6-2.6-1.2-4.1-1.6c-1.4-0.5-2.9-0.9-4.5-1.3c-1.5-0.4-3.1-0.6-4.7-0.8
		c-1.6-0.2-3.2-0.3-4.8-0.3c-0.8,0-1.6,0-2.3,0c-0.7,0-1.5,0.1-2.2,0.2c1-2.7,2.5-4.7,4.4-6.1c1.9-1.4,4.1-2.1,6.8-2.1
		c1.6,0,3.1,0.3,4.5,0.9c1.4,0.6,2.5,1.4,3.5,2.5c1,1.1,1.8,2.3,2.4,3.8C400.4,152,400.7,153.6,400.8,155.3z M384.9,148.7
		c1,0,1.9,0,2.9,0.1c0.9,0.1,1.9,0.2,2.8,0.4c1,0.2,1.9,0.4,2.9,0.7c1,0.3,2,0.6,3,0.9c-0.3-0.6-0.7-1.1-1.2-1.7s-1-1-1.6-1.4
		c-0.6-0.4-1.3-0.7-2-1c-0.7-0.3-1.5-0.4-2.4-0.4c-1.4,0-2.5,0.2-3.4,0.7s-1.7,1-2.3,1.7H384.9z"/>
	<path class="st1" d="M416.9,174.4c0.6,0,1.2,0.1,1.8,0.3c0.5,0.2,1,0.5,1.4,1c0.4,0.4,0.7,0.9,0.9,1.4c0.2,0.5,0.3,1.1,0.3,1.8
		c0,0.6-0.1,1.2-0.3,1.7c-0.2,0.5-0.5,1-1,1.4c-0.4,0.4-0.9,0.7-1.5,1c-0.6,0.2-1.2,0.4-2,0.4c-0.9,0-1.7-0.1-2.3-0.4
		c-0.6-0.3-1.1-0.6-1.5-1.1c-0.4-0.5-0.7-1-0.9-1.6c-0.2-0.6-0.3-1.2-0.3-1.9v-28.8c0-1.3-0.3-2.2-0.8-2.7c-0.5-0.5-1.3-0.8-2.3-0.8
		c-0.4,0-0.8,0-1,0.1c-0.3,0.1-0.5,0.2-0.7,0.4c-0.2,0.2-0.3,0.3-0.4,0.5c-0.1,0.2-0.2,0.4-0.2,0.5c1.5,0,2.6,0.4,3.3,1.2
		c0.7,0.8,1.1,1.8,1.1,3c0,0.6-0.1,1.2-0.3,1.7c-0.2,0.5-0.5,0.9-0.9,1.3c-0.4,0.4-0.9,0.7-1.4,0.9c-0.6,0.2-1.2,0.3-1.9,0.3
		c-0.7,0-1.4-0.1-2-0.4c-0.6-0.3-1.1-0.7-1.5-1.1s-0.8-1.1-1-1.7c-0.2-0.7-0.4-1.4-0.4-2.2c0-1,0.2-1.9,0.5-2.8
		c0.3-0.9,0.7-1.7,1.3-2.4s1.3-1.2,2.3-1.6c0.9-0.4,2-0.6,3.2-0.6c1.1,0,2.1,0.1,3,0.4c0.9,0.3,1.7,0.7,2.3,1.3
		c0.7,0.6,1.2,1.2,1.5,2.1c0.3,0.8,0.5,1.8,0.5,2.8v24.9H416.9z M407.8,151.7c0-0.5-0.2-0.9-0.5-1.2c-0.3-0.3-0.7-0.5-1.2-0.5
		s-0.9,0.2-1.2,0.5c-0.3,0.3-0.5,0.7-0.5,1.2c0,0.5,0.2,0.9,0.5,1.2c0.3,0.3,0.7,0.5,1.2,0.5s0.9-0.2,1.2-0.5
		C407.7,152.6,407.8,152.2,407.8,151.7z M418.3,178.9c0-0.5-0.2-0.9-0.5-1.2c-0.3-0.3-0.7-0.5-1.2-0.5c-0.5,0-0.9,0.2-1.2,0.5
		c-0.3,0.3-0.5,0.7-0.5,1.2c0,0.5,0.2,0.9,0.5,1.2c0.3,0.3,0.7,0.5,1.2,0.5c0.5,0,0.9-0.2,1.2-0.5
		C418.1,179.8,418.3,179.4,418.3,178.9z"/>
	<path class="st1" d="M432,183h-4.4v-16.5h-0.9c-0.6,0-1.2-0.1-1.8-0.3c-0.6-0.2-1-0.5-1.4-0.9c-0.4-0.4-0.7-0.9-1-1.4
		c-0.2-0.5-0.4-1.1-0.4-1.8c0-0.6,0.1-1.2,0.3-1.7c0.2-0.5,0.5-1,1-1.4c0.4-0.4,0.9-0.7,1.5-1c0.6-0.2,1.2-0.4,2-0.4
		c0.9,0,1.6,0.1,2.3,0.4c0.6,0.3,1.2,0.6,1.6,1.1c0.4,0.5,0.7,1,0.9,1.6c0.2,0.6,0.3,1.2,0.3,1.9V179l9.6-4.9v-16.3h4.3V174
		c1,0.3,1.9,0.9,2.5,1.7c0.6,0.8,0.9,1.8,0.9,2.9c0,0.6-0.1,1.2-0.4,1.8c-0.2,0.6-0.6,1.1-1,1.5c-0.4,0.4-0.9,0.8-1.5,1
		c-0.6,0.3-1.2,0.4-1.8,0.4c-0.7,0-1.3-0.1-1.9-0.3c-0.6-0.2-1.1-0.5-1.5-0.9s-0.8-0.8-1-1.4c-0.2-0.5-0.4-1.1-0.4-1.7L432,183z
		 M428.7,162c0-0.5-0.2-0.9-0.5-1.2c-0.3-0.3-0.7-0.5-1.2-0.5s-0.9,0.2-1.2,0.5c-0.3,0.3-0.5,0.7-0.5,1.2c0,0.5,0.2,0.9,0.5,1.2
		c0.3,0.3,0.7,0.5,1.2,0.5s0.9-0.2,1.2-0.5C428.5,162.8,428.7,162.4,428.7,162z M446.2,178.5c0-0.5-0.2-1-0.5-1.3
		c-0.4-0.3-0.8-0.5-1.3-0.5c-0.5,0-0.9,0.2-1.3,0.5s-0.5,0.8-0.5,1.3c0,0.5,0.2,0.9,0.5,1.3c0.3,0.3,0.8,0.5,1.3,0.5
		c0.5,0,1-0.2,1.3-0.5C446,179.5,446.2,179,446.2,178.5z"/>
	<path class="st1" d="M455.2,183v-16.5h-0.9c-0.6,0-1.2-0.1-1.8-0.3c-0.6-0.2-1-0.5-1.4-0.9c-0.4-0.4-0.7-0.9-1-1.4
		c-0.2-0.5-0.4-1.1-0.4-1.8c0-0.6,0.1-1.2,0.3-1.7c0.2-0.5,0.5-1,1-1.4c0.4-0.4,0.9-0.7,1.5-1c0.6-0.2,1.2-0.4,2-0.4
		c0.9,0,1.6,0.1,2.3,0.4c0.6,0.3,1.2,0.6,1.6,1.1c0.4,0.5,0.7,1,0.9,1.6c0.2,0.6,0.3,1.2,0.3,1.9v17.1h10.2v-21.8h4.2V183H455.2z
		 M456.3,162c0-0.5-0.2-0.9-0.5-1.2c-0.3-0.3-0.7-0.5-1.2-0.5s-0.9,0.2-1.2,0.5c-0.3,0.3-0.5,0.7-0.5,1.2c0,0.5,0.2,0.9,0.5,1.2
		c0.3,0.3,0.7,0.5,1.2,0.5s0.9-0.2,1.2-0.5C456.1,162.8,456.3,162.4,456.3,162z"/>
	<path class="st1" d="M494.1,165.3c-0.2-1.4-0.8-2.5-1.7-3.2c-0.9-0.7-2.2-1.1-3.7-1.1c-0.9,0-1.7,0.1-2.4,0.4
		c-0.7,0.3-1.3,0.7-1.8,1.2c-0.5,0.5-0.9,1.1-1.1,1.8c-0.3,0.7-0.4,1.5-0.4,2.4h10v11.7c0,0.7-0.1,1.3-0.3,1.9
		c-0.2,0.6-0.5,1.1-0.9,1.6c-0.4,0.5-0.9,0.8-1.6,1.1s-1.4,0.4-2.3,0.4c-0.7,0-1.4-0.1-1.9-0.4c-0.6-0.2-1.1-0.6-1.5-1
		c-0.4-0.4-0.7-0.9-1-1.4c-0.2-0.5-0.3-1.1-0.3-1.7c0-0.6,0.1-1.2,0.3-1.8c0.2-0.5,0.5-1,0.9-1.4c0.4-0.4,0.9-0.7,1.4-1
		c0.5-0.2,1.1-0.3,1.8-0.3h0.9v-4.5h-10v-2.2c0-1.5,0.3-2.8,0.8-4.1c0.5-1.2,1.2-2.3,2.1-3.2c0.9-0.9,2-1.6,3.3-2.1
		c1.3-0.5,2.7-0.7,4.2-0.7c1.2,0,2.3,0.2,3.4,0.5c1.1,0.3,2,0.8,2.9,1.5c0.8,0.7,1.5,1.5,2.1,2.4c0.5,1,0.8,2.1,0.9,3.3H494.1z
		 M489.7,178.9c0-0.5-0.2-0.9-0.5-1.2c-0.3-0.3-0.7-0.5-1.2-0.5s-0.9,0.2-1.2,0.5c-0.3,0.3-0.5,0.7-0.5,1.2c0,0.5,0.2,0.9,0.5,1.2
		c0.3,0.3,0.7,0.5,1.2,0.5s0.9-0.2,1.2-0.5C489.5,179.8,489.7,179.4,489.7,178.9z"/>
	<path class="st1" d="M496.1,155.3c-1.3-0.6-2.6-1.2-4.1-1.6c-1.4-0.5-2.9-0.9-4.5-1.3c-1.5-0.4-3.1-0.6-4.7-0.8
		c-1.6-0.2-3.2-0.3-4.8-0.3c-0.8,0-1.6,0-2.3,0c-0.7,0-1.5,0.1-2.2,0.2c1-2.7,2.5-4.7,4.4-6.1s4.1-2.1,6.8-2.1
		c1.6,0,3.1,0.3,4.5,0.9c1.4,0.6,2.5,1.4,3.5,2.5c1,1.1,1.8,2.3,2.4,3.8C495.6,152,496,153.6,496.1,155.3z M480.1,148.7
		c1,0,1.9,0,2.9,0.1c0.9,0.1,1.9,0.2,2.8,0.4c1,0.2,1.9,0.4,2.9,0.7c1,0.3,2,0.6,3,0.9c-0.3-0.6-0.7-1.1-1.2-1.7s-1-1-1.6-1.4
		c-0.6-0.4-1.3-0.7-2-1c-0.7-0.3-1.5-0.4-2.4-0.4c-1.4,0-2.5,0.2-3.4,0.7s-1.7,1-2.3,1.7H480.1z"/>
	<path class="st1" d="M507.9,174.4c0.6,0,1.2,0.1,1.8,0.3c0.5,0.2,1,0.5,1.4,1c0.4,0.4,0.7,0.9,1,1.4c0.2,0.5,0.3,1.1,0.3,1.8
		c0,0.6-0.1,1.2-0.3,1.7c-0.2,0.5-0.5,1-1,1.4c-0.4,0.4-0.9,0.7-1.5,1c-0.6,0.2-1.2,0.4-1.9,0.4c-0.9,0-1.7-0.1-2.3-0.4
		c-0.6-0.3-1.1-0.6-1.5-1.1c-0.4-0.5-0.7-1-0.9-1.6c-0.2-0.6-0.3-1.2-0.3-1.9v-20.5h4.2v16.6H507.9z M509.3,178.9
		c0-0.5-0.2-0.9-0.5-1.2c-0.3-0.3-0.7-0.5-1.2-0.5s-0.9,0.2-1.2,0.5c-0.3,0.3-0.5,0.7-0.5,1.2c0,0.5,0.2,0.9,0.5,1.2
		c0.3,0.3,0.7,0.5,1.2,0.5s0.9-0.2,1.2-0.5C509.1,179.8,509.3,179.4,509.3,178.9z"/>
	<path class="st1" d="M527.6,165.5c0-1.4-0.4-2.6-1.3-3.4c-0.9-0.8-2.2-1.3-3.9-1.3c-0.8,0-1.5,0.2-2.1,0.5
		c-0.6,0.3-1.2,0.7-1.6,1.3c-0.4,0.5-0.8,1.2-1,1.9c-0.2,0.7-0.3,1.5-0.3,2.4h-4.2c0-1.3,0.2-2.5,0.6-3.7c0.4-1.1,1-2.1,1.8-3
		c0.8-0.8,1.8-1.5,2.9-2c1.1-0.5,2.5-0.7,3.9-0.7c1.6,0,2.9,0.2,4.1,0.6c1.2,0.4,2.2,0.9,3,1.6c0.8,0.7,1.4,1.5,1.8,2.5
		c0.4,1,0.6,2.1,0.6,3.3V178c0,0.7-0.1,1.3-0.3,1.9c-0.2,0.6-0.5,1.1-0.9,1.6c-0.4,0.5-0.9,0.8-1.5,1.1c-0.6,0.3-1.4,0.4-2.3,0.4
		c-0.7,0-1.4-0.1-1.9-0.4c-0.6-0.2-1.1-0.6-1.5-1c-0.4-0.4-0.7-0.9-1-1.4s-0.3-1.1-0.3-1.7c0-0.6,0.1-1.2,0.3-1.8s0.5-1,0.9-1.4
		c0.4-0.4,0.9-0.7,1.4-1c0.5-0.2,1.1-0.3,1.8-0.3h1V165.5z M528.6,178.6c0-0.5-0.2-0.9-0.5-1.2c-0.3-0.3-0.7-0.5-1.2-0.5
		c-0.5,0-0.9,0.2-1.2,0.5c-0.3,0.3-0.5,0.7-0.5,1.2c0,0.5,0.2,0.9,0.5,1.2c0.3,0.3,0.7,0.5,1.2,0.5c0.5,0,0.9-0.2,1.2-0.5
		C528.4,179.5,528.6,179.1,528.6,178.6z"/>
	<path class="st1" d="M557.1,183h-3.8v-15.9c0-0.9-0.2-1.7-0.5-2.5c-0.3-0.8-0.8-1.4-1.4-2c-0.6-0.6-1.3-1-2.1-1.3
		c-0.8-0.3-1.7-0.5-2.6-0.5c-1.4,0-2.5,0.3-3.5,0.9c-1,0.6-1.8,1.5-2.4,2.6l2.2,2.4v7.5h1c0.6,0,1.2,0.1,1.8,0.3
		c0.5,0.2,1,0.5,1.4,1c0.4,0.4,0.7,0.9,0.9,1.4c0.2,0.5,0.3,1.1,0.3,1.8c0,0.6-0.1,1.2-0.3,1.7c-0.2,0.5-0.5,1-1,1.4
		c-0.4,0.4-0.9,0.7-1.5,1c-0.6,0.2-1.2,0.4-2,0.4c-0.9,0-1.6-0.1-2.3-0.4c-0.6-0.3-1.1-0.6-1.5-1.1c-0.4-0.5-0.7-1-0.9-1.6
		c-0.2-0.6-0.3-1.2-0.3-1.9v-10.5l-2.6-2.8c0.3-1.1,0.8-2.1,1.4-3.1c0.6-0.9,1.4-1.7,2.2-2.3c0.9-0.6,1.9-1.1,3.1-1.5
		c1.2-0.4,2.5-0.5,3.9-0.5c1.6,0,3.1,0.2,4.4,0.7c1.3,0.5,2.5,1.1,3.4,2c0.9,0.9,1.7,1.9,2.2,3.1c0.5,1.2,0.8,2.5,0.8,3.9v11.5
		l7.3-4.7v-16.3h4.2V174c1,0.3,1.8,0.9,2.5,1.7c0.6,0.8,1,1.8,1,2.9c0,0.6-0.1,1.2-0.4,1.8c-0.2,0.6-0.6,1.1-1,1.5
		c-0.4,0.4-0.9,0.8-1.5,1c-0.6,0.3-1.2,0.4-1.8,0.4c-0.7,0-1.3-0.1-1.9-0.3c-0.6-0.2-1.1-0.5-1.5-0.9s-0.8-0.8-1-1.4
		c-0.2-0.5-0.4-1.1-0.4-1.7L557.1,183z M545.5,178.9c0-0.5-0.2-0.9-0.5-1.2c-0.3-0.3-0.7-0.5-1.2-0.5c-0.5,0-0.9,0.2-1.2,0.5
		c-0.3,0.3-0.5,0.7-0.5,1.2c0,0.5,0.2,0.9,0.5,1.2c0.3,0.3,0.7,0.5,1.2,0.5c0.5,0,0.9-0.2,1.2-0.5
		C545.3,179.8,545.5,179.4,545.5,178.9z M569.4,178.5c0-0.5-0.2-0.9-0.5-1.3c-0.3-0.4-0.8-0.5-1.3-0.5c-0.5,0-1,0.2-1.3,0.5
		c-0.4,0.4-0.5,0.8-0.5,1.3c0,0.5,0.2,0.9,0.5,1.3c0.4,0.3,0.8,0.5,1.3,0.5c0.5,0,0.9-0.2,1.3-0.5
		C569.2,179.5,569.4,179,569.4,178.5z"/>
	<path class="st1" d="M576,183v-10.8c0-0.6,0.1-1.3,0.3-1.9c0.2-0.6,0.5-1.1,0.9-1.6c0.4-0.5,0.9-0.8,1.5-1.1
		c0.6-0.3,1.4-0.4,2.3-0.4c0.7,0,1.3,0.1,1.9,0.4c0.6,0.2,1.1,0.6,1.5,1c0.4,0.4,0.7,0.9,1,1.4c0.2,0.5,0.3,1.1,0.3,1.7
		c0,0.6-0.1,1.2-0.3,1.8c-0.2,0.5-0.5,1-1,1.4c-0.4,0.4-0.9,0.7-1.4,1c-0.5,0.2-1.1,0.4-1.8,0.4h-1v3.5h10.1v-13.4
		c0-1.8-0.5-3.1-1.6-4c-1-0.9-2.5-1.3-4.4-1.3c-0.9,0-1.7,0.1-2.5,0.3c-0.8,0.2-1.5,0.5-2.1,0.9c-0.6,0.4-1.1,0.9-1.5,1.5
		c-0.4,0.6-0.6,1.3-0.6,2.1h-4.2c0-1.3,0.4-2.5,1-3.5c0.6-1,1.4-1.9,2.3-2.6c1-0.7,2.1-1.2,3.4-1.5c1.3-0.4,2.6-0.5,4-0.5
		c1.4,0,2.8,0.2,4.1,0.5c1.3,0.3,2.4,0.9,3.3,1.6c0.9,0.7,1.7,1.6,2.2,2.7c0.5,1.1,0.8,2.3,0.8,3.8V183H576z M581,173.3
		c0.5,0,0.9-0.2,1.2-0.5c0.3-0.3,0.5-0.7,0.5-1.2c0-0.5-0.2-0.9-0.5-1.2c-0.3-0.3-0.7-0.5-1.2-0.5s-0.9,0.2-1.2,0.5
		c-0.3,0.3-0.5,0.7-0.5,1.2c0,0.5,0.2,0.9,0.5,1.2C580.1,173.1,580.5,173.3,581,173.3z"/>
	<path class="st1" d="M590.8,197.6v-4.2h-0.5c-0.7,0-1.4-0.1-1.9-0.3c-0.6-0.2-1-0.5-1.4-0.9c-0.4-0.4-0.7-0.8-0.9-1.3
		c-0.2-0.5-0.3-1-0.3-1.6c0-1.2,0.4-2.1,1.2-2.8c0.8-0.7,1.9-1.1,3.4-1.1c1.5,0,2.6,0.4,3.3,1.1c0.7,0.7,1.1,1.7,1.1,2.8v8.3H590.8z
		 M589.8,190.8c0.4,0,0.8-0.1,1-0.4c0.3-0.3,0.4-0.6,0.4-1c0-0.4-0.1-0.8-0.4-1c-0.3-0.3-0.6-0.4-1-0.4c-0.4,0-0.8,0.1-1,0.4
		c-0.3,0.3-0.4,0.6-0.4,1c0,0.4,0.1,0.8,0.4,1C589,190.7,589.4,190.8,589.8,190.8z"/>
	<path class="st1" d="M618.8,183v-20.1c0-0.5-0.1-1-0.4-1.3s-0.7-0.5-1.2-0.5c-0.4,0-0.7,0.1-1,0.3c-0.3,0.2-0.5,0.5-0.6,0.8
		l-7.3,20.8h-4.5v-16.5h-0.9c-0.6,0-1.2-0.1-1.8-0.3c-0.6-0.2-1-0.5-1.4-0.9c-0.4-0.4-0.7-0.9-1-1.4c-0.2-0.5-0.4-1.1-0.4-1.8
		c0-0.6,0.1-1.2,0.3-1.7c0.2-0.5,0.5-1,1-1.4c0.4-0.4,0.9-0.7,1.5-1c0.6-0.2,1.2-0.4,2-0.4c0.9,0,1.6,0.1,2.3,0.4
		c0.6,0.3,1.2,0.6,1.5,1.1c0.4,0.5,0.7,1,0.9,1.6c0.2,0.6,0.3,1.2,0.3,1.9v12.1l3.6-13c0.4-1.4,1.1-2.4,1.9-3.1c0.9-0.7,2-1,3.5-1
		c0.9,0,1.7,0.1,2.4,0.4c0.7,0.3,1.4,0.6,1.9,1.1c0.5,0.5,0.9,1,1.2,1.7c0.3,0.7,0.4,1.4,0.4,2.2V183H618.8z M604.9,162
		c0-0.5-0.2-0.9-0.5-1.2c-0.3-0.3-0.7-0.5-1.2-0.5c-0.5,0-0.9,0.2-1.2,0.5c-0.3,0.3-0.5,0.7-0.5,1.2c0,0.5,0.2,0.9,0.5,1.2
		c0.3,0.3,0.7,0.5,1.2,0.5c0.5,0,0.9-0.2,1.2-0.5C604.7,162.8,604.9,162.4,604.9,162z"/>
	<path class="st1" d="M629.3,183v-7.6c0-1.2,0.3-2.2,0.8-3c0.5-0.8,1.2-1.3,2-1.6c-1.3-0.6-2.3-1.4-3-2.6c-0.7-1.1-1-2.6-1-4.3
		c0-0.8,0.2-1.7,0.5-2.4c0.3-0.8,0.7-1.4,1.3-2c0.5-0.6,1.2-1.1,1.9-1.4c0.7-0.4,1.5-0.5,2.4-0.5c0.8,0,1.5,0.1,2.1,0.3
		c0.6,0.2,1.1,0.5,1.5,0.9c0.4,0.4,0.7,0.9,1,1.4c0.2,0.5,0.3,1.1,0.3,1.7c0,0.6-0.1,1.2-0.3,1.7c-0.2,0.5-0.5,1-0.9,1.4
		c-0.4,0.4-0.9,0.7-1.4,0.9c-0.5,0.2-1.1,0.3-1.7,0.3c-0.5,0-0.9-0.1-1.4-0.3c-0.5-0.2-0.9-0.4-1.2-0.7c0,1.2,0.4,2,1.1,2.5
		c0.7,0.5,1.6,0.8,2.6,0.8h4.2v3.5h-3.6c-0.9,0-1.6,0.3-2.1,0.8c-0.5,0.5-0.7,1.4-0.7,2.5v4.2h10.5v-21.8h4.3V183H629.3z M636.3,162
		c0-0.5-0.2-0.9-0.5-1.2c-0.3-0.3-0.7-0.5-1.2-0.5c-0.5,0-0.9,0.2-1.2,0.5c-0.3,0.3-0.5,0.7-0.5,1.2c0,0.5,0.2,0.9,0.5,1.2
		c0.3,0.3,0.7,0.5,1.2,0.5c0.5,0,0.9-0.2,1.2-0.5C636.2,162.8,636.3,162.4,636.3,162z"/>
	<path class="st1" d="M666.3,183v-17c0-0.7-0.1-1.4-0.3-2c-0.2-0.6-0.5-1.2-0.9-1.6c-0.4-0.5-0.9-0.8-1.5-1.1
		c-0.6-0.3-1.4-0.4-2.2-0.4c-0.8,0-1.4,0.1-2,0.4c-0.6,0.2-1,0.6-1.4,1c-0.4,0.4-0.7,1-0.9,1.6c-0.2,0.6-0.4,1.3-0.5,2h-4.3
		c0.1-1.2,0.4-2.3,0.8-3.3c0.4-1,1-1.9,1.8-2.6c0.7-0.7,1.7-1.3,2.7-1.7c1.1-0.4,2.3-0.6,3.8-0.6c1.6,0,3,0.2,4.2,0.6
		c1.2,0.4,2.1,1,2.8,1.7c0.7,0.7,1.3,1.6,1.6,2.7c0.3,1,0.5,2.2,0.5,3.4v17H666.3z"/>
	<path class="st1" d="M684,183h-4.4v-16.5h-0.9c-0.6,0-1.2-0.1-1.8-0.3c-0.6-0.2-1-0.5-1.4-0.9c-0.4-0.4-0.7-0.9-1-1.4
		c-0.2-0.5-0.4-1.1-0.4-1.8c0-0.6,0.1-1.2,0.3-1.7c0.2-0.5,0.5-1,1-1.4c0.4-0.4,0.9-0.7,1.5-1c0.6-0.2,1.2-0.4,2-0.4
		c0.9,0,1.6,0.1,2.3,0.4c0.6,0.3,1.2,0.6,1.5,1.1c0.4,0.5,0.7,1,0.9,1.6c0.2,0.6,0.3,1.2,0.3,1.9V179l9.6-4.9v-16.3h4.3V174
		c1,0.3,1.9,0.9,2.5,1.7c0.6,0.8,0.9,1.8,0.9,2.9c0,0.6-0.1,1.2-0.4,1.8c-0.2,0.6-0.6,1.1-1,1.5c-0.4,0.4-0.9,0.8-1.5,1
		c-0.6,0.3-1.2,0.4-1.8,0.4c-0.7,0-1.3-0.1-1.9-0.3c-0.6-0.2-1.1-0.5-1.5-0.9c-0.4-0.4-0.8-0.8-1-1.4c-0.2-0.5-0.4-1.1-0.4-1.7
		L684,183z M680.7,162c0-0.5-0.2-0.9-0.5-1.2c-0.3-0.3-0.7-0.5-1.2-0.5c-0.5,0-0.9,0.2-1.2,0.5c-0.3,0.3-0.5,0.7-0.5,1.2
		c0,0.5,0.2,0.9,0.5,1.2c0.3,0.3,0.7,0.5,1.2,0.5c0.5,0,0.9-0.2,1.2-0.5C680.5,162.8,680.7,162.4,680.7,162z M698.2,178.5
		c0-0.5-0.2-1-0.5-1.3c-0.4-0.3-0.8-0.5-1.3-0.5c-0.5,0-0.9,0.2-1.3,0.5s-0.5,0.8-0.5,1.3c0,0.5,0.2,0.9,0.5,1.3
		c0.3,0.3,0.8,0.5,1.3,0.5c0.5,0,1-0.2,1.3-0.5C698,179.5,698.2,179,698.2,178.5z"/>
	<path class="st1" d="M709.9,174.4c0.6,0,1.2,0.1,1.8,0.3c0.5,0.2,1,0.5,1.4,1c0.4,0.4,0.7,0.9,1,1.4c0.2,0.5,0.3,1.1,0.3,1.8
		c0,0.6-0.1,1.2-0.3,1.7c-0.2,0.5-0.5,1-1,1.4c-0.4,0.4-0.9,0.7-1.5,1c-0.6,0.2-1.2,0.4-1.9,0.4c-0.9,0-1.7-0.1-2.3-0.4
		c-0.6-0.3-1.1-0.6-1.5-1.1c-0.4-0.5-0.7-1-0.9-1.6c-0.2-0.6-0.3-1.2-0.3-1.9v-20.5h4.2v16.6H709.9z M711.3,178.9
		c0-0.5-0.2-0.9-0.5-1.2c-0.3-0.3-0.7-0.5-1.2-0.5c-0.5,0-0.9,0.2-1.2,0.5c-0.3,0.3-0.5,0.7-0.5,1.2c0,0.5,0.2,0.9,0.5,1.2
		c0.3,0.3,0.7,0.5,1.2,0.5c0.5,0,0.9-0.2,1.2-0.5C711.1,179.8,711.3,179.4,711.3,178.9z M721.3,174.4c0.7,0,1.3,0.1,1.8,0.3
		c0.5,0.2,1,0.5,1.4,1c0.4,0.4,0.7,0.9,0.9,1.4c0.2,0.5,0.3,1.1,0.3,1.8c0,0.6-0.1,1.2-0.3,1.7c-0.2,0.5-0.5,1-1,1.4
		c-0.4,0.4-0.9,0.7-1.5,1c-0.6,0.2-1.2,0.4-1.9,0.4c-0.9,0-1.6-0.1-2.3-0.4s-1.2-0.6-1.6-1.1c-0.4-0.5-0.7-1-0.9-1.6
		c-0.2-0.6-0.3-1.2-0.3-1.9v-20.5h4.2v16.6H721.3z M722.7,178.9c0-0.5-0.2-0.9-0.5-1.2c-0.3-0.3-0.7-0.5-1.2-0.5
		c-0.5,0-0.9,0.2-1.2,0.5c-0.3,0.3-0.5,0.7-0.5,1.2c0,0.5,0.2,0.9,0.5,1.2c0.3,0.3,0.7,0.5,1.2,0.5c0.5,0,0.9-0.2,1.2-0.5
		C722.5,179.8,722.7,179.4,722.7,178.9z"/>
	<path class="st1" d="M746.2,183v-13.7c0-1.4-0.2-2.1-0.5-2.1c-0.1,0-0.3,0.1-0.5,0.4s-0.5,0.7-0.9,1.2l-8.3,14.1H732v-16.5h-0.9
		c-0.6,0-1.2-0.1-1.8-0.3c-0.6-0.2-1-0.5-1.4-0.9c-0.4-0.4-0.7-0.9-1-1.4c-0.2-0.5-0.4-1.1-0.4-1.8c0-0.6,0.1-1.2,0.3-1.7
		c0.2-0.5,0.5-1,1-1.4c0.4-0.4,0.9-0.7,1.5-1c0.6-0.2,1.2-0.4,2-0.4c0.9,0,1.6,0.1,2.3,0.4c0.6,0.3,1.2,0.6,1.5,1.1
		c0.4,0.5,0.7,1,0.9,1.6c0.2,0.6,0.3,1.2,0.3,1.9v9.4c0,0.5,0,1-0.1,1.7c-0.1,0.6-0.1,1.3-0.2,1.9c-0.1,0.6-0.2,1.1-0.2,1.5
		c-0.1,0.4-0.1,0.7-0.1,0.7c0-0.1,0.1-0.3,0.3-0.7c0.2-0.4,0.4-0.9,0.6-1.5c0.2-0.5,0.5-1.1,0.7-1.6c0.2-0.6,0.5-1,0.6-1.3l2.9-5.2
		c0.2-0.4,0.5-0.8,0.8-1.2c0.3-0.4,0.6-0.7,0.9-1c-0.4-0.5-0.7-1-0.9-1.4c-0.2-0.5-0.3-1-0.3-1.6c0-0.6,0.1-1.2,0.4-1.8
		c0.2-0.5,0.6-1,1-1.4c0.4-0.4,1-0.7,1.6-1c0.6-0.2,1.3-0.4,2-0.4c0.7,0,1.4,0.1,2,0.4c0.6,0.2,1.1,0.6,1.6,1c0.4,0.4,0.8,0.9,1,1.4
		c0.3,0.5,0.4,1.1,0.4,1.8c0,0.7-0.2,1.4-0.5,2c-0.4,0.6-0.8,1.1-1.4,1.6c0.4,0.5,0.6,1.1,0.8,1.7c0.1,0.6,0.2,1.3,0.2,2.1V183
		H746.2z M733.1,162c0-0.5-0.2-0.9-0.5-1.2c-0.3-0.3-0.7-0.5-1.2-0.5c-0.5,0-0.9,0.2-1.2,0.5c-0.3,0.3-0.5,0.7-0.5,1.2
		c0,0.5,0.2,0.9,0.5,1.2c0.3,0.3,0.7,0.5,1.2,0.5c0.5,0,0.9-0.2,1.2-0.5C732.9,162.8,733.1,162.4,733.1,162z M748.1,162
		c0-0.5-0.2-0.9-0.5-1.2c-0.3-0.3-0.7-0.5-1.2-0.5c-0.5,0-0.9,0.2-1.2,0.5c-0.3,0.3-0.5,0.7-0.5,1.2c0,0.5,0.2,0.9,0.5,1.2
		c0.3,0.3,0.7,0.5,1.2,0.5c0.5,0,0.9-0.2,1.2-0.5C747.9,162.8,748.1,162.4,748.1,162z"/>
	<path class="st1" d="M746.1,154.3v-9.7h4.3v9.7H746.1z"/>
	<path class="st1" d="M766.5,183L754,170l2.7-2.8l9.6,10.4v-11.2h-1c-0.6,0-1.2-0.1-1.8-0.3c-0.5-0.2-1-0.5-1.4-0.9
		c-0.4-0.4-0.7-0.9-1-1.4c-0.2-0.5-0.3-1.1-0.3-1.8c0-0.6,0.1-1.2,0.3-1.7c0.2-0.5,0.5-1,1-1.4c0.4-0.4,0.9-0.7,1.5-1
		c0.6-0.2,1.2-0.4,1.9-0.4c0.9,0,1.7,0.1,2.3,0.4c0.6,0.3,1.2,0.6,1.6,1.1c0.4,0.5,0.7,1,0.9,1.6c0.2,0.6,0.3,1.2,0.3,1.9V183H766.5
		z M767.4,162c0-0.5-0.2-0.9-0.5-1.2c-0.3-0.3-0.7-0.5-1.2-0.5c-0.5,0-0.9,0.2-1.2,0.5c-0.3,0.3-0.5,0.7-0.5,1.2
		c0,0.5,0.2,0.9,0.5,1.2c0.3,0.3,0.7,0.5,1.2,0.5c0.5,0,0.9-0.2,1.2-0.5C767.3,162.8,767.4,162.4,767.4,162z"/>
	<path class="st1" d="M784.7,183v-18.8c0-1.2-0.3-2.1-0.9-2.7c-0.6-0.6-1.3-0.9-2.3-0.9c-0.4,0-0.9,0.1-1.3,0.3
		c-0.4,0.2-0.8,0.4-1,0.7c0.7,0,1.3,0.1,1.9,0.4c0.5,0.2,1,0.5,1.4,0.9c0.4,0.4,0.6,0.8,0.8,1.3c0.2,0.5,0.3,1,0.3,1.5
		c0,0.6-0.1,1.2-0.3,1.7c-0.2,0.5-0.5,0.9-0.9,1.3c-0.4,0.4-0.9,0.7-1.4,0.9c-0.6,0.2-1.2,0.3-1.8,0.3c-0.7,0-1.4-0.1-1.9-0.4
		c-0.6-0.3-1.1-0.7-1.5-1.2c-0.4-0.5-0.7-1.1-0.9-1.7c-0.2-0.7-0.3-1.4-0.3-2.1c0-1,0.2-2,0.6-2.8c0.4-0.8,0.9-1.6,1.5-2.2
		c0.7-0.6,1.4-1.1,2.3-1.4c0.9-0.3,1.8-0.5,2.8-0.5c1,0,2,0.1,2.9,0.4c0.9,0.3,1.7,0.7,2.3,1.3c0.7,0.6,1.2,1.3,1.6,2.1
		c0.4,0.9,0.6,1.9,0.6,3v15.2h4.4v-12.1c0-1.3-0.2-2.2-0.6-3c-0.4-0.7-1.2-1.3-2.4-1.7l7.3-6.9l3,2.4l-4.8,4.4
		c1.2,0.9,1.9,2.4,1.9,4.6V183H784.7z M780.7,165.6c0-0.5-0.2-0.9-0.5-1.2c-0.3-0.3-0.7-0.5-1.2-0.5c-0.5,0-0.9,0.2-1.2,0.5
		c-0.3,0.3-0.5,0.7-0.5,1.2c0,0.5,0.2,0.9,0.5,1.2c0.3,0.3,0.7,0.5,1.2,0.5c0.5,0,0.9-0.2,1.2-0.5
		C780.5,166.5,780.7,166.1,780.7,165.6z"/>
	<path class="st1" d="M815.6,183v-17c0-0.7-0.1-1.4-0.3-2c-0.2-0.6-0.5-1.2-0.9-1.6c-0.4-0.5-0.9-0.8-1.5-1.1
		c-0.6-0.3-1.4-0.4-2.2-0.4c-0.8,0-1.4,0.1-2,0.4c-0.6,0.2-1,0.6-1.4,1c-0.4,0.4-0.7,1-0.9,1.6c-0.2,0.6-0.4,1.3-0.5,2h-4.3
		c0.1-1.2,0.4-2.3,0.8-3.3c0.4-1,1-1.9,1.8-2.6c0.7-0.7,1.7-1.3,2.7-1.7c1.1-0.4,2.3-0.6,3.8-0.6c1.6,0,3,0.2,4.2,0.6
		c1.2,0.4,2.1,1,2.8,1.7c0.7,0.7,1.3,1.6,1.6,2.7c0.3,1,0.5,2.2,0.5,3.4v17H815.6z"/>
	<path class="st1" d="M843.2,183v-15.9c0-0.8,0-1.5-0.1-2.1c-0.1-0.7-0.3-1.3-0.5-1.8c-0.2-0.5-0.5-1-0.9-1.4
		c-0.4-0.4-0.8-0.7-1.4-0.9l-3.7,2.5l-3.7-2.5c-0.6,0.2-1,0.5-1.4,0.9c-0.4,0.4-0.7,0.8-0.9,1.4c-0.2,0.5-0.4,1.1-0.5,1.8
		c-0.1,0.7-0.1,1.4-0.1,2.1v11.3l4.8-4.4c-0.8-0.3-1.4-0.8-1.8-1.5c-0.4-0.7-0.6-1.4-0.6-2.2c0-0.6,0.1-1.1,0.3-1.6
		c0.2-0.5,0.5-0.9,0.9-1.3c0.4-0.4,0.8-0.7,1.3-0.9c0.5-0.2,1.1-0.3,1.7-0.3c0.6,0,1.2,0.1,1.7,0.3c0.5,0.2,1,0.5,1.3,0.9
		c0.4,0.4,0.7,0.8,0.9,1.3c0.2,0.5,0.3,1,0.3,1.6c0,0.5-0.1,0.9-0.2,1.4c-0.1,0.4-0.3,0.8-0.5,1.1s-0.4,0.6-0.6,0.9
		c-0.2,0.3-0.4,0.5-0.7,0.7l-9,8.6h-4.1v-15.7c0-1.2,0.1-2.3,0.4-3.4c0.3-1.1,0.7-2,1.3-2.9c0.6-0.9,1.3-1.6,2.3-2.2
		c0.9-0.6,2-1,3.3-1.3l3.6,2.9l3.7-2.9c1.3,0.2,2.4,0.7,3.3,1.3c0.9,0.6,1.6,1.3,2.2,2.2c0.6,0.9,1,1.8,1.3,2.9
		c0.3,1.1,0.4,2.2,0.4,3.5V183H843.2z M838,170.3c0-0.4-0.1-0.8-0.4-1.1c-0.3-0.3-0.7-0.5-1.2-0.5c-0.5,0-0.9,0.2-1.1,0.5
		c-0.3,0.3-0.4,0.7-0.4,1.1s0.1,0.8,0.4,1.1c0.3,0.3,0.7,0.5,1.1,0.5c0.5,0,0.9-0.2,1.2-0.5C837.9,171.1,838,170.7,838,170.3z"/>
	<path class="st1" d="M847.4,155.3c-1.3-0.6-2.6-1.2-4.1-1.6c-1.4-0.5-2.9-0.9-4.5-1.3c-1.5-0.4-3.1-0.6-4.7-0.8
		c-1.6-0.2-3.2-0.3-4.8-0.3c-0.8,0-1.6,0-2.3,0c-0.7,0-1.5,0.1-2.2,0.2c1-2.7,2.5-4.7,4.4-6.1c1.9-1.4,4.1-2.1,6.8-2.1
		c1.6,0,3.1,0.3,4.5,0.9c1.4,0.6,2.5,1.4,3.5,2.5c1,1.1,1.8,2.3,2.4,3.8C846.9,152,847.3,153.6,847.4,155.3z M831.4,148.7
		c1,0,1.9,0,2.9,0.1c0.9,0.1,1.9,0.2,2.8,0.4c1,0.2,1.9,0.4,2.9,0.7c1,0.3,2,0.6,3,0.9c-0.3-0.6-0.7-1.1-1.2-1.7
		c-0.5-0.5-1-1-1.6-1.4c-0.6-0.4-1.3-0.7-2-1c-0.7-0.3-1.5-0.4-2.4-0.4c-1.4,0-2.5,0.2-3.4,0.7s-1.7,1-2.3,1.7H831.4z"/>
</g>
</svg>
