<?xml version="1.0" encoding="utf-8"?>
<!-- Generator: Adobe Illustrator 24.2.3, SVG Export Plug-In . SVG Version: 6.00 Build 0)  -->
<svg version="1.1" id="Layer_1" xmlns="http://www.w3.org/2000/svg" xmlns:xlink="http://www.w3.org/1999/xlink" x="0px" y="0px"
	 viewBox="0 0 1329 116" style="enable-background:new 0 0 1329 116;" xml:space="preserve">
<style type="text/css">
	.st0{enable-background:new    ;}
	.st1{fill:#F8EFD7;}
</style>
<g class="st0">
	<path class="st1" d="M16.7,49.3c0-1.3-0.3-2.3-1-3c-0.7-0.7-1.7-1.1-3-1.1c-0.7,0-1.4,0.2-2,0.7c-0.6,0.5-1,1.1-1.2,2
		c0.2-0.2,0.5-0.4,0.9-0.6c0.3-0.2,0.7-0.2,1.2-0.2c0.6,0,1.1,0.1,1.6,0.3s0.9,0.5,1.2,0.8c0.3,0.3,0.6,0.7,0.8,1.2
		c0.2,0.5,0.3,0.9,0.3,1.5c0,1.1-0.3,2-1,2.6c-0.7,0.7-1.6,1-2.8,1c-0.7,0-1.4-0.1-1.9-0.4c-0.6-0.3-1-0.7-1.4-1.2s-0.7-1.1-0.9-1.7
		c-0.2-0.7-0.3-1.3-0.3-2.1c0-0.8,0.2-1.6,0.5-2.4c0.3-0.7,0.7-1.3,1.3-1.9c0.5-0.5,1.2-0.9,1.9-1.2c0.8-0.3,1.6-0.5,2.4-0.5
		c0.9,0,1.8,0.2,2.5,0.5c0.7,0.3,1.4,0.7,1.9,1.3s0.9,1.2,1.2,1.9c0.3,0.7,0.4,1.5,0.4,2.4v27.2c0.2-0.1,0.5-0.2,0.7-0.2
		c0.3,0,0.5,0,0.8,0c0.6,0,1.1,0.1,1.6,0.3c0.5,0.2,0.9,0.5,1.3,0.9c0.4,0.4,0.7,0.8,0.9,1.3c0.2,0.5,0.3,1,0.3,1.6
		c0,0.6-0.1,1.1-0.3,1.6c-0.2,0.5-0.5,0.9-0.9,1.3c-0.4,0.4-0.8,0.7-1.3,0.9c-0.5,0.2-1,0.3-1.6,0.3c-0.6,0-1.1-0.1-1.6-0.3
		c-0.5-0.2-0.9-0.5-1.3-0.9c-0.4-0.4-0.7-0.8-0.9-1.3c-0.2-0.5-0.3-1-0.3-1.6V49.3z M11.7,52.6c0.5,0,0.9-0.2,1.2-0.5
		c0.3-0.4,0.5-0.8,0.5-1.3c0-0.5-0.1-0.9-0.4-1.2c-0.3-0.4-0.7-0.5-1.3-0.5c-0.5,0-0.9,0.2-1.2,0.5c-0.3,0.4-0.4,0.8-0.4,1.2
		c0,0.5,0.1,0.9,0.4,1.3C10.8,52.4,11.2,52.6,11.7,52.6z M22.7,80.2c0-0.5-0.2-1-0.6-1.3c-0.4-0.4-0.8-0.5-1.4-0.5s-1,0.2-1.3,0.5
		c-0.4,0.4-0.5,0.8-0.5,1.3c0,0.5,0.2,1,0.5,1.4c0.4,0.4,0.8,0.6,1.3,0.6s1-0.2,1.4-0.6S22.7,80.7,22.7,80.2z"/>
	<path class="st1" d="M43.7,80l-8.7,4h-2.7V66.5c-0.2,0.1-0.5,0.2-0.7,0.2c-0.3,0-0.5,0-0.8,0c-0.6,0-1.1-0.1-1.6-0.3
		c-0.5-0.2-0.9-0.5-1.3-0.9c-0.4-0.4-0.7-0.8-0.9-1.3c-0.2-0.5-0.3-1-0.3-1.6c0-0.6,0.1-1.1,0.3-1.6c0.2-0.5,0.5-0.9,0.9-1.3
		c0.4-0.4,0.8-0.7,1.3-0.9c0.5-0.2,1-0.3,1.6-0.3c0.6,0,1.1,0.1,1.6,0.3c0.5,0.2,0.9,0.5,1.3,0.9c0.4,0.4,0.7,0.8,0.9,1.3
		c0.2,0.5,0.3,1,0.3,1.6v19l11.5-5.1V58.8h2.5v17.9c0.8,0.3,1.4,0.8,1.9,1.4c0.5,0.7,0.7,1.4,0.7,2.3c0,0.6-0.1,1.1-0.3,1.6
		c-0.2,0.5-0.5,0.9-0.8,1.2c-0.3,0.4-0.8,0.6-1.2,0.8c-0.5,0.2-1,0.3-1.5,0.3c-0.6,0-1.1-0.1-1.5-0.3c-0.5-0.2-0.9-0.4-1.2-0.8
		c-0.3-0.3-0.6-0.7-0.8-1.2c-0.2-0.5-0.3-1-0.3-1.5V80z M30.8,64.6c0.5,0,1-0.2,1.3-0.6s0.5-0.8,0.5-1.4c0-0.5-0.2-1-0.5-1.4
		s-0.8-0.5-1.3-0.5c-0.5,0-1,0.2-1.4,0.5s-0.5,0.8-0.5,1.4c0,0.5,0.2,1,0.5,1.4S30.2,64.6,30.8,64.6z M47.6,82.2
		c0.5,0,0.9-0.2,1.2-0.5c0.3-0.3,0.5-0.7,0.5-1.2c0-0.5-0.2-0.9-0.5-1.2c-0.3-0.3-0.7-0.5-1.2-0.5c-0.5,0-0.9,0.2-1.2,0.5
		c-0.3,0.3-0.5,0.7-0.5,1.2c0,0.5,0.2,0.9,0.5,1.2C46.7,82,47.1,82.2,47.6,82.2z"/>
	<path class="st1" d="M59,84V66.5c-0.2,0.1-0.5,0.2-0.7,0.2c-0.3,0-0.5,0-0.8,0c-0.6,0-1.1-0.1-1.6-0.3c-0.5-0.2-0.9-0.5-1.3-0.9
		c-0.4-0.4-0.7-0.8-0.9-1.3c-0.2-0.5-0.3-1-0.3-1.6c0-0.6,0.1-1.1,0.3-1.6c0.2-0.5,0.5-0.9,0.9-1.3c0.4-0.4,0.8-0.7,1.3-0.9
		c0.5-0.2,1-0.3,1.6-0.3c0.6,0,1.1,0.1,1.6,0.3c0.5,0.2,0.9,0.5,1.3,0.9c0.4,0.4,0.7,0.8,0.9,1.3c0.2,0.5,0.3,1,0.3,1.6v19.1h11.8
		V46.8h2.5V84H59z M57.5,64.5c0.5,0,1-0.2,1.3-0.5c0.3-0.4,0.5-0.8,0.5-1.4s-0.2-1-0.5-1.3c-0.3-0.4-0.8-0.5-1.3-0.5
		c-0.5,0-1,0.2-1.4,0.5c-0.4,0.4-0.5,0.8-0.5,1.3s0.2,1,0.5,1.4C56.5,64.4,57,64.5,57.5,64.5z"/>
	<path class="st1" d="M69.2,53.8c-1.7-0.6-3.3-1.1-4.8-1.5c-1.5-0.4-2.9-0.7-4.2-0.9C59,51.2,57.8,51,56.7,51
		c-1.1-0.1-2.1-0.1-3.1-0.2c-0.5,0-0.8,0-1.2,0s-0.6,0-0.8,0c-0.2,0-0.4,0-0.6,0c-0.2,0-0.4,0-0.6,0.1c0.4-1.1,1-2.2,1.7-3.1
		c0.7-0.9,1.4-1.7,2.3-2.3c0.9-0.6,1.8-1.1,2.9-1.4c1.1-0.3,2.2-0.5,3.4-0.5c3.2,0,5.9,1.3,8.1,4v-6h2.4v12.8L69.2,53.8z M68.6,51.4
		c-0.9-1.9-1.9-3.3-3.2-4.2c-1.3-0.9-2.8-1.4-4.7-1.4c-1.5,0-2.9,0.3-4.1,0.8c-1.2,0.5-2.1,1.3-2.8,2.3c1.3,0,2.5,0,3.7,0.1
		c1.2,0.1,2.4,0.2,3.6,0.4c1.2,0.2,2.4,0.5,3.6,0.8C66,50.5,67.3,50.9,68.6,51.4z"/>
	<path class="st1" d="M94.6,84v-2c0-1.3,0.2-2.4,0.7-3.4c0.5-1,1.1-1.9,1.8-2.7c0.7-0.8,1.6-1.5,2.6-2.2c1-0.7,1.9-1.3,3-1.9
		c1-0.6,2-1.2,3-1.8c1-0.6,1.8-1.3,2.6-2c0.7-0.7,1.4-1.5,1.8-2.3c0.5-0.9,0.7-1.8,0.7-2.9c0-1-0.2-1.9-0.5-2.6
		c-0.3-0.7-0.7-1.4-1.3-1.9c-0.6-0.5-1.2-0.9-2-1.1c-0.8-0.2-1.7-0.4-2.6-0.4c-1,0-1.9,0.2-2.7,0.5c-0.8,0.3-1.5,0.8-2.1,1.4
		s-1,1.3-1.4,2.2c-0.3,0.9-0.5,1.8-0.5,2.9h-2.8c0-1.4,0.2-2.6,0.7-3.7c0.5-1.1,1.1-2.1,1.9-2.9c0.8-0.8,1.8-1.4,3-1.9
		c1.2-0.4,2.5-0.7,3.9-0.7c1.5,0,2.8,0.2,3.9,0.6c1.1,0.4,2.1,1,2.9,1.7c0.8,0.7,1.4,1.6,1.8,2.5c0.4,1,0.6,2,0.6,3.2
		c0,1.3-0.2,2.4-0.7,3.4c-0.4,1-1,1.9-1.7,2.7c-0.7,0.8-1.5,1.5-2.5,2.1s-1.9,1.2-2.9,1.8c-1,0.6-1.9,1.2-2.9,1.8
		c-1,0.6-1.8,1.2-2.6,1.9c-0.8,0.7-1.4,1.5-2,2.3c-0.5,0.8-0.8,1.8-1,2.9h16.1V84H94.6z"/>
	<path class="st1" d="M119.6,76.4c0.1,1,0.4,1.9,0.9,2.6c0.4,0.7,1,1.4,1.6,1.9c0.6,0.5,1.4,0.9,2.2,1.1c0.8,0.2,1.7,0.4,2.6,0.4
		c1.1,0,2.1-0.2,3-0.6c0.9-0.4,1.6-0.9,2.2-1.6c0.6-0.7,1-1.5,1.4-2.4c0.3-0.9,0.5-1.9,0.5-3c0-1.1-0.2-2.1-0.5-3.1
		c-0.3-0.9-0.8-1.7-1.4-2.4c-0.6-0.7-1.4-1.2-2.3-1.5c-0.9-0.4-1.9-0.5-3.1-0.5c-1.3,0-2.5,0.2-3.5,0.7c-1,0.5-2,1.3-2.8,2.4
		l-2.2-0.3l2.4-15.2H135v2.2h-12.3l-1.8,9.9c0.6-0.4,1.1-0.7,1.6-0.9s1-0.4,1.5-0.6c0.5-0.1,1-0.2,1.5-0.3c0.5-0.1,1.1-0.1,1.8-0.1
		c1.3,0,2.6,0.2,3.7,0.7c1.1,0.4,2.1,1.1,2.9,1.9c0.8,0.8,1.5,1.8,1.9,3.1c0.5,1.2,0.7,2.6,0.7,4.1c0,1.5-0.3,2.9-0.8,4.1
		c-0.5,1.2-1.2,2.2-2.1,3s-1.8,1.5-3,1.9c-1.1,0.4-2.3,0.6-3.5,0.6c-1.4,0-2.7-0.1-3.9-0.4c-1.2-0.3-2.3-0.7-3.2-1.4
		c-0.9-0.6-1.7-1.5-2.2-2.5c-0.6-1-0.9-2.3-1-3.9H119.6z"/>
	<path class="st1" d="M156.9,61.8c-0.1-0.7-0.4-1.4-0.7-2c-0.3-0.6-0.7-1.1-1.1-1.5c-0.5-0.4-1-0.8-1.6-1c-0.6-0.2-1.3-0.4-2.1-0.4
		c-1.2,0-2.2,0.2-3.1,0.6c-0.8,0.4-1.6,0.9-2.1,1.6c-0.6,0.7-1,1.5-1.4,2.4c-0.4,0.9-0.6,1.8-0.8,2.8c-0.2,1-0.4,2-0.5,3
		c-0.1,1-0.2,2-0.3,2.9c0.3-0.6,0.7-1.1,1.1-1.7c0.5-0.6,1-1,1.6-1.5c0.6-0.4,1.4-0.8,2.2-1c0.8-0.3,1.7-0.4,2.7-0.4
		c1.5,0,2.8,0.2,4,0.7s2.1,1.1,2.9,1.9c0.8,0.8,1.4,1.8,1.8,3c0.4,1.2,0.6,2.5,0.6,3.9c0,3-0.8,5.3-2.4,7c-1.6,1.7-3.9,2.5-7,2.5
		c-1.4,0-2.8-0.2-4-0.7c-1.2-0.5-2.3-1.3-3.2-2.4c-0.9-1.1-1.6-2.5-2.1-4.3c-0.5-1.8-0.7-4-0.7-6.6c0-1.2,0.1-2.3,0.2-3.6
		c0.1-1.2,0.3-2.4,0.6-3.6s0.7-2.3,1.2-3.3c0.5-1.1,1.1-2,1.9-2.8c0.8-0.8,1.7-1.4,2.8-1.9c1.1-0.5,2.3-0.7,3.8-0.7
		c1.2,0,2.3,0.2,3.3,0.5c1,0.3,1.9,0.8,2.6,1.4c0.7,0.6,1.3,1.4,1.8,2.2c0.5,0.9,0.8,1.9,0.9,3.1H156.9z M150.7,82.4
		c1.3,0,2.3-0.2,3.1-0.7c0.8-0.4,1.5-1,2-1.7c0.5-0.7,0.9-1.5,1.1-2.4c0.2-0.9,0.3-1.8,0.3-2.6c0-2.3-0.5-4.1-1.6-5.3
		c-1-1.2-2.7-1.8-5.1-1.8c-1,0-1.9,0.2-2.7,0.6c-0.8,0.4-1.5,0.9-2,1.6c-0.6,0.7-1,1.4-1.3,2.3s-0.4,1.8-0.4,2.8
		c0,0.8,0.1,1.7,0.3,2.5c0.2,0.9,0.6,1.6,1.1,2.3c0.5,0.7,1.2,1.3,2,1.7C148.5,82.1,149.5,82.4,150.7,82.4z"/>
	<path class="st1" d="M173.6,84.6c-2,0-3.7-0.4-5-1.2s-2.3-1.9-3-3.2s-1.2-3-1.5-4.8c-0.3-1.8-0.4-3.7-0.4-5.8
		c0-1.2,0.1-2.5,0.2-3.7c0.1-1.2,0.3-2.4,0.6-3.5c0.3-1.1,0.6-2.1,1.1-3.1c0.5-0.9,1.1-1.8,1.8-2.5c0.7-0.7,1.6-1.2,2.7-1.6
		c1-0.4,2.2-0.6,3.6-0.6c1.5,0,2.7,0.2,3.8,0.6c1,0.4,1.9,1,2.7,1.8c0.7,0.7,1.3,1.6,1.8,2.6c0.4,1,0.8,2.1,1,3.2s0.4,2.3,0.5,3.5
		c0.1,1.2,0.1,2.4,0.1,3.5c0,1.3-0.1,2.6-0.2,3.8c-0.1,1.2-0.3,2.4-0.6,3.5c-0.3,1.1-0.7,2.1-1.1,3c-0.5,0.9-1.1,1.7-1.8,2.4
		c-0.7,0.7-1.6,1.2-2.6,1.5C176.1,84.4,174.9,84.6,173.6,84.6z M173.6,82.4c1,0,1.9-0.2,2.7-0.5c0.8-0.4,1.4-0.9,2-1.5
		c0.5-0.6,1-1.3,1.3-2.2c0.3-0.8,0.6-1.7,0.8-2.7c0.2-1,0.3-1.9,0.4-2.9c0.1-1,0.1-2,0.1-3c0-1.1,0-2.1-0.1-3.1c-0.1-1-0.2-2-0.4-3
		c-0.2-0.9-0.5-1.8-0.8-2.6c-0.4-0.8-0.8-1.5-1.3-2.1c-0.5-0.6-1.2-1-2-1.4c-0.8-0.3-1.7-0.5-2.7-0.5c-1.4,0-2.6,0.4-3.6,1.1
		c-0.9,0.7-1.7,1.7-2.2,2.9c-0.5,1.2-0.9,2.6-1.1,4.1c-0.2,1.6-0.3,3.1-0.3,4.8c0,1.9,0.1,3.6,0.4,5.1c0.2,1.5,0.6,2.9,1.2,4
		c0.6,1.1,1.3,1.9,2.3,2.5C171,82.1,172.2,82.4,173.6,82.4z"/>
	<path class="st1" d="M202.3,84V71.7c0-0.6,0.1-1.1,0.3-1.6c0.2-0.5,0.5-0.9,0.9-1.3c0.4-0.4,0.8-0.6,1.3-0.8c0.5-0.2,1-0.3,1.6-0.3
		c0.6,0,1.1,0.1,1.6,0.3s0.9,0.5,1.3,0.8c0.3,0.4,0.6,0.8,0.8,1.3c0.2,0.5,0.3,1,0.3,1.6c0,0.6-0.1,1.1-0.3,1.6
		c-0.2,0.5-0.5,0.9-0.8,1.3c-0.4,0.3-0.8,0.6-1.3,0.8c-0.5,0.2-1,0.3-1.6,0.3c-0.3,0-0.6,0-0.8-0.1c-0.3,0-0.5-0.1-0.7-0.2v6.3h11.4
		V67.2c0-1-0.2-1.9-0.5-2.7c-0.4-0.8-0.8-1.5-1.5-2c-0.6-0.6-1.4-1-2.3-1.3c-0.9-0.3-1.9-0.4-2.9-0.4c-0.9,0-1.8,0.1-2.5,0.4
		c-0.8,0.3-1.4,0.6-2,1.1c-0.6,0.5-1.1,1-1.4,1.6c-0.4,0.6-0.6,1.3-0.7,2h-2.7c0.2-1.1,0.5-2.1,1.1-3c0.5-0.9,1.2-1.7,2-2.3
		c0.8-0.6,1.8-1.1,2.8-1.5c1.1-0.4,2.2-0.5,3.4-0.5c1.4,0,2.7,0.2,3.9,0.6c1.2,0.4,2.2,0.9,3.1,1.7c0.9,0.7,1.5,1.6,2,2.7
		c0.5,1.1,0.7,2.3,0.7,3.7V84H202.3z M208.2,71.7c0-0.5-0.2-1-0.5-1.3c-0.3-0.3-0.8-0.5-1.3-0.5s-1,0.2-1.3,0.5
		c-0.3,0.4-0.5,0.8-0.5,1.3s0.2,1,0.5,1.3s0.8,0.5,1.3,0.5s1-0.2,1.3-0.5S208.2,72.3,208.2,71.7z"/>
	<path class="st1" d="M216.4,98.4v-4.9c-0.2,0.1-0.4,0.2-0.6,0.2c-0.2,0-0.5,0.1-0.8,0.1c-0.6,0-1.1-0.1-1.6-0.3
		c-0.5-0.2-0.9-0.5-1.2-0.8c-0.3-0.3-0.6-0.7-0.8-1.2c-0.2-0.4-0.3-0.9-0.3-1.4c0-1.1,0.3-2,1-2.6c0.7-0.7,1.6-1,2.8-1
		c1.2,0,2.1,0.3,2.7,1c0.6,0.7,1,1.6,1,2.7v8.3H216.4z M215,91.8c0.5,0,0.9-0.2,1.2-0.5c0.3-0.3,0.4-0.7,0.4-1.1
		c0-0.5-0.1-0.8-0.4-1.1c-0.2-0.3-0.7-0.5-1.2-0.5c-0.5,0-0.9,0.2-1.2,0.5c-0.3,0.3-0.4,0.7-0.4,1.1c0,0.5,0.1,0.8,0.4,1.1
		C214.1,91.6,214.5,91.8,215,91.8z"/>
	<path class="st1" d="M243.1,84V63.5c0-0.8-0.2-1.4-0.7-1.9c-0.4-0.5-1.1-0.7-1.8-0.7c-0.6,0-1.1,0.2-1.5,0.5
		c-0.4,0.3-0.7,0.7-0.9,1.3L231.1,84h-2.4V66.5c-0.2,0.1-0.5,0.2-0.7,0.2c-0.3,0-0.5,0-0.8,0c-0.6,0-1.1-0.1-1.6-0.3
		c-0.5-0.2-0.9-0.5-1.3-0.9c-0.4-0.4-0.7-0.8-0.9-1.3c-0.2-0.5-0.3-1-0.3-1.6c0-0.6,0.1-1.1,0.3-1.6c0.2-0.5,0.5-0.9,0.9-1.3
		c0.4-0.4,0.8-0.7,1.3-0.9c0.5-0.2,1-0.3,1.6-0.3c0.6,0,1.1,0.1,1.6,0.3c0.5,0.2,0.9,0.5,1.3,0.9c0.4,0.4,0.7,0.8,0.9,1.3
		c0.2,0.5,0.3,1,0.3,1.6V77c0.8-2.4,1.6-4.9,2.4-7.3c0.8-2.4,1.6-4.9,2.4-7.3c0.4-1.4,1-2.3,1.7-2.9c0.7-0.6,1.7-0.9,2.9-0.9
		c0.7,0,1.4,0.1,2.1,0.4c0.6,0.2,1.2,0.6,1.6,1c0.4,0.4,0.8,0.9,1,1.5c0.2,0.6,0.4,1.3,0.4,2V84H243.1z M227.2,64.6
		c0.5,0,1-0.2,1.3-0.6s0.5-0.8,0.5-1.4c0-0.5-0.2-1-0.5-1.4s-0.8-0.5-1.3-0.5c-0.5,0-1,0.2-1.4,0.5s-0.5,0.8-0.5,1.4
		c0,0.5,0.2,1,0.5,1.4S226.6,64.6,227.2,64.6z"/>
	<path class="st1" d="M252.5,84v-7.6c0-2.8,1.1-4.5,3.2-5.3c-1.5-0.4-2.7-1.1-3.5-2.2c-0.8-1.1-1.2-2.4-1.2-4c0-0.9,0.2-1.8,0.5-2.5
		c0.3-0.8,0.8-1.4,1.4-2c0.6-0.6,1.3-1,2.1-1.3c0.8-0.3,1.7-0.5,2.6-0.5c1.3,0,2.4,0.3,3.1,1c0.8,0.7,1.2,1.6,1.2,2.7
		c0,0.6-0.1,1.1-0.3,1.6c-0.2,0.5-0.4,0.9-0.8,1.2c-0.3,0.4-0.7,0.6-1.2,0.8c-0.5,0.2-1,0.3-1.7,0.3c-1,0-1.8-0.3-2.5-0.8
		c-0.7-0.5-1.2-1.3-1.4-2.4c-0.2,0.3-0.3,0.6-0.3,1c-0.1,0.3-0.1,0.7-0.1,1.1c0,0.7,0.1,1.3,0.3,1.9c0.2,0.5,0.5,1,0.9,1.4
		c0.4,0.4,1,0.7,1.7,0.9c0.7,0.2,1.6,0.3,2.6,0.3h2.4v2.5h-2.7c-1.2,0-2.1,0.3-2.8,1c-0.6,0.7-0.9,1.8-0.9,3.3v5.3h12.2V58.8h2.5V84
		H252.5z M259.8,62.4c0-0.5-0.2-0.9-0.5-1.3c-0.4-0.4-0.8-0.6-1.3-0.6c-0.6,0-1,0.2-1.4,0.5c-0.3,0.3-0.5,0.8-0.5,1.4
		c0,0.5,0.2,1,0.5,1.3c0.3,0.3,0.8,0.5,1.3,0.5c0.5,0,0.9-0.2,1.3-0.5C259.6,63.4,259.8,63,259.8,62.4z"/>
	<path class="st1" d="M288.4,84V66.8c0-0.8-0.1-1.6-0.3-2.3c-0.2-0.7-0.5-1.4-1-1.9c-0.5-0.5-1-1-1.8-1.3c-0.7-0.3-1.6-0.5-2.6-0.5
		c-0.9,0-1.8,0.1-2.4,0.4c-0.7,0.3-1.2,0.6-1.7,1.1c-0.5,0.5-0.8,1-1.1,1.6c-0.3,0.6-0.4,1.3-0.5,2h-2.5c0.1-1.1,0.3-2.1,0.7-3
		c0.4-0.9,0.9-1.7,1.6-2.3c0.7-0.7,1.5-1.2,2.5-1.5c1-0.4,2.1-0.5,3.5-0.5c1.4,0,2.7,0.2,3.7,0.6c1,0.4,1.9,1,2.5,1.7
		c0.7,0.7,1.1,1.6,1.5,2.6c0.3,1,0.5,2.1,0.5,3.3V84H288.4z"/>
	<path class="st1" d="M312.3,80l-8.7,4h-2.7V66.5c-0.2,0.1-0.5,0.2-0.7,0.2c-0.3,0-0.5,0-0.8,0c-0.6,0-1.1-0.1-1.6-0.3
		c-0.5-0.2-0.9-0.5-1.3-0.9c-0.4-0.4-0.7-0.8-0.9-1.3c-0.2-0.5-0.3-1-0.3-1.6c0-0.6,0.1-1.1,0.3-1.6c0.2-0.5,0.5-0.9,0.9-1.3
		c0.4-0.4,0.8-0.7,1.3-0.9c0.5-0.2,1-0.3,1.6-0.3c0.6,0,1.1,0.1,1.6,0.3c0.5,0.2,0.9,0.5,1.3,0.9c0.4,0.4,0.7,0.8,0.9,1.3
		c0.2,0.5,0.3,1,0.3,1.6v19l11.5-5.1V58.8h2.5v17.9c0.8,0.3,1.4,0.8,1.9,1.4c0.5,0.7,0.7,1.4,0.7,2.3c0,0.6-0.1,1.1-0.3,1.6
		c-0.2,0.5-0.5,0.9-0.8,1.2c-0.3,0.4-0.8,0.6-1.2,0.8c-0.5,0.2-1,0.3-1.5,0.3c-0.6,0-1.1-0.1-1.5-0.3c-0.5-0.2-0.9-0.4-1.2-0.8
		c-0.3-0.3-0.6-0.7-0.8-1.2c-0.2-0.5-0.3-1-0.3-1.5V80z M299.4,64.6c0.5,0,1-0.2,1.3-0.6s0.5-0.8,0.5-1.4c0-0.5-0.2-1-0.5-1.4
		s-0.8-0.5-1.3-0.5c-0.5,0-1,0.2-1.4,0.5s-0.5,0.8-0.5,1.4c0,0.5,0.2,1,0.5,1.4S298.9,64.6,299.4,64.6z M316.2,82.2
		c0.5,0,0.9-0.2,1.2-0.5c0.3-0.3,0.5-0.7,0.5-1.2c0-0.5-0.2-0.9-0.5-1.2c-0.3-0.3-0.7-0.5-1.2-0.5c-0.5,0-0.9,0.2-1.2,0.5
		c-0.3,0.3-0.5,0.7-0.5,1.2c0,0.5,0.2,0.9,0.5,1.2C315.3,82,315.7,82.2,316.2,82.2z"/>
	<path class="st1" d="M325,58.9h2.5v17.5c0.2-0.1,0.5-0.2,0.7-0.2c0.3,0,0.5,0,0.8,0c0.6,0,1.1,0.1,1.6,0.3c0.5,0.2,0.9,0.5,1.3,0.9
		c0.4,0.4,0.7,0.8,0.9,1.3c0.2,0.5,0.3,1,0.3,1.6c0,0.6-0.1,1.1-0.3,1.6c-0.2,0.5-0.5,0.9-0.9,1.3c-0.4,0.4-0.8,0.7-1.3,0.9
		c-0.5,0.2-1,0.3-1.6,0.3c-0.6,0-1.1-0.1-1.6-0.3c-0.5-0.2-0.9-0.5-1.3-0.9c-0.4-0.4-0.7-0.8-0.9-1.3c-0.2-0.5-0.3-1-0.3-1.6V58.9z
		 M329.1,82.1c0.5,0,1-0.2,1.3-0.6s0.5-0.8,0.5-1.4c0-0.5-0.2-1-0.5-1.3c-0.4-0.4-0.8-0.5-1.3-0.5s-1,0.2-1.3,0.5
		c-0.3,0.4-0.5,0.8-0.5,1.3c0,0.5,0.2,1,0.5,1.4C328.1,81.9,328.6,82.1,329.1,82.1z M335.5,58.9h2.5v17.5c0.2-0.1,0.5-0.2,0.7-0.2
		c0.3,0,0.5,0,0.8,0c0.6,0,1.1,0.1,1.6,0.3c0.5,0.2,0.9,0.5,1.3,0.9c0.4,0.4,0.7,0.8,0.9,1.3c0.2,0.5,0.3,1,0.3,1.6
		c0,0.6-0.1,1.1-0.3,1.6c-0.2,0.5-0.5,0.9-0.9,1.3c-0.4,0.4-0.8,0.7-1.3,0.9s-1,0.3-1.6,0.3s-1.1-0.1-1.6-0.3s-0.9-0.5-1.3-0.9
		c-0.4-0.4-0.7-0.8-0.9-1.3c-0.2-0.5-0.3-1-0.3-1.6V58.9z M339.6,82.1c0.5,0,1-0.2,1.3-0.6c0.4-0.4,0.5-0.8,0.5-1.4
		c0-0.5-0.2-1-0.5-1.3c-0.4-0.4-0.8-0.5-1.3-0.5c-0.6,0-1,0.2-1.4,0.5c-0.4,0.4-0.5,0.8-0.5,1.3c0,0.5,0.2,1,0.5,1.4
		C338.6,81.9,339,82.1,339.6,82.1z"/>
	<path class="st1" d="M365,84V70.3c0-1.9-0.5-2.9-1.4-2.9c-0.6,0-1.3,0.7-2.1,2.1L353.3,84H351V66.5c-0.2,0.1-0.5,0.2-0.7,0.2
		c-0.3,0-0.5,0-0.8,0c-0.6,0-1.1-0.1-1.6-0.3c-0.5-0.2-0.9-0.5-1.3-0.9c-0.4-0.4-0.7-0.8-0.9-1.3c-0.2-0.5-0.3-1-0.3-1.6
		c0-0.6,0.1-1.1,0.3-1.6c0.2-0.5,0.5-0.9,0.9-1.3c0.4-0.4,0.8-0.7,1.3-0.9c0.5-0.2,1-0.3,1.6-0.3c0.6,0,1.1,0.1,1.6,0.3
		c0.5,0.2,0.9,0.5,1.3,0.9c0.4,0.4,0.7,0.8,0.9,1.3c0.2,0.5,0.3,1,0.3,1.6v13.9c0,0.2,0,0.5,0,0.8c0,0.3,0,0.6,0,1
		c0,0.3,0,0.6-0.1,0.9c0,0.3-0.1,0.5-0.1,0.6l1-2.1l5.1-9.3c0.3-0.5,0.6-1,0.9-1.4c0.3-0.5,0.7-0.8,1.1-1c-0.9-0.8-1.4-1.9-1.4-3.2
		c0-0.6,0.1-1.1,0.3-1.6c0.2-0.5,0.5-0.9,0.9-1.3c0.4-0.4,0.8-0.7,1.3-0.9c0.5-0.2,1.1-0.3,1.6-0.3s1.1,0.1,1.7,0.3
		c0.5,0.2,1,0.5,1.4,0.9c0.4,0.4,0.7,0.8,0.9,1.3c0.2,0.5,0.3,1,0.3,1.6c0,1.6-0.7,2.8-2.1,3.6c0.4,0.4,0.6,0.9,0.8,1.7
		c0.2,0.7,0.2,1.5,0.2,2.4V84H365z M349.5,64.5c0.5,0,1-0.2,1.3-0.5c0.3-0.4,0.5-0.8,0.5-1.4s-0.2-1-0.5-1.3
		c-0.3-0.4-0.8-0.5-1.3-0.5c-0.5,0-1,0.2-1.4,0.5c-0.4,0.4-0.5,0.8-0.5,1.3s0.2,1,0.5,1.4C348.5,64.4,348.9,64.5,349.5,64.5z
		 M364.2,64.8c0.6,0,1.1-0.2,1.5-0.6c0.4-0.4,0.6-0.9,0.6-1.5c0-0.6-0.2-1.1-0.6-1.5c-0.4-0.4-0.9-0.6-1.5-0.6
		c-0.6,0-1.1,0.2-1.5,0.6c-0.4,0.4-0.6,0.9-0.6,1.5c0,0.6,0.2,1.1,0.6,1.5S363.6,64.8,364.2,64.8z"/>
	<path class="st1" d="M364.9,53.8v-9h2.6v9H364.9z"/>
	<path class="st1" d="M383.8,84L372,70.9l1.7-1.7l10.5,11.5V66.5c-0.2,0.1-0.5,0.2-0.7,0.2s-0.5,0-0.8,0c-0.6,0-1.1-0.1-1.6-0.3
		c-0.5-0.2-0.9-0.5-1.3-0.9c-0.4-0.4-0.7-0.8-0.9-1.3c-0.2-0.5-0.3-1-0.3-1.6c0-0.6,0.1-1.1,0.3-1.6c0.2-0.5,0.5-0.9,0.9-1.3
		c0.4-0.4,0.8-0.7,1.3-0.9c0.5-0.2,1-0.3,1.6-0.3s1.1,0.1,1.6,0.3c0.5,0.2,0.9,0.5,1.3,0.9c0.4,0.4,0.7,0.8,0.9,1.3
		c0.2,0.5,0.3,1,0.3,1.6V84H383.8z M382.7,64.6c0.5,0,1-0.2,1.3-0.6c0.3-0.4,0.5-0.8,0.5-1.4c0-0.5-0.2-1-0.5-1.4
		c-0.4-0.4-0.8-0.5-1.3-0.5s-1,0.2-1.4,0.5s-0.5,0.8-0.5,1.4c0,0.5,0.2,1,0.5,1.4S382.1,64.6,382.7,64.6z"/>
	<path class="st1" d="M400.7,84V64.1c0-1.2-0.3-2.1-0.8-2.7c-0.5-0.6-1.4-0.9-2.6-0.9c-0.8,0-1.4,0.2-1.9,0.5
		c-0.5,0.3-0.8,0.8-1,1.4c0.1,0,0.2-0.1,0.5-0.1c0.2,0,0.4,0,0.6,0c0.6,0,1.2,0.1,1.6,0.3c0.5,0.2,0.9,0.5,1.2,0.8
		c0.3,0.3,0.6,0.7,0.7,1.2c0.2,0.5,0.2,0.9,0.2,1.5c0,0.6-0.1,1.1-0.3,1.5c-0.2,0.5-0.4,0.9-0.8,1.2c-0.3,0.3-0.7,0.6-1.2,0.8
		c-0.5,0.2-1,0.3-1.5,0.3c-0.6,0-1.2-0.1-1.7-0.4c-0.5-0.2-0.9-0.6-1.3-1c-0.4-0.4-0.6-0.9-0.8-1.5c-0.2-0.6-0.3-1.2-0.3-1.9
		c0-0.9,0.1-1.8,0.4-2.6c0.3-0.8,0.7-1.5,1.2-2.1c0.5-0.6,1.2-1,1.9-1.3c0.7-0.3,1.6-0.5,2.5-0.5c0.8,0,1.6,0.1,2.3,0.4
		c0.7,0.2,1.3,0.6,1.8,1.1c0.5,0.5,0.9,1,1.2,1.7c0.3,0.7,0.4,1.5,0.4,2.4v17.6h5.3V68.2c0-0.7-0.1-1.3-0.2-1.8
		c-0.1-0.5-0.3-1-0.6-1.3c-0.3-0.4-0.6-0.7-1-1c-0.4-0.3-0.9-0.5-1.4-0.8l6.6-7.2l1.8,1.6l-4.9,5.3c0.7,0.5,1.3,1.2,1.7,1.9
		c0.4,0.8,0.6,1.8,0.6,3v16H400.7z M395.4,67.9c0.5,0,0.9-0.2,1.2-0.5c0.3-0.4,0.5-0.8,0.5-1.3c0-0.5-0.2-1-0.5-1.3
		c-0.3-0.3-0.7-0.5-1.3-0.5c-0.6,0-1,0.2-1.3,0.5s-0.5,0.8-0.5,1.3c0,0.5,0.2,1,0.5,1.3C394.5,67.7,394.9,67.9,395.4,67.9z"/>
	<path class="st1" d="M429.7,84V66.8c0-0.8-0.1-1.6-0.3-2.3c-0.2-0.7-0.5-1.4-1-1.9c-0.5-0.5-1-1-1.8-1.3c-0.7-0.3-1.6-0.5-2.6-0.5
		c-0.9,0-1.8,0.1-2.4,0.4c-0.7,0.3-1.2,0.6-1.7,1.1c-0.5,0.5-0.8,1-1.1,1.6c-0.3,0.6-0.4,1.3-0.5,2h-2.5c0.1-1.1,0.3-2.1,0.7-3
		c0.4-0.9,0.9-1.7,1.6-2.3c0.7-0.7,1.5-1.2,2.5-1.5c1-0.4,2.1-0.5,3.5-0.5c1.4,0,2.7,0.2,3.7,0.6c1,0.4,1.9,1,2.5,1.7
		c0.7,0.7,1.1,1.6,1.5,2.6c0.3,1,0.5,2.1,0.5,3.3V84H429.7z"/>
	<path class="st1" d="M456.1,84V67.8c0-1.8-0.3-3.3-0.9-4.5c-0.6-1.2-1.7-2-3.1-2.4l-3.5,2.5l-3.4-2.5c-1.4,0.4-2.4,1.2-3.1,2.4
		c-0.6,1.2-1,2.7-1,4.5v13.4l6.8-6.6c-0.4,0-0.8-0.1-1.2-0.3c-0.4-0.2-0.7-0.4-1-0.7s-0.5-0.6-0.7-1.1c-0.2-0.4-0.3-0.9-0.3-1.4
		c0-0.6,0.1-1.1,0.3-1.6s0.5-0.9,0.8-1.3c0.3-0.4,0.8-0.6,1.3-0.8c0.5-0.2,1-0.3,1.6-0.3c0.6,0,1.1,0.1,1.6,0.3
		c0.5,0.2,0.9,0.5,1.3,0.9c0.3,0.4,0.6,0.8,0.8,1.3c0.2,0.5,0.3,1,0.3,1.6c0,0.6-0.1,1.1-0.3,1.7s-0.5,1-0.9,1.4l-10,9.9h-2.8V67.9
		c0-1.2,0.1-2.3,0.4-3.4c0.3-1,0.7-2,1.3-2.8c0.6-0.8,1.3-1.5,2.1-2c0.8-0.5,1.8-0.9,2.9-1.2l3.2,2.4l3.2-2.4
		c1.1,0.2,2.1,0.6,2.9,1.2c0.8,0.6,1.5,1.2,2.1,2c0.6,0.8,1,1.7,1.3,2.8c0.3,1,0.4,2.2,0.4,3.4V84H456.1z M448.7,72.8
		c0.5,0,1-0.2,1.3-0.5c0.4-0.4,0.5-0.8,0.5-1.3c0-0.5-0.2-1-0.5-1.3c-0.4-0.4-0.8-0.5-1.3-0.5s-1,0.2-1.4,0.5
		c-0.4,0.4-0.5,0.8-0.5,1.3c0,0.5,0.2,1,0.5,1.3C447.7,72.6,448.2,72.8,448.7,72.8z"/>
	<path class="st1" d="M456.6,53.8c-1.7-0.6-3.3-1.1-4.8-1.5c-1.5-0.4-2.9-0.7-4.2-0.9c-1.3-0.2-2.5-0.4-3.6-0.5
		c-1.1-0.1-2.1-0.1-3.1-0.1c-0.5,0-0.8,0-1.2,0s-0.6,0-0.8,0c-0.2,0-0.4,0-0.6,0c-0.2,0-0.4,0-0.6,0.1c0.4-1.1,1-2.2,1.6-3.1
		c0.7-0.9,1.4-1.7,2.3-2.3c0.9-0.6,1.8-1.1,2.9-1.4c1.1-0.3,2.2-0.5,3.4-0.5c1.5,0,2.8,0.3,4.1,0.8c1.2,0.5,2.3,1.3,3.2,2.2
		c0.9,1,1.6,2.1,2.2,3.4c0.6,1.3,0.9,2.8,1,4.4L456.6,53.8z M456,51.4c-0.9-1.9-1.9-3.3-3.2-4.2c-1.3-0.9-2.8-1.4-4.8-1.4
		c-0.7,0-1.5,0.1-2.2,0.2c-0.7,0.1-1.3,0.3-1.9,0.6c-0.6,0.3-1.1,0.6-1.6,1c-0.5,0.4-0.9,0.8-1.2,1.3c1.3,0,2.6,0,3.8,0.1
		c1.2,0.1,2.4,0.2,3.6,0.4c1.2,0.2,2.4,0.5,3.6,0.8C453.4,50.5,454.7,50.9,456,51.4z"/>
	<path class="st1" d="M465.9,58.9h2.5v17.5c0.2-0.1,0.5-0.2,0.7-0.2c0.3,0,0.5,0,0.8,0c0.6,0,1.1,0.1,1.6,0.3
		c0.5,0.2,0.9,0.5,1.3,0.9c0.4,0.4,0.7,0.8,0.9,1.3c0.2,0.5,0.3,1,0.3,1.6c0,0.6-0.1,1.1-0.3,1.6c-0.2,0.5-0.5,0.9-0.9,1.3
		c-0.4,0.4-0.8,0.7-1.3,0.9c-0.5,0.2-1,0.3-1.6,0.3c-0.6,0-1.1-0.1-1.6-0.3c-0.5-0.2-0.9-0.5-1.3-0.9c-0.4-0.4-0.7-0.8-0.9-1.3
		c-0.2-0.5-0.3-1-0.3-1.6V58.9z M470,82.1c0.5,0,1-0.2,1.3-0.6s0.5-0.8,0.5-1.4c0-0.5-0.2-1-0.5-1.3c-0.4-0.4-0.8-0.5-1.3-0.5
		s-1,0.2-1.3,0.5c-0.3,0.4-0.5,0.8-0.5,1.3c0,0.5,0.2,1,0.5,1.4C469,81.9,469.5,82.1,470,82.1z"/>
	<path class="st1" d="M485.4,84V64.1c0-1.2-0.3-2.1-0.8-2.7c-0.5-0.6-1.4-0.9-2.6-0.9c-0.8,0-1.4,0.2-1.9,0.5
		c-0.5,0.3-0.8,0.8-1,1.4c0.1,0,0.2-0.1,0.5-0.1c0.2,0,0.4,0,0.6,0c0.6,0,1.2,0.1,1.6,0.3c0.5,0.2,0.9,0.5,1.2,0.8
		c0.3,0.3,0.6,0.7,0.7,1.2c0.2,0.5,0.2,0.9,0.2,1.5c0,0.6-0.1,1.1-0.3,1.5c-0.2,0.5-0.4,0.9-0.8,1.2c-0.3,0.3-0.7,0.6-1.2,0.8
		c-0.5,0.2-1,0.3-1.5,0.3c-0.6,0-1.2-0.1-1.7-0.4c-0.5-0.2-0.9-0.6-1.3-1c-0.3-0.4-0.6-0.9-0.8-1.5c-0.2-0.6-0.3-1.2-0.3-1.9
		c0-0.9,0.1-1.8,0.4-2.6c0.3-0.8,0.7-1.5,1.2-2.1c0.5-0.6,1.2-1,1.9-1.3c0.7-0.3,1.6-0.5,2.5-0.5c0.8,0,1.6,0.1,2.3,0.4
		c0.7,0.2,1.3,0.6,1.8,1.1c0.5,0.5,0.9,1,1.2,1.7c0.3,0.7,0.4,1.5,0.4,2.4v17.6h5.3V58.8h2.5V84H485.4z M480.1,67.9
		c0.5,0,0.9-0.2,1.2-0.5c0.3-0.4,0.5-0.8,0.5-1.3c0-0.5-0.2-1-0.5-1.3c-0.3-0.3-0.7-0.5-1.3-0.5c-0.5,0-1,0.2-1.3,0.5
		s-0.5,0.8-0.5,1.3c0,0.5,0.2,1,0.5,1.3C479.2,67.7,479.6,67.9,480.1,67.9z"/>
	<path class="st1" d="M514.4,84V66.8c0-0.8-0.1-1.6-0.3-2.3c-0.2-0.7-0.5-1.4-1-1.9c-0.5-0.5-1-1-1.8-1.3c-0.7-0.3-1.6-0.5-2.6-0.5
		c-0.9,0-1.8,0.1-2.4,0.4c-0.7,0.3-1.2,0.6-1.7,1.1c-0.5,0.5-0.8,1-1.1,1.6c-0.3,0.6-0.4,1.3-0.5,2h-2.5c0.1-1.1,0.3-2.1,0.7-3
		c0.4-0.9,0.9-1.7,1.6-2.3c0.7-0.7,1.5-1.2,2.5-1.5c1-0.4,2.1-0.5,3.5-0.5c1.4,0,2.7,0.2,3.7,0.6c1,0.4,1.9,1,2.5,1.7
		c0.7,0.7,1.1,1.6,1.5,2.6c0.3,1,0.5,2.1,0.5,3.3V84H514.4z"/>
	<path class="st1" d="M528.5,49.3c0-1.3-0.3-2.3-1-3c-0.7-0.7-1.7-1.1-3-1.1c-0.7,0-1.4,0.2-2,0.7c-0.6,0.5-1,1.1-1.2,2
		c0.2-0.2,0.5-0.4,0.9-0.6c0.3-0.2,0.7-0.2,1.2-0.2c0.6,0,1.1,0.1,1.6,0.3s0.9,0.5,1.2,0.8c0.3,0.3,0.6,0.7,0.8,1.2
		c0.2,0.5,0.3,0.9,0.3,1.5c0,1.1-0.3,2-1,2.6c-0.7,0.7-1.6,1-2.8,1c-0.7,0-1.4-0.1-1.9-0.4c-0.6-0.3-1-0.7-1.4-1.2s-0.7-1.1-0.9-1.7
		c-0.2-0.7-0.3-1.3-0.3-2.1c0-0.8,0.2-1.6,0.5-2.4c0.3-0.7,0.7-1.3,1.3-1.9c0.5-0.5,1.2-0.9,1.9-1.2c0.8-0.3,1.6-0.5,2.4-0.5
		c0.9,0,1.8,0.2,2.5,0.5c0.7,0.3,1.4,0.7,1.9,1.3s0.9,1.2,1.2,1.9c0.3,0.7,0.4,1.5,0.4,2.4v27.2c0.2-0.1,0.5-0.2,0.7-0.2
		c0.3,0,0.5,0,0.8,0c0.6,0,1.1,0.1,1.6,0.3c0.5,0.2,0.9,0.5,1.3,0.9c0.4,0.4,0.7,0.8,0.9,1.3c0.2,0.5,0.3,1,0.3,1.6
		c0,0.6-0.1,1.1-0.3,1.6c-0.2,0.5-0.5,0.9-0.9,1.3c-0.4,0.4-0.8,0.7-1.3,0.9c-0.5,0.2-1,0.3-1.6,0.3c-0.6,0-1.1-0.1-1.6-0.3
		c-0.5-0.2-0.9-0.5-1.3-0.9c-0.4-0.4-0.7-0.8-0.9-1.3c-0.2-0.5-0.3-1-0.3-1.6V49.3z M523.5,52.6c0.5,0,0.9-0.2,1.2-0.5
		c0.3-0.4,0.5-0.8,0.5-1.3c0-0.5-0.1-0.9-0.4-1.2c-0.3-0.4-0.7-0.5-1.3-0.5c-0.5,0-0.9,0.2-1.2,0.5c-0.3,0.4-0.4,0.8-0.4,1.2
		c0,0.5,0.1,0.9,0.4,1.3C522.6,52.4,523,52.6,523.5,52.6z M534.5,80.2c0-0.5-0.2-1-0.6-1.3c-0.4-0.4-0.8-0.5-1.4-0.5s-1,0.2-1.3,0.5
		c-0.4,0.4-0.5,0.8-0.5,1.3c0,0.5,0.2,1,0.5,1.4c0.4,0.4,0.8,0.6,1.3,0.6s1-0.2,1.4-0.6S534.5,80.7,534.5,80.2z"/>
	<path class="st1" d="M558,84V70.3c0-1.9-0.5-2.9-1.4-2.9c-0.6,0-1.3,0.7-2.1,2.1L546.4,84h-2.3V66.5c-0.2,0.1-0.5,0.2-0.7,0.2
		c-0.3,0-0.5,0-0.8,0c-0.6,0-1.1-0.1-1.6-0.3c-0.5-0.2-0.9-0.5-1.3-0.9c-0.4-0.4-0.7-0.8-0.9-1.3c-0.2-0.5-0.3-1-0.3-1.6
		c0-0.6,0.1-1.1,0.3-1.6c0.2-0.5,0.5-0.9,0.9-1.3c0.4-0.4,0.8-0.7,1.3-0.9c0.5-0.2,1-0.3,1.6-0.3c0.6,0,1.1,0.1,1.6,0.3
		c0.5,0.2,0.9,0.5,1.3,0.9c0.4,0.4,0.7,0.8,0.9,1.3c0.2,0.5,0.3,1,0.3,1.6v13.9c0,0.2,0,0.5,0,0.8c0,0.3,0,0.6,0,1
		c0,0.3,0,0.6-0.1,0.9c0,0.3-0.1,0.5-0.1,0.6l1-2.1l5.1-9.3c0.3-0.5,0.6-1,0.9-1.4c0.3-0.5,0.7-0.8,1.1-1c-0.9-0.8-1.4-1.9-1.4-3.2
		c0-0.6,0.1-1.1,0.3-1.6c0.2-0.5,0.5-0.9,0.9-1.3c0.4-0.4,0.8-0.7,1.3-0.9c0.5-0.2,1.1-0.3,1.6-0.3s1.1,0.1,1.7,0.3
		c0.5,0.2,1,0.5,1.4,0.9c0.4,0.4,0.7,0.8,0.9,1.3c0.2,0.5,0.3,1,0.3,1.6c0,1.6-0.7,2.8-2.1,3.6c0.4,0.4,0.6,0.9,0.8,1.7
		c0.2,0.7,0.2,1.5,0.2,2.4V84H558z M542.6,64.5c0.5,0,1-0.2,1.3-0.5c0.3-0.4,0.5-0.8,0.5-1.4s-0.2-1-0.5-1.3
		c-0.3-0.4-0.8-0.5-1.3-0.5c-0.5,0-1,0.2-1.4,0.5c-0.4,0.4-0.5,0.8-0.5,1.3s0.2,1,0.5,1.4C541.5,64.4,542,64.5,542.6,64.5z
		 M557.3,64.8c0.6,0,1.1-0.2,1.5-0.6c0.4-0.4,0.6-0.9,0.6-1.5c0-0.6-0.2-1.1-0.6-1.5c-0.4-0.4-0.9-0.6-1.5-0.6
		c-0.6,0-1.1,0.2-1.5,0.6c-0.4,0.4-0.6,0.9-0.6,1.5c0,0.6,0.2,1.1,0.6,1.5S556.7,64.8,557.3,64.8z"/>
	<path class="st1" d="M582.6,84V67.9c0-1-0.2-1.9-0.6-2.8c-0.4-0.9-0.9-1.6-1.6-2.3s-1.4-1.1-2.3-1.5c-0.9-0.4-1.9-0.5-2.9-0.5
		c-1.6,0-3,0.4-4.2,1.2c-1.2,0.8-2,1.9-2.7,3.2l2.3,2.7v8.5c0.2-0.1,0.5-0.2,0.7-0.2c0.3,0,0.5,0,0.8,0c0.6,0,1.1,0.1,1.6,0.3
		c0.5,0.2,0.9,0.5,1.3,0.9c0.4,0.4,0.7,0.8,0.9,1.3c0.2,0.5,0.3,1,0.3,1.6c0,0.6-0.1,1.1-0.3,1.6c-0.2,0.5-0.5,0.9-0.9,1.3
		c-0.4,0.4-0.8,0.7-1.3,0.9c-0.5,0.2-1,0.3-1.6,0.3c-0.6,0-1.1-0.1-1.6-0.3c-0.5-0.2-0.9-0.5-1.3-0.9c-0.4-0.4-0.7-0.8-0.9-1.3
		c-0.2-0.5-0.3-1-0.3-1.6V68.5l-2.5-2.9c0.3-1.1,0.7-2,1.2-2.9c0.6-0.9,1.2-1.6,2.1-2.2c0.8-0.6,1.7-1.1,2.8-1.4
		c1.1-0.3,2.2-0.5,3.5-0.5c1.5,0,2.9,0.2,4.1,0.7c1.2,0.5,2.3,1.1,3.1,2c0.9,0.8,1.5,1.9,2,3c0.5,1.2,0.7,2.4,0.7,3.8v13.6h9.1V58.8
		h2.5V84H582.6z M572.2,82.1c0.5,0,1-0.2,1.4-0.6c0.4-0.4,0.5-0.8,0.5-1.4s-0.2-1-0.5-1.3c-0.4-0.4-0.8-0.5-1.4-0.5s-1,0.2-1.3,0.5
		c-0.4,0.4-0.5,0.8-0.5,1.3s0.2,1,0.5,1.4C571.2,82,571.7,82.1,572.2,82.1z M596.5,86.6c-0.1,1.2-0.3,2.3-0.6,3.3
		c-0.4,1-0.9,1.8-1.5,2.5c-0.7,0.7-1.5,1.2-2.5,1.5c-1,0.4-2.2,0.5-3.5,0.5c-0.8,0-1.6-0.1-2.4-0.4c-0.8-0.3-1.4-0.6-2-1.1
		c-0.6-0.5-1.1-1-1.4-1.6c-0.4-0.6-0.5-1.3-0.5-2c0-0.5,0.1-0.9,0.3-1.4c0.2-0.4,0.4-0.8,0.7-1.1c0.3-0.3,0.7-0.6,1.1-0.8
		c0.4-0.2,0.8-0.3,1.3-0.3c0.5,0,0.9,0.1,1.4,0.3c0.4,0.2,0.8,0.4,1.1,0.7c0.3,0.3,0.6,0.7,0.7,1.1c0.2,0.4,0.3,0.8,0.3,1.3
		c0,0.8-0.2,1.4-0.5,1.9c-0.3,0.5-0.8,0.9-1.4,1.1c0.1,0.1,0.3,0.2,0.6,0.2c0.3,0.1,0.6,0.1,1,0.1c0.9,0,1.7-0.1,2.4-0.3
		c0.7-0.2,1.3-0.6,1.8-1c0.5-0.5,0.9-1.1,1.1-1.8c0.3-0.8,0.4-1.7,0.4-2.7H596.5z M587.2,89.3c0-0.5-0.2-0.9-0.5-1.2
		c-0.3-0.3-0.7-0.5-1.2-0.5c-0.5,0-0.9,0.2-1.2,0.5c-0.3,0.3-0.5,0.7-0.5,1.2c0,0.5,0.2,0.9,0.5,1.2c0.3,0.3,0.7,0.5,1.2,0.5
		c0.5,0,0.9-0.2,1.2-0.5C587,90.2,587.2,89.8,587.2,89.3z"/>
	<path class="st1" d="M594.1,53.8v-9h2.6v9H594.1z"/>
	<path class="st1" d="M620.7,84L610,79.4v0.8c0,0.6-0.1,1.1-0.3,1.6c-0.2,0.5-0.5,0.9-0.9,1.3c-0.4,0.4-0.8,0.7-1.3,0.9
		c-0.5,0.2-1,0.3-1.6,0.3c-0.6,0-1.1-0.1-1.6-0.3c-0.5-0.2-0.9-0.5-1.3-0.9c-0.4-0.4-0.7-0.8-0.9-1.3c-0.2-0.5-0.3-1-0.3-1.6
		c0-0.6,0.1-1.1,0.3-1.6c0.2-0.5,0.5-0.9,0.9-1.3c0.4-0.4,0.8-0.7,1.3-0.9c0.5-0.2,1-0.3,1.6-0.3c0.3,0,0.6,0,0.8,0
		c0.3,0,0.5,0.1,0.7,0.2v-9.9c-0.2,0.1-0.5,0.2-0.7,0.2c-0.3,0-0.5,0-0.8,0c-0.6,0-1.1-0.1-1.6-0.3c-0.5-0.2-0.9-0.5-1.3-0.9
		c-0.4-0.4-0.7-0.8-0.9-1.3c-0.2-0.5-0.3-1-0.3-1.6c0-0.6,0.1-1.1,0.3-1.6c0.2-0.5,0.5-0.9,0.9-1.3c0.4-0.4,0.8-0.7,1.3-0.9
		c0.5-0.2,1-0.3,1.6-0.3c0.6,0,1.1,0.1,1.6,0.3c0.5,0.2,0.9,0.5,1.3,0.9c0.4,0.4,0.7,0.8,0.9,1.3c0.2,0.5,0.3,1,0.3,1.6v14.5
		l10.6,4.4V58.8h2.5V84H620.7z M605.9,64.5c0.5,0,1-0.2,1.3-0.5c0.4-0.4,0.5-0.8,0.5-1.4s-0.2-1-0.5-1.3c-0.4-0.4-0.8-0.5-1.3-0.5
		s-1,0.2-1.4,0.5c-0.4,0.4-0.5,0.8-0.5,1.3s0.2,1,0.5,1.4C604.9,64.4,605.3,64.5,605.9,64.5z M605.9,82.1c0.5,0,1-0.2,1.3-0.6
		c0.4-0.4,0.5-0.8,0.5-1.4c0-0.5-0.2-1-0.5-1.3c-0.4-0.4-0.8-0.5-1.3-0.5s-1,0.2-1.4,0.5c-0.4,0.4-0.5,0.8-0.5,1.3
		c0,0.5,0.2,1,0.5,1.4C604.9,81.9,605.3,82.1,605.9,82.1z"/>
	<path class="st1" d="M621.1,53.8c-1.7-0.6-3.3-1.1-4.8-1.5c-1.5-0.4-2.9-0.7-4.2-0.9c-1.3-0.2-2.5-0.4-3.6-0.4
		c-1.1-0.1-2.1-0.1-3.1-0.2c-0.5,0-0.8,0-1.2,0c-0.3,0-0.6,0-0.8,0c-0.2,0-0.4,0-0.6,0c-0.2,0-0.4,0-0.6,0.1c0.4-1.1,1-2.2,1.6-3.1
		c0.7-0.9,1.4-1.7,2.3-2.3c0.9-0.6,1.8-1.1,2.9-1.4c1.1-0.3,2.2-0.5,3.4-0.5c3.3,0,6,1.3,8.1,4v-6h2.4v12.8L621.1,53.8z M620.5,51.4
		c-0.9-1.9-1.9-3.3-3.2-4.2c-1.3-0.9-2.8-1.4-4.8-1.4c-0.7,0-1.5,0.1-2.2,0.2c-0.7,0.1-1.3,0.3-1.9,0.6c-0.6,0.3-1.1,0.6-1.6,1
		c-0.5,0.4-0.9,0.8-1.2,1.3c1.3,0,2.6,0,3.8,0.1c1.2,0.1,2.4,0.2,3.6,0.4c1.2,0.2,2.4,0.5,3.6,0.8C617.9,50.5,619.2,50.9,620.5,51.4
		z"/>
	<path class="st1" d="M637.1,84V64.1c0-1.2-0.3-2.1-0.8-2.7c-0.5-0.6-1.4-0.9-2.6-0.9c-0.8,0-1.4,0.2-1.9,0.5
		c-0.5,0.3-0.8,0.8-1,1.4c0.1,0,0.2-0.1,0.5-0.1c0.2,0,0.4,0,0.6,0c0.6,0,1.2,0.1,1.6,0.3c0.5,0.2,0.9,0.5,1.2,0.8
		c0.3,0.3,0.6,0.7,0.7,1.2c0.2,0.5,0.2,0.9,0.2,1.5c0,0.6-0.1,1.1-0.3,1.5c-0.2,0.5-0.4,0.9-0.8,1.2c-0.3,0.3-0.7,0.6-1.2,0.8
		c-0.5,0.2-1,0.3-1.5,0.3c-0.6,0-1.2-0.1-1.7-0.4c-0.5-0.2-0.9-0.6-1.3-1c-0.3-0.4-0.6-0.9-0.8-1.5c-0.2-0.6-0.3-1.2-0.3-1.9
		c0-0.9,0.1-1.8,0.4-2.6c0.3-0.8,0.7-1.5,1.2-2.1c0.5-0.6,1.2-1,1.9-1.3c0.7-0.3,1.6-0.5,2.5-0.5c0.8,0,1.6,0.1,2.3,0.4
		c0.7,0.2,1.3,0.6,1.8,1.1c0.5,0.5,0.9,1,1.2,1.7c0.3,0.7,0.4,1.5,0.4,2.4v17.6h5.3V58.8h2.5V84H637.1z M631.8,67.9
		c0.5,0,0.9-0.2,1.2-0.5c0.3-0.4,0.5-0.8,0.5-1.3c0-0.5-0.2-1-0.5-1.3s-0.7-0.5-1.3-0.5c-0.5,0-1,0.2-1.3,0.5
		c-0.3,0.3-0.5,0.8-0.5,1.3c0,0.5,0.2,1,0.5,1.3C630.9,67.7,631.3,67.9,631.8,67.9z"/>
	<path class="st1" d="M654.3,84v-7.6c0-2.8,1.1-4.5,3.2-5.3c-1.5-0.4-2.7-1.1-3.5-2.2c-0.8-1.1-1.2-2.4-1.2-4c0-0.9,0.2-1.8,0.5-2.5
		c0.3-0.8,0.8-1.4,1.4-2c0.6-0.6,1.3-1,2.1-1.3c0.8-0.3,1.7-0.5,2.6-0.5c1.3,0,2.4,0.3,3.1,1c0.8,0.7,1.2,1.6,1.2,2.7
		c0,0.6-0.1,1.1-0.3,1.6c-0.2,0.5-0.4,0.9-0.8,1.2c-0.3,0.4-0.7,0.6-1.2,0.8c-0.5,0.2-1,0.3-1.7,0.3c-1,0-1.8-0.3-2.5-0.8
		c-0.7-0.5-1.2-1.3-1.4-2.4c-0.2,0.3-0.3,0.6-0.3,1c-0.1,0.3-0.1,0.7-0.1,1.1c0,0.7,0.1,1.3,0.3,1.9c0.2,0.5,0.5,1,0.9,1.4
		c0.4,0.4,1,0.7,1.7,0.9c0.7,0.2,1.6,0.3,2.6,0.3h2.4v2.5h-2.7c-1.2,0-2.1,0.3-2.8,1c-0.6,0.7-0.9,1.8-0.9,3.3v5.3h12.2V58.8h2.5V84
		H654.3z M661.6,62.4c0-0.5-0.2-0.9-0.5-1.3c-0.4-0.4-0.8-0.6-1.3-0.6c-0.6,0-1,0.2-1.4,0.5c-0.3,0.3-0.5,0.8-0.5,1.4
		c0,0.5,0.2,1,0.5,1.3c0.4,0.3,0.8,0.5,1.3,0.5c0.5,0,0.9-0.2,1.3-0.5C661.4,63.4,661.6,63,661.6,62.4z"/>
	<path class="st1" d="M693.2,59.1c-0.5,2.7-1.6,4.7-3.4,6c-1.7,1.3-3.9,2-6.6,2c-2.1,0-3.7-0.4-4.9-1.2c-1.1-0.8-1.7-1.9-1.7-3.3
		c0-0.5,0.1-1,0.3-1.5c0.2-0.5,0.5-0.9,0.8-1.2s0.8-0.6,1.2-0.8s1-0.3,1.7-0.3c0.6,0,1.1,0.1,1.6,0.3c0.5,0.2,0.9,0.5,1.2,0.8
		c0.3,0.4,0.6,0.8,0.8,1.3c0.2,0.5,0.3,1,0.3,1.6c0,0.8-0.2,1.5-0.5,1.9c1.9-0.2,3.4-0.8,4.5-1.7c1.1-0.9,1.8-2.2,2.3-4H693.2z
		 M693.2,74.9c-0.5,2.7-1.6,4.7-3.4,6c-1.7,1.3-3.9,2-6.6,2c-2.1,0-3.7-0.4-4.9-1.2c-1.1-0.8-1.7-1.9-1.7-3.3c0-0.5,0.1-1,0.3-1.5
		c0.2-0.5,0.5-0.9,0.8-1.2c0.3-0.3,0.8-0.6,1.2-0.8s1-0.3,1.7-0.3c0.6,0,1.1,0.1,1.6,0.3c0.5,0.2,0.9,0.5,1.2,0.8
		c0.3,0.4,0.6,0.8,0.8,1.3c0.2,0.5,0.3,1,0.3,1.5c0,0.9-0.2,1.5-0.5,2c1-0.1,1.8-0.3,2.5-0.6s1.4-0.6,1.9-1.1c0.5-0.5,1-1,1.4-1.7
		c0.4-0.7,0.7-1.4,0.9-2.3H693.2z M682.3,62.8c0-0.5-0.2-0.9-0.5-1.2c-0.3-0.3-0.7-0.5-1.2-0.5c-0.5,0-0.9,0.2-1.2,0.5
		c-0.3,0.3-0.5,0.7-0.5,1.2c0,0.5,0.2,0.9,0.5,1.2c0.3,0.3,0.7,0.5,1.2,0.5c0.5,0,0.9-0.2,1.2-0.5C682.2,63.7,682.3,63.3,682.3,62.8
		z M682.3,78.6c0-0.5-0.2-0.9-0.5-1.2c-0.3-0.3-0.7-0.5-1.2-0.5c-0.5,0-0.9,0.2-1.2,0.5c-0.3,0.3-0.5,0.7-0.5,1.2
		c0,0.5,0.2,0.9,0.5,1.2c0.3,0.3,0.7,0.5,1.2,0.5c0.5,0,0.9-0.2,1.2-0.5C682.2,79.5,682.3,79.1,682.3,78.6z"/>
	<path class="st1" d="M716.7,84V67.8c0-1.8-0.3-3.3-0.9-4.5c-0.6-1.2-1.7-2-3.1-2.4l-3.5,2.5l-3.4-2.5c-1.4,0.4-2.4,1.2-3.1,2.4
		c-0.6,1.2-1,2.7-1,4.5v13.4l6.8-6.6c-0.4,0-0.8-0.1-1.2-0.3c-0.4-0.2-0.7-0.4-1-0.7s-0.5-0.6-0.7-1.1c-0.2-0.4-0.3-0.9-0.3-1.4
		c0-0.6,0.1-1.1,0.3-1.6s0.5-0.9,0.8-1.3c0.3-0.4,0.8-0.6,1.3-0.8c0.5-0.2,1-0.3,1.6-0.3c0.6,0,1.1,0.1,1.6,0.3
		c0.5,0.2,0.9,0.5,1.3,0.9c0.4,0.4,0.6,0.8,0.8,1.3c0.2,0.5,0.3,1,0.3,1.6c0,0.6-0.1,1.1-0.3,1.7c-0.2,0.5-0.5,1-0.9,1.4L702,84
		h-2.8V67.9c0-1.2,0.1-2.3,0.4-3.4c0.3-1,0.7-2,1.3-2.8c0.6-0.8,1.3-1.5,2.1-2c0.8-0.5,1.8-0.9,2.9-1.2l3.2,2.4l3.2-2.4
		c1.1,0.2,2.1,0.6,2.9,1.2c0.8,0.6,1.5,1.2,2.1,2c0.6,0.8,1,1.7,1.3,2.8c0.3,1,0.4,2.2,0.4,3.4V84H716.7z M709.3,72.8
		c0.5,0,1-0.2,1.3-0.5c0.4-0.4,0.5-0.8,0.5-1.3c0-0.5-0.2-1-0.5-1.3c-0.4-0.4-0.8-0.5-1.3-0.5s-1,0.2-1.4,0.5
		c-0.4,0.4-0.5,0.8-0.5,1.3c0,0.5,0.2,1,0.5,1.3C708.3,72.6,708.8,72.8,709.3,72.8z"/>
	<path class="st1" d="M741.9,84V67.9c0-1.1-0.2-2-0.6-2.9c-0.4-0.9-0.9-1.6-1.6-2.2c-0.7-0.6-1.5-1.1-2.4-1.4
		c-0.9-0.3-1.9-0.5-3-0.5c-1.7,0-3.1,0.4-4.4,1.2c-1.2,0.8-2.2,1.9-2.8,3.2l2.3,2.7V84h-2.5V68.5l-2.5-2.9c0.3-1.1,0.7-2,1.3-2.9
		c0.6-0.9,1.3-1.6,2.2-2.2c0.9-0.6,1.8-1.1,2.9-1.4c1.1-0.3,2.3-0.5,3.6-0.5c1.5,0,2.9,0.2,4.2,0.7c1.3,0.5,2.3,1.1,3.2,2
		c0.9,0.8,1.6,1.8,2.1,3s0.7,2.5,0.7,3.9V84H741.9z"/>
	<path class="st1" d="M768.4,84V68.3c0-1.1-0.2-2.1-0.5-3.1c-0.3-0.9-0.8-1.7-1.4-2.4c-0.6-0.7-1.4-1.2-2.3-1.5
		c-0.9-0.4-2-0.5-3.3-0.5c-1.3,0-2.4,0.2-3.3,0.5c-0.9,0.4-1.7,0.9-2.3,1.5c-0.6,0.7-1.1,1.5-1.4,2.4c-0.3,0.9-0.5,2-0.5,3.1v10.4
		l3.8-8.7c0.5-1.2,1.1-2.1,1.8-2.7c0.7-0.6,1.5-0.9,2.5-0.9c0.6,0,1.1,0.1,1.6,0.3c0.5,0.2,0.9,0.5,1.2,0.8c0.3,0.4,0.6,0.8,0.8,1.2
		c0.2,0.5,0.3,1,0.3,1.5c0,0.5-0.1,1-0.3,1.5c-0.2,0.5-0.4,0.9-0.7,1.2c-0.3,0.3-0.7,0.6-1.2,0.8c-0.5,0.2-1,0.3-1.6,0.3
		c-0.6,0-1.2-0.1-1.7-0.4c-0.5-0.3-0.9-0.6-1.2-1L753.5,84h-2.5V68.4c0-1.5,0.2-2.9,0.7-4.1c0.4-1.2,1.1-2.2,2-3.1
		c0.9-0.9,1.9-1.5,3.1-2c1.2-0.5,2.6-0.7,4.2-0.7c1.6,0,3,0.2,4.2,0.7c1.2,0.5,2.3,1.1,3.1,2c0.9,0.9,1.5,1.9,2,3.1
		c0.5,1.2,0.7,2.6,0.7,4.1V84H768.4z M763.4,70.3c0-0.5-0.2-1-0.5-1.4c-0.3-0.4-0.8-0.6-1.4-0.6c-0.6,0-1.1,0.2-1.4,0.6
		c-0.3,0.4-0.5,0.9-0.5,1.4c0,0.5,0.2,0.9,0.5,1.3c0.3,0.4,0.8,0.5,1.4,0.5c0.6,0,1.1-0.2,1.4-0.5C763.2,71.3,763.4,70.9,763.4,70.3
		z"/>
	<path class="st1" d="M774.1,43.1c0,1.7-0.4,3.3-1.1,4.6c-0.7,1.3-1.7,2.5-2.9,3.4c-1.2,0.9-2.6,1.6-4.2,2.1c-1.6,0.5-3.3,0.7-5,0.7
		c-0.4,0-0.7,0-0.9,0c-0.3,0-0.5,0-0.6,0v-1.6c0.5-0.2,0.9-0.6,1.3-1c0.4-0.4,0.6-0.8,0.8-1.3c-0.1,0-0.3,0-0.4,0
		c-0.1,0-0.3,0-0.4,0c-0.6,0-1.2-0.1-1.6-0.3c-0.5-0.2-0.8-0.4-1.1-0.8c-0.3-0.3-0.5-0.7-0.7-1.1c-0.1-0.4-0.2-0.9-0.2-1.4
		c0-0.5,0.1-1,0.3-1.5c0.2-0.4,0.5-0.8,0.8-1.2c0.3-0.3,0.7-0.6,1.2-0.8c0.5-0.2,0.9-0.3,1.5-0.3c0.6,0,1.2,0.1,1.7,0.3
		c0.5,0.2,0.9,0.5,1.2,0.9c0.3,0.4,0.6,0.8,0.7,1.3c0.2,0.5,0.2,1.1,0.2,1.7c0,1-0.2,2-0.7,2.8c-0.5,0.9-1,1.6-1.7,2.2
		c1.4-0.1,2.6-0.3,3.8-0.8c1.2-0.4,2.2-1,3.1-1.8c0.9-0.8,1.6-1.7,2.1-2.7c0.5-1.1,0.8-2.3,0.8-3.6H774.1z M762.4,46.5
		c0-0.5-0.2-1-0.5-1.3s-0.8-0.5-1.3-0.5c-0.5,0-1,0.2-1.3,0.5s-0.5,0.8-0.5,1.3c0,0.6,0.2,1,0.5,1.3c0.3,0.3,0.8,0.5,1.3,0.5
		c0.6,0,1-0.2,1.3-0.5S762.4,47,762.4,46.5z"/>
	<path class="st1" d="M789.6,84V66.8c0-0.8-0.1-1.6-0.3-2.3c-0.2-0.7-0.5-1.4-1-1.9c-0.5-0.5-1-1-1.8-1.3c-0.7-0.3-1.6-0.5-2.6-0.5
		c-0.9,0-1.8,0.1-2.4,0.4c-0.7,0.3-1.2,0.6-1.7,1.1c-0.5,0.5-0.8,1-1.1,1.6c-0.3,0.6-0.4,1.3-0.5,2h-2.5c0.1-1.1,0.3-2.1,0.7-3
		c0.4-0.9,0.9-1.7,1.6-2.3c0.7-0.7,1.5-1.2,2.5-1.5c1-0.4,2.1-0.5,3.5-0.5c1.4,0,2.7,0.2,3.7,0.6c1,0.4,1.9,1,2.5,1.7
		c0.7,0.7,1.1,1.6,1.5,2.6c0.3,1,0.5,2.1,0.5,3.3V84H789.6z"/>
	<path class="st1" d="M808.4,84l-11.8-13.1l1.7-1.7l10.5,11.5V66.5c-0.2,0.1-0.5,0.2-0.7,0.2c-0.3,0-0.5,0-0.8,0
		c-0.6,0-1.1-0.1-1.6-0.3c-0.5-0.2-0.9-0.5-1.3-0.9c-0.4-0.4-0.7-0.8-0.9-1.3c-0.2-0.5-0.3-1-0.3-1.6c0-0.6,0.1-1.1,0.3-1.6
		c0.2-0.5,0.5-0.9,0.9-1.3c0.4-0.4,0.8-0.7,1.3-0.9c0.5-0.2,1-0.3,1.6-0.3c0.6,0,1.1,0.1,1.6,0.3c0.5,0.2,0.9,0.5,1.3,0.9
		c0.4,0.4,0.7,0.8,0.9,1.3c0.2,0.5,0.3,1,0.3,1.6V84H808.4z M807.3,64.6c0.5,0,1-0.2,1.3-0.6c0.4-0.4,0.5-0.8,0.5-1.4
		c0-0.5-0.2-1-0.5-1.4c-0.3-0.4-0.8-0.5-1.3-0.5s-1,0.2-1.4,0.5c-0.4,0.4-0.5,0.8-0.5,1.4c0,0.5,0.2,1,0.5,1.4
		C806.3,64.4,806.7,64.6,807.3,64.6z"/>
</g>
<g class="st0">
	<path class="st1" d="M847.6,84l-17.1-7.4v1.3c0,0.9-0.2,1.8-0.5,2.6c-0.4,0.8-0.8,1.5-1.4,2.1c-0.6,0.6-1.3,1.1-2.1,1.4
		c-0.8,0.3-1.7,0.5-2.5,0.5c-0.9,0-1.8-0.2-2.6-0.5c-0.8-0.3-1.5-0.8-2.1-1.4c-0.6-0.6-1.1-1.3-1.4-2.1c-0.3-0.8-0.5-1.6-0.5-2.6
		c0-0.9,0.2-1.8,0.5-2.6c0.3-0.8,0.8-1.5,1.4-2.1c0.6-0.6,1.3-1,2.1-1.4c0.8-0.3,1.6-0.5,2.6-0.5c0.5,0,0.9,0,1.3,0.1
		c0.4,0,0.8,0.2,1.2,0.3V56c-0.4,0.2-0.8,0.3-1.2,0.4c-0.4,0.1-0.9,0.1-1.3,0.1c-0.9,0-1.8-0.2-2.6-0.5c-0.8-0.3-1.5-0.8-2.1-1.4
		c-0.6-0.6-1.1-1.3-1.4-2.1c-0.3-0.8-0.5-1.6-0.5-2.6c0-0.9,0.2-1.7,0.5-2.5c0.3-0.8,0.8-1.5,1.4-2.1c0.6-0.6,1.3-1.1,2.1-1.4
		c0.8-0.3,1.6-0.5,2.6-0.5c0.9,0,1.7,0.2,2.5,0.5c0.8,0.3,1.5,0.8,2.1,1.4c0.6,0.6,1.1,1.3,1.4,2.1c0.4,0.8,0.5,1.6,0.5,2.5v23.1
		l17,7V43.7h4.1V84H847.6z M823.9,52.9c0.9,0,1.6-0.3,2.1-0.9c0.6-0.6,0.9-1.3,0.9-2.2s-0.3-1.6-0.9-2.1c-0.6-0.6-1.3-0.9-2.1-0.9
		s-1.6,0.3-2.2,0.9c-0.6,0.6-0.9,1.3-0.9,2.1s0.3,1.6,0.9,2.2S823.1,52.9,823.9,52.9z M823.9,81c0.9,0,1.6-0.3,2.1-0.9
		c0.6-0.6,0.9-1.3,0.9-2.2c0-0.9-0.3-1.6-0.9-2.1c-0.6-0.6-1.3-0.9-2.1-0.9s-1.6,0.3-2.2,0.9c-0.6,0.6-0.9,1.3-0.9,2.1
		c0,0.9,0.3,1.6,0.9,2.2C822.4,80.7,823.1,81,823.9,81z"/>
	<path class="st1" d="M881.4,84V56.4c0-1.3-0.2-2.6-0.5-3.7c-0.3-1.2-0.9-2.2-1.6-3c-0.7-0.9-1.7-1.6-2.8-2.1
		c-1.1-0.5-2.5-0.8-4.2-0.8c-1.5,0-2.8,0.2-3.9,0.6c-1.1,0.4-2,1-2.7,1.7c-0.7,0.7-1.3,1.6-1.7,2.6c-0.4,1-0.7,2.1-0.9,3.3h-4
		c0.2-1.7,0.5-3.3,1.2-4.7c0.6-1.4,1.5-2.7,2.5-3.7c1.1-1,2.4-1.9,4-2.4c1.6-0.6,3.4-0.9,5.5-0.9c2.3,0,4.3,0.3,6,1
		c1.7,0.6,3,1.5,4.1,2.7c1.1,1.2,1.8,2.5,2.3,4.2c0.5,1.6,0.7,3.4,0.7,5.3V84H881.4z"/>
	<path class="st1" d="M921.7,84V58.2c0-1.7-0.3-3.3-0.9-4.7c-0.6-1.4-1.5-2.6-2.6-3.6c-1.1-1-2.4-1.8-3.9-2.3
		c-1.5-0.5-3.1-0.8-4.9-0.8c-2.7,0-5,0.6-7,1.9c-2,1.3-3.5,3-4.5,5.2l3.7,4.3V84h-4.1V59.2l-4-4.6c0.4-1.7,1.1-3.3,2-4.7
		c0.9-1.4,2.1-2.6,3.5-3.6s2.9-1.7,4.7-2.3c1.7-0.5,3.6-0.8,5.7-0.8c2.4,0,4.7,0.4,6.7,1.1c2,0.7,3.7,1.8,5.2,3.1
		c1.4,1.3,2.5,2.9,3.3,4.8s1.2,3.9,1.2,6.2V84H921.7z"/>
	<path class="st1" d="M937.5,43.8h4.1v28c0.4-0.2,0.8-0.3,1.2-0.3s0.9-0.1,1.3-0.1c0.9,0,1.8,0.2,2.6,0.5c0.8,0.3,1.5,0.8,2.1,1.4
		c0.6,0.6,1,1.3,1.4,2.1c0.3,0.8,0.5,1.6,0.5,2.6c0,0.9-0.2,1.8-0.5,2.6c-0.3,0.8-0.8,1.5-1.4,2.1c-0.6,0.6-1.3,1.1-2.1,1.4
		c-0.8,0.3-1.7,0.5-2.6,0.5c-0.9,0-1.8-0.2-2.6-0.5c-0.8-0.3-1.5-0.8-2.1-1.4c-0.6-0.6-1-1.3-1.4-2.1c-0.3-0.8-0.5-1.6-0.5-2.6V43.8
		z M944,81c0.9,0,1.6-0.3,2.2-0.9c0.6-0.6,0.9-1.3,0.9-2.2c0-0.9-0.3-1.6-0.9-2.1c-0.6-0.6-1.3-0.9-2.2-0.9c-0.9,0-1.6,0.3-2.1,0.9
		c-0.6,0.6-0.8,1.3-0.8,2.1c0,0.9,0.3,1.6,0.8,2.2C942.4,80.7,943.2,81,944,81z"/>
	<path class="st1" d="M962.3,84V56c-0.4,0.2-0.7,0.3-1.2,0.4c-0.4,0.1-0.8,0.1-1.3,0.1c-0.9,0-1.8-0.2-2.6-0.5
		c-0.8-0.3-1.5-0.8-2.1-1.4c-0.6-0.6-1-1.3-1.4-2.1c-0.3-0.8-0.5-1.6-0.5-2.6c0-0.9,0.2-1.7,0.5-2.5c0.3-0.8,0.8-1.5,1.4-2.1
		c0.6-0.6,1.3-1.1,2.1-1.4c0.8-0.3,1.7-0.5,2.6-0.5c0.9,0,1.7,0.2,2.5,0.5c0.8,0.3,1.5,0.8,2.1,1.4c0.6,0.6,1.1,1.3,1.4,2.1
		c0.4,0.8,0.5,1.6,0.5,2.5v30.5h18.8V24.5h4.1V84H962.3z M959.9,52.9c0.9,0,1.6-0.3,2.1-0.9s0.8-1.3,0.8-2.2s-0.3-1.6-0.8-2.1
		c-0.6-0.6-1.3-0.9-2.1-0.9c-0.9,0-1.6,0.3-2.2,0.9c-0.6,0.6-0.9,1.3-0.9,2.1s0.3,1.6,0.9,2.2C958.3,52.6,959,52.9,959.9,52.9z"/>
	<path class="st1" d="M961.6,36c-1,0-2-0.2-2.9-0.6c-0.9-0.4-1.7-0.9-2.3-1.7s-1.2-1.7-1.6-2.7c-0.4-1.1-0.6-2.3-0.6-3.7
		c0-1.1,0.2-2.2,0.6-3.2c0.4-1,1-1.9,1.8-2.6c0.8-0.8,1.8-1.4,2.9-1.8c1.1-0.4,2.5-0.7,3.9-0.7h9.3c1.4,0,2.5-0.2,3.3-0.7
		c0.8-0.5,1.5-1.3,2-2.3l3,2c-0.8,1.6-1.9,2.7-3.2,3.4c-1.3,0.6-3,0.9-5.2,0.9h-9.3c-2,0-3.4,0.4-4.2,1.3c-0.8,0.9-1.2,2.1-1.2,3.7
		c0,1.5,0.2,2.7,0.7,3.5c0.5,0.8,1.1,1.4,1.9,1.6l4.5-5.1l2.1,2.5c0.6,0.7,1.1,1.2,1.5,1.6c0.5,0.4,0.9,0.6,1.4,0.7
		c0-0.1-0.1-0.2-0.1-0.4c0-0.2,0-0.3,0-0.4c0-1.5,0.5-2.7,1.4-3.6c0.9-0.9,2.1-1.3,3.5-1.3c0.7,0,1.4,0.1,2,0.4
		c0.6,0.2,1.1,0.6,1.6,1s0.8,0.9,1,1.5c0.2,0.6,0.4,1.2,0.4,1.9c0,0.6-0.1,1.2-0.4,1.8c-0.2,0.6-0.6,1.1-1.1,1.6
		c-0.5,0.5-1.1,0.8-1.8,1.1c-0.7,0.3-1.6,0.4-2.6,0.4c-2.1,0-3.9-0.3-5.3-1c-1.4-0.7-2.6-1.8-3.6-3.3L961.6,36z M975,33.8
		c1.4,0,2.1-0.8,2.1-2.3c0-0.6-0.2-1.2-0.5-1.6c-0.3-0.5-0.9-0.7-1.6-0.7c-0.8,0-1.3,0.2-1.7,0.6s-0.5,1-0.5,1.7
		C972.8,33,973.5,33.8,975,33.8z"/>
	<path class="st1" d="M1023.4,77.6l-13.9,6.4h-4.3V56c-0.4,0.2-0.7,0.3-1.2,0.3c-0.4,0.1-0.8,0.1-1.3,0.1c-0.9,0-1.8-0.2-2.6-0.5
		c-0.8-0.4-1.5-0.8-2.1-1.4c-0.6-0.6-1-1.3-1.4-2.1c-0.3-0.8-0.5-1.6-0.5-2.6c0-0.9,0.2-1.7,0.5-2.5c0.3-0.8,0.8-1.5,1.4-2.1
		c0.6-0.6,1.3-1.1,2.1-1.4c0.8-0.3,1.7-0.5,2.6-0.5c0.9,0,1.7,0.2,2.5,0.5c0.8,0.3,1.5,0.8,2.1,1.4c0.6,0.6,1.1,1.3,1.4,2.1
		c0.4,0.8,0.5,1.6,0.5,2.5v30.5l18.4-8.2V43.7h4.1v28.6c1.2,0.5,2.2,1.2,3,2.3c0.8,1.1,1.2,2.3,1.2,3.7c0,0.9-0.2,1.7-0.5,2.5
		c-0.3,0.8-0.8,1.4-1.3,2c-0.6,0.6-1.2,1-2,1.3c-0.8,0.3-1.6,0.5-2.4,0.5c-0.9,0-1.7-0.1-2.5-0.4c-0.8-0.3-1.4-0.7-2-1.2
		c-0.6-0.5-1-1.1-1.3-1.9c-0.3-0.7-0.5-1.5-0.5-2.4V77.6z M1002.8,52.9c0.9,0,1.6-0.3,2.1-0.9c0.6-0.6,0.8-1.3,0.8-2.2
		s-0.3-1.6-0.8-2.2s-1.3-0.9-2.1-0.9c-0.9,0-1.6,0.3-2.2,0.9c-0.6,0.6-0.9,1.3-0.9,2.2s0.3,1.6,0.9,2.2
		C1001.2,52.6,1001.9,52.9,1002.8,52.9z M1029.7,81.1c0.8,0,1.4-0.3,1.9-0.8c0.5-0.5,0.8-1.2,0.8-1.9c0-0.8-0.3-1.4-0.8-1.9
		c-0.5-0.5-1.2-0.8-1.9-0.8c-0.8,0-1.4,0.3-2,0.8c-0.5,0.5-0.8,1.2-0.8,1.9c0,0.8,0.3,1.4,0.8,1.9
		C1028.2,80.8,1028.9,81.1,1029.7,81.1z"/>
	<path class="st1" d="M1044.5,84V64.4c0-0.9,0.2-1.8,0.5-2.5c0.3-0.8,0.8-1.4,1.4-2c0.6-0.6,1.3-1,2.1-1.3c0.8-0.3,1.6-0.5,2.6-0.5
		c0.9,0,1.8,0.2,2.5,0.5s1.5,0.8,2,1.3c0.6,0.6,1,1.2,1.3,2c0.3,0.8,0.5,1.6,0.5,2.5c0,0.9-0.2,1.8-0.5,2.5c-0.3,0.8-0.8,1.5-1.3,2
		c-0.6,0.6-1.2,1-2,1.3c-0.8,0.3-1.6,0.5-2.5,0.5c-0.5,0-0.9,0-1.3-0.1c-0.4-0.1-0.8-0.2-1.2-0.4v10.1h18.3V57.2
		c0-1.6-0.3-3.1-0.8-4.4c-0.6-1.3-1.3-2.4-2.3-3.3c-1-0.9-2.2-1.6-3.6-2c-1.4-0.5-3-0.7-4.7-0.7c-1.5,0-2.8,0.2-4,0.6
		c-1.2,0.4-2.3,1-3.2,1.7c-0.9,0.7-1.7,1.6-2.3,2.6c-0.6,1-1,2.1-1.2,3.2h-4.3c0.3-1.7,0.9-3.3,1.7-4.8c0.9-1.4,1.9-2.7,3.3-3.7
		c1.3-1,2.8-1.8,4.5-2.4c1.7-0.6,3.5-0.8,5.5-0.8c2.3,0,4.4,0.3,6.3,0.9c1.9,0.6,3.6,1.5,4.9,2.7c1.4,1.2,2.4,2.6,3.2,4.4
		c0.8,1.7,1.1,3.7,1.1,5.9V84H1044.5z M1053.9,64.4c0-0.9-0.3-1.6-0.8-2.1c-0.5-0.6-1.2-0.8-2.1-0.8s-1.6,0.3-2.1,0.8
		c-0.5,0.6-0.8,1.3-0.8,2.1s0.3,1.6,0.8,2.1s1.2,0.8,2.1,0.8s1.6-0.3,2.1-0.8S1053.9,65.2,1053.9,64.4z"/>
	<path class="st1" d="M1080.5,24.2c-0.4,2-1,3.8-1.9,5.4c-0.9,1.6-2,3-3.4,4.1s-3.2,2-5.3,2.6s-4.5,0.9-7.3,0.9
		c-1.9,0-3.6-0.1-5.3-0.4c-1.6-0.3-3.1-0.7-4.3-1.4c-1.2-0.6-2.1-1.5-2.8-2.4c-0.7-1-1-2.2-1-3.6c0-1,0.2-1.9,0.6-2.7
		c0.4-0.8,0.9-1.4,1.5-1.9c0.6-0.5,1.3-0.9,2.1-1.1c0.8-0.2,1.6-0.4,2.3-0.4s1.5,0.1,2.3,0.4s1.4,0.6,2,1.1c0.6,0.5,1,1.1,1.4,1.8
		c0.3,0.7,0.5,1.6,0.5,2.6c0,1.1-0.2,2.1-0.7,2.8c-0.5,0.8-1,1.3-1.6,1.7c0.4,0.1,0.8,0.2,1.3,0.3c0.5,0.1,1.1,0.1,1.7,0.1
		c2.2,0,4.1-0.2,5.8-0.7c1.7-0.5,3-1.1,4.2-2c1.1-0.9,2-1.9,2.6-3.2c0.6-1.2,1-2.6,1.2-4.1H1080.5z M1055.6,32.4
		c0.9,0,1.6-0.3,2.1-0.9c0.6-0.6,0.8-1.3,0.8-2.1s-0.3-1.6-0.9-2.1c-0.6-0.6-1.3-0.8-2.2-0.8s-1.6,0.3-2.1,0.8
		c-0.6,0.6-0.8,1.3-0.8,2.1s0.3,1.6,0.9,2.1C1054,32.1,1054.7,32.4,1055.6,32.4z"/>
	<path class="st1" d="M1104.9,77.6L1091,84h-4.3V56c-0.4,0.2-0.7,0.3-1.2,0.3c-0.4,0.1-0.8,0.1-1.3,0.1c-0.9,0-1.8-0.2-2.6-0.5
		c-0.8-0.4-1.5-0.8-2.1-1.4c-0.6-0.6-1-1.3-1.4-2.1c-0.3-0.8-0.5-1.6-0.5-2.6c0-0.9,0.2-1.7,0.5-2.5c0.3-0.8,0.8-1.5,1.4-2.1
		c0.6-0.6,1.3-1.1,2.1-1.4c0.8-0.3,1.7-0.5,2.6-0.5c0.9,0,1.7,0.2,2.5,0.5c0.8,0.3,1.5,0.8,2.1,1.4c0.6,0.6,1.1,1.3,1.4,2.1
		c0.4,0.8,0.5,1.6,0.5,2.5v30.5l18.4-8.2V43.7h4.1v28.6c1.2,0.5,2.2,1.2,3,2.3c0.8,1.1,1.2,2.3,1.2,3.7c0,0.9-0.2,1.7-0.5,2.5
		c-0.3,0.8-0.8,1.4-1.3,2c-0.6,0.6-1.2,1-2,1.3c-0.8,0.3-1.6,0.5-2.4,0.5c-0.9,0-1.7-0.1-2.5-0.4c-0.8-0.3-1.4-0.7-2-1.2
		c-0.6-0.5-1-1.1-1.3-1.9c-0.3-0.7-0.5-1.5-0.5-2.4V77.6z M1084.3,52.9c0.9,0,1.6-0.3,2.1-0.9c0.6-0.6,0.8-1.3,0.8-2.2
		s-0.3-1.6-0.8-2.2s-1.3-0.9-2.1-0.9c-0.9,0-1.6,0.3-2.2,0.9c-0.6,0.6-0.9,1.3-0.9,2.2s0.3,1.6,0.9,2.2
		C1082.7,52.6,1083.4,52.9,1084.3,52.9z M1111.2,81.1c0.8,0,1.4-0.3,1.9-0.8c0.5-0.5,0.8-1.2,0.8-1.9c0-0.8-0.3-1.4-0.8-1.9
		c-0.5-0.5-1.2-0.8-1.9-0.8c-0.8,0-1.4,0.3-2,0.8c-0.5,0.5-0.8,1.2-0.8,1.9c0,0.8,0.3,1.4,0.8,1.9
		C1109.7,80.8,1110.4,81.1,1111.2,81.1z"/>
	<path class="st1" d="M1151.9,84V58.9c0-1.8-0.2-3.4-0.7-4.9c-0.5-1.5-1.2-2.8-2.2-3.8c-1-1.1-2.3-1.9-3.8-2.5
		c-1.5-0.6-3.3-0.9-5.3-0.9s-3.8,0.3-5.3,0.9c-1.5,0.6-2.7,1.4-3.7,2.5c-1,1.1-1.7,2.3-2.2,3.8c-0.5,1.5-0.7,3.1-0.7,4.9v20.5
		l10.8-11.2c-0.6-0.1-1.2-0.2-1.8-0.5c-0.6-0.3-1.1-0.7-1.6-1.2c-0.5-0.5-0.8-1.1-1.1-1.7c-0.3-0.7-0.4-1.4-0.4-2.3
		c0-0.9,0.2-1.8,0.5-2.5s0.7-1.5,1.3-2c0.6-0.6,1.2-1,2-1.3c0.8-0.3,1.6-0.5,2.5-0.5c0.9,0,1.8,0.2,2.5,0.5c0.8,0.3,1.5,0.8,2,1.4
		c0.6,0.6,1,1.3,1.3,2.1c0.3,0.8,0.5,1.6,0.5,2.5c0,0.8-0.2,1.7-0.5,2.5c-0.4,0.8-0.8,1.5-1.4,2.1l-16,16.8h-4.5V59.1
		c0-2.4,0.4-4.6,1.1-6.5c0.7-1.9,1.8-3.6,3.1-5c1.4-1.4,3-2.4,5-3.2c2-0.8,4.2-1.1,6.7-1.1c2.5,0,4.8,0.4,6.8,1.1
		c2,0.8,3.7,1.8,5,3.2c1.4,1.4,2.4,3,3.1,5c0.7,1.9,1.1,4.1,1.1,6.5V84H1151.9z M1140,65.3c0.9,0,1.6-0.3,2.1-0.9
		c0.6-0.6,0.9-1.3,0.9-2.1c0-0.8-0.3-1.5-0.9-2.1c-0.6-0.6-1.3-0.9-2.1-0.9s-1.6,0.3-2.2,0.9s-0.9,1.3-0.9,2.1
		c0,0.9,0.3,1.6,0.9,2.1C1138.5,65,1139.2,65.3,1140,65.3z"/>
	<path class="st1" d="M1165.6,24.2c-0.4,2-1,3.8-1.9,5.4c-0.9,1.6-2,3-3.4,4.1s-3.2,2-5.3,2.6s-4.5,0.9-7.3,0.9
		c-1.9,0-3.6-0.1-5.3-0.4c-1.6-0.3-3.1-0.7-4.3-1.4c-1.2-0.6-2.1-1.5-2.8-2.4c-0.7-1-1-2.2-1-3.6c0-1,0.2-1.9,0.6-2.7
		c0.4-0.8,0.9-1.4,1.5-1.9c0.6-0.5,1.3-0.9,2.1-1.1c0.8-0.2,1.6-0.4,2.3-0.4s1.5,0.1,2.3,0.4s1.4,0.6,2,1.1c0.6,0.5,1,1.1,1.4,1.8
		c0.3,0.7,0.5,1.6,0.5,2.6c0,1.1-0.2,2.1-0.7,2.8c-0.5,0.8-1,1.3-1.6,1.7c0.4,0.1,0.8,0.2,1.3,0.3c0.5,0.1,1.1,0.1,1.7,0.1
		c2.2,0,4.1-0.2,5.8-0.7c1.7-0.5,3-1.1,4.2-2c1.1-0.9,2-1.9,2.6-3.2c0.6-1.2,1-2.6,1.2-4.1H1165.6z M1140.7,32.4
		c0.9,0,1.6-0.3,2.1-0.9c0.6-0.6,0.8-1.3,0.8-2.1s-0.3-1.6-0.9-2.1c-0.6-0.6-1.3-0.8-2.2-0.8s-1.6,0.3-2.1,0.8
		c-0.6,0.6-0.8,1.3-0.8,2.1s0.3,1.6,0.9,2.1C1139.1,32.1,1139.8,32.4,1140.7,32.4z"/>
	<path class="st1" d="M1171.8,84V56c-0.4,0.2-0.7,0.3-1.2,0.4c-0.4,0.1-0.8,0.1-1.3,0.1c-0.9,0-1.8-0.2-2.6-0.5
		c-0.8-0.3-1.5-0.8-2.1-1.4c-0.6-0.6-1-1.3-1.4-2.1c-0.3-0.8-0.5-1.6-0.5-2.6c0-0.9,0.2-1.7,0.5-2.5c0.3-0.8,0.8-1.5,1.4-2.1
		c0.6-0.6,1.3-1.1,2.1-1.4c0.8-0.3,1.7-0.5,2.6-0.5c0.9,0,1.7,0.2,2.5,0.5c0.8,0.3,1.5,0.8,2.1,1.4c0.6,0.6,1.1,1.3,1.4,2.1
		c0.4,0.8,0.5,1.6,0.5,2.5v30.5h18.8V43.7h4.1V84H1171.8z M1169.4,52.9c0.9,0,1.6-0.3,2.1-0.9s0.8-1.3,0.8-2.2s-0.3-1.6-0.8-2.1
		c-0.6-0.6-1.3-0.9-2.1-0.9c-0.9,0-1.6,0.3-2.2,0.9c-0.6,0.6-0.9,1.3-0.9,2.1s0.3,1.6,0.9,2.2C1167.8,52.6,1168.5,52.9,1169.4,52.9z
		"/>
	<path class="st1" d="M1237.1,84V62c0-3-0.8-4.6-2.3-4.6c-1,0-2.1,1.1-3.4,3.4l-13,23.1h-3.7V56c-0.4,0.2-0.7,0.3-1.2,0.4
		c-0.4,0.1-0.8,0.1-1.3,0.1c-0.9,0-1.8-0.2-2.6-0.5c-0.8-0.4-1.5-0.8-2.1-1.4c-0.6-0.6-1-1.3-1.4-2.1c-0.3-0.8-0.5-1.6-0.5-2.6
		c0-0.9,0.2-1.7,0.5-2.5c0.3-0.8,0.8-1.5,1.4-2.1c0.6-0.6,1.3-1.1,2.1-1.4c0.8-0.3,1.7-0.5,2.6-0.5c0.9,0,1.7,0.2,2.5,0.5
		c0.8,0.3,1.5,0.8,2.1,1.4c0.6,0.6,1.1,1.3,1.4,2.1c0.4,0.8,0.5,1.6,0.5,2.5v22.3c0,0.4,0,0.8,0,1.3s0,1,0,1.5c0,0.5-0.1,1-0.1,1.4
		c-0.1,0.4-0.1,0.8-0.2,1l1.6-3.4l8.1-14.9c0.5-0.8,1-1.6,1.5-2.3c0.5-0.7,1.1-1.3,1.8-1.6c-1.5-1.4-2.3-3.1-2.3-5.1
		c0-0.9,0.2-1.8,0.5-2.6c0.4-0.8,0.9-1.5,1.5-2.1c0.6-0.6,1.3-1.1,2.1-1.4c0.8-0.3,1.7-0.5,2.6-0.5s1.8,0.2,2.7,0.5
		c0.8,0.3,1.6,0.8,2.2,1.4c0.6,0.6,1.1,1.3,1.5,2.1c0.4,0.8,0.5,1.7,0.5,2.6c0,2.5-1.1,4.4-3.3,5.8c0.6,0.6,1,1.5,1.2,2.7
		c0.2,1.2,0.4,2.5,0.4,3.8V84H1237.1z M1212.3,52.9c0.9,0,1.6-0.3,2.1-0.9s0.8-1.3,0.8-2.2s-0.3-1.6-0.8-2.1
		c-0.6-0.6-1.3-0.9-2.1-0.9c-0.9,0-1.6,0.3-2.2,0.9c-0.6,0.6-0.9,1.3-0.9,2.1s0.3,1.6,0.9,2.2C1210.7,52.6,1211.4,52.9,1212.3,52.9z
		 M1235.9,53.3c1,0,1.8-0.3,2.4-0.9s0.9-1.4,0.9-2.4c0-1-0.3-1.8-0.9-2.4c-0.6-0.6-1.4-1-2.4-1c-0.9,0-1.7,0.3-2.3,1
		c-0.6,0.6-0.9,1.4-0.9,2.4c0,1,0.3,1.8,0.9,2.4S1235,53.3,1235.9,53.3z"/>
	<path class="st1" d="M1275.2,77.6l-13.9,6.4h-4.3V56c-0.4,0.2-0.7,0.3-1.2,0.3c-0.4,0.1-0.8,0.1-1.3,0.1c-0.9,0-1.8-0.2-2.6-0.5
		c-0.8-0.4-1.5-0.8-2.1-1.4c-0.6-0.6-1-1.3-1.4-2.1c-0.3-0.8-0.5-1.6-0.5-2.6c0-0.9,0.2-1.7,0.5-2.5c0.3-0.8,0.8-1.5,1.4-2.1
		c0.6-0.6,1.3-1.1,2.1-1.4c0.8-0.3,1.7-0.5,2.6-0.5c0.9,0,1.7,0.2,2.5,0.5c0.8,0.3,1.5,0.8,2.1,1.4c0.6,0.6,1.1,1.3,1.4,2.1
		c0.4,0.8,0.5,1.6,0.5,2.5v30.5l18.4-8.2V43.7h4.1v28.6c1.2,0.5,2.2,1.2,3,2.3c0.8,1.1,1.2,2.3,1.2,3.7c0,0.9-0.2,1.7-0.5,2.5
		c-0.3,0.8-0.8,1.4-1.3,2c-0.6,0.6-1.2,1-2,1.3c-0.8,0.3-1.6,0.5-2.4,0.5c-0.9,0-1.7-0.1-2.5-0.4c-0.8-0.3-1.4-0.7-2-1.2
		c-0.6-0.5-1-1.1-1.3-1.9c-0.3-0.7-0.5-1.5-0.5-2.4V77.6z M1254.6,52.9c0.9,0,1.6-0.3,2.1-0.9c0.6-0.6,0.8-1.3,0.8-2.2
		s-0.3-1.6-0.8-2.2s-1.3-0.9-2.1-0.9c-0.9,0-1.6,0.3-2.2,0.9c-0.6,0.6-0.9,1.3-0.9,2.2s0.3,1.6,0.9,2.2
		C1253,52.6,1253.7,52.9,1254.6,52.9z M1281.5,81.1c0.8,0,1.4-0.3,1.9-0.8c0.5-0.5,0.8-1.2,0.8-1.9c0-0.8-0.3-1.4-0.8-1.9
		c-0.5-0.5-1.2-0.8-1.9-0.8c-0.8,0-1.4,0.3-2,0.8c-0.5,0.5-0.8,1.2-0.8,1.9c0,0.8,0.3,1.4,0.8,1.9
		C1280.1,80.8,1280.7,81.1,1281.5,81.1z"/>
	<path class="st1" d="M1280.7,35.6c-2.7-1-5.2-1.8-7.6-2.4c-2.4-0.6-4.6-1.1-6.7-1.5s-4-0.6-5.8-0.7c-1.8-0.1-3.4-0.2-4.9-0.2
		c-0.7,0-1.3,0-1.9,0s-1,0-1.3,0c-0.4,0-0.7,0.1-1,0.1c-0.3,0-0.6,0.1-0.9,0.1c0.7-1.8,1.5-3.5,2.6-4.9c1.1-1.4,2.3-2.6,3.7-3.6
		c1.4-1,3-1.7,4.6-2.3c1.7-0.5,3.5-0.8,5.4-0.8c0.4,0,0.9,0,1.4,0.1c0.5,0.1,1,0.1,1.5,0.2c0.5,0.1,0.9,0.2,1.3,0.3
		c0.4,0.1,0.7,0.2,0.9,0.3c0-1.5,0.6-2.7,1.7-3.7c1.1-1,2.6-1.4,4.5-1.4c0.9,0,1.8,0.2,2.5,0.5c0.8,0.3,1.4,0.7,1.9,1.3
		c0.5,0.5,0.9,1.2,1.2,2c0.3,0.8,0.4,1.6,0.4,2.4c0,1.5-0.3,2.6-1,3.4c-0.7,0.8-1.6,1.5-2.6,2c0.4,0.6,0.7,1.2,1.1,2
		c0.3,0.8,0.6,1.6,0.9,2.5c0.3,0.9,0.5,1.8,0.7,2.7c0.2,1,0.4,1.9,0.4,2.8L1280.7,35.6z M1279.7,31.9c-1.4-3-3.1-5.3-5.1-6.7
		c-2-1.5-4.5-2.2-7.6-2.2c-1.2,0-2.3,0.1-3.5,0.3c-1.1,0.2-2.1,0.5-3.1,0.9c-1,0.4-1.8,0.9-2.6,1.5c-0.8,0.6-1.4,1.3-1.9,2.1
		c2.1,0,4.1,0.1,6,0.2c1.9,0.1,3.8,0.3,5.7,0.6c1.9,0.3,3.8,0.7,5.8,1.2S1277.5,31.1,1279.7,31.9z M1281.1,21.3c0-0.8-0.2-1.4-0.7-2
		c-0.5-0.6-1.2-0.8-2-0.8s-1.5,0.3-2,0.8c-0.5,0.6-0.7,1.2-0.7,2c0,0.8,0.2,1.4,0.7,1.9s1.1,0.8,2,0.8s1.5-0.3,2-0.8
		C1280.9,22.7,1281.1,22.1,1281.1,21.3z"/>
	<path class="st1" d="M1280,12.8v-12h3.8v12H1280z"/>
	<path class="st1" d="M1310.1,84l-18.9-20.9l2.7-2.7l16.8,18.4V56c-0.4,0.2-0.8,0.3-1.2,0.3c-0.4,0.1-0.9,0.1-1.3,0.1
		c-0.9,0-1.8-0.2-2.6-0.5c-0.8-0.4-1.5-0.8-2.1-1.4c-0.6-0.6-1-1.3-1.4-2.1c-0.3-0.8-0.5-1.6-0.5-2.6c0-0.9,0.2-1.7,0.5-2.5
		c0.3-0.8,0.8-1.5,1.4-2.1c0.6-0.6,1.3-1.1,2.1-1.4c0.8-0.3,1.7-0.5,2.6-0.5s1.8,0.2,2.6,0.5c0.8,0.3,1.5,0.8,2.1,1.4
		c0.6,0.6,1.1,1.3,1.4,2.1c0.3,0.8,0.5,1.6,0.5,2.5V84H1310.1z M1308.2,52.9c0.9,0,1.6-0.3,2.1-0.9c0.6-0.6,0.8-1.3,0.8-2.2
		s-0.3-1.6-0.8-2.2c-0.6-0.6-1.3-0.9-2.1-0.9s-1.6,0.3-2.2,0.9s-0.9,1.3-0.9,2.2s0.3,1.6,0.9,2.2
		C1306.6,52.6,1307.3,52.9,1308.2,52.9z"/>
</g>
</svg>
